<svg xmlns="http://www.w3.org/2000/svg" viewBox="0 0 256 256">
    <path fill="#A9B7C6" d="M200.931 101.074h6.806v6.656h12.116v37.246h12.933v13.034c-4.043 0-7.98 0-12.354-.427-.436-2.363-.436-4.299-.436-6.226h-5.68v6.56h5.758c-.014 1.822-.027 3.644-.391 5.784-2.094.319-3.839.319-5.638.319 0 2.413 0 4.224-.448 6.01-2.057-.025-3.668-.025-5.639-.025v-5.813h-6.76v11.799h6.938v18.861h5.768c0-8.406 0-16.672.449-24.897 2.146.042 3.842.042 5.763.042v-5.869h12.628v5.67l-6.523.362-.38 5.594-5.545.42v6.571l5.509.439.257 5.552-5.866.43-.277 5.589 5.926.388v18.834h6.945v12.02c-4.049 0-7.987 0-12.36-.004-.434-.003-.362.065-.362.065v-5.755l-6.072-.547c0-1.728 0-3.329.003-5.344.004-.413-.067-.344.386-.375 2.057-.03 3.66-.03 5.259-.03v-12.699H207.93c0 2.46 0 4.611.034 6.727.035-.035.105-.104-.35-.071-2.385.033-4.316.033-6.28.033v6.073c2.466 0 4.6 0 6.698-.035l-.11-.105v18.735h-12.772v-24.462h-19.095v5.796c-1.958 0-3.562 0-5.577.026-.41.025-.337.093-.337.093v-5.784h-12.126v5.662l-6.595.001c-.421.001-.352.073-.384-.396-.033-4.405-.033-8.34-.033-12.626h7.15v-17.676h11.92c0 2.12 0 3.943-.449 5.735-2.055-.03-3.66-.03-5.278-.03v6.07l5.586-.26c0-2.262 0-4.077.452-5.856 2.048.036 3.644.036 5.54.036 0-4.584 0-8.823.473-13.03 6.408.03 12.343.03 18.405.03V170H183.35v-5.858l5.506-.384v-5.68c-6.399 0-12.662 0-18.898-.446.056-2.531.083-4.616.076-6.666-.035.035-.105.104.365.073 4.395-.032 8.322-.032 12.265-.032v-18.289h-6.596c0-2.495 0-4.64-.035-6.752-.034.035-.104.104.349.073 2.494-.03 4.535-.03 6.687-.03 0-2.489 0-4.283-.035-6.042a15.93 15.93 0 0 0-.103.108c1.753-.026 3.507-.053 5.667.34.406 2.008.406 3.595.406 5.305h6.118c0-2.054 0-3.829.416-5.657 2.06-.016 3.704.02 5.4.499.052 2.025.052 3.61.052 5.211h12.792v-5.503c-4.488 0-8.758 0-12.916-.472.113-2.19.113-3.91.113-5.548h-6.026c.115 2.174.217 4.087-.143 5.886-2.27-.095-4.077-.074-5.885-.053v-11.81l-5.594-.422V95.183h5.65v5.821h5.606c.413-.001.343-.074.372.382.028 2.385.028 4.316.028 6.28h6.081c0-2.467 0-4.601-.034-6.7a18.12 18.12 0 0 0-.104.108m-5.925 44.753v4.855h5.926c0-2.141 0-3.949.905-5.692h6.096c0-2.463 0-4.255.896-5.995h4.82v-6.068l-5.575.258c0 2.269 0 4.084-.89 5.82-2.084.023-4.168.045-6.185-.828v-4.852h-5.924c0 2.13 0 3.937-.897 5.683h-4.851v5.924c2.132 0 3.94 0 5.679.895m-.566 37.175h-11.127v17.686h17.37v-17.686h-6.243z"/>
    <path fill="#A9B7C6" d="M138.936 39.079c1.753-.025 3.505-.05 5.661-.076.403-.001.334-.073.366.375.032 2.048.032 3.648.032 5.296h6.074c0-2.132 0-3.938-.034-5.708l-.103.108h24.824v11.644h7.152v25.173h5.757v6.886l-5.432.367-.364 5.534h-6.702v19.137h-6.153V101.2h-5.977v6.795c-1.98 0-3.59 0-5.62.002-.416.002-.348.072-.384-.397-.036-4.497-.036-8.525-.036-12.67-2.8 0-4.933 0-7.032.035.035.035.105.104.072-.333-.056-2.194-.08-3.95.35-5.671 2.391.034 4.328.034 6.612.034v-6.109h11.927c0-2.658 0-4.806.454-6.923 2.057.03 3.66.03 5.31.03V58.068c-2.13 0-3.947 0-5.73-.469.035-4.388.035-8.307.035-12.283h-11.927c0 2.13 0 3.944-.469 5.724-4.396-.034-8.323-.034-12.443-.034l-.35 6.855-5.876.37c0 2.21 0 4.024.035 5.804.035-.035.104-.105-.344-.073-2.057.032-3.664.032-5.623.032v5.67h-6.872l-.349-5.591c-2.21 0-4.027 0-5.812-.45.031-2.053.031-3.658.031-5.601h-5.927c0-4.587 0-8.84-.034-13.057-.035.035-.105.105.341.072 2.154-.032 3.862-.032 5.693-.032 0-2.49 0-4.283-.034-6.04-.035.035-.105.104.333.072 2.192-.011 3.947.01 5.666 0-.037-.034-.103-.107-.071.344.032 2.057.032 3.663.032 5.625h6.744l.586 6.084 5.744-.328c0-4.236 0-8.034-.032-11.794-.033.038-.101.11-.101.11z"/>
    <path fill="#A9B7C6" d="M63.908 26.001h5.772v43.693H26.315V26h37.593m-11.425 6.998h-19.19v30.709h30.413V32.999H52.483z"/>
    <path fill="#A9B7C6" d="M46 189h23.716v43.713H26.288V189H46m-11.29 36.996h28.92v-30.804H33c0 4.636-.095 9.093.023 13.544.152 5.738.474 11.471 1.688 17.26z"/>
    <path fill="#A9B7C6" d="M194.11 26.001h38.638v43.75h-43.501v-43.75h4.863m31.142 37.94V33.208h-30.044v30.785c9.832 0 19.454 0 30.044-.052z"/>
    <path fill="#A9B7C6" d="M101.072 225.93H89.28v6.747H76.343v-6.359h6.31v-12.322h-6.65c0-12.62 0-24.872-.002-37.562-.003-.438-.07-.364.375-.397 2.527-.059 4.61-.085 6.66.344-.031 2.387-.031 4.319-.031 6.294h5.927c0-2.478 0-4.614.467-6.716 4.047.034 7.626.034 11.676.034 0 4.607 0 8.84-.468 13.043-4.072-.032-7.676-.032-11.404-.032v12.015h5.44v6.85l-5.728.38.28 5.608 5.651.385.393 5.685c2.19 0 4.009 0 5.797.438a170.188 170.188 0 0 0-.07 5.67c.038-.033.106-.105.106-.105z"/>
    <path fill="#A9B7C6" d="M45.08 120.072c-1.758-.026-3.515-.05-5.676-.075-.404.001-.334.073-.367-.375-.032-2.05-.032-3.651-.032-5.302H32.93c0 2.133 0 3.942.035 5.714l.103-.108h-6.766v-18.76H38.99V95.01c1.962 0 3.572 0 5.595-.004.415-.004.345-.075.378.373.032 2.05.032 3.65.032 5.298h6.075c0-2.131 0-3.938-.035-5.71-.035.034-.105.103.363.071 4.537-.056 8.607-.08 12.642.332-.012 2.191.011 3.945-.416 5.668-2.05-.032-3.649-.032-5.302-.032v6.921c2.13 0 3.937 0 5.716.439-.009 2.195.01 3.952-.423 5.674-2.056-.034-3.659-.034-5.306-.034v18.92c2.125 0 3.942 0 5.728.439-.01 2.195.01 3.953-.436 5.676a825.92 825.92 0 0 0-12.633-.077c.038.033.11.101.11.101V125.98h-6.084c0-1.944 0-3.548.424-5.569 2.028-.417 3.631-.417 5.237-.417v-12.082l-5.576.31v11.85z"/>
    <path fill="#A9B7C6" d="M157.967 107.964c-.012 1.72.009 3.474.03 5.633.001.403.073.334-.399.365-6.498.032-12.524.032-18.45.032l-.379 6.074c-2.214 0-4.029 0-5.81-.472.036-10.399.036-20.326.036-30.4h-7v5.611h-5.647V82.72h12.937v-6.546l5.784-.464V63.93s-.069.07.345.072c2.021.003 3.63.003 5.588.003v5.662h5.858l.392-5.734c2.534 0 4.678 0 6.788.467-.033 4.055-.033 7.643-.033 11.727h-12.933c0 2.653 0 4.798-.453 6.905-2.06-.037-3.666-.037-5.283-.037v18.079l5.504-.264.396-5.74h5.832s-.07-.07-.072.365c-.003 4.46-.003 8.485-.003 12.634h7.074l-.102-.105z"/>
    <path fill="#A9B7C6" d="m163.933 120.073 11.636-.07c.43-.001.361-.073.394.365.011 2.192-.011 3.947-.033 5.701 0 0 .07-.07-.349-.07-2.014-.002-3.61-.002-5.507-.002 0 4.589 0 8.83-.448 13.039-2.05-.032-3.651-.032-5.3-.032v5.928c2.133 0 3.94 0 5.714.437-.06 2.192-.085 3.946-.11 5.7 0 0 .07-.069-.344-.072-2.008-.002-3.602-.002-5.52-.002 0 2.585 0 4.831-.448 7.044-2.06-.032-3.671-.032-5.64-.032v5.806h-6.626v-12.949h6.32v-11.547h-6.528l-.389 5.758c-2.18 0-4.002 0-5.792-.473.032-6.5.032-12.526.032-18.43l5.861-.403.385-5.7c2.543 0 4.686 0 6.794-.034-.035-.035-.104-.105-.072.365.033 4.394.033 8.319.033 12.416h6.073c0-4.384 0-8.634-.034-12.85a16.51 16.51 0 0 0-.102.107z"/>
    <path fill="#A9B7C6" d="M201.265 95.24V76.22h6.626v6.527h5.905l.35-6.474h18.543v6.642h-12.537v5.947h12.66v6.117h-6.816l-.001 5.605c-.001.416.067.344.067.344h-12.027V95.01c-4.216 0-8.112 0-12.429.08-.422.079-.341.15-.341.15z"/>
    <path fill="#A9B7C6" d="M45.07 170.06v-12.079h5.934v-6.556c.002-.42-.074-.356.372-.388 2.527-.058 4.61-.085 6.66.342-.032 2.494-.032 4.536-.032 6.549 2.473 0 4.267 0 6.034.447-.028 2.157-.028 3.867-.028 5.555 2.478 0 4.273 0 6.031.438a164.417 164.417 0 0 0-.076 5.666l.104-.109H58.11v12.884h-7.099v-12.813c-1.963 0-3.57 0-5.594-.002-.418-.001-.346.067-.346.067z"/>
    <path fill="#A9B7C6" d="M45.076 83.07v-6.944h37.928c0-2.079 0-3.685-.003-5.71-.003-.42-.07-.346.368-.38 2.193-.058 3.95-.081 5.67.363-.015 4.536.006 8.605-.445 12.639-8.493-.035-16.515-.035-24.52-.035 0 2.436 0 4.25-.449 6.033-2.054-.032-3.658-.032-5.602-.032V82.93c-4.589 0-8.84 0-13.057.035l.11.104z"/>
    <path fill="#A9B7C6" d="M139.068 219.925h-5.782l-.532-5.928h-6.335c-.42 0-.348.073-.381-.376-.034-2.05-.034-3.651-.034-5.366l-6.079-.57c0-2.483 0-4.618.448-6.722 2.16.03 3.872.03 5.559.03 0-2.475 0-4.271.444-6.033 2.527.012 4.61-.01 6.66.415-.03 2.05-.03 3.651-.03 5.298h5.926c0-2.132 0-3.94.438-5.713 2.194.066 3.951.097 5.674.092-.035-.036-.108-.105-.079.363.029 4.39.029 8.31.029 12.568h-6.064c0 4.256 0 8.171.035 12.05.035-.035.103-.108.103-.108z"/>
    <path fill="#A9B7C6" d="M44.965 169.956c-.035 4.11-.035 8.255-.035 12.725H26.335v-24.335h12.468v5.66h-5.609v11.8h5.776v-5.802c1.977 0 3.59 0 5.653.028.448.029.376-.04.342-.076z"/>
    <path fill="#A9B7C6" d="M83.074 64.068V58.27H76.34v-7.264h6.657c0-1.964 0-3.57.003-5.59.003-.416-.069-.346.369-.379 2.192-.01 3.946.011 5.665 0-.037-.034-.103-.107-.071.346.032 2.05.032 3.647.032 5.557 4.26 0 8.173 0 12.048.444-.014 2.524.009 4.604-.436 6.653-4.162-.031-7.856-.031-11.533-.031 0 2.457 0 4.26-.438 6.03-2.194-.056-3.95-.08-5.67-.07l.108.102z"/>
    <path fill="#A9B7C6" d="M101.078 39.063V26.337h12.92v6.666c1.957 0 3.562 0 5.582.002.416 0 .35-.075.383.363.011 2.192-.01 3.947-.033 5.701 0 0 .07-.069-.341-.071-2.121-.002-3.83-.002-5.659-.002v6.074s.07-.07-.333-.072c-2.157.024-3.911.05-5.634-.373.032-2.043.032-3.637.032-5.695-2.574 0-4.82 0-7.027.033.037.032.11.1.11.1z"/>
    <path fill="#A9B7C6" d="M150.966 213.962c-.034 1.784-.034 3.605-.034 5.764h6.743v13.089h-6.642v-6.82l-11.602-.001c-.433-.002-.36.066-.36.066a312.746 312.746 0 0 1-.034-5.697c.031-.438-.037-.365.376-.359 2.015.007 3.616.007 5.34.007l.541-5.941h5.775l-.103-.108z"/>
    <path fill="#A9B7C6" d="M83.04 44.966c-2.12-.035-4.274-.035-6.74-.035V26.176h6.527v6.803h6.164c0 1.969 0 3.579.002 5.602.001.414.077.35-.37.386-2.156.037-3.866.037-5.692.037v6.066l.108-.104z"/>
    <path fill="#A9B7C6" d="M120.03 33.042c.034-2.117.034-4.27.034-6.732h12.961v6.683h5.97c0 1.967 0 3.577-.03 5.636-.03.45.04.377-.396.37-4.503-.028-8.57-.048-12.638-.069 0 0 .066.073.07-.34.005-2.123.005-3.832.005-5.66h-6.075s.065.076.099.112z"/>
    <path fill="#A9B7C6" d="M39.064 144.922c-1.754.024-3.509.049-5.666.07-.403-.003-.33.066-.33.066v-5.805h-6.855c-.1-2.066-.186-3.808-.29-5.912h19.073l-.001 5.238c-.001.418.075.352-.372.382-2.155.029-3.864.029-5.692.029 0 2.493 0 4.287.032 6.042.033-.038.101-.11.101-.11z"/>
    <path fill="#A9B7C6" d="M44.957 139.032c1.723.014 3.483-.006 5.682.003.44.03.367-.04.36.393-.026 4.17-.047 7.905-.069 11.641 0 0 .076-.065.112-.099-3.875-.034-7.786-.034-12.038-.034 0-1.912 0-3.51.03-5.56.03-.454-.038-.382.375-.376 2.124.005 3.833.005 5.66.005v-6.074l-.112.1z"/>
    <path fill="#A9B7C6" d="M138.964 225.956c-.034 2.114-.034 4.264-.034 6.73h-12.751v-6.682c4.088 0 8.02 0 12.423.028.469.028.396-.04.362-.076z"/>
    <path fill="#A9B7C6" d="M182.93 219.94v12.72h-6.586v-12.65l6.234-.001c.424-.001.351-.07.351-.07z"/>
    <path fill="#A9B7C6" d="M88.958 39.03c3.705.015 7.446-.003 11.654.006.466.027.393-.041.388.364.02 2.16.048 3.914-.39 5.637-4.204-.057-7.942-.082-11.68-.107 0 0 .067.073.071-.331.025-2.16.047-3.914.069-5.669 0 0-.076.065-.112.1z"/>
    <path fill="#A9B7C6" d="M170.033 214.014c-.035 3.759-.035 7.553-.035 11.757l-5.68.318v-12.087c1.675 0 3.287 0 5.361.058.463.058.39-.01.354-.046z"/>
    <path fill="#A9B7C6" d="M125.965 213.96c-.035 1.766-.035 3.57-.035 6.036h-11.498c-.432.001-.362.074-.394-.379-.033-2.05-.033-3.646-.033-5.547h12.066l-.106-.11z"/>
    <path fill="#A9B7C6" d="M45.072 88.93c-3.739.022-7.478.045-11.648.068-.432 0-.36.068-.36.068-.02-1.758-.04-3.516-.057-5.678.004-.404-.065-.332-.065-.332 3.734-.019 7.469-.038 11.669-.021.465.035.392-.034.387.368-.025 2.157-.047 3.912-.031 5.633.036-.034.105-.107.105-.107z"/>
    <path fill="#A9B7C6" d="M107.925 225.93v6.739h-6.921c0-1.97 0-3.9.034-6.284.034-.455-.034-.383.374-.382 2.492.023 4.575.045 6.622.032a17.212 17.212 0 0 0-.109-.104z"/>
    <path fill="#A9B7C6" d="M225.958 101.034c2.107.034 4.25.034 6.717.034v6.577h-6.672c0-1.936 0-3.87.03-6.262.03-.455-.04-.383-.075-.349z"/>
    <path fill="#A9B7C6" d="M33.047 82.95c-2.108-.034-4.252-.034-6.72-.034V76.35h6.669c0 1.93 0 3.864-.027 6.252-.027.453.042.38.078.347z"/>
    <path fill="#A9B7C6" d="M226.031 124.844c-.026-1.748-.026-3.034-.026-4.588h6.79l.31 5.889c-2.509-.3-4.778-.57-7.074-1.301z"/>
    <path fill="#A9B7C6" d="M69.933 175.941v6.863l-5.593.28v-7.079c1.625 0 3.23 0 5.25.003.415.002.343-.067.343-.067z"/>
    <path fill="#A9B7C6" d="M32.958 88.962c-.034 1.778-.034 3.593-.034 5.723H26.36v-5.681c1.925 0 3.86 0 6.25.031.455.031.382-.037.348-.073z"/>
    <path fill="#A9B7C6" d="M83.034 69.962c-2.1-.034-4.235-.034-6.705-.034v-5.925c1.97 0 3.903 0 6.29.032.455.033.383-.035.38.368l-.068 5.667s.067-.073.103-.108z"/>
    <path fill="#A9B7C6" d="M113.937 226.072h5.75v6.574h-5.683v-6.226c.001-.42-.067-.348-.067-.348z"/>
    <path fill="#A9B7C6" d="M169.636 26.398c.313 2.275.313 4.211.313 6.37h-5.685v-6.71c1.611 0 3.335 0 5.372.34z"/>
    <path fill="#A9B7C6" d="M219.962 225.953c-.034 2.106-.034 4.249-.034 6.85l-5.585.277v-7.074c1.615 0 3.22 0 5.275.026.45.026.378-.042.344-.079z"/>
    <path fill="#A9B7C6" d="M176.034 120.038c.034-1.774.034-3.585.034-5.72h6.928c0 1.652 0 3.253-.032 5.306-.032.45.036.378-.375.375l-6.659-.069.104.108z"/>
    <path fill="#A9B7C6" d="M32.961 144.953c-.034 1.778-.034 3.593-.034 5.728H26.36v-5.677c1.926 0 3.862 0 6.253.027.455.027.382-.042.348-.078z"/>
    <path fill="#A9B7C6" d="M38.966 119.962c-.034 1.773-.034 3.581-.034 5.722h-5.927c0-1.654 0-3.258.031-5.31.032-.448-.036-.376.367-.373 2.157.025 3.912.047 5.667.069l-.104-.108z"/>
    <path fill="#A9B7C6" d="M214.038 213.965c-1.722-.015-3.48.005-5.676-.005-.439-.03-.365.04-.357-.363.027-2.157.046-3.912.065-5.666 0 0-.07.069.342.071 2.122.002 3.833.002 5.52.002v6.064s.07-.07.106-.103z"/>
    <path fill="#A9B7C6" d="M183.036 220.044c.034-1.779.034-3.593.034-5.864l5.58-.256v6.072c-1.611 0-3.218 0-5.272-.028-.449-.029-.376.04-.342.076z"/>
    <path fill="#A9B7C6" d="M114.041 225.966c-1.722-.013-3.48.009-5.678-.003-.438-.032-.365.037-.362-.366-.024-2.158-.052-3.912.36-5.637 2.195.056 3.952.083 5.71.11l-.106-.11c-.013 1.72.01 3.478.002 5.674-.03.438.038.366.074.332z"/>
    <path fill="#A9B7C6" d="M145.034 39.038c.034-1.772.034-3.58.034-5.713h5.929c0 1.648 0 3.25-.033 5.3-.032.45.036.377-.367.374-2.157-.025-3.912-.047-5.666-.069l.103.108z"/>
    <path fill="#A9B7C6" d="M157.962 114.034c1.759.035 3.554.035 6.034.035 0 1.69 0 3.4-.032 5.557-.031.447.037.376-.367.374-2.157-.025-3.912-.047-5.666-.07 0 0 .07.07.07-.333.023-2.157.046-3.912.07-5.666l-.11.103z"/>
    <path fill="#A9B7C6" d="M70.04 176.046c.01-1.724-.016-3.484-.006-5.682.035-.439-.034-.366.37-.362 2.158-.02 3.914-.045 5.638.368-.059 2.191-.085 3.946-.112 5.7 0 0 .068-.074.104-.108-1.718-.012-3.473.011-5.664.007-.437-.028-.365.041-.33.077z"/>
    <path fill="#A9B7C6" d="M195.036 101.039c.035-1.779.035-3.593.035-6.016 1.761 0 3.508 0 5.724.109.47.109.389.037.355.006-.074 1.67-.114 3.37-.186 5.504-.033.432.036.36-.367.356l-5.666-.068.105.109z"/>
    <path fill="#A9B7C6" d="M45.034 95.037c.013-1.72-.009-3.476.004-5.67.034-.438-.035-.365.375-.364 2.119.002 3.828.002 5.517.002v6.064s.07-.069-.333-.073c-2.157-.024-3.912-.045-5.667-.066l.104.107z"/>
    <path fill="#A9B7C6" d="M125.621 132.963c.449 1.786.449 3.604.449 5.93h12.934v6.102c1.954 0 3.561 0 5.617-.032.448 8.202.448 16.436.448 25.03-2.022 0-3.624 0-5.645-.003-.419-.003-.346.065-.346.065v-18.78l-5.819-.45-.422-5.51h-6.746v12.577h-5.975v17.903h-5.983v-5.463l-5.948-.577v-5.737h5.615v-12.99h-5.805c0-1.974 0-3.587-.032-5.649 1.783-.449 3.599-.449 5.809-.449l.363-5.632 5.863-.555v-5.748c1.96 0 3.567 0 5.623-.032z"/>
    <path fill="#A9B7C6" d="M83.075 114.068v-5.78H94.88v11.586h5.96v19.105h7.166c0 1.97 0 3.58.032 5.64-2.116.45-4.264.45-6.785.45l-.42 5.739-5.576.265-.402-5.838-5.494-.369v-5.854H94.8v-6.017c-3.712 0-7.322 0-11.366.002-.433.001-.364.073-.4-.373-.012-2.528.012-4.61 0-6.659-.034.035-.103.105.35.07 2.053-.036 3.653-.036 5.3-.036V113.93c-2.127 0-3.94 0-5.718.035l.109.103z"/>
    <path fill="#A9B7C6" d="M70.367 164.037c-.437-1.76-.437-3.555-.437-6.039-1.687 0-3.397 0-5.554.036-.42-2.047-.395-4.13-.372-6.623-.002-.41-.074-.341.372-.373 2.155-.032 3.864-.032 5.694-.032 0-2.49 0-4.283-.035-6.04l-.103.108h6.074c0-3.823 0-7.516-.002-11.641-.002-.433-.073-.363.372-.396 2.528-.01 4.611.011 6.694.033l-.102-.108c-.014 5.696.006 11.428.026 17.597 0 .437.076.372-.382.402-2.384.03-4.31.03-6.681.03 0 4.602 0 8.84.034 13.043l.101-.106c-1.754.025-3.507.05-5.699.11z"/>
    <path fill="#A9B7C6" d="M139.037 194.602c-1.722.444-3.477.421-5.67.433-.437-1.774-.437-3.583-.437-5.713h-6.925c0 1.647 0 3.247.032 5.297-1.722.43-3.477.408-5.669.418-.437-3.766-.437-7.564-.437-11.699h19.074c0 3.61 0 7.204.032 11.264z"/>
    <path fill="#A9B7C6" d="M163.967 158.402c1.719-.452 3.473-.433 5.666-.443.437 1.78.437 3.59.437 5.818l5.935.369c0 3.6 0 7.294.032 11.456-3.754.467-7.54.467-12.035.467 0-5.817 0-11.506-.035-17.667z"/>
    <path fill="#A9B7C6" d="M114.037 194.602c-4.209.467-8.45.467-13.042.467 0-2.038 0-3.635-.032-5.685 2.108-.454 4.249-.454 6.797-.454l.374-5.58h5.87c0 3.593 0 7.19.033 11.252z"/>
    <path fill="#A9B7C6" d="M82.958 151.03c1.78.034 3.596.034 5.727.034V164h-5.27c-.419.002-.345.07-.378-.398-.01-4.535.011-8.603.033-12.671 0 0-.076.065-.112.099z"/>
    <path fill="#A9B7C6" d="M138.971 169.95c-.034 1.783-.034 3.601-.034 5.735h-12.754v-5.68c4.089 0 8.022 0 12.425.025.47.025.397-.043.363-.08z"/>
    <path fill="#A9B7C6" d="M145.044 195.052c.034-3.762.034-7.561.034-11.813l5.573-.333v12.083c-1.602 0-3.206 0-5.262-.02-.453-.022-.38.047-.345.083z"/>
    <path fill="#A9B7C6" d="M76.376 170.037c-.42-1.722-.396-3.477-.34-5.67.03-.439-.037-.368.374-.368 2.494.024 4.577.047 6.66.07 0 0-.074-.067-.108-.103a178.64 178.64 0 0 0 .076 5.666c-2.051.416-4.134.394-6.662.405z"/>
    <path fill="#A9B7C6" d="M151.391 175.624c-.333-1.93-.333-3.537-.333-5.383h6.741c.08 1.668.16 3.393.27 5.705-2.23 0-4.287 0-6.678-.322z"/>
    <path fill="#A9B7C6" d="M96.166 164.031c1.748-.026 3.033-.026 4.575-.026v5.796l-5.844.292c.29-2.173.548-4.104 1.27-6.062z"/>
    <path fill="#A9B7C6" d="M89.038 175.624c-1.723.425-3.478.403-5.67.414-.417-1.723-.395-3.478-.406-5.67 1.762-.438 3.555-.438 6.044-.438 0 1.83 0 3.538.032 5.694z"/>
    <path fill="#A9B7C6" d="M119.632 194.963c.416 1.722.394 3.477.405 5.67-1.722.415-3.477.394-5.67.405-.415-1.723-.393-3.478-.404-5.67 1.722-.416 3.477-.394 5.669-.405z"/>
    <path fill="#A9B7C6" d="M192.003 195.003c-5.363.126-1.652-3.755-4.203-5.658h7.312c-1.122 1.92 2.3 5.35-3.109 5.658z"/>
    <path fill="#A9B7C6" d="M170.379 145.037c-.427-1.722-.406-3.477-.417-5.669 1.777-.437 3.585-.437 5.717-.437v6.074c-1.649 0-3.25 0-5.3.032z"/>
    <path fill="#A9B7C6" d="M195.368 145.038c-.416-1.723-.395-3.477-.406-5.67 1.723-.415 3.477-.392 5.67-.403.416 1.72.394 3.475.405 5.667-1.722.416-3.476.395-5.669.406z"/>
    <path fill="#A9B7C6" d="M101.075 76.07c-.026-5.732-.053-11.464-.112-17.668 2.12-.472 4.27-.472 6.938-.472v11.882h6.091v-5.81c1.963 0 3.572 0 5.629-.036.448 3.767.448 7.57.448 11.749l-5.742.436v31.851c1.611 0 3.214 0 5.235-.007.418-.008.346-.076.346-.076v17.85l-5.651.315v-11.973h-13.11v-5.805h6.506v-7.118l-6.658-.362v-5.82H83.188v-5.972h5.816c0-1.978 0-3.593-.037-5.655 1.718-.424 3.472-.399 5.63-.376.403-.001.334-.073.366.375.032 2.049.032 3.65.032 5.297h6.074c0-2.13 0-3.937-.034-5.71-.035.035-.105.105.35.07C103.77 83 105.7 83 107.67 83V75.93c-2.466 0-4.603 0-6.703.035l.108.104z"/>
    <path fill="#A9B7C6" d="M76.038 132.966a715.6 715.6 0 0 0-11.642.071c-.466-2.102-.466-4.236-.466-6.719l6.075-.57c0-1.718 0-3.319-.002-5.334 0-.414-.072-.344.374-.377 2.156-.033 3.866-.033 5.693-.033 0-2.488 0-4.28-.035-6.038l-.103.11a441.18 441.18 0 0 1 6.697-.039c.446.031.373-.037.37.393-.026 4.167-.047 7.903-.068 11.64 0 0 .07-.07-.35-.072-2.462-.003-4.504-.003-6.65-.003v7.075l.107-.104z"/>
    <path fill="#A9B7C6" d="M70.074 114.068v-6.065c-1.831 0-3.541 0-5.698.033-.424-2.05-.403-4.132-.414-6.66 3.753-.445 7.537-.445 12.027-.445 0 4.141 0 8.173-.028 12.674-.029.47.04.397-.363.392a282.958 282.958 0 0 0-5.632-.032l.108.103z"/>
    <path fill="#A9B7C6" d="M132.612 119.962c.457 4.205.457 8.442.457 13.043-2.373 0-4.298 0-6.68.032-.458-4.203-.458-8.44-.458-13.043 2.374 0 4.299 0 6.681-.032z"/>
    <path fill="#A9B7C6" d="M64.397 95.037c-.445-1.722-.423-3.477-.434-5.669 3.884-.437 7.8-.437 11.851-.437v6.074c-3.764 0-7.357 0-11.417.032z"/>
    <path fill="#A9B7C6" d="M120.015 108.023c.034-2.105.034-4.245.034-6.825l5.613-.278v7.073c-1.636 0-3.241 0-5.3-.037-.454-.037-.382.031-.347.067z"/>
    <path fill="#A9B7C6" d="M169.62 57.962c.427 5.7.404 11.433.415 17.636-1.78.472-3.594.472-5.904.472V64.002c-2.09 0-3.692 0-5.747.034-.432-4.035-.41-8.103-.421-12.638 1.776-.468 3.585-.468 5.837-.468l.366 7.064c1.804 0 3.403 0 5.453-.032z"/>
    <path fill="#A9B7C6" d="M151.037 88.623c-1.76.446-3.554.446-6.042.446 0-1.828 0-3.537-.032-5.692 1.761-.446 3.555-.446 6.042-.446 0 1.827 0 3.536.032 5.692z"/>
    <path fill="#A9B7C6" d="M100.962 45.368c2.05-.416 4.134-.395 6.662-.405.446 1.762.446 3.557.446 6.037-2.152 0-4.193 0-6.687.035-.432-1.72-.41-3.475-.421-5.667z"/>
    <path fill="#A9B7C6" d="M53.866 58H39.245V39.241h18.753c0 5.506-.126 10.955.047 16.394.103 3.232-2.086 2.181-4.179 2.363z"/>
    <path fill="#A9B7C6" d="M39.403 201.394c6.299-.338 12.253-.338 18.397-.338v18.74H39.058c0-6.154 0-12.109.345-18.402z"/>
    <path fill="#A9B7C6" d="M201.403 39.394c6.3-.337 12.254-.337 18.395-.337v18.74h-18.74c0-6.154 0-12.11.345-18.403z"/>
    <path fill="#A9B7C6" d="M107.612 207.962c.439 3.705.42 7.441.429 11.643-2.054.441-4.137.417-6.665.429-.445-3.868-.445-7.773-.445-12.041 2.374 0 4.3 0 6.681-.031z"/>
    <path fill="#A9B7C6" d="M113.62 200.963c.45 2.213.45 4.458.45 7.04-2.055 0-3.649 0-5.69.034-.45-2.212-.45-4.456-.45-7.042 2.055 0 3.649 0 5.69-.032z"/>
    <path fill="#A9B7C6" d="M63.963 114.377c1.724-.422 3.48-.397 5.673-.34.438.031.366-.037.36.366l-.065 5.667.107-.104c-1.758-.034-3.552-.034-6.042-.034 0-1.69 0-3.4-.033-5.555z"/>
    <path fill="#A9B7C6" d="M63.962 139.368c1.762-.438 3.555-.438 6.033-.438 0 1.832 0 3.541-.032 5.698-.031.446.037.374-.366.37-2.157-.025-3.912-.046-5.63-.033.035.035.108.103.108.103-.027-1.754-.054-3.508-.113-5.7z"/>
    <path fill="#A9B7C6" d="M64.038 150.966c-1.72-.01-3.476.014-5.67.071-.437-1.762-.437-3.557-.437-6.033 1.83 0 3.54 0 5.697.032.447.032.374-.036.37.367l-.068 5.667.108-.104z"/>
    <path fill="#A9B7C6" d="M95.034 83.038c.034-2.213.034-4.462.034-7.04 1.92 0 3.515 0 5.559.036.448.036.376-.033.372.377l-.069 6.659s.07-.07-.333-.075l-5.666-.065.103.108z"/>
    <path fill="#A9B7C6" d="M89.379 70.04c-.427-1.726-.406-3.48-.416-5.672 1.775-.437 3.582-.437 5.714-.437v6.081c-1.648 0-3.249 0-5.298.029z"/>
</svg>