<svg xmlns="http://www.w3.org/2000/svg" width="960" height="541" fill="none">
    <g clip-path="url(#a)">
        <path fill="url(#b)" d="M0 0h960v540H0z" transform="translate(0 .358)"/>
        <path stroke="#fff" stroke-width="3" d="M1741.98 356.358H653.435M1741.98 336.515H653.435M1741.98 316.671H653.435M1741.98 296.828H653.434M1741.98 276.985H653.435M1741.98 257.141H653.435M1741.98 237.298H653.435M1741.98 217.455H653.435M1741.98 197.612H653.435M1741.98 177.768H653.434M1741.98 157.925H653.435M1741.98 138.082H653.435M1741.98 118.239l-1088.545-.001M1741.98 98.395H653.435M1741.98 78.552H653.435M1741.98 58.709H653.435M1741.98 38.866H653.435M1741.98 19.023H653.435M1741.98-.82 653.435-.822"/>
        <path fill="#000" d="M754.489 441.791h-6.767v-21.517h18.561v5.237h-11.794v4.261h9.649v4.922h-9.649v7.097ZM778.881 426.126l1.23.09v6.812c-.74-.41-1.765-.615-3.076-.615-1.22 0-2.14.285-2.761.856-.61.57-.915 1.36-.915 2.37v6.152h-6.152v-15.365h6.152v2.761h.3c.07-.24.29-.6.66-1.08.24-.33.551-.635.931-.916.4-.29.92-.54 1.56-.75a6.699 6.699 0 0 1 2.071-.315ZM783.541 440.066c-1.671-1.351-2.506-3.336-2.506-5.957s.835-4.607 2.506-5.957c1.66-1.351 3.901-2.026 6.722-2.026 2.811 0 5.047.675 6.707 2.026 1.671 1.35 2.506 3.336 2.506 5.957s-.835 4.606-2.506 5.957c-1.66 1.35-3.896 2.025-6.707 2.025-2.821 0-5.062-.675-6.722-2.025Zm8.928-3.857c.51-.52.765-1.22.765-2.1 0-.881-.255-1.586-.765-2.116-.51-.52-1.246-.78-2.206-.78-.97 0-1.71.26-2.221.78-.51.53-.765 1.235-.765 2.116 0 .88.255 1.58.765 2.1.511.531 1.251.796 2.221.796.96 0 1.696-.265 2.206-.796ZM819.891 441.791h-6.137v-7.412c0-.87-.26-1.566-.78-2.086-.52-.53-1.235-.795-2.146-.795-.93 0-1.65.26-2.16.78-.501.51-.751 1.211-.751 2.101v7.412h-6.152v-15.365h6.152v2.761h.3c.071-.24.301-.6.691-1.08.27-.33.6-.635.99-.916.43-.29.99-.54 1.681-.75a7.43 7.43 0 0 1 2.175-.315c1.901 0 3.401.535 4.502 1.606 1.09 1.08 1.635 2.696 1.635 4.846v9.213ZM823.516 435.639v-4.606h-1.936v-2.911l5.012-4.772h3.076v3.076h4.171v4.607h-4.171v3.781c0 .87.215 1.486.645 1.846.43.35 1.096.525 1.996.525.73 0 1.26-.105 1.59-.315l.256-.09v4.801c-.741.35-1.676.52-2.806.51-2.721 0-4.707-.51-5.957-1.53-1.251-1.01-1.876-2.651-1.876-4.922ZM853.519 434.109l-.09.915H841.56c.02 1.01.245 1.751.676 2.221.44.47 1.125.705 2.055.705.51 0 .966-.11 1.366-.33.4-.22.665-.46.795-.72l.18-.33h6.542c0 .25-.09.61-.27 1.08a6.238 6.238 0 0 1-1.545 2.266c-.48.46-1.021.84-1.621 1.14-.59.3-1.34.545-2.251.735-.98.2-2.045.3-3.196.3-2.801 0-5.036-.67-6.707-2.01-1.67-1.341-2.506-3.331-2.506-5.972 0-2.621.836-4.607 2.506-5.957 1.661-1.351 3.901-2.026 6.722-2.026 2.811 0 5.047.675 6.708 2.026 1.67 1.35 2.505 3.336 2.505 5.957Zm-9.228-3.992c-.78 0-1.4.211-1.86.631-.46.42-.691.925-.691 1.515h5.012c0-.56-.22-1.06-.66-1.5-.43-.43-1.03-.646-1.801-.646ZM873.785 441.791h-6.137v-7.412c0-.87-.261-1.566-.781-2.086-.52-.53-1.235-.795-2.145-.795-.931 0-1.651.26-2.161.78-.5.51-.75 1.211-.75 2.101v7.412h-6.152v-15.365h6.152v2.761h.3c.07-.24.3-.6.69-1.08.27-.33.6-.635.99-.916.43-.29.991-.54 1.681-.75a7.431 7.431 0 0 1 2.176-.315c1.9 0 3.401.535 4.501 1.606 1.09 1.08 1.636 2.696 1.636 4.846v9.213ZM882.856 442.091c-1.971 0-3.616-.69-4.937-2.07-1.32-1.381-1.98-3.351-1.98-5.912s.66-4.532 1.98-5.912c1.321-1.381 2.966-2.071 4.937-2.071 1.08 0 2.051.15 2.911.45.85.32 1.425.63 1.726.931l.465.45h.27v-7.683h6.152v21.517h-6.152v-2.761h-.3c-.16.351-.38.706-.661 1.066-.31.37-.625.675-.945.915-.39.3-.9.555-1.53.765a6.001 6.001 0 0 1-1.936.315Zm.3-9.888c-.51.47-.765 1.106-.765 1.906 0 .8.25 1.435.75 1.905.5.471 1.225.706 2.176.706.93 0 1.645-.23 2.146-.691.51-.47.765-1.11.765-1.92 0-.82-.255-1.461-.765-1.921-.511-.46-1.226-.69-2.146-.69-.941 0-1.661.235-2.161.705ZM750.138 466.831c-2.021-1.931-3.031-4.647-3.031-8.148 0-3.511 1.01-6.232 3.031-8.163 2.021-1.93 4.792-2.896 8.313-2.896 3.301 0 5.967.821 7.997 2.461 2.021 1.631 3.031 3.782 3.031 6.452h-7.007c0-.27-.095-.64-.285-1.11a3.267 3.267 0 0 0-.615-.975c-.29-.3-.71-.555-1.261-.766-.55-.21-1.17-.315-1.86-.315-2.851 0-4.277 1.771-4.277 5.312 0 3.551 1.426 5.327 4.277 5.327.71 0 1.335-.105 1.875-.315.551-.21.966-.48 1.246-.81.53-.601.82-1.181.87-1.741l.03-.3h7.007c0 2.661-1.01 4.806-3.031 6.437-2.03 1.641-4.696 2.461-7.997 2.461-3.511 0-6.282-.97-8.313-2.911ZM773.689 467.716c-1.67-1.35-2.506-3.336-2.506-5.957s.836-4.606 2.506-5.957c1.661-1.35 3.901-2.025 6.722-2.025 2.811 0 5.047.675 6.708 2.025 1.67 1.351 2.506 3.336 2.506 5.957s-.836 4.607-2.506 5.957c-1.661 1.351-3.897 2.026-6.708 2.026-2.821 0-5.061-.675-6.722-2.026Zm8.928-3.856c.51-.52.765-1.221.765-2.101 0-.88-.255-1.585-.765-2.116-.51-.52-1.245-.78-2.206-.78-.97 0-1.71.26-2.22.78-.51.531-.766 1.236-.766 2.116 0 .88.256 1.581.766 2.101.51.53 1.25.795 2.22.795.961 0 1.696-.265 2.206-.795ZM810.04 469.442h-6.137v-7.413c0-.87-.26-1.565-.781-2.085-.52-.531-1.235-.796-2.145-.796-.931 0-1.651.26-2.161.781-.5.51-.75 1.21-.75 2.1v7.413h-6.152v-15.365h6.152v2.761h.3c.07-.241.3-.601.69-1.081.27-.33.6-.635.99-.915.431-.29.991-.54 1.681-.75a7.431 7.431 0 0 1 2.176-.315c1.9 0 3.401.535 4.501 1.605 1.091 1.08 1.636 2.696 1.636 4.847v9.213ZM824.693 454.692v4.606h-4.321v10.144h-6.153v-10.144h-2.79v-3.376l2.79-1.23v-.375c0-2.281.671-3.967 2.011-5.057 1.351-1.09 3.446-1.636 6.287-1.636.64 0 1.256.06 1.846.181.6.11 1.05.235 1.35.375l.375.21v4.636c-.7-.43-1.52-.645-2.46-.645-2.171 0-3.256.73-3.256 2.191v.12h4.321Z"/>
        <path fill="#FF4140" d="M846.825 469.442h-12.411v-2.697c0-.632.147-1.193.442-1.681a3.391 3.391 0 0 1 1.193-1.193c.858-.514 1.973-.959 3.344-1.334.395-.107.727-.201.996-.282.276-.088.564-.198.864-.329.307-.132.552-.266.733-.404.182-.138.332-.304.451-.498s.179-.404.179-.629c0-.808-.602-1.212-1.804-1.212-1.209 0-1.813.532-1.813 1.597v.714h-4.237v-.714c0-1.741.495-3.013 1.484-3.814.983-.79 2.502-1.184 4.557-1.184 2.035 0 3.551.379 4.547 1.137.995.757 1.493 1.916 1.493 3.476 0 .87-.256 1.637-.77 2.301a5.05 5.05 0 0 1-1.888 1.513c-.702.326-1.435.614-2.199.864-.645.207-1.271.404-1.879.592-.519.169-.779.338-.779.507h7.497v3.27ZM859.813 457.642c1.171 1.246 1.757 2.934 1.757 5.064 0 2.135-.586 3.82-1.757 5.054-1.171 1.246-2.799 1.87-4.885 1.87-2.079 0-3.705-.624-4.876-1.87-1.177-1.246-1.766-2.931-1.766-5.054s.589-3.811 1.766-5.064c1.178-1.24 2.803-1.86 4.876-1.86 2.086 0 3.714.62 4.885 1.86Zm-4.885 1.738c-1.478 0-2.217 1.109-2.217 3.326 0 2.223.739 3.335 2.217 3.335 1.472 0 2.208-1.112 2.208-3.335 0-2.217-.736-3.326-2.208-3.326ZM875.32 469.442h-12.411v-2.697c0-.632.148-1.193.442-1.681a3.391 3.391 0 0 1 1.193-1.193c.858-.514 1.973-.959 3.345-1.334.394-.107.726-.201.995-.282.276-.088.564-.198.865-.329a3.54 3.54 0 0 0 .733-.404c.181-.138.331-.304.45-.498s.179-.404.179-.629c0-.808-.601-1.212-1.804-1.212-1.209 0-1.813.532-1.813 1.597v.714h-4.237v-.714c0-1.741.495-3.013 1.484-3.814.984-.79 2.502-1.184 4.557-1.184 2.035 0 3.551.379 4.547 1.137.996.757 1.494 1.916 1.494 3.476 0 .87-.257 1.637-.771 2.301a5.05 5.05 0 0 1-1.888 1.513c-.702.326-1.434.614-2.198.864-.646.207-1.272.404-1.879.592-.52.169-.78.338-.78.507h7.497v3.27ZM887.36 469.442h-4.228v-2.499h-7.412v-3.27l6.059-7.703h5.581v7.703h1.738v3.27h-1.738v2.499Zm-3.946-10.964-.827 1.578-2.903 3.58v.094h3.504v-3.674l.649-1.578h-.423Z"/>
        <path fill="#fff" fill-rule="evenodd" d="m657.972 409.249-4.538 74.602 74.832-4.516v-65.569l-70.294-4.517Z" clip-rule="evenodd"/>
        <path fill="#000" d="M676.576 459.33h-8.29v-26.36h22.738v6.415h-14.448v5.22h11.82v6.03h-11.82v8.695ZM694.914 456.131c-2.475-2.365-3.713-5.692-3.713-9.981 0-4.302 1.238-7.635 3.713-10s5.87-3.548 10.184-3.548c4.044 0 7.31 1.005 9.797 3.015 2.476 1.997 3.714 4.632 3.714 7.904h-8.585c0-.331-.116-.784-.349-1.36a4.002 4.002 0 0 0-.754-1.195c-.355-.368-.87-.68-1.544-.938-.674-.257-1.434-.386-2.279-.386-3.493 0-5.239 2.169-5.239 6.508 0 4.35 1.746 6.525 5.239 6.525.87 0 1.636-.128 2.297-.386.674-.257 1.183-.588 1.526-.992.65-.736 1.005-1.447 1.066-2.133l.037-.367h8.585c0 3.259-1.238 5.888-3.714 7.886-2.487 2.009-5.753 3.014-9.797 3.014-4.302 0-7.696-1.189-10.184-3.566Z"/>
    </g>
    <defs>
        <linearGradient id="b" x1="0" x2="960" y1="0" y2="563.25" gradientUnits="userSpaceOnUse">
            <stop stop-color="#FFED00"/>
            <stop offset="1" stop-color="#FFB800"/>
        </linearGradient>
        <clipPath id="a">
            <path fill="#fff" d="M0 .358h960v540H0z"/>
        </clipPath>
    </defs>
</svg>