<svg width="1012" height="506" viewBox="0 0 1012 506" fill="none" xmlns="http://www.w3.org/2000/svg">
<path d="M614.125 135.297H623.125C622.656 139.609 621.422 143.469 619.422 146.875C617.422 150.281 614.594 152.984 610.938 154.984C607.281 156.953 602.719 157.938 597.25 157.938C593.25 157.938 589.609 157.188 586.328 155.688C583.078 154.188 580.281 152.062 577.938 149.312C575.594 146.531 573.781 143.203 572.5 139.328C571.25 135.422 570.625 131.078 570.625 126.297V119.5C570.625 114.719 571.25 110.391 572.5 106.516C573.781 102.609 575.609 99.2656 577.984 96.4844C580.391 93.7031 583.281 91.5625 586.656 90.0625C590.031 88.5625 593.828 87.8125 598.047 87.8125C603.203 87.8125 607.562 88.7812 611.125 90.7188C614.688 92.6562 617.453 95.3438 619.422 98.7812C621.422 102.188 622.656 106.141 623.125 110.641H614.125C613.688 107.453 612.875 104.719 611.688 102.438C610.5 100.125 608.812 98.3438 606.625 97.0938C604.438 95.8438 601.578 95.2188 598.047 95.2188C595.016 95.2188 592.344 95.7969 590.031 96.9531C587.75 98.1094 585.828 99.75 584.266 101.875C582.734 104 581.578 106.547 580.797 109.516C580.016 112.484 579.625 115.781 579.625 119.406V126.297C579.625 129.641 579.969 132.781 580.656 135.719C581.375 138.656 582.453 141.234 583.891 143.453C585.328 145.672 587.156 147.422 589.375 148.703C591.594 149.953 594.219 150.578 597.25 150.578C601.094 150.578 604.156 149.969 606.438 148.75C608.719 147.531 610.438 145.781 611.594 143.5C612.781 141.219 613.625 138.484 614.125 135.297ZM671.828 139.75C671.828 138.156 671.578 136.75 671.078 135.531C670.609 134.281 669.766 133.156 668.547 132.156C667.359 131.156 665.703 130.203 663.578 129.297C661.484 128.391 658.828 127.469 655.609 126.531C652.234 125.531 649.188 124.422 646.469 123.203C643.75 121.953 641.422 120.531 639.484 118.938C637.547 117.344 636.062 115.516 635.031 113.453C634 111.391 633.484 109.031 633.484 106.375C633.484 103.719 634.031 101.266 635.125 99.0156C636.219 96.7656 637.781 94.8125 639.812 93.1562C641.875 91.4688 644.328 90.1562 647.172 89.2188C650.016 88.2812 653.188 87.8125 656.688 87.8125C661.812 87.8125 666.156 88.7969 669.719 90.7656C673.312 92.7031 676.047 95.25 677.922 98.4062C679.797 101.531 680.734 104.875 680.734 108.438H671.734C671.734 105.875 671.188 103.609 670.094 101.641C669 99.6406 667.344 98.0781 665.125 96.9531C662.906 95.7969 660.094 95.2188 656.688 95.2188C653.469 95.2188 650.812 95.7031 648.719 96.6719C646.625 97.6406 645.062 98.9531 644.031 100.609C643.031 102.266 642.531 104.156 642.531 106.281C642.531 107.719 642.828 109.031 643.422 110.219C644.047 111.375 645 112.453 646.281 113.453C647.594 114.453 649.25 115.375 651.25 116.219C653.281 117.062 655.703 117.875 658.516 118.656C662.391 119.75 665.734 120.969 668.547 122.312C671.359 123.656 673.672 125.172 675.484 126.859C677.328 128.516 678.688 130.406 679.562 132.531C680.469 134.625 680.922 137 680.922 139.656C680.922 142.438 680.359 144.953 679.234 147.203C678.109 149.453 676.5 151.375 674.406 152.969C672.312 154.562 669.797 155.797 666.859 156.672C663.953 157.516 660.703 157.938 657.109 157.938C653.953 157.938 650.844 157.5 647.781 156.625C644.75 155.75 641.984 154.438 639.484 152.688C637.016 150.938 635.031 148.781 633.531 146.219C632.062 143.625 631.328 140.625 631.328 137.219H640.328C640.328 139.562 640.781 141.578 641.688 143.266C642.594 144.922 643.828 146.297 645.391 147.391C646.984 148.484 648.781 149.297 650.781 149.828C652.812 150.328 654.922 150.578 657.109 150.578C660.266 150.578 662.938 150.141 665.125 149.266C667.312 148.391 668.969 147.141 670.094 145.516C671.25 143.891 671.828 141.969 671.828 139.75ZM728.828 139.75C728.828 138.156 728.578 136.75 728.078 135.531C727.609 134.281 726.766 133.156 725.547 132.156C724.359 131.156 722.703 130.203 720.578 129.297C718.484 128.391 715.828 127.469 712.609 126.531C709.234 125.531 706.188 124.422 703.469 123.203C700.75 121.953 698.422 120.531 696.484 118.938C694.547 117.344 693.062 115.516 692.031 113.453C691 111.391 690.484 109.031 690.484 106.375C690.484 103.719 691.031 101.266 692.125 99.0156C693.219 96.7656 694.781 94.8125 696.812 93.1562C698.875 91.4688 701.328 90.1562 704.172 89.2188C707.016 88.2812 710.188 87.8125 713.688 87.8125C718.812 87.8125 723.156 88.7969 726.719 90.7656C730.312 92.7031 733.047 95.25 734.922 98.4062C736.797 101.531 737.734 104.875 737.734 108.438H728.734C728.734 105.875 728.188 103.609 727.094 101.641C726 99.6406 724.344 98.0781 722.125 96.9531C719.906 95.7969 717.094 95.2188 713.688 95.2188C710.469 95.2188 707.812 95.7031 705.719 96.6719C703.625 97.6406 702.062 98.9531 701.031 100.609C700.031 102.266 699.531 104.156 699.531 106.281C699.531 107.719 699.828 109.031 700.422 110.219C701.047 111.375 702 112.453 703.281 113.453C704.594 114.453 706.25 115.375 708.25 116.219C710.281 117.062 712.703 117.875 715.516 118.656C719.391 119.75 722.734 120.969 725.547 122.312C728.359 123.656 730.672 125.172 732.484 126.859C734.328 128.516 735.688 130.406 736.562 132.531C737.469 134.625 737.922 137 737.922 139.656C737.922 142.438 737.359 144.953 736.234 147.203C735.109 149.453 733.5 151.375 731.406 152.969C729.312 154.562 726.797 155.797 723.859 156.672C720.953 157.516 717.703 157.938 714.109 157.938C710.953 157.938 707.844 157.5 704.781 156.625C701.75 155.75 698.984 154.438 696.484 152.688C694.016 150.938 692.031 148.781 690.531 146.219C689.062 143.625 688.328 140.625 688.328 137.219H697.328C697.328 139.562 697.781 141.578 698.688 143.266C699.594 144.922 700.828 146.297 702.391 147.391C703.984 148.484 705.781 149.297 707.781 149.828C709.812 150.328 711.922 150.578 714.109 150.578C717.266 150.578 719.938 150.141 722.125 149.266C724.312 148.391 725.969 147.141 727.094 145.516C728.25 143.891 728.828 141.969 728.828 139.75ZM581.031 219.281V270H572.312V219.281H581.031ZM571.656 205.828C571.656 204.422 572.078 203.234 572.922 202.266C573.797 201.297 575.078 200.812 576.766 200.812C578.422 200.812 579.688 201.297 580.562 202.266C581.469 203.234 581.922 204.422 581.922 205.828C581.922 207.172 581.469 208.328 580.562 209.297C579.688 210.234 578.422 210.703 576.766 210.703C575.078 210.703 573.797 210.234 572.922 209.297C572.078 208.328 571.656 207.172 571.656 205.828ZM624.484 256.547C624.484 255.297 624.203 254.141 623.641 253.078C623.109 251.984 622 251 620.312 250.125C618.656 249.219 616.156 248.438 612.812 247.781C610 247.188 607.453 246.484 605.172 245.672C602.922 244.859 601 243.875 599.406 242.719C597.844 241.562 596.641 240.203 595.797 238.641C594.953 237.078 594.531 235.25 594.531 233.156C594.531 231.156 594.969 229.266 595.844 227.484C596.75 225.703 598.016 224.125 599.641 222.75C601.297 221.375 603.281 220.297 605.594 219.516C607.906 218.734 610.484 218.344 613.328 218.344C617.391 218.344 620.859 219.062 623.734 220.5C626.609 221.938 628.812 223.859 630.344 226.266C631.875 228.641 632.641 231.281 632.641 234.188H623.969C623.969 232.781 623.547 231.422 622.703 230.109C621.891 228.766 620.688 227.656 619.094 226.781C617.531 225.906 615.609 225.469 613.328 225.469C610.922 225.469 608.969 225.844 607.469 226.594C606 227.312 604.922 228.234 604.234 229.359C603.578 230.484 603.25 231.672 603.25 232.922C603.25 233.859 603.406 234.703 603.719 235.453C604.062 236.172 604.656 236.844 605.5 237.469C606.344 238.062 607.531 238.625 609.062 239.156C610.594 239.688 612.547 240.219 614.922 240.75C619.078 241.688 622.5 242.812 625.188 244.125C627.875 245.438 629.875 247.047 631.188 248.953C632.5 250.859 633.156 253.172 633.156 255.891C633.156 258.109 632.688 260.141 631.75 261.984C630.844 263.828 629.516 265.422 627.766 266.766C626.047 268.078 623.984 269.109 621.578 269.859C619.203 270.578 616.531 270.938 613.562 270.938C609.094 270.938 605.312 270.141 602.219 268.547C599.125 266.953 596.781 264.891 595.188 262.359C593.594 259.828 592.797 257.156 592.797 254.344H601.516C601.641 256.719 602.328 258.609 603.578 260.016C604.828 261.391 606.359 262.375 608.172 262.969C609.984 263.531 611.781 263.812 613.562 263.812C615.938 263.812 617.922 263.5 619.516 262.875C621.141 262.25 622.375 261.391 623.219 260.297C624.062 259.203 624.484 257.953 624.484 256.547ZM601.516 374.328V348.219C601.516 346.219 601.109 344.484 600.297 343.016C599.516 341.516 598.328 340.359 596.734 339.547C595.141 338.734 593.172 338.328 590.828 338.328C588.641 338.328 586.719 338.703 585.062 339.453C583.438 340.203 582.156 341.188 581.219 342.406C580.312 343.625 579.859 344.938 579.859 346.344H571.188C571.188 344.531 571.656 342.734 572.594 340.953C573.531 339.172 574.875 337.562 576.625 336.125C578.406 334.656 580.531 333.5 583 332.656C585.5 331.781 588.281 331.344 591.344 331.344C595.031 331.344 598.281 331.969 601.094 333.219C603.938 334.469 606.156 336.359 607.75 338.891C609.375 341.391 610.188 344.531 610.188 348.312V371.938C610.188 373.625 610.328 375.422 610.609 377.328C610.922 379.234 611.375 380.875 611.969 382.25V383H602.922C602.484 382 602.141 380.672 601.891 379.016C601.641 377.328 601.516 375.766 601.516 374.328ZM603.016 352.25L603.109 358.344H594.344C591.875 358.344 589.672 358.547 587.734 358.953C585.797 359.328 584.172 359.906 582.859 360.688C581.547 361.469 580.547 362.453 579.859 363.641C579.172 364.797 578.828 366.156 578.828 367.719C578.828 369.312 579.188 370.766 579.906 372.078C580.625 373.391 581.703 374.438 583.141 375.219C584.609 375.969 586.406 376.344 588.531 376.344C591.188 376.344 593.531 375.781 595.562 374.656C597.594 373.531 599.203 372.156 600.391 370.531C601.609 368.906 602.266 367.328 602.359 365.797L606.062 369.969C605.844 371.281 605.25 372.734 604.281 374.328C603.312 375.922 602.016 377.453 600.391 378.922C598.797 380.359 596.891 381.562 594.672 382.531C592.484 383.469 590.016 383.938 587.266 383.938C583.828 383.938 580.812 383.266 578.219 381.922C575.656 380.578 573.656 378.781 572.219 376.531C570.812 374.25 570.109 371.703 570.109 368.891C570.109 366.172 570.641 363.781 571.703 361.719C572.766 359.625 574.297 357.891 576.297 356.516C578.297 355.109 580.703 354.047 583.516 353.328C586.328 352.609 589.469 352.25 592.938 352.25H603.016ZM636.672 374L649.703 332.281H655.422L654.297 340.578L641.031 383H635.453L636.672 374ZM627.906 332.281L639.016 374.469L639.812 383H633.953L619.234 332.281H627.906ZM667.891 374.141L678.484 332.281H687.109L672.391 383H666.578L667.891 374.141ZM656.688 332.281L669.438 373.297L670.891 383H665.359L651.719 340.484L650.594 332.281H656.688ZM717.062 383.938C713.531 383.938 710.328 383.344 707.453 382.156C704.609 380.938 702.156 379.234 700.094 377.047C698.062 374.859 696.5 372.266 695.406 369.266C694.312 366.266 693.766 362.984 693.766 359.422V357.453C693.766 353.328 694.375 349.656 695.594 346.438C696.812 343.188 698.469 340.438 700.562 338.188C702.656 335.938 705.031 334.234 707.688 333.078C710.344 331.922 713.094 331.344 715.938 331.344C719.562 331.344 722.688 331.969 725.312 333.219C727.969 334.469 730.141 336.219 731.828 338.469C733.516 340.688 734.766 343.312 735.578 346.344C736.391 349.344 736.797 352.625 736.797 356.188V360.078H698.922V353H728.125V352.344C728 350.094 727.531 347.906 726.719 345.781C725.938 343.656 724.688 341.906 722.969 340.531C721.25 339.156 718.906 338.469 715.938 338.469C713.969 338.469 712.156 338.891 710.5 339.734C708.844 340.547 707.422 341.766 706.234 343.391C705.047 345.016 704.125 347 703.469 349.344C702.812 351.688 702.484 354.391 702.484 357.453V359.422C702.484 361.828 702.812 364.094 703.469 366.219C704.156 368.312 705.141 370.156 706.422 371.75C707.734 373.344 709.312 374.594 711.156 375.5C713.031 376.406 715.156 376.859 717.531 376.859C720.594 376.859 723.188 376.234 725.312 374.984C727.438 373.734 729.297 372.062 730.891 369.969L736.141 374.141C735.047 375.797 733.656 377.375 731.969 378.875C730.281 380.375 728.203 381.594 725.734 382.531C723.297 383.469 720.406 383.938 717.062 383.938ZM776.453 369.547C776.453 368.297 776.172 367.141 775.609 366.078C775.078 364.984 773.969 364 772.281 363.125C770.625 362.219 768.125 361.438 764.781 360.781C761.969 360.188 759.422 359.484 757.141 358.672C754.891 357.859 752.969 356.875 751.375 355.719C749.812 354.562 748.609 353.203 747.766 351.641C746.922 350.078 746.5 348.25 746.5 346.156C746.5 344.156 746.938 342.266 747.812 340.484C748.719 338.703 749.984 337.125 751.609 335.75C753.266 334.375 755.25 333.297 757.562 332.516C759.875 331.734 762.453 331.344 765.297 331.344C769.359 331.344 772.828 332.062 775.703 333.5C778.578 334.938 780.781 336.859 782.312 339.266C783.844 341.641 784.609 344.281 784.609 347.188H775.938C775.938 345.781 775.516 344.422 774.672 343.109C773.859 341.766 772.656 340.656 771.062 339.781C769.5 338.906 767.578 338.469 765.297 338.469C762.891 338.469 760.938 338.844 759.438 339.594C757.969 340.312 756.891 341.234 756.203 342.359C755.547 343.484 755.219 344.672 755.219 345.922C755.219 346.859 755.375 347.703 755.688 348.453C756.031 349.172 756.625 349.844 757.469 350.469C758.312 351.062 759.5 351.625 761.031 352.156C762.562 352.688 764.516 353.219 766.891 353.75C771.047 354.688 774.469 355.812 777.156 357.125C779.844 358.438 781.844 360.047 783.156 361.953C784.469 363.859 785.125 366.172 785.125 368.891C785.125 371.109 784.656 373.141 783.719 374.984C782.812 376.828 781.484 378.422 779.734 379.766C778.016 381.078 775.953 382.109 773.547 382.859C771.172 383.578 768.5 383.938 765.531 383.938C761.062 383.938 757.281 383.141 754.188 381.547C751.094 379.953 748.75 377.891 747.156 375.359C745.562 372.828 744.766 370.156 744.766 367.344H753.484C753.609 369.719 754.297 371.609 755.547 373.016C756.797 374.391 758.328 375.375 760.141 375.969C761.953 376.531 763.75 376.812 765.531 376.812C767.906 376.812 769.891 376.5 771.484 375.875C773.109 375.25 774.344 374.391 775.188 373.297C776.031 372.203 776.453 370.953 776.453 369.547ZM794.219 358.203V357.125C794.219 353.469 794.75 350.078 795.812 346.953C796.875 343.797 798.406 341.062 800.406 338.75C802.406 336.406 804.828 334.594 807.672 333.312C810.516 332 813.703 331.344 817.234 331.344C820.797 331.344 824 332 826.844 333.312C829.719 334.594 832.156 336.406 834.156 338.75C836.188 341.062 837.734 343.797 838.797 346.953C839.859 350.078 840.391 353.469 840.391 357.125V358.203C840.391 361.859 839.859 365.25 838.797 368.375C837.734 371.5 836.188 374.234 834.156 376.578C832.156 378.891 829.734 380.703 826.891 382.016C824.078 383.297 820.891 383.938 817.328 383.938C813.766 383.938 810.562 383.297 807.719 382.016C804.875 380.703 802.438 378.891 800.406 376.578C798.406 374.234 796.875 371.5 795.812 368.375C794.75 365.25 794.219 361.859 794.219 358.203ZM802.891 357.125V358.203C802.891 360.734 803.188 363.125 803.781 365.375C804.375 367.594 805.266 369.562 806.453 371.281C807.672 373 809.188 374.359 811 375.359C812.812 376.328 814.922 376.812 817.328 376.812C819.703 376.812 821.781 376.328 823.562 375.359C825.375 374.359 826.875 373 828.062 371.281C829.25 369.562 830.141 367.594 830.734 365.375C831.359 363.125 831.672 360.734 831.672 358.203V357.125C831.672 354.625 831.359 352.266 830.734 350.047C830.141 347.797 829.234 345.812 828.016 344.094C826.828 342.344 825.328 340.969 823.516 339.969C821.734 338.969 819.641 338.469 817.234 338.469C814.859 338.469 812.766 338.969 810.953 339.969C809.172 340.969 807.672 342.344 806.453 344.094C805.266 345.812 804.375 347.797 803.781 350.047C803.188 352.266 802.891 354.625 802.891 357.125ZM859.891 342.359V383H851.172V332.281H859.422L859.891 342.359ZM858.109 355.719L854.078 355.578C854.109 352.109 854.562 348.906 855.438 345.969C856.312 343 857.609 340.422 859.328 338.234C861.047 336.047 863.188 334.359 865.75 333.172C868.312 331.953 871.281 331.344 874.656 331.344C877.031 331.344 879.219 331.688 881.219 332.375C883.219 333.031 884.953 334.078 886.422 335.516C887.891 336.953 889.031 338.797 889.844 341.047C890.656 343.297 891.062 346.016 891.062 349.203V383H882.391V349.625C882.391 346.969 881.938 344.844 881.031 343.25C880.156 341.656 878.906 340.5 877.281 339.781C875.656 339.031 873.75 338.656 871.562 338.656C869 338.656 866.859 339.109 865.141 340.016C863.422 340.922 862.047 342.172 861.016 343.766C859.984 345.359 859.234 347.188 858.766 349.25C858.328 351.281 858.109 353.438 858.109 355.719ZM890.969 350.938L885.156 352.719C885.188 349.938 885.641 347.266 886.516 344.703C887.422 342.141 888.719 339.859 890.406 337.859C892.125 335.859 894.234 334.281 896.734 333.125C899.234 331.938 902.094 331.344 905.312 331.344C908.031 331.344 910.438 331.703 912.531 332.422C914.656 333.141 916.438 334.25 917.875 335.75C919.344 337.219 920.453 339.109 921.203 341.422C921.953 343.734 922.328 346.484 922.328 349.672V383H913.609V349.578C913.609 346.734 913.156 344.531 912.25 342.969C911.375 341.375 910.125 340.266 908.5 339.641C906.906 338.984 905 338.656 902.781 338.656C900.875 338.656 899.188 338.984 897.719 339.641C896.25 340.297 895.016 341.203 894.016 342.359C893.016 343.484 892.25 344.781 891.719 346.25C891.219 347.719 890.969 349.281 890.969 350.938ZM956.5 383.938C952.969 383.938 949.766 383.344 946.891 382.156C944.047 380.938 941.594 379.234 939.531 377.047C937.5 374.859 935.938 372.266 934.844 369.266C933.75 366.266 933.203 362.984 933.203 359.422V357.453C933.203 353.328 933.812 349.656 935.031 346.438C936.25 343.188 937.906 340.438 940 338.188C942.094 335.938 944.469 334.234 947.125 333.078C949.781 331.922 952.531 331.344 955.375 331.344C959 331.344 962.125 331.969 964.75 333.219C967.406 334.469 969.578 336.219 971.266 338.469C972.953 340.688 974.203 343.312 975.016 346.344C975.828 349.344 976.234 352.625 976.234 356.188V360.078H938.359V353H967.562V352.344C967.438 350.094 966.969 347.906 966.156 345.781C965.375 343.656 964.125 341.906 962.406 340.531C960.688 339.156 958.344 338.469 955.375 338.469C953.406 338.469 951.594 338.891 949.938 339.734C948.281 340.547 946.859 341.766 945.672 343.391C944.484 345.016 943.562 347 942.906 349.344C942.25 351.688 941.922 354.391 941.922 357.453V359.422C941.922 361.828 942.25 364.094 942.906 366.219C943.594 368.312 944.578 370.156 945.859 371.75C947.172 373.344 948.75 374.594 950.594 375.5C952.469 376.406 954.594 376.859 956.969 376.859C960.031 376.859 962.625 376.234 964.75 374.984C966.875 373.734 968.734 372.062 970.328 369.969L975.578 374.141C974.484 375.797 973.094 377.375 971.406 378.875C969.719 380.375 967.641 381.594 965.172 382.531C962.734 383.469 959.844 383.938 956.5 383.938Z" fill="white" fill-opacity="0.5"/>
<rect x="61.5" y="105.5" width="168" height="78" stroke="white" stroke-opacity="0.5" stroke-width="3"/>
<path d="M67.375 118H73.1875V159.438L72.6875 166H67.375V118ZM96.0312 148.812V149.469C96.0312 151.927 95.7396 154.208 95.1562 156.312C94.5729 158.396 93.7188 160.208 92.5938 161.75C91.4688 163.292 90.0938 164.49 88.4688 165.344C86.8438 166.198 84.9792 166.625 82.875 166.625C80.7292 166.625 78.8438 166.26 77.2188 165.531C75.6146 164.781 74.2604 163.708 73.1562 162.312C72.0521 160.917 71.1667 159.229 70.5 157.25C69.8542 155.271 69.4062 153.042 69.1562 150.562V147.688C69.4062 145.188 69.8542 142.948 70.5 140.969C71.1667 138.99 72.0521 137.302 73.1562 135.906C74.2604 134.49 75.6146 133.417 77.2188 132.688C78.8229 131.938 80.6875 131.562 82.8125 131.562C84.9375 131.562 86.8229 131.979 88.4688 132.812C90.1146 133.625 91.4896 134.792 92.5938 136.312C93.7188 137.833 94.5729 139.656 95.1562 141.781C95.7396 143.885 96.0312 146.229 96.0312 148.812ZM90.2188 149.469V148.812C90.2188 147.125 90.0625 145.542 89.75 144.062C89.4375 142.562 88.9375 141.25 88.25 140.125C87.5625 138.979 86.6562 138.083 85.5312 137.438C84.4062 136.771 83.0208 136.438 81.375 136.438C79.9167 136.438 78.6458 136.688 77.5625 137.188C76.5 137.688 75.5938 138.365 74.8438 139.219C74.0938 140.052 73.4792 141.01 73 142.094C72.5417 143.156 72.1979 144.26 71.9688 145.406V152.938C72.3021 154.396 72.8438 155.802 73.5938 157.156C74.3646 158.49 75.3854 159.583 76.6562 160.438C77.9479 161.292 79.5417 161.719 81.4375 161.719C83 161.719 84.3333 161.406 85.4375 160.781C86.5625 160.135 87.4688 159.25 88.1562 158.125C88.8646 157 89.3854 155.698 89.7188 154.219C90.0521 152.74 90.2188 151.156 90.2188 149.469ZM109.625 118V166H103.812V118H109.625ZM117.375 149.469V148.75C117.375 146.312 117.729 144.052 118.438 141.969C119.146 139.865 120.167 138.042 121.5 136.5C122.833 134.938 124.448 133.729 126.344 132.875C128.24 132 130.365 131.562 132.719 131.562C135.094 131.562 137.229 132 139.125 132.875C141.042 133.729 142.667 134.938 144 136.5C145.354 138.042 146.385 139.865 147.094 141.969C147.802 144.052 148.156 146.312 148.156 148.75V149.469C148.156 151.906 147.802 154.167 147.094 156.25C146.385 158.333 145.354 160.156 144 161.719C142.667 163.26 141.052 164.469 139.156 165.344C137.281 166.198 135.156 166.625 132.781 166.625C130.406 166.625 128.271 166.198 126.375 165.344C124.479 164.469 122.854 163.26 121.5 161.719C120.167 160.156 119.146 158.333 118.438 156.25C117.729 154.167 117.375 151.906 117.375 149.469ZM123.156 148.75V149.469C123.156 151.156 123.354 152.75 123.75 154.25C124.146 155.729 124.74 157.042 125.531 158.188C126.344 159.333 127.354 160.24 128.562 160.906C129.771 161.552 131.177 161.875 132.781 161.875C134.365 161.875 135.75 161.552 136.938 160.906C138.146 160.24 139.146 159.333 139.938 158.188C140.729 157.042 141.323 155.729 141.719 154.25C142.135 152.75 142.344 151.156 142.344 149.469V148.75C142.344 147.083 142.135 145.51 141.719 144.031C141.323 142.531 140.719 141.208 139.906 140.062C139.115 138.896 138.115 137.979 136.906 137.312C135.719 136.646 134.323 136.312 132.719 136.312C131.135 136.312 129.74 136.646 128.531 137.312C127.344 137.979 126.344 138.896 125.531 140.062C124.74 141.208 124.146 142.531 123.75 144.031C123.354 145.51 123.156 147.083 123.156 148.75ZM168.938 161.875C170.312 161.875 171.583 161.594 172.75 161.031C173.917 160.469 174.875 159.698 175.625 158.719C176.375 157.719 176.802 156.583 176.906 155.312H182.406C182.302 157.312 181.625 159.177 180.375 160.906C179.146 162.615 177.531 164 175.531 165.062C173.531 166.104 171.333 166.625 168.938 166.625C166.396 166.625 164.177 166.177 162.281 165.281C160.406 164.385 158.844 163.156 157.594 161.594C156.365 160.031 155.438 158.24 154.812 156.219C154.208 154.177 153.906 152.021 153.906 149.75V148.438C153.906 146.167 154.208 144.021 154.812 142C155.438 139.958 156.365 138.156 157.594 136.594C158.844 135.031 160.406 133.802 162.281 132.906C164.177 132.01 166.396 131.562 168.938 131.562C171.583 131.562 173.896 132.104 175.875 133.188C177.854 134.25 179.406 135.708 180.531 137.562C181.677 139.396 182.302 141.479 182.406 143.812H176.906C176.802 142.417 176.406 141.156 175.719 140.031C175.052 138.906 174.135 138.01 172.969 137.344C171.823 136.656 170.479 136.312 168.938 136.312C167.167 136.312 165.677 136.667 164.469 137.375C163.281 138.062 162.333 139 161.625 140.188C160.938 141.354 160.438 142.656 160.125 144.094C159.833 145.51 159.688 146.958 159.688 148.438V149.75C159.688 151.229 159.833 152.688 160.125 154.125C160.417 155.562 160.906 156.865 161.594 158.031C162.302 159.198 163.25 160.135 164.438 160.844C165.646 161.531 167.146 161.875 168.938 161.875ZM194.719 118V166H188.906V118H194.719ZM215.375 132.188L200.625 147.969L192.375 156.531L191.906 150.375L197.812 143.312L208.312 132.188H215.375ZM210.094 166L198.031 149.875L201.031 144.719L216.906 166H210.094Z" fill="white" fill-opacity="0.5"/>
<rect x="61.5" y="198.5" width="168" height="78" stroke="white" stroke-opacity="0.5" stroke-width="3"/>
<path d="M67.375 211H73.1875V252.438L72.6875 259H67.375V211ZM96.0312 241.812V242.469C96.0312 244.927 95.7396 247.208 95.1562 249.312C94.5729 251.396 93.7188 253.208 92.5938 254.75C91.4688 256.292 90.0938 257.49 88.4688 258.344C86.8438 259.198 84.9792 259.625 82.875 259.625C80.7292 259.625 78.8438 259.26 77.2188 258.531C75.6146 257.781 74.2604 256.708 73.1562 255.312C72.0521 253.917 71.1667 252.229 70.5 250.25C69.8542 248.271 69.4062 246.042 69.1562 243.562V240.688C69.4062 238.188 69.8542 235.948 70.5 233.969C71.1667 231.99 72.0521 230.302 73.1562 228.906C74.2604 227.49 75.6146 226.417 77.2188 225.688C78.8229 224.938 80.6875 224.562 82.8125 224.562C84.9375 224.562 86.8229 224.979 88.4688 225.812C90.1146 226.625 91.4896 227.792 92.5938 229.312C93.7188 230.833 94.5729 232.656 95.1562 234.781C95.7396 236.885 96.0312 239.229 96.0312 241.812ZM90.2188 242.469V241.812C90.2188 240.125 90.0625 238.542 89.75 237.062C89.4375 235.562 88.9375 234.25 88.25 233.125C87.5625 231.979 86.6562 231.083 85.5312 230.438C84.4062 229.771 83.0208 229.438 81.375 229.438C79.9167 229.438 78.6458 229.688 77.5625 230.188C76.5 230.688 75.5938 231.365 74.8438 232.219C74.0938 233.052 73.4792 234.01 73 235.094C72.5417 236.156 72.1979 237.26 71.9688 238.406V245.938C72.3021 247.396 72.8438 248.802 73.5938 250.156C74.3646 251.49 75.3854 252.583 76.6562 253.438C77.9479 254.292 79.5417 254.719 81.4375 254.719C83 254.719 84.3333 254.406 85.4375 253.781C86.5625 253.135 87.4688 252.25 88.1562 251.125C88.8646 250 89.3854 248.698 89.7188 247.219C90.0521 245.74 90.2188 244.156 90.2188 242.469ZM109.625 211V259H103.812V211H109.625ZM117.375 242.469V241.75C117.375 239.312 117.729 237.052 118.438 234.969C119.146 232.865 120.167 231.042 121.5 229.5C122.833 227.938 124.448 226.729 126.344 225.875C128.24 225 130.365 224.562 132.719 224.562C135.094 224.562 137.229 225 139.125 225.875C141.042 226.729 142.667 227.938 144 229.5C145.354 231.042 146.385 232.865 147.094 234.969C147.802 237.052 148.156 239.312 148.156 241.75V242.469C148.156 244.906 147.802 247.167 147.094 249.25C146.385 251.333 145.354 253.156 144 254.719C142.667 256.26 141.052 257.469 139.156 258.344C137.281 259.198 135.156 259.625 132.781 259.625C130.406 259.625 128.271 259.198 126.375 258.344C124.479 257.469 122.854 256.26 121.5 254.719C120.167 253.156 119.146 251.333 118.438 249.25C117.729 247.167 117.375 244.906 117.375 242.469ZM123.156 241.75V242.469C123.156 244.156 123.354 245.75 123.75 247.25C124.146 248.729 124.74 250.042 125.531 251.188C126.344 252.333 127.354 253.24 128.562 253.906C129.771 254.552 131.177 254.875 132.781 254.875C134.365 254.875 135.75 254.552 136.938 253.906C138.146 253.24 139.146 252.333 139.938 251.188C140.729 250.042 141.323 248.729 141.719 247.25C142.135 245.75 142.344 244.156 142.344 242.469V241.75C142.344 240.083 142.135 238.51 141.719 237.031C141.323 235.531 140.719 234.208 139.906 233.062C139.115 231.896 138.115 230.979 136.906 230.312C135.719 229.646 134.323 229.312 132.719 229.312C131.135 229.312 129.74 229.646 128.531 230.312C127.344 230.979 126.344 231.896 125.531 233.062C124.74 234.208 124.146 235.531 123.75 237.031C123.354 238.51 123.156 240.083 123.156 241.75ZM168.938 254.875C170.312 254.875 171.583 254.594 172.75 254.031C173.917 253.469 174.875 252.698 175.625 251.719C176.375 250.719 176.802 249.583 176.906 248.312H182.406C182.302 250.312 181.625 252.177 180.375 253.906C179.146 255.615 177.531 257 175.531 258.062C173.531 259.104 171.333 259.625 168.938 259.625C166.396 259.625 164.177 259.177 162.281 258.281C160.406 257.385 158.844 256.156 157.594 254.594C156.365 253.031 155.438 251.24 154.812 249.219C154.208 247.177 153.906 245.021 153.906 242.75V241.438C153.906 239.167 154.208 237.021 154.812 235C155.438 232.958 156.365 231.156 157.594 229.594C158.844 228.031 160.406 226.802 162.281 225.906C164.177 225.01 166.396 224.562 168.938 224.562C171.583 224.562 173.896 225.104 175.875 226.188C177.854 227.25 179.406 228.708 180.531 230.562C181.677 232.396 182.302 234.479 182.406 236.812H176.906C176.802 235.417 176.406 234.156 175.719 233.031C175.052 231.906 174.135 231.01 172.969 230.344C171.823 229.656 170.479 229.312 168.938 229.312C167.167 229.312 165.677 229.667 164.469 230.375C163.281 231.062 162.333 232 161.625 233.188C160.938 234.354 160.438 235.656 160.125 237.094C159.833 238.51 159.688 239.958 159.688 241.438V242.75C159.688 244.229 159.833 245.688 160.125 247.125C160.417 248.562 160.906 249.865 161.594 251.031C162.302 252.198 163.25 253.135 164.438 253.844C165.646 254.531 167.146 254.875 168.938 254.875ZM194.719 211V259H188.906V211H194.719ZM215.375 225.188L200.625 240.969L192.375 249.531L191.906 243.375L197.812 236.312L208.312 225.188H215.375ZM210.094 259L198.031 242.875L201.031 237.719L216.906 259H210.094Z" fill="white" fill-opacity="0.5"/>
<rect x="61.5" y="291.5" width="168" height="78" stroke="white" stroke-opacity="0.5" stroke-width="3"/>
<path d="M67.375 304H73.1875V345.438L72.6875 352H67.375V304ZM96.0312 334.812V335.469C96.0312 337.927 95.7396 340.208 95.1562 342.312C94.5729 344.396 93.7188 346.208 92.5938 347.75C91.4688 349.292 90.0938 350.49 88.4688 351.344C86.8438 352.198 84.9792 352.625 82.875 352.625C80.7292 352.625 78.8438 352.26 77.2188 351.531C75.6146 350.781 74.2604 349.708 73.1562 348.312C72.0521 346.917 71.1667 345.229 70.5 343.25C69.8542 341.271 69.4062 339.042 69.1562 336.562V333.688C69.4062 331.188 69.8542 328.948 70.5 326.969C71.1667 324.99 72.0521 323.302 73.1562 321.906C74.2604 320.49 75.6146 319.417 77.2188 318.688C78.8229 317.938 80.6875 317.562 82.8125 317.562C84.9375 317.562 86.8229 317.979 88.4688 318.812C90.1146 319.625 91.4896 320.792 92.5938 322.312C93.7188 323.833 94.5729 325.656 95.1562 327.781C95.7396 329.885 96.0312 332.229 96.0312 334.812ZM90.2188 335.469V334.812C90.2188 333.125 90.0625 331.542 89.75 330.062C89.4375 328.562 88.9375 327.25 88.25 326.125C87.5625 324.979 86.6562 324.083 85.5312 323.438C84.4062 322.771 83.0208 322.438 81.375 322.438C79.9167 322.438 78.6458 322.688 77.5625 323.188C76.5 323.688 75.5938 324.365 74.8438 325.219C74.0938 326.052 73.4792 327.01 73 328.094C72.5417 329.156 72.1979 330.26 71.9688 331.406V338.938C72.3021 340.396 72.8438 341.802 73.5938 343.156C74.3646 344.49 75.3854 345.583 76.6562 346.438C77.9479 347.292 79.5417 347.719 81.4375 347.719C83 347.719 84.3333 347.406 85.4375 346.781C86.5625 346.135 87.4688 345.25 88.1562 344.125C88.8646 343 89.3854 341.698 89.7188 340.219C90.0521 338.74 90.2188 337.156 90.2188 335.469ZM109.625 304V352H103.812V304H109.625ZM117.375 335.469V334.75C117.375 332.312 117.729 330.052 118.438 327.969C119.146 325.865 120.167 324.042 121.5 322.5C122.833 320.938 124.448 319.729 126.344 318.875C128.24 318 130.365 317.562 132.719 317.562C135.094 317.562 137.229 318 139.125 318.875C141.042 319.729 142.667 320.938 144 322.5C145.354 324.042 146.385 325.865 147.094 327.969C147.802 330.052 148.156 332.312 148.156 334.75V335.469C148.156 337.906 147.802 340.167 147.094 342.25C146.385 344.333 145.354 346.156 144 347.719C142.667 349.26 141.052 350.469 139.156 351.344C137.281 352.198 135.156 352.625 132.781 352.625C130.406 352.625 128.271 352.198 126.375 351.344C124.479 350.469 122.854 349.26 121.5 347.719C120.167 346.156 119.146 344.333 118.438 342.25C117.729 340.167 117.375 337.906 117.375 335.469ZM123.156 334.75V335.469C123.156 337.156 123.354 338.75 123.75 340.25C124.146 341.729 124.74 343.042 125.531 344.188C126.344 345.333 127.354 346.24 128.562 346.906C129.771 347.552 131.177 347.875 132.781 347.875C134.365 347.875 135.75 347.552 136.938 346.906C138.146 346.24 139.146 345.333 139.938 344.188C140.729 343.042 141.323 341.729 141.719 340.25C142.135 338.75 142.344 337.156 142.344 335.469V334.75C142.344 333.083 142.135 331.51 141.719 330.031C141.323 328.531 140.719 327.208 139.906 326.062C139.115 324.896 138.115 323.979 136.906 323.312C135.719 322.646 134.323 322.312 132.719 322.312C131.135 322.312 129.74 322.646 128.531 323.312C127.344 323.979 126.344 324.896 125.531 326.062C124.74 327.208 124.146 328.531 123.75 330.031C123.354 331.51 123.156 333.083 123.156 334.75ZM168.938 347.875C170.312 347.875 171.583 347.594 172.75 347.031C173.917 346.469 174.875 345.698 175.625 344.719C176.375 343.719 176.802 342.583 176.906 341.312H182.406C182.302 343.312 181.625 345.177 180.375 346.906C179.146 348.615 177.531 350 175.531 351.062C173.531 352.104 171.333 352.625 168.938 352.625C166.396 352.625 164.177 352.177 162.281 351.281C160.406 350.385 158.844 349.156 157.594 347.594C156.365 346.031 155.438 344.24 154.812 342.219C154.208 340.177 153.906 338.021 153.906 335.75V334.438C153.906 332.167 154.208 330.021 154.812 328C155.438 325.958 156.365 324.156 157.594 322.594C158.844 321.031 160.406 319.802 162.281 318.906C164.177 318.01 166.396 317.562 168.938 317.562C171.583 317.562 173.896 318.104 175.875 319.188C177.854 320.25 179.406 321.708 180.531 323.562C181.677 325.396 182.302 327.479 182.406 329.812H176.906C176.802 328.417 176.406 327.156 175.719 326.031C175.052 324.906 174.135 324.01 172.969 323.344C171.823 322.656 170.479 322.312 168.938 322.312C167.167 322.312 165.677 322.667 164.469 323.375C163.281 324.062 162.333 325 161.625 326.188C160.938 327.354 160.438 328.656 160.125 330.094C159.833 331.51 159.688 332.958 159.688 334.438V335.75C159.688 337.229 159.833 338.688 160.125 340.125C160.417 341.562 160.906 342.865 161.594 344.031C162.302 345.198 163.25 346.135 164.438 346.844C165.646 347.531 167.146 347.875 168.938 347.875ZM194.719 304V352H188.906V304H194.719ZM215.375 318.188L200.625 333.969L192.375 342.531L191.906 336.375L197.812 329.312L208.312 318.188H215.375ZM210.094 352L198.031 335.875L201.031 330.719L216.906 352H210.094Z" fill="white" fill-opacity="0.5"/>
<path d="M441.939 454.561C442.525 455.146 443.475 455.146 444.061 454.561L453.607 445.015C454.192 444.429 454.192 443.479 453.607 442.893C453.021 442.308 452.071 442.308 451.485 442.893L443 451.379L434.515 442.893C433.929 442.308 432.979 442.308 432.393 442.893C431.808 443.479 431.808 444.429 432.393 445.015L441.939 454.561ZM441.5 23L441.5 453.5L444.5 453.5L444.5 23L441.5 23Z" fill="#FFFEFE"/>
<path d="M490 86.4609V89.7305H466.691L463 89.4492V86.4609H490ZM472.668 102.58H472.299C470.916 102.58 469.633 102.416 468.449 102.088C467.277 101.76 466.258 101.279 465.391 100.646C464.523 100.014 463.85 99.2402 463.369 98.3262C462.889 97.4121 462.648 96.3633 462.648 95.1797C462.648 93.9727 462.854 92.9121 463.264 91.998C463.686 91.0957 464.289 90.334 465.074 89.7129C465.859 89.0918 466.809 88.5938 467.922 88.2188C469.035 87.8555 470.289 87.6035 471.684 87.4629H473.301C474.707 87.6035 475.967 87.8555 477.08 88.2188C478.193 88.5938 479.143 89.0918 479.928 89.7129C480.725 90.334 481.328 91.0957 481.738 91.998C482.16 92.9004 482.371 93.9492 482.371 95.1445C482.371 96.3398 482.137 97.4004 481.668 98.3262C481.211 99.252 480.555 100.025 479.699 100.646C478.844 101.279 477.818 101.76 476.623 102.088C475.439 102.416 474.121 102.58 472.668 102.58ZM472.299 99.3105H472.668C473.617 99.3105 474.508 99.2227 475.34 99.0469C476.184 98.8711 476.922 98.5898 477.555 98.2031C478.199 97.8164 478.703 97.3066 479.066 96.6738C479.441 96.041 479.629 95.2617 479.629 94.3359C479.629 93.5156 479.488 92.8008 479.207 92.1914C478.926 91.5938 478.545 91.084 478.064 90.6621C477.596 90.2402 477.057 89.8945 476.447 89.625C475.85 89.3672 475.229 89.1738 474.584 89.0449H470.348C469.527 89.2324 468.736 89.5371 467.975 89.959C467.225 90.3926 466.609 90.9668 466.129 91.6816C465.648 92.4082 465.408 93.3047 465.408 94.3711C465.408 95.25 465.584 96 465.936 96.6211C466.299 97.2539 466.797 97.7637 467.43 98.1504C468.062 98.5488 468.795 98.8418 469.627 99.0293C470.459 99.2168 471.35 99.3105 472.299 99.3105ZM490 110.227H463V106.957H490V110.227ZM472.299 114.586H472.703C474.074 114.586 475.346 114.785 476.518 115.184C477.701 115.582 478.727 116.156 479.594 116.906C480.473 117.656 481.152 118.564 481.633 119.631C482.125 120.697 482.371 121.893 482.371 123.217C482.371 124.553 482.125 125.754 481.633 126.82C481.152 127.898 480.473 128.812 479.594 129.562C478.727 130.324 477.701 130.904 476.518 131.303C475.346 131.701 474.074 131.9 472.703 131.9H472.299C470.928 131.9 469.656 131.701 468.484 131.303C467.312 130.904 466.287 130.324 465.408 129.562C464.541 128.812 463.861 127.904 463.369 126.838C462.889 125.783 462.648 124.588 462.648 123.252C462.648 121.916 462.889 120.715 463.369 119.648C463.861 118.582 464.541 117.668 465.408 116.906C466.287 116.156 467.312 115.582 468.484 115.184C469.656 114.785 470.928 114.586 472.299 114.586ZM472.703 117.838H472.299C471.35 117.838 470.453 117.949 469.609 118.172C468.777 118.395 468.039 118.729 467.395 119.174C466.75 119.631 466.24 120.199 465.865 120.879C465.502 121.559 465.32 122.35 465.32 123.252C465.32 124.143 465.502 124.922 465.865 125.59C466.24 126.27 466.75 126.832 467.395 127.277C468.039 127.723 468.777 128.057 469.609 128.279C470.453 128.514 471.35 128.631 472.299 128.631H472.703C473.641 128.631 474.525 128.514 475.357 128.279C476.201 128.057 476.945 127.717 477.59 127.26C478.246 126.814 478.762 126.252 479.137 125.572C479.512 124.904 479.699 124.119 479.699 123.217C479.699 122.326 479.512 121.541 479.137 120.861C478.762 120.193 478.246 119.631 477.59 119.174C476.945 118.729 476.201 118.395 475.357 118.172C474.525 117.949 473.641 117.838 472.703 117.838ZM465.32 143.59C465.32 144.363 465.479 145.078 465.795 145.734C466.111 146.391 466.545 146.93 467.096 147.352C467.658 147.773 468.297 148.014 469.012 148.072V151.166C467.887 151.107 466.838 150.727 465.865 150.023C464.904 149.332 464.125 148.424 463.527 147.299C462.941 146.174 462.648 144.938 462.648 143.59C462.648 142.16 462.9 140.912 463.404 139.846C463.908 138.791 464.6 137.912 465.479 137.209C466.357 136.518 467.365 135.996 468.502 135.645C469.65 135.305 470.863 135.135 472.141 135.135H472.879C474.156 135.135 475.363 135.305 476.5 135.645C477.648 135.996 478.662 136.518 479.541 137.209C480.42 137.912 481.111 138.791 481.615 139.846C482.119 140.912 482.371 142.16 482.371 143.59C482.371 145.078 482.066 146.379 481.457 147.492C480.859 148.605 480.039 149.479 478.996 150.111C477.965 150.756 476.793 151.107 475.48 151.166V148.072C476.266 148.014 476.975 147.791 477.607 147.404C478.24 147.029 478.744 146.514 479.119 145.857C479.506 145.213 479.699 144.457 479.699 143.59C479.699 142.594 479.5 141.756 479.102 141.076C478.715 140.408 478.188 139.875 477.52 139.477C476.863 139.09 476.131 138.809 475.322 138.633C474.525 138.469 473.711 138.387 472.879 138.387H472.141C471.309 138.387 470.488 138.469 469.68 138.633C468.871 138.797 468.139 139.072 467.482 139.459C466.826 139.857 466.299 140.391 465.9 141.059C465.514 141.738 465.32 142.582 465.32 143.59ZM490 158.092H463V154.822H490V158.092ZM482.02 169.711L473.143 161.414L468.326 156.773L471.789 156.51L475.762 159.832L482.02 165.738V169.711ZM463 166.74L472.07 159.955L474.971 161.643L463 170.572V166.74ZM463 186.85V183.598H484.023C485.395 183.598 486.549 183.85 487.486 184.354C488.436 184.869 489.15 185.607 489.631 186.568C490.123 187.541 490.369 188.719 490.369 190.102C490.369 190.617 490.316 191.262 490.211 192.035C490.105 192.82 489.971 193.652 489.807 194.531C489.643 195.422 489.473 196.289 489.297 197.133L486.941 195.621C487.152 194.508 487.311 193.506 487.416 192.615C487.533 191.725 487.592 190.969 487.592 190.348C487.592 189.586 487.451 188.941 487.17 188.414C486.9 187.898 486.502 187.506 485.975 187.236C485.447 186.979 484.797 186.85 484.023 186.85H463ZM463 193.881H489.297V197.133H463V193.881ZM482.02 190.893H479.523V180.592H482.02V190.893ZM472.299 201.598H472.703C474.074 201.598 475.346 201.797 476.518 202.195C477.701 202.594 478.727 203.168 479.594 203.918C480.473 204.668 481.152 205.576 481.633 206.643C482.125 207.709 482.371 208.904 482.371 210.229C482.371 211.564 482.125 212.766 481.633 213.832C481.152 214.91 480.473 215.824 479.594 216.574C478.727 217.336 477.701 217.916 476.518 218.314C475.346 218.713 474.074 218.912 472.703 218.912H472.299C470.928 218.912 469.656 218.713 468.484 218.314C467.312 217.916 466.287 217.336 465.408 216.574C464.541 215.824 463.861 214.916 463.369 213.85C462.889 212.795 462.648 211.6 462.648 210.264C462.648 208.928 462.889 207.727 463.369 206.66C463.861 205.594 464.541 204.68 465.408 203.918C466.287 203.168 467.312 202.594 468.484 202.195C469.656 201.797 470.928 201.598 472.299 201.598ZM472.703 204.85H472.299C471.35 204.85 470.453 204.961 469.609 205.184C468.777 205.406 468.039 205.74 467.395 206.186C466.75 206.643 466.24 207.211 465.865 207.891C465.502 208.57 465.32 209.361 465.32 210.264C465.32 211.154 465.502 211.934 465.865 212.602C466.24 213.281 466.75 213.844 467.395 214.289C468.039 214.734 468.777 215.068 469.609 215.291C470.453 215.525 471.35 215.643 472.299 215.643H472.703C473.641 215.643 474.525 215.525 475.357 215.291C476.201 215.068 476.945 214.729 477.59 214.271C478.246 213.826 478.762 213.264 479.137 212.584C479.512 211.916 479.699 211.131 479.699 210.229C479.699 209.338 479.512 208.553 479.137 207.873C478.762 207.205 478.246 206.643 477.59 206.186C476.945 205.74 476.201 205.406 475.357 205.184C474.525 204.961 473.641 204.85 472.703 204.85ZM466.375 227.807L482.02 232.693V234.838L478.908 234.416L463 229.441V227.35L466.375 227.807ZM482.02 224.52L466.199 228.686L463 228.984V226.787L482.02 221.268V224.52ZM466.322 239.514L482.02 243.486V246.721L463 241.201V239.021L466.322 239.514ZM482.02 235.312L466.639 240.094L463 240.639V238.564L478.943 233.449L482.02 233.027V235.312ZM466.691 270.979H490V274.248H463V271.26L466.691 270.979ZM472.299 258.182H472.668C474.121 258.182 475.439 258.357 476.623 258.709C477.818 259.072 478.844 259.582 479.699 260.238C480.555 260.906 481.211 261.697 481.668 262.611C482.137 263.537 482.371 264.568 482.371 265.705C482.371 266.9 482.16 267.943 481.738 268.834C481.328 269.736 480.725 270.498 479.928 271.119C479.143 271.752 478.193 272.25 477.08 272.613C475.967 272.977 474.707 273.229 473.301 273.369H471.684C470.289 273.24 469.035 272.988 467.922 272.613C466.809 272.25 465.859 271.752 465.074 271.119C464.289 270.498 463.686 269.736 463.264 268.834C462.854 267.932 462.648 266.877 462.648 265.67C462.648 264.557 462.889 263.537 463.369 262.611C463.85 261.697 464.523 260.906 465.391 260.238C466.258 259.582 467.277 259.072 468.449 258.709C469.633 258.357 470.916 258.182 472.299 258.182ZM472.668 261.451H472.299C471.35 261.451 470.459 261.545 469.627 261.732C468.795 261.932 468.062 262.236 467.43 262.646C466.797 263.057 466.299 263.578 465.936 264.211C465.584 264.844 465.408 265.6 465.408 266.479C465.408 267.557 465.637 268.441 466.094 269.133C466.551 269.836 467.154 270.398 467.904 270.82C468.654 271.242 469.469 271.57 470.348 271.805H474.584C475.229 271.664 475.85 271.459 476.447 271.189C477.057 270.932 477.596 270.592 478.064 270.17C478.545 269.76 478.926 269.25 479.207 268.641C479.488 268.043 479.629 267.334 479.629 266.514C479.629 265.623 479.441 264.855 479.066 264.211C478.703 263.578 478.199 263.057 477.555 262.646C476.922 262.236 476.184 261.932 475.34 261.732C474.508 261.545 473.617 261.451 472.668 261.451ZM482.02 282.844H463V279.574H482.02V282.844ZM487.064 279.328C487.592 279.328 488.037 279.486 488.4 279.803C488.764 280.131 488.945 280.611 488.945 281.244C488.945 281.865 488.764 282.34 488.4 282.668C488.037 283.008 487.592 283.178 487.064 283.178C486.561 283.178 486.127 283.008 485.764 282.668C485.412 282.34 485.236 281.865 485.236 281.244C485.236 280.611 485.412 280.131 485.764 279.803C486.127 279.486 486.561 279.328 487.064 279.328ZM479.031 291.316H463V288.064H482.02V291.229L479.031 291.316ZM482.125 297.258L479.102 297.24C479.16 296.971 479.195 296.713 479.207 296.467C479.23 296.232 479.242 295.963 479.242 295.658C479.242 294.908 479.125 294.246 478.891 293.672C478.656 293.098 478.328 292.611 477.906 292.213C477.484 291.814 476.98 291.498 476.395 291.264C475.82 291.041 475.188 290.895 474.496 290.824L473.969 289.91C475.117 289.91 476.195 290.021 477.203 290.244C478.211 290.479 479.102 290.836 479.875 291.316C480.66 291.797 481.27 292.406 481.703 293.145C482.148 293.895 482.371 294.785 482.371 295.816C482.371 296.051 482.342 296.32 482.283 296.625C482.236 296.93 482.184 297.141 482.125 297.258ZM462.648 307.805C462.648 306.48 462.871 305.279 463.316 304.201C463.773 303.135 464.412 302.215 465.232 301.441C466.053 300.68 467.025 300.094 468.15 299.684C469.275 299.273 470.506 299.068 471.842 299.068H472.58C474.127 299.068 475.504 299.297 476.711 299.754C477.93 300.211 478.961 300.832 479.805 301.617C480.648 302.402 481.287 303.293 481.721 304.289C482.154 305.285 482.371 306.316 482.371 307.383C482.371 308.742 482.137 309.914 481.668 310.898C481.199 311.895 480.543 312.709 479.699 313.342C478.867 313.975 477.883 314.443 476.746 314.748C475.621 315.053 474.391 315.205 473.055 315.205H471.596V301.002H474.25V311.953H474.496C475.34 311.906 476.16 311.73 476.957 311.426C477.754 311.133 478.41 310.664 478.926 310.02C479.441 309.375 479.699 308.496 479.699 307.383C479.699 306.645 479.541 305.965 479.225 305.344C478.92 304.723 478.463 304.189 477.854 303.744C477.244 303.299 476.5 302.953 475.621 302.707C474.742 302.461 473.729 302.338 472.58 302.338H471.842C470.939 302.338 470.09 302.461 469.293 302.707C468.508 302.965 467.816 303.334 467.219 303.814C466.621 304.307 466.152 304.898 465.812 305.59C465.473 306.293 465.303 307.09 465.303 307.98C465.303 309.129 465.537 310.102 466.006 310.898C466.475 311.695 467.102 312.393 467.887 312.99L466.322 314.959C465.701 314.549 465.109 314.027 464.547 313.395C463.984 312.762 463.527 311.982 463.176 311.057C462.824 310.143 462.648 309.059 462.648 307.805ZM465.32 326.613C465.32 327.387 465.479 328.102 465.795 328.758C466.111 329.414 466.545 329.953 467.096 330.375C467.658 330.797 468.297 331.037 469.012 331.096V334.189C467.887 334.131 466.838 333.75 465.865 333.047C464.904 332.355 464.125 331.447 463.527 330.322C462.941 329.197 462.648 327.961 462.648 326.613C462.648 325.184 462.9 323.936 463.404 322.869C463.908 321.814 464.6 320.936 465.479 320.232C466.357 319.541 467.365 319.02 468.502 318.668C469.65 318.328 470.863 318.158 472.141 318.158H472.879C474.156 318.158 475.363 318.328 476.5 318.668C477.648 319.02 478.662 319.541 479.541 320.232C480.42 320.936 481.111 321.814 481.615 322.869C482.119 323.936 482.371 325.184 482.371 326.613C482.371 328.102 482.066 329.402 481.457 330.516C480.859 331.629 480.039 332.502 478.996 333.135C477.965 333.779 476.793 334.131 475.48 334.189V331.096C476.266 331.037 476.975 330.814 477.607 330.428C478.24 330.053 478.744 329.537 479.119 328.881C479.506 328.236 479.699 327.48 479.699 326.613C479.699 325.617 479.5 324.779 479.102 324.1C478.715 323.432 478.188 322.898 477.52 322.5C476.863 322.113 476.131 321.832 475.322 321.656C474.525 321.492 473.711 321.41 472.879 321.41H472.141C471.309 321.41 470.488 321.492 469.68 321.656C468.871 321.82 468.139 322.096 467.482 322.482C466.826 322.881 466.299 323.414 465.9 324.082C465.514 324.762 465.32 325.605 465.32 326.613ZM482.02 345.809H479.523V335.525H482.02V345.809ZM486.643 339.006V342.258H467.711C467.066 342.258 466.58 342.357 466.252 342.557C465.924 342.756 465.707 343.014 465.602 343.33C465.496 343.646 465.443 343.986 465.443 344.35C465.443 344.619 465.467 344.9 465.514 345.193C465.572 345.498 465.619 345.727 465.654 345.879L463 345.896C462.918 345.639 462.842 345.299 462.771 344.877C462.689 344.467 462.648 343.969 462.648 343.383C462.648 342.586 462.807 341.854 463.123 341.186C463.439 340.518 463.967 339.984 464.705 339.586C465.455 339.199 466.463 339.006 467.729 339.006H486.643ZM482.02 353.156H463V349.887H482.02V353.156ZM487.064 349.641C487.592 349.641 488.037 349.799 488.4 350.115C488.764 350.443 488.945 350.924 488.945 351.557C488.945 352.178 488.764 352.652 488.4 352.98C488.037 353.32 487.592 353.49 487.064 353.49C486.561 353.49 486.127 353.32 485.764 352.98C485.412 352.652 485.236 352.178 485.236 351.557C485.236 350.924 485.412 350.443 485.764 350.115C486.127 349.799 486.561 349.641 487.064 349.641ZM472.299 357.516H472.703C474.074 357.516 475.346 357.715 476.518 358.113C477.701 358.512 478.727 359.086 479.594 359.836C480.473 360.586 481.152 361.494 481.633 362.561C482.125 363.627 482.371 364.822 482.371 366.146C482.371 367.482 482.125 368.684 481.633 369.75C481.152 370.828 480.473 371.742 479.594 372.492C478.727 373.254 477.701 373.834 476.518 374.232C475.346 374.631 474.074 374.83 472.703 374.83H472.299C470.928 374.83 469.656 374.631 468.484 374.232C467.312 373.834 466.287 373.254 465.408 372.492C464.541 371.742 463.861 370.834 463.369 369.768C462.889 368.713 462.648 367.518 462.648 366.182C462.648 364.846 462.889 363.645 463.369 362.578C463.861 361.512 464.541 360.598 465.408 359.836C466.287 359.086 467.312 358.512 468.484 358.113C469.656 357.715 470.928 357.516 472.299 357.516ZM472.703 360.768H472.299C471.35 360.768 470.453 360.879 469.609 361.102C468.777 361.324 468.039 361.658 467.395 362.104C466.75 362.561 466.24 363.129 465.865 363.809C465.502 364.488 465.32 365.279 465.32 366.182C465.32 367.072 465.502 367.852 465.865 368.52C466.24 369.199 466.75 369.762 467.395 370.207C468.039 370.652 468.777 370.986 469.609 371.209C470.453 371.443 471.35 371.561 472.299 371.561H472.703C473.641 371.561 474.525 371.443 475.357 371.209C476.201 370.986 476.945 370.646 477.59 370.189C478.246 369.744 478.762 369.182 479.137 368.502C479.512 367.834 479.699 367.049 479.699 366.146C479.699 365.256 479.512 364.471 479.137 363.791C478.762 363.123 478.246 362.561 477.59 362.104C476.945 361.658 476.201 361.324 475.357 361.102C474.525 360.879 473.641 360.768 472.703 360.768ZM477.959 382.16H463V378.908H482.02V381.984L477.959 382.16ZM473.23 381.387L473.283 380.033C474.584 380.045 475.785 380.238 476.887 380.613C478 380.988 478.967 381.516 479.787 382.195C480.607 382.875 481.24 383.684 481.686 384.621C482.143 385.57 482.371 386.619 482.371 387.768C482.371 388.705 482.242 389.549 481.984 390.299C481.738 391.049 481.34 391.688 480.789 392.215C480.238 392.754 479.523 393.164 478.645 393.445C477.777 393.727 476.717 393.867 475.463 393.867H463V390.598H475.498C476.494 390.598 477.291 390.451 477.889 390.158C478.498 389.865 478.938 389.438 479.207 388.875C479.488 388.312 479.629 387.621 479.629 386.801C479.629 385.992 479.459 385.254 479.119 384.586C478.779 383.93 478.311 383.361 477.713 382.881C477.115 382.412 476.43 382.043 475.656 381.773C474.895 381.516 474.086 381.387 473.23 381.387Z" fill="white"/>
<path d="M307.641 27H309.82V42.5391L309.633 45H307.641V27ZM318.387 38.5547V38.8008C318.387 39.7227 318.277 40.5781 318.059 41.3672C317.84 42.1484 317.52 42.8281 317.098 43.4062C316.676 43.9844 316.16 44.4336 315.551 44.7539C314.941 45.0742 314.242 45.2344 313.453 45.2344C312.648 45.2344 311.941 45.0977 311.332 44.8242C310.73 44.543 310.223 44.1406 309.809 43.6172C309.395 43.0938 309.062 42.4609 308.812 41.7188C308.57 40.9766 308.402 40.1406 308.309 39.2109V38.1328C308.402 37.1953 308.57 36.3555 308.812 35.6133C309.062 34.8711 309.395 34.2383 309.809 33.7148C310.223 33.1836 310.73 32.7812 311.332 32.5078C311.934 32.2266 312.633 32.0859 313.43 32.0859C314.227 32.0859 314.934 32.2422 315.551 32.5547C316.168 32.8594 316.684 33.2969 317.098 33.8672C317.52 34.4375 317.84 35.1211 318.059 35.918C318.277 36.707 318.387 37.5859 318.387 38.5547ZM316.207 38.8008V38.5547C316.207 37.9219 316.148 37.3281 316.031 36.7734C315.914 36.2109 315.727 35.7188 315.469 35.2969C315.211 34.8672 314.871 34.5312 314.449 34.2891C314.027 34.0391 313.508 33.9141 312.891 33.9141C312.344 33.9141 311.867 34.0078 311.461 34.1953C311.062 34.3828 310.723 34.6367 310.441 34.957C310.16 35.2695 309.93 35.6289 309.75 36.0352C309.578 36.4336 309.449 36.8477 309.363 37.2773V40.1016C309.488 40.6484 309.691 41.1758 309.973 41.6836C310.262 42.1836 310.645 42.5938 311.121 42.9141C311.605 43.2344 312.203 43.3945 312.914 43.3945C313.5 43.3945 314 43.2773 314.414 43.043C314.836 42.8008 315.176 42.4688 315.434 42.0469C315.699 41.625 315.895 41.1367 316.02 40.582C316.145 40.0273 316.207 39.4336 316.207 38.8008ZM323.484 27V45H321.305V27H323.484ZM326.391 38.8008V38.5312C326.391 37.6172 326.523 36.7695 326.789 35.9883C327.055 35.1992 327.438 34.5156 327.938 33.9375C328.438 33.3516 329.043 32.8984 329.754 32.5781C330.465 32.25 331.262 32.0859 332.145 32.0859C333.035 32.0859 333.836 32.25 334.547 32.5781C335.266 32.8984 335.875 33.3516 336.375 33.9375C336.883 34.5156 337.27 35.1992 337.535 35.9883C337.801 36.7695 337.934 37.6172 337.934 38.5312V38.8008C337.934 39.7148 337.801 40.5625 337.535 41.3438C337.27 42.125 336.883 42.8086 336.375 43.3945C335.875 43.9727 335.27 44.4258 334.559 44.7539C333.855 45.0742 333.059 45.2344 332.168 45.2344C331.277 45.2344 330.477 45.0742 329.766 44.7539C329.055 44.4258 328.445 43.9727 327.938 43.3945C327.438 42.8086 327.055 42.125 326.789 41.3438C326.523 40.5625 326.391 39.7148 326.391 38.8008ZM328.559 38.5312V38.8008C328.559 39.4336 328.633 40.0312 328.781 40.5938C328.93 41.1484 329.152 41.6406 329.449 42.0703C329.754 42.5 330.133 42.8398 330.586 43.0898C331.039 43.332 331.566 43.4531 332.168 43.4531C332.762 43.4531 333.281 43.332 333.727 43.0898C334.18 42.8398 334.555 42.5 334.852 42.0703C335.148 41.6406 335.371 41.1484 335.52 40.5938C335.676 40.0312 335.754 39.4336 335.754 38.8008V38.5312C335.754 37.9062 335.676 37.3164 335.52 36.7617C335.371 36.1992 335.145 35.7031 334.84 35.2734C334.543 34.8359 334.168 34.4922 333.715 34.2422C333.27 33.9922 332.746 33.8672 332.145 33.8672C331.551 33.8672 331.027 33.9922 330.574 34.2422C330.129 34.4922 329.754 34.8359 329.449 35.2734C329.152 35.7031 328.93 36.1992 328.781 36.7617C328.633 37.3164 328.559 37.9062 328.559 38.5312ZM345.727 43.4531C346.242 43.4531 346.719 43.3477 347.156 43.1367C347.594 42.9258 347.953 42.6367 348.234 42.2695C348.516 41.8945 348.676 41.4688 348.715 40.9922H350.777C350.738 41.7422 350.484 42.4414 350.016 43.0898C349.555 43.7305 348.949 44.25 348.199 44.6484C347.449 45.0391 346.625 45.2344 345.727 45.2344C344.773 45.2344 343.941 45.0664 343.23 44.7305C342.527 44.3945 341.941 43.9336 341.473 43.3477C341.012 42.7617 340.664 42.0898 340.43 41.332C340.203 40.5664 340.09 39.7578 340.09 38.9062V38.4141C340.09 37.5625 340.203 36.7578 340.43 36C340.664 35.2344 341.012 34.5586 341.473 33.9727C341.941 33.3867 342.527 32.9258 343.23 32.5898C343.941 32.2539 344.773 32.0859 345.727 32.0859C346.719 32.0859 347.586 32.2891 348.328 32.6953C349.07 33.0938 349.652 33.6406 350.074 34.3359C350.504 35.0234 350.738 35.8047 350.777 36.6797H348.715C348.676 36.1562 348.527 35.6836 348.27 35.2617C348.02 34.8398 347.676 34.5039 347.238 34.2539C346.809 33.9961 346.305 33.8672 345.727 33.8672C345.062 33.8672 344.504 34 344.051 34.2656C343.605 34.5234 343.25 34.875 342.984 35.3203C342.727 35.7578 342.539 36.2461 342.422 36.7852C342.312 37.3164 342.258 37.8594 342.258 38.4141V38.9062C342.258 39.4609 342.312 40.0078 342.422 40.5469C342.531 41.0859 342.715 41.5742 342.973 42.0117C343.238 42.4492 343.594 42.8008 344.039 43.0664C344.492 43.3242 345.055 43.4531 345.727 43.4531ZM355.395 27V45H353.215V27H355.395ZM363.141 32.3203L357.609 38.2383L354.516 41.4492L354.34 39.1406L356.555 36.4922L360.492 32.3203H363.141ZM361.16 45L356.637 38.9531L357.762 37.0195L363.715 45H361.16ZM369.891 36.8555V38.6367H364.172V36.8555H369.891ZM379.395 41.6367C379.395 41.3242 379.324 41.0352 379.184 40.7695C379.051 40.4961 378.773 40.25 378.352 40.0312C377.938 39.8047 377.312 39.6094 376.477 39.4453C375.773 39.2969 375.137 39.1211 374.566 38.918C374.004 38.7148 373.523 38.4688 373.125 38.1797C372.734 37.8906 372.434 37.5508 372.223 37.1602C372.012 36.7695 371.906 36.3125 371.906 35.7891C371.906 35.2891 372.016 34.8164 372.234 34.3711C372.461 33.9258 372.777 33.5312 373.184 33.1875C373.598 32.8438 374.094 32.5742 374.672 32.3789C375.25 32.1836 375.895 32.0859 376.605 32.0859C377.621 32.0859 378.488 32.2656 379.207 32.625C379.926 32.9844 380.477 33.4648 380.859 34.0664C381.242 34.6602 381.434 35.3203 381.434 36.0469H379.266C379.266 35.6953 379.16 35.3555 378.949 35.0273C378.746 34.6914 378.445 34.4141 378.047 34.1953C377.656 33.9766 377.176 33.8672 376.605 33.8672C376.004 33.8672 375.516 33.9609 375.141 34.1484C374.773 34.3281 374.504 34.5586 374.332 34.8398C374.168 35.1211 374.086 35.418 374.086 35.7305C374.086 35.9648 374.125 36.1758 374.203 36.3633C374.289 36.543 374.438 36.7109 374.648 36.8672C374.859 37.0156 375.156 37.1562 375.539 37.2891C375.922 37.4219 376.41 37.5547 377.004 37.6875C378.043 37.9219 378.898 38.2031 379.57 38.5312C380.242 38.8594 380.742 39.2617 381.07 39.7383C381.398 40.2148 381.562 40.793 381.562 41.4727C381.562 42.0273 381.445 42.5352 381.211 42.9961C380.984 43.457 380.652 43.8555 380.215 44.1914C379.785 44.5195 379.27 44.7773 378.668 44.9648C378.074 45.1445 377.406 45.2344 376.664 45.2344C375.547 45.2344 374.602 45.0352 373.828 44.6367C373.055 44.2383 372.469 43.7227 372.07 43.0898C371.672 42.457 371.473 41.7891 371.473 41.0859H373.652C373.684 41.6797 373.855 42.1523 374.168 42.5039C374.48 42.8477 374.863 43.0938 375.316 43.2422C375.77 43.3828 376.219 43.4531 376.664 43.4531C377.258 43.4531 377.754 43.375 378.152 43.2188C378.559 43.0625 378.867 42.8477 379.078 42.5742C379.289 42.3008 379.395 41.9883 379.395 41.6367ZM389.719 32.3203V33.9844H382.863V32.3203H389.719ZM385.184 29.2383H387.352V41.8594C387.352 42.2891 387.418 42.6133 387.551 42.832C387.684 43.0508 387.855 43.1953 388.066 43.2656C388.277 43.3359 388.504 43.3711 388.746 43.3711C388.926 43.3711 389.113 43.3555 389.309 43.3242C389.512 43.2852 389.664 43.2539 389.766 43.2305L389.777 45C389.605 45.0547 389.379 45.1055 389.098 45.1523C388.824 45.207 388.492 45.2344 388.102 45.2344C387.57 45.2344 387.082 45.1289 386.637 44.918C386.191 44.707 385.836 44.3555 385.57 43.8633C385.312 43.3633 385.184 42.6914 385.184 41.8477V29.2383ZM399.738 42.832V36.3047C399.738 35.8047 399.637 35.3711 399.434 35.0039C399.238 34.6289 398.941 34.3398 398.543 34.1367C398.145 33.9336 397.652 33.832 397.066 33.832C396.52 33.832 396.039 33.9258 395.625 34.1133C395.219 34.3008 394.898 34.5469 394.664 34.8516C394.438 35.1562 394.324 35.4844 394.324 35.8359H392.156C392.156 35.3828 392.273 34.9336 392.508 34.4883C392.742 34.043 393.078 33.6406 393.516 33.2812C393.961 32.9141 394.492 32.625 395.109 32.4141C395.734 32.1953 396.43 32.0859 397.195 32.0859C398.117 32.0859 398.93 32.2422 399.633 32.5547C400.344 32.8672 400.898 33.3398 401.297 33.9727C401.703 34.5977 401.906 35.3828 401.906 36.3281V42.2344C401.906 42.6562 401.941 43.1055 402.012 43.582C402.09 44.0586 402.203 44.4688 402.352 44.8125V45H400.09C399.98 44.75 399.895 44.418 399.832 44.0039C399.77 43.582 399.738 43.1914 399.738 42.832ZM400.113 37.3125L400.137 38.8359H397.945C397.328 38.8359 396.777 38.8867 396.293 38.9883C395.809 39.082 395.402 39.2266 395.074 39.4219C394.746 39.6172 394.496 39.8633 394.324 40.1602C394.152 40.4492 394.066 40.7891 394.066 41.1797C394.066 41.5781 394.156 41.9414 394.336 42.2695C394.516 42.5977 394.785 42.8594 395.145 43.0547C395.512 43.2422 395.961 43.3359 396.492 43.3359C397.156 43.3359 397.742 43.1953 398.25 42.9141C398.758 42.6328 399.16 42.2891 399.457 41.8828C399.762 41.4766 399.926 41.082 399.949 40.6992L400.875 41.7422C400.82 42.0703 400.672 42.4336 400.43 42.832C400.188 43.2305 399.863 43.6133 399.457 43.9805C399.059 44.3398 398.582 44.6406 398.027 44.8828C397.48 45.1172 396.863 45.2344 396.176 45.2344C395.316 45.2344 394.562 45.0664 393.914 44.7305C393.273 44.3945 392.773 43.9453 392.414 43.3828C392.062 42.8125 391.887 42.1758 391.887 41.4727C391.887 40.793 392.02 40.1953 392.285 39.6797C392.551 39.1562 392.934 38.7227 393.434 38.3789C393.934 38.0273 394.535 37.7617 395.238 37.582C395.941 37.4023 396.727 37.3125 397.594 37.3125H400.113ZM407.484 34.3125V45H405.316V32.3203H407.426L407.484 34.3125ZM411.445 32.25L411.434 34.2656C411.254 34.2266 411.082 34.2031 410.918 34.1953C410.762 34.1797 410.582 34.1719 410.379 34.1719C409.879 34.1719 409.438 34.25 409.055 34.4062C408.672 34.5625 408.348 34.7812 408.082 35.0625C407.816 35.3438 407.605 35.6797 407.449 36.0703C407.301 36.4531 407.203 36.875 407.156 37.3359L406.547 37.6875C406.547 36.9219 406.621 36.2031 406.77 35.5312C406.926 34.8594 407.164 34.2656 407.484 33.75C407.805 33.2266 408.211 32.8203 408.703 32.5312C409.203 32.2344 409.797 32.0859 410.484 32.0859C410.641 32.0859 410.82 32.1055 411.023 32.1445C411.227 32.1758 411.367 32.2109 411.445 32.25ZM419.344 32.3203V33.9844H412.488V32.3203H419.344ZM414.809 29.2383H416.977V41.8594C416.977 42.2891 417.043 42.6133 417.176 42.832C417.309 43.0508 417.48 43.1953 417.691 43.2656C417.902 43.3359 418.129 43.3711 418.371 43.3711C418.551 43.3711 418.738 43.3555 418.934 43.3242C419.137 43.2852 419.289 43.2539 419.391 43.2305L419.402 45C419.23 45.0547 419.004 45.1055 418.723 45.1523C418.449 45.207 418.117 45.2344 417.727 45.2344C417.195 45.2344 416.707 45.1289 416.262 44.918C415.816 44.707 415.461 44.3555 415.195 43.8633C414.938 43.3633 414.809 42.6914 414.809 41.8477V29.2383Z" fill="white"/>
<path d="M314.641 429H316.82V444.539L316.633 447H314.641V429ZM325.387 440.555V440.801C325.387 441.723 325.277 442.578 325.059 443.367C324.84 444.148 324.52 444.828 324.098 445.406C323.676 445.984 323.16 446.434 322.551 446.754C321.941 447.074 321.242 447.234 320.453 447.234C319.648 447.234 318.941 447.098 318.332 446.824C317.73 446.543 317.223 446.141 316.809 445.617C316.395 445.094 316.062 444.461 315.812 443.719C315.57 442.977 315.402 442.141 315.309 441.211V440.133C315.402 439.195 315.57 438.355 315.812 437.613C316.062 436.871 316.395 436.238 316.809 435.715C317.223 435.184 317.73 434.781 318.332 434.508C318.934 434.227 319.633 434.086 320.43 434.086C321.227 434.086 321.934 434.242 322.551 434.555C323.168 434.859 323.684 435.297 324.098 435.867C324.52 436.438 324.84 437.121 325.059 437.918C325.277 438.707 325.387 439.586 325.387 440.555ZM323.207 440.801V440.555C323.207 439.922 323.148 439.328 323.031 438.773C322.914 438.211 322.727 437.719 322.469 437.297C322.211 436.867 321.871 436.531 321.449 436.289C321.027 436.039 320.508 435.914 319.891 435.914C319.344 435.914 318.867 436.008 318.461 436.195C318.062 436.383 317.723 436.637 317.441 436.957C317.16 437.27 316.93 437.629 316.75 438.035C316.578 438.434 316.449 438.848 316.363 439.277V442.102C316.488 442.648 316.691 443.176 316.973 443.684C317.262 444.184 317.645 444.594 318.121 444.914C318.605 445.234 319.203 445.395 319.914 445.395C320.5 445.395 321 445.277 321.414 445.043C321.836 444.801 322.176 444.469 322.434 444.047C322.699 443.625 322.895 443.137 323.02 442.582C323.145 442.027 323.207 441.434 323.207 440.801ZM330.484 429V447H328.305V429H330.484ZM333.391 440.801V440.531C333.391 439.617 333.523 438.77 333.789 437.988C334.055 437.199 334.438 436.516 334.938 435.938C335.438 435.352 336.043 434.898 336.754 434.578C337.465 434.25 338.262 434.086 339.145 434.086C340.035 434.086 340.836 434.25 341.547 434.578C342.266 434.898 342.875 435.352 343.375 435.938C343.883 436.516 344.27 437.199 344.535 437.988C344.801 438.77 344.934 439.617 344.934 440.531V440.801C344.934 441.715 344.801 442.562 344.535 443.344C344.27 444.125 343.883 444.809 343.375 445.395C342.875 445.973 342.27 446.426 341.559 446.754C340.855 447.074 340.059 447.234 339.168 447.234C338.277 447.234 337.477 447.074 336.766 446.754C336.055 446.426 335.445 445.973 334.938 445.395C334.438 444.809 334.055 444.125 333.789 443.344C333.523 442.562 333.391 441.715 333.391 440.801ZM335.559 440.531V440.801C335.559 441.434 335.633 442.031 335.781 442.594C335.93 443.148 336.152 443.641 336.449 444.07C336.754 444.5 337.133 444.84 337.586 445.09C338.039 445.332 338.566 445.453 339.168 445.453C339.762 445.453 340.281 445.332 340.727 445.09C341.18 444.84 341.555 444.5 341.852 444.07C342.148 443.641 342.371 443.148 342.52 442.594C342.676 442.031 342.754 441.434 342.754 440.801V440.531C342.754 439.906 342.676 439.316 342.52 438.762C342.371 438.199 342.145 437.703 341.84 437.273C341.543 436.836 341.168 436.492 340.715 436.242C340.27 435.992 339.746 435.867 339.145 435.867C338.551 435.867 338.027 435.992 337.574 436.242C337.129 436.492 336.754 436.836 336.449 437.273C336.152 437.703 335.93 438.199 335.781 438.762C335.633 439.316 335.559 439.906 335.559 440.531ZM352.727 445.453C353.242 445.453 353.719 445.348 354.156 445.137C354.594 444.926 354.953 444.637 355.234 444.27C355.516 443.895 355.676 443.469 355.715 442.992H357.777C357.738 443.742 357.484 444.441 357.016 445.09C356.555 445.73 355.949 446.25 355.199 446.648C354.449 447.039 353.625 447.234 352.727 447.234C351.773 447.234 350.941 447.066 350.23 446.73C349.527 446.395 348.941 445.934 348.473 445.348C348.012 444.762 347.664 444.09 347.43 443.332C347.203 442.566 347.09 441.758 347.09 440.906V440.414C347.09 439.562 347.203 438.758 347.43 438C347.664 437.234 348.012 436.559 348.473 435.973C348.941 435.387 349.527 434.926 350.23 434.59C350.941 434.254 351.773 434.086 352.727 434.086C353.719 434.086 354.586 434.289 355.328 434.695C356.07 435.094 356.652 435.641 357.074 436.336C357.504 437.023 357.738 437.805 357.777 438.68H355.715C355.676 438.156 355.527 437.684 355.27 437.262C355.02 436.84 354.676 436.504 354.238 436.254C353.809 435.996 353.305 435.867 352.727 435.867C352.062 435.867 351.504 436 351.051 436.266C350.605 436.523 350.25 436.875 349.984 437.32C349.727 437.758 349.539 438.246 349.422 438.785C349.312 439.316 349.258 439.859 349.258 440.414V440.906C349.258 441.461 349.312 442.008 349.422 442.547C349.531 443.086 349.715 443.574 349.973 444.012C350.238 444.449 350.594 444.801 351.039 445.066C351.492 445.324 352.055 445.453 352.727 445.453ZM362.395 429V447H360.215V429H362.395ZM370.141 434.32L364.609 440.238L361.516 443.449L361.34 441.141L363.555 438.492L367.492 434.32H370.141ZM368.16 447L363.637 440.953L364.762 439.02L370.715 447H368.16ZM376.891 438.855V440.637H371.172V438.855H376.891ZM384.273 447.234C383.391 447.234 382.59 447.086 381.871 446.789C381.16 446.484 380.547 446.059 380.031 445.512C379.523 444.965 379.133 444.316 378.859 443.566C378.586 442.816 378.449 441.996 378.449 441.105V440.613C378.449 439.582 378.602 438.664 378.906 437.859C379.211 437.047 379.625 436.359 380.148 435.797C380.672 435.234 381.266 434.809 381.93 434.52C382.594 434.23 383.281 434.086 383.992 434.086C384.898 434.086 385.68 434.242 386.336 434.555C387 434.867 387.543 435.305 387.965 435.867C388.387 436.422 388.699 437.078 388.902 437.836C389.105 438.586 389.207 439.406 389.207 440.297V441.27H379.738V439.5H387.039V439.336C387.008 438.773 386.891 438.227 386.688 437.695C386.492 437.164 386.18 436.727 385.75 436.383C385.32 436.039 384.734 435.867 383.992 435.867C383.5 435.867 383.047 435.973 382.633 436.184C382.219 436.387 381.863 436.691 381.566 437.098C381.27 437.504 381.039 438 380.875 438.586C380.711 439.172 380.629 439.848 380.629 440.613V441.105C380.629 441.707 380.711 442.273 380.875 442.805C381.047 443.328 381.293 443.789 381.613 444.188C381.941 444.586 382.336 444.898 382.797 445.125C383.266 445.352 383.797 445.465 384.391 445.465C385.156 445.465 385.805 445.309 386.336 444.996C386.867 444.684 387.332 444.266 387.73 443.742L389.043 444.785C388.77 445.199 388.422 445.594 388 445.969C387.578 446.344 387.059 446.648 386.441 446.883C385.832 447.117 385.109 447.234 384.273 447.234ZM393.906 437.027V447H391.738V434.32H393.789L393.906 437.027ZM393.391 440.18L392.488 440.145C392.496 439.277 392.625 438.477 392.875 437.742C393.125 437 393.477 436.355 393.93 435.809C394.383 435.262 394.922 434.84 395.547 434.543C396.18 434.238 396.879 434.086 397.645 434.086C398.27 434.086 398.832 434.172 399.332 434.344C399.832 434.508 400.258 434.773 400.609 435.141C400.969 435.508 401.242 435.984 401.43 436.57C401.617 437.148 401.711 437.855 401.711 438.691V447H399.531V438.668C399.531 438.004 399.434 437.473 399.238 437.074C399.043 436.668 398.758 436.375 398.383 436.195C398.008 436.008 397.547 435.914 397 435.914C396.461 435.914 395.969 436.027 395.523 436.254C395.086 436.48 394.707 436.793 394.387 437.191C394.074 437.59 393.828 438.047 393.648 438.562C393.477 439.07 393.391 439.609 393.391 440.18ZM412.996 444.539V429H415.176V447H413.184L412.996 444.539ZM404.465 440.801V440.555C404.465 439.586 404.582 438.707 404.816 437.918C405.059 437.121 405.398 436.438 405.836 435.867C406.281 435.297 406.809 434.859 407.418 434.555C408.035 434.242 408.723 434.086 409.48 434.086C410.277 434.086 410.973 434.227 411.566 434.508C412.168 434.781 412.676 435.184 413.09 435.715C413.512 436.238 413.844 436.871 414.086 437.613C414.328 438.355 414.496 439.195 414.59 440.133V441.211C414.504 442.141 414.336 442.977 414.086 443.719C413.844 444.461 413.512 445.094 413.09 445.617C412.676 446.141 412.168 446.543 411.566 446.824C410.965 447.098 410.262 447.234 409.457 447.234C408.715 447.234 408.035 447.074 407.418 446.754C406.809 446.434 406.281 445.984 405.836 445.406C405.398 444.828 405.059 444.148 404.816 443.367C404.582 442.578 404.465 441.723 404.465 440.801ZM406.645 440.555V440.801C406.645 441.434 406.707 442.027 406.832 442.582C406.965 443.137 407.168 443.625 407.441 444.047C407.715 444.469 408.062 444.801 408.484 445.043C408.906 445.277 409.41 445.395 409.996 445.395C410.715 445.395 411.305 445.242 411.766 444.938C412.234 444.633 412.609 444.23 412.891 443.73C413.172 443.23 413.391 442.688 413.547 442.102V439.277C413.453 438.848 413.316 438.434 413.137 438.035C412.965 437.629 412.738 437.27 412.457 436.957C412.184 436.637 411.844 436.383 411.438 436.195C411.039 436.008 410.566 435.914 410.02 435.914C409.426 435.914 408.914 436.039 408.484 436.289C408.062 436.531 407.715 436.867 407.441 437.297C407.168 437.719 406.965 438.211 406.832 438.773C406.707 439.328 406.645 439.922 406.645 440.555Z" fill="white"/>
</svg>
