<svg width="1012" height="506" viewBox="0 0 1012 506" fill="none" xmlns="http://www.w3.org/2000/svg">
<rect x="65.5" y="101.5" width="168" height="78" stroke="white" stroke-opacity="0.5" stroke-width="3"/>
<path d="M71.375 114H77.1875V155.438L76.6875 162H71.375V114ZM100.031 144.812V145.469C100.031 147.927 99.7396 150.208 99.1562 152.312C98.5729 154.396 97.7188 156.208 96.5938 157.75C95.4688 159.292 94.0938 160.49 92.4688 161.344C90.8438 162.198 88.9792 162.625 86.875 162.625C84.7292 162.625 82.8438 162.26 81.2188 161.531C79.6146 160.781 78.2604 159.708 77.1562 158.312C76.0521 156.917 75.1667 155.229 74.5 153.25C73.8542 151.271 73.4062 149.042 73.1562 146.562V143.688C73.4062 141.188 73.8542 138.948 74.5 136.969C75.1667 134.99 76.0521 133.302 77.1562 131.906C78.2604 130.49 79.6146 129.417 81.2188 128.688C82.8229 127.938 84.6875 127.562 86.8125 127.562C88.9375 127.562 90.8229 127.979 92.4688 128.812C94.1146 129.625 95.4896 130.792 96.5938 132.312C97.7188 133.833 98.5729 135.656 99.1562 137.781C99.7396 139.885 100.031 142.229 100.031 144.812ZM94.2188 145.469V144.812C94.2188 143.125 94.0625 141.542 93.75 140.062C93.4375 138.562 92.9375 137.25 92.25 136.125C91.5625 134.979 90.6562 134.083 89.5312 133.438C88.4062 132.771 87.0208 132.438 85.375 132.438C83.9167 132.438 82.6458 132.688 81.5625 133.188C80.5 133.688 79.5938 134.365 78.8438 135.219C78.0938 136.052 77.4792 137.01 77 138.094C76.5417 139.156 76.1979 140.26 75.9688 141.406V148.938C76.3021 150.396 76.8438 151.802 77.5938 153.156C78.3646 154.49 79.3854 155.583 80.6562 156.438C81.9479 157.292 83.5417 157.719 85.4375 157.719C87 157.719 88.3333 157.406 89.4375 156.781C90.5625 156.135 91.4688 155.25 92.1562 154.125C92.8646 153 93.3854 151.698 93.7188 150.219C94.0521 148.74 94.2188 147.156 94.2188 145.469ZM113.625 114V162H107.812V114H113.625ZM121.375 145.469V144.75C121.375 142.312 121.729 140.052 122.438 137.969C123.146 135.865 124.167 134.042 125.5 132.5C126.833 130.938 128.448 129.729 130.344 128.875C132.24 128 134.365 127.562 136.719 127.562C139.094 127.562 141.229 128 143.125 128.875C145.042 129.729 146.667 130.938 148 132.5C149.354 134.042 150.385 135.865 151.094 137.969C151.802 140.052 152.156 142.312 152.156 144.75V145.469C152.156 147.906 151.802 150.167 151.094 152.25C150.385 154.333 149.354 156.156 148 157.719C146.667 159.26 145.052 160.469 143.156 161.344C141.281 162.198 139.156 162.625 136.781 162.625C134.406 162.625 132.271 162.198 130.375 161.344C128.479 160.469 126.854 159.26 125.5 157.719C124.167 156.156 123.146 154.333 122.438 152.25C121.729 150.167 121.375 147.906 121.375 145.469ZM127.156 144.75V145.469C127.156 147.156 127.354 148.75 127.75 150.25C128.146 151.729 128.74 153.042 129.531 154.188C130.344 155.333 131.354 156.24 132.562 156.906C133.771 157.552 135.177 157.875 136.781 157.875C138.365 157.875 139.75 157.552 140.938 156.906C142.146 156.24 143.146 155.333 143.938 154.188C144.729 153.042 145.323 151.729 145.719 150.25C146.135 148.75 146.344 147.156 146.344 145.469V144.75C146.344 143.083 146.135 141.51 145.719 140.031C145.323 138.531 144.719 137.208 143.906 136.062C143.115 134.896 142.115 133.979 140.906 133.312C139.719 132.646 138.323 132.312 136.719 132.312C135.135 132.312 133.74 132.646 132.531 133.312C131.344 133.979 130.344 134.896 129.531 136.062C128.74 137.208 128.146 138.531 127.75 140.031C127.354 141.51 127.156 143.083 127.156 144.75ZM172.938 157.875C174.312 157.875 175.583 157.594 176.75 157.031C177.917 156.469 178.875 155.698 179.625 154.719C180.375 153.719 180.802 152.583 180.906 151.312H186.406C186.302 153.312 185.625 155.177 184.375 156.906C183.146 158.615 181.531 160 179.531 161.062C177.531 162.104 175.333 162.625 172.938 162.625C170.396 162.625 168.177 162.177 166.281 161.281C164.406 160.385 162.844 159.156 161.594 157.594C160.365 156.031 159.438 154.24 158.812 152.219C158.208 150.177 157.906 148.021 157.906 145.75V144.438C157.906 142.167 158.208 140.021 158.812 138C159.438 135.958 160.365 134.156 161.594 132.594C162.844 131.031 164.406 129.802 166.281 128.906C168.177 128.01 170.396 127.562 172.938 127.562C175.583 127.562 177.896 128.104 179.875 129.188C181.854 130.25 183.406 131.708 184.531 133.562C185.677 135.396 186.302 137.479 186.406 139.812H180.906C180.802 138.417 180.406 137.156 179.719 136.031C179.052 134.906 178.135 134.01 176.969 133.344C175.823 132.656 174.479 132.312 172.938 132.312C171.167 132.312 169.677 132.667 168.469 133.375C167.281 134.062 166.333 135 165.625 136.188C164.938 137.354 164.438 138.656 164.125 140.094C163.833 141.51 163.688 142.958 163.688 144.438V145.75C163.688 147.229 163.833 148.688 164.125 150.125C164.417 151.562 164.906 152.865 165.594 154.031C166.302 155.198 167.25 156.135 168.438 156.844C169.646 157.531 171.146 157.875 172.938 157.875ZM198.719 114V162H192.906V114H198.719ZM219.375 128.188L204.625 143.969L196.375 152.531L195.906 146.375L201.812 139.312L212.312 128.188H219.375ZM214.094 162L202.031 145.875L205.031 140.719L220.906 162H214.094Z" fill="white" fill-opacity="0.5"/>
<rect x="266.5" y="101.5" width="168" height="78" stroke="white" stroke-opacity="0.5" stroke-width="3"/>
<path d="M272.375 114H278.188V155.438L277.688 162H272.375V114ZM301.031 144.812V145.469C301.031 147.927 300.74 150.208 300.156 152.312C299.573 154.396 298.719 156.208 297.594 157.75C296.469 159.292 295.094 160.49 293.469 161.344C291.844 162.198 289.979 162.625 287.875 162.625C285.729 162.625 283.844 162.26 282.219 161.531C280.615 160.781 279.26 159.708 278.156 158.312C277.052 156.917 276.167 155.229 275.5 153.25C274.854 151.271 274.406 149.042 274.156 146.562V143.688C274.406 141.188 274.854 138.948 275.5 136.969C276.167 134.99 277.052 133.302 278.156 131.906C279.26 130.49 280.615 129.417 282.219 128.688C283.823 127.938 285.688 127.562 287.812 127.562C289.938 127.562 291.823 127.979 293.469 128.812C295.115 129.625 296.49 130.792 297.594 132.312C298.719 133.833 299.573 135.656 300.156 137.781C300.74 139.885 301.031 142.229 301.031 144.812ZM295.219 145.469V144.812C295.219 143.125 295.062 141.542 294.75 140.062C294.438 138.562 293.938 137.25 293.25 136.125C292.562 134.979 291.656 134.083 290.531 133.438C289.406 132.771 288.021 132.438 286.375 132.438C284.917 132.438 283.646 132.688 282.562 133.188C281.5 133.688 280.594 134.365 279.844 135.219C279.094 136.052 278.479 137.01 278 138.094C277.542 139.156 277.198 140.26 276.969 141.406V148.938C277.302 150.396 277.844 151.802 278.594 153.156C279.365 154.49 280.385 155.583 281.656 156.438C282.948 157.292 284.542 157.719 286.438 157.719C288 157.719 289.333 157.406 290.438 156.781C291.562 156.135 292.469 155.25 293.156 154.125C293.865 153 294.385 151.698 294.719 150.219C295.052 148.74 295.219 147.156 295.219 145.469ZM314.625 114V162H308.812V114H314.625ZM322.375 145.469V144.75C322.375 142.312 322.729 140.052 323.438 137.969C324.146 135.865 325.167 134.042 326.5 132.5C327.833 130.938 329.448 129.729 331.344 128.875C333.24 128 335.365 127.562 337.719 127.562C340.094 127.562 342.229 128 344.125 128.875C346.042 129.729 347.667 130.938 349 132.5C350.354 134.042 351.385 135.865 352.094 137.969C352.802 140.052 353.156 142.312 353.156 144.75V145.469C353.156 147.906 352.802 150.167 352.094 152.25C351.385 154.333 350.354 156.156 349 157.719C347.667 159.26 346.052 160.469 344.156 161.344C342.281 162.198 340.156 162.625 337.781 162.625C335.406 162.625 333.271 162.198 331.375 161.344C329.479 160.469 327.854 159.26 326.5 157.719C325.167 156.156 324.146 154.333 323.438 152.25C322.729 150.167 322.375 147.906 322.375 145.469ZM328.156 144.75V145.469C328.156 147.156 328.354 148.75 328.75 150.25C329.146 151.729 329.74 153.042 330.531 154.188C331.344 155.333 332.354 156.24 333.562 156.906C334.771 157.552 336.177 157.875 337.781 157.875C339.365 157.875 340.75 157.552 341.938 156.906C343.146 156.24 344.146 155.333 344.938 154.188C345.729 153.042 346.323 151.729 346.719 150.25C347.135 148.75 347.344 147.156 347.344 145.469V144.75C347.344 143.083 347.135 141.51 346.719 140.031C346.323 138.531 345.719 137.208 344.906 136.062C344.115 134.896 343.115 133.979 341.906 133.312C340.719 132.646 339.323 132.312 337.719 132.312C336.135 132.312 334.74 132.646 333.531 133.312C332.344 133.979 331.344 134.896 330.531 136.062C329.74 137.208 329.146 138.531 328.75 140.031C328.354 141.51 328.156 143.083 328.156 144.75ZM373.938 157.875C375.312 157.875 376.583 157.594 377.75 157.031C378.917 156.469 379.875 155.698 380.625 154.719C381.375 153.719 381.802 152.583 381.906 151.312H387.406C387.302 153.312 386.625 155.177 385.375 156.906C384.146 158.615 382.531 160 380.531 161.062C378.531 162.104 376.333 162.625 373.938 162.625C371.396 162.625 369.177 162.177 367.281 161.281C365.406 160.385 363.844 159.156 362.594 157.594C361.365 156.031 360.438 154.24 359.812 152.219C359.208 150.177 358.906 148.021 358.906 145.75V144.438C358.906 142.167 359.208 140.021 359.812 138C360.438 135.958 361.365 134.156 362.594 132.594C363.844 131.031 365.406 129.802 367.281 128.906C369.177 128.01 371.396 127.562 373.938 127.562C376.583 127.562 378.896 128.104 380.875 129.188C382.854 130.25 384.406 131.708 385.531 133.562C386.677 135.396 387.302 137.479 387.406 139.812H381.906C381.802 138.417 381.406 137.156 380.719 136.031C380.052 134.906 379.135 134.01 377.969 133.344C376.823 132.656 375.479 132.312 373.938 132.312C372.167 132.312 370.677 132.667 369.469 133.375C368.281 134.062 367.333 135 366.625 136.188C365.938 137.354 365.438 138.656 365.125 140.094C364.833 141.51 364.688 142.958 364.688 144.438V145.75C364.688 147.229 364.833 148.688 365.125 150.125C365.417 151.562 365.906 152.865 366.594 154.031C367.302 155.198 368.25 156.135 369.438 156.844C370.646 157.531 372.146 157.875 373.938 157.875ZM399.719 114V162H393.906V114H399.719ZM420.375 128.188L405.625 143.969L397.375 152.531L396.906 146.375L402.812 139.312L413.312 128.188H420.375ZM415.094 162L403.031 145.875L406.031 140.719L421.906 162H415.094Z" fill="white" fill-opacity="0.5"/>
<rect x="476.5" y="101.5" width="168" height="78" stroke="white" stroke-opacity="0.5" stroke-width="3"/>
<path d="M482.375 114H488.188V155.438L487.688 162H482.375V114ZM511.031 144.812V145.469C511.031 147.927 510.74 150.208 510.156 152.312C509.573 154.396 508.719 156.208 507.594 157.75C506.469 159.292 505.094 160.49 503.469 161.344C501.844 162.198 499.979 162.625 497.875 162.625C495.729 162.625 493.844 162.26 492.219 161.531C490.615 160.781 489.26 159.708 488.156 158.312C487.052 156.917 486.167 155.229 485.5 153.25C484.854 151.271 484.406 149.042 484.156 146.562V143.688C484.406 141.188 484.854 138.948 485.5 136.969C486.167 134.99 487.052 133.302 488.156 131.906C489.26 130.49 490.615 129.417 492.219 128.688C493.823 127.938 495.688 127.562 497.812 127.562C499.938 127.562 501.823 127.979 503.469 128.812C505.115 129.625 506.49 130.792 507.594 132.312C508.719 133.833 509.573 135.656 510.156 137.781C510.74 139.885 511.031 142.229 511.031 144.812ZM505.219 145.469V144.812C505.219 143.125 505.062 141.542 504.75 140.062C504.438 138.562 503.938 137.25 503.25 136.125C502.562 134.979 501.656 134.083 500.531 133.438C499.406 132.771 498.021 132.438 496.375 132.438C494.917 132.438 493.646 132.688 492.562 133.188C491.5 133.688 490.594 134.365 489.844 135.219C489.094 136.052 488.479 137.01 488 138.094C487.542 139.156 487.198 140.26 486.969 141.406V148.938C487.302 150.396 487.844 151.802 488.594 153.156C489.365 154.49 490.385 155.583 491.656 156.438C492.948 157.292 494.542 157.719 496.438 157.719C498 157.719 499.333 157.406 500.438 156.781C501.562 156.135 502.469 155.25 503.156 154.125C503.865 153 504.385 151.698 504.719 150.219C505.052 148.74 505.219 147.156 505.219 145.469ZM524.625 114V162H518.812V114H524.625ZM532.375 145.469V144.75C532.375 142.312 532.729 140.052 533.438 137.969C534.146 135.865 535.167 134.042 536.5 132.5C537.833 130.938 539.448 129.729 541.344 128.875C543.24 128 545.365 127.562 547.719 127.562C550.094 127.562 552.229 128 554.125 128.875C556.042 129.729 557.667 130.938 559 132.5C560.354 134.042 561.385 135.865 562.094 137.969C562.802 140.052 563.156 142.312 563.156 144.75V145.469C563.156 147.906 562.802 150.167 562.094 152.25C561.385 154.333 560.354 156.156 559 157.719C557.667 159.26 556.052 160.469 554.156 161.344C552.281 162.198 550.156 162.625 547.781 162.625C545.406 162.625 543.271 162.198 541.375 161.344C539.479 160.469 537.854 159.26 536.5 157.719C535.167 156.156 534.146 154.333 533.438 152.25C532.729 150.167 532.375 147.906 532.375 145.469ZM538.156 144.75V145.469C538.156 147.156 538.354 148.75 538.75 150.25C539.146 151.729 539.74 153.042 540.531 154.188C541.344 155.333 542.354 156.24 543.562 156.906C544.771 157.552 546.177 157.875 547.781 157.875C549.365 157.875 550.75 157.552 551.938 156.906C553.146 156.24 554.146 155.333 554.938 154.188C555.729 153.042 556.323 151.729 556.719 150.25C557.135 148.75 557.344 147.156 557.344 145.469V144.75C557.344 143.083 557.135 141.51 556.719 140.031C556.323 138.531 555.719 137.208 554.906 136.062C554.115 134.896 553.115 133.979 551.906 133.312C550.719 132.646 549.323 132.312 547.719 132.312C546.135 132.312 544.74 132.646 543.531 133.312C542.344 133.979 541.344 134.896 540.531 136.062C539.74 137.208 539.146 138.531 538.75 140.031C538.354 141.51 538.156 143.083 538.156 144.75ZM583.938 157.875C585.312 157.875 586.583 157.594 587.75 157.031C588.917 156.469 589.875 155.698 590.625 154.719C591.375 153.719 591.802 152.583 591.906 151.312H597.406C597.302 153.312 596.625 155.177 595.375 156.906C594.146 158.615 592.531 160 590.531 161.062C588.531 162.104 586.333 162.625 583.938 162.625C581.396 162.625 579.177 162.177 577.281 161.281C575.406 160.385 573.844 159.156 572.594 157.594C571.365 156.031 570.438 154.24 569.812 152.219C569.208 150.177 568.906 148.021 568.906 145.75V144.438C568.906 142.167 569.208 140.021 569.812 138C570.438 135.958 571.365 134.156 572.594 132.594C573.844 131.031 575.406 129.802 577.281 128.906C579.177 128.01 581.396 127.562 583.938 127.562C586.583 127.562 588.896 128.104 590.875 129.188C592.854 130.25 594.406 131.708 595.531 133.562C596.677 135.396 597.302 137.479 597.406 139.812H591.906C591.802 138.417 591.406 137.156 590.719 136.031C590.052 134.906 589.135 134.01 587.969 133.344C586.823 132.656 585.479 132.312 583.938 132.312C582.167 132.312 580.677 132.667 579.469 133.375C578.281 134.062 577.333 135 576.625 136.188C575.938 137.354 575.438 138.656 575.125 140.094C574.833 141.51 574.688 142.958 574.688 144.438V145.75C574.688 147.229 574.833 148.688 575.125 150.125C575.417 151.562 575.906 152.865 576.594 154.031C577.302 155.198 578.25 156.135 579.438 156.844C580.646 157.531 582.146 157.875 583.938 157.875ZM609.719 114V162H603.906V114H609.719ZM630.375 128.188L615.625 143.969L607.375 152.531L606.906 146.375L612.812 139.312L623.312 128.188H630.375ZM625.094 162L613.031 145.875L616.031 140.719L631.906 162H625.094Z" fill="white" fill-opacity="0.5"/>
<path d="M164.939 312.189C164.354 312.775 164.354 313.725 164.939 314.311L174.485 323.857C175.071 324.442 176.021 324.442 176.607 323.857C177.192 323.271 177.192 322.321 176.607 321.735L168.121 313.25L176.607 304.765C177.192 304.179 177.192 303.229 176.607 302.643C176.021 302.058 175.071 302.058 174.485 302.643L164.939 312.189ZM596.5 311.75L166 311.75L166 314.75L596.5 314.75L596.5 311.75Z" fill="white"/>
<path d="M226.711 270H229.98V293.309L229.699 297H226.711V270ZM242.83 287.332V287.701C242.83 289.084 242.666 290.367 242.338 291.551C242.01 292.723 241.529 293.742 240.896 294.609C240.264 295.477 239.49 296.15 238.576 296.631C237.662 297.111 236.613 297.352 235.43 297.352C234.223 297.352 233.162 297.146 232.248 296.736C231.346 296.314 230.584 295.711 229.963 294.926C229.342 294.141 228.844 293.191 228.469 292.078C228.105 290.965 227.854 289.711 227.713 288.316V286.699C227.854 285.293 228.105 284.033 228.469 282.92C228.844 281.807 229.342 280.857 229.963 280.072C230.584 279.275 231.346 278.672 232.248 278.262C233.15 277.84 234.199 277.629 235.395 277.629C236.59 277.629 237.65 277.863 238.576 278.332C239.502 278.789 240.275 279.445 240.896 280.301C241.529 281.156 242.01 282.182 242.338 283.377C242.666 284.561 242.83 285.879 242.83 287.332ZM239.561 287.701V287.332C239.561 286.383 239.473 285.492 239.297 284.66C239.121 283.816 238.84 283.078 238.453 282.445C238.066 281.801 237.557 281.297 236.924 280.934C236.291 280.559 235.512 280.371 234.586 280.371C233.766 280.371 233.051 280.512 232.441 280.793C231.844 281.074 231.334 281.455 230.912 281.936C230.49 282.404 230.145 282.943 229.875 283.553C229.617 284.15 229.424 284.771 229.295 285.416V289.652C229.482 290.473 229.787 291.264 230.209 292.025C230.643 292.775 231.217 293.391 231.932 293.871C232.658 294.352 233.555 294.592 234.621 294.592C235.5 294.592 236.25 294.416 236.871 294.064C237.504 293.701 238.014 293.203 238.4 292.57C238.799 291.938 239.092 291.205 239.279 290.373C239.467 289.541 239.561 288.65 239.561 287.701ZM250.477 270V297H247.207V270H250.477ZM254.836 287.701V287.297C254.836 285.926 255.035 284.654 255.434 283.482C255.832 282.299 256.406 281.273 257.156 280.406C257.906 279.527 258.814 278.848 259.881 278.367C260.947 277.875 262.143 277.629 263.467 277.629C264.803 277.629 266.004 277.875 267.07 278.367C268.148 278.848 269.062 279.527 269.812 280.406C270.574 281.273 271.154 282.299 271.553 283.482C271.951 284.654 272.15 285.926 272.15 287.297V287.701C272.15 289.072 271.951 290.344 271.553 291.516C271.154 292.688 270.574 293.713 269.812 294.592C269.062 295.459 268.154 296.139 267.088 296.631C266.033 297.111 264.838 297.352 263.502 297.352C262.166 297.352 260.965 297.111 259.898 296.631C258.832 296.139 257.918 295.459 257.156 294.592C256.406 293.713 255.832 292.688 255.434 291.516C255.035 290.344 254.836 289.072 254.836 287.701ZM258.088 287.297V287.701C258.088 288.65 258.199 289.547 258.422 290.391C258.645 291.223 258.979 291.961 259.424 292.605C259.881 293.25 260.449 293.76 261.129 294.135C261.809 294.498 262.6 294.68 263.502 294.68C264.393 294.68 265.172 294.498 265.84 294.135C266.52 293.76 267.082 293.25 267.527 292.605C267.973 291.961 268.307 291.223 268.529 290.391C268.764 289.547 268.881 288.65 268.881 287.701V287.297C268.881 286.359 268.764 285.475 268.529 284.643C268.307 283.799 267.967 283.055 267.51 282.41C267.064 281.754 266.502 281.238 265.822 280.863C265.154 280.488 264.369 280.301 263.467 280.301C262.576 280.301 261.791 280.488 261.111 280.863C260.443 281.238 259.881 281.754 259.424 282.41C258.979 283.055 258.645 283.799 258.422 284.643C258.199 285.475 258.088 286.359 258.088 287.297ZM283.84 294.68C284.613 294.68 285.328 294.521 285.984 294.205C286.641 293.889 287.18 293.455 287.602 292.904C288.023 292.342 288.264 291.703 288.322 290.988H291.416C291.357 292.113 290.977 293.162 290.273 294.135C289.582 295.096 288.674 295.875 287.549 296.473C286.424 297.059 285.188 297.352 283.84 297.352C282.41 297.352 281.162 297.1 280.096 296.596C279.041 296.092 278.162 295.4 277.459 294.521C276.768 293.643 276.246 292.635 275.895 291.498C275.555 290.35 275.385 289.137 275.385 287.859V287.121C275.385 285.844 275.555 284.637 275.895 283.5C276.246 282.352 276.768 281.338 277.459 280.459C278.162 279.58 279.041 278.889 280.096 278.385C281.162 277.881 282.41 277.629 283.84 277.629C285.328 277.629 286.629 277.934 287.742 278.543C288.855 279.141 289.729 279.961 290.361 281.004C291.006 282.035 291.357 283.207 291.416 284.52H288.322C288.264 283.734 288.041 283.025 287.654 282.393C287.279 281.76 286.764 281.256 286.107 280.881C285.463 280.494 284.707 280.301 283.84 280.301C282.844 280.301 282.006 280.5 281.326 280.898C280.658 281.285 280.125 281.812 279.727 282.48C279.34 283.137 279.059 283.869 278.883 284.678C278.719 285.475 278.637 286.289 278.637 287.121V287.859C278.637 288.691 278.719 289.512 278.883 290.32C279.047 291.129 279.322 291.861 279.709 292.518C280.107 293.174 280.641 293.701 281.309 294.1C281.988 294.486 282.832 294.68 283.84 294.68ZM298.342 270V297H295.072V270H298.342ZM309.961 277.98L301.664 286.857L297.023 291.674L296.76 288.211L300.082 284.238L305.988 277.98H309.961ZM306.99 297L300.205 287.93L301.893 285.029L310.822 297H306.99ZM327.1 297H323.848V275.977C323.848 274.605 324.1 273.451 324.604 272.514C325.119 271.564 325.857 270.85 326.818 270.369C327.791 269.877 328.969 269.631 330.352 269.631C330.867 269.631 331.512 269.684 332.285 269.789C333.07 269.895 333.902 270.029 334.781 270.193C335.672 270.357 336.539 270.527 337.383 270.703L335.871 273.059C334.758 272.848 333.756 272.689 332.865 272.584C331.975 272.467 331.219 272.408 330.598 272.408C329.836 272.408 329.191 272.549 328.664 272.83C328.148 273.1 327.756 273.498 327.486 274.025C327.229 274.553 327.1 275.203 327.1 275.977V297ZM334.131 297V270.703H337.383V297H334.131ZM331.143 277.98V280.477H320.842V277.98H331.143ZM341.848 287.701V287.297C341.848 285.926 342.047 284.654 342.445 283.482C342.844 282.299 343.418 281.273 344.168 280.406C344.918 279.527 345.826 278.848 346.893 278.367C347.959 277.875 349.154 277.629 350.479 277.629C351.814 277.629 353.016 277.875 354.082 278.367C355.16 278.848 356.074 279.527 356.824 280.406C357.586 281.273 358.166 282.299 358.564 283.482C358.963 284.654 359.162 285.926 359.162 287.297V287.701C359.162 289.072 358.963 290.344 358.564 291.516C358.166 292.688 357.586 293.713 356.824 294.592C356.074 295.459 355.166 296.139 354.1 296.631C353.045 297.111 351.85 297.352 350.514 297.352C349.178 297.352 347.977 297.111 346.91 296.631C345.844 296.139 344.93 295.459 344.168 294.592C343.418 293.713 342.844 292.688 342.445 291.516C342.047 290.344 341.848 289.072 341.848 287.701ZM345.1 287.297V287.701C345.1 288.65 345.211 289.547 345.434 290.391C345.656 291.223 345.99 291.961 346.436 292.605C346.893 293.25 347.461 293.76 348.141 294.135C348.82 294.498 349.611 294.68 350.514 294.68C351.404 294.68 352.184 294.498 352.852 294.135C353.531 293.76 354.094 293.25 354.539 292.605C354.984 291.961 355.318 291.223 355.541 290.391C355.775 289.547 355.893 288.65 355.893 287.701V287.297C355.893 286.359 355.775 285.475 355.541 284.643C355.318 283.799 354.979 283.055 354.521 282.41C354.076 281.754 353.514 281.238 352.834 280.863C352.166 280.488 351.381 280.301 350.479 280.301C349.588 280.301 348.803 280.488 348.123 280.863C347.455 281.238 346.893 281.754 346.436 282.41C345.99 283.055 345.656 283.799 345.434 284.643C345.211 285.475 345.1 286.359 345.1 287.297ZM368.057 293.625L372.943 277.98H375.088L374.666 281.092L369.691 297H367.6L368.057 293.625ZM364.77 277.98L368.936 293.801L369.234 297H367.037L361.518 277.98H364.77ZM379.764 293.678L383.736 277.98H386.971L381.451 297H379.271L379.764 293.678ZM375.562 277.98L380.344 293.361L380.889 297H378.814L373.699 281.057L373.277 277.98H375.562ZM411.229 293.309V270H414.498V297H411.51L411.229 293.309ZM398.432 287.701V287.332C398.432 285.879 398.607 284.561 398.959 283.377C399.322 282.182 399.832 281.156 400.488 280.301C401.156 279.445 401.947 278.789 402.861 278.332C403.787 277.863 404.818 277.629 405.955 277.629C407.15 277.629 408.193 277.84 409.084 278.262C409.986 278.672 410.748 279.275 411.369 280.072C412.002 280.857 412.5 281.807 412.863 282.92C413.227 284.033 413.479 285.293 413.619 286.699V288.316C413.49 289.711 413.238 290.965 412.863 292.078C412.5 293.191 412.002 294.141 411.369 294.926C410.748 295.711 409.986 296.314 409.084 296.736C408.182 297.146 407.127 297.352 405.92 297.352C404.807 297.352 403.787 297.111 402.861 296.631C401.947 296.15 401.156 295.477 400.488 294.609C399.832 293.742 399.322 292.723 398.959 291.551C398.607 290.367 398.432 289.084 398.432 287.701ZM401.701 287.332V287.701C401.701 288.65 401.795 289.541 401.982 290.373C402.182 291.205 402.486 291.938 402.896 292.57C403.307 293.203 403.828 293.701 404.461 294.064C405.094 294.416 405.85 294.592 406.729 294.592C407.807 294.592 408.691 294.363 409.383 293.906C410.086 293.449 410.648 292.846 411.07 292.096C411.492 291.346 411.82 290.531 412.055 289.652V285.416C411.914 284.771 411.709 284.15 411.439 283.553C411.182 282.943 410.842 282.404 410.42 281.936C410.01 281.455 409.5 281.074 408.891 280.793C408.293 280.512 407.584 280.371 406.764 280.371C405.873 280.371 405.105 280.559 404.461 280.934C403.828 281.297 403.307 281.801 402.896 282.445C402.486 283.078 402.182 283.816 401.982 284.66C401.795 285.492 401.701 286.383 401.701 287.332ZM423.094 277.98V297H419.824V277.98H423.094ZM419.578 272.936C419.578 272.408 419.736 271.963 420.053 271.6C420.381 271.236 420.861 271.055 421.494 271.055C422.115 271.055 422.59 271.236 422.918 271.6C423.258 271.963 423.428 272.408 423.428 272.936C423.428 273.439 423.258 273.873 422.918 274.236C422.59 274.588 422.115 274.764 421.494 274.764C420.861 274.764 420.381 274.588 420.053 274.236C419.736 273.873 419.578 273.439 419.578 272.936ZM431.566 280.969V297H428.314V277.98H431.479L431.566 280.969ZM437.508 277.875L437.49 280.898C437.221 280.84 436.963 280.805 436.717 280.793C436.482 280.77 436.213 280.758 435.908 280.758C435.158 280.758 434.496 280.875 433.922 281.109C433.348 281.344 432.861 281.672 432.463 282.094C432.064 282.516 431.748 283.02 431.514 283.605C431.291 284.18 431.145 284.812 431.074 285.504L430.16 286.031C430.16 284.883 430.271 283.805 430.494 282.797C430.729 281.789 431.086 280.898 431.566 280.125C432.047 279.34 432.656 278.73 433.395 278.297C434.145 277.852 435.035 277.629 436.066 277.629C436.301 277.629 436.57 277.658 436.875 277.717C437.18 277.764 437.391 277.816 437.508 277.875ZM448.055 297.352C446.73 297.352 445.529 297.129 444.451 296.684C443.385 296.227 442.465 295.588 441.691 294.768C440.93 293.947 440.344 292.975 439.934 291.85C439.523 290.725 439.318 289.494 439.318 288.158V287.42C439.318 285.873 439.547 284.496 440.004 283.289C440.461 282.07 441.082 281.039 441.867 280.195C442.652 279.352 443.543 278.713 444.539 278.279C445.535 277.846 446.566 277.629 447.633 277.629C448.992 277.629 450.164 277.863 451.148 278.332C452.145 278.801 452.959 279.457 453.592 280.301C454.225 281.133 454.693 282.117 454.998 283.254C455.303 284.379 455.455 285.609 455.455 286.945V288.404H441.252V285.75H452.203V285.504C452.156 284.66 451.98 283.84 451.676 283.043C451.383 282.246 450.914 281.59 450.27 281.074C449.625 280.559 448.746 280.301 447.633 280.301C446.895 280.301 446.215 280.459 445.594 280.775C444.973 281.08 444.439 281.537 443.994 282.146C443.549 282.756 443.203 283.5 442.957 284.379C442.711 285.258 442.588 286.271 442.588 287.42V288.158C442.588 289.061 442.711 289.91 442.957 290.707C443.215 291.492 443.584 292.184 444.064 292.781C444.557 293.379 445.148 293.848 445.84 294.188C446.543 294.527 447.34 294.697 448.23 294.697C449.379 294.697 450.352 294.463 451.148 293.994C451.945 293.525 452.643 292.898 453.24 292.113L455.209 293.678C454.799 294.299 454.277 294.891 453.645 295.453C453.012 296.016 452.232 296.473 451.307 296.824C450.393 297.176 449.309 297.352 448.055 297.352ZM466.863 294.68C467.637 294.68 468.352 294.521 469.008 294.205C469.664 293.889 470.203 293.455 470.625 292.904C471.047 292.342 471.287 291.703 471.346 290.988H474.439C474.381 292.113 474 293.162 473.297 294.135C472.605 295.096 471.697 295.875 470.572 296.473C469.447 297.059 468.211 297.352 466.863 297.352C465.434 297.352 464.186 297.1 463.119 296.596C462.064 296.092 461.186 295.4 460.482 294.521C459.791 293.643 459.27 292.635 458.918 291.498C458.578 290.35 458.408 289.137 458.408 287.859V287.121C458.408 285.844 458.578 284.637 458.918 283.5C459.27 282.352 459.791 281.338 460.482 280.459C461.186 279.58 462.064 278.889 463.119 278.385C464.186 277.881 465.434 277.629 466.863 277.629C468.352 277.629 469.652 277.934 470.766 278.543C471.879 279.141 472.752 279.961 473.385 281.004C474.029 282.035 474.381 283.207 474.439 284.52H471.346C471.287 283.734 471.064 283.025 470.678 282.393C470.303 281.76 469.787 281.256 469.131 280.881C468.486 280.494 467.73 280.301 466.863 280.301C465.867 280.301 465.029 280.5 464.35 280.898C463.682 281.285 463.148 281.812 462.75 282.48C462.363 283.137 462.082 283.869 461.906 284.678C461.742 285.475 461.66 286.289 461.66 287.121V287.859C461.66 288.691 461.742 289.512 461.906 290.32C462.07 291.129 462.346 291.861 462.732 292.518C463.131 293.174 463.664 293.701 464.332 294.1C465.012 294.486 465.855 294.68 466.863 294.68ZM486.059 277.98V280.477H475.775V277.98H486.059ZM479.256 273.357H482.508V292.289C482.508 292.934 482.607 293.42 482.807 293.748C483.006 294.076 483.264 294.293 483.58 294.398C483.896 294.504 484.236 294.557 484.6 294.557C484.869 294.557 485.15 294.533 485.443 294.486C485.748 294.428 485.977 294.381 486.129 294.346L486.146 297C485.889 297.082 485.549 297.158 485.127 297.229C484.717 297.311 484.219 297.352 483.633 297.352C482.836 297.352 482.104 297.193 481.436 296.877C480.768 296.561 480.234 296.033 479.836 295.295C479.449 294.545 479.256 293.537 479.256 292.271V273.357ZM493.406 277.98V297H490.137V277.98H493.406ZM489.891 272.936C489.891 272.408 490.049 271.963 490.365 271.6C490.693 271.236 491.174 271.055 491.807 271.055C492.428 271.055 492.902 271.236 493.23 271.6C493.57 271.963 493.74 272.408 493.74 272.936C493.74 273.439 493.57 273.873 493.23 274.236C492.902 274.588 492.428 274.764 491.807 274.764C491.174 274.764 490.693 274.588 490.365 274.236C490.049 273.873 489.891 273.439 489.891 272.936ZM497.766 287.701V287.297C497.766 285.926 497.965 284.654 498.363 283.482C498.762 282.299 499.336 281.273 500.086 280.406C500.836 279.527 501.744 278.848 502.811 278.367C503.877 277.875 505.072 277.629 506.396 277.629C507.732 277.629 508.934 277.875 510 278.367C511.078 278.848 511.992 279.527 512.742 280.406C513.504 281.273 514.084 282.299 514.482 283.482C514.881 284.654 515.08 285.926 515.08 287.297V287.701C515.08 289.072 514.881 290.344 514.482 291.516C514.084 292.688 513.504 293.713 512.742 294.592C511.992 295.459 511.084 296.139 510.018 296.631C508.963 297.111 507.768 297.352 506.432 297.352C505.096 297.352 503.895 297.111 502.828 296.631C501.762 296.139 500.848 295.459 500.086 294.592C499.336 293.713 498.762 292.688 498.363 291.516C497.965 290.344 497.766 289.072 497.766 287.701ZM501.018 287.297V287.701C501.018 288.65 501.129 289.547 501.352 290.391C501.574 291.223 501.908 291.961 502.354 292.605C502.811 293.25 503.379 293.76 504.059 294.135C504.738 294.498 505.529 294.68 506.432 294.68C507.322 294.68 508.102 294.498 508.77 294.135C509.449 293.76 510.012 293.25 510.457 292.605C510.902 291.961 511.236 291.223 511.459 290.391C511.693 289.547 511.811 288.65 511.811 287.701V287.297C511.811 286.359 511.693 285.475 511.459 284.643C511.236 283.799 510.896 283.055 510.439 282.41C509.994 281.754 509.432 281.238 508.752 280.863C508.084 280.488 507.299 280.301 506.396 280.301C505.506 280.301 504.721 280.488 504.041 280.863C503.373 281.238 502.811 281.754 502.354 282.41C501.908 283.055 501.574 283.799 501.352 284.643C501.129 285.475 501.018 286.359 501.018 287.297ZM522.41 282.041V297H519.158V277.98H522.234L522.41 282.041ZM521.637 286.77L520.283 286.717C520.295 285.416 520.488 284.215 520.863 283.113C521.238 282 521.766 281.033 522.445 280.213C523.125 279.393 523.934 278.76 524.871 278.314C525.82 277.857 526.869 277.629 528.018 277.629C528.955 277.629 529.799 277.758 530.549 278.016C531.299 278.262 531.938 278.66 532.465 279.211C533.004 279.762 533.414 280.477 533.695 281.355C533.977 282.223 534.117 283.283 534.117 284.537V297H530.848V284.502C530.848 283.506 530.701 282.709 530.408 282.111C530.115 281.502 529.688 281.062 529.125 280.793C528.562 280.512 527.871 280.371 527.051 280.371C526.242 280.371 525.504 280.541 524.836 280.881C524.18 281.221 523.611 281.689 523.131 282.287C522.662 282.885 522.293 283.57 522.023 284.344C521.766 285.105 521.637 285.914 521.637 286.77Z" fill="white"/>
<path d="M744.704 52.504L735.776 51.544C735.776 58.936 734.528 67.576 732.704 75.256C730.112 86.968 722.432 112.6 711.488 127.288L719.36 130.36C730.208 112.888 737.024 88.984 740.288 75.448C741.632 69.496 742.88 61.624 743.552 58.168C743.936 56.344 744.32 54.232 744.704 52.504ZM777.728 63.544L770.72 66.712C777.44 74.68 785.024 91.384 787.808 101.176L795.296 97.624C792.032 88.792 783.68 71.32 777.728 63.544ZM710.144 73.528L710.912 81.88C713.408 81.496 717.344 81.016 719.552 80.728C725.408 80.152 743.456 77.944 749.888 77.944C756.032 77.944 760.064 79.576 760.064 88.408C760.064 98.776 758.528 111.256 755.456 117.784C753.536 121.912 750.656 122.68 747.104 122.68C744.416 122.68 739.328 122.008 735.296 120.76L736.64 128.728C739.616 129.496 744.224 130.168 747.872 130.168C754.112 130.168 758.912 128.536 761.888 122.104C765.92 114.136 767.456 98.872 767.456 87.448C767.456 74.488 760.448 71.224 751.904 71.224C745.376 71.224 725.888 73.336 718.688 73.528C715.616 73.624 713.12 73.72 710.144 73.528ZM778.784 49.624L773.6 51.832C776.288 55.48 779.552 61.24 781.472 65.176L786.656 62.872C784.64 58.936 781.184 53.08 778.784 49.624ZM789.344 45.784L784.256 47.992C787.04 51.544 790.208 57.016 792.224 61.24L797.504 58.936C795.584 55.384 791.936 49.336 789.344 45.784ZM764.192 163.968H755.36C755.552 164.832 755.84 167.52 756.032 170.112C756.32 175.392 756.416 194.496 756.416 198.72L763.712 202.464C763.616 194.784 763.424 176.256 763.712 170.016C763.712 168.864 764 165.12 764.192 163.968ZM713.12 177.408L713.312 184.8C727.808 183.744 748.352 183.072 764.864 183.072C778.976 183.072 787.616 183.264 792.992 183.552L793.088 176.448C788.576 176.352 776.672 176.352 764.96 176.352C750.176 176.352 726.176 177.216 713.12 177.408ZM763.52 205.248L758.24 202.56C759.776 212.832 755.936 217.824 749.984 217.824C744.704 217.824 740.192 214.368 740.192 208.32C740.192 202.08 744.896 198.144 749.984 198.144C755.168 198.144 759.392 201.792 759.392 210.432C759.392 226.272 749.216 234.816 731.744 238.944L738.176 245.184C760.448 238.56 766.784 224.16 766.784 211.104C766.784 200.064 761.12 191.808 749.984 191.808C740.864 191.808 732.992 198.912 732.992 208.416C732.992 218.88 740.768 224.544 748.832 224.544C757.568 224.544 763.52 218.112 763.52 205.248ZM724.736 286.664V294.536C732.32 295.112 740.576 295.592 750.176 295.592C759.008 295.592 769.568 294.92 776.096 294.44V286.568C769.088 287.24 759.392 287.912 750.176 287.912C740.576 287.912 731.648 287.528 724.736 286.664ZM728.672 325.352L720.8 324.68C719.936 328.52 718.88 333.032 718.88 338.024C718.88 350.024 730.112 356.456 749.696 356.456C763.328 356.456 775.52 355.016 782.432 353.096L782.336 344.936C775.04 347.24 762.752 348.68 749.504 348.68C734.048 348.68 726.656 343.688 726.656 336.296C726.656 332.744 727.424 329.192 728.672 325.352ZM778.784 276.008L773.6 278.216C776.192 281.768 779.456 287.624 781.376 291.56L786.656 289.256C784.64 285.32 781.184 279.464 778.784 276.008ZM789.344 272.168L784.256 274.376C786.944 277.928 790.112 283.4 792.224 287.624L797.408 285.224C795.584 281.672 791.84 275.72 789.344 272.168ZM725.408 399.088L716.096 398.896C716.672 401.104 716.672 405.232 716.672 407.44C716.672 413.008 716.864 424.72 717.728 432.976C720.416 457.84 729.056 466.864 738.176 466.864C744.704 466.864 750.464 461.296 756.32 445.072L750.272 438.256C747.776 447.856 743.264 457.744 738.368 457.744C731.456 457.744 726.848 447.088 725.216 431.056C724.544 423.184 724.448 414.352 724.544 408.4C724.64 405.904 724.928 401.296 725.408 399.088ZM775.328 401.68L767.936 404.272C777.056 415.504 782.912 435.28 784.544 452.56L792.32 449.488C790.88 433.264 783.968 412.816 775.328 401.68Z" fill="white" fill-opacity="0.5"/>
<path d="M507.641 338H509.82V353.539L509.633 356H507.641V338ZM518.387 349.555V349.801C518.387 350.723 518.277 351.578 518.059 352.367C517.84 353.148 517.52 353.828 517.098 354.406C516.676 354.984 516.16 355.434 515.551 355.754C514.941 356.074 514.242 356.234 513.453 356.234C512.648 356.234 511.941 356.098 511.332 355.824C510.73 355.543 510.223 355.141 509.809 354.617C509.395 354.094 509.062 353.461 508.812 352.719C508.57 351.977 508.402 351.141 508.309 350.211V349.133C508.402 348.195 508.57 347.355 508.812 346.613C509.062 345.871 509.395 345.238 509.809 344.715C510.223 344.184 510.73 343.781 511.332 343.508C511.934 343.227 512.633 343.086 513.43 343.086C514.227 343.086 514.934 343.242 515.551 343.555C516.168 343.859 516.684 344.297 517.098 344.867C517.52 345.438 517.84 346.121 518.059 346.918C518.277 347.707 518.387 348.586 518.387 349.555ZM516.207 349.801V349.555C516.207 348.922 516.148 348.328 516.031 347.773C515.914 347.211 515.727 346.719 515.469 346.297C515.211 345.867 514.871 345.531 514.449 345.289C514.027 345.039 513.508 344.914 512.891 344.914C512.344 344.914 511.867 345.008 511.461 345.195C511.062 345.383 510.723 345.637 510.441 345.957C510.16 346.27 509.93 346.629 509.75 347.035C509.578 347.434 509.449 347.848 509.363 348.277V351.102C509.488 351.648 509.691 352.176 509.973 352.684C510.262 353.184 510.645 353.594 511.121 353.914C511.605 354.234 512.203 354.395 512.914 354.395C513.5 354.395 514 354.277 514.414 354.043C514.836 353.801 515.176 353.469 515.434 353.047C515.699 352.625 515.895 352.137 516.02 351.582C516.145 351.027 516.207 350.434 516.207 349.801ZM523.484 338V356H521.305V338H523.484ZM526.391 349.801V349.531C526.391 348.617 526.523 347.77 526.789 346.988C527.055 346.199 527.438 345.516 527.938 344.938C528.438 344.352 529.043 343.898 529.754 343.578C530.465 343.25 531.262 343.086 532.145 343.086C533.035 343.086 533.836 343.25 534.547 343.578C535.266 343.898 535.875 344.352 536.375 344.938C536.883 345.516 537.27 346.199 537.535 346.988C537.801 347.77 537.934 348.617 537.934 349.531V349.801C537.934 350.715 537.801 351.562 537.535 352.344C537.27 353.125 536.883 353.809 536.375 354.395C535.875 354.973 535.27 355.426 534.559 355.754C533.855 356.074 533.059 356.234 532.168 356.234C531.277 356.234 530.477 356.074 529.766 355.754C529.055 355.426 528.445 354.973 527.938 354.395C527.438 353.809 527.055 353.125 526.789 352.344C526.523 351.562 526.391 350.715 526.391 349.801ZM528.559 349.531V349.801C528.559 350.434 528.633 351.031 528.781 351.594C528.93 352.148 529.152 352.641 529.449 353.07C529.754 353.5 530.133 353.84 530.586 354.09C531.039 354.332 531.566 354.453 532.168 354.453C532.762 354.453 533.281 354.332 533.727 354.09C534.18 353.84 534.555 353.5 534.852 353.07C535.148 352.641 535.371 352.148 535.52 351.594C535.676 351.031 535.754 350.434 535.754 349.801V349.531C535.754 348.906 535.676 348.316 535.52 347.762C535.371 347.199 535.145 346.703 534.84 346.273C534.543 345.836 534.168 345.492 533.715 345.242C533.27 344.992 532.746 344.867 532.145 344.867C531.551 344.867 531.027 344.992 530.574 345.242C530.129 345.492 529.754 345.836 529.449 346.273C529.152 346.703 528.93 347.199 528.781 347.762C528.633 348.316 528.559 348.906 528.559 349.531ZM545.727 354.453C546.242 354.453 546.719 354.348 547.156 354.137C547.594 353.926 547.953 353.637 548.234 353.27C548.516 352.895 548.676 352.469 548.715 351.992H550.777C550.738 352.742 550.484 353.441 550.016 354.09C549.555 354.73 548.949 355.25 548.199 355.648C547.449 356.039 546.625 356.234 545.727 356.234C544.773 356.234 543.941 356.066 543.23 355.73C542.527 355.395 541.941 354.934 541.473 354.348C541.012 353.762 540.664 353.09 540.43 352.332C540.203 351.566 540.09 350.758 540.09 349.906V349.414C540.09 348.562 540.203 347.758 540.43 347C540.664 346.234 541.012 345.559 541.473 344.973C541.941 344.387 542.527 343.926 543.23 343.59C543.941 343.254 544.773 343.086 545.727 343.086C546.719 343.086 547.586 343.289 548.328 343.695C549.07 344.094 549.652 344.641 550.074 345.336C550.504 346.023 550.738 346.805 550.777 347.68H548.715C548.676 347.156 548.527 346.684 548.27 346.262C548.02 345.84 547.676 345.504 547.238 345.254C546.809 344.996 546.305 344.867 545.727 344.867C545.062 344.867 544.504 345 544.051 345.266C543.605 345.523 543.25 345.875 542.984 346.32C542.727 346.758 542.539 347.246 542.422 347.785C542.312 348.316 542.258 348.859 542.258 349.414V349.906C542.258 350.461 542.312 351.008 542.422 351.547C542.531 352.086 542.715 352.574 542.973 353.012C543.238 353.449 543.594 353.801 544.039 354.066C544.492 354.324 545.055 354.453 545.727 354.453ZM555.395 338V356H553.215V338H555.395ZM563.141 343.32L557.609 349.238L554.516 352.449L554.34 350.141L556.555 347.492L560.492 343.32H563.141ZM561.16 356L556.637 349.953L557.762 348.02L563.715 356H561.16ZM569.891 347.855V349.637H564.172V347.855H569.891ZM579.395 352.637C579.395 352.324 579.324 352.035 579.184 351.77C579.051 351.496 578.773 351.25 578.352 351.031C577.938 350.805 577.312 350.609 576.477 350.445C575.773 350.297 575.137 350.121 574.566 349.918C574.004 349.715 573.523 349.469 573.125 349.18C572.734 348.891 572.434 348.551 572.223 348.16C572.012 347.77 571.906 347.312 571.906 346.789C571.906 346.289 572.016 345.816 572.234 345.371C572.461 344.926 572.777 344.531 573.184 344.188C573.598 343.844 574.094 343.574 574.672 343.379C575.25 343.184 575.895 343.086 576.605 343.086C577.621 343.086 578.488 343.266 579.207 343.625C579.926 343.984 580.477 344.465 580.859 345.066C581.242 345.66 581.434 346.32 581.434 347.047H579.266C579.266 346.695 579.16 346.355 578.949 346.027C578.746 345.691 578.445 345.414 578.047 345.195C577.656 344.977 577.176 344.867 576.605 344.867C576.004 344.867 575.516 344.961 575.141 345.148C574.773 345.328 574.504 345.559 574.332 345.84C574.168 346.121 574.086 346.418 574.086 346.73C574.086 346.965 574.125 347.176 574.203 347.363C574.289 347.543 574.438 347.711 574.648 347.867C574.859 348.016 575.156 348.156 575.539 348.289C575.922 348.422 576.41 348.555 577.004 348.688C578.043 348.922 578.898 349.203 579.57 349.531C580.242 349.859 580.742 350.262 581.07 350.738C581.398 351.215 581.562 351.793 581.562 352.473C581.562 353.027 581.445 353.535 581.211 353.996C580.984 354.457 580.652 354.855 580.215 355.191C579.785 355.52 579.27 355.777 578.668 355.965C578.074 356.145 577.406 356.234 576.664 356.234C575.547 356.234 574.602 356.035 573.828 355.637C573.055 355.238 572.469 354.723 572.07 354.09C571.672 353.457 571.473 352.789 571.473 352.086H573.652C573.684 352.68 573.855 353.152 574.168 353.504C574.48 353.848 574.863 354.094 575.316 354.242C575.77 354.383 576.219 354.453 576.664 354.453C577.258 354.453 577.754 354.375 578.152 354.219C578.559 354.062 578.867 353.848 579.078 353.574C579.289 353.301 579.395 352.988 579.395 352.637ZM589.719 343.32V344.984H582.863V343.32H589.719ZM585.184 340.238H587.352V352.859C587.352 353.289 587.418 353.613 587.551 353.832C587.684 354.051 587.855 354.195 588.066 354.266C588.277 354.336 588.504 354.371 588.746 354.371C588.926 354.371 589.113 354.355 589.309 354.324C589.512 354.285 589.664 354.254 589.766 354.23L589.777 356C589.605 356.055 589.379 356.105 589.098 356.152C588.824 356.207 588.492 356.234 588.102 356.234C587.57 356.234 587.082 356.129 586.637 355.918C586.191 355.707 585.836 355.355 585.57 354.863C585.312 354.363 585.184 353.691 585.184 352.848V340.238ZM599.738 353.832V347.305C599.738 346.805 599.637 346.371 599.434 346.004C599.238 345.629 598.941 345.34 598.543 345.137C598.145 344.934 597.652 344.832 597.066 344.832C596.52 344.832 596.039 344.926 595.625 345.113C595.219 345.301 594.898 345.547 594.664 345.852C594.438 346.156 594.324 346.484 594.324 346.836H592.156C592.156 346.383 592.273 345.934 592.508 345.488C592.742 345.043 593.078 344.641 593.516 344.281C593.961 343.914 594.492 343.625 595.109 343.414C595.734 343.195 596.43 343.086 597.195 343.086C598.117 343.086 598.93 343.242 599.633 343.555C600.344 343.867 600.898 344.34 601.297 344.973C601.703 345.598 601.906 346.383 601.906 347.328V353.234C601.906 353.656 601.941 354.105 602.012 354.582C602.09 355.059 602.203 355.469 602.352 355.812V356H600.09C599.98 355.75 599.895 355.418 599.832 355.004C599.77 354.582 599.738 354.191 599.738 353.832ZM600.113 348.312L600.137 349.836H597.945C597.328 349.836 596.777 349.887 596.293 349.988C595.809 350.082 595.402 350.227 595.074 350.422C594.746 350.617 594.496 350.863 594.324 351.16C594.152 351.449 594.066 351.789 594.066 352.18C594.066 352.578 594.156 352.941 594.336 353.27C594.516 353.598 594.785 353.859 595.145 354.055C595.512 354.242 595.961 354.336 596.492 354.336C597.156 354.336 597.742 354.195 598.25 353.914C598.758 353.633 599.16 353.289 599.457 352.883C599.762 352.477 599.926 352.082 599.949 351.699L600.875 352.742C600.82 353.07 600.672 353.434 600.43 353.832C600.188 354.23 599.863 354.613 599.457 354.98C599.059 355.34 598.582 355.641 598.027 355.883C597.48 356.117 596.863 356.234 596.176 356.234C595.316 356.234 594.562 356.066 593.914 355.73C593.273 355.395 592.773 354.945 592.414 354.383C592.062 353.812 591.887 353.176 591.887 352.473C591.887 351.793 592.02 351.195 592.285 350.68C592.551 350.156 592.934 349.723 593.434 349.379C593.934 349.027 594.535 348.762 595.238 348.582C595.941 348.402 596.727 348.312 597.594 348.312H600.113ZM607.484 345.312V356H605.316V343.32H607.426L607.484 345.312ZM611.445 343.25L611.434 345.266C611.254 345.227 611.082 345.203 610.918 345.195C610.762 345.18 610.582 345.172 610.379 345.172C609.879 345.172 609.438 345.25 609.055 345.406C608.672 345.562 608.348 345.781 608.082 346.062C607.816 346.344 607.605 346.68 607.449 347.07C607.301 347.453 607.203 347.875 607.156 348.336L606.547 348.688C606.547 347.922 606.621 347.203 606.77 346.531C606.926 345.859 607.164 345.266 607.484 344.75C607.805 344.227 608.211 343.82 608.703 343.531C609.203 343.234 609.797 343.086 610.484 343.086C610.641 343.086 610.82 343.105 611.023 343.145C611.227 343.176 611.367 343.211 611.445 343.25ZM619.344 343.32V344.984H612.488V343.32H619.344ZM614.809 340.238H616.977V352.859C616.977 353.289 617.043 353.613 617.176 353.832C617.309 354.051 617.48 354.195 617.691 354.266C617.902 354.336 618.129 354.371 618.371 354.371C618.551 354.371 618.738 354.355 618.934 354.324C619.137 354.285 619.289 354.254 619.391 354.23L619.402 356C619.23 356.055 619.004 356.105 618.723 356.152C618.449 356.207 618.117 356.234 617.727 356.234C617.195 356.234 616.707 356.129 616.262 355.918C615.816 355.707 615.461 355.355 615.195 354.863C614.938 354.363 614.809 353.691 614.809 352.848V340.238Z" fill="white"/>
<path d="M108.641 338H110.82V353.539L110.633 356H108.641V338ZM119.387 349.555V349.801C119.387 350.723 119.277 351.578 119.059 352.367C118.84 353.148 118.52 353.828 118.098 354.406C117.676 354.984 117.16 355.434 116.551 355.754C115.941 356.074 115.242 356.234 114.453 356.234C113.648 356.234 112.941 356.098 112.332 355.824C111.73 355.543 111.223 355.141 110.809 354.617C110.395 354.094 110.062 353.461 109.812 352.719C109.57 351.977 109.402 351.141 109.309 350.211V349.133C109.402 348.195 109.57 347.355 109.812 346.613C110.062 345.871 110.395 345.238 110.809 344.715C111.223 344.184 111.73 343.781 112.332 343.508C112.934 343.227 113.633 343.086 114.43 343.086C115.227 343.086 115.934 343.242 116.551 343.555C117.168 343.859 117.684 344.297 118.098 344.867C118.52 345.438 118.84 346.121 119.059 346.918C119.277 347.707 119.387 348.586 119.387 349.555ZM117.207 349.801V349.555C117.207 348.922 117.148 348.328 117.031 347.773C116.914 347.211 116.727 346.719 116.469 346.297C116.211 345.867 115.871 345.531 115.449 345.289C115.027 345.039 114.508 344.914 113.891 344.914C113.344 344.914 112.867 345.008 112.461 345.195C112.062 345.383 111.723 345.637 111.441 345.957C111.16 346.27 110.93 346.629 110.75 347.035C110.578 347.434 110.449 347.848 110.363 348.277V351.102C110.488 351.648 110.691 352.176 110.973 352.684C111.262 353.184 111.645 353.594 112.121 353.914C112.605 354.234 113.203 354.395 113.914 354.395C114.5 354.395 115 354.277 115.414 354.043C115.836 353.801 116.176 353.469 116.434 353.047C116.699 352.625 116.895 352.137 117.02 351.582C117.145 351.027 117.207 350.434 117.207 349.801ZM124.484 338V356H122.305V338H124.484ZM127.391 349.801V349.531C127.391 348.617 127.523 347.77 127.789 346.988C128.055 346.199 128.438 345.516 128.938 344.938C129.438 344.352 130.043 343.898 130.754 343.578C131.465 343.25 132.262 343.086 133.145 343.086C134.035 343.086 134.836 343.25 135.547 343.578C136.266 343.898 136.875 344.352 137.375 344.938C137.883 345.516 138.27 346.199 138.535 346.988C138.801 347.77 138.934 348.617 138.934 349.531V349.801C138.934 350.715 138.801 351.562 138.535 352.344C138.27 353.125 137.883 353.809 137.375 354.395C136.875 354.973 136.27 355.426 135.559 355.754C134.855 356.074 134.059 356.234 133.168 356.234C132.277 356.234 131.477 356.074 130.766 355.754C130.055 355.426 129.445 354.973 128.938 354.395C128.438 353.809 128.055 353.125 127.789 352.344C127.523 351.562 127.391 350.715 127.391 349.801ZM129.559 349.531V349.801C129.559 350.434 129.633 351.031 129.781 351.594C129.93 352.148 130.152 352.641 130.449 353.07C130.754 353.5 131.133 353.84 131.586 354.09C132.039 354.332 132.566 354.453 133.168 354.453C133.762 354.453 134.281 354.332 134.727 354.09C135.18 353.84 135.555 353.5 135.852 353.07C136.148 352.641 136.371 352.148 136.52 351.594C136.676 351.031 136.754 350.434 136.754 349.801V349.531C136.754 348.906 136.676 348.316 136.52 347.762C136.371 347.199 136.145 346.703 135.84 346.273C135.543 345.836 135.168 345.492 134.715 345.242C134.27 344.992 133.746 344.867 133.145 344.867C132.551 344.867 132.027 344.992 131.574 345.242C131.129 345.492 130.754 345.836 130.449 346.273C130.152 346.703 129.93 347.199 129.781 347.762C129.633 348.316 129.559 348.906 129.559 349.531ZM146.727 354.453C147.242 354.453 147.719 354.348 148.156 354.137C148.594 353.926 148.953 353.637 149.234 353.27C149.516 352.895 149.676 352.469 149.715 351.992H151.777C151.738 352.742 151.484 353.441 151.016 354.09C150.555 354.73 149.949 355.25 149.199 355.648C148.449 356.039 147.625 356.234 146.727 356.234C145.773 356.234 144.941 356.066 144.23 355.73C143.527 355.395 142.941 354.934 142.473 354.348C142.012 353.762 141.664 353.09 141.43 352.332C141.203 351.566 141.09 350.758 141.09 349.906V349.414C141.09 348.562 141.203 347.758 141.43 347C141.664 346.234 142.012 345.559 142.473 344.973C142.941 344.387 143.527 343.926 144.23 343.59C144.941 343.254 145.773 343.086 146.727 343.086C147.719 343.086 148.586 343.289 149.328 343.695C150.07 344.094 150.652 344.641 151.074 345.336C151.504 346.023 151.738 346.805 151.777 347.68H149.715C149.676 347.156 149.527 346.684 149.27 346.262C149.02 345.84 148.676 345.504 148.238 345.254C147.809 344.996 147.305 344.867 146.727 344.867C146.062 344.867 145.504 345 145.051 345.266C144.605 345.523 144.25 345.875 143.984 346.32C143.727 346.758 143.539 347.246 143.422 347.785C143.312 348.316 143.258 348.859 143.258 349.414V349.906C143.258 350.461 143.312 351.008 143.422 351.547C143.531 352.086 143.715 352.574 143.973 353.012C144.238 353.449 144.594 353.801 145.039 354.066C145.492 354.324 146.055 354.453 146.727 354.453ZM156.395 338V356H154.215V338H156.395ZM164.141 343.32L158.609 349.238L155.516 352.449L155.34 350.141L157.555 347.492L161.492 343.32H164.141ZM162.16 356L157.637 349.953L158.762 348.02L164.715 356H162.16ZM170.891 347.855V349.637H165.172V347.855H170.891ZM178.273 356.234C177.391 356.234 176.59 356.086 175.871 355.789C175.16 355.484 174.547 355.059 174.031 354.512C173.523 353.965 173.133 353.316 172.859 352.566C172.586 351.816 172.449 350.996 172.449 350.105V349.613C172.449 348.582 172.602 347.664 172.906 346.859C173.211 346.047 173.625 345.359 174.148 344.797C174.672 344.234 175.266 343.809 175.93 343.52C176.594 343.23 177.281 343.086 177.992 343.086C178.898 343.086 179.68 343.242 180.336 343.555C181 343.867 181.543 344.305 181.965 344.867C182.387 345.422 182.699 346.078 182.902 346.836C183.105 347.586 183.207 348.406 183.207 349.297V350.27H173.738V348.5H181.039V348.336C181.008 347.773 180.891 347.227 180.688 346.695C180.492 346.164 180.18 345.727 179.75 345.383C179.32 345.039 178.734 344.867 177.992 344.867C177.5 344.867 177.047 344.973 176.633 345.184C176.219 345.387 175.863 345.691 175.566 346.098C175.27 346.504 175.039 347 174.875 347.586C174.711 348.172 174.629 348.848 174.629 349.613V350.105C174.629 350.707 174.711 351.273 174.875 351.805C175.047 352.328 175.293 352.789 175.613 353.188C175.941 353.586 176.336 353.898 176.797 354.125C177.266 354.352 177.797 354.465 178.391 354.465C179.156 354.465 179.805 354.309 180.336 353.996C180.867 353.684 181.332 353.266 181.73 352.742L183.043 353.785C182.77 354.199 182.422 354.594 182 354.969C181.578 355.344 181.059 355.648 180.441 355.883C179.832 356.117 179.109 356.234 178.273 356.234ZM187.906 346.027V356H185.738V343.32H187.789L187.906 346.027ZM187.391 349.18L186.488 349.145C186.496 348.277 186.625 347.477 186.875 346.742C187.125 346 187.477 345.355 187.93 344.809C188.383 344.262 188.922 343.84 189.547 343.543C190.18 343.238 190.879 343.086 191.645 343.086C192.27 343.086 192.832 343.172 193.332 343.344C193.832 343.508 194.258 343.773 194.609 344.141C194.969 344.508 195.242 344.984 195.43 345.57C195.617 346.148 195.711 346.855 195.711 347.691V356H193.531V347.668C193.531 347.004 193.434 346.473 193.238 346.074C193.043 345.668 192.758 345.375 192.383 345.195C192.008 345.008 191.547 344.914 191 344.914C190.461 344.914 189.969 345.027 189.523 345.254C189.086 345.48 188.707 345.793 188.387 346.191C188.074 346.59 187.828 347.047 187.648 347.562C187.477 348.07 187.391 348.609 187.391 349.18ZM206.996 353.539V338H209.176V356H207.184L206.996 353.539ZM198.465 349.801V349.555C198.465 348.586 198.582 347.707 198.816 346.918C199.059 346.121 199.398 345.438 199.836 344.867C200.281 344.297 200.809 343.859 201.418 343.555C202.035 343.242 202.723 343.086 203.48 343.086C204.277 343.086 204.973 343.227 205.566 343.508C206.168 343.781 206.676 344.184 207.09 344.715C207.512 345.238 207.844 345.871 208.086 346.613C208.328 347.355 208.496 348.195 208.59 349.133V350.211C208.504 351.141 208.336 351.977 208.086 352.719C207.844 353.461 207.512 354.094 207.09 354.617C206.676 355.141 206.168 355.543 205.566 355.824C204.965 356.098 204.262 356.234 203.457 356.234C202.715 356.234 202.035 356.074 201.418 355.754C200.809 355.434 200.281 354.984 199.836 354.406C199.398 353.828 199.059 353.148 198.816 352.367C198.582 351.578 198.465 350.723 198.465 349.801ZM200.645 349.555V349.801C200.645 350.434 200.707 351.027 200.832 351.582C200.965 352.137 201.168 352.625 201.441 353.047C201.715 353.469 202.062 353.801 202.484 354.043C202.906 354.277 203.41 354.395 203.996 354.395C204.715 354.395 205.305 354.242 205.766 353.938C206.234 353.633 206.609 353.23 206.891 352.73C207.172 352.23 207.391 351.688 207.547 351.102V348.277C207.453 347.848 207.316 347.434 207.137 347.035C206.965 346.629 206.738 346.27 206.457 345.957C206.184 345.637 205.844 345.383 205.438 345.195C205.039 345.008 204.566 344.914 204.02 344.914C203.426 344.914 202.914 345.039 202.484 345.289C202.062 345.531 201.715 345.867 201.441 346.297C201.168 346.719 200.965 347.211 200.832 347.773C200.707 348.328 200.645 348.922 200.645 349.555Z" fill="white"/>
<path d="M870.703 87.125V96.125C866.391 95.6562 862.531 94.4219 859.125 92.4219C855.719 90.4219 853.016 87.5938 851.016 83.9375C849.047 80.2812 848.062 75.7188 848.062 70.25C848.062 66.25 848.812 62.6094 850.312 59.3281C851.812 56.0781 853.938 53.2813 856.688 50.9375C859.469 48.5938 862.797 46.7813 866.672 45.5C870.578 44.25 874.922 43.625 879.703 43.625H886.5C891.281 43.625 895.609 44.25 899.484 45.5C903.391 46.7812 906.734 48.6094 909.516 50.9844C912.297 53.3906 914.438 56.2812 915.938 59.6562C917.438 63.0312 918.188 66.8281 918.188 71.0469C918.188 76.2031 917.219 80.5625 915.281 84.125C913.344 87.6875 910.656 90.4531 907.219 92.4219C903.812 94.4219 899.859 95.6562 895.359 96.125V87.125C898.547 86.6875 901.281 85.875 903.562 84.6875C905.875 83.5 907.656 81.8125 908.906 79.625C910.156 77.4375 910.781 74.5781 910.781 71.0469C910.781 68.0156 910.203 65.3438 909.047 63.0312C907.891 60.75 906.25 58.8281 904.125 57.2656C902 55.7344 899.453 54.5781 896.484 53.7969C893.516 53.0156 890.219 52.625 886.594 52.625H879.703C876.359 52.625 873.219 52.9688 870.281 53.6562C867.344 54.375 864.766 55.4531 862.547 56.8906C860.328 58.3281 858.578 60.1562 857.297 62.375C856.047 64.5938 855.422 67.2188 855.422 70.25C855.422 74.0938 856.031 77.1562 857.25 79.4375C858.469 81.7188 860.219 83.4375 862.5 84.5938C864.781 85.7812 867.516 86.625 870.703 87.125ZM866.25 144.828C867.844 144.828 869.25 144.578 870.469 144.078C871.719 143.609 872.844 142.766 873.844 141.547C874.844 140.359 875.797 138.703 876.703 136.578C877.609 134.484 878.531 131.828 879.469 128.609C880.469 125.234 881.578 122.188 882.797 119.469C884.047 116.75 885.469 114.422 887.062 112.484C888.656 110.547 890.484 109.062 892.547 108.031C894.609 107 896.969 106.484 899.625 106.484C902.281 106.484 904.734 107.031 906.984 108.125C909.234 109.219 911.188 110.781 912.844 112.812C914.531 114.875 915.844 117.328 916.781 120.172C917.719 123.016 918.188 126.188 918.188 129.688C918.188 134.812 917.203 139.156 915.234 142.719C913.297 146.312 910.75 149.047 907.594 150.922C904.469 152.797 901.125 153.734 897.562 153.734V144.734C900.125 144.734 902.391 144.188 904.359 143.094C906.359 142 907.922 140.344 909.047 138.125C910.203 135.906 910.781 133.094 910.781 129.688C910.781 126.469 910.297 123.812 909.328 121.719C908.359 119.625 907.047 118.062 905.391 117.031C903.734 116.031 901.844 115.531 899.719 115.531C898.281 115.531 896.969 115.828 895.781 116.422C894.625 117.047 893.547 118 892.547 119.281C891.547 120.594 890.625 122.25 889.781 124.25C888.938 126.281 888.125 128.703 887.344 131.516C886.25 135.391 885.031 138.734 883.688 141.547C882.344 144.359 880.828 146.672 879.141 148.484C877.484 150.328 875.594 151.688 873.469 152.562C871.375 153.469 869 153.922 866.344 153.922C863.562 153.922 861.047 153.359 858.797 152.234C856.547 151.109 854.625 149.5 853.031 147.406C851.438 145.312 850.203 142.797 849.328 139.859C848.484 136.953 848.062 133.703 848.062 130.109C848.062 126.953 848.5 123.844 849.375 120.781C850.25 117.75 851.562 114.984 853.312 112.484C855.062 110.016 857.219 108.031 859.781 106.531C862.375 105.062 865.375 104.328 868.781 104.328V113.328C866.438 113.328 864.422 113.781 862.734 114.688C861.078 115.594 859.703 116.828 858.609 118.391C857.516 119.984 856.703 121.781 856.172 123.781C855.672 125.812 855.422 127.922 855.422 130.109C855.422 133.266 855.859 135.938 856.734 138.125C857.609 140.312 858.859 141.969 860.484 143.094C862.109 144.25 864.031 144.828 866.25 144.828ZM866.25 201.828C867.844 201.828 869.25 201.578 870.469 201.078C871.719 200.609 872.844 199.766 873.844 198.547C874.844 197.359 875.797 195.703 876.703 193.578C877.609 191.484 878.531 188.828 879.469 185.609C880.469 182.234 881.578 179.188 882.797 176.469C884.047 173.75 885.469 171.422 887.062 169.484C888.656 167.547 890.484 166.062 892.547 165.031C894.609 164 896.969 163.484 899.625 163.484C902.281 163.484 904.734 164.031 906.984 165.125C909.234 166.219 911.188 167.781 912.844 169.812C914.531 171.875 915.844 174.328 916.781 177.172C917.719 180.016 918.188 183.188 918.188 186.688C918.188 191.812 917.203 196.156 915.234 199.719C913.297 203.312 910.75 206.047 907.594 207.922C904.469 209.797 901.125 210.734 897.562 210.734V201.734C900.125 201.734 902.391 201.188 904.359 200.094C906.359 199 907.922 197.344 909.047 195.125C910.203 192.906 910.781 190.094 910.781 186.688C910.781 183.469 910.297 180.812 909.328 178.719C908.359 176.625 907.047 175.062 905.391 174.031C903.734 173.031 901.844 172.531 899.719 172.531C898.281 172.531 896.969 172.828 895.781 173.422C894.625 174.047 893.547 175 892.547 176.281C891.547 177.594 890.625 179.25 889.781 181.25C888.938 183.281 888.125 185.703 887.344 188.516C886.25 192.391 885.031 195.734 883.688 198.547C882.344 201.359 880.828 203.672 879.141 205.484C877.484 207.328 875.594 208.688 873.469 209.562C871.375 210.469 869 210.922 866.344 210.922C863.562 210.922 861.047 210.359 858.797 209.234C856.547 208.109 854.625 206.5 853.031 204.406C851.438 202.312 850.203 199.797 849.328 196.859C848.484 193.953 848.062 190.703 848.062 187.109C848.062 183.953 848.5 180.844 849.375 177.781C850.25 174.75 851.562 171.984 853.312 169.484C855.062 167.016 857.219 165.031 859.781 163.531C862.375 162.062 865.375 161.328 868.781 161.328V170.328C866.438 170.328 864.422 170.781 862.734 171.688C861.078 172.594 859.703 173.828 858.609 175.391C857.516 176.984 856.703 178.781 856.172 180.781C855.672 182.812 855.422 184.922 855.422 187.109C855.422 190.266 855.859 192.938 856.734 195.125C857.609 197.312 858.859 198.969 860.484 200.094C862.109 201.25 864.031 201.828 866.25 201.828Z" fill="white" fill-opacity="0.5"/>
</svg>
