<svg width="500" height="500" viewBox="0 0 500 500" fill="none" xmlns="http://www.w3.org/2000/svg">
<path d="M143.75 243.531H149.75C149.438 246.406 148.615 248.979 147.281 251.25C145.948 253.521 144.062 255.323 141.625 256.656C139.188 257.969 136.146 258.625 132.5 258.625C129.833 258.625 127.406 258.125 125.219 257.125C123.052 256.125 121.188 254.708 119.625 252.875C118.062 251.021 116.854 248.802 116 246.219C115.167 243.615 114.75 240.719 114.75 237.531V233C114.75 229.812 115.167 226.927 116 224.344C116.854 221.74 118.073 219.51 119.656 217.656C121.26 215.802 123.188 214.375 125.438 213.375C127.688 212.375 130.219 211.875 133.031 211.875C136.469 211.875 139.375 212.521 141.75 213.812C144.125 215.104 145.969 216.896 147.281 219.188C148.615 221.458 149.438 224.094 149.75 227.094H143.75C143.458 224.969 142.917 223.146 142.125 221.625C141.333 220.083 140.208 218.896 138.75 218.062C137.292 217.229 135.385 216.812 133.031 216.812C131.01 216.812 129.229 217.198 127.688 217.969C126.167 218.74 124.885 219.833 123.844 221.25C122.823 222.667 122.052 224.365 121.531 226.344C121.01 228.323 120.75 230.521 120.75 232.938V237.531C120.75 239.76 120.979 241.854 121.438 243.812C121.917 245.771 122.635 247.49 123.594 248.969C124.552 250.448 125.771 251.615 127.25 252.469C128.729 253.302 130.479 253.719 132.5 253.719C135.062 253.719 137.104 253.312 138.625 252.5C140.146 251.688 141.292 250.521 142.062 249C142.854 247.479 143.417 245.656 143.75 243.531ZM182.219 246.5C182.219 245.438 182.052 244.5 181.719 243.688C181.406 242.854 180.844 242.104 180.031 241.438C179.24 240.771 178.135 240.135 176.719 239.531C175.323 238.927 173.552 238.312 171.406 237.688C169.156 237.021 167.125 236.281 165.312 235.469C163.5 234.635 161.948 233.688 160.656 232.625C159.365 231.562 158.375 230.344 157.688 228.969C157 227.594 156.656 226.021 156.656 224.25C156.656 222.479 157.021 220.844 157.75 219.344C158.479 217.844 159.521 216.542 160.875 215.438C162.25 214.312 163.885 213.438 165.781 212.812C167.677 212.188 169.792 211.875 172.125 211.875C175.542 211.875 178.438 212.531 180.812 213.844C183.208 215.135 185.031 216.833 186.281 218.938C187.531 221.021 188.156 223.25 188.156 225.625H182.156C182.156 223.917 181.792 222.406 181.062 221.094C180.333 219.76 179.229 218.719 177.75 217.969C176.271 217.198 174.396 216.812 172.125 216.812C169.979 216.812 168.208 217.135 166.812 217.781C165.417 218.427 164.375 219.302 163.688 220.406C163.021 221.51 162.688 222.771 162.688 224.188C162.688 225.146 162.885 226.021 163.281 226.812C163.698 227.583 164.333 228.302 165.188 228.969C166.062 229.635 167.167 230.25 168.5 230.812C169.854 231.375 171.469 231.917 173.344 232.438C175.927 233.167 178.156 233.979 180.031 234.875C181.906 235.771 183.448 236.781 184.656 237.906C185.885 239.01 186.792 240.271 187.375 241.688C187.979 243.083 188.281 244.667 188.281 246.438C188.281 248.292 187.906 249.969 187.156 251.469C186.406 252.969 185.333 254.25 183.938 255.312C182.542 256.375 180.865 257.198 178.906 257.781C176.969 258.344 174.802 258.625 172.406 258.625C170.302 258.625 168.229 258.333 166.188 257.75C164.167 257.167 162.323 256.292 160.656 255.125C159.01 253.958 157.688 252.521 156.688 250.812C155.708 249.083 155.219 247.083 155.219 244.812H161.219C161.219 246.375 161.521 247.719 162.125 248.844C162.729 249.948 163.552 250.865 164.594 251.594C165.656 252.323 166.854 252.865 168.188 253.219C169.542 253.552 170.948 253.719 172.406 253.719C174.51 253.719 176.292 253.427 177.75 252.844C179.208 252.26 180.312 251.427 181.062 250.344C181.833 249.26 182.219 247.979 182.219 246.5ZM220.219 246.5C220.219 245.438 220.052 244.5 219.719 243.688C219.406 242.854 218.844 242.104 218.031 241.438C217.24 240.771 216.135 240.135 214.719 239.531C213.323 238.927 211.552 238.312 209.406 237.688C207.156 237.021 205.125 236.281 203.312 235.469C201.5 234.635 199.948 233.688 198.656 232.625C197.365 231.562 196.375 230.344 195.688 228.969C195 227.594 194.656 226.021 194.656 224.25C194.656 222.479 195.021 220.844 195.75 219.344C196.479 217.844 197.521 216.542 198.875 215.438C200.25 214.312 201.885 213.438 203.781 212.812C205.677 212.188 207.792 211.875 210.125 211.875C213.542 211.875 216.438 212.531 218.812 213.844C221.208 215.135 223.031 216.833 224.281 218.938C225.531 221.021 226.156 223.25 226.156 225.625H220.156C220.156 223.917 219.792 222.406 219.062 221.094C218.333 219.76 217.229 218.719 215.75 217.969C214.271 217.198 212.396 216.812 210.125 216.812C207.979 216.812 206.208 217.135 204.812 217.781C203.417 218.427 202.375 219.302 201.688 220.406C201.021 221.51 200.688 222.771 200.688 224.188C200.688 225.146 200.885 226.021 201.281 226.812C201.698 227.583 202.333 228.302 203.188 228.969C204.062 229.635 205.167 230.25 206.5 230.812C207.854 231.375 209.469 231.917 211.344 232.438C213.927 233.167 216.156 233.979 218.031 234.875C219.906 235.771 221.448 236.781 222.656 237.906C223.885 239.01 224.792 240.271 225.375 241.688C225.979 243.083 226.281 244.667 226.281 246.438C226.281 248.292 225.906 249.969 225.156 251.469C224.406 252.969 223.333 254.25 221.938 255.312C220.542 256.375 218.865 257.198 216.906 257.781C214.969 258.344 212.802 258.625 210.406 258.625C208.302 258.625 206.229 258.333 204.188 257.75C202.167 257.167 200.323 256.292 198.656 255.125C197.01 253.958 195.688 252.521 194.688 250.812C193.708 249.083 193.219 247.083 193.219 244.812H199.219C199.219 246.375 199.521 247.719 200.125 248.844C200.729 249.948 201.552 250.865 202.594 251.594C203.656 252.323 204.854 252.865 206.188 253.219C207.542 253.552 208.948 253.719 210.406 253.719C212.51 253.719 214.292 253.427 215.75 252.844C217.208 252.26 218.312 251.427 219.062 250.344C219.833 249.26 220.219 247.979 220.219 246.5ZM255.25 224.188V258H249.438V224.188H255.25ZM249 215.219C249 214.281 249.281 213.49 249.844 212.844C250.427 212.198 251.281 211.875 252.406 211.875C253.51 211.875 254.354 212.198 254.938 212.844C255.542 213.49 255.844 214.281 255.844 215.219C255.844 216.115 255.542 216.885 254.938 217.531C254.354 218.156 253.51 218.469 252.406 218.469C251.281 218.469 250.427 218.156 249.844 217.531C249.281 216.885 249 216.115 249 215.219ZM284.219 249.031C284.219 248.198 284.031 247.427 283.656 246.719C283.302 245.99 282.562 245.333 281.438 244.75C280.333 244.146 278.667 243.625 276.438 243.188C274.562 242.792 272.865 242.323 271.344 241.781C269.844 241.24 268.562 240.583 267.5 239.812C266.458 239.042 265.656 238.135 265.094 237.094C264.531 236.052 264.25 234.833 264.25 233.438C264.25 232.104 264.542 230.844 265.125 229.656C265.729 228.469 266.573 227.417 267.656 226.5C268.76 225.583 270.083 224.865 271.625 224.344C273.167 223.823 274.885 223.562 276.781 223.562C279.49 223.562 281.802 224.042 283.719 225C285.635 225.958 287.104 227.24 288.125 228.844C289.146 230.427 289.656 232.188 289.656 234.125H283.875C283.875 233.188 283.594 232.281 283.031 231.406C282.49 230.51 281.688 229.771 280.625 229.188C279.583 228.604 278.302 228.312 276.781 228.312C275.177 228.312 273.875 228.562 272.875 229.062C271.896 229.542 271.177 230.156 270.719 230.906C270.281 231.656 270.062 232.448 270.062 233.281C270.062 233.906 270.167 234.469 270.375 234.969C270.604 235.448 271 235.896 271.562 236.312C272.125 236.708 272.917 237.083 273.938 237.438C274.958 237.792 276.26 238.146 277.844 238.5C280.615 239.125 282.896 239.875 284.688 240.75C286.479 241.625 287.812 242.698 288.688 243.969C289.562 245.24 290 246.781 290 248.594C290 250.073 289.688 251.427 289.062 252.656C288.458 253.885 287.573 254.948 286.406 255.844C285.26 256.719 283.885 257.406 282.281 257.906C280.698 258.385 278.917 258.625 276.938 258.625C273.958 258.625 271.438 258.094 269.375 257.031C267.312 255.969 265.75 254.594 264.688 252.906C263.625 251.219 263.094 249.438 263.094 247.562H268.906C268.99 249.146 269.448 250.406 270.281 251.344C271.115 252.26 272.135 252.917 273.344 253.312C274.552 253.688 275.75 253.875 276.938 253.875C278.521 253.875 279.844 253.667 280.906 253.25C281.99 252.833 282.812 252.26 283.375 251.531C283.938 250.802 284.219 249.969 284.219 249.031ZM135.344 327.219V309.812C135.344 308.479 135.073 307.323 134.531 306.344C134.01 305.344 133.219 304.573 132.156 304.031C131.094 303.49 129.781 303.219 128.219 303.219C126.76 303.219 125.479 303.469 124.375 303.969C123.292 304.469 122.438 305.125 121.812 305.938C121.208 306.75 120.906 307.625 120.906 308.562H115.125C115.125 307.354 115.438 306.156 116.062 304.969C116.688 303.781 117.583 302.708 118.75 301.75C119.938 300.771 121.354 300 123 299.438C124.667 298.854 126.521 298.562 128.562 298.562C131.021 298.562 133.188 298.979 135.062 299.812C136.958 300.646 138.438 301.906 139.5 303.594C140.583 305.26 141.125 307.354 141.125 309.875V325.625C141.125 326.75 141.219 327.948 141.406 329.219C141.615 330.49 141.917 331.583 142.312 332.5V333H136.281C135.99 332.333 135.76 331.448 135.594 330.344C135.427 329.219 135.344 328.177 135.344 327.219ZM136.344 312.5L136.406 316.562H130.562C128.917 316.562 127.448 316.698 126.156 316.969C124.865 317.219 123.781 317.604 122.906 318.125C122.031 318.646 121.365 319.302 120.906 320.094C120.448 320.865 120.219 321.771 120.219 322.812C120.219 323.875 120.458 324.844 120.938 325.719C121.417 326.594 122.135 327.292 123.094 327.812C124.073 328.312 125.271 328.562 126.688 328.562C128.458 328.562 130.021 328.188 131.375 327.438C132.729 326.688 133.802 325.771 134.594 324.688C135.406 323.604 135.844 322.552 135.906 321.531L138.375 324.312C138.229 325.188 137.833 326.156 137.188 327.219C136.542 328.281 135.677 329.302 134.594 330.281C133.531 331.24 132.26 332.042 130.781 332.688C129.323 333.312 127.677 333.625 125.844 333.625C123.552 333.625 121.542 333.177 119.812 332.281C118.104 331.385 116.771 330.188 115.812 328.688C114.875 327.167 114.406 325.469 114.406 323.594C114.406 321.781 114.76 320.188 115.469 318.812C116.177 317.417 117.198 316.26 118.531 315.344C119.865 314.406 121.469 313.698 123.344 313.219C125.219 312.74 127.312 312.5 129.625 312.5H136.344ZM158.781 327L167.469 299.188H171.281L170.531 304.719L161.688 333H157.969L158.781 327ZM152.938 299.188L160.344 327.312L160.875 333H156.969L147.156 299.188H152.938ZM179.594 327.094L186.656 299.188H192.406L182.594 333H178.719L179.594 327.094ZM172.125 299.188L180.625 326.531L181.594 333H177.906L168.812 304.656L168.062 299.188H172.125ZM212.375 333.625C210.021 333.625 207.885 333.229 205.969 332.438C204.073 331.625 202.438 330.49 201.062 329.031C199.708 327.573 198.667 325.844 197.938 323.844C197.208 321.844 196.844 319.656 196.844 317.281V315.969C196.844 313.219 197.25 310.771 198.062 308.625C198.875 306.458 199.979 304.625 201.375 303.125C202.771 301.625 204.354 300.49 206.125 299.719C207.896 298.948 209.729 298.562 211.625 298.562C214.042 298.562 216.125 298.979 217.875 299.812C219.646 300.646 221.094 301.812 222.219 303.312C223.344 304.792 224.177 306.542 224.719 308.562C225.26 310.562 225.531 312.75 225.531 315.125V317.719H200.281V313H219.75V312.562C219.667 311.062 219.354 309.604 218.812 308.188C218.292 306.771 217.458 305.604 216.312 304.688C215.167 303.771 213.604 303.312 211.625 303.312C210.312 303.312 209.104 303.594 208 304.156C206.896 304.698 205.948 305.51 205.156 306.594C204.365 307.677 203.75 309 203.312 310.562C202.875 312.125 202.656 313.927 202.656 315.969V317.281C202.656 318.885 202.875 320.396 203.312 321.812C203.771 323.208 204.427 324.438 205.281 325.5C206.156 326.562 207.208 327.396 208.438 328C209.688 328.604 211.104 328.906 212.688 328.906C214.729 328.906 216.458 328.49 217.875 327.656C219.292 326.823 220.531 325.708 221.594 324.312L225.094 327.094C224.365 328.198 223.438 329.25 222.312 330.25C221.188 331.25 219.802 332.062 218.156 332.688C216.531 333.312 214.604 333.625 212.375 333.625ZM251.969 324.031C251.969 323.198 251.781 322.427 251.406 321.719C251.052 320.99 250.312 320.333 249.188 319.75C248.083 319.146 246.417 318.625 244.188 318.188C242.312 317.792 240.615 317.323 239.094 316.781C237.594 316.24 236.312 315.583 235.25 314.812C234.208 314.042 233.406 313.135 232.844 312.094C232.281 311.052 232 309.833 232 308.438C232 307.104 232.292 305.844 232.875 304.656C233.479 303.469 234.323 302.417 235.406 301.5C236.51 300.583 237.833 299.865 239.375 299.344C240.917 298.823 242.635 298.562 244.531 298.562C247.24 298.562 249.552 299.042 251.469 300C253.385 300.958 254.854 302.24 255.875 303.844C256.896 305.427 257.406 307.188 257.406 309.125H251.625C251.625 308.188 251.344 307.281 250.781 306.406C250.24 305.51 249.438 304.771 248.375 304.188C247.333 303.604 246.052 303.312 244.531 303.312C242.927 303.312 241.625 303.562 240.625 304.062C239.646 304.542 238.927 305.156 238.469 305.906C238.031 306.656 237.812 307.448 237.812 308.281C237.812 308.906 237.917 309.469 238.125 309.969C238.354 310.448 238.75 310.896 239.312 311.312C239.875 311.708 240.667 312.083 241.688 312.438C242.708 312.792 244.01 313.146 245.594 313.5C248.365 314.125 250.646 314.875 252.438 315.75C254.229 316.625 255.562 317.698 256.438 318.969C257.312 320.24 257.75 321.781 257.75 323.594C257.75 325.073 257.438 326.427 256.812 327.656C256.208 328.885 255.323 329.948 254.156 330.844C253.01 331.719 251.635 332.406 250.031 332.906C248.448 333.385 246.667 333.625 244.688 333.625C241.708 333.625 239.188 333.094 237.125 332.031C235.062 330.969 233.5 329.594 232.438 327.906C231.375 326.219 230.844 324.438 230.844 322.562H236.656C236.74 324.146 237.198 325.406 238.031 326.344C238.865 327.26 239.885 327.917 241.094 328.312C242.302 328.688 243.5 328.875 244.688 328.875C246.271 328.875 247.594 328.667 248.656 328.25C249.74 327.833 250.562 327.26 251.125 326.531C251.688 325.802 251.969 324.969 251.969 324.031ZM263.812 316.469V315.75C263.812 313.312 264.167 311.052 264.875 308.969C265.583 306.865 266.604 305.042 267.938 303.5C269.271 301.938 270.885 300.729 272.781 299.875C274.677 299 276.802 298.562 279.156 298.562C281.531 298.562 283.667 299 285.562 299.875C287.479 300.729 289.104 301.938 290.438 303.5C291.792 305.042 292.823 306.865 293.531 308.969C294.24 311.052 294.594 313.312 294.594 315.75V316.469C294.594 318.906 294.24 321.167 293.531 323.25C292.823 325.333 291.792 327.156 290.438 328.719C289.104 330.26 287.49 331.469 285.594 332.344C283.719 333.198 281.594 333.625 279.219 333.625C276.844 333.625 274.708 333.198 272.812 332.344C270.917 331.469 269.292 330.26 267.938 328.719C266.604 327.156 265.583 325.333 264.875 323.25C264.167 321.167 263.812 318.906 263.812 316.469ZM269.594 315.75V316.469C269.594 318.156 269.792 319.75 270.188 321.25C270.583 322.729 271.177 324.042 271.969 325.188C272.781 326.333 273.792 327.24 275 327.906C276.208 328.552 277.615 328.875 279.219 328.875C280.802 328.875 282.188 328.552 283.375 327.906C284.583 327.24 285.583 326.333 286.375 325.188C287.167 324.042 287.76 322.729 288.156 321.25C288.573 319.75 288.781 318.156 288.781 316.469V315.75C288.781 314.083 288.573 312.51 288.156 311.031C287.76 309.531 287.156 308.208 286.344 307.062C285.552 305.896 284.552 304.979 283.344 304.312C282.156 303.646 280.76 303.312 279.156 303.312C277.573 303.312 276.177 303.646 274.969 304.312C273.781 304.979 272.781 305.896 271.969 307.062C271.177 308.208 270.583 309.531 270.188 311.031C269.792 312.51 269.594 314.083 269.594 315.75ZM307.594 305.906V333H301.781V299.188H307.281L307.594 305.906ZM306.406 314.812L303.719 314.719C303.74 312.406 304.042 310.271 304.625 308.312C305.208 306.333 306.073 304.615 307.219 303.156C308.365 301.698 309.792 300.573 311.5 299.781C313.208 298.969 315.188 298.562 317.438 298.562C319.021 298.562 320.479 298.792 321.812 299.25C323.146 299.688 324.302 300.385 325.281 301.344C326.26 302.302 327.021 303.531 327.562 305.031C328.104 306.531 328.375 308.344 328.375 310.469V333H322.594V310.75C322.594 308.979 322.292 307.562 321.688 306.5C321.104 305.438 320.271 304.667 319.188 304.188C318.104 303.688 316.833 303.438 315.375 303.438C313.667 303.438 312.24 303.74 311.094 304.344C309.948 304.948 309.031 305.781 308.344 306.844C307.656 307.906 307.156 309.125 306.844 310.5C306.552 311.854 306.406 313.292 306.406 314.812ZM328.312 311.625L324.438 312.812C324.458 310.958 324.76 309.177 325.344 307.469C325.948 305.76 326.812 304.24 327.938 302.906C329.083 301.573 330.49 300.521 332.156 299.75C333.823 298.958 335.729 298.562 337.875 298.562C339.688 298.562 341.292 298.802 342.688 299.281C344.104 299.76 345.292 300.5 346.25 301.5C347.229 302.479 347.969 303.74 348.469 305.281C348.969 306.823 349.219 308.656 349.219 310.781V333H343.406V310.719C343.406 308.823 343.104 307.354 342.5 306.312C341.917 305.25 341.083 304.51 340 304.094C338.938 303.656 337.667 303.438 336.188 303.438C334.917 303.438 333.792 303.656 332.812 304.094C331.833 304.531 331.01 305.135 330.344 305.906C329.677 306.656 329.167 307.521 328.812 308.5C328.479 309.479 328.312 310.521 328.312 311.625ZM372 333.625C369.646 333.625 367.51 333.229 365.594 332.438C363.698 331.625 362.062 330.49 360.688 329.031C359.333 327.573 358.292 325.844 357.562 323.844C356.833 321.844 356.469 319.656 356.469 317.281V315.969C356.469 313.219 356.875 310.771 357.688 308.625C358.5 306.458 359.604 304.625 361 303.125C362.396 301.625 363.979 300.49 365.75 299.719C367.521 298.948 369.354 298.562 371.25 298.562C373.667 298.562 375.75 298.979 377.5 299.812C379.271 300.646 380.719 301.812 381.844 303.312C382.969 304.792 383.802 306.542 384.344 308.562C384.885 310.562 385.156 312.75 385.156 315.125V317.719H359.906V313H379.375V312.562C379.292 311.062 378.979 309.604 378.438 308.188C377.917 306.771 377.083 305.604 375.938 304.688C374.792 303.771 373.229 303.312 371.25 303.312C369.938 303.312 368.729 303.594 367.625 304.156C366.521 304.698 365.573 305.51 364.781 306.594C363.99 307.677 363.375 309 362.938 310.562C362.5 312.125 362.281 313.927 362.281 315.969V317.281C362.281 318.885 362.5 320.396 362.938 321.812C363.396 323.208 364.052 324.438 364.906 325.5C365.781 326.562 366.833 327.396 368.062 328C369.312 328.604 370.729 328.906 372.312 328.906C374.354 328.906 376.083 328.49 377.5 327.656C378.917 326.823 380.156 325.708 381.219 324.312L384.719 327.094C383.99 328.198 383.062 329.25 381.938 330.25C380.812 331.25 379.427 332.062 377.781 332.688C376.156 333.312 374.229 333.625 372 333.625Z" fill="white" fill-opacity="0.5"/>
<path d="M44 129.461V132.73H20.6914L17 132.449V129.461H44ZM26.668 145.58H26.2988C24.916 145.58 23.6328 145.416 22.4492 145.088C21.2773 144.76 20.2578 144.279 19.3906 143.646C18.5234 143.014 17.8496 142.24 17.3691 141.326C16.8887 140.412 16.6484 139.363 16.6484 138.18C16.6484 136.973 16.8535 135.912 17.2637 134.998C17.6855 134.096 18.2891 133.334 19.0742 132.713C19.8594 132.092 20.8086 131.594 21.9219 131.219C23.0352 130.855 24.2891 130.604 25.6836 130.463H27.3008C28.707 130.604 29.9668 130.855 31.0801 131.219C32.1934 131.594 33.1426 132.092 33.9277 132.713C34.7246 133.334 35.3281 134.096 35.7383 134.998C36.1602 135.9 36.3711 136.949 36.3711 138.145C36.3711 139.34 36.1367 140.4 35.668 141.326C35.2109 142.252 34.5547 143.025 33.6992 143.646C32.8438 144.279 31.8184 144.76 30.623 145.088C29.4395 145.416 28.1211 145.58 26.668 145.58ZM26.2988 142.311H26.668C27.6172 142.311 28.5078 142.223 29.3398 142.047C30.1836 141.871 30.9219 141.59 31.5547 141.203C32.1992 140.816 32.7031 140.307 33.0664 139.674C33.4414 139.041 33.6289 138.262 33.6289 137.336C33.6289 136.516 33.4883 135.801 33.207 135.191C32.9258 134.594 32.5449 134.084 32.0645 133.662C31.5957 133.24 31.0566 132.895 30.4473 132.625C29.8496 132.367 29.2285 132.174 28.584 132.045H24.3477C23.5273 132.232 22.7363 132.537 21.9746 132.959C21.2246 133.393 20.6094 133.967 20.1289 134.682C19.6484 135.408 19.4082 136.305 19.4082 137.371C19.4082 138.25 19.584 139 19.9355 139.621C20.2988 140.254 20.7969 140.764 21.4297 141.15C22.0625 141.549 22.7949 141.842 23.627 142.029C24.459 142.217 25.3496 142.311 26.2988 142.311ZM44 153.227H17V149.957H44V153.227ZM26.2988 157.586H26.7031C28.0742 157.586 29.3457 157.785 30.5176 158.184C31.7012 158.582 32.7266 159.156 33.5938 159.906C34.4727 160.656 35.1523 161.564 35.6328 162.631C36.125 163.697 36.3711 164.893 36.3711 166.217C36.3711 167.553 36.125 168.754 35.6328 169.82C35.1523 170.898 34.4727 171.812 33.5938 172.562C32.7266 173.324 31.7012 173.904 30.5176 174.303C29.3457 174.701 28.0742 174.9 26.7031 174.9H26.2988C24.9277 174.9 23.6563 174.701 22.4844 174.303C21.3125 173.904 20.2871 173.324 19.4082 172.562C18.541 171.812 17.8613 170.904 17.3691 169.838C16.8887 168.783 16.6484 167.588 16.6484 166.252C16.6484 164.916 16.8887 163.715 17.3691 162.648C17.8613 161.582 18.541 160.668 19.4082 159.906C20.2871 159.156 21.3125 158.582 22.4844 158.184C23.6563 157.785 24.9277 157.586 26.2988 157.586ZM26.7031 160.838H26.2988C25.3496 160.838 24.4531 160.949 23.6094 161.172C22.7773 161.395 22.0391 161.729 21.3945 162.174C20.75 162.631 20.2402 163.199 19.8652 163.879C19.502 164.559 19.3203 165.35 19.3203 166.252C19.3203 167.143 19.502 167.922 19.8652 168.59C20.2402 169.27 20.75 169.832 21.3945 170.277C22.0391 170.723 22.7773 171.057 23.6094 171.279C24.4531 171.514 25.3496 171.631 26.2988 171.631H26.7031C27.6406 171.631 28.5254 171.514 29.3574 171.279C30.2012 171.057 30.9453 170.717 31.5898 170.26C32.2461 169.814 32.7617 169.252 33.1367 168.572C33.5117 167.904 33.6992 167.119 33.6992 166.217C33.6992 165.326 33.5117 164.541 33.1367 163.861C32.7617 163.193 32.2461 162.631 31.5898 162.174C30.9453 161.729 30.2012 161.395 29.3574 161.172C28.5254 160.949 27.6406 160.838 26.7031 160.838ZM19.3203 186.59C19.3203 187.363 19.4785 188.078 19.7949 188.734C20.1113 189.391 20.5449 189.93 21.0957 190.352C21.6582 190.773 22.2969 191.014 23.0117 191.072V194.166C21.8867 194.107 20.8379 193.727 19.8652 193.023C18.9043 192.332 18.125 191.424 17.5273 190.299C16.9414 189.174 16.6484 187.938 16.6484 186.59C16.6484 185.16 16.9004 183.912 17.4043 182.846C17.9082 181.791 18.5996 180.912 19.4785 180.209C20.3574 179.518 21.3652 178.996 22.502 178.645C23.6504 178.305 24.8633 178.135 26.1406 178.135H26.8789C28.1563 178.135 29.3633 178.305 30.5 178.645C31.6484 178.996 32.6621 179.518 33.541 180.209C34.4199 180.912 35.1113 181.791 35.6152 182.846C36.1191 183.912 36.3711 185.16 36.3711 186.59C36.3711 188.078 36.0664 189.379 35.457 190.492C34.8594 191.605 34.0391 192.479 32.9961 193.111C31.9648 193.756 30.793 194.107 29.4805 194.166V191.072C30.2656 191.014 30.9746 190.791 31.6074 190.404C32.2402 190.029 32.7441 189.514 33.1191 188.857C33.5059 188.213 33.6992 187.457 33.6992 186.59C33.6992 185.594 33.5 184.756 33.1016 184.076C32.7148 183.408 32.1875 182.875 31.5195 182.477C30.8633 182.09 30.1309 181.809 29.3223 181.633C28.5254 181.469 27.7109 181.387 26.8789 181.387H26.1406C25.3086 181.387 24.4883 181.469 23.6797 181.633C22.8711 181.797 22.1387 182.072 21.4824 182.459C20.8262 182.857 20.2988 183.391 19.9004 184.059C19.5137 184.738 19.3203 185.582 19.3203 186.59ZM44 201.092H17V197.822H44V201.092ZM36.0195 212.711L27.1426 204.414L22.3262 199.773L25.7891 199.51L29.7617 202.832L36.0195 208.738V212.711ZM17 209.74L26.0703 202.955L28.9707 204.643L17 213.572V209.74ZM20.6914 245.916H44V249.186H17V246.197L20.6914 245.916ZM26.2988 233.119H26.668C28.1211 233.119 29.4395 233.295 30.623 233.646C31.8184 234.01 32.8438 234.52 33.6992 235.176C34.5547 235.844 35.2109 236.635 35.668 237.549C36.1367 238.475 36.3711 239.506 36.3711 240.643C36.3711 241.838 36.1602 242.881 35.7383 243.771C35.3281 244.674 34.7246 245.436 33.9277 246.057C33.1426 246.689 32.1934 247.188 31.0801 247.551C29.9668 247.914 28.707 248.166 27.3008 248.307H25.6836C24.2891 248.178 23.0352 247.926 21.9219 247.551C20.8086 247.188 19.8594 246.689 19.0742 246.057C18.2891 245.436 17.6855 244.674 17.2637 243.771C16.8535 242.869 16.6484 241.814 16.6484 240.607C16.6484 239.494 16.8887 238.475 17.3691 237.549C17.8496 236.635 18.5234 235.844 19.3906 235.176C20.2578 234.52 21.2773 234.01 22.4492 233.646C23.6328 233.295 24.916 233.119 26.2988 233.119ZM26.668 236.389H26.2988C25.3496 236.389 24.459 236.482 23.627 236.67C22.7949 236.869 22.0625 237.174 21.4297 237.584C20.7969 237.994 20.2988 238.516 19.9355 239.148C19.584 239.781 19.4082 240.537 19.4082 241.416C19.4082 242.494 19.6367 243.379 20.0938 244.07C20.5508 244.773 21.1543 245.336 21.9043 245.758C22.6543 246.18 23.4688 246.508 24.3477 246.742H28.584C29.2285 246.602 29.8496 246.396 30.4473 246.127C31.0566 245.869 31.5957 245.529 32.0645 245.107C32.5449 244.697 32.9258 244.188 33.207 243.578C33.4883 242.98 33.6289 242.271 33.6289 241.451C33.6289 240.561 33.4414 239.793 33.0664 239.148C32.7031 238.516 32.1992 237.994 31.5547 237.584C30.9219 237.174 30.1836 236.869 29.3398 236.67C28.5078 236.482 27.6172 236.389 26.668 236.389ZM36.0195 257.781H17V254.512H36.0195V257.781ZM41.0645 254.266C41.5918 254.266 42.0371 254.424 42.4004 254.74C42.7637 255.068 42.9453 255.549 42.9453 256.182C42.9453 256.803 42.7637 257.277 42.4004 257.605C42.0371 257.945 41.5918 258.115 41.0645 258.115C40.5605 258.115 40.127 257.945 39.7637 257.605C39.4121 257.277 39.2363 256.803 39.2363 256.182C39.2363 255.549 39.4121 255.068 39.7637 254.74C40.127 254.424 40.5605 254.266 41.0645 254.266ZM33.0313 266.254H17V263.002H36.0195V266.166L33.0313 266.254ZM36.125 272.195L33.1016 272.178C33.1602 271.908 33.1953 271.65 33.207 271.404C33.2305 271.17 33.2422 270.9 33.2422 270.596C33.2422 269.846 33.125 269.184 32.8906 268.609C32.6563 268.035 32.3281 267.549 31.9063 267.15C31.4844 266.752 30.9805 266.436 30.3945 266.201C29.8203 265.979 29.1875 265.832 28.4961 265.762L27.9688 264.848C29.1172 264.848 30.1953 264.959 31.2031 265.182C32.2109 265.416 33.1016 265.773 33.875 266.254C34.6602 266.734 35.2695 267.344 35.7031 268.082C36.1484 268.832 36.3711 269.723 36.3711 270.754C36.3711 270.988 36.3418 271.258 36.2832 271.562C36.2363 271.867 36.1836 272.078 36.125 272.195ZM16.6484 282.742C16.6484 281.418 16.8711 280.217 17.3164 279.139C17.7734 278.072 18.4121 277.152 19.2324 276.379C20.0527 275.617 21.0254 275.031 22.1504 274.621C23.2754 274.211 24.5059 274.006 25.8418 274.006H26.5801C28.127 274.006 29.5039 274.234 30.7109 274.691C31.9297 275.148 32.9609 275.77 33.8047 276.555C34.6484 277.34 35.2871 278.23 35.7207 279.227C36.1543 280.223 36.3711 281.254 36.3711 282.32C36.3711 283.68 36.1367 284.852 35.668 285.836C35.1992 286.832 34.543 287.646 33.6992 288.279C32.8672 288.912 31.8828 289.381 30.7461 289.686C29.6211 289.99 28.3906 290.143 27.0547 290.143H25.5957V275.939H28.25V286.891H28.4961C29.3398 286.844 30.1602 286.668 30.957 286.363C31.7539 286.07 32.4102 285.602 32.9258 284.957C33.4414 284.312 33.6992 283.434 33.6992 282.32C33.6992 281.582 33.541 280.902 33.2246 280.281C32.9199 279.66 32.4629 279.127 31.8535 278.682C31.2441 278.236 30.5 277.891 29.6211 277.645C28.7422 277.398 27.7285 277.275 26.5801 277.275H25.8418C24.9395 277.275 24.0898 277.398 23.293 277.645C22.5078 277.902 21.8164 278.271 21.2188 278.752C20.6211 279.244 20.1523 279.836 19.8125 280.527C19.4727 281.23 19.3027 282.027 19.3027 282.918C19.3027 284.066 19.5371 285.039 20.0059 285.836C20.4746 286.633 21.1016 287.33 21.8867 287.928L20.3223 289.896C19.7012 289.486 19.1094 288.965 18.5469 288.332C17.9844 287.699 17.5273 286.92 17.1758 285.994C16.8242 285.08 16.6484 283.996 16.6484 282.742ZM19.3203 301.551C19.3203 302.324 19.4785 303.039 19.7949 303.695C20.1113 304.352 20.5449 304.891 21.0957 305.312C21.6582 305.734 22.2969 305.975 23.0117 306.033V309.127C21.8867 309.068 20.8379 308.688 19.8652 307.984C18.9043 307.293 18.125 306.385 17.5273 305.26C16.9414 304.135 16.6484 302.898 16.6484 301.551C16.6484 300.121 16.9004 298.873 17.4043 297.807C17.9082 296.752 18.5996 295.873 19.4785 295.17C20.3574 294.479 21.3652 293.957 22.502 293.605C23.6504 293.266 24.8633 293.096 26.1406 293.096H26.8789C28.1563 293.096 29.3633 293.266 30.5 293.605C31.6484 293.957 32.6621 294.479 33.541 295.17C34.4199 295.873 35.1113 296.752 35.6152 297.807C36.1191 298.873 36.3711 300.121 36.3711 301.551C36.3711 303.039 36.0664 304.34 35.457 305.453C34.8594 306.566 34.0391 307.439 32.9961 308.072C31.9648 308.717 30.793 309.068 29.4805 309.127V306.033C30.2656 305.975 30.9746 305.752 31.6074 305.365C32.2402 304.99 32.7441 304.475 33.1191 303.818C33.5059 303.174 33.6992 302.418 33.6992 301.551C33.6992 300.555 33.5 299.717 33.1016 299.037C32.7148 298.369 32.1875 297.836 31.5195 297.438C30.8633 297.051 30.1309 296.77 29.3223 296.594C28.5254 296.43 27.7109 296.348 26.8789 296.348H26.1406C25.3086 296.348 24.4883 296.43 23.6797 296.594C22.8711 296.758 22.1387 297.033 21.4824 297.42C20.8262 297.818 20.2988 298.352 19.9004 299.02C19.5137 299.699 19.3203 300.543 19.3203 301.551ZM36.0195 320.746H33.5234V310.463H36.0195V320.746ZM40.6426 313.943V317.195H21.7109C21.0664 317.195 20.5801 317.295 20.252 317.494C19.9238 317.693 19.707 317.951 19.6016 318.268C19.4961 318.584 19.4434 318.924 19.4434 319.287C19.4434 319.557 19.4668 319.838 19.5137 320.131C19.5723 320.436 19.6191 320.664 19.6543 320.816L17 320.834C16.918 320.576 16.8418 320.236 16.7715 319.814C16.6895 319.404 16.6484 318.906 16.6484 318.32C16.6484 317.523 16.8066 316.791 17.123 316.123C17.4395 315.455 17.9668 314.922 18.7051 314.523C19.4551 314.137 20.4629 313.943 21.7285 313.943H40.6426ZM36.0195 328.094H17V324.824H36.0195V328.094ZM41.0645 324.578C41.5918 324.578 42.0371 324.736 42.4004 325.053C42.7637 325.381 42.9453 325.861 42.9453 326.494C42.9453 327.115 42.7637 327.59 42.4004 327.918C42.0371 328.258 41.5918 328.428 41.0645 328.428C40.5605 328.428 40.127 328.258 39.7637 327.918C39.4121 327.59 39.2363 327.115 39.2363 326.494C39.2363 325.861 39.4121 325.381 39.7637 325.053C40.127 324.736 40.5605 324.578 41.0645 324.578ZM26.2988 332.453H26.7031C28.0742 332.453 29.3457 332.652 30.5176 333.051C31.7012 333.449 32.7266 334.023 33.5938 334.773C34.4727 335.523 35.1523 336.432 35.6328 337.498C36.125 338.564 36.3711 339.76 36.3711 341.084C36.3711 342.42 36.125 343.621 35.6328 344.688C35.1523 345.766 34.4727 346.68 33.5938 347.43C32.7266 348.191 31.7012 348.771 30.5176 349.17C29.3457 349.568 28.0742 349.768 26.7031 349.768H26.2988C24.9277 349.768 23.6563 349.568 22.4844 349.17C21.3125 348.771 20.2871 348.191 19.4082 347.43C18.541 346.68 17.8613 345.771 17.3691 344.705C16.8887 343.65 16.6484 342.455 16.6484 341.119C16.6484 339.783 16.8887 338.582 17.3691 337.516C17.8613 336.449 18.541 335.535 19.4082 334.773C20.2871 334.023 21.3125 333.449 22.4844 333.051C23.6563 332.652 24.9277 332.453 26.2988 332.453ZM26.7031 335.705H26.2988C25.3496 335.705 24.4531 335.816 23.6094 336.039C22.7773 336.262 22.0391 336.596 21.3945 337.041C20.75 337.498 20.2402 338.066 19.8652 338.746C19.502 339.426 19.3203 340.217 19.3203 341.119C19.3203 342.01 19.502 342.789 19.8652 343.457C20.2402 344.137 20.75 344.699 21.3945 345.145C22.0391 345.59 22.7773 345.924 23.6094 346.146C24.4531 346.381 25.3496 346.498 26.2988 346.498H26.7031C27.6406 346.498 28.5254 346.381 29.3574 346.146C30.2012 345.924 30.9453 345.584 31.5898 345.127C32.2461 344.682 32.7617 344.119 33.1367 343.439C33.5117 342.771 33.6992 341.986 33.6992 341.084C33.6992 340.193 33.5117 339.408 33.1367 338.729C32.7617 338.061 32.2461 337.498 31.5898 337.041C30.9453 336.596 30.2012 336.262 29.3574 336.039C28.5254 335.816 27.6406 335.705 26.7031 335.705ZM31.959 357.098H17V353.846H36.0195V356.922L31.959 357.098ZM27.2305 356.324L27.2832 354.971C28.584 354.982 29.7852 355.176 30.8867 355.551C32 355.926 32.9668 356.453 33.7871 357.133C34.6074 357.812 35.2402 358.621 35.6855 359.559C36.1426 360.508 36.3711 361.557 36.3711 362.705C36.3711 363.643 36.2422 364.486 35.9844 365.236C35.7383 365.986 35.3398 366.625 34.7891 367.152C34.2383 367.691 33.5234 368.102 32.6445 368.383C31.7773 368.664 30.7168 368.805 29.4629 368.805H17V365.535H29.498C30.4941 365.535 31.291 365.389 31.8887 365.096C32.498 364.803 32.9375 364.375 33.207 363.812C33.4883 363.25 33.6289 362.559 33.6289 361.738C33.6289 360.93 33.459 360.191 33.1191 359.523C32.7793 358.867 32.3105 358.299 31.7129 357.818C31.1152 357.35 30.4297 356.98 29.6563 356.711C28.8945 356.453 28.0859 356.324 27.2305 356.324Z" fill="#058105"/>
<path d="M48.9393 451.061C49.5251 451.646 50.4749 451.646 51.0606 451.061L60.6066 441.515C61.1924 440.929 61.1924 439.979 60.6066 439.393C60.0208 438.808 59.0711 438.808 58.4853 439.393L50 447.879L41.5147 439.393C40.9289 438.808 39.9792 438.808 39.3934 439.393C38.8076 439.979 38.8076 440.929 39.3934 441.515L48.9393 451.061ZM48.5 50L48.5 450L51.5 450L51.5 50L48.5 50Z" fill="#058105"/>
<path d="M451.061 51.0607C451.646 50.4749 451.646 49.5251 451.061 48.9393L441.515 39.3934C440.929 38.8076 439.979 38.8076 439.393 39.3934C438.808 39.9792 438.808 40.9289 439.393 41.5147L447.879 50L439.393 58.4853C438.808 59.0711 438.808 60.0208 439.393 60.6066C439.979 61.1924 440.929 61.1924 441.515 60.6066L451.061 51.0607ZM50 51.5H450V48.5H50V51.5Z" fill="#6C41E7"/>
<path d="M139.012 21.9805V41H135.742V21.9805H139.012ZM135.496 16.9355C135.496 16.4082 135.654 15.9629 135.971 15.5996C136.299 15.2363 136.779 15.0547 137.412 15.0547C138.033 15.0547 138.508 15.2363 138.836 15.5996C139.176 15.9629 139.346 16.4082 139.346 16.9355C139.346 17.4395 139.176 17.873 138.836 18.2363C138.508 18.5879 138.033 18.7637 137.412 18.7637C136.779 18.7637 136.299 18.5879 135.971 18.2363C135.654 17.873 135.496 17.4395 135.496 16.9355ZM147.484 26.041V41H144.232V21.9805H147.309L147.484 26.041ZM146.711 30.7695L145.357 30.7168C145.369 29.416 145.562 28.2148 145.938 27.1133C146.312 26 146.84 25.0332 147.52 24.2129C148.199 23.3926 149.008 22.7598 149.945 22.3145C150.895 21.8574 151.943 21.6289 153.092 21.6289C154.029 21.6289 154.873 21.7578 155.623 22.0156C156.373 22.2617 157.012 22.6602 157.539 23.2109C158.078 23.7617 158.488 24.4766 158.77 25.3555C159.051 26.2227 159.191 27.2832 159.191 28.5371V41H155.922V28.502C155.922 27.5059 155.775 26.709 155.482 26.1113C155.189 25.502 154.762 25.0625 154.199 24.793C153.637 24.5117 152.945 24.3711 152.125 24.3711C151.316 24.3711 150.578 24.541 149.91 24.8809C149.254 25.2207 148.686 25.6895 148.205 26.2871C147.736 26.8848 147.367 27.5703 147.098 28.3438C146.84 29.1055 146.711 29.9141 146.711 30.7695ZM167.664 14V41H164.395V14H167.664ZM176.418 21.9805V41H173.148V21.9805H176.418ZM172.902 16.9355C172.902 16.4082 173.061 15.9629 173.377 15.5996C173.705 15.2363 174.186 15.0547 174.818 15.0547C175.439 15.0547 175.914 15.2363 176.242 15.5996C176.582 15.9629 176.752 16.4082 176.752 16.9355C176.752 17.4395 176.582 17.873 176.242 18.2363C175.914 18.5879 175.439 18.7637 174.818 18.7637C174.186 18.7637 173.705 18.5879 173.377 18.2363C173.061 17.873 172.902 17.4395 172.902 16.9355ZM184.891 26.041V41H181.639V21.9805H184.715L184.891 26.041ZM184.117 30.7695L182.764 30.7168C182.775 29.416 182.969 28.2148 183.344 27.1133C183.719 26 184.246 25.0332 184.926 24.2129C185.605 23.3926 186.414 22.7598 187.352 22.3145C188.301 21.8574 189.35 21.6289 190.498 21.6289C191.436 21.6289 192.279 21.7578 193.029 22.0156C193.779 22.2617 194.418 22.6602 194.945 23.2109C195.484 23.7617 195.895 24.4766 196.176 25.3555C196.457 26.2227 196.598 27.2832 196.598 28.5371V41H193.328V28.502C193.328 27.5059 193.182 26.709 192.889 26.1113C192.596 25.502 192.168 25.0625 191.605 24.793C191.043 24.5117 190.352 24.3711 189.531 24.3711C188.723 24.3711 187.984 24.541 187.316 24.8809C186.66 25.2207 186.092 25.6895 185.611 26.2871C185.143 26.8848 184.773 27.5703 184.504 28.3438C184.246 29.1055 184.117 29.9141 184.117 30.7695ZM209.43 41.3516C208.105 41.3516 206.904 41.1289 205.826 40.6836C204.76 40.2266 203.84 39.5879 203.066 38.7676C202.305 37.9473 201.719 36.9746 201.309 35.8496C200.898 34.7246 200.693 33.4941 200.693 32.1582V31.4199C200.693 29.873 200.922 28.4961 201.379 27.2891C201.836 26.0703 202.457 25.0391 203.242 24.1953C204.027 23.3516 204.918 22.7129 205.914 22.2793C206.91 21.8457 207.941 21.6289 209.008 21.6289C210.367 21.6289 211.539 21.8633 212.523 22.332C213.52 22.8008 214.334 23.457 214.967 24.3008C215.6 25.1328 216.068 26.1172 216.373 27.2539C216.678 28.3789 216.83 29.6094 216.83 30.9453V32.4043H202.627V29.75H213.578V29.5039C213.531 28.6602 213.355 27.8398 213.051 27.043C212.758 26.2461 212.289 25.5898 211.645 25.0742C211 24.5586 210.121 24.3008 209.008 24.3008C208.27 24.3008 207.59 24.459 206.969 24.7754C206.348 25.0801 205.814 25.5371 205.369 26.1465C204.924 26.7559 204.578 27.5 204.332 28.3789C204.086 29.2578 203.963 30.2715 203.963 31.4199V32.1582C203.963 33.0605 204.086 33.9102 204.332 34.707C204.59 35.4922 204.959 36.1836 205.439 36.7812C205.932 37.3789 206.523 37.8477 207.215 38.1875C207.918 38.5273 208.715 38.6973 209.605 38.6973C210.754 38.6973 211.727 38.4629 212.523 37.9941C213.32 37.5254 214.018 36.8984 214.615 36.1133L216.584 37.6777C216.174 38.2988 215.652 38.8906 215.02 39.4531C214.387 40.0156 213.607 40.4727 212.682 40.8242C211.768 41.1758 210.684 41.3516 209.43 41.3516ZM241.545 37.3086V14H244.814V41H241.826L241.545 37.3086ZM228.748 31.7012V31.332C228.748 29.8789 228.924 28.5605 229.275 27.377C229.639 26.1816 230.148 25.1562 230.805 24.3008C231.473 23.4453 232.264 22.7891 233.178 22.332C234.104 21.8633 235.135 21.6289 236.271 21.6289C237.467 21.6289 238.51 21.8398 239.4 22.2617C240.303 22.6719 241.064 23.2754 241.686 24.0723C242.318 24.8574 242.816 25.8066 243.18 26.9199C243.543 28.0332 243.795 29.293 243.936 30.6992V32.3164C243.807 33.7109 243.555 34.9648 243.18 36.0781C242.816 37.1914 242.318 38.1406 241.686 38.9258C241.064 39.7109 240.303 40.3145 239.4 40.7363C238.498 41.1465 237.443 41.3516 236.236 41.3516C235.123 41.3516 234.104 41.1113 233.178 40.6309C232.264 40.1504 231.473 39.4766 230.805 38.6094C230.148 37.7422 229.639 36.7227 229.275 35.5508C228.924 34.3672 228.748 33.084 228.748 31.7012ZM232.018 31.332V31.7012C232.018 32.6504 232.111 33.541 232.299 34.373C232.498 35.2051 232.803 35.9375 233.213 36.5703C233.623 37.2031 234.145 37.7012 234.777 38.0645C235.41 38.416 236.166 38.5918 237.045 38.5918C238.123 38.5918 239.008 38.3633 239.699 37.9062C240.402 37.4492 240.965 36.8457 241.387 36.0957C241.809 35.3457 242.137 34.5312 242.371 33.6523V29.416C242.23 28.7715 242.025 28.1504 241.756 27.5527C241.498 26.9434 241.158 26.4043 240.736 25.9355C240.326 25.4551 239.816 25.0742 239.207 24.793C238.609 24.5117 237.9 24.3711 237.08 24.3711C236.189 24.3711 235.422 24.5586 234.777 24.9336C234.145 25.2969 233.623 25.8008 233.213 26.4453C232.803 27.0781 232.498 27.8164 232.299 28.6602C232.111 29.4922 232.018 30.3828 232.018 31.332ZM253.41 21.9805V41H250.141V21.9805H253.41ZM249.895 16.9355C249.895 16.4082 250.053 15.9629 250.369 15.5996C250.697 15.2363 251.178 15.0547 251.811 15.0547C252.432 15.0547 252.906 15.2363 253.234 15.5996C253.574 15.9629 253.744 16.4082 253.744 16.9355C253.744 17.4395 253.574 17.873 253.234 18.2363C252.906 18.5879 252.432 18.7637 251.811 18.7637C251.178 18.7637 250.697 18.5879 250.369 18.2363C250.053 17.873 249.895 17.4395 249.895 16.9355ZM261.883 24.9688V41H258.631V21.9805H261.795L261.883 24.9688ZM267.824 21.875L267.807 24.8984C267.537 24.8398 267.279 24.8047 267.033 24.793C266.799 24.7695 266.529 24.7578 266.225 24.7578C265.475 24.7578 264.812 24.875 264.238 25.1094C263.664 25.3438 263.178 25.6719 262.779 26.0938C262.381 26.5156 262.064 27.0195 261.83 27.6055C261.607 28.1797 261.461 28.8125 261.391 29.5039L260.477 30.0312C260.477 28.8828 260.588 27.8047 260.811 26.7969C261.045 25.7891 261.402 24.8984 261.883 24.125C262.363 23.3398 262.973 22.7305 263.711 22.2969C264.461 21.8516 265.352 21.6289 266.383 21.6289C266.617 21.6289 266.887 21.6582 267.191 21.7168C267.496 21.7637 267.707 21.8164 267.824 21.875ZM278.371 41.3516C277.047 41.3516 275.846 41.1289 274.768 40.6836C273.701 40.2266 272.781 39.5879 272.008 38.7676C271.246 37.9473 270.66 36.9746 270.25 35.8496C269.84 34.7246 269.635 33.4941 269.635 32.1582V31.4199C269.635 29.873 269.863 28.4961 270.32 27.2891C270.777 26.0703 271.398 25.0391 272.184 24.1953C272.969 23.3516 273.859 22.7129 274.855 22.2793C275.852 21.8457 276.883 21.6289 277.949 21.6289C279.309 21.6289 280.48 21.8633 281.465 22.332C282.461 22.8008 283.275 23.457 283.908 24.3008C284.541 25.1328 285.01 26.1172 285.314 27.2539C285.619 28.3789 285.771 29.6094 285.771 30.9453V32.4043H271.568V29.75H282.52V29.5039C282.473 28.6602 282.297 27.8398 281.992 27.043C281.699 26.2461 281.23 25.5898 280.586 25.0742C279.941 24.5586 279.062 24.3008 277.949 24.3008C277.211 24.3008 276.531 24.459 275.91 24.7754C275.289 25.0801 274.756 25.5371 274.311 26.1465C273.865 26.7559 273.52 27.5 273.273 28.3789C273.027 29.2578 272.904 30.2715 272.904 31.4199V32.1582C272.904 33.0605 273.027 33.9102 273.273 34.707C273.531 35.4922 273.9 36.1836 274.381 36.7812C274.873 37.3789 275.465 37.8477 276.156 38.1875C276.859 38.5273 277.656 38.6973 278.547 38.6973C279.695 38.6973 280.668 38.4629 281.465 37.9941C282.262 37.5254 282.959 36.8984 283.557 36.1133L285.525 37.6777C285.115 38.2988 284.594 38.8906 283.961 39.4531C283.328 40.0156 282.549 40.4727 281.623 40.8242C280.709 41.1758 279.625 41.3516 278.371 41.3516ZM297.18 38.6797C297.953 38.6797 298.668 38.5215 299.324 38.2051C299.98 37.8887 300.52 37.4551 300.941 36.9043C301.363 36.3418 301.604 35.7031 301.662 34.9883H304.756C304.697 36.1133 304.316 37.1621 303.613 38.1348C302.922 39.0957 302.014 39.875 300.889 40.4727C299.764 41.0586 298.527 41.3516 297.18 41.3516C295.75 41.3516 294.502 41.0996 293.436 40.5957C292.381 40.0918 291.502 39.4004 290.799 38.5215C290.107 37.6426 289.586 36.6348 289.234 35.498C288.895 34.3496 288.725 33.1367 288.725 31.8594V31.1211C288.725 29.8438 288.895 28.6367 289.234 27.5C289.586 26.3516 290.107 25.3379 290.799 24.459C291.502 23.5801 292.381 22.8887 293.436 22.3848C294.502 21.8809 295.75 21.6289 297.18 21.6289C298.668 21.6289 299.969 21.9336 301.082 22.543C302.195 23.1406 303.068 23.9609 303.701 25.0039C304.346 26.0352 304.697 27.207 304.756 28.5195H301.662C301.604 27.7344 301.381 27.0254 300.994 26.3926C300.619 25.7598 300.104 25.2559 299.447 24.8809C298.803 24.4941 298.047 24.3008 297.18 24.3008C296.184 24.3008 295.346 24.5 294.666 24.8984C293.998 25.2852 293.465 25.8125 293.066 26.4805C292.68 27.1367 292.398 27.8691 292.223 28.6777C292.059 29.4746 291.977 30.2891 291.977 31.1211V31.8594C291.977 32.6914 292.059 33.5117 292.223 34.3203C292.387 35.1289 292.662 35.8613 293.049 36.5176C293.447 37.1738 293.98 37.7012 294.648 38.0996C295.328 38.4863 296.172 38.6797 297.18 38.6797ZM316.375 21.9805V24.4766H306.092V21.9805H316.375ZM309.572 17.3574H312.824V36.2891C312.824 36.9336 312.924 37.4199 313.123 37.748C313.322 38.0762 313.58 38.293 313.896 38.3984C314.213 38.5039 314.553 38.5566 314.916 38.5566C315.186 38.5566 315.467 38.5332 315.76 38.4863C316.064 38.4277 316.293 38.3809 316.445 38.3457L316.463 41C316.205 41.082 315.865 41.1582 315.443 41.2285C315.033 41.3105 314.535 41.3516 313.949 41.3516C313.152 41.3516 312.42 41.1934 311.752 40.877C311.084 40.5605 310.551 40.0332 310.152 39.2949C309.766 38.5449 309.572 37.5371 309.572 36.2715V17.3574ZM323.723 21.9805V41H320.453V21.9805H323.723ZM320.207 16.9355C320.207 16.4082 320.365 15.9629 320.682 15.5996C321.01 15.2363 321.49 15.0547 322.123 15.0547C322.744 15.0547 323.219 15.2363 323.547 15.5996C323.887 15.9629 324.057 16.4082 324.057 16.9355C324.057 17.4395 323.887 17.873 323.547 18.2363C323.219 18.5879 322.744 18.7637 322.123 18.7637C321.49 18.7637 321.01 18.5879 320.682 18.2363C320.365 17.873 320.207 17.4395 320.207 16.9355ZM328.082 31.7012V31.2969C328.082 29.9258 328.281 28.6543 328.68 27.4824C329.078 26.2988 329.652 25.2734 330.402 24.4062C331.152 23.5273 332.061 22.8477 333.127 22.3672C334.193 21.875 335.389 21.6289 336.713 21.6289C338.049 21.6289 339.25 21.875 340.316 22.3672C341.395 22.8477 342.309 23.5273 343.059 24.4062C343.82 25.2734 344.4 26.2988 344.799 27.4824C345.197 28.6543 345.396 29.9258 345.396 31.2969V31.7012C345.396 33.0723 345.197 34.3438 344.799 35.5156C344.4 36.6875 343.82 37.7129 343.059 38.5918C342.309 39.459 341.4 40.1387 340.334 40.6309C339.279 41.1113 338.084 41.3516 336.748 41.3516C335.412 41.3516 334.211 41.1113 333.145 40.6309C332.078 40.1387 331.164 39.459 330.402 38.5918C329.652 37.7129 329.078 36.6875 328.68 35.5156C328.281 34.3438 328.082 33.0723 328.082 31.7012ZM331.334 31.2969V31.7012C331.334 32.6504 331.445 33.5469 331.668 34.3906C331.891 35.2227 332.225 35.9609 332.67 36.6055C333.127 37.25 333.695 37.7598 334.375 38.1348C335.055 38.498 335.846 38.6797 336.748 38.6797C337.639 38.6797 338.418 38.498 339.086 38.1348C339.766 37.7598 340.328 37.25 340.773 36.6055C341.219 35.9609 341.553 35.2227 341.775 34.3906C342.01 33.5469 342.127 32.6504 342.127 31.7012V31.2969C342.127 30.3594 342.01 29.4746 341.775 28.6426C341.553 27.7988 341.213 27.0547 340.756 26.4102C340.311 25.7539 339.748 25.2383 339.068 24.8633C338.4 24.4883 337.615 24.3008 336.713 24.3008C335.822 24.3008 335.037 24.4883 334.357 24.8633C333.689 25.2383 333.127 25.7539 332.67 26.4102C332.225 27.0547 331.891 27.7988 331.668 28.6426C331.445 29.4746 331.334 30.3594 331.334 31.2969ZM352.727 26.041V41H349.475V21.9805H352.551L352.727 26.041ZM351.953 30.7695L350.6 30.7168C350.611 29.416 350.805 28.2148 351.18 27.1133C351.555 26 352.082 25.0332 352.762 24.2129C353.441 23.3926 354.25 22.7598 355.188 22.3145C356.137 21.8574 357.186 21.6289 358.334 21.6289C359.271 21.6289 360.115 21.7578 360.865 22.0156C361.615 22.2617 362.254 22.6602 362.781 23.2109C363.32 23.7617 363.73 24.4766 364.012 25.3555C364.293 26.2227 364.434 27.2832 364.434 28.5371V41H361.164V28.502C361.164 27.5059 361.018 26.709 360.725 26.1113C360.432 25.502 360.004 25.0625 359.441 24.793C358.879 24.5117 358.188 24.3711 357.367 24.3711C356.559 24.3711 355.82 24.541 355.152 24.8809C354.496 25.2207 353.928 25.6895 353.447 26.2871C352.979 26.8848 352.609 27.5703 352.34 28.3438C352.082 29.1055 351.953 29.9141 351.953 30.7695Z" fill="#6C41E7"/>
<path d="M429.061 172.939C428.475 172.354 427.525 172.354 426.939 172.939L417.393 182.485C416.808 183.071 416.808 184.021 417.393 184.607C417.979 185.192 418.929 185.192 419.515 184.607L428 176.121L436.485 184.607C437.071 185.192 438.021 185.192 438.607 184.607C439.192 184.021 439.192 183.071 438.607 182.485L429.061 172.939ZM429.5 374V174H426.5V374H429.5Z" fill="#FC8C25"/>
<path d="M402 336.66H417V338.477H402V336.66ZM406.434 331.797H417V333.613H406.434V331.797ZM403.631 333.75C403.338 333.75 403.09 333.662 402.889 333.486C402.687 333.304 402.586 333.037 402.586 332.686C402.586 332.34 402.687 332.077 402.889 331.895C403.09 331.706 403.338 331.611 403.631 331.611C403.911 331.611 404.152 331.706 404.354 331.895C404.549 332.077 404.646 332.34 404.646 332.686C404.646 333.037 404.549 333.304 404.354 333.486C404.152 333.662 403.911 333.75 403.631 333.75ZM408.689 327.09H417V328.896H406.434V327.188L408.689 327.09ZM411.316 327.52L411.287 328.271C410.564 328.265 409.897 328.158 409.285 327.949C408.667 327.741 408.13 327.448 407.674 327.07C407.218 326.693 406.867 326.243 406.619 325.723C406.365 325.195 406.238 324.613 406.238 323.975C406.238 323.454 406.31 322.985 406.453 322.568C406.59 322.152 406.811 321.797 407.117 321.504C407.423 321.204 407.82 320.977 408.309 320.82C408.79 320.664 409.38 320.586 410.076 320.586H417V322.402H410.057C409.503 322.402 409.061 322.484 408.729 322.646C408.39 322.809 408.146 323.047 407.996 323.359C407.84 323.672 407.762 324.056 407.762 324.512C407.762 324.961 407.856 325.371 408.045 325.742C408.234 326.107 408.494 326.423 408.826 326.689C409.158 326.95 409.539 327.155 409.969 327.305C410.392 327.448 410.841 327.52 411.316 327.52ZM417.195 313.457C417.195 314.193 417.072 314.86 416.824 315.459C416.57 316.051 416.215 316.562 415.76 316.992C415.304 317.415 414.764 317.741 414.139 317.969C413.514 318.197 412.83 318.311 412.088 318.311H411.678C410.818 318.311 410.053 318.184 409.383 317.93C408.706 317.676 408.133 317.331 407.664 316.895C407.195 316.458 406.84 315.964 406.6 315.41C406.359 314.857 406.238 314.284 406.238 313.691C406.238 312.936 406.368 312.285 406.629 311.738C406.889 311.185 407.254 310.732 407.723 310.381C408.185 310.029 408.732 309.769 409.363 309.6C409.988 309.43 410.672 309.346 411.414 309.346H412.225V317.236H410.75V311.152H410.613C410.145 311.178 409.689 311.276 409.246 311.445C408.803 311.608 408.439 311.868 408.152 312.227C407.866 312.585 407.723 313.073 407.723 313.691C407.723 314.102 407.811 314.479 407.986 314.824C408.156 315.169 408.41 315.465 408.748 315.713C409.087 315.96 409.5 316.152 409.988 316.289C410.477 316.426 411.04 316.494 411.678 316.494H412.088C412.589 316.494 413.061 316.426 413.504 316.289C413.94 316.146 414.324 315.941 414.656 315.674C414.988 315.4 415.249 315.072 415.438 314.688C415.626 314.297 415.721 313.854 415.721 313.359C415.721 312.721 415.59 312.181 415.33 311.738C415.07 311.296 414.721 310.908 414.285 310.576L415.154 309.482C415.499 309.71 415.828 310 416.141 310.352C416.453 310.703 416.707 311.136 416.902 311.65C417.098 312.158 417.195 312.76 417.195 313.457ZM411.834 302.754H411.609C410.848 302.754 410.141 302.643 409.49 302.422C408.833 302.201 408.263 301.882 407.781 301.465C407.293 301.048 406.915 300.544 406.648 299.951C406.375 299.359 406.238 298.695 406.238 297.959C406.238 297.217 406.375 296.549 406.648 295.957C406.915 295.358 407.293 294.85 407.781 294.434C408.263 294.01 408.833 293.688 409.49 293.467C410.141 293.245 410.848 293.135 411.609 293.135H411.834C412.596 293.135 413.302 293.245 413.953 293.467C414.604 293.688 415.174 294.01 415.662 294.434C416.144 294.85 416.521 295.355 416.795 295.947C417.062 296.533 417.195 297.197 417.195 297.939C417.195 298.682 417.062 299.349 416.795 299.941C416.521 300.534 416.144 301.042 415.662 301.465C415.174 301.882 414.604 302.201 413.953 302.422C413.302 302.643 412.596 302.754 411.834 302.754ZM411.609 300.947H411.834C412.361 300.947 412.859 300.885 413.328 300.762C413.79 300.638 414.201 300.452 414.559 300.205C414.917 299.951 415.2 299.635 415.408 299.258C415.61 298.88 415.711 298.441 415.711 297.939C415.711 297.445 415.61 297.012 415.408 296.641C415.2 296.263 414.917 295.951 414.559 295.703C414.201 295.456 413.79 295.27 413.328 295.146C412.859 295.016 412.361 294.951 411.834 294.951H411.609C411.089 294.951 410.597 295.016 410.135 295.146C409.666 295.27 409.253 295.459 408.895 295.713C408.53 295.96 408.243 296.273 408.035 296.65C407.827 297.021 407.723 297.458 407.723 297.959C407.723 298.454 407.827 298.89 408.035 299.268C408.243 299.639 408.53 299.951 408.895 300.205C409.253 300.452 409.666 300.638 410.135 300.762C410.597 300.885 411.089 300.947 411.609 300.947ZM408.094 289.062H417V290.869H406.434V289.111L408.094 289.062ZM406.375 285.762L408.055 285.771C408.022 285.921 408.003 286.064 407.996 286.201C407.983 286.331 407.977 286.481 407.977 286.65C407.977 287.067 408.042 287.435 408.172 287.754C408.302 288.073 408.484 288.343 408.719 288.564C408.953 288.786 409.233 288.962 409.559 289.092C409.878 289.215 410.229 289.297 410.613 289.336L410.906 289.844C410.268 289.844 409.669 289.782 409.109 289.658C408.549 289.528 408.055 289.329 407.625 289.062C407.189 288.796 406.85 288.457 406.609 288.047C406.362 287.63 406.238 287.135 406.238 286.562C406.238 286.432 406.255 286.283 406.287 286.113C406.313 285.944 406.342 285.827 406.375 285.762ZM406.434 282.129H417V283.945H406.434V282.129ZM403.631 284.082C403.338 284.082 403.09 283.994 402.889 283.818C402.687 283.636 402.586 283.369 402.586 283.018C402.586 282.673 402.687 282.409 402.889 282.227C403.09 282.038 403.338 281.943 403.631 281.943C403.911 281.943 404.152 282.038 404.354 282.227C404.549 282.409 404.646 282.673 404.646 283.018C404.646 283.369 404.549 283.636 404.354 283.818C404.152 283.994 403.911 284.082 403.631 284.082ZM417.195 274.844C417.195 275.579 417.072 276.247 416.824 276.846C416.57 277.438 416.215 277.949 415.76 278.379C415.304 278.802 414.764 279.128 414.139 279.355C413.514 279.583 412.83 279.697 412.088 279.697H411.678C410.818 279.697 410.053 279.57 409.383 279.316C408.706 279.062 408.133 278.717 407.664 278.281C407.195 277.845 406.84 277.35 406.6 276.797C406.359 276.243 406.238 275.671 406.238 275.078C406.238 274.323 406.368 273.672 406.629 273.125C406.889 272.572 407.254 272.119 407.723 271.768C408.185 271.416 408.732 271.156 409.363 270.986C409.988 270.817 410.672 270.732 411.414 270.732H412.225V278.623H410.75V272.539H410.613C410.145 272.565 409.689 272.663 409.246 272.832C408.803 272.995 408.439 273.255 408.152 273.613C407.866 273.971 407.723 274.46 407.723 275.078C407.723 275.488 407.811 275.866 407.986 276.211C408.156 276.556 408.41 276.852 408.748 277.1C409.087 277.347 409.5 277.539 409.988 277.676C410.477 277.812 411.04 277.881 411.678 277.881H412.088C412.589 277.881 413.061 277.812 413.504 277.676C413.94 277.533 414.324 277.327 414.656 277.061C414.988 276.787 415.249 276.458 415.438 276.074C415.626 275.684 415.721 275.241 415.721 274.746C415.721 274.108 415.59 273.568 415.33 273.125C415.07 272.682 414.721 272.295 414.285 271.963L415.154 270.869C415.499 271.097 415.828 271.387 416.141 271.738C416.453 272.09 416.707 272.523 416.902 273.037C417.098 273.545 417.195 274.147 417.195 274.844ZM408.689 266.816H417V268.623H406.434V266.914L408.689 266.816ZM411.316 267.246L411.287 267.998C410.564 267.992 409.897 267.884 409.285 267.676C408.667 267.467 408.13 267.174 407.674 266.797C407.218 266.419 406.867 265.97 406.619 265.449C406.365 264.922 406.238 264.339 406.238 263.701C406.238 263.18 406.31 262.712 406.453 262.295C406.59 261.878 406.811 261.523 407.117 261.23C407.423 260.931 407.82 260.703 408.309 260.547C408.79 260.391 409.38 260.312 410.076 260.312H417V262.129H410.057C409.503 262.129 409.061 262.21 408.729 262.373C408.39 262.536 408.146 262.773 407.996 263.086C407.84 263.398 407.762 263.783 407.762 264.238C407.762 264.688 407.856 265.098 408.045 265.469C408.234 265.833 408.494 266.149 408.826 266.416C409.158 266.676 409.539 266.882 409.969 267.031C410.392 267.174 410.841 267.246 411.316 267.246ZM406.434 253.145H407.82V258.857H406.434V253.145ZM403.865 256.924V255.117H414.383C414.741 255.117 415.011 255.062 415.193 254.951C415.376 254.84 415.496 254.697 415.555 254.521C415.613 254.346 415.643 254.157 415.643 253.955C415.643 253.805 415.63 253.649 415.604 253.486C415.571 253.317 415.545 253.19 415.525 253.105L417 253.096C417.046 253.239 417.088 253.428 417.127 253.662C417.173 253.89 417.195 254.167 417.195 254.492C417.195 254.935 417.107 255.342 416.932 255.713C416.756 256.084 416.463 256.38 416.053 256.602C415.636 256.816 415.076 256.924 414.373 256.924H403.865ZM415.193 244.795H409.754C409.337 244.795 408.976 244.88 408.67 245.049C408.357 245.212 408.117 245.459 407.947 245.791C407.778 246.123 407.693 246.533 407.693 247.021C407.693 247.477 407.771 247.878 407.928 248.223C408.084 248.561 408.289 248.828 408.543 249.023C408.797 249.212 409.07 249.307 409.363 249.307V251.113C408.986 251.113 408.611 251.016 408.24 250.82C407.869 250.625 407.534 250.345 407.234 249.98C406.928 249.609 406.688 249.167 406.512 248.652C406.329 248.132 406.238 247.552 406.238 246.914C406.238 246.146 406.368 245.469 406.629 244.883C406.889 244.29 407.283 243.828 407.811 243.496C408.331 243.158 408.986 242.988 409.773 242.988H414.695C415.047 242.988 415.421 242.959 415.818 242.9C416.215 242.835 416.557 242.741 416.844 242.617H417V244.502C416.792 244.593 416.515 244.665 416.17 244.717C415.818 244.769 415.493 244.795 415.193 244.795ZM410.594 244.482L411.863 244.463V246.289C411.863 246.803 411.906 247.262 411.99 247.666C412.068 248.07 412.189 248.408 412.352 248.682C412.514 248.955 412.719 249.163 412.967 249.307C413.208 249.45 413.491 249.521 413.816 249.521C414.148 249.521 414.451 249.447 414.725 249.297C414.998 249.147 415.216 248.923 415.379 248.623C415.535 248.317 415.613 247.943 415.613 247.5C415.613 246.947 415.496 246.458 415.262 246.035C415.027 245.612 414.741 245.277 414.402 245.029C414.064 244.775 413.735 244.639 413.416 244.619L414.285 243.848C414.559 243.893 414.861 244.017 415.193 244.219C415.525 244.421 415.844 244.691 416.15 245.029C416.45 245.361 416.701 245.758 416.902 246.221C417.098 246.676 417.195 247.191 417.195 247.764C417.195 248.48 417.055 249.108 416.775 249.648C416.495 250.182 416.121 250.599 415.652 250.898C415.177 251.191 414.646 251.338 414.061 251.338C413.494 251.338 412.996 251.227 412.566 251.006C412.13 250.785 411.769 250.465 411.482 250.049C411.189 249.632 410.968 249.131 410.818 248.545C410.669 247.959 410.594 247.305 410.594 246.582V244.482ZM406.434 235.723H407.82V241.436H406.434V235.723ZM403.865 239.502V237.695H414.383C414.741 237.695 415.011 237.64 415.193 237.529C415.376 237.419 415.496 237.275 415.555 237.1C415.613 236.924 415.643 236.735 415.643 236.533C415.643 236.383 415.63 236.227 415.604 236.064C415.571 235.895 415.545 235.768 415.525 235.684L417 235.674C417.046 235.817 417.088 236.006 417.127 236.24C417.173 236.468 417.195 236.745 417.195 237.07C417.195 237.513 417.107 237.92 416.932 238.291C416.756 238.662 416.463 238.958 416.053 239.18C415.636 239.395 415.076 239.502 414.373 239.502H403.865ZM406.434 231.641H417V233.457H406.434V231.641ZM403.631 233.594C403.338 233.594 403.09 233.506 402.889 233.33C402.687 233.148 402.586 232.881 402.586 232.529C402.586 232.184 402.687 231.921 402.889 231.738C403.09 231.549 403.338 231.455 403.631 231.455C403.911 231.455 404.152 231.549 404.354 231.738C404.549 231.921 404.646 232.184 404.646 232.529C404.646 232.881 404.549 233.148 404.354 233.33C404.152 233.506 403.911 233.594 403.631 233.594ZM411.834 229.219H411.609C410.848 229.219 410.141 229.108 409.49 228.887C408.833 228.665 408.263 228.346 407.781 227.93C407.293 227.513 406.915 227.008 406.648 226.416C406.375 225.824 406.238 225.16 406.238 224.424C406.238 223.682 406.375 223.014 406.648 222.422C406.915 221.823 407.293 221.315 407.781 220.898C408.263 220.475 408.833 220.153 409.49 219.932C410.141 219.71 410.848 219.6 411.609 219.6H411.834C412.596 219.6 413.302 219.71 413.953 219.932C414.604 220.153 415.174 220.475 415.662 220.898C416.144 221.315 416.521 221.82 416.795 222.412C417.062 222.998 417.195 223.662 417.195 224.404C417.195 225.146 417.062 225.814 416.795 226.406C416.521 226.999 416.144 227.507 415.662 227.93C415.174 228.346 414.604 228.665 413.953 228.887C413.302 229.108 412.596 229.219 411.834 229.219ZM411.609 227.412H411.834C412.361 227.412 412.859 227.35 413.328 227.227C413.79 227.103 414.201 226.917 414.559 226.67C414.917 226.416 415.2 226.1 415.408 225.723C415.61 225.345 415.711 224.906 415.711 224.404C415.711 223.91 415.61 223.477 415.408 223.105C415.2 222.728 414.917 222.415 414.559 222.168C414.201 221.921 413.79 221.735 413.328 221.611C412.859 221.481 412.361 221.416 411.834 221.416H411.609C411.089 221.416 410.597 221.481 410.135 221.611C409.666 221.735 409.253 221.924 408.895 222.178C408.53 222.425 408.243 222.738 408.035 223.115C407.827 223.486 407.723 223.923 407.723 224.424C407.723 224.919 407.827 225.355 408.035 225.732C408.243 226.104 408.53 226.416 408.895 226.67C409.253 226.917 409.666 227.103 410.135 227.227C410.597 227.35 411.089 227.412 411.609 227.412ZM408.689 215.527H417V217.334H406.434V215.625L408.689 215.527ZM411.316 215.957L411.287 216.709C410.564 216.702 409.897 216.595 409.285 216.387C408.667 216.178 408.13 215.885 407.674 215.508C407.218 215.13 406.867 214.681 406.619 214.16C406.365 213.633 406.238 213.05 406.238 212.412C406.238 211.891 406.31 211.423 406.453 211.006C406.59 210.589 406.811 210.234 407.117 209.941C407.423 209.642 407.82 209.414 408.309 209.258C408.79 209.102 409.38 209.023 410.076 209.023H417V210.84H410.057C409.503 210.84 409.061 210.921 408.729 211.084C408.39 211.247 408.146 211.484 407.996 211.797C407.84 212.109 407.762 212.493 407.762 212.949C407.762 213.398 407.856 213.809 408.045 214.18C408.234 214.544 408.494 214.86 408.826 215.127C409.158 215.387 409.539 215.592 409.969 215.742C410.392 215.885 410.841 215.957 411.316 215.957Z" fill="#FC8C25"/>
</svg>
