<svg width="1012" height="506" viewBox="0 0 1012 506" fill="none" xmlns="http://www.w3.org/2000/svg">
<path d="M954.061 139.061C954.646 138.475 954.646 137.525 954.061 136.939L944.515 127.393C943.929 126.808 942.979 126.808 942.393 127.393C941.808 127.979 941.808 128.929 942.393 129.515L950.879 138L942.393 146.485C941.808 147.071 941.808 148.021 942.393 148.607C942.979 149.192 943.929 149.192 944.515 148.607L954.061 139.061ZM550 139.5H953V136.5H550V139.5Z" fill="#FFFEFE"/>
<path d="M301.939 467.061C302.525 467.646 303.475 467.646 304.061 467.061L313.607 457.515C314.192 456.929 314.192 455.979 313.607 455.393C313.021 454.808 312.071 454.808 311.485 455.393L303 463.879L294.515 455.393C293.929 454.808 292.979 454.808 292.393 455.393C291.808 455.979 291.808 456.929 292.393 457.515L301.939 467.061ZM301.5 40L301.5 466L304.5 466L304.5 40L301.5 40Z" fill="#FFFEFE"/>
<path d="M614.344 103.094V120H611.438V103.094H614.344ZM611.219 98.6094C611.219 98.1406 611.359 97.7448 611.641 97.4219C611.932 97.099 612.359 96.9375 612.922 96.9375C613.474 96.9375 613.896 97.099 614.188 97.4219C614.49 97.7448 614.641 98.1406 614.641 98.6094C614.641 99.0573 614.49 99.4427 614.188 99.7656C613.896 100.078 613.474 100.234 612.922 100.234C612.359 100.234 611.932 100.078 611.641 99.7656C611.359 99.4427 611.219 99.0573 611.219 98.6094ZM621.875 106.703V120H618.984V103.094H621.719L621.875 106.703ZM621.188 110.906L619.984 110.859C619.995 109.703 620.167 108.635 620.5 107.656C620.833 106.667 621.302 105.807 621.906 105.078C622.51 104.349 623.229 103.786 624.062 103.391C624.906 102.984 625.839 102.781 626.859 102.781C627.693 102.781 628.443 102.896 629.109 103.125C629.776 103.344 630.344 103.698 630.812 104.188C631.292 104.677 631.656 105.312 631.906 106.094C632.156 106.865 632.281 107.807 632.281 108.922V120H629.375V108.891C629.375 108.005 629.245 107.297 628.984 106.766C628.724 106.224 628.344 105.833 627.844 105.594C627.344 105.344 626.729 105.219 626 105.219C625.281 105.219 624.625 105.37 624.031 105.672C623.448 105.974 622.943 106.391 622.516 106.922C622.099 107.453 621.771 108.062 621.531 108.75C621.302 109.427 621.188 110.146 621.188 110.906ZM639.812 96V120H636.906V96H639.812ZM647.594 103.094V120H644.688V103.094H647.594ZM644.469 98.6094C644.469 98.1406 644.609 97.7448 644.891 97.4219C645.182 97.099 645.609 96.9375 646.172 96.9375C646.724 96.9375 647.146 97.099 647.438 97.4219C647.74 97.7448 647.891 98.1406 647.891 98.6094C647.891 99.0573 647.74 99.4427 647.438 99.7656C647.146 100.078 646.724 100.234 646.172 100.234C645.609 100.234 645.182 100.078 644.891 99.7656C644.609 99.4427 644.469 99.0573 644.469 98.6094ZM655.125 106.703V120H652.234V103.094H654.969L655.125 106.703ZM654.438 110.906L653.234 110.859C653.245 109.703 653.417 108.635 653.75 107.656C654.083 106.667 654.552 105.807 655.156 105.078C655.76 104.349 656.479 103.786 657.312 103.391C658.156 102.984 659.089 102.781 660.109 102.781C660.943 102.781 661.693 102.896 662.359 103.125C663.026 103.344 663.594 103.698 664.062 104.188C664.542 104.677 664.906 105.312 665.156 106.094C665.406 106.865 665.531 107.807 665.531 108.922V120H662.625V108.891C662.625 108.005 662.495 107.297 662.234 106.766C661.974 106.224 661.594 105.833 661.094 105.594C660.594 105.344 659.979 105.219 659.25 105.219C658.531 105.219 657.875 105.37 657.281 105.672C656.698 105.974 656.193 106.391 655.766 106.922C655.349 107.453 655.021 108.062 654.781 108.75C654.552 109.427 654.438 110.146 654.438 110.906ZM676.938 120.312C675.76 120.312 674.693 120.115 673.734 119.719C672.786 119.312 671.969 118.745 671.281 118.016C670.604 117.286 670.083 116.422 669.719 115.422C669.354 114.422 669.172 113.328 669.172 112.141V111.484C669.172 110.109 669.375 108.885 669.781 107.812C670.188 106.729 670.74 105.812 671.438 105.062C672.135 104.312 672.927 103.745 673.812 103.359C674.698 102.974 675.615 102.781 676.562 102.781C677.771 102.781 678.812 102.99 679.688 103.406C680.573 103.823 681.297 104.406 681.859 105.156C682.422 105.896 682.839 106.771 683.109 107.781C683.38 108.781 683.516 109.875 683.516 111.062V112.359H670.891V110H680.625V109.781C680.583 109.031 680.427 108.302 680.156 107.594C679.896 106.885 679.479 106.302 678.906 105.844C678.333 105.385 677.552 105.156 676.562 105.156C675.906 105.156 675.302 105.297 674.75 105.578C674.198 105.849 673.724 106.255 673.328 106.797C672.932 107.339 672.625 108 672.406 108.781C672.188 109.562 672.078 110.464 672.078 111.484V112.141C672.078 112.943 672.188 113.698 672.406 114.406C672.635 115.104 672.964 115.719 673.391 116.25C673.828 116.781 674.354 117.198 674.969 117.5C675.594 117.802 676.302 117.953 677.094 117.953C678.115 117.953 678.979 117.745 679.688 117.328C680.396 116.911 681.016 116.354 681.547 115.656L683.297 117.047C682.932 117.599 682.469 118.125 681.906 118.625C681.344 119.125 680.651 119.531 679.828 119.844C679.016 120.156 678.052 120.312 676.938 120.312ZM694.812 96H697.719V116.719L697.469 120H694.812V96ZM709.141 111.406V111.734C709.141 112.964 708.995 114.104 708.703 115.156C708.411 116.198 707.984 117.104 707.422 117.875C706.859 118.646 706.172 119.245 705.359 119.672C704.547 120.099 703.615 120.312 702.562 120.312C701.49 120.312 700.547 120.13 699.734 119.766C698.932 119.391 698.255 118.854 697.703 118.156C697.151 117.458 696.708 116.615 696.375 115.625C696.052 114.635 695.828 113.521 695.703 112.281V110.844C695.828 109.594 696.052 108.474 696.375 107.484C696.708 106.495 697.151 105.651 697.703 104.953C698.255 104.245 698.932 103.708 699.734 103.344C700.536 102.969 701.469 102.781 702.531 102.781C703.594 102.781 704.536 102.99 705.359 103.406C706.182 103.812 706.87 104.396 707.422 105.156C707.984 105.917 708.411 106.828 708.703 107.891C708.995 108.943 709.141 110.115 709.141 111.406ZM706.234 111.734V111.406C706.234 110.562 706.156 109.771 706 109.031C705.844 108.281 705.594 107.625 705.25 107.062C704.906 106.49 704.453 106.042 703.891 105.719C703.328 105.385 702.635 105.219 701.812 105.219C701.083 105.219 700.448 105.344 699.906 105.594C699.375 105.844 698.922 106.182 698.547 106.609C698.172 107.026 697.865 107.505 697.625 108.047C697.396 108.578 697.224 109.13 697.109 109.703V113.469C697.276 114.198 697.547 114.901 697.922 115.578C698.307 116.245 698.818 116.792 699.453 117.219C700.099 117.646 700.896 117.859 701.844 117.859C702.625 117.859 703.292 117.703 703.844 117.391C704.406 117.068 704.859 116.625 705.203 116.062C705.557 115.5 705.818 114.849 705.984 114.109C706.151 113.37 706.234 112.578 706.234 111.734ZM722.766 117.109V108.406C722.766 107.74 722.63 107.161 722.359 106.672C722.099 106.172 721.703 105.786 721.172 105.516C720.641 105.245 719.984 105.109 719.203 105.109C718.474 105.109 717.833 105.234 717.281 105.484C716.74 105.734 716.312 106.062 716 106.469C715.698 106.875 715.547 107.312 715.547 107.781H712.656C712.656 107.177 712.812 106.578 713.125 105.984C713.438 105.391 713.885 104.854 714.469 104.375C715.062 103.885 715.771 103.5 716.594 103.219C717.427 102.927 718.354 102.781 719.375 102.781C720.604 102.781 721.688 102.99 722.625 103.406C723.573 103.823 724.312 104.453 724.844 105.297C725.385 106.13 725.656 107.177 725.656 108.438V116.312C725.656 116.875 725.703 117.474 725.797 118.109C725.901 118.745 726.052 119.292 726.25 119.75V120H723.234C723.089 119.667 722.974 119.224 722.891 118.672C722.807 118.109 722.766 117.589 722.766 117.109ZM723.266 109.75L723.297 111.781H720.375C719.552 111.781 718.818 111.849 718.172 111.984C717.526 112.109 716.984 112.302 716.547 112.562C716.109 112.823 715.776 113.151 715.547 113.547C715.318 113.932 715.203 114.385 715.203 114.906C715.203 115.438 715.323 115.922 715.562 116.359C715.802 116.797 716.161 117.146 716.641 117.406C717.13 117.656 717.729 117.781 718.438 117.781C719.323 117.781 720.104 117.594 720.781 117.219C721.458 116.844 721.995 116.385 722.391 115.844C722.797 115.302 723.016 114.776 723.047 114.266L724.281 115.656C724.208 116.094 724.01 116.578 723.688 117.109C723.365 117.641 722.932 118.151 722.391 118.641C721.859 119.12 721.224 119.521 720.484 119.844C719.755 120.156 718.932 120.312 718.016 120.312C716.87 120.312 715.865 120.089 715 119.641C714.146 119.193 713.479 118.594 713 117.844C712.531 117.083 712.297 116.234 712.297 115.297C712.297 114.391 712.474 113.594 712.828 112.906C713.182 112.208 713.693 111.63 714.359 111.172C715.026 110.703 715.828 110.349 716.766 110.109C717.703 109.87 718.75 109.75 719.906 109.75H723.266ZM740.047 115.516C740.047 115.099 739.953 114.714 739.766 114.359C739.589 113.995 739.219 113.667 738.656 113.375C738.104 113.073 737.271 112.812 736.156 112.594C735.219 112.396 734.37 112.161 733.609 111.891C732.859 111.62 732.219 111.292 731.688 110.906C731.167 110.521 730.766 110.068 730.484 109.547C730.203 109.026 730.062 108.417 730.062 107.719C730.062 107.052 730.208 106.422 730.5 105.828C730.802 105.234 731.224 104.708 731.766 104.25C732.318 103.792 732.979 103.432 733.75 103.172C734.521 102.911 735.38 102.781 736.328 102.781C737.682 102.781 738.839 103.021 739.797 103.5C740.755 103.979 741.49 104.62 742 105.422C742.51 106.214 742.766 107.094 742.766 108.062H739.875C739.875 107.594 739.734 107.141 739.453 106.703C739.182 106.255 738.781 105.885 738.25 105.594C737.729 105.302 737.089 105.156 736.328 105.156C735.526 105.156 734.875 105.281 734.375 105.531C733.885 105.771 733.526 106.078 733.297 106.453C733.078 106.828 732.969 107.224 732.969 107.641C732.969 107.953 733.021 108.234 733.125 108.484C733.24 108.724 733.438 108.948 733.719 109.156C734 109.354 734.396 109.542 734.906 109.719C735.417 109.896 736.068 110.073 736.859 110.25C738.245 110.562 739.385 110.938 740.281 111.375C741.177 111.812 741.844 112.349 742.281 112.984C742.719 113.62 742.938 114.391 742.938 115.297C742.938 116.036 742.781 116.714 742.469 117.328C742.167 117.943 741.724 118.474 741.141 118.922C740.568 119.359 739.88 119.703 739.078 119.953C738.286 120.193 737.396 120.312 736.406 120.312C734.917 120.312 733.656 120.047 732.625 119.516C731.594 118.984 730.812 118.297 730.281 117.453C729.75 116.609 729.484 115.719 729.484 114.781H732.391C732.432 115.573 732.661 116.203 733.078 116.672C733.495 117.13 734.005 117.458 734.609 117.656C735.214 117.844 735.812 117.938 736.406 117.938C737.198 117.938 737.859 117.833 738.391 117.625C738.932 117.417 739.344 117.13 739.625 116.766C739.906 116.401 740.047 115.984 740.047 115.516ZM753.75 120.312C752.573 120.312 751.505 120.115 750.547 119.719C749.599 119.312 748.781 118.745 748.094 118.016C747.417 117.286 746.896 116.422 746.531 115.422C746.167 114.422 745.984 113.328 745.984 112.141V111.484C745.984 110.109 746.188 108.885 746.594 107.812C747 106.729 747.552 105.812 748.25 105.062C748.948 104.312 749.74 103.745 750.625 103.359C751.51 102.974 752.427 102.781 753.375 102.781C754.583 102.781 755.625 102.99 756.5 103.406C757.385 103.823 758.109 104.406 758.672 105.156C759.234 105.896 759.651 106.771 759.922 107.781C760.193 108.781 760.328 109.875 760.328 111.062V112.359H747.703V110H757.438V109.781C757.396 109.031 757.24 108.302 756.969 107.594C756.708 106.885 756.292 106.302 755.719 105.844C755.146 105.385 754.365 105.156 753.375 105.156C752.719 105.156 752.115 105.297 751.562 105.578C751.01 105.849 750.536 106.255 750.141 106.797C749.745 107.339 749.438 108 749.219 108.781C749 109.562 748.891 110.464 748.891 111.484V112.141C748.891 112.943 749 113.698 749.219 114.406C749.448 115.104 749.776 115.719 750.203 116.25C750.641 116.781 751.167 117.198 751.781 117.5C752.406 117.802 753.115 117.953 753.906 117.953C754.927 117.953 755.792 117.745 756.5 117.328C757.208 116.911 757.828 116.354 758.359 115.656L760.109 117.047C759.745 117.599 759.281 118.125 758.719 118.625C758.156 119.125 757.464 119.531 756.641 119.844C755.828 120.156 754.865 120.312 753.75 120.312ZM782.297 116.719V96H785.203V120H782.547L782.297 116.719ZM770.922 111.734V111.406C770.922 110.115 771.078 108.943 771.391 107.891C771.714 106.828 772.167 105.917 772.75 105.156C773.344 104.396 774.047 103.812 774.859 103.406C775.682 102.99 776.599 102.781 777.609 102.781C778.672 102.781 779.599 102.969 780.391 103.344C781.193 103.708 781.87 104.245 782.422 104.953C782.984 105.651 783.427 106.495 783.75 107.484C784.073 108.474 784.297 109.594 784.422 110.844V112.281C784.307 113.521 784.083 114.635 783.75 115.625C783.427 116.615 782.984 117.458 782.422 118.156C781.87 118.854 781.193 119.391 780.391 119.766C779.589 120.13 778.651 120.312 777.578 120.312C776.589 120.312 775.682 120.099 774.859 119.672C774.047 119.245 773.344 118.646 772.75 117.875C772.167 117.104 771.714 116.198 771.391 115.156C771.078 114.104 770.922 112.964 770.922 111.734ZM773.828 111.406V111.734C773.828 112.578 773.911 113.37 774.078 114.109C774.255 114.849 774.526 115.5 774.891 116.062C775.255 116.625 775.719 117.068 776.281 117.391C776.844 117.703 777.516 117.859 778.297 117.859C779.255 117.859 780.042 117.656 780.656 117.25C781.281 116.844 781.781 116.307 782.156 115.641C782.531 114.974 782.823 114.25 783.031 113.469V109.703C782.906 109.13 782.724 108.578 782.484 108.047C782.255 107.505 781.953 107.026 781.578 106.609C781.214 106.182 780.76 105.844 780.219 105.594C779.688 105.344 779.057 105.219 778.328 105.219C777.536 105.219 776.854 105.385 776.281 105.719C775.719 106.042 775.255 106.49 774.891 107.062C774.526 107.625 774.255 108.281 774.078 109.031C773.911 109.771 773.828 110.562 773.828 111.406ZM792.844 103.094V120H789.938V103.094H792.844ZM789.719 98.6094C789.719 98.1406 789.859 97.7448 790.141 97.4219C790.432 97.099 790.859 96.9375 791.422 96.9375C791.974 96.9375 792.396 97.099 792.688 97.4219C792.99 97.7448 793.141 98.1406 793.141 98.6094C793.141 99.0573 792.99 99.4427 792.688 99.7656C792.396 100.078 791.974 100.234 791.422 100.234C790.859 100.234 790.432 100.078 790.141 99.7656C789.859 99.4427 789.719 99.0573 789.719 98.6094ZM800.375 105.75V120H797.484V103.094H800.297L800.375 105.75ZM805.656 103L805.641 105.688C805.401 105.635 805.172 105.604 804.953 105.594C804.745 105.573 804.505 105.562 804.234 105.562C803.568 105.562 802.979 105.667 802.469 105.875C801.958 106.083 801.526 106.375 801.172 106.75C800.818 107.125 800.536 107.573 800.328 108.094C800.13 108.604 800 109.167 799.938 109.781L799.125 110.25C799.125 109.229 799.224 108.271 799.422 107.375C799.63 106.479 799.948 105.688 800.375 105C800.802 104.302 801.344 103.76 802 103.375C802.667 102.979 803.458 102.781 804.375 102.781C804.583 102.781 804.823 102.807 805.094 102.859C805.365 102.901 805.552 102.948 805.656 103ZM815.031 120.312C813.854 120.312 812.786 120.115 811.828 119.719C810.88 119.312 810.062 118.745 809.375 118.016C808.698 117.286 808.177 116.422 807.812 115.422C807.448 114.422 807.266 113.328 807.266 112.141V111.484C807.266 110.109 807.469 108.885 807.875 107.812C808.281 106.729 808.833 105.812 809.531 105.062C810.229 104.312 811.021 103.745 811.906 103.359C812.792 102.974 813.708 102.781 814.656 102.781C815.865 102.781 816.906 102.99 817.781 103.406C818.667 103.823 819.391 104.406 819.953 105.156C820.516 105.896 820.932 106.771 821.203 107.781C821.474 108.781 821.609 109.875 821.609 111.062V112.359H808.984V110H818.719V109.781C818.677 109.031 818.521 108.302 818.25 107.594C817.99 106.885 817.573 106.302 817 105.844C816.427 105.385 815.646 105.156 814.656 105.156C814 105.156 813.396 105.297 812.844 105.578C812.292 105.849 811.818 106.255 811.422 106.797C811.026 107.339 810.719 108 810.5 108.781C810.281 109.562 810.172 110.464 810.172 111.484V112.141C810.172 112.943 810.281 113.698 810.5 114.406C810.729 115.104 811.057 115.719 811.484 116.25C811.922 116.781 812.448 117.198 813.062 117.5C813.688 117.802 814.396 117.953 815.188 117.953C816.208 117.953 817.073 117.745 817.781 117.328C818.49 116.911 819.109 116.354 819.641 115.656L821.391 117.047C821.026 117.599 820.562 118.125 820 118.625C819.438 119.125 818.745 119.531 817.922 119.844C817.109 120.156 816.146 120.312 815.031 120.312ZM831.75 117.938C832.438 117.938 833.073 117.797 833.656 117.516C834.24 117.234 834.719 116.849 835.094 116.359C835.469 115.859 835.682 115.292 835.734 114.656H838.484C838.432 115.656 838.094 116.589 837.469 117.453C836.854 118.307 836.047 119 835.047 119.531C834.047 120.052 832.948 120.312 831.75 120.312C830.479 120.312 829.37 120.089 828.422 119.641C827.484 119.193 826.703 118.578 826.078 117.797C825.464 117.016 825 116.12 824.688 115.109C824.385 114.089 824.234 113.01 824.234 111.875V111.219C824.234 110.083 824.385 109.01 824.688 108C825 106.979 825.464 106.078 826.078 105.297C826.703 104.516 827.484 103.901 828.422 103.453C829.37 103.005 830.479 102.781 831.75 102.781C833.073 102.781 834.229 103.052 835.219 103.594C836.208 104.125 836.984 104.854 837.547 105.781C838.12 106.698 838.432 107.74 838.484 108.906H835.734C835.682 108.208 835.484 107.578 835.141 107.016C834.807 106.453 834.349 106.005 833.766 105.672C833.193 105.328 832.521 105.156 831.75 105.156C830.865 105.156 830.12 105.333 829.516 105.688C828.922 106.031 828.448 106.5 828.094 107.094C827.75 107.677 827.5 108.328 827.344 109.047C827.198 109.755 827.125 110.479 827.125 111.219V111.875C827.125 112.615 827.198 113.344 827.344 114.062C827.49 114.781 827.734 115.432 828.078 116.016C828.432 116.599 828.906 117.068 829.5 117.422C830.104 117.766 830.854 117.938 831.75 117.938ZM848.812 103.094V105.312H839.672V103.094H848.812ZM842.766 98.9844H845.656V115.812C845.656 116.385 845.745 116.818 845.922 117.109C846.099 117.401 846.328 117.594 846.609 117.688C846.891 117.781 847.193 117.828 847.516 117.828C847.755 117.828 848.005 117.807 848.266 117.766C848.536 117.714 848.74 117.672 848.875 117.641L848.891 120C848.661 120.073 848.359 120.141 847.984 120.203C847.62 120.276 847.177 120.312 846.656 120.312C845.948 120.312 845.297 120.172 844.703 119.891C844.109 119.609 843.635 119.141 843.281 118.484C842.938 117.818 842.766 116.922 842.766 115.797V98.9844ZM855.344 103.094V120H852.438V103.094H855.344ZM852.219 98.6094C852.219 98.1406 852.359 97.7448 852.641 97.4219C852.932 97.099 853.359 96.9375 853.922 96.9375C854.474 96.9375 854.896 97.099 855.188 97.4219C855.49 97.7448 855.641 98.1406 855.641 98.6094C855.641 99.0573 855.49 99.4427 855.188 99.7656C854.896 100.078 854.474 100.234 853.922 100.234C853.359 100.234 852.932 100.078 852.641 99.7656C852.359 99.4427 852.219 99.0573 852.219 98.6094ZM859.219 111.734V111.375C859.219 110.156 859.396 109.026 859.75 107.984C860.104 106.932 860.615 106.021 861.281 105.25C861.948 104.469 862.755 103.865 863.703 103.438C864.651 103 865.714 102.781 866.891 102.781C868.078 102.781 869.146 103 870.094 103.438C871.052 103.865 871.865 104.469 872.531 105.25C873.208 106.021 873.724 106.932 874.078 107.984C874.432 109.026 874.609 110.156 874.609 111.375V111.734C874.609 112.953 874.432 114.083 874.078 115.125C873.724 116.167 873.208 117.078 872.531 117.859C871.865 118.63 871.057 119.234 870.109 119.672C869.172 120.099 868.109 120.312 866.922 120.312C865.734 120.312 864.667 120.099 863.719 119.672C862.771 119.234 861.958 118.63 861.281 117.859C860.615 117.078 860.104 116.167 859.75 115.125C859.396 114.083 859.219 112.953 859.219 111.734ZM862.109 111.375V111.734C862.109 112.578 862.208 113.375 862.406 114.125C862.604 114.865 862.901 115.521 863.297 116.094C863.703 116.667 864.208 117.12 864.812 117.453C865.417 117.776 866.12 117.938 866.922 117.938C867.714 117.938 868.406 117.776 869 117.453C869.604 117.12 870.104 116.667 870.5 116.094C870.896 115.521 871.193 114.865 871.391 114.125C871.599 113.375 871.703 112.578 871.703 111.734V111.375C871.703 110.542 871.599 109.755 871.391 109.016C871.193 108.266 870.891 107.604 870.484 107.031C870.089 106.448 869.589 105.99 868.984 105.656C868.391 105.323 867.693 105.156 866.891 105.156C866.099 105.156 865.401 105.323 864.797 105.656C864.203 105.99 863.703 106.448 863.297 107.031C862.901 107.604 862.604 108.266 862.406 109.016C862.208 109.755 862.109 110.542 862.109 111.375ZM881.125 106.703V120H878.234V103.094H880.969L881.125 106.703ZM880.438 110.906L879.234 110.859C879.245 109.703 879.417 108.635 879.75 107.656C880.083 106.667 880.552 105.807 881.156 105.078C881.76 104.349 882.479 103.786 883.312 103.391C884.156 102.984 885.089 102.781 886.109 102.781C886.943 102.781 887.693 102.896 888.359 103.125C889.026 103.344 889.594 103.698 890.062 104.188C890.542 104.677 890.906 105.312 891.156 106.094C891.406 106.865 891.531 107.807 891.531 108.922V120H888.625V108.891C888.625 108.005 888.495 107.297 888.234 106.766C887.974 106.224 887.594 105.833 887.094 105.594C886.594 105.344 885.979 105.219 885.25 105.219C884.531 105.219 883.875 105.37 883.281 105.672C882.698 105.974 882.193 106.391 881.766 106.922C881.349 107.453 881.021 108.062 880.781 108.75C880.552 109.427 880.438 110.146 880.438 110.906Z" fill="#FFFEFE"/>
<path d="M346.906 115.344H330V112.438H346.906V115.344ZM351.391 112.219C351.859 112.219 352.255 112.359 352.578 112.641C352.901 112.932 353.062 113.359 353.062 113.922C353.062 114.474 352.901 114.896 352.578 115.188C352.255 115.49 351.859 115.641 351.391 115.641C350.943 115.641 350.557 115.49 350.234 115.188C349.922 114.896 349.766 114.474 349.766 113.922C349.766 113.359 349.922 112.932 350.234 112.641C350.557 112.359 350.943 112.219 351.391 112.219ZM343.297 122.875H330V119.984H346.906V122.719L343.297 122.875ZM339.094 122.188L339.141 120.984C340.297 120.995 341.365 121.167 342.344 121.5C343.333 121.833 344.193 122.302 344.922 122.906C345.651 123.51 346.214 124.229 346.609 125.062C347.016 125.906 347.219 126.839 347.219 127.859C347.219 128.693 347.104 129.443 346.875 130.109C346.656 130.776 346.302 131.344 345.812 131.812C345.323 132.292 344.688 132.656 343.906 132.906C343.135 133.156 342.193 133.281 341.078 133.281H330V130.375H341.109C341.995 130.375 342.703 130.245 343.234 129.984C343.776 129.724 344.167 129.344 344.406 128.844C344.656 128.344 344.781 127.729 344.781 127C344.781 126.281 344.63 125.625 344.328 125.031C344.026 124.448 343.609 123.943 343.078 123.516C342.547 123.099 341.938 122.771 341.25 122.531C340.573 122.302 339.854 122.188 339.094 122.188ZM354 140.812H330V137.906H354V140.812ZM346.906 148.594H330V145.688H346.906V148.594ZM351.391 145.469C351.859 145.469 352.255 145.609 352.578 145.891C352.901 146.182 353.062 146.609 353.062 147.172C353.062 147.724 352.901 148.146 352.578 148.438C352.255 148.74 351.859 148.891 351.391 148.891C350.943 148.891 350.557 148.74 350.234 148.438C349.922 148.146 349.766 147.724 349.766 147.172C349.766 146.609 349.922 146.182 350.234 145.891C350.557 145.609 350.943 145.469 351.391 145.469ZM343.297 156.125H330V153.234H346.906V155.969L343.297 156.125ZM339.094 155.438L339.141 154.234C340.297 154.245 341.365 154.417 342.344 154.75C343.333 155.083 344.193 155.552 344.922 156.156C345.651 156.76 346.214 157.479 346.609 158.312C347.016 159.156 347.219 160.089 347.219 161.109C347.219 161.943 347.104 162.693 346.875 163.359C346.656 164.026 346.302 164.594 345.812 165.062C345.323 165.542 344.688 165.906 343.906 166.156C343.135 166.406 342.193 166.531 341.078 166.531H330V163.625H341.109C341.995 163.625 342.703 163.495 343.234 163.234C343.776 162.974 344.167 162.594 344.406 162.094C344.656 161.594 344.781 160.979 344.781 160.25C344.781 159.531 344.63 158.875 344.328 158.281C344.026 157.698 343.609 157.193 343.078 156.766C342.547 156.349 341.938 156.021 341.25 155.781C340.573 155.552 339.854 155.438 339.094 155.438ZM329.688 177.938C329.688 176.76 329.885 175.693 330.281 174.734C330.688 173.786 331.255 172.969 331.984 172.281C332.714 171.604 333.578 171.083 334.578 170.719C335.578 170.354 336.672 170.172 337.859 170.172H338.516C339.891 170.172 341.115 170.375 342.188 170.781C343.271 171.188 344.188 171.74 344.938 172.438C345.688 173.135 346.255 173.927 346.641 174.812C347.026 175.698 347.219 176.615 347.219 177.562C347.219 178.771 347.01 179.812 346.594 180.688C346.177 181.573 345.594 182.297 344.844 182.859C344.104 183.422 343.229 183.839 342.219 184.109C341.219 184.38 340.125 184.516 338.938 184.516H337.641V171.891H340V181.625H340.219C340.969 181.583 341.698 181.427 342.406 181.156C343.115 180.896 343.698 180.479 344.156 179.906C344.615 179.333 344.844 178.552 344.844 177.562C344.844 176.906 344.703 176.302 344.422 175.75C344.151 175.198 343.745 174.724 343.203 174.328C342.661 173.932 342 173.625 341.219 173.406C340.438 173.188 339.536 173.078 338.516 173.078H337.859C337.057 173.078 336.302 173.188 335.594 173.406C334.896 173.635 334.281 173.964 333.75 174.391C333.219 174.828 332.802 175.354 332.5 175.969C332.198 176.594 332.047 177.302 332.047 178.094C332.047 179.115 332.255 179.979 332.672 180.688C333.089 181.396 333.646 182.016 334.344 182.547L332.953 184.297C332.401 183.932 331.875 183.469 331.375 182.906C330.875 182.344 330.469 181.651 330.156 180.828C329.844 180.016 329.688 179.052 329.688 177.938ZM354 195.812V198.719H333.281L330 198.469V195.812H354ZM338.594 210.141H338.266C337.036 210.141 335.896 209.995 334.844 209.703C333.802 209.411 332.896 208.984 332.125 208.422C331.354 207.859 330.755 207.172 330.328 206.359C329.901 205.547 329.688 204.615 329.688 203.562C329.688 202.49 329.87 201.547 330.234 200.734C330.609 199.932 331.146 199.255 331.844 198.703C332.542 198.151 333.385 197.708 334.375 197.375C335.365 197.052 336.479 196.828 337.719 196.703H339.156C340.406 196.828 341.526 197.052 342.516 197.375C343.505 197.708 344.349 198.151 345.047 198.703C345.755 199.255 346.292 199.932 346.656 200.734C347.031 201.536 347.219 202.469 347.219 203.531C347.219 204.594 347.01 205.536 346.594 206.359C346.188 207.182 345.604 207.87 344.844 208.422C344.083 208.984 343.172 209.411 342.109 209.703C341.057 209.995 339.885 210.141 338.594 210.141ZM338.266 207.234H338.594C339.438 207.234 340.229 207.156 340.969 207C341.719 206.844 342.375 206.594 342.938 206.25C343.51 205.906 343.958 205.453 344.281 204.891C344.615 204.328 344.781 203.635 344.781 202.812C344.781 202.083 344.656 201.448 344.406 200.906C344.156 200.375 343.818 199.922 343.391 199.547C342.974 199.172 342.495 198.865 341.953 198.625C341.422 198.396 340.87 198.224 340.297 198.109H336.531C335.802 198.276 335.099 198.547 334.422 198.922C333.755 199.307 333.208 199.818 332.781 200.453C332.354 201.099 332.141 201.896 332.141 202.844C332.141 203.625 332.297 204.292 332.609 204.844C332.932 205.406 333.375 205.859 333.938 206.203C334.5 206.557 335.151 206.818 335.891 206.984C336.63 207.151 337.422 207.234 338.266 207.234ZM332.891 223.766H341.594C342.26 223.766 342.839 223.63 343.328 223.359C343.828 223.099 344.214 222.703 344.484 222.172C344.755 221.641 344.891 220.984 344.891 220.203C344.891 219.474 344.766 218.833 344.516 218.281C344.266 217.74 343.938 217.312 343.531 217C343.125 216.698 342.688 216.547 342.219 216.547V213.656C342.823 213.656 343.422 213.812 344.016 214.125C344.609 214.438 345.146 214.885 345.625 215.469C346.115 216.062 346.5 216.771 346.781 217.594C347.073 218.427 347.219 219.354 347.219 220.375C347.219 221.604 347.01 222.688 346.594 223.625C346.177 224.573 345.547 225.312 344.703 225.844C343.87 226.385 342.823 226.656 341.562 226.656H333.688C333.125 226.656 332.526 226.703 331.891 226.797C331.255 226.901 330.708 227.052 330.25 227.25H330V224.234C330.333 224.089 330.776 223.974 331.328 223.891C331.891 223.807 332.411 223.766 332.891 223.766ZM340.25 224.266L338.219 224.297V221.375C338.219 220.552 338.151 219.818 338.016 219.172C337.891 218.526 337.698 217.984 337.438 217.547C337.177 217.109 336.849 216.776 336.453 216.547C336.068 216.318 335.615 216.203 335.094 216.203C334.562 216.203 334.078 216.323 333.641 216.562C333.203 216.802 332.854 217.161 332.594 217.641C332.344 218.13 332.219 218.729 332.219 219.438C332.219 220.323 332.406 221.104 332.781 221.781C333.156 222.458 333.615 222.995 334.156 223.391C334.698 223.797 335.224 224.016 335.734 224.047L334.344 225.281C333.906 225.208 333.422 225.01 332.891 224.688C332.359 224.365 331.849 223.932 331.359 223.391C330.88 222.859 330.479 222.224 330.156 221.484C329.844 220.755 329.688 219.932 329.688 219.016C329.688 217.87 329.911 216.865 330.359 216C330.807 215.146 331.406 214.479 332.156 214C332.917 213.531 333.766 213.297 334.703 213.297C335.609 213.297 336.406 213.474 337.094 213.828C337.792 214.182 338.37 214.693 338.828 215.359C339.297 216.026 339.651 216.828 339.891 217.766C340.13 218.703 340.25 219.75 340.25 220.906V224.266ZM334.484 241.047C334.901 241.047 335.286 240.953 335.641 240.766C336.005 240.589 336.333 240.219 336.625 239.656C336.927 239.104 337.188 238.271 337.406 237.156C337.604 236.219 337.839 235.37 338.109 234.609C338.38 233.859 338.708 233.219 339.094 232.688C339.479 232.167 339.932 231.766 340.453 231.484C340.974 231.203 341.583 231.062 342.281 231.062C342.948 231.062 343.578 231.208 344.172 231.5C344.766 231.802 345.292 232.224 345.75 232.766C346.208 233.318 346.568 233.979 346.828 234.75C347.089 235.521 347.219 236.38 347.219 237.328C347.219 238.682 346.979 239.839 346.5 240.797C346.021 241.755 345.38 242.49 344.578 243C343.786 243.51 342.906 243.766 341.938 243.766V240.875C342.406 240.875 342.859 240.734 343.297 240.453C343.745 240.182 344.115 239.781 344.406 239.25C344.698 238.729 344.844 238.089 344.844 237.328C344.844 236.526 344.719 235.875 344.469 235.375C344.229 234.885 343.922 234.526 343.547 234.297C343.172 234.078 342.776 233.969 342.359 233.969C342.047 233.969 341.766 234.021 341.516 234.125C341.276 234.24 341.052 234.438 340.844 234.719C340.646 235 340.458 235.396 340.281 235.906C340.104 236.417 339.927 237.068 339.75 237.859C339.438 239.245 339.062 240.385 338.625 241.281C338.188 242.177 337.651 242.844 337.016 243.281C336.38 243.719 335.609 243.938 334.703 243.938C333.964 243.938 333.286 243.781 332.672 243.469C332.057 243.167 331.526 242.724 331.078 242.141C330.641 241.568 330.297 240.88 330.047 240.078C329.807 239.286 329.688 238.396 329.688 237.406C329.688 235.917 329.953 234.656 330.484 233.625C331.016 232.594 331.703 231.812 332.547 231.281C333.391 230.75 334.281 230.484 335.219 230.484V233.391C334.427 233.432 333.797 233.661 333.328 234.078C332.87 234.495 332.542 235.005 332.344 235.609C332.156 236.214 332.062 236.812 332.062 237.406C332.062 238.198 332.167 238.859 332.375 239.391C332.583 239.932 332.87 240.344 333.234 240.625C333.599 240.906 334.016 241.047 334.484 241.047ZM329.688 254.75C329.688 253.573 329.885 252.505 330.281 251.547C330.688 250.599 331.255 249.781 331.984 249.094C332.714 248.417 333.578 247.896 334.578 247.531C335.578 247.167 336.672 246.984 337.859 246.984H338.516C339.891 246.984 341.115 247.188 342.188 247.594C343.271 248 344.188 248.552 344.938 249.25C345.688 249.948 346.255 250.74 346.641 251.625C347.026 252.51 347.219 253.427 347.219 254.375C347.219 255.583 347.01 256.625 346.594 257.5C346.177 258.385 345.594 259.109 344.844 259.672C344.104 260.234 343.229 260.651 342.219 260.922C341.219 261.193 340.125 261.328 338.938 261.328H337.641V248.703H340V258.438H340.219C340.969 258.396 341.698 258.24 342.406 257.969C343.115 257.708 343.698 257.292 344.156 256.719C344.615 256.146 344.844 255.365 344.844 254.375C344.844 253.719 344.703 253.115 344.422 252.562C344.151 252.01 343.745 251.536 343.203 251.141C342.661 250.745 342 250.438 341.219 250.219C340.438 250 339.536 249.891 338.516 249.891H337.859C337.057 249.891 336.302 250 335.594 250.219C334.896 250.448 334.281 250.776 333.75 251.203C333.219 251.641 332.802 252.167 332.5 252.781C332.198 253.406 332.047 254.115 332.047 254.906C332.047 255.927 332.255 256.792 332.672 257.5C333.089 258.208 333.646 258.828 334.344 259.359L332.953 261.109C332.401 260.745 331.875 260.281 331.375 259.719C330.875 259.156 330.469 258.464 330.156 257.641C329.844 256.828 329.688 255.865 329.688 254.75ZM333.281 283.297H354V286.203H330V283.547L333.281 283.297ZM338.266 271.922H338.594C339.885 271.922 341.057 272.078 342.109 272.391C343.172 272.714 344.083 273.167 344.844 273.75C345.604 274.344 346.188 275.047 346.594 275.859C347.01 276.682 347.219 277.599 347.219 278.609C347.219 279.672 347.031 280.599 346.656 281.391C346.292 282.193 345.755 282.87 345.047 283.422C344.349 283.984 343.505 284.427 342.516 284.75C341.526 285.073 340.406 285.297 339.156 285.422H337.719C336.479 285.307 335.365 285.083 334.375 284.75C333.385 284.427 332.542 283.984 331.844 283.422C331.146 282.87 330.609 282.193 330.234 281.391C329.87 280.589 329.688 279.651 329.688 278.578C329.688 277.589 329.901 276.682 330.328 275.859C330.755 275.047 331.354 274.344 332.125 273.75C332.896 273.167 333.802 272.714 334.844 272.391C335.896 272.078 337.036 271.922 338.266 271.922ZM338.594 274.828H338.266C337.422 274.828 336.63 274.911 335.891 275.078C335.151 275.255 334.5 275.526 333.938 275.891C333.375 276.255 332.932 276.719 332.609 277.281C332.297 277.844 332.141 278.516 332.141 279.297C332.141 280.255 332.344 281.042 332.75 281.656C333.156 282.281 333.693 282.781 334.359 283.156C335.026 283.531 335.75 283.823 336.531 284.031H340.297C340.87 283.906 341.422 283.724 341.953 283.484C342.495 283.255 342.974 282.953 343.391 282.578C343.818 282.214 344.156 281.76 344.406 281.219C344.656 280.688 344.781 280.057 344.781 279.328C344.781 278.536 344.615 277.854 344.281 277.281C343.958 276.719 343.51 276.255 342.938 275.891C342.375 275.526 341.719 275.255 340.969 275.078C340.229 274.911 339.438 274.828 338.594 274.828ZM346.906 293.844H330V290.938H346.906V293.844ZM351.391 290.719C351.859 290.719 352.255 290.859 352.578 291.141C352.901 291.432 353.062 291.859 353.062 292.422C353.062 292.974 352.901 293.396 352.578 293.688C352.255 293.99 351.859 294.141 351.391 294.141C350.943 294.141 350.557 293.99 350.234 293.688C349.922 293.396 349.766 292.974 349.766 292.422C349.766 291.859 349.922 291.432 350.234 291.141C350.557 290.859 350.943 290.719 351.391 290.719ZM344.25 301.375H330V298.484H346.906V301.297L344.25 301.375ZM347 306.656L344.312 306.641C344.365 306.401 344.396 306.172 344.406 305.953C344.427 305.745 344.438 305.505 344.438 305.234C344.438 304.568 344.333 303.979 344.125 303.469C343.917 302.958 343.625 302.526 343.25 302.172C342.875 301.818 342.427 301.536 341.906 301.328C341.396 301.13 340.833 301 340.219 300.938L339.75 300.125C340.771 300.125 341.729 300.224 342.625 300.422C343.521 300.63 344.312 300.948 345 301.375C345.698 301.802 346.24 302.344 346.625 303C347.021 303.667 347.219 304.458 347.219 305.375C347.219 305.583 347.193 305.823 347.141 306.094C347.099 306.365 347.052 306.552 347 306.656ZM329.688 316.031C329.688 314.854 329.885 313.786 330.281 312.828C330.688 311.88 331.255 311.062 331.984 310.375C332.714 309.698 333.578 309.177 334.578 308.812C335.578 308.448 336.672 308.266 337.859 308.266H338.516C339.891 308.266 341.115 308.469 342.188 308.875C343.271 309.281 344.188 309.833 344.938 310.531C345.688 311.229 346.255 312.021 346.641 312.906C347.026 313.792 347.219 314.708 347.219 315.656C347.219 316.865 347.01 317.906 346.594 318.781C346.177 319.667 345.594 320.391 344.844 320.953C344.104 321.516 343.229 321.932 342.219 322.203C341.219 322.474 340.125 322.609 338.938 322.609H337.641V309.984H340V319.719H340.219C340.969 319.677 341.698 319.521 342.406 319.25C343.115 318.99 343.698 318.573 344.156 318C344.615 317.427 344.844 316.646 344.844 315.656C344.844 315 344.703 314.396 344.422 313.844C344.151 313.292 343.745 312.818 343.203 312.422C342.661 312.026 342 311.719 341.219 311.5C340.438 311.281 339.536 311.172 338.516 311.172H337.859C337.057 311.172 336.302 311.281 335.594 311.5C334.896 311.729 334.281 312.057 333.75 312.484C333.219 312.922 332.802 313.448 332.5 314.062C332.198 314.688 332.047 315.396 332.047 316.188C332.047 317.208 332.255 318.073 332.672 318.781C333.089 319.49 333.646 320.109 334.344 320.641L332.953 322.391C332.401 322.026 331.875 321.562 331.375 321C330.875 320.438 330.469 319.745 330.156 318.922C329.844 318.109 329.688 317.146 329.688 316.031ZM332.062 332.75C332.062 333.438 332.203 334.073 332.484 334.656C332.766 335.24 333.151 335.719 333.641 336.094C334.141 336.469 334.708 336.682 335.344 336.734V339.484C334.344 339.432 333.411 339.094 332.547 338.469C331.693 337.854 331 337.047 330.469 336.047C329.948 335.047 329.688 333.948 329.688 332.75C329.688 331.479 329.911 330.37 330.359 329.422C330.807 328.484 331.422 327.703 332.203 327.078C332.984 326.464 333.88 326 334.891 325.688C335.911 325.385 336.99 325.234 338.125 325.234H338.781C339.917 325.234 340.99 325.385 342 325.688C343.021 326 343.922 326.464 344.703 327.078C345.484 327.703 346.099 328.484 346.547 329.422C346.995 330.37 347.219 331.479 347.219 332.75C347.219 334.073 346.948 335.229 346.406 336.219C345.875 337.208 345.146 337.984 344.219 338.547C343.302 339.12 342.26 339.432 341.094 339.484V336.734C341.792 336.682 342.422 336.484 342.984 336.141C343.547 335.807 343.995 335.349 344.328 334.766C344.672 334.193 344.844 333.521 344.844 332.75C344.844 331.865 344.667 331.12 344.312 330.516C343.969 329.922 343.5 329.448 342.906 329.094C342.323 328.75 341.672 328.5 340.953 328.344C340.245 328.198 339.521 328.125 338.781 328.125H338.125C337.385 328.125 336.656 328.198 335.938 328.344C335.219 328.49 334.568 328.734 333.984 329.078C333.401 329.432 332.932 329.906 332.578 330.5C332.234 331.104 332.062 331.854 332.062 332.75ZM346.906 349.812H344.688V340.672H346.906V349.812ZM351.016 343.766V346.656H334.188C333.615 346.656 333.182 346.745 332.891 346.922C332.599 347.099 332.406 347.328 332.312 347.609C332.219 347.891 332.172 348.193 332.172 348.516C332.172 348.755 332.193 349.005 332.234 349.266C332.286 349.536 332.328 349.74 332.359 349.875L330 349.891C329.927 349.661 329.859 349.359 329.797 348.984C329.724 348.62 329.688 348.177 329.688 347.656C329.688 346.948 329.828 346.297 330.109 345.703C330.391 345.109 330.859 344.635 331.516 344.281C332.182 343.938 333.078 343.766 334.203 343.766H351.016ZM346.906 356.344H330V353.438H346.906V356.344ZM351.391 353.219C351.859 353.219 352.255 353.359 352.578 353.641C352.901 353.932 353.062 354.359 353.062 354.922C353.062 355.474 352.901 355.896 352.578 356.188C352.255 356.49 351.859 356.641 351.391 356.641C350.943 356.641 350.557 356.49 350.234 356.188C349.922 355.896 349.766 355.474 349.766 354.922C349.766 354.359 349.922 353.932 350.234 353.641C350.557 353.359 350.943 353.219 351.391 353.219ZM338.266 360.219H338.625C339.844 360.219 340.974 360.396 342.016 360.75C343.068 361.104 343.979 361.615 344.75 362.281C345.531 362.948 346.135 363.755 346.562 364.703C347 365.651 347.219 366.714 347.219 367.891C347.219 369.078 347 370.146 346.562 371.094C346.135 372.052 345.531 372.865 344.75 373.531C343.979 374.208 343.068 374.724 342.016 375.078C340.974 375.432 339.844 375.609 338.625 375.609H338.266C337.047 375.609 335.917 375.432 334.875 375.078C333.833 374.724 332.922 374.208 332.141 373.531C331.37 372.865 330.766 372.057 330.328 371.109C329.901 370.172 329.688 369.109 329.688 367.922C329.688 366.734 329.901 365.667 330.328 364.719C330.766 363.771 331.37 362.958 332.141 362.281C332.922 361.615 333.833 361.104 334.875 360.75C335.917 360.396 337.047 360.219 338.266 360.219ZM338.625 363.109H338.266C337.422 363.109 336.625 363.208 335.875 363.406C335.135 363.604 334.479 363.901 333.906 364.297C333.333 364.703 332.88 365.208 332.547 365.812C332.224 366.417 332.062 367.12 332.062 367.922C332.062 368.714 332.224 369.406 332.547 370C332.88 370.604 333.333 371.104 333.906 371.5C334.479 371.896 335.135 372.193 335.875 372.391C336.625 372.599 337.422 372.703 338.266 372.703H338.625C339.458 372.703 340.245 372.599 340.984 372.391C341.734 372.193 342.396 371.891 342.969 371.484C343.552 371.089 344.01 370.589 344.344 369.984C344.677 369.391 344.844 368.693 344.844 367.891C344.844 367.099 344.677 366.401 344.344 365.797C344.01 365.203 343.552 364.703 342.969 364.297C342.396 363.901 341.734 363.604 340.984 363.406C340.245 363.208 339.458 363.109 338.625 363.109ZM343.297 382.125H330V379.234H346.906V381.969L343.297 382.125ZM339.094 381.438L339.141 380.234C340.297 380.245 341.365 380.417 342.344 380.75C343.333 381.083 344.193 381.552 344.922 382.156C345.651 382.76 346.214 383.479 346.609 384.312C347.016 385.156 347.219 386.089 347.219 387.109C347.219 387.943 347.104 388.693 346.875 389.359C346.656 390.026 346.302 390.594 345.812 391.062C345.323 391.542 344.688 391.906 343.906 392.156C343.135 392.406 342.193 392.531 341.078 392.531H330V389.625H341.109C341.995 389.625 342.703 389.495 343.234 389.234C343.776 388.974 344.167 388.594 344.406 388.094C344.656 387.594 344.781 386.979 344.781 386.25C344.781 385.531 344.63 384.875 344.328 384.281C344.026 383.698 343.609 383.193 343.078 382.766C342.547 382.349 341.938 382.021 341.25 381.781C340.573 381.552 339.854 381.438 339.094 381.438Z" fill="#FFFEFE"/>
<path d="M334.008 453.32V466H331.828V453.32H334.008ZM331.664 449.957C331.664 449.605 331.77 449.309 331.98 449.066C332.199 448.824 332.52 448.703 332.941 448.703C333.355 448.703 333.672 448.824 333.891 449.066C334.117 449.309 334.23 449.605 334.23 449.957C334.23 450.293 334.117 450.582 333.891 450.824C333.672 451.059 333.355 451.176 332.941 451.176C332.52 451.176 332.199 451.059 331.98 450.824C331.77 450.582 331.664 450.293 331.664 449.957ZM339.656 456.027V466H337.488V453.32H339.539L339.656 456.027ZM339.141 459.18L338.238 459.145C338.246 458.277 338.375 457.477 338.625 456.742C338.875 456 339.227 455.355 339.68 454.809C340.133 454.262 340.672 453.84 341.297 453.543C341.93 453.238 342.629 453.086 343.395 453.086C344.02 453.086 344.582 453.172 345.082 453.344C345.582 453.508 346.008 453.773 346.359 454.141C346.719 454.508 346.992 454.984 347.18 455.57C347.367 456.148 347.461 456.855 347.461 457.691V466H345.281V457.668C345.281 457.004 345.184 456.473 344.988 456.074C344.793 455.668 344.508 455.375 344.133 455.195C343.758 455.008 343.297 454.914 342.75 454.914C342.211 454.914 341.719 455.027 341.273 455.254C340.836 455.48 340.457 455.793 340.137 456.191C339.824 456.59 339.578 457.047 339.398 457.562C339.227 458.07 339.141 458.609 339.141 459.18ZM353.109 448V466H350.93V448H353.109ZM358.945 453.32V466H356.766V453.32H358.945ZM356.602 449.957C356.602 449.605 356.707 449.309 356.918 449.066C357.137 448.824 357.457 448.703 357.879 448.703C358.293 448.703 358.609 448.824 358.828 449.066C359.055 449.309 359.168 449.605 359.168 449.957C359.168 450.293 359.055 450.582 358.828 450.824C358.609 451.059 358.293 451.176 357.879 451.176C357.457 451.176 357.137 451.059 356.918 450.824C356.707 450.582 356.602 450.293 356.602 449.957ZM364.594 456.027V466H362.426V453.32H364.477L364.594 456.027ZM364.078 459.18L363.176 459.145C363.184 458.277 363.312 457.477 363.562 456.742C363.812 456 364.164 455.355 364.617 454.809C365.07 454.262 365.609 453.84 366.234 453.543C366.867 453.238 367.566 453.086 368.332 453.086C368.957 453.086 369.52 453.172 370.02 453.344C370.52 453.508 370.945 453.773 371.297 454.141C371.656 454.508 371.93 454.984 372.117 455.57C372.305 456.148 372.398 456.855 372.398 457.691V466H370.219V457.668C370.219 457.004 370.121 456.473 369.926 456.074C369.73 455.668 369.445 455.375 369.07 455.195C368.695 455.008 368.234 454.914 367.688 454.914C367.148 454.914 366.656 455.027 366.211 455.254C365.773 455.48 365.395 455.793 365.074 456.191C364.762 456.59 364.516 457.047 364.336 457.562C364.164 458.07 364.078 458.609 364.078 459.18ZM380.953 466.234C380.07 466.234 379.27 466.086 378.551 465.789C377.84 465.484 377.227 465.059 376.711 464.512C376.203 463.965 375.812 463.316 375.539 462.566C375.266 461.816 375.129 460.996 375.129 460.105V459.613C375.129 458.582 375.281 457.664 375.586 456.859C375.891 456.047 376.305 455.359 376.828 454.797C377.352 454.234 377.945 453.809 378.609 453.52C379.273 453.23 379.961 453.086 380.672 453.086C381.578 453.086 382.359 453.242 383.016 453.555C383.68 453.867 384.223 454.305 384.645 454.867C385.066 455.422 385.379 456.078 385.582 456.836C385.785 457.586 385.887 458.406 385.887 459.297V460.27H376.418V458.5H383.719V458.336C383.688 457.773 383.57 457.227 383.367 456.695C383.172 456.164 382.859 455.727 382.43 455.383C382 455.039 381.414 454.867 380.672 454.867C380.18 454.867 379.727 454.973 379.312 455.184C378.898 455.387 378.543 455.691 378.246 456.098C377.949 456.504 377.719 457 377.555 457.586C377.391 458.172 377.309 458.848 377.309 459.613V460.105C377.309 460.707 377.391 461.273 377.555 461.805C377.727 462.328 377.973 462.789 378.293 463.188C378.621 463.586 379.016 463.898 379.477 464.125C379.945 464.352 380.477 464.465 381.07 464.465C381.836 464.465 382.484 464.309 383.016 463.996C383.547 463.684 384.012 463.266 384.41 462.742L385.723 463.785C385.449 464.199 385.102 464.594 384.68 464.969C384.258 465.344 383.738 465.648 383.121 465.883C382.512 466.117 381.789 466.234 380.953 466.234ZM392.93 457.855V459.637H387.211V457.855H392.93ZM400.312 466.234C399.43 466.234 398.629 466.086 397.91 465.789C397.199 465.484 396.586 465.059 396.07 464.512C395.562 463.965 395.172 463.316 394.898 462.566C394.625 461.816 394.488 460.996 394.488 460.105V459.613C394.488 458.582 394.641 457.664 394.945 456.859C395.25 456.047 395.664 455.359 396.188 454.797C396.711 454.234 397.305 453.809 397.969 453.52C398.633 453.23 399.32 453.086 400.031 453.086C400.938 453.086 401.719 453.242 402.375 453.555C403.039 453.867 403.582 454.305 404.004 454.867C404.426 455.422 404.738 456.078 404.941 456.836C405.145 457.586 405.246 458.406 405.246 459.297V460.27H395.777V458.5H403.078V458.336C403.047 457.773 402.93 457.227 402.727 456.695C402.531 456.164 402.219 455.727 401.789 455.383C401.359 455.039 400.773 454.867 400.031 454.867C399.539 454.867 399.086 454.973 398.672 455.184C398.258 455.387 397.902 455.691 397.605 456.098C397.309 456.504 397.078 457 396.914 457.586C396.75 458.172 396.668 458.848 396.668 459.613V460.105C396.668 460.707 396.75 461.273 396.914 461.805C397.086 462.328 397.332 462.789 397.652 463.188C397.98 463.586 398.375 463.898 398.836 464.125C399.305 464.352 399.836 464.465 400.43 464.465C401.195 464.465 401.844 464.309 402.375 463.996C402.906 463.684 403.371 463.266 403.77 462.742L405.082 463.785C404.809 464.199 404.461 464.594 404.039 464.969C403.617 465.344 403.098 465.648 402.48 465.883C401.871 466.117 401.148 466.234 400.312 466.234ZM409.945 456.027V466H407.777V453.32H409.828L409.945 456.027ZM409.43 459.18L408.527 459.145C408.535 458.277 408.664 457.477 408.914 456.742C409.164 456 409.516 455.355 409.969 454.809C410.422 454.262 410.961 453.84 411.586 453.543C412.219 453.238 412.918 453.086 413.684 453.086C414.309 453.086 414.871 453.172 415.371 453.344C415.871 453.508 416.297 453.773 416.648 454.141C417.008 454.508 417.281 454.984 417.469 455.57C417.656 456.148 417.75 456.855 417.75 457.691V466H415.57V457.668C415.57 457.004 415.473 456.473 415.277 456.074C415.082 455.668 414.797 455.375 414.422 455.195C414.047 455.008 413.586 454.914 413.039 454.914C412.5 454.914 412.008 455.027 411.562 455.254C411.125 455.48 410.746 455.793 410.426 456.191C410.113 456.59 409.867 457.047 409.688 457.562C409.516 458.07 409.43 458.609 409.43 459.18ZM429.035 463.539V448H431.215V466H429.223L429.035 463.539ZM420.504 459.801V459.555C420.504 458.586 420.621 457.707 420.855 456.918C421.098 456.121 421.438 455.438 421.875 454.867C422.32 454.297 422.848 453.859 423.457 453.555C424.074 453.242 424.762 453.086 425.52 453.086C426.316 453.086 427.012 453.227 427.605 453.508C428.207 453.781 428.715 454.184 429.129 454.715C429.551 455.238 429.883 455.871 430.125 456.613C430.367 457.355 430.535 458.195 430.629 459.133V460.211C430.543 461.141 430.375 461.977 430.125 462.719C429.883 463.461 429.551 464.094 429.129 464.617C428.715 465.141 428.207 465.543 427.605 465.824C427.004 466.098 426.301 466.234 425.496 466.234C424.754 466.234 424.074 466.074 423.457 465.754C422.848 465.434 422.32 464.984 421.875 464.406C421.438 463.828 421.098 463.148 420.855 462.367C420.621 461.578 420.504 460.723 420.504 459.801ZM422.684 459.555V459.801C422.684 460.434 422.746 461.027 422.871 461.582C423.004 462.137 423.207 462.625 423.48 463.047C423.754 463.469 424.102 463.801 424.523 464.043C424.945 464.277 425.449 464.395 426.035 464.395C426.754 464.395 427.344 464.242 427.805 463.938C428.273 463.633 428.648 463.23 428.93 462.73C429.211 462.23 429.43 461.688 429.586 461.102V458.277C429.492 457.848 429.355 457.434 429.176 457.035C429.004 456.629 428.777 456.27 428.496 455.957C428.223 455.637 427.883 455.383 427.477 455.195C427.078 455.008 426.605 454.914 426.059 454.914C425.465 454.914 424.953 455.039 424.523 455.289C424.102 455.531 423.754 455.867 423.48 456.297C423.207 456.719 423.004 457.211 422.871 457.773C422.746 458.328 422.684 458.922 422.684 459.555Z" fill="#FFFEFE"/>
<path d="M334.008 32.3203V45H331.828V32.3203H334.008ZM331.664 28.957C331.664 28.6055 331.77 28.3086 331.98 28.0664C332.199 27.8242 332.52 27.7031 332.941 27.7031C333.355 27.7031 333.672 27.8242 333.891 28.0664C334.117 28.3086 334.23 28.6055 334.23 28.957C334.23 29.293 334.117 29.582 333.891 29.8242C333.672 30.0586 333.355 30.1758 332.941 30.1758C332.52 30.1758 332.199 30.0586 331.98 29.8242C331.77 29.582 331.664 29.293 331.664 28.957ZM339.656 35.0273V45H337.488V32.3203H339.539L339.656 35.0273ZM339.141 38.1797L338.238 38.1445C338.246 37.2773 338.375 36.4766 338.625 35.7422C338.875 35 339.227 34.3555 339.68 33.8086C340.133 33.2617 340.672 32.8398 341.297 32.543C341.93 32.2383 342.629 32.0859 343.395 32.0859C344.02 32.0859 344.582 32.1719 345.082 32.3438C345.582 32.5078 346.008 32.7734 346.359 33.1406C346.719 33.5078 346.992 33.9844 347.18 34.5703C347.367 35.1484 347.461 35.8555 347.461 36.6914V45H345.281V36.668C345.281 36.0039 345.184 35.4727 344.988 35.0742C344.793 34.668 344.508 34.375 344.133 34.1953C343.758 34.0078 343.297 33.9141 342.75 33.9141C342.211 33.9141 341.719 34.0273 341.273 34.2539C340.836 34.4805 340.457 34.793 340.137 35.1914C339.824 35.5898 339.578 36.0469 339.398 36.5625C339.227 37.0703 339.141 37.6094 339.141 38.1797ZM353.109 27V45H350.93V27H353.109ZM358.945 32.3203V45H356.766V32.3203H358.945ZM356.602 28.957C356.602 28.6055 356.707 28.3086 356.918 28.0664C357.137 27.8242 357.457 27.7031 357.879 27.7031C358.293 27.7031 358.609 27.8242 358.828 28.0664C359.055 28.3086 359.168 28.6055 359.168 28.957C359.168 29.293 359.055 29.582 358.828 29.8242C358.609 30.0586 358.293 30.1758 357.879 30.1758C357.457 30.1758 357.137 30.0586 356.918 29.8242C356.707 29.582 356.602 29.293 356.602 28.957ZM364.594 35.0273V45H362.426V32.3203H364.477L364.594 35.0273ZM364.078 38.1797L363.176 38.1445C363.184 37.2773 363.312 36.4766 363.562 35.7422C363.812 35 364.164 34.3555 364.617 33.8086C365.07 33.2617 365.609 32.8398 366.234 32.543C366.867 32.2383 367.566 32.0859 368.332 32.0859C368.957 32.0859 369.52 32.1719 370.02 32.3438C370.52 32.5078 370.945 32.7734 371.297 33.1406C371.656 33.5078 371.93 33.9844 372.117 34.5703C372.305 35.1484 372.398 35.8555 372.398 36.6914V45H370.219V36.668C370.219 36.0039 370.121 35.4727 369.926 35.0742C369.73 34.668 369.445 34.375 369.07 34.1953C368.695 34.0078 368.234 33.9141 367.688 33.9141C367.148 33.9141 366.656 34.0273 366.211 34.2539C365.773 34.4805 365.395 34.793 365.074 35.1914C364.762 35.5898 364.516 36.0469 364.336 36.5625C364.164 37.0703 364.078 37.6094 364.078 38.1797ZM380.953 45.2344C380.07 45.2344 379.27 45.0859 378.551 44.7891C377.84 44.4844 377.227 44.0586 376.711 43.5117C376.203 42.9648 375.812 42.3164 375.539 41.5664C375.266 40.8164 375.129 39.9961 375.129 39.1055V38.6133C375.129 37.582 375.281 36.6641 375.586 35.8594C375.891 35.0469 376.305 34.3594 376.828 33.7969C377.352 33.2344 377.945 32.8086 378.609 32.5195C379.273 32.2305 379.961 32.0859 380.672 32.0859C381.578 32.0859 382.359 32.2422 383.016 32.5547C383.68 32.8672 384.223 33.3047 384.645 33.8672C385.066 34.4219 385.379 35.0781 385.582 35.8359C385.785 36.5859 385.887 37.4062 385.887 38.2969V39.2695H376.418V37.5H383.719V37.3359C383.688 36.7734 383.57 36.2266 383.367 35.6953C383.172 35.1641 382.859 34.7266 382.43 34.3828C382 34.0391 381.414 33.8672 380.672 33.8672C380.18 33.8672 379.727 33.9727 379.312 34.1836C378.898 34.3867 378.543 34.6914 378.246 35.0977C377.949 35.5039 377.719 36 377.555 36.5859C377.391 37.1719 377.309 37.8477 377.309 38.6133V39.1055C377.309 39.707 377.391 40.2734 377.555 40.8047C377.727 41.3281 377.973 41.7891 378.293 42.1875C378.621 42.5859 379.016 42.8984 379.477 43.125C379.945 43.3516 380.477 43.4648 381.07 43.4648C381.836 43.4648 382.484 43.3086 383.016 42.9961C383.547 42.6836 384.012 42.2656 384.41 41.7422L385.723 42.7852C385.449 43.1992 385.102 43.5938 384.68 43.9688C384.258 44.3438 383.738 44.6484 383.121 44.8828C382.512 45.1172 381.789 45.2344 380.953 45.2344ZM392.93 36.8555V38.6367H387.211V36.8555H392.93ZM402.434 41.6367C402.434 41.3242 402.363 41.0352 402.223 40.7695C402.09 40.4961 401.812 40.25 401.391 40.0312C400.977 39.8047 400.352 39.6094 399.516 39.4453C398.812 39.2969 398.176 39.1211 397.605 38.918C397.043 38.7148 396.562 38.4688 396.164 38.1797C395.773 37.8906 395.473 37.5508 395.262 37.1602C395.051 36.7695 394.945 36.3125 394.945 35.7891C394.945 35.2891 395.055 34.8164 395.273 34.3711C395.5 33.9258 395.816 33.5312 396.223 33.1875C396.637 32.8438 397.133 32.5742 397.711 32.3789C398.289 32.1836 398.934 32.0859 399.645 32.0859C400.66 32.0859 401.527 32.2656 402.246 32.625C402.965 32.9844 403.516 33.4648 403.898 34.0664C404.281 34.6602 404.473 35.3203 404.473 36.0469H402.305C402.305 35.6953 402.199 35.3555 401.988 35.0273C401.785 34.6914 401.484 34.4141 401.086 34.1953C400.695 33.9766 400.215 33.8672 399.645 33.8672C399.043 33.8672 398.555 33.9609 398.18 34.1484C397.812 34.3281 397.543 34.5586 397.371 34.8398C397.207 35.1211 397.125 35.418 397.125 35.7305C397.125 35.9648 397.164 36.1758 397.242 36.3633C397.328 36.543 397.477 36.7109 397.688 36.8672C397.898 37.0156 398.195 37.1562 398.578 37.2891C398.961 37.4219 399.449 37.5547 400.043 37.6875C401.082 37.9219 401.938 38.2031 402.609 38.5312C403.281 38.8594 403.781 39.2617 404.109 39.7383C404.438 40.2148 404.602 40.793 404.602 41.4727C404.602 42.0273 404.484 42.5352 404.25 42.9961C404.023 43.457 403.691 43.8555 403.254 44.1914C402.824 44.5195 402.309 44.7773 401.707 44.9648C401.113 45.1445 400.445 45.2344 399.703 45.2344C398.586 45.2344 397.641 45.0352 396.867 44.6367C396.094 44.2383 395.508 43.7227 395.109 43.0898C394.711 42.457 394.512 41.7891 394.512 41.0859H396.691C396.723 41.6797 396.895 42.1523 397.207 42.5039C397.52 42.8477 397.902 43.0938 398.355 43.2422C398.809 43.3828 399.258 43.4531 399.703 43.4531C400.297 43.4531 400.793 43.375 401.191 43.2188C401.598 43.0625 401.906 42.8477 402.117 42.5742C402.328 42.3008 402.434 41.9883 402.434 41.6367ZM412.758 32.3203V33.9844H405.902V32.3203H412.758ZM408.223 29.2383H410.391V41.8594C410.391 42.2891 410.457 42.6133 410.59 42.832C410.723 43.0508 410.895 43.1953 411.105 43.2656C411.316 43.3359 411.543 43.3711 411.785 43.3711C411.965 43.3711 412.152 43.3555 412.348 43.3242C412.551 43.2852 412.703 43.2539 412.805 43.2305L412.816 45C412.645 45.0547 412.418 45.1055 412.137 45.1523C411.863 45.207 411.531 45.2344 411.141 45.2344C410.609 45.2344 410.121 45.1289 409.676 44.918C409.23 44.707 408.875 44.3555 408.609 43.8633C408.352 43.3633 408.223 42.6914 408.223 41.8477V29.2383ZM422.777 42.832V36.3047C422.777 35.8047 422.676 35.3711 422.473 35.0039C422.277 34.6289 421.98 34.3398 421.582 34.1367C421.184 33.9336 420.691 33.832 420.105 33.832C419.559 33.832 419.078 33.9258 418.664 34.1133C418.258 34.3008 417.938 34.5469 417.703 34.8516C417.477 35.1562 417.363 35.4844 417.363 35.8359H415.195C415.195 35.3828 415.312 34.9336 415.547 34.4883C415.781 34.043 416.117 33.6406 416.555 33.2812C417 32.9141 417.531 32.625 418.148 32.4141C418.773 32.1953 419.469 32.0859 420.234 32.0859C421.156 32.0859 421.969 32.2422 422.672 32.5547C423.383 32.8672 423.938 33.3398 424.336 33.9727C424.742 34.5977 424.945 35.3828 424.945 36.3281V42.2344C424.945 42.6562 424.98 43.1055 425.051 43.582C425.129 44.0586 425.242 44.4688 425.391 44.8125V45H423.129C423.02 44.75 422.934 44.418 422.871 44.0039C422.809 43.582 422.777 43.1914 422.777 42.832ZM423.152 37.3125L423.176 38.8359H420.984C420.367 38.8359 419.816 38.8867 419.332 38.9883C418.848 39.082 418.441 39.2266 418.113 39.4219C417.785 39.6172 417.535 39.8633 417.363 40.1602C417.191 40.4492 417.105 40.7891 417.105 41.1797C417.105 41.5781 417.195 41.9414 417.375 42.2695C417.555 42.5977 417.824 42.8594 418.184 43.0547C418.551 43.2422 419 43.3359 419.531 43.3359C420.195 43.3359 420.781 43.1953 421.289 42.9141C421.797 42.6328 422.199 42.2891 422.496 41.8828C422.801 41.4766 422.965 41.082 422.988 40.6992L423.914 41.7422C423.859 42.0703 423.711 42.4336 423.469 42.832C423.227 43.2305 422.902 43.6133 422.496 43.9805C422.098 44.3398 421.621 44.6406 421.066 44.8828C420.52 45.1172 419.902 45.2344 419.215 45.2344C418.355 45.2344 417.602 45.0664 416.953 44.7305C416.312 44.3945 415.812 43.9453 415.453 43.3828C415.102 42.8125 414.926 42.1758 414.926 41.4727C414.926 40.793 415.059 40.1953 415.324 39.6797C415.59 39.1562 415.973 38.7227 416.473 38.3789C416.973 38.0273 417.574 37.7617 418.277 37.582C418.98 37.4023 419.766 37.3125 420.633 37.3125H423.152ZM430.523 34.3125V45H428.355V32.3203H430.465L430.523 34.3125ZM434.484 32.25L434.473 34.2656C434.293 34.2266 434.121 34.2031 433.957 34.1953C433.801 34.1797 433.621 34.1719 433.418 34.1719C432.918 34.1719 432.477 34.25 432.094 34.4062C431.711 34.5625 431.387 34.7812 431.121 35.0625C430.855 35.3438 430.645 35.6797 430.488 36.0703C430.34 36.4531 430.242 36.875 430.195 37.3359L429.586 37.6875C429.586 36.9219 429.66 36.2031 429.809 35.5312C429.965 34.8594 430.203 34.2656 430.523 33.75C430.844 33.2266 431.25 32.8203 431.742 32.5312C432.242 32.2344 432.836 32.0859 433.523 32.0859C433.68 32.0859 433.859 32.1055 434.062 32.1445C434.266 32.1758 434.406 32.2109 434.484 32.25ZM442.383 32.3203V33.9844H435.527V32.3203H442.383ZM437.848 29.2383H440.016V41.8594C440.016 42.2891 440.082 42.6133 440.215 42.832C440.348 43.0508 440.52 43.1953 440.73 43.2656C440.941 43.3359 441.168 43.3711 441.41 43.3711C441.59 43.3711 441.777 43.3555 441.973 43.3242C442.176 43.2852 442.328 43.2539 442.43 43.2305L442.441 45C442.27 45.0547 442.043 45.1055 441.762 45.1523C441.488 45.207 441.156 45.2344 440.766 45.2344C440.234 45.2344 439.746 45.1289 439.301 44.918C438.855 44.707 438.5 44.3555 438.234 43.8633C437.977 43.3633 437.848 42.6914 437.848 41.8477V29.2383Z" fill="#FFFEFE"/>
<path d="M587.125 205.297H596.125C595.656 209.609 594.422 213.469 592.422 216.875C590.422 220.281 587.594 222.984 583.938 224.984C580.281 226.953 575.719 227.938 570.25 227.938C566.25 227.938 562.609 227.188 559.328 225.688C556.078 224.188 553.281 222.062 550.938 219.312C548.594 216.531 546.781 213.203 545.5 209.328C544.25 205.422 543.625 201.078 543.625 196.297V189.5C543.625 184.719 544.25 180.391 545.5 176.516C546.781 172.609 548.609 169.266 550.984 166.484C553.391 163.703 556.281 161.562 559.656 160.062C563.031 158.562 566.828 157.812 571.047 157.812C576.203 157.812 580.562 158.781 584.125 160.719C587.688 162.656 590.453 165.344 592.422 168.781C594.422 172.188 595.656 176.141 596.125 180.641H587.125C586.688 177.453 585.875 174.719 584.688 172.438C583.5 170.125 581.812 168.344 579.625 167.094C577.438 165.844 574.578 165.219 571.047 165.219C568.016 165.219 565.344 165.797 563.031 166.953C560.75 168.109 558.828 169.75 557.266 171.875C555.734 174 554.578 176.547 553.797 179.516C553.016 182.484 552.625 185.781 552.625 189.406V196.297C552.625 199.641 552.969 202.781 553.656 205.719C554.375 208.656 555.453 211.234 556.891 213.453C558.328 215.672 560.156 217.422 562.375 218.703C564.594 219.953 567.219 220.578 570.25 220.578C574.094 220.578 577.156 219.969 579.438 218.75C581.719 217.531 583.438 215.781 584.594 213.5C585.781 211.219 586.625 208.484 587.125 205.297ZM644.828 209.75C644.828 208.156 644.578 206.75 644.078 205.531C643.609 204.281 642.766 203.156 641.547 202.156C640.359 201.156 638.703 200.203 636.578 199.297C634.484 198.391 631.828 197.469 628.609 196.531C625.234 195.531 622.188 194.422 619.469 193.203C616.75 191.953 614.422 190.531 612.484 188.938C610.547 187.344 609.062 185.516 608.031 183.453C607 181.391 606.484 179.031 606.484 176.375C606.484 173.719 607.031 171.266 608.125 169.016C609.219 166.766 610.781 164.812 612.812 163.156C614.875 161.469 617.328 160.156 620.172 159.219C623.016 158.281 626.188 157.812 629.688 157.812C634.812 157.812 639.156 158.797 642.719 160.766C646.312 162.703 649.047 165.25 650.922 168.406C652.797 171.531 653.734 174.875 653.734 178.438H644.734C644.734 175.875 644.188 173.609 643.094 171.641C642 169.641 640.344 168.078 638.125 166.953C635.906 165.797 633.094 165.219 629.688 165.219C626.469 165.219 623.812 165.703 621.719 166.672C619.625 167.641 618.062 168.953 617.031 170.609C616.031 172.266 615.531 174.156 615.531 176.281C615.531 177.719 615.828 179.031 616.422 180.219C617.047 181.375 618 182.453 619.281 183.453C620.594 184.453 622.25 185.375 624.25 186.219C626.281 187.062 628.703 187.875 631.516 188.656C635.391 189.75 638.734 190.969 641.547 192.312C644.359 193.656 646.672 195.172 648.484 196.859C650.328 198.516 651.688 200.406 652.562 202.531C653.469 204.625 653.922 207 653.922 209.656C653.922 212.438 653.359 214.953 652.234 217.203C651.109 219.453 649.5 221.375 647.406 222.969C645.312 224.562 642.797 225.797 639.859 226.672C636.953 227.516 633.703 227.938 630.109 227.938C626.953 227.938 623.844 227.5 620.781 226.625C617.75 225.75 614.984 224.438 612.484 222.688C610.016 220.938 608.031 218.781 606.531 216.219C605.062 213.625 604.328 210.625 604.328 207.219H613.328C613.328 209.562 613.781 211.578 614.688 213.266C615.594 214.922 616.828 216.297 618.391 217.391C619.984 218.484 621.781 219.297 623.781 219.828C625.812 220.328 627.922 220.578 630.109 220.578C633.266 220.578 635.938 220.141 638.125 219.266C640.312 218.391 641.969 217.141 643.094 215.516C644.25 213.891 644.828 211.969 644.828 209.75ZM701.828 209.75C701.828 208.156 701.578 206.75 701.078 205.531C700.609 204.281 699.766 203.156 698.547 202.156C697.359 201.156 695.703 200.203 693.578 199.297C691.484 198.391 688.828 197.469 685.609 196.531C682.234 195.531 679.188 194.422 676.469 193.203C673.75 191.953 671.422 190.531 669.484 188.938C667.547 187.344 666.062 185.516 665.031 183.453C664 181.391 663.484 179.031 663.484 176.375C663.484 173.719 664.031 171.266 665.125 169.016C666.219 166.766 667.781 164.812 669.812 163.156C671.875 161.469 674.328 160.156 677.172 159.219C680.016 158.281 683.188 157.812 686.688 157.812C691.812 157.812 696.156 158.797 699.719 160.766C703.312 162.703 706.047 165.25 707.922 168.406C709.797 171.531 710.734 174.875 710.734 178.438H701.734C701.734 175.875 701.188 173.609 700.094 171.641C699 169.641 697.344 168.078 695.125 166.953C692.906 165.797 690.094 165.219 686.688 165.219C683.469 165.219 680.812 165.703 678.719 166.672C676.625 167.641 675.062 168.953 674.031 170.609C673.031 172.266 672.531 174.156 672.531 176.281C672.531 177.719 672.828 179.031 673.422 180.219C674.047 181.375 675 182.453 676.281 183.453C677.594 184.453 679.25 185.375 681.25 186.219C683.281 187.062 685.703 187.875 688.516 188.656C692.391 189.75 695.734 190.969 698.547 192.312C701.359 193.656 703.672 195.172 705.484 196.859C707.328 198.516 708.688 200.406 709.562 202.531C710.469 204.625 710.922 207 710.922 209.656C710.922 212.438 710.359 214.953 709.234 217.203C708.109 219.453 706.5 221.375 704.406 222.969C702.312 224.562 699.797 225.797 696.859 226.672C693.953 227.516 690.703 227.938 687.109 227.938C683.953 227.938 680.844 227.5 677.781 226.625C674.75 225.75 671.984 224.438 669.484 222.688C667.016 220.938 665.031 218.781 663.531 216.219C662.062 213.625 661.328 210.625 661.328 207.219H670.328C670.328 209.562 670.781 211.578 671.688 213.266C672.594 214.922 673.828 216.297 675.391 217.391C676.984 218.484 678.781 219.297 680.781 219.828C682.812 220.328 684.922 220.578 687.109 220.578C690.266 220.578 692.938 220.141 695.125 219.266C697.312 218.391 698.969 217.141 700.094 215.516C701.25 213.891 701.828 211.969 701.828 209.75ZM754.375 176.281V227H745.656V176.281H754.375ZM745 162.828C745 161.422 745.422 160.234 746.266 159.266C747.141 158.297 748.422 157.812 750.109 157.812C751.766 157.812 753.031 158.297 753.906 159.266C754.812 160.234 755.266 161.422 755.266 162.828C755.266 164.172 754.812 165.328 753.906 166.297C753.031 167.234 751.766 167.703 750.109 167.703C748.422 167.703 747.141 167.234 746.266 166.297C745.422 165.328 745 164.172 745 162.828ZM797.828 213.547C797.828 212.297 797.547 211.141 796.984 210.078C796.453 208.984 795.344 208 793.656 207.125C792 206.219 789.5 205.438 786.156 204.781C783.344 204.188 780.797 203.484 778.516 202.672C776.266 201.859 774.344 200.875 772.75 199.719C771.188 198.562 769.984 197.203 769.141 195.641C768.297 194.078 767.875 192.25 767.875 190.156C767.875 188.156 768.312 186.266 769.188 184.484C770.094 182.703 771.359 181.125 772.984 179.75C774.641 178.375 776.625 177.297 778.938 176.516C781.25 175.734 783.828 175.344 786.672 175.344C790.734 175.344 794.203 176.062 797.078 177.5C799.953 178.938 802.156 180.859 803.688 183.266C805.219 185.641 805.984 188.281 805.984 191.188H797.312C797.312 189.781 796.891 188.422 796.047 187.109C795.234 185.766 794.031 184.656 792.438 183.781C790.875 182.906 788.953 182.469 786.672 182.469C784.266 182.469 782.312 182.844 780.812 183.594C779.344 184.312 778.266 185.234 777.578 186.359C776.922 187.484 776.594 188.672 776.594 189.922C776.594 190.859 776.75 191.703 777.062 192.453C777.406 193.172 778 193.844 778.844 194.469C779.688 195.062 780.875 195.625 782.406 196.156C783.938 196.688 785.891 197.219 788.266 197.75C792.422 198.688 795.844 199.812 798.531 201.125C801.219 202.438 803.219 204.047 804.531 205.953C805.844 207.859 806.5 210.172 806.5 212.891C806.5 215.109 806.031 217.141 805.094 218.984C804.188 220.828 802.859 222.422 801.109 223.766C799.391 225.078 797.328 226.109 794.922 226.859C792.547 227.578 789.875 227.938 786.906 227.938C782.438 227.938 778.656 227.141 775.562 225.547C772.469 223.953 770.125 221.891 768.531 219.359C766.938 216.828 766.141 214.156 766.141 211.344H774.859C774.984 213.719 775.672 215.609 776.922 217.016C778.172 218.391 779.703 219.375 781.516 219.969C783.328 220.531 785.125 220.812 786.906 220.812C789.281 220.812 791.266 220.5 792.859 219.875C794.484 219.25 795.719 218.391 796.562 217.297C797.406 216.203 797.828 214.953 797.828 213.547ZM574.516 331.328V305.219C574.516 303.219 574.109 301.484 573.297 300.016C572.516 298.516 571.328 297.359 569.734 296.547C568.141 295.734 566.172 295.328 563.828 295.328C561.641 295.328 559.719 295.703 558.062 296.453C556.438 297.203 555.156 298.188 554.219 299.406C553.312 300.625 552.859 301.938 552.859 303.344H544.188C544.188 301.531 544.656 299.734 545.594 297.953C546.531 296.172 547.875 294.562 549.625 293.125C551.406 291.656 553.531 290.5 556 289.656C558.5 288.781 561.281 288.344 564.344 288.344C568.031 288.344 571.281 288.969 574.094 290.219C576.938 291.469 579.156 293.359 580.75 295.891C582.375 298.391 583.188 301.531 583.188 305.312V328.938C583.188 330.625 583.328 332.422 583.609 334.328C583.922 336.234 584.375 337.875 584.969 339.25V340H575.922C575.484 339 575.141 337.672 574.891 336.016C574.641 334.328 574.516 332.766 574.516 331.328ZM576.016 309.25L576.109 315.344H567.344C564.875 315.344 562.672 315.547 560.734 315.953C558.797 316.328 557.172 316.906 555.859 317.688C554.547 318.469 553.547 319.453 552.859 320.641C552.172 321.797 551.828 323.156 551.828 324.719C551.828 326.312 552.188 327.766 552.906 329.078C553.625 330.391 554.703 331.438 556.141 332.219C557.609 332.969 559.406 333.344 561.531 333.344C564.188 333.344 566.531 332.781 568.562 331.656C570.594 330.531 572.203 329.156 573.391 327.531C574.609 325.906 575.266 324.328 575.359 322.797L579.062 326.969C578.844 328.281 578.25 329.734 577.281 331.328C576.312 332.922 575.016 334.453 573.391 335.922C571.797 337.359 569.891 338.562 567.672 339.531C565.484 340.469 563.016 340.938 560.266 340.938C556.828 340.938 553.812 340.266 551.219 338.922C548.656 337.578 546.656 335.781 545.219 333.531C543.812 331.25 543.109 328.703 543.109 325.891C543.109 323.172 543.641 320.781 544.703 318.719C545.766 316.625 547.297 314.891 549.297 313.516C551.297 312.109 553.703 311.047 556.516 310.328C559.328 309.609 562.469 309.25 565.938 309.25H576.016ZM609.672 331L622.703 289.281H628.422L627.297 297.578L614.031 340H608.453L609.672 331ZM600.906 289.281L612.016 331.469L612.812 340H606.953L592.234 289.281H600.906ZM640.891 331.141L651.484 289.281H660.109L645.391 340H639.578L640.891 331.141ZM629.688 289.281L642.438 330.297L643.891 340H638.359L624.719 297.484L623.594 289.281H629.688ZM690.062 340.938C686.531 340.938 683.328 340.344 680.453 339.156C677.609 337.938 675.156 336.234 673.094 334.047C671.062 331.859 669.5 329.266 668.406 326.266C667.312 323.266 666.766 319.984 666.766 316.422V314.453C666.766 310.328 667.375 306.656 668.594 303.438C669.812 300.188 671.469 297.438 673.562 295.188C675.656 292.938 678.031 291.234 680.688 290.078C683.344 288.922 686.094 288.344 688.938 288.344C692.562 288.344 695.688 288.969 698.312 290.219C700.969 291.469 703.141 293.219 704.828 295.469C706.516 297.688 707.766 300.312 708.578 303.344C709.391 306.344 709.797 309.625 709.797 313.188V317.078H671.922V310H701.125V309.344C701 307.094 700.531 304.906 699.719 302.781C698.938 300.656 697.688 298.906 695.969 297.531C694.25 296.156 691.906 295.469 688.938 295.469C686.969 295.469 685.156 295.891 683.5 296.734C681.844 297.547 680.422 298.766 679.234 300.391C678.047 302.016 677.125 304 676.469 306.344C675.812 308.688 675.484 311.391 675.484 314.453V316.422C675.484 318.828 675.812 321.094 676.469 323.219C677.156 325.312 678.141 327.156 679.422 328.75C680.734 330.344 682.312 331.594 684.156 332.5C686.031 333.406 688.156 333.859 690.531 333.859C693.594 333.859 696.188 333.234 698.312 331.984C700.438 330.734 702.297 329.062 703.891 326.969L709.141 331.141C708.047 332.797 706.656 334.375 704.969 335.875C703.281 337.375 701.203 338.594 698.734 339.531C696.297 340.469 693.406 340.938 690.062 340.938ZM749.453 326.547C749.453 325.297 749.172 324.141 748.609 323.078C748.078 321.984 746.969 321 745.281 320.125C743.625 319.219 741.125 318.438 737.781 317.781C734.969 317.188 732.422 316.484 730.141 315.672C727.891 314.859 725.969 313.875 724.375 312.719C722.812 311.562 721.609 310.203 720.766 308.641C719.922 307.078 719.5 305.25 719.5 303.156C719.5 301.156 719.938 299.266 720.812 297.484C721.719 295.703 722.984 294.125 724.609 292.75C726.266 291.375 728.25 290.297 730.562 289.516C732.875 288.734 735.453 288.344 738.297 288.344C742.359 288.344 745.828 289.062 748.703 290.5C751.578 291.938 753.781 293.859 755.312 296.266C756.844 298.641 757.609 301.281 757.609 304.188H748.938C748.938 302.781 748.516 301.422 747.672 300.109C746.859 298.766 745.656 297.656 744.062 296.781C742.5 295.906 740.578 295.469 738.297 295.469C735.891 295.469 733.938 295.844 732.438 296.594C730.969 297.312 729.891 298.234 729.203 299.359C728.547 300.484 728.219 301.672 728.219 302.922C728.219 303.859 728.375 304.703 728.688 305.453C729.031 306.172 729.625 306.844 730.469 307.469C731.312 308.062 732.5 308.625 734.031 309.156C735.562 309.688 737.516 310.219 739.891 310.75C744.047 311.688 747.469 312.812 750.156 314.125C752.844 315.438 754.844 317.047 756.156 318.953C757.469 320.859 758.125 323.172 758.125 325.891C758.125 328.109 757.656 330.141 756.719 331.984C755.812 333.828 754.484 335.422 752.734 336.766C751.016 338.078 748.953 339.109 746.547 339.859C744.172 340.578 741.5 340.938 738.531 340.938C734.062 340.938 730.281 340.141 727.188 338.547C724.094 336.953 721.75 334.891 720.156 332.359C718.562 329.828 717.766 327.156 717.766 324.344H726.484C726.609 326.719 727.297 328.609 728.547 330.016C729.797 331.391 731.328 332.375 733.141 332.969C734.953 333.531 736.75 333.812 738.531 333.812C740.906 333.812 742.891 333.5 744.484 332.875C746.109 332.25 747.344 331.391 748.188 330.297C749.031 329.203 749.453 327.953 749.453 326.547ZM767.219 315.203V314.125C767.219 310.469 767.75 307.078 768.812 303.953C769.875 300.797 771.406 298.062 773.406 295.75C775.406 293.406 777.828 291.594 780.672 290.312C783.516 289 786.703 288.344 790.234 288.344C793.797 288.344 797 289 799.844 290.312C802.719 291.594 805.156 293.406 807.156 295.75C809.188 298.062 810.734 300.797 811.797 303.953C812.859 307.078 813.391 310.469 813.391 314.125V315.203C813.391 318.859 812.859 322.25 811.797 325.375C810.734 328.5 809.188 331.234 807.156 333.578C805.156 335.891 802.734 337.703 799.891 339.016C797.078 340.297 793.891 340.938 790.328 340.938C786.766 340.938 783.562 340.297 780.719 339.016C777.875 337.703 775.438 335.891 773.406 333.578C771.406 331.234 769.875 328.5 768.812 325.375C767.75 322.25 767.219 318.859 767.219 315.203ZM775.891 314.125V315.203C775.891 317.734 776.188 320.125 776.781 322.375C777.375 324.594 778.266 326.562 779.453 328.281C780.672 330 782.188 331.359 784 332.359C785.812 333.328 787.922 333.812 790.328 333.812C792.703 333.812 794.781 333.328 796.562 332.359C798.375 331.359 799.875 330 801.062 328.281C802.25 326.562 803.141 324.594 803.734 322.375C804.359 320.125 804.672 317.734 804.672 315.203V314.125C804.672 311.625 804.359 309.266 803.734 307.047C803.141 304.797 802.234 302.812 801.016 301.094C799.828 299.344 798.328 297.969 796.516 296.969C794.734 295.969 792.641 295.469 790.234 295.469C787.859 295.469 785.766 295.969 783.953 296.969C782.172 297.969 780.672 299.344 779.453 301.094C778.266 302.812 777.375 304.797 776.781 307.047C776.188 309.266 775.891 311.625 775.891 314.125ZM832.891 299.359V340H824.172V289.281H832.422L832.891 299.359ZM831.109 312.719L827.078 312.578C827.109 309.109 827.562 305.906 828.438 302.969C829.312 300 830.609 297.422 832.328 295.234C834.047 293.047 836.188 291.359 838.75 290.172C841.312 288.953 844.281 288.344 847.656 288.344C850.031 288.344 852.219 288.688 854.219 289.375C856.219 290.031 857.953 291.078 859.422 292.516C860.891 293.953 862.031 295.797 862.844 298.047C863.656 300.297 864.062 303.016 864.062 306.203V340H855.391V306.625C855.391 303.969 854.938 301.844 854.031 300.25C853.156 298.656 851.906 297.5 850.281 296.781C848.656 296.031 846.75 295.656 844.562 295.656C842 295.656 839.859 296.109 838.141 297.016C836.422 297.922 835.047 299.172 834.016 300.766C832.984 302.359 832.234 304.188 831.766 306.25C831.328 308.281 831.109 310.438 831.109 312.719ZM863.969 307.938L858.156 309.719C858.188 306.938 858.641 304.266 859.516 301.703C860.422 299.141 861.719 296.859 863.406 294.859C865.125 292.859 867.234 291.281 869.734 290.125C872.234 288.938 875.094 288.344 878.312 288.344C881.031 288.344 883.438 288.703 885.531 289.422C887.656 290.141 889.438 291.25 890.875 292.75C892.344 294.219 893.453 296.109 894.203 298.422C894.953 300.734 895.328 303.484 895.328 306.672V340H886.609V306.578C886.609 303.734 886.156 301.531 885.25 299.969C884.375 298.375 883.125 297.266 881.5 296.641C879.906 295.984 878 295.656 875.781 295.656C873.875 295.656 872.188 295.984 870.719 296.641C869.25 297.297 868.016 298.203 867.016 299.359C866.016 300.484 865.25 301.781 864.719 303.25C864.219 304.719 863.969 306.281 863.969 307.938ZM929.5 340.938C925.969 340.938 922.766 340.344 919.891 339.156C917.047 337.938 914.594 336.234 912.531 334.047C910.5 331.859 908.938 329.266 907.844 326.266C906.75 323.266 906.203 319.984 906.203 316.422V314.453C906.203 310.328 906.812 306.656 908.031 303.438C909.25 300.188 910.906 297.438 913 295.188C915.094 292.938 917.469 291.234 920.125 290.078C922.781 288.922 925.531 288.344 928.375 288.344C932 288.344 935.125 288.969 937.75 290.219C940.406 291.469 942.578 293.219 944.266 295.469C945.953 297.688 947.203 300.312 948.016 303.344C948.828 306.344 949.234 309.625 949.234 313.188V317.078H911.359V310H940.562V309.344C940.438 307.094 939.969 304.906 939.156 302.781C938.375 300.656 937.125 298.906 935.406 297.531C933.688 296.156 931.344 295.469 928.375 295.469C926.406 295.469 924.594 295.891 922.938 296.734C921.281 297.547 919.859 298.766 918.672 300.391C917.484 302.016 916.562 304 915.906 306.344C915.25 308.688 914.922 311.391 914.922 314.453V316.422C914.922 318.828 915.25 321.094 915.906 323.219C916.594 325.312 917.578 327.156 918.859 328.75C920.172 330.344 921.75 331.594 923.594 332.5C925.469 333.406 927.594 333.859 929.969 333.859C933.031 333.859 935.625 333.234 937.75 331.984C939.875 330.734 941.734 329.062 943.328 326.969L948.578 331.141C947.484 332.797 946.094 334.375 944.406 335.875C942.719 337.375 940.641 338.594 938.172 339.531C935.734 340.469 932.844 340.938 929.5 340.938Z" fill="#FFFCFC" fill-opacity="0.5"/>
<path d="M103.704 54.504L94.776 53.544C94.776 60.936 93.528 69.576 91.704 77.256C89.112 88.968 81.432 114.6 70.488 129.288L78.36 132.36C89.208 114.888 96.024 90.984 99.288 77.448C100.632 71.496 101.88 63.624 102.552 60.168C102.936 58.344 103.32 56.232 103.704 54.504ZM136.728 65.544L129.72 68.712C136.44 76.68 144.024 93.384 146.808 103.176L154.296 99.624C151.032 90.792 142.68 73.32 136.728 65.544ZM69.144 75.528L69.912 83.88C72.408 83.496 76.344 83.016 78.552 82.728C84.408 82.152 102.456 79.944 108.888 79.944C115.032 79.944 119.064 81.576 119.064 90.408C119.064 100.776 117.528 113.256 114.456 119.784C112.536 123.912 109.656 124.68 106.104 124.68C103.416 124.68 98.328 124.008 94.296 122.76L95.64 130.728C98.616 131.496 103.224 132.168 106.872 132.168C113.112 132.168 117.912 130.536 120.888 124.104C124.92 116.136 126.456 100.872 126.456 89.448C126.456 76.488 119.448 73.224 110.904 73.224C104.376 73.224 84.888 75.336 77.688 75.528C74.616 75.624 72.12 75.72 69.144 75.528ZM137.784 51.624L132.6 53.832C135.288 57.48 138.552 63.24 140.472 67.176L145.656 64.872C143.64 60.936 140.184 55.08 137.784 51.624ZM148.344 47.784L143.256 49.992C146.04 53.544 149.208 59.016 151.224 63.24L156.504 60.936C154.584 57.384 150.936 51.336 148.344 47.784ZM123.192 165.968H114.36C114.552 166.832 114.84 169.52 115.032 172.112C115.32 177.392 115.416 196.496 115.416 200.72L122.712 204.464C122.616 196.784 122.424 178.256 122.712 172.016C122.712 170.864 123 167.12 123.192 165.968ZM72.12 179.408L72.312 186.8C86.808 185.744 107.352 185.072 123.864 185.072C137.976 185.072 146.616 185.264 151.992 185.552L152.088 178.448C147.576 178.352 135.672 178.352 123.96 178.352C109.176 178.352 85.176 179.216 72.12 179.408ZM122.52 207.248L117.24 204.56C118.776 214.832 114.936 219.824 108.984 219.824C103.704 219.824 99.192 216.368 99.192 210.32C99.192 204.08 103.896 200.144 108.984 200.144C114.168 200.144 118.392 203.792 118.392 212.432C118.392 228.272 108.216 236.816 90.744 240.944L97.176 247.184C119.448 240.56 125.784 226.16 125.784 213.104C125.784 202.064 120.12 193.808 108.984 193.808C99.864 193.808 91.992 200.912 91.992 210.416C91.992 220.88 99.768 226.544 107.832 226.544C116.568 226.544 122.52 220.112 122.52 207.248ZM83.736 288.664V296.536C91.32 297.112 99.576 297.592 109.176 297.592C118.008 297.592 128.568 296.92 135.096 296.44V288.568C128.088 289.24 118.392 289.912 109.176 289.912C99.576 289.912 90.648 289.528 83.736 288.664ZM87.672 327.352L79.8 326.68C78.936 330.52 77.88 335.032 77.88 340.024C77.88 352.024 89.112 358.456 108.696 358.456C122.328 358.456 134.52 357.016 141.432 355.096L141.336 346.936C134.04 349.24 121.752 350.68 108.504 350.68C93.048 350.68 85.656 345.688 85.656 338.296C85.656 334.744 86.424 331.192 87.672 327.352ZM137.784 278.008L132.6 280.216C135.192 283.768 138.456 289.624 140.376 293.56L145.656 291.256C143.64 287.32 140.184 281.464 137.784 278.008ZM148.344 274.168L143.256 276.376C145.944 279.928 149.112 285.4 151.224 289.624L156.408 287.224C154.584 283.672 150.84 277.72 148.344 274.168ZM84.408 401.088L75.096 400.896C75.672 403.104 75.672 407.232 75.672 409.44C75.672 415.008 75.864 426.72 76.728 434.976C79.416 459.84 88.056 468.864 97.176 468.864C103.704 468.864 109.464 463.296 115.32 447.072L109.272 440.256C106.776 449.856 102.264 459.744 97.368 459.744C90.456 459.744 85.848 449.088 84.216 433.056C83.544 425.184 83.448 416.352 83.544 410.4C83.64 407.904 83.928 403.296 84.408 401.088ZM134.328 403.68L126.936 406.272C136.056 417.504 141.912 437.28 143.544 454.56L151.32 451.488C149.88 435.264 142.968 414.816 134.328 403.68Z" fill="#FFFCFC" fill-opacity="0.5"/>
<path d="M216.703 95.125V104.125C212.391 103.656 208.531 102.422 205.125 100.422C201.719 98.4219 199.016 95.5938 197.016 91.9375C195.047 88.2812 194.062 83.7188 194.062 78.25C194.062 74.25 194.812 70.6094 196.312 67.3281C197.812 64.0781 199.938 61.2813 202.688 58.9375C205.469 56.5938 208.797 54.7813 212.672 53.5C216.578 52.25 220.922 51.625 225.703 51.625H232.5C237.281 51.625 241.609 52.25 245.484 53.5C249.391 54.7812 252.734 56.6094 255.516 58.9844C258.297 61.3906 260.438 64.2812 261.938 67.6562C263.438 71.0312 264.188 74.8281 264.188 79.0469C264.188 84.2031 263.219 88.5625 261.281 92.125C259.344 95.6875 256.656 98.4531 253.219 100.422C249.812 102.422 245.859 103.656 241.359 104.125V95.125C244.547 94.6875 247.281 93.875 249.562 92.6875C251.875 91.5 253.656 89.8125 254.906 87.625C256.156 85.4375 256.781 82.5781 256.781 79.0469C256.781 76.0156 256.203 73.3438 255.047 71.0312C253.891 68.75 252.25 66.8281 250.125 65.2656C248 63.7344 245.453 62.5781 242.484 61.7969C239.516 61.0156 236.219 60.625 232.594 60.625H225.703C222.359 60.625 219.219 60.9688 216.281 61.6562C213.344 62.375 210.766 63.4531 208.547 64.8906C206.328 66.3281 204.578 68.1562 203.297 70.375C202.047 72.5938 201.422 75.2188 201.422 78.25C201.422 82.0938 202.031 85.1562 203.25 87.4375C204.469 89.7188 206.219 91.4375 208.5 92.5938C210.781 93.7812 213.516 94.625 216.703 95.125ZM212.25 152.828C213.844 152.828 215.25 152.578 216.469 152.078C217.719 151.609 218.844 150.766 219.844 149.547C220.844 148.359 221.797 146.703 222.703 144.578C223.609 142.484 224.531 139.828 225.469 136.609C226.469 133.234 227.578 130.188 228.797 127.469C230.047 124.75 231.469 122.422 233.062 120.484C234.656 118.547 236.484 117.062 238.547 116.031C240.609 115 242.969 114.484 245.625 114.484C248.281 114.484 250.734 115.031 252.984 116.125C255.234 117.219 257.188 118.781 258.844 120.812C260.531 122.875 261.844 125.328 262.781 128.172C263.719 131.016 264.188 134.188 264.188 137.688C264.188 142.812 263.203 147.156 261.234 150.719C259.297 154.312 256.75 157.047 253.594 158.922C250.469 160.797 247.125 161.734 243.562 161.734V152.734C246.125 152.734 248.391 152.188 250.359 151.094C252.359 150 253.922 148.344 255.047 146.125C256.203 143.906 256.781 141.094 256.781 137.688C256.781 134.469 256.297 131.812 255.328 129.719C254.359 127.625 253.047 126.062 251.391 125.031C249.734 124.031 247.844 123.531 245.719 123.531C244.281 123.531 242.969 123.828 241.781 124.422C240.625 125.047 239.547 126 238.547 127.281C237.547 128.594 236.625 130.25 235.781 132.25C234.938 134.281 234.125 136.703 233.344 139.516C232.25 143.391 231.031 146.734 229.688 149.547C228.344 152.359 226.828 154.672 225.141 156.484C223.484 158.328 221.594 159.688 219.469 160.562C217.375 161.469 215 161.922 212.344 161.922C209.562 161.922 207.047 161.359 204.797 160.234C202.547 159.109 200.625 157.5 199.031 155.406C197.438 153.312 196.203 150.797 195.328 147.859C194.484 144.953 194.062 141.703 194.062 138.109C194.062 134.953 194.5 131.844 195.375 128.781C196.25 125.75 197.562 122.984 199.312 120.484C201.062 118.016 203.219 116.031 205.781 114.531C208.375 113.062 211.375 112.328 214.781 112.328V121.328C212.438 121.328 210.422 121.781 208.734 122.688C207.078 123.594 205.703 124.828 204.609 126.391C203.516 127.984 202.703 129.781 202.172 131.781C201.672 133.812 201.422 135.922 201.422 138.109C201.422 141.266 201.859 143.938 202.734 146.125C203.609 148.312 204.859 149.969 206.484 151.094C208.109 152.25 210.031 152.828 212.25 152.828ZM212.25 209.828C213.844 209.828 215.25 209.578 216.469 209.078C217.719 208.609 218.844 207.766 219.844 206.547C220.844 205.359 221.797 203.703 222.703 201.578C223.609 199.484 224.531 196.828 225.469 193.609C226.469 190.234 227.578 187.188 228.797 184.469C230.047 181.75 231.469 179.422 233.062 177.484C234.656 175.547 236.484 174.062 238.547 173.031C240.609 172 242.969 171.484 245.625 171.484C248.281 171.484 250.734 172.031 252.984 173.125C255.234 174.219 257.188 175.781 258.844 177.812C260.531 179.875 261.844 182.328 262.781 185.172C263.719 188.016 264.188 191.188 264.188 194.688C264.188 199.812 263.203 204.156 261.234 207.719C259.297 211.312 256.75 214.047 253.594 215.922C250.469 217.797 247.125 218.734 243.562 218.734V209.734C246.125 209.734 248.391 209.188 250.359 208.094C252.359 207 253.922 205.344 255.047 203.125C256.203 200.906 256.781 198.094 256.781 194.688C256.781 191.469 256.297 188.812 255.328 186.719C254.359 184.625 253.047 183.062 251.391 182.031C249.734 181.031 247.844 180.531 245.719 180.531C244.281 180.531 242.969 180.828 241.781 181.422C240.625 182.047 239.547 183 238.547 184.281C237.547 185.594 236.625 187.25 235.781 189.25C234.938 191.281 234.125 193.703 233.344 196.516C232.25 200.391 231.031 203.734 229.688 206.547C228.344 209.359 226.828 211.672 225.141 213.484C223.484 215.328 221.594 216.688 219.469 217.562C217.375 218.469 215 218.922 212.344 218.922C209.562 218.922 207.047 218.359 204.797 217.234C202.547 216.109 200.625 214.5 199.031 212.406C197.438 210.312 196.203 207.797 195.328 204.859C194.484 201.953 194.062 198.703 194.062 195.109C194.062 191.953 194.5 188.844 195.375 185.781C196.25 182.75 197.562 179.984 199.312 177.484C201.062 175.016 203.219 173.031 205.781 171.531C208.375 170.062 211.375 169.328 214.781 169.328V178.328C212.438 178.328 210.422 178.781 208.734 179.688C207.078 180.594 205.703 181.828 204.609 183.391C203.516 184.984 202.703 186.781 202.172 188.781C201.672 190.812 201.422 192.922 201.422 195.109C201.422 198.266 201.859 200.938 202.734 203.125C203.609 205.312 204.859 206.969 206.484 208.094C208.109 209.25 210.031 209.828 212.25 209.828Z" fill="#FFFCFC" fill-opacity="0.5"/>
</svg>
