<svg width="500" height="500" viewBox="0 0 500 500" fill="none" xmlns="http://www.w3.org/2000/svg">
<path d="M451.061 361.061C451.646 360.475 451.646 359.525 451.061 358.939L441.515 349.393C440.929 348.808 439.979 348.808 439.393 349.393C438.808 349.979 438.808 350.929 439.393 351.515L447.879 360L439.393 368.485C438.808 369.071 438.808 370.021 439.393 370.607C439.979 371.192 440.929 371.192 441.515 370.607L451.061 361.061ZM50 361.5H450V358.5H50V361.5Z" fill="#058105"/>
<path d="M139.012 331.98V351H135.742V331.98H139.012ZM135.496 326.936C135.496 326.408 135.654 325.963 135.971 325.6C136.299 325.236 136.779 325.055 137.412 325.055C138.033 325.055 138.508 325.236 138.836 325.6C139.176 325.963 139.346 326.408 139.346 326.936C139.346 327.439 139.176 327.873 138.836 328.236C138.508 328.588 138.033 328.764 137.412 328.764C136.779 328.764 136.299 328.588 135.971 328.236C135.654 327.873 135.496 327.439 135.496 326.936ZM147.484 336.041V351H144.232V331.98H147.309L147.484 336.041ZM146.711 340.77L145.357 340.717C145.369 339.416 145.562 338.215 145.938 337.113C146.312 336 146.84 335.033 147.52 334.213C148.199 333.393 149.008 332.76 149.945 332.314C150.895 331.857 151.943 331.629 153.092 331.629C154.029 331.629 154.873 331.758 155.623 332.016C156.373 332.262 157.012 332.66 157.539 333.211C158.078 333.762 158.488 334.477 158.77 335.355C159.051 336.223 159.191 337.283 159.191 338.537V351H155.922V338.502C155.922 337.506 155.775 336.709 155.482 336.111C155.189 335.502 154.762 335.062 154.199 334.793C153.637 334.512 152.945 334.371 152.125 334.371C151.316 334.371 150.578 334.541 149.91 334.881C149.254 335.221 148.686 335.689 148.205 336.287C147.736 336.885 147.367 337.57 147.098 338.344C146.84 339.105 146.711 339.914 146.711 340.77ZM167.664 324V351H164.395V324H167.664ZM176.418 331.98V351H173.148V331.98H176.418ZM172.902 326.936C172.902 326.408 173.061 325.963 173.377 325.6C173.705 325.236 174.186 325.055 174.818 325.055C175.439 325.055 175.914 325.236 176.242 325.6C176.582 325.963 176.752 326.408 176.752 326.936C176.752 327.439 176.582 327.873 176.242 328.236C175.914 328.588 175.439 328.764 174.818 328.764C174.186 328.764 173.705 328.588 173.377 328.236C173.061 327.873 172.902 327.439 172.902 326.936ZM184.891 336.041V351H181.639V331.98H184.715L184.891 336.041ZM184.117 340.77L182.764 340.717C182.775 339.416 182.969 338.215 183.344 337.113C183.719 336 184.246 335.033 184.926 334.213C185.605 333.393 186.414 332.76 187.352 332.314C188.301 331.857 189.35 331.629 190.498 331.629C191.436 331.629 192.279 331.758 193.029 332.016C193.779 332.262 194.418 332.66 194.945 333.211C195.484 333.762 195.895 334.477 196.176 335.355C196.457 336.223 196.598 337.283 196.598 338.537V351H193.328V338.502C193.328 337.506 193.182 336.709 192.889 336.111C192.596 335.502 192.168 335.062 191.605 334.793C191.043 334.512 190.352 334.371 189.531 334.371C188.723 334.371 187.984 334.541 187.316 334.881C186.66 335.221 186.092 335.689 185.611 336.287C185.143 336.885 184.773 337.57 184.504 338.344C184.246 339.105 184.117 339.914 184.117 340.77ZM209.43 351.352C208.105 351.352 206.904 351.129 205.826 350.684C204.76 350.227 203.84 349.588 203.066 348.768C202.305 347.947 201.719 346.975 201.309 345.85C200.898 344.725 200.693 343.494 200.693 342.158V341.42C200.693 339.873 200.922 338.496 201.379 337.289C201.836 336.07 202.457 335.039 203.242 334.195C204.027 333.352 204.918 332.713 205.914 332.279C206.91 331.846 207.941 331.629 209.008 331.629C210.367 331.629 211.539 331.863 212.523 332.332C213.52 332.801 214.334 333.457 214.967 334.301C215.6 335.133 216.068 336.117 216.373 337.254C216.678 338.379 216.83 339.609 216.83 340.945V342.404H202.627V339.75H213.578V339.504C213.531 338.66 213.355 337.84 213.051 337.043C212.758 336.246 212.289 335.59 211.645 335.074C211 334.559 210.121 334.301 209.008 334.301C208.27 334.301 207.59 334.459 206.969 334.775C206.348 335.08 205.814 335.537 205.369 336.146C204.924 336.756 204.578 337.5 204.332 338.379C204.086 339.258 203.963 340.271 203.963 341.42V342.158C203.963 343.061 204.086 343.91 204.332 344.707C204.59 345.492 204.959 346.184 205.439 346.781C205.932 347.379 206.523 347.848 207.215 348.188C207.918 348.527 208.715 348.697 209.605 348.697C210.754 348.697 211.727 348.463 212.523 347.994C213.32 347.525 214.018 346.898 214.615 346.113L216.584 347.678C216.174 348.299 215.652 348.891 215.02 349.453C214.387 350.016 213.607 350.473 212.682 350.824C211.768 351.176 210.684 351.352 209.43 351.352ZM241.545 347.309V324H244.814V351H241.826L241.545 347.309ZM228.748 341.701V341.332C228.748 339.879 228.924 338.561 229.275 337.377C229.639 336.182 230.148 335.156 230.805 334.301C231.473 333.445 232.264 332.789 233.178 332.332C234.104 331.863 235.135 331.629 236.271 331.629C237.467 331.629 238.51 331.84 239.4 332.262C240.303 332.672 241.064 333.275 241.686 334.072C242.318 334.857 242.816 335.807 243.18 336.92C243.543 338.033 243.795 339.293 243.936 340.699V342.316C243.807 343.711 243.555 344.965 243.18 346.078C242.816 347.191 242.318 348.141 241.686 348.926C241.064 349.711 240.303 350.314 239.4 350.736C238.498 351.146 237.443 351.352 236.236 351.352C235.123 351.352 234.104 351.111 233.178 350.631C232.264 350.15 231.473 349.477 230.805 348.609C230.148 347.742 229.639 346.723 229.275 345.551C228.924 344.367 228.748 343.084 228.748 341.701ZM232.018 341.332V341.701C232.018 342.65 232.111 343.541 232.299 344.373C232.498 345.205 232.803 345.938 233.213 346.57C233.623 347.203 234.145 347.701 234.777 348.064C235.41 348.416 236.166 348.592 237.045 348.592C238.123 348.592 239.008 348.363 239.699 347.906C240.402 347.449 240.965 346.846 241.387 346.096C241.809 345.346 242.137 344.531 242.371 343.652V339.416C242.23 338.771 242.025 338.15 241.756 337.553C241.498 336.943 241.158 336.404 240.736 335.936C240.326 335.455 239.816 335.074 239.207 334.793C238.609 334.512 237.9 334.371 237.08 334.371C236.189 334.371 235.422 334.559 234.777 334.934C234.145 335.297 233.623 335.801 233.213 336.445C232.803 337.078 232.498 337.816 232.299 338.66C232.111 339.492 232.018 340.383 232.018 341.332ZM253.41 331.98V351H250.141V331.98H253.41ZM249.895 326.936C249.895 326.408 250.053 325.963 250.369 325.6C250.697 325.236 251.178 325.055 251.811 325.055C252.432 325.055 252.906 325.236 253.234 325.6C253.574 325.963 253.744 326.408 253.744 326.936C253.744 327.439 253.574 327.873 253.234 328.236C252.906 328.588 252.432 328.764 251.811 328.764C251.178 328.764 250.697 328.588 250.369 328.236C250.053 327.873 249.895 327.439 249.895 326.936ZM261.883 334.969V351H258.631V331.98H261.795L261.883 334.969ZM267.824 331.875L267.807 334.898C267.537 334.84 267.279 334.805 267.033 334.793C266.799 334.77 266.529 334.758 266.225 334.758C265.475 334.758 264.812 334.875 264.238 335.109C263.664 335.344 263.178 335.672 262.779 336.094C262.381 336.516 262.064 337.02 261.83 337.605C261.607 338.18 261.461 338.812 261.391 339.504L260.477 340.031C260.477 338.883 260.588 337.805 260.811 336.797C261.045 335.789 261.402 334.898 261.883 334.125C262.363 333.34 262.973 332.73 263.711 332.297C264.461 331.852 265.352 331.629 266.383 331.629C266.617 331.629 266.887 331.658 267.191 331.717C267.496 331.764 267.707 331.816 267.824 331.875ZM278.371 351.352C277.047 351.352 275.846 351.129 274.768 350.684C273.701 350.227 272.781 349.588 272.008 348.768C271.246 347.947 270.66 346.975 270.25 345.85C269.84 344.725 269.635 343.494 269.635 342.158V341.42C269.635 339.873 269.863 338.496 270.32 337.289C270.777 336.07 271.398 335.039 272.184 334.195C272.969 333.352 273.859 332.713 274.855 332.279C275.852 331.846 276.883 331.629 277.949 331.629C279.309 331.629 280.48 331.863 281.465 332.332C282.461 332.801 283.275 333.457 283.908 334.301C284.541 335.133 285.01 336.117 285.314 337.254C285.619 338.379 285.771 339.609 285.771 340.945V342.404H271.568V339.75H282.52V339.504C282.473 338.66 282.297 337.84 281.992 337.043C281.699 336.246 281.23 335.59 280.586 335.074C279.941 334.559 279.062 334.301 277.949 334.301C277.211 334.301 276.531 334.459 275.91 334.775C275.289 335.08 274.756 335.537 274.311 336.146C273.865 336.756 273.52 337.5 273.273 338.379C273.027 339.258 272.904 340.271 272.904 341.42V342.158C272.904 343.061 273.027 343.91 273.273 344.707C273.531 345.492 273.9 346.184 274.381 346.781C274.873 347.379 275.465 347.848 276.156 348.188C276.859 348.527 277.656 348.697 278.547 348.697C279.695 348.697 280.668 348.463 281.465 347.994C282.262 347.525 282.959 346.898 283.557 346.113L285.525 347.678C285.115 348.299 284.594 348.891 283.961 349.453C283.328 350.016 282.549 350.473 281.623 350.824C280.709 351.176 279.625 351.352 278.371 351.352ZM297.18 348.68C297.953 348.68 298.668 348.521 299.324 348.205C299.98 347.889 300.52 347.455 300.941 346.904C301.363 346.342 301.604 345.703 301.662 344.988H304.756C304.697 346.113 304.316 347.162 303.613 348.135C302.922 349.096 302.014 349.875 300.889 350.473C299.764 351.059 298.527 351.352 297.18 351.352C295.75 351.352 294.502 351.1 293.436 350.596C292.381 350.092 291.502 349.4 290.799 348.521C290.107 347.643 289.586 346.635 289.234 345.498C288.895 344.35 288.725 343.137 288.725 341.859V341.121C288.725 339.844 288.895 338.637 289.234 337.5C289.586 336.352 290.107 335.338 290.799 334.459C291.502 333.58 292.381 332.889 293.436 332.385C294.502 331.881 295.75 331.629 297.18 331.629C298.668 331.629 299.969 331.934 301.082 332.543C302.195 333.141 303.068 333.961 303.701 335.004C304.346 336.035 304.697 337.207 304.756 338.52H301.662C301.604 337.734 301.381 337.025 300.994 336.393C300.619 335.76 300.104 335.256 299.447 334.881C298.803 334.494 298.047 334.301 297.18 334.301C296.184 334.301 295.346 334.5 294.666 334.898C293.998 335.285 293.465 335.812 293.066 336.48C292.68 337.137 292.398 337.869 292.223 338.678C292.059 339.475 291.977 340.289 291.977 341.121V341.859C291.977 342.691 292.059 343.512 292.223 344.32C292.387 345.129 292.662 345.861 293.049 346.518C293.447 347.174 293.98 347.701 294.648 348.1C295.328 348.486 296.172 348.68 297.18 348.68ZM316.375 331.98V334.477H306.092V331.98H316.375ZM309.572 327.357H312.824V346.289C312.824 346.934 312.924 347.42 313.123 347.748C313.322 348.076 313.58 348.293 313.896 348.398C314.213 348.504 314.553 348.557 314.916 348.557C315.186 348.557 315.467 348.533 315.76 348.486C316.064 348.428 316.293 348.381 316.445 348.346L316.463 351C316.205 351.082 315.865 351.158 315.443 351.229C315.033 351.311 314.535 351.352 313.949 351.352C313.152 351.352 312.42 351.193 311.752 350.877C311.084 350.561 310.551 350.033 310.152 349.295C309.766 348.545 309.572 347.537 309.572 346.271V327.357ZM323.723 331.98V351H320.453V331.98H323.723ZM320.207 326.936C320.207 326.408 320.365 325.963 320.682 325.6C321.01 325.236 321.49 325.055 322.123 325.055C322.744 325.055 323.219 325.236 323.547 325.6C323.887 325.963 324.057 326.408 324.057 326.936C324.057 327.439 323.887 327.873 323.547 328.236C323.219 328.588 322.744 328.764 322.123 328.764C321.49 328.764 321.01 328.588 320.682 328.236C320.365 327.873 320.207 327.439 320.207 326.936ZM328.082 341.701V341.297C328.082 339.926 328.281 338.654 328.68 337.482C329.078 336.299 329.652 335.273 330.402 334.406C331.152 333.527 332.061 332.848 333.127 332.367C334.193 331.875 335.389 331.629 336.713 331.629C338.049 331.629 339.25 331.875 340.316 332.367C341.395 332.848 342.309 333.527 343.059 334.406C343.82 335.273 344.4 336.299 344.799 337.482C345.197 338.654 345.396 339.926 345.396 341.297V341.701C345.396 343.072 345.197 344.344 344.799 345.516C344.4 346.688 343.82 347.713 343.059 348.592C342.309 349.459 341.4 350.139 340.334 350.631C339.279 351.111 338.084 351.352 336.748 351.352C335.412 351.352 334.211 351.111 333.145 350.631C332.078 350.139 331.164 349.459 330.402 348.592C329.652 347.713 329.078 346.688 328.68 345.516C328.281 344.344 328.082 343.072 328.082 341.701ZM331.334 341.297V341.701C331.334 342.65 331.445 343.547 331.668 344.391C331.891 345.223 332.225 345.961 332.67 346.605C333.127 347.25 333.695 347.76 334.375 348.135C335.055 348.498 335.846 348.68 336.748 348.68C337.639 348.68 338.418 348.498 339.086 348.135C339.766 347.76 340.328 347.25 340.773 346.605C341.219 345.961 341.553 345.223 341.775 344.391C342.01 343.547 342.127 342.65 342.127 341.701V341.297C342.127 340.359 342.01 339.475 341.775 338.643C341.553 337.799 341.213 337.055 340.756 336.41C340.311 335.754 339.748 335.238 339.068 334.863C338.4 334.488 337.615 334.301 336.713 334.301C335.822 334.301 335.037 334.488 334.357 334.863C333.689 335.238 333.127 335.754 332.67 336.41C332.225 337.055 331.891 337.799 331.668 338.643C331.445 339.475 331.334 340.359 331.334 341.297ZM352.727 336.041V351H349.475V331.98H352.551L352.727 336.041ZM351.953 340.77L350.6 340.717C350.611 339.416 350.805 338.215 351.18 337.113C351.555 336 352.082 335.033 352.762 334.213C353.441 333.393 354.25 332.76 355.188 332.314C356.137 331.857 357.186 331.629 358.334 331.629C359.271 331.629 360.115 331.758 360.865 332.016C361.615 332.262 362.254 332.66 362.781 333.211C363.32 333.762 363.73 334.477 364.012 335.355C364.293 336.223 364.434 337.283 364.434 338.537V351H361.164V338.502C361.164 337.506 361.018 336.709 360.725 336.111C360.432 335.502 360.004 335.062 359.441 334.793C358.879 334.512 358.188 334.371 357.367 334.371C356.559 334.371 355.82 334.541 355.152 334.881C354.496 335.221 353.928 335.689 353.447 336.287C352.979 336.885 352.609 337.57 352.34 338.344C352.082 339.105 351.953 339.914 351.953 340.77Z" fill="#058105"/>
<path d="M143.75 184.531H149.75C149.438 187.406 148.615 189.979 147.281 192.25C145.948 194.521 144.062 196.323 141.625 197.656C139.188 198.969 136.146 199.625 132.5 199.625C129.833 199.625 127.406 199.125 125.219 198.125C123.052 197.125 121.188 195.708 119.625 193.875C118.062 192.021 116.854 189.802 116 187.219C115.167 184.615 114.75 181.719 114.75 178.531V174C114.75 170.812 115.167 167.927 116 165.344C116.854 162.74 118.073 160.51 119.656 158.656C121.26 156.802 123.188 155.375 125.438 154.375C127.688 153.375 130.219 152.875 133.031 152.875C136.469 152.875 139.375 153.521 141.75 154.812C144.125 156.104 145.969 157.896 147.281 160.188C148.615 162.458 149.438 165.094 149.75 168.094H143.75C143.458 165.969 142.917 164.146 142.125 162.625C141.333 161.083 140.208 159.896 138.75 159.062C137.292 158.229 135.385 157.812 133.031 157.812C131.01 157.812 129.229 158.198 127.688 158.969C126.167 159.74 124.885 160.833 123.844 162.25C122.823 163.667 122.052 165.365 121.531 167.344C121.01 169.323 120.75 171.521 120.75 173.938V178.531C120.75 180.76 120.979 182.854 121.438 184.812C121.917 186.771 122.635 188.49 123.594 189.969C124.552 191.448 125.771 192.615 127.25 193.469C128.729 194.302 130.479 194.719 132.5 194.719C135.062 194.719 137.104 194.312 138.625 193.5C140.146 192.688 141.292 191.521 142.062 190C142.854 188.479 143.417 186.656 143.75 184.531ZM182.219 187.5C182.219 186.438 182.052 185.5 181.719 184.688C181.406 183.854 180.844 183.104 180.031 182.438C179.24 181.771 178.135 181.135 176.719 180.531C175.323 179.927 173.552 179.312 171.406 178.688C169.156 178.021 167.125 177.281 165.312 176.469C163.5 175.635 161.948 174.688 160.656 173.625C159.365 172.562 158.375 171.344 157.688 169.969C157 168.594 156.656 167.021 156.656 165.25C156.656 163.479 157.021 161.844 157.75 160.344C158.479 158.844 159.521 157.542 160.875 156.438C162.25 155.312 163.885 154.438 165.781 153.812C167.677 153.188 169.792 152.875 172.125 152.875C175.542 152.875 178.438 153.531 180.812 154.844C183.208 156.135 185.031 157.833 186.281 159.938C187.531 162.021 188.156 164.25 188.156 166.625H182.156C182.156 164.917 181.792 163.406 181.062 162.094C180.333 160.76 179.229 159.719 177.75 158.969C176.271 158.198 174.396 157.812 172.125 157.812C169.979 157.812 168.208 158.135 166.812 158.781C165.417 159.427 164.375 160.302 163.688 161.406C163.021 162.51 162.688 163.771 162.688 165.188C162.688 166.146 162.885 167.021 163.281 167.812C163.698 168.583 164.333 169.302 165.188 169.969C166.062 170.635 167.167 171.25 168.5 171.812C169.854 172.375 171.469 172.917 173.344 173.438C175.927 174.167 178.156 174.979 180.031 175.875C181.906 176.771 183.448 177.781 184.656 178.906C185.885 180.01 186.792 181.271 187.375 182.688C187.979 184.083 188.281 185.667 188.281 187.438C188.281 189.292 187.906 190.969 187.156 192.469C186.406 193.969 185.333 195.25 183.938 196.312C182.542 197.375 180.865 198.198 178.906 198.781C176.969 199.344 174.802 199.625 172.406 199.625C170.302 199.625 168.229 199.333 166.188 198.75C164.167 198.167 162.323 197.292 160.656 196.125C159.01 194.958 157.688 193.521 156.688 191.812C155.708 190.083 155.219 188.083 155.219 185.812H161.219C161.219 187.375 161.521 188.719 162.125 189.844C162.729 190.948 163.552 191.865 164.594 192.594C165.656 193.323 166.854 193.865 168.188 194.219C169.542 194.552 170.948 194.719 172.406 194.719C174.51 194.719 176.292 194.427 177.75 193.844C179.208 193.26 180.312 192.427 181.062 191.344C181.833 190.26 182.219 188.979 182.219 187.5ZM220.219 187.5C220.219 186.438 220.052 185.5 219.719 184.688C219.406 183.854 218.844 183.104 218.031 182.438C217.24 181.771 216.135 181.135 214.719 180.531C213.323 179.927 211.552 179.312 209.406 178.688C207.156 178.021 205.125 177.281 203.312 176.469C201.5 175.635 199.948 174.688 198.656 173.625C197.365 172.562 196.375 171.344 195.688 169.969C195 168.594 194.656 167.021 194.656 165.25C194.656 163.479 195.021 161.844 195.75 160.344C196.479 158.844 197.521 157.542 198.875 156.438C200.25 155.312 201.885 154.438 203.781 153.812C205.677 153.188 207.792 152.875 210.125 152.875C213.542 152.875 216.438 153.531 218.812 154.844C221.208 156.135 223.031 157.833 224.281 159.938C225.531 162.021 226.156 164.25 226.156 166.625H220.156C220.156 164.917 219.792 163.406 219.062 162.094C218.333 160.76 217.229 159.719 215.75 158.969C214.271 158.198 212.396 157.812 210.125 157.812C207.979 157.812 206.208 158.135 204.812 158.781C203.417 159.427 202.375 160.302 201.688 161.406C201.021 162.51 200.688 163.771 200.688 165.188C200.688 166.146 200.885 167.021 201.281 167.812C201.698 168.583 202.333 169.302 203.188 169.969C204.062 170.635 205.167 171.25 206.5 171.812C207.854 172.375 209.469 172.917 211.344 173.438C213.927 174.167 216.156 174.979 218.031 175.875C219.906 176.771 221.448 177.781 222.656 178.906C223.885 180.01 224.792 181.271 225.375 182.688C225.979 184.083 226.281 185.667 226.281 187.438C226.281 189.292 225.906 190.969 225.156 192.469C224.406 193.969 223.333 195.25 221.938 196.312C220.542 197.375 218.865 198.198 216.906 198.781C214.969 199.344 212.802 199.625 210.406 199.625C208.302 199.625 206.229 199.333 204.188 198.75C202.167 198.167 200.323 197.292 198.656 196.125C197.01 194.958 195.688 193.521 194.688 191.812C193.708 190.083 193.219 188.083 193.219 185.812H199.219C199.219 187.375 199.521 188.719 200.125 189.844C200.729 190.948 201.552 191.865 202.594 192.594C203.656 193.323 204.854 193.865 206.188 194.219C207.542 194.552 208.948 194.719 210.406 194.719C212.51 194.719 214.292 194.427 215.75 193.844C217.208 193.26 218.312 192.427 219.062 191.344C219.833 190.26 220.219 188.979 220.219 187.5ZM255.25 165.188V199H249.438V165.188H255.25ZM249 156.219C249 155.281 249.281 154.49 249.844 153.844C250.427 153.198 251.281 152.875 252.406 152.875C253.51 152.875 254.354 153.198 254.938 153.844C255.542 154.49 255.844 155.281 255.844 156.219C255.844 157.115 255.542 157.885 254.938 158.531C254.354 159.156 253.51 159.469 252.406 159.469C251.281 159.469 250.427 159.156 249.844 158.531C249.281 157.885 249 157.115 249 156.219ZM284.219 190.031C284.219 189.198 284.031 188.427 283.656 187.719C283.302 186.99 282.562 186.333 281.438 185.75C280.333 185.146 278.667 184.625 276.438 184.188C274.562 183.792 272.865 183.323 271.344 182.781C269.844 182.24 268.562 181.583 267.5 180.812C266.458 180.042 265.656 179.135 265.094 178.094C264.531 177.052 264.25 175.833 264.25 174.438C264.25 173.104 264.542 171.844 265.125 170.656C265.729 169.469 266.573 168.417 267.656 167.5C268.76 166.583 270.083 165.865 271.625 165.344C273.167 164.823 274.885 164.562 276.781 164.562C279.49 164.562 281.802 165.042 283.719 166C285.635 166.958 287.104 168.24 288.125 169.844C289.146 171.427 289.656 173.188 289.656 175.125H283.875C283.875 174.188 283.594 173.281 283.031 172.406C282.49 171.51 281.688 170.771 280.625 170.188C279.583 169.604 278.302 169.312 276.781 169.312C275.177 169.312 273.875 169.562 272.875 170.062C271.896 170.542 271.177 171.156 270.719 171.906C270.281 172.656 270.062 173.448 270.062 174.281C270.062 174.906 270.167 175.469 270.375 175.969C270.604 176.448 271 176.896 271.562 177.312C272.125 177.708 272.917 178.083 273.938 178.438C274.958 178.792 276.26 179.146 277.844 179.5C280.615 180.125 282.896 180.875 284.688 181.75C286.479 182.625 287.812 183.698 288.688 184.969C289.562 186.24 290 187.781 290 189.594C290 191.073 289.688 192.427 289.062 193.656C288.458 194.885 287.573 195.948 286.406 196.844C285.26 197.719 283.885 198.406 282.281 198.906C280.698 199.385 278.917 199.625 276.938 199.625C273.958 199.625 271.438 199.094 269.375 198.031C267.312 196.969 265.75 195.594 264.688 193.906C263.625 192.219 263.094 190.438 263.094 188.562H268.906C268.99 190.146 269.448 191.406 270.281 192.344C271.115 193.26 272.135 193.917 273.344 194.312C274.552 194.688 275.75 194.875 276.938 194.875C278.521 194.875 279.844 194.667 280.906 194.25C281.99 193.833 282.812 193.26 283.375 192.531C283.938 191.802 284.219 190.969 284.219 190.031ZM135.344 268.219V250.812C135.344 249.479 135.073 248.323 134.531 247.344C134.01 246.344 133.219 245.573 132.156 245.031C131.094 244.49 129.781 244.219 128.219 244.219C126.76 244.219 125.479 244.469 124.375 244.969C123.292 245.469 122.438 246.125 121.812 246.938C121.208 247.75 120.906 248.625 120.906 249.562H115.125C115.125 248.354 115.438 247.156 116.062 245.969C116.688 244.781 117.583 243.708 118.75 242.75C119.938 241.771 121.354 241 123 240.438C124.667 239.854 126.521 239.562 128.562 239.562C131.021 239.562 133.188 239.979 135.062 240.812C136.958 241.646 138.438 242.906 139.5 244.594C140.583 246.26 141.125 248.354 141.125 250.875V266.625C141.125 267.75 141.219 268.948 141.406 270.219C141.615 271.49 141.917 272.583 142.312 273.5V274H136.281C135.99 273.333 135.76 272.448 135.594 271.344C135.427 270.219 135.344 269.177 135.344 268.219ZM136.344 253.5L136.406 257.562H130.562C128.917 257.562 127.448 257.698 126.156 257.969C124.865 258.219 123.781 258.604 122.906 259.125C122.031 259.646 121.365 260.302 120.906 261.094C120.448 261.865 120.219 262.771 120.219 263.812C120.219 264.875 120.458 265.844 120.938 266.719C121.417 267.594 122.135 268.292 123.094 268.812C124.073 269.312 125.271 269.562 126.688 269.562C128.458 269.562 130.021 269.188 131.375 268.438C132.729 267.688 133.802 266.771 134.594 265.688C135.406 264.604 135.844 263.552 135.906 262.531L138.375 265.312C138.229 266.188 137.833 267.156 137.188 268.219C136.542 269.281 135.677 270.302 134.594 271.281C133.531 272.24 132.26 273.042 130.781 273.688C129.323 274.312 127.677 274.625 125.844 274.625C123.552 274.625 121.542 274.177 119.812 273.281C118.104 272.385 116.771 271.188 115.812 269.688C114.875 268.167 114.406 266.469 114.406 264.594C114.406 262.781 114.76 261.188 115.469 259.812C116.177 258.417 117.198 257.26 118.531 256.344C119.865 255.406 121.469 254.698 123.344 254.219C125.219 253.74 127.312 253.5 129.625 253.5H136.344ZM158.781 268L167.469 240.188H171.281L170.531 245.719L161.688 274H157.969L158.781 268ZM152.938 240.188L160.344 268.312L160.875 274H156.969L147.156 240.188H152.938ZM179.594 268.094L186.656 240.188H192.406L182.594 274H178.719L179.594 268.094ZM172.125 240.188L180.625 267.531L181.594 274H177.906L168.812 245.656L168.062 240.188H172.125ZM212.375 274.625C210.021 274.625 207.885 274.229 205.969 273.438C204.073 272.625 202.438 271.49 201.062 270.031C199.708 268.573 198.667 266.844 197.938 264.844C197.208 262.844 196.844 260.656 196.844 258.281V256.969C196.844 254.219 197.25 251.771 198.062 249.625C198.875 247.458 199.979 245.625 201.375 244.125C202.771 242.625 204.354 241.49 206.125 240.719C207.896 239.948 209.729 239.562 211.625 239.562C214.042 239.562 216.125 239.979 217.875 240.812C219.646 241.646 221.094 242.812 222.219 244.312C223.344 245.792 224.177 247.542 224.719 249.562C225.26 251.562 225.531 253.75 225.531 256.125V258.719H200.281V254H219.75V253.562C219.667 252.062 219.354 250.604 218.812 249.188C218.292 247.771 217.458 246.604 216.312 245.688C215.167 244.771 213.604 244.312 211.625 244.312C210.312 244.312 209.104 244.594 208 245.156C206.896 245.698 205.948 246.51 205.156 247.594C204.365 248.677 203.75 250 203.312 251.562C202.875 253.125 202.656 254.927 202.656 256.969V258.281C202.656 259.885 202.875 261.396 203.312 262.812C203.771 264.208 204.427 265.438 205.281 266.5C206.156 267.562 207.208 268.396 208.438 269C209.688 269.604 211.104 269.906 212.688 269.906C214.729 269.906 216.458 269.49 217.875 268.656C219.292 267.823 220.531 266.708 221.594 265.312L225.094 268.094C224.365 269.198 223.438 270.25 222.312 271.25C221.188 272.25 219.802 273.062 218.156 273.688C216.531 274.312 214.604 274.625 212.375 274.625ZM251.969 265.031C251.969 264.198 251.781 263.427 251.406 262.719C251.052 261.99 250.312 261.333 249.188 260.75C248.083 260.146 246.417 259.625 244.188 259.188C242.312 258.792 240.615 258.323 239.094 257.781C237.594 257.24 236.312 256.583 235.25 255.812C234.208 255.042 233.406 254.135 232.844 253.094C232.281 252.052 232 250.833 232 249.438C232 248.104 232.292 246.844 232.875 245.656C233.479 244.469 234.323 243.417 235.406 242.5C236.51 241.583 237.833 240.865 239.375 240.344C240.917 239.823 242.635 239.562 244.531 239.562C247.24 239.562 249.552 240.042 251.469 241C253.385 241.958 254.854 243.24 255.875 244.844C256.896 246.427 257.406 248.188 257.406 250.125H251.625C251.625 249.188 251.344 248.281 250.781 247.406C250.24 246.51 249.438 245.771 248.375 245.188C247.333 244.604 246.052 244.312 244.531 244.312C242.927 244.312 241.625 244.562 240.625 245.062C239.646 245.542 238.927 246.156 238.469 246.906C238.031 247.656 237.812 248.448 237.812 249.281C237.812 249.906 237.917 250.469 238.125 250.969C238.354 251.448 238.75 251.896 239.312 252.312C239.875 252.708 240.667 253.083 241.688 253.438C242.708 253.792 244.01 254.146 245.594 254.5C248.365 255.125 250.646 255.875 252.438 256.75C254.229 257.625 255.562 258.698 256.438 259.969C257.312 261.24 257.75 262.781 257.75 264.594C257.75 266.073 257.438 267.427 256.812 268.656C256.208 269.885 255.323 270.948 254.156 271.844C253.01 272.719 251.635 273.406 250.031 273.906C248.448 274.385 246.667 274.625 244.688 274.625C241.708 274.625 239.188 274.094 237.125 273.031C235.062 271.969 233.5 270.594 232.438 268.906C231.375 267.219 230.844 265.438 230.844 263.562H236.656C236.74 265.146 237.198 266.406 238.031 267.344C238.865 268.26 239.885 268.917 241.094 269.312C242.302 269.688 243.5 269.875 244.688 269.875C246.271 269.875 247.594 269.667 248.656 269.25C249.74 268.833 250.562 268.26 251.125 267.531C251.688 266.802 251.969 265.969 251.969 265.031ZM263.812 257.469V256.75C263.812 254.312 264.167 252.052 264.875 249.969C265.583 247.865 266.604 246.042 267.938 244.5C269.271 242.938 270.885 241.729 272.781 240.875C274.677 240 276.802 239.562 279.156 239.562C281.531 239.562 283.667 240 285.562 240.875C287.479 241.729 289.104 242.938 290.438 244.5C291.792 246.042 292.823 247.865 293.531 249.969C294.24 252.052 294.594 254.312 294.594 256.75V257.469C294.594 259.906 294.24 262.167 293.531 264.25C292.823 266.333 291.792 268.156 290.438 269.719C289.104 271.26 287.49 272.469 285.594 273.344C283.719 274.198 281.594 274.625 279.219 274.625C276.844 274.625 274.708 274.198 272.812 273.344C270.917 272.469 269.292 271.26 267.938 269.719C266.604 268.156 265.583 266.333 264.875 264.25C264.167 262.167 263.812 259.906 263.812 257.469ZM269.594 256.75V257.469C269.594 259.156 269.792 260.75 270.188 262.25C270.583 263.729 271.177 265.042 271.969 266.188C272.781 267.333 273.792 268.24 275 268.906C276.208 269.552 277.615 269.875 279.219 269.875C280.802 269.875 282.188 269.552 283.375 268.906C284.583 268.24 285.583 267.333 286.375 266.188C287.167 265.042 287.76 263.729 288.156 262.25C288.573 260.75 288.781 259.156 288.781 257.469V256.75C288.781 255.083 288.573 253.51 288.156 252.031C287.76 250.531 287.156 249.208 286.344 248.062C285.552 246.896 284.552 245.979 283.344 245.312C282.156 244.646 280.76 244.312 279.156 244.312C277.573 244.312 276.177 244.646 274.969 245.312C273.781 245.979 272.781 246.896 271.969 248.062C271.177 249.208 270.583 250.531 270.188 252.031C269.792 253.51 269.594 255.083 269.594 256.75ZM307.594 246.906V274H301.781V240.188H307.281L307.594 246.906ZM306.406 255.812L303.719 255.719C303.74 253.406 304.042 251.271 304.625 249.312C305.208 247.333 306.073 245.615 307.219 244.156C308.365 242.698 309.792 241.573 311.5 240.781C313.208 239.969 315.188 239.562 317.438 239.562C319.021 239.562 320.479 239.792 321.812 240.25C323.146 240.688 324.302 241.385 325.281 242.344C326.26 243.302 327.021 244.531 327.562 246.031C328.104 247.531 328.375 249.344 328.375 251.469V274H322.594V251.75C322.594 249.979 322.292 248.562 321.688 247.5C321.104 246.438 320.271 245.667 319.188 245.188C318.104 244.688 316.833 244.438 315.375 244.438C313.667 244.438 312.24 244.74 311.094 245.344C309.948 245.948 309.031 246.781 308.344 247.844C307.656 248.906 307.156 250.125 306.844 251.5C306.552 252.854 306.406 254.292 306.406 255.812ZM328.312 252.625L324.438 253.812C324.458 251.958 324.76 250.177 325.344 248.469C325.948 246.76 326.812 245.24 327.938 243.906C329.083 242.573 330.49 241.521 332.156 240.75C333.823 239.958 335.729 239.562 337.875 239.562C339.688 239.562 341.292 239.802 342.688 240.281C344.104 240.76 345.292 241.5 346.25 242.5C347.229 243.479 347.969 244.74 348.469 246.281C348.969 247.823 349.219 249.656 349.219 251.781V274H343.406V251.719C343.406 249.823 343.104 248.354 342.5 247.312C341.917 246.25 341.083 245.51 340 245.094C338.938 244.656 337.667 244.438 336.188 244.438C334.917 244.438 333.792 244.656 332.812 245.094C331.833 245.531 331.01 246.135 330.344 246.906C329.677 247.656 329.167 248.521 328.812 249.5C328.479 250.479 328.312 251.521 328.312 252.625ZM372 274.625C369.646 274.625 367.51 274.229 365.594 273.438C363.698 272.625 362.062 271.49 360.688 270.031C359.333 268.573 358.292 266.844 357.562 264.844C356.833 262.844 356.469 260.656 356.469 258.281V256.969C356.469 254.219 356.875 251.771 357.688 249.625C358.5 247.458 359.604 245.625 361 244.125C362.396 242.625 363.979 241.49 365.75 240.719C367.521 239.948 369.354 239.562 371.25 239.562C373.667 239.562 375.75 239.979 377.5 240.812C379.271 241.646 380.719 242.812 381.844 244.312C382.969 245.792 383.802 247.542 384.344 249.562C384.885 251.562 385.156 253.75 385.156 256.125V258.719H359.906V254H379.375V253.562C379.292 252.062 378.979 250.604 378.438 249.188C377.917 247.771 377.083 246.604 375.938 245.688C374.792 244.771 373.229 244.312 371.25 244.312C369.938 244.312 368.729 244.594 367.625 245.156C366.521 245.698 365.573 246.51 364.781 247.594C363.99 248.677 363.375 250 362.938 251.562C362.5 253.125 362.281 254.927 362.281 256.969V258.281C362.281 259.885 362.5 261.396 362.938 262.812C363.396 264.208 364.052 265.438 364.906 266.5C365.781 267.562 366.833 268.396 368.062 269C369.312 269.604 370.729 269.906 372.312 269.906C374.354 269.906 376.083 269.49 377.5 268.656C378.917 267.823 380.156 266.708 381.219 265.312L384.719 268.094C383.99 269.198 383.062 270.25 381.938 271.25C380.812 272.25 379.427 273.062 377.781 273.688C376.156 274.312 374.229 274.625 372 274.625Z" fill="white" fill-opacity="0.5"/>
</svg>
