<svg width="1012" height="506" viewBox="0 0 1012 506" fill="none" xmlns="http://www.w3.org/2000/svg">
<path d="M507.414 52.5858C506.633 51.8047 505.367 51.8047 504.586 52.5858L491.858 65.3137C491.077 66.0948 491.077 67.3611 491.858 68.1421C492.639 68.9232 493.905 68.9232 494.686 68.1421L506 56.8284L517.314 68.1421C518.095 68.9232 519.361 68.9232 520.142 68.1421C520.923 67.3611 520.923 66.0948 520.142 65.3137L507.414 52.5858ZM508 432L508 54L504 54L504 432L508 432Z" fill="white"/>
<path d="M696.414 254.414C697.195 253.633 697.195 252.367 696.414 251.586L683.686 238.858C682.905 238.077 681.639 238.077 680.858 238.858C680.077 239.639 680.077 240.905 680.858 241.686L692.172 253L680.858 264.314C680.077 265.095 680.077 266.361 680.858 267.142C681.639 267.923 682.905 267.923 683.686 267.142L696.414 254.414ZM317 255L695 255V251L317 251V255Z" fill="white"/>
<path d="M545.676 73.7031H538.742L538.703 70.8125H544.367C545.487 70.8125 546.418 70.7018 547.16 70.4805C547.915 70.2591 548.482 69.9271 548.859 69.4844C549.237 69.0417 549.426 68.4948 549.426 67.8438C549.426 67.3359 549.315 66.8932 549.094 66.5156C548.885 66.125 548.566 65.806 548.137 65.5586C547.707 65.2982 547.173 65.1094 546.535 64.9922C545.91 64.862 545.174 64.7969 544.328 64.7969H539.699V83H536.086V61.8672H544.328C545.669 61.8672 546.874 61.9844 547.941 62.2188C549.022 62.4531 549.94 62.8112 550.695 63.293C551.464 63.7617 552.049 64.3607 552.453 65.0898C552.857 65.819 553.059 66.6784 553.059 67.668C553.059 68.306 552.928 68.9115 552.668 69.4844C552.408 70.0573 552.023 70.5651 551.516 71.0078C551.008 71.4505 550.383 71.8151 549.641 72.1016C548.898 72.375 548.046 72.5508 547.082 72.6289L545.676 73.7031ZM545.676 83H537.434L539.23 80.0703H545.676C546.678 80.0703 547.512 79.9466 548.176 79.6992C548.84 79.4388 549.335 79.0742 549.66 78.6055C549.999 78.1237 550.168 77.5508 550.168 76.8867C550.168 76.2227 549.999 75.6562 549.66 75.1875C549.335 74.7057 548.84 74.3411 548.176 74.0938C547.512 73.8333 546.678 73.7031 545.676 73.7031H540.188L540.227 70.8125H547.082L548.391 71.9062C549.549 71.9974 550.533 72.2839 551.34 72.7656C552.147 73.2474 552.759 73.8594 553.176 74.6016C553.592 75.3307 553.801 76.125 553.801 76.9844C553.801 77.974 553.612 78.8464 553.234 79.6016C552.87 80.3568 552.336 80.9883 551.633 81.4961C550.93 81.9909 550.077 82.3685 549.074 82.6289C548.072 82.8763 546.939 83 545.676 83ZM567.414 83.3906C565.943 83.3906 564.608 83.1432 563.41 82.6484C562.225 82.1406 561.203 81.431 560.344 80.5195C559.497 79.6081 558.846 78.5273 558.391 77.2773C557.935 76.0273 557.707 74.6602 557.707 73.1758V72.3555C557.707 70.6367 557.961 69.1068 558.469 67.7656C558.977 66.4115 559.667 65.2656 560.539 64.3281C561.411 63.3906 562.401 62.681 563.508 62.1992C564.615 61.7174 565.76 61.4766 566.945 61.4766C568.456 61.4766 569.758 61.737 570.852 62.2578C571.958 62.7786 572.863 63.5078 573.566 64.4453C574.27 65.3698 574.79 66.4635 575.129 67.7266C575.467 68.9766 575.637 70.3438 575.637 71.8281V73.4492H559.855V70.5H572.023V70.2266C571.971 69.2891 571.776 68.3776 571.438 67.4922C571.112 66.6068 570.591 65.8776 569.875 65.3047C569.159 64.7318 568.182 64.4453 566.945 64.4453C566.125 64.4453 565.37 64.6211 564.68 64.9727C563.99 65.3112 563.397 65.819 562.902 66.4961C562.408 67.1732 562.023 68 561.75 68.9766C561.477 69.9531 561.34 71.0794 561.34 72.3555V73.1758C561.34 74.1784 561.477 75.1224 561.75 76.0078C562.036 76.8802 562.447 77.6484 562.98 78.3125C563.527 78.9766 564.185 79.4974 564.953 79.875C565.734 80.2526 566.62 80.4414 567.609 80.4414C568.885 80.4414 569.966 80.181 570.852 79.6602C571.737 79.1393 572.512 78.4427 573.176 77.5703L575.363 79.3086C574.908 79.9987 574.328 80.6562 573.625 81.2812C572.922 81.9062 572.056 82.4141 571.027 82.8047C570.012 83.1953 568.807 83.3906 567.414 83.3906ZM583.469 65.9297V91.125H579.836V61.8672H583.156L583.469 65.9297ZM597.707 72.2578V72.668C597.707 74.2044 597.525 75.6302 597.16 76.9453C596.796 78.2474 596.262 79.3802 595.559 80.3438C594.868 81.3073 594.016 82.056 593 82.5898C591.984 83.1237 590.819 83.3906 589.504 83.3906C588.163 83.3906 586.978 83.1693 585.949 82.7266C584.921 82.2839 584.048 81.6393 583.332 80.793C582.616 79.9466 582.043 78.931 581.613 77.7461C581.197 76.5612 580.91 75.2266 580.754 73.7422V71.5547C580.91 69.9922 581.203 68.5924 581.633 67.3555C582.062 66.1185 582.629 65.0638 583.332 64.1914C584.048 63.306 584.914 62.6354 585.93 62.1797C586.945 61.7109 588.117 61.4766 589.445 61.4766C590.773 61.4766 591.952 61.737 592.98 62.2578C594.009 62.7656 594.875 63.4948 595.578 64.4453C596.281 65.3958 596.809 66.5352 597.16 67.8633C597.525 69.1784 597.707 70.6432 597.707 72.2578ZM594.074 72.668V72.2578C594.074 71.2031 593.964 70.2135 593.742 69.2891C593.521 68.3516 593.176 67.5312 592.707 66.8281C592.251 66.112 591.665 65.5521 590.949 65.1484C590.233 64.7318 589.38 64.5234 588.391 64.5234C587.479 64.5234 586.685 64.6797 586.008 64.9922C585.344 65.3047 584.777 65.7279 584.309 66.2617C583.84 66.7826 583.456 67.3815 583.156 68.0586C582.87 68.7227 582.655 69.4128 582.512 70.1289V75.1875C582.772 76.099 583.137 76.9583 583.605 77.7656C584.074 78.5599 584.699 79.2044 585.48 79.6992C586.262 80.181 587.245 80.4219 588.43 80.4219C589.406 80.4219 590.246 80.2201 590.949 79.8164C591.665 79.3997 592.251 78.8333 592.707 78.1172C593.176 77.401 593.521 76.5807 593.742 75.6562C593.964 74.7188 594.074 73.7227 594.074 72.668ZM604.445 61.8672L609.074 69.5625L613.762 61.8672H618L611.086 72.2969L618.215 83H614.035L609.152 75.0703L604.27 83H600.07L607.18 72.2969L600.285 61.8672H604.445Z" fill="white"/>
<path d="M636.836 199.867V202.855H626.152V199.867H636.836ZM626.68 199.867V221H623.066V199.867H626.68ZM640.039 199.867V221H636.406V199.867H640.039ZM649.453 203.93V229.125H645.82V199.867H649.141L649.453 203.93ZM663.691 210.258V210.668C663.691 212.204 663.509 213.63 663.145 214.945C662.78 216.247 662.246 217.38 661.543 218.344C660.853 219.307 660 220.056 658.984 220.59C657.969 221.124 656.803 221.391 655.488 221.391C654.147 221.391 652.962 221.169 651.934 220.727C650.905 220.284 650.033 219.639 649.316 218.793C648.6 217.947 648.027 216.931 647.598 215.746C647.181 214.561 646.895 213.227 646.738 211.742V209.555C646.895 207.992 647.188 206.592 647.617 205.355C648.047 204.118 648.613 203.064 649.316 202.191C650.033 201.306 650.898 200.635 651.914 200.18C652.93 199.711 654.102 199.477 655.43 199.477C656.758 199.477 657.936 199.737 658.965 200.258C659.993 200.766 660.859 201.495 661.562 202.445C662.266 203.396 662.793 204.535 663.145 205.863C663.509 207.178 663.691 208.643 663.691 210.258ZM660.059 210.668V210.258C660.059 209.203 659.948 208.214 659.727 207.289C659.505 206.352 659.16 205.531 658.691 204.828C658.236 204.112 657.65 203.552 656.934 203.148C656.217 202.732 655.365 202.523 654.375 202.523C653.464 202.523 652.669 202.68 651.992 202.992C651.328 203.305 650.762 203.728 650.293 204.262C649.824 204.783 649.44 205.382 649.141 206.059C648.854 206.723 648.639 207.413 648.496 208.129V213.188C648.757 214.099 649.121 214.958 649.59 215.766C650.059 216.56 650.684 217.204 651.465 217.699C652.246 218.181 653.229 218.422 654.414 218.422C655.391 218.422 656.23 218.22 656.934 217.816C657.65 217.4 658.236 216.833 658.691 216.117C659.16 215.401 659.505 214.581 659.727 213.656C659.948 212.719 660.059 211.723 660.059 210.668ZM680.762 217.387V206.508C680.762 205.674 680.592 204.952 680.254 204.34C679.928 203.715 679.434 203.233 678.77 202.895C678.105 202.556 677.285 202.387 676.309 202.387C675.397 202.387 674.596 202.543 673.906 202.855C673.229 203.168 672.695 203.578 672.305 204.086C671.927 204.594 671.738 205.141 671.738 205.727H668.125C668.125 204.971 668.32 204.223 668.711 203.48C669.102 202.738 669.661 202.068 670.391 201.469C671.133 200.857 672.018 200.375 673.047 200.023C674.089 199.659 675.247 199.477 676.523 199.477C678.06 199.477 679.414 199.737 680.586 200.258C681.771 200.779 682.695 201.566 683.359 202.621C684.036 203.663 684.375 204.971 684.375 206.547V216.391C684.375 217.094 684.434 217.842 684.551 218.637C684.681 219.431 684.87 220.115 685.117 220.688V221H681.348C681.165 220.583 681.022 220.03 680.918 219.34C680.814 218.637 680.762 217.986 680.762 217.387ZM681.387 208.188L681.426 210.727H677.773C676.745 210.727 675.827 210.811 675.02 210.98C674.212 211.137 673.535 211.378 672.988 211.703C672.441 212.029 672.025 212.439 671.738 212.934C671.452 213.415 671.309 213.982 671.309 214.633C671.309 215.297 671.458 215.902 671.758 216.449C672.057 216.996 672.507 217.432 673.105 217.758C673.717 218.07 674.466 218.227 675.352 218.227C676.458 218.227 677.435 217.992 678.281 217.523C679.128 217.055 679.798 216.482 680.293 215.805C680.801 215.128 681.074 214.47 681.113 213.832L682.656 215.57C682.565 216.117 682.318 216.723 681.914 217.387C681.51 218.051 680.97 218.689 680.293 219.301C679.629 219.9 678.835 220.401 677.91 220.805C676.999 221.195 675.97 221.391 674.824 221.391C673.392 221.391 672.135 221.111 671.055 220.551C669.987 219.991 669.154 219.242 668.555 218.305C667.969 217.354 667.676 216.293 667.676 215.121C667.676 213.988 667.897 212.992 668.34 212.133C668.783 211.26 669.421 210.538 670.254 209.965C671.087 209.379 672.09 208.936 673.262 208.637C674.434 208.337 675.742 208.188 677.188 208.188H681.387ZM699.98 211.703H693.047L693.008 208.812H698.672C699.792 208.812 700.723 208.702 701.465 208.48C702.22 208.259 702.786 207.927 703.164 207.484C703.542 207.042 703.73 206.495 703.73 205.844C703.73 205.336 703.62 204.893 703.398 204.516C703.19 204.125 702.871 203.806 702.441 203.559C702.012 203.298 701.478 203.109 700.84 202.992C700.215 202.862 699.479 202.797 698.633 202.797H694.004V221H690.391V199.867H698.633C699.974 199.867 701.178 199.984 702.246 200.219C703.327 200.453 704.245 200.811 705 201.293C705.768 201.762 706.354 202.361 706.758 203.09C707.161 203.819 707.363 204.678 707.363 205.668C707.363 206.306 707.233 206.911 706.973 207.484C706.712 208.057 706.328 208.565 705.82 209.008C705.312 209.451 704.688 209.815 703.945 210.102C703.203 210.375 702.35 210.551 701.387 210.629L699.98 211.703ZM699.98 221H691.738L693.535 218.07H699.98C700.983 218.07 701.816 217.947 702.48 217.699C703.145 217.439 703.639 217.074 703.965 216.605C704.303 216.124 704.473 215.551 704.473 214.887C704.473 214.223 704.303 213.656 703.965 213.188C703.639 212.706 703.145 212.341 702.48 212.094C701.816 211.833 700.983 211.703 699.98 211.703H694.492L694.531 208.812H701.387L702.695 209.906C703.854 209.997 704.837 210.284 705.645 210.766C706.452 211.247 707.064 211.859 707.48 212.602C707.897 213.331 708.105 214.125 708.105 214.984C708.105 215.974 707.917 216.846 707.539 217.602C707.174 218.357 706.641 218.988 705.938 219.496C705.234 219.991 704.382 220.368 703.379 220.629C702.376 220.876 701.243 221 699.98 221ZM711.992 210.668V210.219C711.992 208.695 712.214 207.283 712.656 205.98C713.099 204.665 713.737 203.526 714.57 202.562C715.404 201.586 716.413 200.831 717.598 200.297C718.783 199.75 720.111 199.477 721.582 199.477C723.066 199.477 724.401 199.75 725.586 200.297C726.784 200.831 727.799 201.586 728.633 202.562C729.479 203.526 730.124 204.665 730.566 205.98C731.009 207.283 731.23 208.695 731.23 210.219V210.668C731.23 212.191 731.009 213.604 730.566 214.906C730.124 216.208 729.479 217.348 728.633 218.324C727.799 219.288 726.79 220.043 725.605 220.59C724.434 221.124 723.105 221.391 721.621 221.391C720.137 221.391 718.802 221.124 717.617 220.59C716.432 220.043 715.417 219.288 714.57 218.324C713.737 217.348 713.099 216.208 712.656 214.906C712.214 213.604 711.992 212.191 711.992 210.668ZM715.605 210.219V210.668C715.605 211.723 715.729 212.719 715.977 213.656C716.224 214.581 716.595 215.401 717.09 216.117C717.598 216.833 718.229 217.4 718.984 217.816C719.74 218.22 720.618 218.422 721.621 218.422C722.611 218.422 723.477 218.22 724.219 217.816C724.974 217.4 725.599 216.833 726.094 216.117C726.589 215.401 726.96 214.581 727.207 213.656C727.467 212.719 727.598 211.723 727.598 210.668V210.219C727.598 209.177 727.467 208.194 727.207 207.27C726.96 206.332 726.582 205.505 726.074 204.789C725.579 204.06 724.954 203.487 724.199 203.07C723.457 202.654 722.585 202.445 721.582 202.445C720.592 202.445 719.72 202.654 718.965 203.07C718.223 203.487 717.598 204.06 717.09 204.789C716.595 205.505 716.224 206.332 715.977 207.27C715.729 208.194 715.605 209.177 715.605 210.219Z" fill="white"/>
<path d="M305.875 209.867V212.855H295.66V209.867H305.875ZM309.059 209.867V231H305.445V209.867H309.059ZM294.781 209.867H298.414L297.867 220.062C297.776 221.638 297.626 223.031 297.418 224.242C297.223 225.44 296.949 226.469 296.598 227.328C296.259 228.188 295.829 228.891 295.309 229.438C294.801 229.971 294.189 230.368 293.473 230.629C292.757 230.876 291.93 231 290.992 231H289.859V227.816L290.641 227.758C291.201 227.719 291.676 227.589 292.066 227.367C292.47 227.146 292.809 226.82 293.082 226.391C293.355 225.948 293.577 225.382 293.746 224.691C293.928 224.001 294.065 223.181 294.156 222.23C294.26 221.28 294.339 220.173 294.391 218.91L294.781 209.867ZM323.648 231.391C322.177 231.391 320.842 231.143 319.645 230.648C318.46 230.141 317.438 229.431 316.578 228.52C315.732 227.608 315.081 226.527 314.625 225.277C314.169 224.027 313.941 222.66 313.941 221.176V220.355C313.941 218.637 314.195 217.107 314.703 215.766C315.211 214.411 315.901 213.266 316.773 212.328C317.646 211.391 318.635 210.681 319.742 210.199C320.849 209.717 321.995 209.477 323.18 209.477C324.69 209.477 325.992 209.737 327.086 210.258C328.193 210.779 329.098 211.508 329.801 212.445C330.504 213.37 331.025 214.464 331.363 215.727C331.702 216.977 331.871 218.344 331.871 219.828V221.449H316.09V218.5H328.258V218.227C328.206 217.289 328.01 216.378 327.672 215.492C327.346 214.607 326.826 213.878 326.109 213.305C325.393 212.732 324.417 212.445 323.18 212.445C322.359 212.445 321.604 212.621 320.914 212.973C320.224 213.311 319.632 213.819 319.137 214.496C318.642 215.173 318.258 216 317.984 216.977C317.711 217.953 317.574 219.079 317.574 220.355V221.176C317.574 222.178 317.711 223.122 317.984 224.008C318.271 224.88 318.681 225.648 319.215 226.312C319.762 226.977 320.419 227.497 321.188 227.875C321.969 228.253 322.854 228.441 323.844 228.441C325.12 228.441 326.201 228.181 327.086 227.66C327.971 227.139 328.746 226.443 329.41 225.57L331.598 227.309C331.142 227.999 330.562 228.656 329.859 229.281C329.156 229.906 328.29 230.414 327.262 230.805C326.246 231.195 325.042 231.391 323.648 231.391ZM346.012 221.703H339.078L339.039 218.812H344.703C345.823 218.812 346.754 218.702 347.496 218.48C348.251 218.259 348.818 217.927 349.195 217.484C349.573 217.042 349.762 216.495 349.762 215.844C349.762 215.336 349.651 214.893 349.43 214.516C349.221 214.125 348.902 213.806 348.473 213.559C348.043 213.298 347.509 213.109 346.871 212.992C346.246 212.862 345.51 212.797 344.664 212.797H340.035V231H336.422V209.867H344.664C346.005 209.867 347.21 209.984 348.277 210.219C349.358 210.453 350.276 210.811 351.031 211.293C351.799 211.762 352.385 212.361 352.789 213.09C353.193 213.819 353.395 214.678 353.395 215.668C353.395 216.306 353.264 216.911 353.004 217.484C352.743 218.057 352.359 218.565 351.852 219.008C351.344 219.451 350.719 219.815 349.977 220.102C349.234 220.375 348.382 220.551 347.418 220.629L346.012 221.703ZM346.012 231H337.77L339.566 228.07H346.012C347.014 228.07 347.848 227.947 348.512 227.699C349.176 227.439 349.671 227.074 349.996 226.605C350.335 226.124 350.504 225.551 350.504 224.887C350.504 224.223 350.335 223.656 349.996 223.188C349.671 222.706 349.176 222.341 348.512 222.094C347.848 221.833 347.014 221.703 346.012 221.703H340.523L340.562 218.812H347.418L348.727 219.906C349.885 219.997 350.868 220.284 351.676 220.766C352.483 221.247 353.095 221.859 353.512 222.602C353.928 223.331 354.137 224.125 354.137 224.984C354.137 225.974 353.948 226.846 353.57 227.602C353.206 228.357 352.672 228.988 351.969 229.496C351.266 229.991 350.413 230.368 349.41 230.629C348.408 230.876 347.275 231 346.012 231ZM358.023 220.668V220.219C358.023 218.695 358.245 217.283 358.688 215.98C359.13 214.665 359.768 213.526 360.602 212.562C361.435 211.586 362.444 210.831 363.629 210.297C364.814 209.75 366.142 209.477 367.613 209.477C369.098 209.477 370.432 209.75 371.617 210.297C372.815 210.831 373.831 211.586 374.664 212.562C375.51 213.526 376.155 214.665 376.598 215.98C377.04 217.283 377.262 218.695 377.262 220.219V220.668C377.262 222.191 377.04 223.604 376.598 224.906C376.155 226.208 375.51 227.348 374.664 228.324C373.831 229.288 372.822 230.043 371.637 230.59C370.465 231.124 369.137 231.391 367.652 231.391C366.168 231.391 364.833 231.124 363.648 230.59C362.464 230.043 361.448 229.288 360.602 228.324C359.768 227.348 359.13 226.208 358.688 224.906C358.245 223.604 358.023 222.191 358.023 220.668ZM361.637 220.219V220.668C361.637 221.723 361.76 222.719 362.008 223.656C362.255 224.581 362.626 225.401 363.121 226.117C363.629 226.833 364.26 227.4 365.016 227.816C365.771 228.22 366.65 228.422 367.652 228.422C368.642 228.422 369.508 228.22 370.25 227.816C371.005 227.4 371.63 226.833 372.125 226.117C372.62 225.401 372.991 224.581 373.238 223.656C373.499 222.719 373.629 221.723 373.629 220.668V220.219C373.629 219.177 373.499 218.194 373.238 217.27C372.991 216.332 372.613 215.505 372.105 214.789C371.611 214.06 370.986 213.487 370.23 213.07C369.488 212.654 368.616 212.445 367.613 212.445C366.624 212.445 365.751 212.654 364.996 213.07C364.254 213.487 363.629 214.06 363.121 214.789C362.626 215.505 362.255 216.332 362.008 217.27C361.76 218.194 361.637 219.177 361.637 220.219Z" fill="white"/>
<path d="M544.09 420.027V422.957H532.918V420.027H544.09ZM533.68 410.867V432H530.066V410.867H533.68ZM547.02 410.867V432H543.387V410.867H547.02ZM556.746 426.277L566.492 410.867H570.125V432H566.492V416.59L556.746 432H553.152V410.867H556.746V426.277ZM583.816 421.902H579.93V419.676H583.523C584.526 419.676 585.32 419.552 585.906 419.305C586.492 419.044 586.909 418.686 587.156 418.23C587.404 417.775 587.527 417.241 587.527 416.629C587.527 416.082 587.384 415.568 587.098 415.086C586.824 414.591 586.382 414.194 585.77 413.895C585.158 413.582 584.337 413.426 583.309 413.426C582.475 413.426 581.72 413.576 581.043 413.875C580.366 414.161 579.826 414.559 579.422 415.066C579.031 415.561 578.836 416.121 578.836 416.746H575.223C575.223 415.457 575.587 414.35 576.316 413.426C577.059 412.488 578.042 411.766 579.266 411.258C580.503 410.75 581.85 410.496 583.309 410.496C584.533 410.496 585.626 410.633 586.59 410.906C587.566 411.167 588.393 411.557 589.07 412.078C589.747 412.586 590.262 413.224 590.613 413.992C590.978 414.747 591.16 415.626 591.16 416.629C591.16 417.345 590.991 418.022 590.652 418.66C590.314 419.298 589.826 419.865 589.188 420.359C588.549 420.841 587.775 421.219 586.863 421.492C585.965 421.766 584.949 421.902 583.816 421.902ZM579.93 420.535H583.816C585.079 420.535 586.193 420.659 587.156 420.906C588.12 421.141 588.927 421.492 589.578 421.961C590.229 422.43 590.717 423.009 591.043 423.699C591.382 424.376 591.551 425.158 591.551 426.043C591.551 427.033 591.349 427.924 590.945 428.719C590.555 429.5 589.995 430.164 589.266 430.711C588.536 431.258 587.664 431.674 586.648 431.961C585.646 432.247 584.533 432.391 583.309 432.391C581.941 432.391 580.613 432.156 579.324 431.688C578.035 431.219 576.974 430.496 576.141 429.52C575.307 428.53 574.891 427.273 574.891 425.75H578.504C578.504 426.388 578.706 426.993 579.109 427.566C579.513 428.139 580.073 428.602 580.789 428.953C581.518 429.305 582.358 429.48 583.309 429.48C584.324 429.48 585.171 429.324 585.848 429.012C586.525 428.699 587.033 428.283 587.371 427.762C587.723 427.241 587.898 426.674 587.898 426.062C587.898 425.268 587.742 424.63 587.43 424.148C587.117 423.667 586.635 423.315 585.984 423.094C585.346 422.859 584.526 422.742 583.523 422.742H579.93V420.535Z" fill="white"/>
</svg>
