<svg width="1012" height="506" viewBox="0 0 1012 506" fill="none" xmlns="http://www.w3.org/2000/svg">
<path d="M329.625 230.297H338.625C338.156 234.609 336.922 238.469 334.922 241.875C332.922 245.281 330.094 247.984 326.438 249.984C322.781 251.953 318.219 252.938 312.75 252.938C308.75 252.938 305.109 252.188 301.828 250.688C298.578 249.188 295.781 247.062 293.438 244.312C291.094 241.531 289.281 238.203 288 234.328C286.75 230.422 286.125 226.078 286.125 221.297V214.5C286.125 209.719 286.75 205.391 288 201.516C289.281 197.609 291.109 194.266 293.484 191.484C295.891 188.703 298.781 186.562 302.156 185.062C305.531 183.562 309.328 182.812 313.547 182.812C318.703 182.812 323.062 183.781 326.625 185.719C330.188 187.656 332.953 190.344 334.922 193.781C336.922 197.188 338.156 201.141 338.625 205.641H329.625C329.188 202.453 328.375 199.719 327.188 197.438C326 195.125 324.312 193.344 322.125 192.094C319.938 190.844 317.078 190.219 313.547 190.219C310.516 190.219 307.844 190.797 305.531 191.953C303.25 193.109 301.328 194.75 299.766 196.875C298.234 199 297.078 201.547 296.297 204.516C295.516 207.484 295.125 210.781 295.125 214.406V221.297C295.125 224.641 295.469 227.781 296.156 230.719C296.875 233.656 297.953 236.234 299.391 238.453C300.828 240.672 302.656 242.422 304.875 243.703C307.094 244.953 309.719 245.578 312.75 245.578C316.594 245.578 319.656 244.969 321.938 243.75C324.219 242.531 325.938 240.781 327.094 238.5C328.281 236.219 329.125 233.484 329.625 230.297ZM387.328 234.75C387.328 233.156 387.078 231.75 386.578 230.531C386.109 229.281 385.266 228.156 384.047 227.156C382.859 226.156 381.203 225.203 379.078 224.297C376.984 223.391 374.328 222.469 371.109 221.531C367.734 220.531 364.688 219.422 361.969 218.203C359.25 216.953 356.922 215.531 354.984 213.938C353.047 212.344 351.562 210.516 350.531 208.453C349.5 206.391 348.984 204.031 348.984 201.375C348.984 198.719 349.531 196.266 350.625 194.016C351.719 191.766 353.281 189.812 355.312 188.156C357.375 186.469 359.828 185.156 362.672 184.219C365.516 183.281 368.688 182.812 372.188 182.812C377.312 182.812 381.656 183.797 385.219 185.766C388.812 187.703 391.547 190.25 393.422 193.406C395.297 196.531 396.234 199.875 396.234 203.438H387.234C387.234 200.875 386.688 198.609 385.594 196.641C384.5 194.641 382.844 193.078 380.625 191.953C378.406 190.797 375.594 190.219 372.188 190.219C368.969 190.219 366.312 190.703 364.219 191.672C362.125 192.641 360.562 193.953 359.531 195.609C358.531 197.266 358.031 199.156 358.031 201.281C358.031 202.719 358.328 204.031 358.922 205.219C359.547 206.375 360.5 207.453 361.781 208.453C363.094 209.453 364.75 210.375 366.75 211.219C368.781 212.062 371.203 212.875 374.016 213.656C377.891 214.75 381.234 215.969 384.047 217.312C386.859 218.656 389.172 220.172 390.984 221.859C392.828 223.516 394.188 225.406 395.062 227.531C395.969 229.625 396.422 232 396.422 234.656C396.422 237.438 395.859 239.953 394.734 242.203C393.609 244.453 392 246.375 389.906 247.969C387.812 249.562 385.297 250.797 382.359 251.672C379.453 252.516 376.203 252.938 372.609 252.938C369.453 252.938 366.344 252.5 363.281 251.625C360.25 250.75 357.484 249.438 354.984 247.688C352.516 245.938 350.531 243.781 349.031 241.219C347.562 238.625 346.828 235.625 346.828 232.219H355.828C355.828 234.562 356.281 236.578 357.188 238.266C358.094 239.922 359.328 241.297 360.891 242.391C362.484 243.484 364.281 244.297 366.281 244.828C368.312 245.328 370.422 245.578 372.609 245.578C375.766 245.578 378.438 245.141 380.625 244.266C382.812 243.391 384.469 242.141 385.594 240.516C386.75 238.891 387.328 236.969 387.328 234.75ZM444.328 234.75C444.328 233.156 444.078 231.75 443.578 230.531C443.109 229.281 442.266 228.156 441.047 227.156C439.859 226.156 438.203 225.203 436.078 224.297C433.984 223.391 431.328 222.469 428.109 221.531C424.734 220.531 421.688 219.422 418.969 218.203C416.25 216.953 413.922 215.531 411.984 213.938C410.047 212.344 408.562 210.516 407.531 208.453C406.5 206.391 405.984 204.031 405.984 201.375C405.984 198.719 406.531 196.266 407.625 194.016C408.719 191.766 410.281 189.812 412.312 188.156C414.375 186.469 416.828 185.156 419.672 184.219C422.516 183.281 425.688 182.812 429.188 182.812C434.312 182.812 438.656 183.797 442.219 185.766C445.812 187.703 448.547 190.25 450.422 193.406C452.297 196.531 453.234 199.875 453.234 203.438H444.234C444.234 200.875 443.688 198.609 442.594 196.641C441.5 194.641 439.844 193.078 437.625 191.953C435.406 190.797 432.594 190.219 429.188 190.219C425.969 190.219 423.312 190.703 421.219 191.672C419.125 192.641 417.562 193.953 416.531 195.609C415.531 197.266 415.031 199.156 415.031 201.281C415.031 202.719 415.328 204.031 415.922 205.219C416.547 206.375 417.5 207.453 418.781 208.453C420.094 209.453 421.75 210.375 423.75 211.219C425.781 212.062 428.203 212.875 431.016 213.656C434.891 214.75 438.234 215.969 441.047 217.312C443.859 218.656 446.172 220.172 447.984 221.859C449.828 223.516 451.188 225.406 452.062 227.531C452.969 229.625 453.422 232 453.422 234.656C453.422 237.438 452.859 239.953 451.734 242.203C450.609 244.453 449 246.375 446.906 247.969C444.812 249.562 442.297 250.797 439.359 251.672C436.453 252.516 433.203 252.938 429.609 252.938C426.453 252.938 423.344 252.5 420.281 251.625C417.25 250.75 414.484 249.438 411.984 247.688C409.516 245.938 407.531 243.781 406.031 241.219C404.562 238.625 403.828 235.625 403.828 232.219H412.828C412.828 234.562 413.281 236.578 414.188 238.266C415.094 239.922 416.328 241.297 417.891 242.391C419.484 243.484 421.281 244.297 423.281 244.828C425.312 245.328 427.422 245.578 429.609 245.578C432.766 245.578 435.438 245.141 437.625 244.266C439.812 243.391 441.469 242.141 442.594 240.516C443.75 238.891 444.328 236.969 444.328 234.75ZM496.875 201.281V252H488.156V201.281H496.875ZM487.5 187.828C487.5 186.422 487.922 185.234 488.766 184.266C489.641 183.297 490.922 182.812 492.609 182.812C494.266 182.812 495.531 183.297 496.406 184.266C497.312 185.234 497.766 186.422 497.766 187.828C497.766 189.172 497.312 190.328 496.406 191.297C495.531 192.234 494.266 192.703 492.609 192.703C490.922 192.703 489.641 192.234 488.766 191.297C487.922 190.328 487.5 189.172 487.5 187.828ZM540.328 238.547C540.328 237.297 540.047 236.141 539.484 235.078C538.953 233.984 537.844 233 536.156 232.125C534.5 231.219 532 230.438 528.656 229.781C525.844 229.188 523.297 228.484 521.016 227.672C518.766 226.859 516.844 225.875 515.25 224.719C513.688 223.562 512.484 222.203 511.641 220.641C510.797 219.078 510.375 217.25 510.375 215.156C510.375 213.156 510.812 211.266 511.688 209.484C512.594 207.703 513.859 206.125 515.484 204.75C517.141 203.375 519.125 202.297 521.438 201.516C523.75 200.734 526.328 200.344 529.172 200.344C533.234 200.344 536.703 201.062 539.578 202.5C542.453 203.938 544.656 205.859 546.188 208.266C547.719 210.641 548.484 213.281 548.484 216.188H539.812C539.812 214.781 539.391 213.422 538.547 212.109C537.734 210.766 536.531 209.656 534.938 208.781C533.375 207.906 531.453 207.469 529.172 207.469C526.766 207.469 524.812 207.844 523.312 208.594C521.844 209.312 520.766 210.234 520.078 211.359C519.422 212.484 519.094 213.672 519.094 214.922C519.094 215.859 519.25 216.703 519.562 217.453C519.906 218.172 520.5 218.844 521.344 219.469C522.188 220.062 523.375 220.625 524.906 221.156C526.438 221.688 528.391 222.219 530.766 222.75C534.922 223.688 538.344 224.812 541.031 226.125C543.719 227.438 545.719 229.047 547.031 230.953C548.344 232.859 549 235.172 549 237.891C549 240.109 548.531 242.141 547.594 243.984C546.688 245.828 545.359 247.422 543.609 248.766C541.891 250.078 539.828 251.109 537.422 251.859C535.047 252.578 532.375 252.938 529.406 252.938C524.938 252.938 521.156 252.141 518.062 250.547C514.969 248.953 512.625 246.891 511.031 244.359C509.438 241.828 508.641 239.156 508.641 236.344H517.359C517.484 238.719 518.172 240.609 519.422 242.016C520.672 243.391 522.203 244.375 524.016 244.969C525.828 245.531 527.625 245.812 529.406 245.812C531.781 245.812 533.766 245.5 535.359 244.875C536.984 244.25 538.219 243.391 539.062 242.297C539.906 241.203 540.328 239.953 540.328 238.547ZM317.016 356.328V330.219C317.016 328.219 316.609 326.484 315.797 325.016C315.016 323.516 313.828 322.359 312.234 321.547C310.641 320.734 308.672 320.328 306.328 320.328C304.141 320.328 302.219 320.703 300.562 321.453C298.938 322.203 297.656 323.188 296.719 324.406C295.812 325.625 295.359 326.938 295.359 328.344H286.688C286.688 326.531 287.156 324.734 288.094 322.953C289.031 321.172 290.375 319.562 292.125 318.125C293.906 316.656 296.031 315.5 298.5 314.656C301 313.781 303.781 313.344 306.844 313.344C310.531 313.344 313.781 313.969 316.594 315.219C319.438 316.469 321.656 318.359 323.25 320.891C324.875 323.391 325.688 326.531 325.688 330.312V353.938C325.688 355.625 325.828 357.422 326.109 359.328C326.422 361.234 326.875 362.875 327.469 364.25V365H318.422C317.984 364 317.641 362.672 317.391 361.016C317.141 359.328 317.016 357.766 317.016 356.328ZM318.516 334.25L318.609 340.344H309.844C307.375 340.344 305.172 340.547 303.234 340.953C301.297 341.328 299.672 341.906 298.359 342.688C297.047 343.469 296.047 344.453 295.359 345.641C294.672 346.797 294.328 348.156 294.328 349.719C294.328 351.312 294.688 352.766 295.406 354.078C296.125 355.391 297.203 356.438 298.641 357.219C300.109 357.969 301.906 358.344 304.031 358.344C306.688 358.344 309.031 357.781 311.062 356.656C313.094 355.531 314.703 354.156 315.891 352.531C317.109 350.906 317.766 349.328 317.859 347.797L321.562 351.969C321.344 353.281 320.75 354.734 319.781 356.328C318.812 357.922 317.516 359.453 315.891 360.922C314.297 362.359 312.391 363.562 310.172 364.531C307.984 365.469 305.516 365.938 302.766 365.938C299.328 365.938 296.312 365.266 293.719 363.922C291.156 362.578 289.156 360.781 287.719 358.531C286.312 356.25 285.609 353.703 285.609 350.891C285.609 348.172 286.141 345.781 287.203 343.719C288.266 341.625 289.797 339.891 291.797 338.516C293.797 337.109 296.203 336.047 299.016 335.328C301.828 334.609 304.969 334.25 308.438 334.25H318.516ZM352.172 356L365.203 314.281H370.922L369.797 322.578L356.531 365H350.953L352.172 356ZM343.406 314.281L354.516 356.469L355.312 365H349.453L334.734 314.281H343.406ZM383.391 356.141L393.984 314.281H402.609L387.891 365H382.078L383.391 356.141ZM372.188 314.281L384.938 355.297L386.391 365H380.859L367.219 322.484L366.094 314.281H372.188ZM432.562 365.938C429.031 365.938 425.828 365.344 422.953 364.156C420.109 362.938 417.656 361.234 415.594 359.047C413.562 356.859 412 354.266 410.906 351.266C409.812 348.266 409.266 344.984 409.266 341.422V339.453C409.266 335.328 409.875 331.656 411.094 328.438C412.312 325.188 413.969 322.438 416.062 320.188C418.156 317.938 420.531 316.234 423.188 315.078C425.844 313.922 428.594 313.344 431.438 313.344C435.062 313.344 438.188 313.969 440.812 315.219C443.469 316.469 445.641 318.219 447.328 320.469C449.016 322.688 450.266 325.312 451.078 328.344C451.891 331.344 452.297 334.625 452.297 338.188V342.078H414.422V335H443.625V334.344C443.5 332.094 443.031 329.906 442.219 327.781C441.438 325.656 440.188 323.906 438.469 322.531C436.75 321.156 434.406 320.469 431.438 320.469C429.469 320.469 427.656 320.891 426 321.734C424.344 322.547 422.922 323.766 421.734 325.391C420.547 327.016 419.625 329 418.969 331.344C418.312 333.688 417.984 336.391 417.984 339.453V341.422C417.984 343.828 418.312 346.094 418.969 348.219C419.656 350.312 420.641 352.156 421.922 353.75C423.234 355.344 424.812 356.594 426.656 357.5C428.531 358.406 430.656 358.859 433.031 358.859C436.094 358.859 438.688 358.234 440.812 356.984C442.938 355.734 444.797 354.062 446.391 351.969L451.641 356.141C450.547 357.797 449.156 359.375 447.469 360.875C445.781 362.375 443.703 363.594 441.234 364.531C438.797 365.469 435.906 365.938 432.562 365.938ZM491.953 351.547C491.953 350.297 491.672 349.141 491.109 348.078C490.578 346.984 489.469 346 487.781 345.125C486.125 344.219 483.625 343.438 480.281 342.781C477.469 342.188 474.922 341.484 472.641 340.672C470.391 339.859 468.469 338.875 466.875 337.719C465.312 336.562 464.109 335.203 463.266 333.641C462.422 332.078 462 330.25 462 328.156C462 326.156 462.438 324.266 463.312 322.484C464.219 320.703 465.484 319.125 467.109 317.75C468.766 316.375 470.75 315.297 473.062 314.516C475.375 313.734 477.953 313.344 480.797 313.344C484.859 313.344 488.328 314.062 491.203 315.5C494.078 316.938 496.281 318.859 497.812 321.266C499.344 323.641 500.109 326.281 500.109 329.188H491.438C491.438 327.781 491.016 326.422 490.172 325.109C489.359 323.766 488.156 322.656 486.562 321.781C485 320.906 483.078 320.469 480.797 320.469C478.391 320.469 476.438 320.844 474.938 321.594C473.469 322.312 472.391 323.234 471.703 324.359C471.047 325.484 470.719 326.672 470.719 327.922C470.719 328.859 470.875 329.703 471.188 330.453C471.531 331.172 472.125 331.844 472.969 332.469C473.812 333.062 475 333.625 476.531 334.156C478.062 334.688 480.016 335.219 482.391 335.75C486.547 336.688 489.969 337.812 492.656 339.125C495.344 340.438 497.344 342.047 498.656 343.953C499.969 345.859 500.625 348.172 500.625 350.891C500.625 353.109 500.156 355.141 499.219 356.984C498.312 358.828 496.984 360.422 495.234 361.766C493.516 363.078 491.453 364.109 489.047 364.859C486.672 365.578 484 365.938 481.031 365.938C476.562 365.938 472.781 365.141 469.688 363.547C466.594 361.953 464.25 359.891 462.656 357.359C461.062 354.828 460.266 352.156 460.266 349.344H468.984C469.109 351.719 469.797 353.609 471.047 355.016C472.297 356.391 473.828 357.375 475.641 357.969C477.453 358.531 479.25 358.812 481.031 358.812C483.406 358.812 485.391 358.5 486.984 357.875C488.609 357.25 489.844 356.391 490.688 355.297C491.531 354.203 491.953 352.953 491.953 351.547ZM509.719 340.203V339.125C509.719 335.469 510.25 332.078 511.312 328.953C512.375 325.797 513.906 323.062 515.906 320.75C517.906 318.406 520.328 316.594 523.172 315.312C526.016 314 529.203 313.344 532.734 313.344C536.297 313.344 539.5 314 542.344 315.312C545.219 316.594 547.656 318.406 549.656 320.75C551.688 323.062 553.234 325.797 554.297 328.953C555.359 332.078 555.891 335.469 555.891 339.125V340.203C555.891 343.859 555.359 347.25 554.297 350.375C553.234 353.5 551.688 356.234 549.656 358.578C547.656 360.891 545.234 362.703 542.391 364.016C539.578 365.297 536.391 365.938 532.828 365.938C529.266 365.938 526.062 365.297 523.219 364.016C520.375 362.703 517.938 360.891 515.906 358.578C513.906 356.234 512.375 353.5 511.312 350.375C510.25 347.25 509.719 343.859 509.719 340.203ZM518.391 339.125V340.203C518.391 342.734 518.688 345.125 519.281 347.375C519.875 349.594 520.766 351.562 521.953 353.281C523.172 355 524.688 356.359 526.5 357.359C528.312 358.328 530.422 358.812 532.828 358.812C535.203 358.812 537.281 358.328 539.062 357.359C540.875 356.359 542.375 355 543.562 353.281C544.75 351.562 545.641 349.594 546.234 347.375C546.859 345.125 547.172 342.734 547.172 340.203V339.125C547.172 336.625 546.859 334.266 546.234 332.047C545.641 329.797 544.734 327.812 543.516 326.094C542.328 324.344 540.828 322.969 539.016 321.969C537.234 320.969 535.141 320.469 532.734 320.469C530.359 320.469 528.266 320.969 526.453 321.969C524.672 322.969 523.172 324.344 521.953 326.094C520.766 327.812 519.875 329.797 519.281 332.047C518.688 334.266 518.391 336.625 518.391 339.125ZM575.391 324.359V365H566.672V314.281H574.922L575.391 324.359ZM573.609 337.719L569.578 337.578C569.609 334.109 570.062 330.906 570.938 327.969C571.812 325 573.109 322.422 574.828 320.234C576.547 318.047 578.688 316.359 581.25 315.172C583.812 313.953 586.781 313.344 590.156 313.344C592.531 313.344 594.719 313.688 596.719 314.375C598.719 315.031 600.453 316.078 601.922 317.516C603.391 318.953 604.531 320.797 605.344 323.047C606.156 325.297 606.562 328.016 606.562 331.203V365H597.891V331.625C597.891 328.969 597.438 326.844 596.531 325.25C595.656 323.656 594.406 322.5 592.781 321.781C591.156 321.031 589.25 320.656 587.062 320.656C584.5 320.656 582.359 321.109 580.641 322.016C578.922 322.922 577.547 324.172 576.516 325.766C575.484 327.359 574.734 329.188 574.266 331.25C573.828 333.281 573.609 335.438 573.609 337.719ZM606.469 332.938L600.656 334.719C600.688 331.938 601.141 329.266 602.016 326.703C602.922 324.141 604.219 321.859 605.906 319.859C607.625 317.859 609.734 316.281 612.234 315.125C614.734 313.938 617.594 313.344 620.812 313.344C623.531 313.344 625.938 313.703 628.031 314.422C630.156 315.141 631.938 316.25 633.375 317.75C634.844 319.219 635.953 321.109 636.703 323.422C637.453 325.734 637.828 328.484 637.828 331.672V365H629.109V331.578C629.109 328.734 628.656 326.531 627.75 324.969C626.875 323.375 625.625 322.266 624 321.641C622.406 320.984 620.5 320.656 618.281 320.656C616.375 320.656 614.688 320.984 613.219 321.641C611.75 322.297 610.516 323.203 609.516 324.359C608.516 325.484 607.75 326.781 607.219 328.25C606.719 329.719 606.469 331.281 606.469 332.938ZM672 365.938C668.469 365.938 665.266 365.344 662.391 364.156C659.547 362.938 657.094 361.234 655.031 359.047C653 356.859 651.438 354.266 650.344 351.266C649.25 348.266 648.703 344.984 648.703 341.422V339.453C648.703 335.328 649.312 331.656 650.531 328.438C651.75 325.188 653.406 322.438 655.5 320.188C657.594 317.938 659.969 316.234 662.625 315.078C665.281 313.922 668.031 313.344 670.875 313.344C674.5 313.344 677.625 313.969 680.25 315.219C682.906 316.469 685.078 318.219 686.766 320.469C688.453 322.688 689.703 325.312 690.516 328.344C691.328 331.344 691.734 334.625 691.734 338.188V342.078H653.859V335H683.062V334.344C682.938 332.094 682.469 329.906 681.656 327.781C680.875 325.656 679.625 323.906 677.906 322.531C676.188 321.156 673.844 320.469 670.875 320.469C668.906 320.469 667.094 320.891 665.438 321.734C663.781 322.547 662.359 323.766 661.172 325.391C659.984 327.016 659.062 329 658.406 331.344C657.75 333.688 657.422 336.391 657.422 339.453V341.422C657.422 343.828 657.75 346.094 658.406 348.219C659.094 350.312 660.078 352.156 661.359 353.75C662.672 355.344 664.25 356.594 666.094 357.5C667.969 358.406 670.094 358.859 672.469 358.859C675.531 358.859 678.125 358.234 680.25 356.984C682.375 355.734 684.234 354.062 685.828 351.969L691.078 356.141C689.984 357.797 688.594 359.375 686.906 360.875C685.219 362.375 683.141 363.594 680.672 364.531C678.234 365.469 675.344 365.938 672 365.938Z" fill="#058105"/>
<path d="M694.561 140.061C695.146 139.475 695.146 138.525 694.561 137.939L685.015 128.393C684.429 127.808 683.479 127.808 682.893 128.393C682.308 128.979 682.308 129.929 682.893 130.515L691.379 139L682.893 147.485C682.308 148.071 682.308 149.021 682.893 149.607C683.479 150.192 684.429 150.192 685.015 149.607L694.561 140.061ZM255 140.5H693.5V137.5H255V140.5Z" fill="white"/>
<path d="M336.844 107.094V124H333.938V107.094H336.844ZM333.719 102.609C333.719 102.141 333.859 101.745 334.141 101.422C334.432 101.099 334.859 100.938 335.422 100.938C335.974 100.938 336.396 101.099 336.688 101.422C336.99 101.745 337.141 102.141 337.141 102.609C337.141 103.057 336.99 103.443 336.688 103.766C336.396 104.078 335.974 104.234 335.422 104.234C334.859 104.234 334.432 104.078 334.141 103.766C333.859 103.443 333.719 103.057 333.719 102.609ZM344.375 110.703V124H341.484V107.094H344.219L344.375 110.703ZM343.688 114.906L342.484 114.859C342.495 113.703 342.667 112.635 343 111.656C343.333 110.667 343.802 109.807 344.406 109.078C345.01 108.349 345.729 107.786 346.562 107.391C347.406 106.984 348.339 106.781 349.359 106.781C350.193 106.781 350.943 106.896 351.609 107.125C352.276 107.344 352.844 107.698 353.312 108.188C353.792 108.677 354.156 109.312 354.406 110.094C354.656 110.865 354.781 111.807 354.781 112.922V124H351.875V112.891C351.875 112.005 351.745 111.297 351.484 110.766C351.224 110.224 350.844 109.833 350.344 109.594C349.844 109.344 349.229 109.219 348.5 109.219C347.781 109.219 347.125 109.37 346.531 109.672C345.948 109.974 345.443 110.391 345.016 110.922C344.599 111.453 344.271 112.062 344.031 112.75C343.802 113.427 343.688 114.146 343.688 114.906ZM362.312 100V124H359.406V100H362.312ZM370.094 107.094V124H367.188V107.094H370.094ZM366.969 102.609C366.969 102.141 367.109 101.745 367.391 101.422C367.682 101.099 368.109 100.938 368.672 100.938C369.224 100.938 369.646 101.099 369.938 101.422C370.24 101.745 370.391 102.141 370.391 102.609C370.391 103.057 370.24 103.443 369.938 103.766C369.646 104.078 369.224 104.234 368.672 104.234C368.109 104.234 367.682 104.078 367.391 103.766C367.109 103.443 366.969 103.057 366.969 102.609ZM377.625 110.703V124H374.734V107.094H377.469L377.625 110.703ZM376.938 114.906L375.734 114.859C375.745 113.703 375.917 112.635 376.25 111.656C376.583 110.667 377.052 109.807 377.656 109.078C378.26 108.349 378.979 107.786 379.812 107.391C380.656 106.984 381.589 106.781 382.609 106.781C383.443 106.781 384.193 106.896 384.859 107.125C385.526 107.344 386.094 107.698 386.562 108.188C387.042 108.677 387.406 109.312 387.656 110.094C387.906 110.865 388.031 111.807 388.031 112.922V124H385.125V112.891C385.125 112.005 384.995 111.297 384.734 110.766C384.474 110.224 384.094 109.833 383.594 109.594C383.094 109.344 382.479 109.219 381.75 109.219C381.031 109.219 380.375 109.37 379.781 109.672C379.198 109.974 378.693 110.391 378.266 110.922C377.849 111.453 377.521 112.062 377.281 112.75C377.052 113.427 376.938 114.146 376.938 114.906ZM399.438 124.312C398.26 124.312 397.193 124.115 396.234 123.719C395.286 123.312 394.469 122.745 393.781 122.016C393.104 121.286 392.583 120.422 392.219 119.422C391.854 118.422 391.672 117.328 391.672 116.141V115.484C391.672 114.109 391.875 112.885 392.281 111.812C392.688 110.729 393.24 109.812 393.938 109.062C394.635 108.312 395.427 107.745 396.312 107.359C397.198 106.974 398.115 106.781 399.062 106.781C400.271 106.781 401.312 106.99 402.188 107.406C403.073 107.823 403.797 108.406 404.359 109.156C404.922 109.896 405.339 110.771 405.609 111.781C405.88 112.781 406.016 113.875 406.016 115.062V116.359H393.391V114H403.125V113.781C403.083 113.031 402.927 112.302 402.656 111.594C402.396 110.885 401.979 110.302 401.406 109.844C400.833 109.385 400.052 109.156 399.062 109.156C398.406 109.156 397.802 109.297 397.25 109.578C396.698 109.849 396.224 110.255 395.828 110.797C395.432 111.339 395.125 112 394.906 112.781C394.688 113.562 394.578 114.464 394.578 115.484V116.141C394.578 116.943 394.688 117.698 394.906 118.406C395.135 119.104 395.464 119.719 395.891 120.25C396.328 120.781 396.854 121.198 397.469 121.5C398.094 121.802 398.802 121.953 399.594 121.953C400.615 121.953 401.479 121.745 402.188 121.328C402.896 120.911 403.516 120.354 404.047 119.656L405.797 121.047C405.432 121.599 404.969 122.125 404.406 122.625C403.844 123.125 403.151 123.531 402.328 123.844C401.516 124.156 400.552 124.312 399.438 124.312ZM417.312 100H420.219V120.719L419.969 124H417.312V100ZM431.641 115.406V115.734C431.641 116.964 431.495 118.104 431.203 119.156C430.911 120.198 430.484 121.104 429.922 121.875C429.359 122.646 428.672 123.245 427.859 123.672C427.047 124.099 426.115 124.312 425.062 124.312C423.99 124.312 423.047 124.13 422.234 123.766C421.432 123.391 420.755 122.854 420.203 122.156C419.651 121.458 419.208 120.615 418.875 119.625C418.552 118.635 418.328 117.521 418.203 116.281V114.844C418.328 113.594 418.552 112.474 418.875 111.484C419.208 110.495 419.651 109.651 420.203 108.953C420.755 108.245 421.432 107.708 422.234 107.344C423.036 106.969 423.969 106.781 425.031 106.781C426.094 106.781 427.036 106.99 427.859 107.406C428.682 107.812 429.37 108.396 429.922 109.156C430.484 109.917 430.911 110.828 431.203 111.891C431.495 112.943 431.641 114.115 431.641 115.406ZM428.734 115.734V115.406C428.734 114.562 428.656 113.771 428.5 113.031C428.344 112.281 428.094 111.625 427.75 111.062C427.406 110.49 426.953 110.042 426.391 109.719C425.828 109.385 425.135 109.219 424.312 109.219C423.583 109.219 422.948 109.344 422.406 109.594C421.875 109.844 421.422 110.182 421.047 110.609C420.672 111.026 420.365 111.505 420.125 112.047C419.896 112.578 419.724 113.13 419.609 113.703V117.469C419.776 118.198 420.047 118.901 420.422 119.578C420.807 120.245 421.318 120.792 421.953 121.219C422.599 121.646 423.396 121.859 424.344 121.859C425.125 121.859 425.792 121.703 426.344 121.391C426.906 121.068 427.359 120.625 427.703 120.062C428.057 119.5 428.318 118.849 428.484 118.109C428.651 117.37 428.734 116.578 428.734 115.734ZM445.266 121.109V112.406C445.266 111.74 445.13 111.161 444.859 110.672C444.599 110.172 444.203 109.786 443.672 109.516C443.141 109.245 442.484 109.109 441.703 109.109C440.974 109.109 440.333 109.234 439.781 109.484C439.24 109.734 438.812 110.062 438.5 110.469C438.198 110.875 438.047 111.312 438.047 111.781H435.156C435.156 111.177 435.312 110.578 435.625 109.984C435.938 109.391 436.385 108.854 436.969 108.375C437.562 107.885 438.271 107.5 439.094 107.219C439.927 106.927 440.854 106.781 441.875 106.781C443.104 106.781 444.188 106.99 445.125 107.406C446.073 107.823 446.812 108.453 447.344 109.297C447.885 110.13 448.156 111.177 448.156 112.438V120.312C448.156 120.875 448.203 121.474 448.297 122.109C448.401 122.745 448.552 123.292 448.75 123.75V124H445.734C445.589 123.667 445.474 123.224 445.391 122.672C445.307 122.109 445.266 121.589 445.266 121.109ZM445.766 113.75L445.797 115.781H442.875C442.052 115.781 441.318 115.849 440.672 115.984C440.026 116.109 439.484 116.302 439.047 116.562C438.609 116.823 438.276 117.151 438.047 117.547C437.818 117.932 437.703 118.385 437.703 118.906C437.703 119.438 437.823 119.922 438.062 120.359C438.302 120.797 438.661 121.146 439.141 121.406C439.63 121.656 440.229 121.781 440.938 121.781C441.823 121.781 442.604 121.594 443.281 121.219C443.958 120.844 444.495 120.385 444.891 119.844C445.297 119.302 445.516 118.776 445.547 118.266L446.781 119.656C446.708 120.094 446.51 120.578 446.188 121.109C445.865 121.641 445.432 122.151 444.891 122.641C444.359 123.12 443.724 123.521 442.984 123.844C442.255 124.156 441.432 124.312 440.516 124.312C439.37 124.312 438.365 124.089 437.5 123.641C436.646 123.193 435.979 122.594 435.5 121.844C435.031 121.083 434.797 120.234 434.797 119.297C434.797 118.391 434.974 117.594 435.328 116.906C435.682 116.208 436.193 115.63 436.859 115.172C437.526 114.703 438.328 114.349 439.266 114.109C440.203 113.87 441.25 113.75 442.406 113.75H445.766ZM462.547 119.516C462.547 119.099 462.453 118.714 462.266 118.359C462.089 117.995 461.719 117.667 461.156 117.375C460.604 117.073 459.771 116.812 458.656 116.594C457.719 116.396 456.87 116.161 456.109 115.891C455.359 115.62 454.719 115.292 454.188 114.906C453.667 114.521 453.266 114.068 452.984 113.547C452.703 113.026 452.562 112.417 452.562 111.719C452.562 111.052 452.708 110.422 453 109.828C453.302 109.234 453.724 108.708 454.266 108.25C454.818 107.792 455.479 107.432 456.25 107.172C457.021 106.911 457.88 106.781 458.828 106.781C460.182 106.781 461.339 107.021 462.297 107.5C463.255 107.979 463.99 108.62 464.5 109.422C465.01 110.214 465.266 111.094 465.266 112.062H462.375C462.375 111.594 462.234 111.141 461.953 110.703C461.682 110.255 461.281 109.885 460.75 109.594C460.229 109.302 459.589 109.156 458.828 109.156C458.026 109.156 457.375 109.281 456.875 109.531C456.385 109.771 456.026 110.078 455.797 110.453C455.578 110.828 455.469 111.224 455.469 111.641C455.469 111.953 455.521 112.234 455.625 112.484C455.74 112.724 455.938 112.948 456.219 113.156C456.5 113.354 456.896 113.542 457.406 113.719C457.917 113.896 458.568 114.073 459.359 114.25C460.745 114.562 461.885 114.938 462.781 115.375C463.677 115.812 464.344 116.349 464.781 116.984C465.219 117.62 465.438 118.391 465.438 119.297C465.438 120.036 465.281 120.714 464.969 121.328C464.667 121.943 464.224 122.474 463.641 122.922C463.068 123.359 462.38 123.703 461.578 123.953C460.786 124.193 459.896 124.312 458.906 124.312C457.417 124.312 456.156 124.047 455.125 123.516C454.094 122.984 453.312 122.297 452.781 121.453C452.25 120.609 451.984 119.719 451.984 118.781H454.891C454.932 119.573 455.161 120.203 455.578 120.672C455.995 121.13 456.505 121.458 457.109 121.656C457.714 121.844 458.312 121.938 458.906 121.938C459.698 121.938 460.359 121.833 460.891 121.625C461.432 121.417 461.844 121.13 462.125 120.766C462.406 120.401 462.547 119.984 462.547 119.516ZM476.25 124.312C475.073 124.312 474.005 124.115 473.047 123.719C472.099 123.312 471.281 122.745 470.594 122.016C469.917 121.286 469.396 120.422 469.031 119.422C468.667 118.422 468.484 117.328 468.484 116.141V115.484C468.484 114.109 468.688 112.885 469.094 111.812C469.5 110.729 470.052 109.812 470.75 109.062C471.448 108.312 472.24 107.745 473.125 107.359C474.01 106.974 474.927 106.781 475.875 106.781C477.083 106.781 478.125 106.99 479 107.406C479.885 107.823 480.609 108.406 481.172 109.156C481.734 109.896 482.151 110.771 482.422 111.781C482.693 112.781 482.828 113.875 482.828 115.062V116.359H470.203V114H479.938V113.781C479.896 113.031 479.74 112.302 479.469 111.594C479.208 110.885 478.792 110.302 478.219 109.844C477.646 109.385 476.865 109.156 475.875 109.156C475.219 109.156 474.615 109.297 474.062 109.578C473.51 109.849 473.036 110.255 472.641 110.797C472.245 111.339 471.938 112 471.719 112.781C471.5 113.562 471.391 114.464 471.391 115.484V116.141C471.391 116.943 471.5 117.698 471.719 118.406C471.948 119.104 472.276 119.719 472.703 120.25C473.141 120.781 473.667 121.198 474.281 121.5C474.906 121.802 475.615 121.953 476.406 121.953C477.427 121.953 478.292 121.745 479 121.328C479.708 120.911 480.328 120.354 480.859 119.656L482.609 121.047C482.245 121.599 481.781 122.125 481.219 122.625C480.656 123.125 479.964 123.531 479.141 123.844C478.328 124.156 477.365 124.312 476.25 124.312ZM504.797 120.719V100H507.703V124H505.047L504.797 120.719ZM493.422 115.734V115.406C493.422 114.115 493.578 112.943 493.891 111.891C494.214 110.828 494.667 109.917 495.25 109.156C495.844 108.396 496.547 107.812 497.359 107.406C498.182 106.99 499.099 106.781 500.109 106.781C501.172 106.781 502.099 106.969 502.891 107.344C503.693 107.708 504.37 108.245 504.922 108.953C505.484 109.651 505.927 110.495 506.25 111.484C506.573 112.474 506.797 113.594 506.922 114.844V116.281C506.807 117.521 506.583 118.635 506.25 119.625C505.927 120.615 505.484 121.458 504.922 122.156C504.37 122.854 503.693 123.391 502.891 123.766C502.089 124.13 501.151 124.312 500.078 124.312C499.089 124.312 498.182 124.099 497.359 123.672C496.547 123.245 495.844 122.646 495.25 121.875C494.667 121.104 494.214 120.198 493.891 119.156C493.578 118.104 493.422 116.964 493.422 115.734ZM496.328 115.406V115.734C496.328 116.578 496.411 117.37 496.578 118.109C496.755 118.849 497.026 119.5 497.391 120.062C497.755 120.625 498.219 121.068 498.781 121.391C499.344 121.703 500.016 121.859 500.797 121.859C501.755 121.859 502.542 121.656 503.156 121.25C503.781 120.844 504.281 120.307 504.656 119.641C505.031 118.974 505.323 118.25 505.531 117.469V113.703C505.406 113.13 505.224 112.578 504.984 112.047C504.755 111.505 504.453 111.026 504.078 110.609C503.714 110.182 503.26 109.844 502.719 109.594C502.188 109.344 501.557 109.219 500.828 109.219C500.036 109.219 499.354 109.385 498.781 109.719C498.219 110.042 497.755 110.49 497.391 111.062C497.026 111.625 496.755 112.281 496.578 113.031C496.411 113.771 496.328 114.562 496.328 115.406ZM515.344 107.094V124H512.438V107.094H515.344ZM512.219 102.609C512.219 102.141 512.359 101.745 512.641 101.422C512.932 101.099 513.359 100.938 513.922 100.938C514.474 100.938 514.896 101.099 515.188 101.422C515.49 101.745 515.641 102.141 515.641 102.609C515.641 103.057 515.49 103.443 515.188 103.766C514.896 104.078 514.474 104.234 513.922 104.234C513.359 104.234 512.932 104.078 512.641 103.766C512.359 103.443 512.219 103.057 512.219 102.609ZM522.875 109.75V124H519.984V107.094H522.797L522.875 109.75ZM528.156 107L528.141 109.688C527.901 109.635 527.672 109.604 527.453 109.594C527.245 109.573 527.005 109.562 526.734 109.562C526.068 109.562 525.479 109.667 524.969 109.875C524.458 110.083 524.026 110.375 523.672 110.75C523.318 111.125 523.036 111.573 522.828 112.094C522.63 112.604 522.5 113.167 522.438 113.781L521.625 114.25C521.625 113.229 521.724 112.271 521.922 111.375C522.13 110.479 522.448 109.688 522.875 109C523.302 108.302 523.844 107.76 524.5 107.375C525.167 106.979 525.958 106.781 526.875 106.781C527.083 106.781 527.323 106.807 527.594 106.859C527.865 106.901 528.052 106.948 528.156 107ZM537.531 124.312C536.354 124.312 535.286 124.115 534.328 123.719C533.38 123.312 532.562 122.745 531.875 122.016C531.198 121.286 530.677 120.422 530.312 119.422C529.948 118.422 529.766 117.328 529.766 116.141V115.484C529.766 114.109 529.969 112.885 530.375 111.812C530.781 110.729 531.333 109.812 532.031 109.062C532.729 108.312 533.521 107.745 534.406 107.359C535.292 106.974 536.208 106.781 537.156 106.781C538.365 106.781 539.406 106.99 540.281 107.406C541.167 107.823 541.891 108.406 542.453 109.156C543.016 109.896 543.432 110.771 543.703 111.781C543.974 112.781 544.109 113.875 544.109 115.062V116.359H531.484V114H541.219V113.781C541.177 113.031 541.021 112.302 540.75 111.594C540.49 110.885 540.073 110.302 539.5 109.844C538.927 109.385 538.146 109.156 537.156 109.156C536.5 109.156 535.896 109.297 535.344 109.578C534.792 109.849 534.318 110.255 533.922 110.797C533.526 111.339 533.219 112 533 112.781C532.781 113.562 532.672 114.464 532.672 115.484V116.141C532.672 116.943 532.781 117.698 533 118.406C533.229 119.104 533.557 119.719 533.984 120.25C534.422 120.781 534.948 121.198 535.562 121.5C536.188 121.802 536.896 121.953 537.688 121.953C538.708 121.953 539.573 121.745 540.281 121.328C540.99 120.911 541.609 120.354 542.141 119.656L543.891 121.047C543.526 121.599 543.062 122.125 542.5 122.625C541.938 123.125 541.245 123.531 540.422 123.844C539.609 124.156 538.646 124.312 537.531 124.312ZM554.25 121.938C554.938 121.938 555.573 121.797 556.156 121.516C556.74 121.234 557.219 120.849 557.594 120.359C557.969 119.859 558.182 119.292 558.234 118.656H560.984C560.932 119.656 560.594 120.589 559.969 121.453C559.354 122.307 558.547 123 557.547 123.531C556.547 124.052 555.448 124.312 554.25 124.312C552.979 124.312 551.87 124.089 550.922 123.641C549.984 123.193 549.203 122.578 548.578 121.797C547.964 121.016 547.5 120.12 547.188 119.109C546.885 118.089 546.734 117.01 546.734 115.875V115.219C546.734 114.083 546.885 113.01 547.188 112C547.5 110.979 547.964 110.078 548.578 109.297C549.203 108.516 549.984 107.901 550.922 107.453C551.87 107.005 552.979 106.781 554.25 106.781C555.573 106.781 556.729 107.052 557.719 107.594C558.708 108.125 559.484 108.854 560.047 109.781C560.62 110.698 560.932 111.74 560.984 112.906H558.234C558.182 112.208 557.984 111.578 557.641 111.016C557.307 110.453 556.849 110.005 556.266 109.672C555.693 109.328 555.021 109.156 554.25 109.156C553.365 109.156 552.62 109.333 552.016 109.688C551.422 110.031 550.948 110.5 550.594 111.094C550.25 111.677 550 112.328 549.844 113.047C549.698 113.755 549.625 114.479 549.625 115.219V115.875C549.625 116.615 549.698 117.344 549.844 118.062C549.99 118.781 550.234 119.432 550.578 120.016C550.932 120.599 551.406 121.068 552 121.422C552.604 121.766 553.354 121.938 554.25 121.938ZM571.312 107.094V109.312H562.172V107.094H571.312ZM565.266 102.984H568.156V119.812C568.156 120.385 568.245 120.818 568.422 121.109C568.599 121.401 568.828 121.594 569.109 121.688C569.391 121.781 569.693 121.828 570.016 121.828C570.255 121.828 570.505 121.807 570.766 121.766C571.036 121.714 571.24 121.672 571.375 121.641L571.391 124C571.161 124.073 570.859 124.141 570.484 124.203C570.12 124.276 569.677 124.312 569.156 124.312C568.448 124.312 567.797 124.172 567.203 123.891C566.609 123.609 566.135 123.141 565.781 122.484C565.438 121.818 565.266 120.922 565.266 119.797V102.984ZM577.844 107.094V124H574.938V107.094H577.844ZM574.719 102.609C574.719 102.141 574.859 101.745 575.141 101.422C575.432 101.099 575.859 100.938 576.422 100.938C576.974 100.938 577.396 101.099 577.688 101.422C577.99 101.745 578.141 102.141 578.141 102.609C578.141 103.057 577.99 103.443 577.688 103.766C577.396 104.078 576.974 104.234 576.422 104.234C575.859 104.234 575.432 104.078 575.141 103.766C574.859 103.443 574.719 103.057 574.719 102.609ZM581.719 115.734V115.375C581.719 114.156 581.896 113.026 582.25 111.984C582.604 110.932 583.115 110.021 583.781 109.25C584.448 108.469 585.255 107.865 586.203 107.438C587.151 107 588.214 106.781 589.391 106.781C590.578 106.781 591.646 107 592.594 107.438C593.552 107.865 594.365 108.469 595.031 109.25C595.708 110.021 596.224 110.932 596.578 111.984C596.932 113.026 597.109 114.156 597.109 115.375V115.734C597.109 116.953 596.932 118.083 596.578 119.125C596.224 120.167 595.708 121.078 595.031 121.859C594.365 122.63 593.557 123.234 592.609 123.672C591.672 124.099 590.609 124.312 589.422 124.312C588.234 124.312 587.167 124.099 586.219 123.672C585.271 123.234 584.458 122.63 583.781 121.859C583.115 121.078 582.604 120.167 582.25 119.125C581.896 118.083 581.719 116.953 581.719 115.734ZM584.609 115.375V115.734C584.609 116.578 584.708 117.375 584.906 118.125C585.104 118.865 585.401 119.521 585.797 120.094C586.203 120.667 586.708 121.12 587.312 121.453C587.917 121.776 588.62 121.938 589.422 121.938C590.214 121.938 590.906 121.776 591.5 121.453C592.104 121.12 592.604 120.667 593 120.094C593.396 119.521 593.693 118.865 593.891 118.125C594.099 117.375 594.203 116.578 594.203 115.734V115.375C594.203 114.542 594.099 113.755 593.891 113.016C593.693 112.266 593.391 111.604 592.984 111.031C592.589 110.448 592.089 109.99 591.484 109.656C590.891 109.323 590.193 109.156 589.391 109.156C588.599 109.156 587.901 109.323 587.297 109.656C586.703 109.99 586.203 110.448 585.797 111.031C585.401 111.604 585.104 112.266 584.906 113.016C584.708 113.755 584.609 114.542 584.609 115.375ZM603.625 110.703V124H600.734V107.094H603.469L603.625 110.703ZM602.938 114.906L601.734 114.859C601.745 113.703 601.917 112.635 602.25 111.656C602.583 110.667 603.052 109.807 603.656 109.078C604.26 108.349 604.979 107.786 605.812 107.391C606.656 106.984 607.589 106.781 608.609 106.781C609.443 106.781 610.193 106.896 610.859 107.125C611.526 107.344 612.094 107.698 612.562 108.188C613.042 108.677 613.406 109.312 613.656 110.094C613.906 110.865 614.031 111.807 614.031 112.922V124H611.125V112.891C611.125 112.005 610.995 111.297 610.734 110.766C610.474 110.224 610.094 109.833 609.594 109.594C609.094 109.344 608.479 109.219 607.75 109.219C607.031 109.219 606.375 109.37 605.781 109.672C605.198 109.974 604.693 110.391 604.266 110.922C603.849 111.453 603.521 112.062 603.281 112.75C603.052 113.427 602.938 114.146 602.938 114.906Z" fill="white"/>
<path d="M804 138.012H777V134.742H804V138.012ZM796.02 146.766H777V143.496H796.02V146.766ZM801.064 143.25C801.592 143.25 802.037 143.408 802.4 143.725C802.764 144.053 802.945 144.533 802.945 145.166C802.945 145.787 802.764 146.262 802.4 146.59C802.037 146.93 801.592 147.1 801.064 147.1C800.561 147.1 800.127 146.93 799.764 146.59C799.412 146.262 799.236 145.787 799.236 145.166C799.236 144.533 799.412 144.053 799.764 143.725C800.127 143.408 800.561 143.25 801.064 143.25ZM791.959 155.238H777V151.986H796.02V155.062L791.959 155.238ZM787.23 154.465L787.283 153.111C788.584 153.123 789.785 153.316 790.887 153.691C792 154.066 792.967 154.594 793.787 155.273C794.607 155.953 795.24 156.762 795.686 157.699C796.143 158.648 796.371 159.697 796.371 160.846C796.371 161.783 796.242 162.627 795.984 163.377C795.738 164.127 795.34 164.766 794.789 165.293C794.238 165.832 793.523 166.242 792.645 166.523C791.777 166.805 790.717 166.945 789.463 166.945H777V163.676H789.498C790.494 163.676 791.291 163.529 791.889 163.236C792.498 162.943 792.938 162.516 793.207 161.953C793.488 161.391 793.629 160.699 793.629 159.879C793.629 159.07 793.459 158.332 793.119 157.664C792.779 157.008 792.311 156.439 791.713 155.959C791.115 155.49 790.43 155.121 789.656 154.852C788.895 154.594 788.086 154.465 787.23 154.465ZM776.648 179.777C776.648 178.453 776.871 177.252 777.316 176.174C777.773 175.107 778.412 174.188 779.232 173.414C780.053 172.652 781.025 172.066 782.15 171.656C783.275 171.246 784.506 171.041 785.842 171.041H786.58C788.127 171.041 789.504 171.27 790.711 171.727C791.93 172.184 792.961 172.805 793.805 173.59C794.648 174.375 795.287 175.266 795.721 176.262C796.154 177.258 796.371 178.289 796.371 179.355C796.371 180.715 796.137 181.887 795.668 182.871C795.199 183.867 794.543 184.682 793.699 185.314C792.867 185.947 791.883 186.416 790.746 186.721C789.621 187.025 788.391 187.178 787.055 187.178H785.596V172.975H788.25V183.926H788.496C789.34 183.879 790.16 183.703 790.957 183.398C791.754 183.105 792.41 182.637 792.926 181.992C793.441 181.348 793.699 180.469 793.699 179.355C793.699 178.617 793.541 177.938 793.225 177.316C792.92 176.695 792.463 176.162 791.854 175.717C791.244 175.271 790.5 174.926 789.621 174.68C788.742 174.434 787.729 174.311 786.58 174.311H785.842C784.939 174.311 784.09 174.434 783.293 174.68C782.508 174.938 781.816 175.307 781.219 175.787C780.621 176.279 780.152 176.871 779.812 177.562C779.473 178.266 779.303 179.062 779.303 179.953C779.303 181.102 779.537 182.074 780.006 182.871C780.475 183.668 781.102 184.365 781.887 184.963L780.322 186.932C779.701 186.521 779.109 186 778.547 185.367C777.984 184.734 777.527 183.955 777.176 183.029C776.824 182.115 776.648 181.031 776.648 179.777ZM786.299 199.043H786.703C788.074 199.043 789.346 199.242 790.518 199.641C791.701 200.039 792.727 200.613 793.594 201.363C794.473 202.113 795.152 203.021 795.633 204.088C796.125 205.154 796.371 206.35 796.371 207.674C796.371 209.01 796.125 210.211 795.633 211.277C795.152 212.355 794.473 213.27 793.594 214.02C792.727 214.781 791.701 215.361 790.518 215.76C789.346 216.158 788.074 216.357 786.703 216.357H786.299C784.928 216.357 783.656 216.158 782.484 215.76C781.312 215.361 780.287 214.781 779.408 214.02C778.541 213.27 777.861 212.361 777.369 211.295C776.889 210.24 776.648 209.045 776.648 207.709C776.648 206.373 776.889 205.172 777.369 204.105C777.861 203.039 778.541 202.125 779.408 201.363C780.287 200.613 781.312 200.039 782.484 199.641C783.656 199.242 784.928 199.043 786.299 199.043ZM786.703 202.295H786.299C785.35 202.295 784.453 202.406 783.609 202.629C782.777 202.852 782.039 203.186 781.395 203.631C780.75 204.088 780.24 204.656 779.865 205.336C779.502 206.016 779.32 206.807 779.32 207.709C779.32 208.6 779.502 209.379 779.865 210.047C780.24 210.727 780.75 211.289 781.395 211.734C782.039 212.18 782.777 212.514 783.609 212.736C784.453 212.971 785.35 213.088 786.299 213.088H786.703C787.641 213.088 788.525 212.971 789.357 212.736C790.201 212.514 790.945 212.174 791.59 211.717C792.246 211.271 792.762 210.709 793.137 210.029C793.512 209.361 793.699 208.576 793.699 207.674C793.699 206.783 793.512 205.998 793.137 205.318C792.762 204.65 792.246 204.088 791.59 203.631C790.945 203.186 790.201 202.852 789.357 202.629C788.525 202.406 787.641 202.295 786.703 202.295ZM793.031 223.688H777V220.436H796.02V223.6L793.031 223.688ZM796.125 229.629L793.102 229.611C793.16 229.342 793.195 229.084 793.207 228.838C793.23 228.604 793.242 228.334 793.242 228.029C793.242 227.279 793.125 226.617 792.891 226.043C792.656 225.469 792.328 224.982 791.906 224.584C791.484 224.186 790.98 223.869 790.395 223.635C789.82 223.412 789.188 223.266 788.496 223.195L787.969 222.281C789.117 222.281 790.195 222.393 791.203 222.615C792.211 222.85 793.102 223.207 793.875 223.688C794.66 224.168 795.27 224.777 795.703 225.516C796.148 226.266 796.371 227.156 796.371 228.188C796.371 228.422 796.342 228.691 796.283 228.996C796.236 229.301 796.184 229.512 796.125 229.629ZM796.02 236.168H777V232.898H796.02V236.168ZM801.064 232.652C801.592 232.652 802.037 232.811 802.4 233.127C802.764 233.455 802.945 233.936 802.945 234.568C802.945 235.189 802.764 235.664 802.4 235.992C802.037 236.332 801.592 236.502 801.064 236.502C800.561 236.502 800.127 236.332 799.764 235.992C799.412 235.664 799.236 235.189 799.236 234.568C799.236 233.936 799.412 233.455 799.764 233.127C800.127 232.811 800.561 232.652 801.064 232.652ZM776.648 249.281C776.648 247.957 776.871 246.756 777.316 245.678C777.773 244.611 778.412 243.691 779.232 242.918C780.053 242.156 781.025 241.57 782.15 241.16C783.275 240.75 784.506 240.545 785.842 240.545H786.58C788.127 240.545 789.504 240.773 790.711 241.23C791.93 241.688 792.961 242.309 793.805 243.094C794.648 243.879 795.287 244.77 795.721 245.766C796.154 246.762 796.371 247.793 796.371 248.859C796.371 250.219 796.137 251.391 795.668 252.375C795.199 253.371 794.543 254.186 793.699 254.818C792.867 255.451 791.883 255.92 790.746 256.225C789.621 256.529 788.391 256.682 787.055 256.682H785.596V242.479H788.25V253.43H788.496C789.34 253.383 790.16 253.207 790.957 252.902C791.754 252.609 792.41 252.141 792.926 251.496C793.441 250.852 793.699 249.973 793.699 248.859C793.699 248.121 793.541 247.441 793.225 246.82C792.92 246.199 792.463 245.666 791.854 245.221C791.244 244.775 790.5 244.43 789.621 244.184C788.742 243.938 787.729 243.814 786.58 243.814H785.842C784.939 243.814 784.09 243.938 783.293 244.184C782.508 244.441 781.816 244.811 781.219 245.291C780.621 245.783 780.152 246.375 779.812 247.066C779.473 247.77 779.303 248.566 779.303 249.457C779.303 250.605 779.537 251.578 780.006 252.375C780.475 253.172 781.102 253.869 781.887 254.467L780.322 256.436C779.701 256.025 779.109 255.504 778.547 254.871C777.984 254.238 777.527 253.459 777.176 252.533C776.824 251.619 776.648 250.535 776.648 249.281ZM791.959 263.73H777V260.479H796.02V263.555L791.959 263.73ZM787.23 262.957L787.283 261.604C788.584 261.615 789.785 261.809 790.887 262.184C792 262.559 792.967 263.086 793.787 263.766C794.607 264.445 795.24 265.254 795.686 266.191C796.143 267.141 796.371 268.189 796.371 269.338C796.371 270.275 796.242 271.119 795.984 271.869C795.738 272.619 795.34 273.258 794.789 273.785C794.238 274.324 793.523 274.734 792.645 275.016C791.777 275.297 790.717 275.438 789.463 275.438H777V272.168H789.498C790.494 272.168 791.291 272.021 791.889 271.729C792.498 271.436 792.938 271.008 793.207 270.445C793.488 269.883 793.629 269.191 793.629 268.371C793.629 267.562 793.459 266.824 793.119 266.156C792.779 265.5 792.311 264.932 791.713 264.451C791.115 263.982 790.43 263.613 789.656 263.344C788.895 263.086 788.086 262.957 787.23 262.957ZM796.02 288.34H793.523V278.057H796.02V288.34ZM800.643 281.537V284.789H781.711C781.066 284.789 780.58 284.889 780.252 285.088C779.924 285.287 779.707 285.545 779.602 285.861C779.496 286.178 779.443 286.518 779.443 286.881C779.443 287.15 779.467 287.432 779.514 287.725C779.572 288.029 779.619 288.258 779.654 288.41L777 288.428C776.918 288.17 776.842 287.83 776.771 287.408C776.689 286.998 776.648 286.5 776.648 285.914C776.648 285.117 776.807 284.385 777.123 283.717C777.439 283.049 777.967 282.516 778.705 282.117C779.455 281.73 780.463 281.537 781.729 281.537H800.643ZM780.252 303.369H790.043C790.793 303.369 791.443 303.217 791.994 302.912C792.557 302.619 792.99 302.174 793.295 301.576C793.6 300.979 793.752 300.24 793.752 299.361C793.752 298.541 793.611 297.82 793.33 297.199C793.049 296.59 792.68 296.109 792.223 295.758C791.766 295.418 791.273 295.248 790.746 295.248V291.996C791.426 291.996 792.1 292.172 792.768 292.523C793.436 292.875 794.039 293.379 794.578 294.035C795.129 294.703 795.562 295.5 795.879 296.426C796.207 297.363 796.371 298.406 796.371 299.555C796.371 300.938 796.137 302.156 795.668 303.211C795.199 304.277 794.49 305.109 793.541 305.707C792.604 306.316 791.426 306.621 790.008 306.621H781.148C780.516 306.621 779.842 306.674 779.127 306.779C778.412 306.896 777.797 307.066 777.281 307.289H777V303.896C777.375 303.732 777.873 303.604 778.494 303.51C779.127 303.416 779.713 303.369 780.252 303.369ZM788.531 303.932L786.246 303.967V300.68C786.246 299.754 786.17 298.928 786.018 298.201C785.877 297.475 785.66 296.865 785.367 296.373C785.074 295.881 784.705 295.506 784.26 295.248C783.826 294.99 783.316 294.861 782.73 294.861C782.133 294.861 781.588 294.996 781.096 295.266C780.604 295.535 780.211 295.939 779.918 296.479C779.637 297.029 779.496 297.703 779.496 298.5C779.496 299.496 779.707 300.375 780.129 301.137C780.551 301.898 781.066 302.502 781.676 302.947C782.285 303.404 782.877 303.65 783.451 303.686L781.887 305.074C781.395 304.992 780.85 304.77 780.252 304.406C779.654 304.043 779.08 303.557 778.529 302.947C777.99 302.35 777.539 301.635 777.176 300.803C776.824 299.982 776.648 299.057 776.648 298.025C776.648 296.736 776.9 295.605 777.404 294.633C777.908 293.672 778.582 292.922 779.426 292.383C780.281 291.855 781.236 291.592 782.291 291.592C783.311 291.592 784.207 291.791 784.98 292.189C785.766 292.588 786.416 293.162 786.932 293.912C787.459 294.662 787.857 295.564 788.127 296.619C788.396 297.674 788.531 298.852 788.531 300.152V303.932ZM796.02 319.699H793.523V309.416H796.02V319.699ZM800.643 312.896V316.148H781.711C781.066 316.148 780.58 316.248 780.252 316.447C779.924 316.646 779.707 316.904 779.602 317.221C779.496 317.537 779.443 317.877 779.443 318.24C779.443 318.51 779.467 318.791 779.514 319.084C779.572 319.389 779.619 319.617 779.654 319.77L777 319.787C776.918 319.529 776.842 319.189 776.771 318.768C776.689 318.357 776.648 317.859 776.648 317.273C776.648 316.477 776.807 315.744 777.123 315.076C777.439 314.408 777.967 313.875 778.705 313.477C779.455 313.09 780.463 312.896 781.729 312.896H800.643ZM796.02 327.047H777V323.777H796.02V327.047ZM801.064 323.531C801.592 323.531 802.037 323.689 802.4 324.006C802.764 324.334 802.945 324.814 802.945 325.447C802.945 326.068 802.764 326.543 802.4 326.871C802.037 327.211 801.592 327.381 801.064 327.381C800.561 327.381 800.127 327.211 799.764 326.871C799.412 326.543 799.236 326.068 799.236 325.447C799.236 324.814 799.412 324.334 799.764 324.006C800.127 323.689 800.561 323.531 801.064 323.531ZM786.299 331.406H786.703C788.074 331.406 789.346 331.605 790.518 332.004C791.701 332.402 792.727 332.977 793.594 333.727C794.473 334.477 795.152 335.385 795.633 336.451C796.125 337.518 796.371 338.713 796.371 340.037C796.371 341.373 796.125 342.574 795.633 343.641C795.152 344.719 794.473 345.633 793.594 346.383C792.727 347.145 791.701 347.725 790.518 348.123C789.346 348.521 788.074 348.721 786.703 348.721H786.299C784.928 348.721 783.656 348.521 782.484 348.123C781.312 347.725 780.287 347.145 779.408 346.383C778.541 345.633 777.861 344.725 777.369 343.658C776.889 342.604 776.648 341.408 776.648 340.072C776.648 338.736 776.889 337.535 777.369 336.469C777.861 335.402 778.541 334.488 779.408 333.727C780.287 332.977 781.312 332.402 782.484 332.004C783.656 331.605 784.928 331.406 786.299 331.406ZM786.703 334.658H786.299C785.35 334.658 784.453 334.77 783.609 334.992C782.777 335.215 782.039 335.549 781.395 335.994C780.75 336.451 780.24 337.02 779.865 337.699C779.502 338.379 779.32 339.17 779.32 340.072C779.32 340.963 779.502 341.742 779.865 342.41C780.24 343.09 780.75 343.652 781.395 344.098C782.039 344.543 782.777 344.877 783.609 345.1C784.453 345.334 785.35 345.451 786.299 345.451H786.703C787.641 345.451 788.525 345.334 789.357 345.1C790.201 344.877 790.945 344.537 791.59 344.08C792.246 343.635 792.762 343.072 793.137 342.393C793.512 341.725 793.699 340.939 793.699 340.037C793.699 339.146 793.512 338.361 793.137 337.682C792.762 337.014 792.246 336.451 791.59 335.994C790.945 335.549 790.201 335.215 789.357 334.992C788.525 334.77 787.641 334.658 786.703 334.658ZM791.959 356.051H777V352.799H796.02V355.875L791.959 356.051ZM787.23 355.277L787.283 353.924C788.584 353.936 789.785 354.129 790.887 354.504C792 354.879 792.967 355.406 793.787 356.086C794.607 356.766 795.24 357.574 795.686 358.512C796.143 359.461 796.371 360.51 796.371 361.658C796.371 362.596 796.242 363.439 795.984 364.189C795.738 364.939 795.34 365.578 794.789 366.105C794.238 366.645 793.523 367.055 792.645 367.336C791.777 367.617 790.717 367.758 789.463 367.758H777V364.488H789.498C790.494 364.488 791.291 364.342 791.889 364.049C792.498 363.756 792.938 363.328 793.207 362.766C793.488 362.203 793.629 361.512 793.629 360.691C793.629 359.883 793.459 359.145 793.119 358.477C792.779 357.82 792.311 357.252 791.713 356.771C791.115 356.303 790.43 355.934 789.656 355.664C788.895 355.406 788.086 355.277 787.23 355.277Z" fill="white"/>
<path d="M759.561 96.4393C758.975 95.8536 758.025 95.8536 757.439 96.4393L747.893 105.985C747.308 106.571 747.308 107.521 747.893 108.107C748.479 108.692 749.429 108.692 750.015 108.107L758.5 99.6213L766.985 108.107C767.571 108.692 768.521 108.692 769.107 108.107C769.692 107.521 769.692 106.571 769.107 105.985L759.561 96.4393ZM760 399.5L760 97.5L757 97.5L757 399.5H760Z" fill="white"/>
<path d="M200.939 401.061C201.525 401.646 202.475 401.646 203.061 401.061L212.607 391.515C213.192 390.929 213.192 389.979 212.607 389.393C212.021 388.808 211.071 388.808 210.485 389.393L202 397.879L193.515 389.393C192.929 388.808 191.979 388.808 191.393 389.393C190.808 389.979 190.808 390.929 191.393 391.515L200.939 401.061ZM200.5 98L200.5 400L203.5 400L203.5 98L200.5 98Z" fill="white"/>
<path d="M133 403.539V400.27H156.309L160 400.551V403.539H133ZM150.332 387.42H150.701C152.084 387.42 153.367 387.584 154.551 387.912C155.723 388.24 156.742 388.721 157.609 389.354C158.477 389.986 159.15 390.76 159.631 391.674C160.111 392.588 160.352 393.637 160.352 394.82C160.352 396.027 160.146 397.088 159.736 398.002C159.314 398.904 158.711 399.666 157.926 400.287C157.141 400.908 156.191 401.406 155.078 401.781C153.965 402.145 152.711 402.396 151.316 402.537H149.699C148.293 402.396 147.033 402.145 145.92 401.781C144.807 401.406 143.857 400.908 143.072 400.287C142.275 399.666 141.672 398.904 141.262 398.002C140.84 397.1 140.629 396.051 140.629 394.855C140.629 393.66 140.863 392.6 141.332 391.674C141.789 390.748 142.445 389.975 143.301 389.354C144.156 388.721 145.182 388.24 146.377 387.912C147.561 387.584 148.879 387.42 150.332 387.42ZM150.701 390.689H150.332C149.383 390.689 148.492 390.777 147.66 390.953C146.816 391.129 146.078 391.41 145.445 391.797C144.801 392.184 144.297 392.693 143.934 393.326C143.559 393.959 143.371 394.738 143.371 395.664C143.371 396.484 143.512 397.199 143.793 397.809C144.074 398.406 144.455 398.916 144.936 399.338C145.404 399.76 145.943 400.105 146.553 400.375C147.15 400.633 147.771 400.826 148.416 400.955H152.652C153.473 400.768 154.264 400.463 155.025 400.041C155.775 399.607 156.391 399.033 156.871 398.318C157.352 397.592 157.592 396.695 157.592 395.629C157.592 394.75 157.416 394 157.064 393.379C156.701 392.746 156.203 392.236 155.57 391.85C154.938 391.451 154.205 391.158 153.373 390.971C152.541 390.783 151.65 390.689 150.701 390.689ZM133 379.773H160V383.043H133V379.773ZM150.701 375.414H150.297C148.926 375.414 147.654 375.215 146.482 374.816C145.299 374.418 144.273 373.844 143.406 373.094C142.527 372.344 141.848 371.436 141.367 370.369C140.875 369.303 140.629 368.107 140.629 366.783C140.629 365.447 140.875 364.246 141.367 363.18C141.848 362.102 142.527 361.188 143.406 360.438C144.273 359.676 145.299 359.096 146.482 358.697C147.654 358.299 148.926 358.1 150.297 358.1H150.701C152.072 358.1 153.344 358.299 154.516 358.697C155.688 359.096 156.713 359.676 157.592 360.438C158.459 361.188 159.139 362.096 159.631 363.162C160.111 364.217 160.352 365.412 160.352 366.748C160.352 368.084 160.111 369.285 159.631 370.352C159.139 371.418 158.459 372.332 157.592 373.094C156.713 373.844 155.688 374.418 154.516 374.816C153.344 375.215 152.072 375.414 150.701 375.414ZM150.297 372.162H150.701C151.65 372.162 152.547 372.051 153.391 371.828C154.223 371.605 154.961 371.271 155.605 370.826C156.25 370.369 156.76 369.801 157.135 369.121C157.498 368.441 157.68 367.65 157.68 366.748C157.68 365.857 157.498 365.078 157.135 364.41C156.76 363.73 156.25 363.168 155.605 362.723C154.961 362.277 154.223 361.943 153.391 361.721C152.547 361.486 151.65 361.369 150.701 361.369H150.297C149.359 361.369 148.475 361.486 147.643 361.721C146.799 361.943 146.055 362.283 145.41 362.74C144.754 363.186 144.238 363.748 143.863 364.428C143.488 365.096 143.301 365.881 143.301 366.783C143.301 367.674 143.488 368.459 143.863 369.139C144.238 369.807 144.754 370.369 145.41 370.826C146.055 371.271 146.799 371.605 147.643 371.828C148.475 372.051 149.359 372.162 150.297 372.162ZM157.68 346.41C157.68 345.637 157.521 344.922 157.205 344.266C156.889 343.609 156.455 343.07 155.904 342.648C155.342 342.227 154.703 341.986 153.988 341.928V338.834C155.113 338.893 156.162 339.273 157.135 339.977C158.096 340.668 158.875 341.576 159.473 342.701C160.059 343.826 160.352 345.062 160.352 346.41C160.352 347.84 160.1 349.088 159.596 350.154C159.092 351.209 158.4 352.088 157.521 352.791C156.643 353.482 155.635 354.004 154.498 354.355C153.35 354.695 152.137 354.865 150.859 354.865H150.121C148.844 354.865 147.637 354.695 146.5 354.355C145.352 354.004 144.338 353.482 143.459 352.791C142.58 352.088 141.889 351.209 141.385 350.154C140.881 349.088 140.629 347.84 140.629 346.41C140.629 344.922 140.934 343.621 141.543 342.508C142.141 341.395 142.961 340.521 144.004 339.889C145.035 339.244 146.207 338.893 147.52 338.834V341.928C146.734 341.986 146.025 342.209 145.393 342.596C144.76 342.971 144.256 343.486 143.881 344.143C143.494 344.787 143.301 345.543 143.301 346.41C143.301 347.406 143.5 348.244 143.898 348.924C144.285 349.592 144.812 350.125 145.48 350.523C146.137 350.91 146.869 351.191 147.678 351.367C148.475 351.531 149.289 351.613 150.121 351.613H150.859C151.691 351.613 152.512 351.531 153.32 351.367C154.129 351.203 154.861 350.928 155.518 350.541C156.174 350.143 156.701 349.609 157.1 348.941C157.486 348.262 157.68 347.418 157.68 346.41ZM133 331.908H160V335.178H133V331.908ZM140.98 320.289L149.857 328.586L154.674 333.227L151.211 333.49L147.238 330.168L140.98 324.262V320.289ZM160 323.26L150.93 330.045L148.029 328.357L160 319.428V323.26ZM160 303.15V306.402H138.977C137.605 306.402 136.451 306.15 135.514 305.646C134.564 305.131 133.85 304.393 133.369 303.432C132.877 302.459 132.631 301.281 132.631 299.898C132.631 299.383 132.684 298.738 132.789 297.965C132.895 297.18 133.029 296.348 133.193 295.469C133.357 294.578 133.527 293.711 133.703 292.867L136.059 294.379C135.848 295.492 135.689 296.494 135.584 297.385C135.467 298.275 135.408 299.031 135.408 299.652C135.408 300.414 135.549 301.059 135.83 301.586C136.1 302.102 136.498 302.494 137.025 302.764C137.553 303.021 138.203 303.15 138.977 303.15H160ZM160 296.119H133.703V292.867H160V296.119ZM140.98 299.107H143.477V309.408H140.98V299.107ZM150.701 288.402H150.297C148.926 288.402 147.654 288.203 146.482 287.805C145.299 287.406 144.273 286.832 143.406 286.082C142.527 285.332 141.848 284.424 141.367 283.357C140.875 282.291 140.629 281.096 140.629 279.771C140.629 278.436 140.875 277.234 141.367 276.168C141.848 275.09 142.527 274.176 143.406 273.426C144.273 272.664 145.299 272.084 146.482 271.686C147.654 271.287 148.926 271.088 150.297 271.088H150.701C152.072 271.088 153.344 271.287 154.516 271.686C155.688 272.084 156.713 272.664 157.592 273.426C158.459 274.176 159.139 275.084 159.631 276.15C160.111 277.205 160.352 278.4 160.352 279.736C160.352 281.072 160.111 282.273 159.631 283.34C159.139 284.406 158.459 285.32 157.592 286.082C156.713 286.832 155.688 287.406 154.516 287.805C153.344 288.203 152.072 288.402 150.701 288.402ZM150.297 285.15H150.701C151.65 285.15 152.547 285.039 153.391 284.816C154.223 284.594 154.961 284.26 155.605 283.814C156.25 283.357 156.76 282.789 157.135 282.109C157.498 281.43 157.68 280.639 157.68 279.736C157.68 278.846 157.498 278.066 157.135 277.398C156.76 276.719 156.25 276.156 155.605 275.711C154.961 275.266 154.223 274.932 153.391 274.709C152.547 274.475 151.65 274.357 150.701 274.357H150.297C149.359 274.357 148.475 274.475 147.643 274.709C146.799 274.932 146.055 275.271 145.41 275.729C144.754 276.174 144.238 276.736 143.863 277.416C143.488 278.084 143.301 278.869 143.301 279.771C143.301 280.662 143.488 281.447 143.863 282.127C144.238 282.795 144.754 283.357 145.41 283.814C146.055 284.26 146.799 284.594 147.643 284.816C148.475 285.039 149.359 285.15 150.297 285.15ZM156.625 262.193L140.98 257.307V255.162L144.092 255.584L160 260.559V262.65L156.625 262.193ZM140.98 265.48L156.801 261.314L160 261.016V263.213L140.98 268.732V265.48ZM156.678 250.486L140.98 246.514V243.279L160 248.799V250.979L156.678 250.486ZM140.98 254.688L156.361 249.906L160 249.361V251.436L144.057 256.551L140.98 256.973V254.688ZM156.309 219.021H133V215.752H160V218.74L156.309 219.021ZM150.701 231.818H150.332C148.879 231.818 147.561 231.643 146.377 231.291C145.182 230.928 144.156 230.418 143.301 229.762C142.445 229.094 141.789 228.303 141.332 227.389C140.863 226.463 140.629 225.432 140.629 224.295C140.629 223.1 140.84 222.057 141.262 221.166C141.672 220.264 142.275 219.502 143.072 218.881C143.857 218.248 144.807 217.75 145.92 217.387C147.033 217.023 148.293 216.771 149.699 216.631H151.316C152.711 216.76 153.965 217.012 155.078 217.387C156.191 217.75 157.141 218.248 157.926 218.881C158.711 219.502 159.314 220.264 159.736 221.166C160.146 222.068 160.352 223.123 160.352 224.33C160.352 225.443 160.111 226.463 159.631 227.389C159.15 228.303 158.477 229.094 157.609 229.762C156.742 230.418 155.723 230.928 154.551 231.291C153.367 231.643 152.084 231.818 150.701 231.818ZM150.332 228.549H150.701C151.65 228.549 152.541 228.455 153.373 228.268C154.205 228.068 154.938 227.764 155.57 227.354C156.203 226.943 156.701 226.422 157.064 225.789C157.416 225.156 157.592 224.4 157.592 223.521C157.592 222.443 157.363 221.559 156.906 220.867C156.449 220.164 155.846 219.602 155.096 219.18C154.346 218.758 153.531 218.43 152.652 218.195H148.416C147.771 218.336 147.15 218.541 146.553 218.811C145.943 219.068 145.404 219.408 144.936 219.83C144.455 220.24 144.074 220.75 143.793 221.359C143.512 221.957 143.371 222.666 143.371 223.486C143.371 224.377 143.559 225.145 143.934 225.789C144.297 226.422 144.801 226.943 145.445 227.354C146.078 227.764 146.816 228.068 147.66 228.268C148.492 228.455 149.383 228.549 150.332 228.549ZM140.98 207.156H160V210.426H140.98V207.156ZM135.936 210.672C135.408 210.672 134.963 210.514 134.6 210.197C134.236 209.869 134.055 209.389 134.055 208.756C134.055 208.135 134.236 207.66 134.6 207.332C134.963 206.992 135.408 206.822 135.936 206.822C136.439 206.822 136.873 206.992 137.236 207.332C137.588 207.66 137.764 208.135 137.764 208.756C137.764 209.389 137.588 209.869 137.236 210.197C136.873 210.514 136.439 210.672 135.936 210.672ZM143.969 198.684H160V201.936H140.98V198.771L143.969 198.684ZM140.875 192.742L143.898 192.76C143.84 193.029 143.805 193.287 143.793 193.533C143.77 193.768 143.758 194.037 143.758 194.342C143.758 195.092 143.875 195.754 144.109 196.328C144.344 196.902 144.672 197.389 145.094 197.787C145.516 198.186 146.02 198.502 146.605 198.736C147.18 198.959 147.812 199.105 148.504 199.176L149.031 200.09C147.883 200.09 146.805 199.979 145.797 199.756C144.789 199.521 143.898 199.164 143.125 198.684C142.34 198.203 141.73 197.594 141.297 196.855C140.852 196.105 140.629 195.215 140.629 194.184C140.629 193.949 140.658 193.68 140.717 193.375C140.764 193.07 140.816 192.859 140.875 192.742ZM160.352 182.195C160.352 183.52 160.129 184.721 159.684 185.799C159.227 186.865 158.588 187.785 157.768 188.559C156.947 189.32 155.975 189.906 154.85 190.316C153.725 190.727 152.494 190.932 151.158 190.932H150.42C148.873 190.932 147.496 190.703 146.289 190.246C145.07 189.789 144.039 189.168 143.195 188.383C142.352 187.598 141.713 186.707 141.279 185.711C140.846 184.715 140.629 183.684 140.629 182.617C140.629 181.258 140.863 180.086 141.332 179.102C141.801 178.105 142.457 177.291 143.301 176.658C144.133 176.025 145.117 175.557 146.254 175.252C147.379 174.947 148.609 174.795 149.945 174.795H151.404V188.998H148.75V178.047H148.504C147.66 178.094 146.84 178.27 146.043 178.574C145.246 178.867 144.59 179.336 144.074 179.98C143.559 180.625 143.301 181.504 143.301 182.617C143.301 183.355 143.459 184.035 143.775 184.656C144.08 185.277 144.537 185.811 145.146 186.256C145.756 186.701 146.5 187.047 147.379 187.293C148.258 187.539 149.271 187.662 150.42 187.662H151.158C152.061 187.662 152.91 187.539 153.707 187.293C154.492 187.035 155.184 186.666 155.781 186.186C156.379 185.693 156.848 185.102 157.188 184.41C157.527 183.707 157.697 182.91 157.697 182.02C157.697 180.871 157.463 179.898 156.994 179.102C156.525 178.305 155.898 177.607 155.113 177.01L156.678 175.041C157.299 175.451 157.891 175.973 158.453 176.605C159.016 177.238 159.473 178.018 159.824 178.943C160.176 179.857 160.352 180.941 160.352 182.195ZM157.68 163.387C157.68 162.613 157.521 161.898 157.205 161.242C156.889 160.586 156.455 160.047 155.904 159.625C155.342 159.203 154.703 158.963 153.988 158.904V155.811C155.113 155.869 156.162 156.25 157.135 156.953C158.096 157.645 158.875 158.553 159.473 159.678C160.059 160.803 160.352 162.039 160.352 163.387C160.352 164.816 160.1 166.064 159.596 167.131C159.092 168.186 158.4 169.064 157.521 169.768C156.643 170.459 155.635 170.98 154.498 171.332C153.35 171.672 152.137 171.842 150.859 171.842H150.121C148.844 171.842 147.637 171.672 146.5 171.332C145.352 170.98 144.338 170.459 143.459 169.768C142.58 169.064 141.889 168.186 141.385 167.131C140.881 166.064 140.629 164.816 140.629 163.387C140.629 161.898 140.934 160.598 141.543 159.484C142.141 158.371 142.961 157.498 144.004 156.865C145.035 156.221 146.207 155.869 147.52 155.811V158.904C146.734 158.963 146.025 159.186 145.393 159.572C144.76 159.947 144.256 160.463 143.881 161.119C143.494 161.764 143.301 162.52 143.301 163.387C143.301 164.383 143.5 165.221 143.898 165.9C144.285 166.568 144.812 167.102 145.48 167.5C146.137 167.887 146.869 168.168 147.678 168.344C148.475 168.508 149.289 168.59 150.121 168.59H150.859C151.691 168.59 152.512 168.508 153.32 168.344C154.129 168.18 154.861 167.904 155.518 167.518C156.174 167.119 156.701 166.586 157.1 165.918C157.486 165.238 157.68 164.395 157.68 163.387ZM140.98 144.191H143.477L143.477 154.475H140.98V144.191ZM136.357 150.994V147.742H155.289C155.934 147.742 156.42 147.643 156.748 147.443C157.076 147.244 157.293 146.986 157.398 146.67C157.504 146.354 157.557 146.014 157.557 145.65C157.557 145.381 157.533 145.1 157.486 144.807C157.428 144.502 157.381 144.273 157.346 144.121L160 144.104C160.082 144.361 160.158 144.701 160.229 145.123C160.311 145.533 160.352 146.031 160.352 146.617C160.352 147.414 160.193 148.146 159.877 148.814C159.561 149.482 159.033 150.016 158.295 150.414C157.545 150.801 156.537 150.994 155.271 150.994H136.357ZM140.98 136.844H160V140.113H140.98V136.844ZM135.936 140.359C135.408 140.359 134.963 140.201 134.6 139.885C134.236 139.557 134.055 139.076 134.055 138.443C134.055 137.822 134.236 137.348 134.6 137.02C134.963 136.68 135.408 136.51 135.936 136.51C136.439 136.51 136.873 136.68 137.236 137.02C137.588 137.348 137.764 137.822 137.764 138.443C137.764 139.076 137.588 139.557 137.236 139.885C136.873 140.201 136.439 140.359 135.936 140.359ZM150.701 132.484H150.297C148.926 132.484 147.654 132.285 146.482 131.887C145.299 131.488 144.273 130.914 143.406 130.164C142.527 129.414 141.848 128.506 141.367 127.439C140.875 126.373 140.629 125.178 140.629 123.854C140.629 122.518 140.875 121.316 141.367 120.25C141.848 119.172 142.527 118.258 143.406 117.508C144.273 116.746 145.299 116.166 146.482 115.768C147.654 115.369 148.926 115.17 150.297 115.17H150.701C152.072 115.17 153.344 115.369 154.516 115.768C155.688 116.166 156.713 116.746 157.592 117.508C158.459 118.258 159.139 119.166 159.631 120.232C160.111 121.287 160.352 122.482 160.352 123.818C160.352 125.154 160.111 126.355 159.631 127.422C159.139 128.488 158.459 129.402 157.592 130.164C156.713 130.914 155.688 131.488 154.516 131.887C153.344 132.285 152.072 132.484 150.701 132.484ZM150.297 129.232H150.701C151.65 129.232 152.547 129.121 153.391 128.898C154.223 128.676 154.961 128.342 155.605 127.896C156.25 127.439 156.76 126.871 157.135 126.191C157.498 125.512 157.68 124.721 157.68 123.818C157.68 122.928 157.498 122.148 157.135 121.48C156.76 120.801 156.25 120.238 155.605 119.793C154.961 119.348 154.223 119.014 153.391 118.791C152.547 118.557 151.65 118.439 150.701 118.439H150.297C149.359 118.439 148.475 118.557 147.643 118.791C146.799 119.014 146.055 119.354 145.41 119.811C144.754 120.256 144.238 120.818 143.863 121.498C143.488 122.166 143.301 122.951 143.301 123.854C143.301 124.744 143.488 125.529 143.863 126.209C144.238 126.877 144.754 127.439 145.41 127.896C146.055 128.342 146.799 128.676 147.643 128.898C148.475 129.121 149.359 129.232 150.297 129.232ZM145.041 107.84H160V111.092H140.98V108.016L145.041 107.84ZM149.77 108.613L149.717 109.967C148.416 109.955 147.215 109.762 146.113 109.387C145 109.012 144.033 108.484 143.213 107.805C142.393 107.125 141.76 106.316 141.314 105.379C140.857 104.43 140.629 103.381 140.629 102.232C140.629 101.295 140.758 100.451 141.016 99.7012C141.262 98.9512 141.66 98.3125 142.211 97.7852C142.762 97.2461 143.477 96.8359 144.355 96.5547C145.223 96.2734 146.283 96.1328 147.537 96.1328H160V99.4023H147.502C146.506 99.4023 145.709 99.5488 145.111 99.8418C144.502 100.135 144.063 100.562 143.793 101.125C143.512 101.688 143.371 102.379 143.371 103.199C143.371 104.008 143.541 104.746 143.881 105.414C144.221 106.07 144.689 106.639 145.287 107.119C145.885 107.588 146.57 107.957 147.344 108.227C148.105 108.484 148.914 108.613 149.77 108.613Z" fill="white"/>
</svg>
