<svg width="500" height="500" viewBox="0 0 500 500" fill="none" xmlns="http://www.w3.org/2000/svg">
<path d="M48.9393 357.939C48.3536 358.525 48.3536 359.475 48.9393 360.061L58.4853 369.607C59.0711 370.192 60.0208 370.192 60.6066 369.607C61.1924 369.021 61.1924 368.071 60.6066 367.485L52.1213 359L60.6066 350.515C61.1924 349.929 61.1924 348.979 60.6066 348.393C60.0208 347.808 59.0711 347.808 58.4853 348.393L48.9393 357.939ZM450 357.5L50 357.5V360.5L450 360.5V357.5Z" fill="#058105"/>
<path d="M139.012 330.98V350H135.742V330.98H139.012ZM135.496 325.936C135.496 325.408 135.654 324.963 135.971 324.6C136.299 324.236 136.779 324.055 137.412 324.055C138.033 324.055 138.508 324.236 138.836 324.6C139.176 324.963 139.346 325.408 139.346 325.936C139.346 326.439 139.176 326.873 138.836 327.236C138.508 327.588 138.033 327.764 137.412 327.764C136.779 327.764 136.299 327.588 135.971 327.236C135.654 326.873 135.496 326.439 135.496 325.936ZM147.484 335.041V350H144.232V330.98H147.309L147.484 335.041ZM146.711 339.77L145.357 339.717C145.369 338.416 145.562 337.215 145.938 336.113C146.312 335 146.84 334.033 147.52 333.213C148.199 332.393 149.008 331.76 149.945 331.314C150.895 330.857 151.943 330.629 153.092 330.629C154.029 330.629 154.873 330.758 155.623 331.016C156.373 331.262 157.012 331.66 157.539 332.211C158.078 332.762 158.488 333.477 158.77 334.355C159.051 335.223 159.191 336.283 159.191 337.537V350H155.922V337.502C155.922 336.506 155.775 335.709 155.482 335.111C155.189 334.502 154.762 334.062 154.199 333.793C153.637 333.512 152.945 333.371 152.125 333.371C151.316 333.371 150.578 333.541 149.91 333.881C149.254 334.221 148.686 334.689 148.205 335.287C147.736 335.885 147.367 336.57 147.098 337.344C146.84 338.105 146.711 338.914 146.711 339.77ZM167.664 323V350H164.395V323H167.664ZM176.418 330.98V350H173.148V330.98H176.418ZM172.902 325.936C172.902 325.408 173.061 324.963 173.377 324.6C173.705 324.236 174.186 324.055 174.818 324.055C175.439 324.055 175.914 324.236 176.242 324.6C176.582 324.963 176.752 325.408 176.752 325.936C176.752 326.439 176.582 326.873 176.242 327.236C175.914 327.588 175.439 327.764 174.818 327.764C174.186 327.764 173.705 327.588 173.377 327.236C173.061 326.873 172.902 326.439 172.902 325.936ZM184.891 335.041V350H181.639V330.98H184.715L184.891 335.041ZM184.117 339.77L182.764 339.717C182.775 338.416 182.969 337.215 183.344 336.113C183.719 335 184.246 334.033 184.926 333.213C185.605 332.393 186.414 331.76 187.352 331.314C188.301 330.857 189.35 330.629 190.498 330.629C191.436 330.629 192.279 330.758 193.029 331.016C193.779 331.262 194.418 331.66 194.945 332.211C195.484 332.762 195.895 333.477 196.176 334.355C196.457 335.223 196.598 336.283 196.598 337.537V350H193.328V337.502C193.328 336.506 193.182 335.709 192.889 335.111C192.596 334.502 192.168 334.062 191.605 333.793C191.043 333.512 190.352 333.371 189.531 333.371C188.723 333.371 187.984 333.541 187.316 333.881C186.66 334.221 186.092 334.689 185.611 335.287C185.143 335.885 184.773 336.57 184.504 337.344C184.246 338.105 184.117 338.914 184.117 339.77ZM209.43 350.352C208.105 350.352 206.904 350.129 205.826 349.684C204.76 349.227 203.84 348.588 203.066 347.768C202.305 346.947 201.719 345.975 201.309 344.85C200.898 343.725 200.693 342.494 200.693 341.158V340.42C200.693 338.873 200.922 337.496 201.379 336.289C201.836 335.07 202.457 334.039 203.242 333.195C204.027 332.352 204.918 331.713 205.914 331.279C206.91 330.846 207.941 330.629 209.008 330.629C210.367 330.629 211.539 330.863 212.523 331.332C213.52 331.801 214.334 332.457 214.967 333.301C215.6 334.133 216.068 335.117 216.373 336.254C216.678 337.379 216.83 338.609 216.83 339.945V341.404H202.627V338.75H213.578V338.504C213.531 337.66 213.355 336.84 213.051 336.043C212.758 335.246 212.289 334.59 211.645 334.074C211 333.559 210.121 333.301 209.008 333.301C208.27 333.301 207.59 333.459 206.969 333.775C206.348 334.08 205.814 334.537 205.369 335.146C204.924 335.756 204.578 336.5 204.332 337.379C204.086 338.258 203.963 339.271 203.963 340.42V341.158C203.963 342.061 204.086 342.91 204.332 343.707C204.59 344.492 204.959 345.184 205.439 345.781C205.932 346.379 206.523 346.848 207.215 347.188C207.918 347.527 208.715 347.697 209.605 347.697C210.754 347.697 211.727 347.463 212.523 346.994C213.32 346.525 214.018 345.898 214.615 345.113L216.584 346.678C216.174 347.299 215.652 347.891 215.02 348.453C214.387 349.016 213.607 349.473 212.682 349.824C211.768 350.176 210.684 350.352 209.43 350.352ZM241.545 346.309V323H244.814V350H241.826L241.545 346.309ZM228.748 340.701V340.332C228.748 338.879 228.924 337.561 229.275 336.377C229.639 335.182 230.148 334.156 230.805 333.301C231.473 332.445 232.264 331.789 233.178 331.332C234.104 330.863 235.135 330.629 236.271 330.629C237.467 330.629 238.51 330.84 239.4 331.262C240.303 331.672 241.064 332.275 241.686 333.072C242.318 333.857 242.816 334.807 243.18 335.92C243.543 337.033 243.795 338.293 243.936 339.699V341.316C243.807 342.711 243.555 343.965 243.18 345.078C242.816 346.191 242.318 347.141 241.686 347.926C241.064 348.711 240.303 349.314 239.4 349.736C238.498 350.146 237.443 350.352 236.236 350.352C235.123 350.352 234.104 350.111 233.178 349.631C232.264 349.15 231.473 348.477 230.805 347.609C230.148 346.742 229.639 345.723 229.275 344.551C228.924 343.367 228.748 342.084 228.748 340.701ZM232.018 340.332V340.701C232.018 341.65 232.111 342.541 232.299 343.373C232.498 344.205 232.803 344.938 233.213 345.57C233.623 346.203 234.145 346.701 234.777 347.064C235.41 347.416 236.166 347.592 237.045 347.592C238.123 347.592 239.008 347.363 239.699 346.906C240.402 346.449 240.965 345.846 241.387 345.096C241.809 344.346 242.137 343.531 242.371 342.652V338.416C242.23 337.771 242.025 337.15 241.756 336.553C241.498 335.943 241.158 335.404 240.736 334.936C240.326 334.455 239.816 334.074 239.207 333.793C238.609 333.512 237.9 333.371 237.08 333.371C236.189 333.371 235.422 333.559 234.777 333.934C234.145 334.297 233.623 334.801 233.213 335.445C232.803 336.078 232.498 336.816 232.299 337.66C232.111 338.492 232.018 339.383 232.018 340.332ZM253.41 330.98V350H250.141V330.98H253.41ZM249.895 325.936C249.895 325.408 250.053 324.963 250.369 324.6C250.697 324.236 251.178 324.055 251.811 324.055C252.432 324.055 252.906 324.236 253.234 324.6C253.574 324.963 253.744 325.408 253.744 325.936C253.744 326.439 253.574 326.873 253.234 327.236C252.906 327.588 252.432 327.764 251.811 327.764C251.178 327.764 250.697 327.588 250.369 327.236C250.053 326.873 249.895 326.439 249.895 325.936ZM261.883 333.969V350H258.631V330.98H261.795L261.883 333.969ZM267.824 330.875L267.807 333.898C267.537 333.84 267.279 333.805 267.033 333.793C266.799 333.77 266.529 333.758 266.225 333.758C265.475 333.758 264.812 333.875 264.238 334.109C263.664 334.344 263.178 334.672 262.779 335.094C262.381 335.516 262.064 336.02 261.83 336.605C261.607 337.18 261.461 337.812 261.391 338.504L260.477 339.031C260.477 337.883 260.588 336.805 260.811 335.797C261.045 334.789 261.402 333.898 261.883 333.125C262.363 332.34 262.973 331.73 263.711 331.297C264.461 330.852 265.352 330.629 266.383 330.629C266.617 330.629 266.887 330.658 267.191 330.717C267.496 330.764 267.707 330.816 267.824 330.875ZM278.371 350.352C277.047 350.352 275.846 350.129 274.768 349.684C273.701 349.227 272.781 348.588 272.008 347.768C271.246 346.947 270.66 345.975 270.25 344.85C269.84 343.725 269.635 342.494 269.635 341.158V340.42C269.635 338.873 269.863 337.496 270.32 336.289C270.777 335.07 271.398 334.039 272.184 333.195C272.969 332.352 273.859 331.713 274.855 331.279C275.852 330.846 276.883 330.629 277.949 330.629C279.309 330.629 280.48 330.863 281.465 331.332C282.461 331.801 283.275 332.457 283.908 333.301C284.541 334.133 285.01 335.117 285.314 336.254C285.619 337.379 285.771 338.609 285.771 339.945V341.404H271.568V338.75H282.52V338.504C282.473 337.66 282.297 336.84 281.992 336.043C281.699 335.246 281.23 334.59 280.586 334.074C279.941 333.559 279.062 333.301 277.949 333.301C277.211 333.301 276.531 333.459 275.91 333.775C275.289 334.08 274.756 334.537 274.311 335.146C273.865 335.756 273.52 336.5 273.273 337.379C273.027 338.258 272.904 339.271 272.904 340.42V341.158C272.904 342.061 273.027 342.91 273.273 343.707C273.531 344.492 273.9 345.184 274.381 345.781C274.873 346.379 275.465 346.848 276.156 347.188C276.859 347.527 277.656 347.697 278.547 347.697C279.695 347.697 280.668 347.463 281.465 346.994C282.262 346.525 282.959 345.898 283.557 345.113L285.525 346.678C285.115 347.299 284.594 347.891 283.961 348.453C283.328 349.016 282.549 349.473 281.623 349.824C280.709 350.176 279.625 350.352 278.371 350.352ZM297.18 347.68C297.953 347.68 298.668 347.521 299.324 347.205C299.98 346.889 300.52 346.455 300.941 345.904C301.363 345.342 301.604 344.703 301.662 343.988H304.756C304.697 345.113 304.316 346.162 303.613 347.135C302.922 348.096 302.014 348.875 300.889 349.473C299.764 350.059 298.527 350.352 297.18 350.352C295.75 350.352 294.502 350.1 293.436 349.596C292.381 349.092 291.502 348.4 290.799 347.521C290.107 346.643 289.586 345.635 289.234 344.498C288.895 343.35 288.725 342.137 288.725 340.859V340.121C288.725 338.844 288.895 337.637 289.234 336.5C289.586 335.352 290.107 334.338 290.799 333.459C291.502 332.58 292.381 331.889 293.436 331.385C294.502 330.881 295.75 330.629 297.18 330.629C298.668 330.629 299.969 330.934 301.082 331.543C302.195 332.141 303.068 332.961 303.701 334.004C304.346 335.035 304.697 336.207 304.756 337.52H301.662C301.604 336.734 301.381 336.025 300.994 335.393C300.619 334.76 300.104 334.256 299.447 333.881C298.803 333.494 298.047 333.301 297.18 333.301C296.184 333.301 295.346 333.5 294.666 333.898C293.998 334.285 293.465 334.812 293.066 335.48C292.68 336.137 292.398 336.869 292.223 337.678C292.059 338.475 291.977 339.289 291.977 340.121V340.859C291.977 341.691 292.059 342.512 292.223 343.32C292.387 344.129 292.662 344.861 293.049 345.518C293.447 346.174 293.98 346.701 294.648 347.1C295.328 347.486 296.172 347.68 297.18 347.68ZM316.375 330.98V333.477H306.092V330.98H316.375ZM309.572 326.357H312.824V345.289C312.824 345.934 312.924 346.42 313.123 346.748C313.322 347.076 313.58 347.293 313.896 347.398C314.213 347.504 314.553 347.557 314.916 347.557C315.186 347.557 315.467 347.533 315.76 347.486C316.064 347.428 316.293 347.381 316.445 347.346L316.463 350C316.205 350.082 315.865 350.158 315.443 350.229C315.033 350.311 314.535 350.352 313.949 350.352C313.152 350.352 312.42 350.193 311.752 349.877C311.084 349.561 310.551 349.033 310.152 348.295C309.766 347.545 309.572 346.537 309.572 345.271V326.357ZM323.723 330.98V350H320.453V330.98H323.723ZM320.207 325.936C320.207 325.408 320.365 324.963 320.682 324.6C321.01 324.236 321.49 324.055 322.123 324.055C322.744 324.055 323.219 324.236 323.547 324.6C323.887 324.963 324.057 325.408 324.057 325.936C324.057 326.439 323.887 326.873 323.547 327.236C323.219 327.588 322.744 327.764 322.123 327.764C321.49 327.764 321.01 327.588 320.682 327.236C320.365 326.873 320.207 326.439 320.207 325.936ZM328.082 340.701V340.297C328.082 338.926 328.281 337.654 328.68 336.482C329.078 335.299 329.652 334.273 330.402 333.406C331.152 332.527 332.061 331.848 333.127 331.367C334.193 330.875 335.389 330.629 336.713 330.629C338.049 330.629 339.25 330.875 340.316 331.367C341.395 331.848 342.309 332.527 343.059 333.406C343.82 334.273 344.4 335.299 344.799 336.482C345.197 337.654 345.396 338.926 345.396 340.297V340.701C345.396 342.072 345.197 343.344 344.799 344.516C344.4 345.688 343.82 346.713 343.059 347.592C342.309 348.459 341.4 349.139 340.334 349.631C339.279 350.111 338.084 350.352 336.748 350.352C335.412 350.352 334.211 350.111 333.145 349.631C332.078 349.139 331.164 348.459 330.402 347.592C329.652 346.713 329.078 345.688 328.68 344.516C328.281 343.344 328.082 342.072 328.082 340.701ZM331.334 340.297V340.701C331.334 341.65 331.445 342.547 331.668 343.391C331.891 344.223 332.225 344.961 332.67 345.605C333.127 346.25 333.695 346.76 334.375 347.135C335.055 347.498 335.846 347.68 336.748 347.68C337.639 347.68 338.418 347.498 339.086 347.135C339.766 346.76 340.328 346.25 340.773 345.605C341.219 344.961 341.553 344.223 341.775 343.391C342.01 342.547 342.127 341.65 342.127 340.701V340.297C342.127 339.359 342.01 338.475 341.775 337.643C341.553 336.799 341.213 336.055 340.756 335.41C340.311 334.754 339.748 334.238 339.068 333.863C338.4 333.488 337.615 333.301 336.713 333.301C335.822 333.301 335.037 333.488 334.357 333.863C333.689 334.238 333.127 334.754 332.67 335.41C332.225 336.055 331.891 336.799 331.668 337.643C331.445 338.475 331.334 339.359 331.334 340.297ZM352.727 335.041V350H349.475V330.98H352.551L352.727 335.041ZM351.953 339.77L350.6 339.717C350.611 338.416 350.805 337.215 351.18 336.113C351.555 335 352.082 334.033 352.762 333.213C353.441 332.393 354.25 331.76 355.188 331.314C356.137 330.857 357.186 330.629 358.334 330.629C359.271 330.629 360.115 330.758 360.865 331.016C361.615 331.262 362.254 331.66 362.781 332.211C363.32 332.762 363.73 333.477 364.012 334.355C364.293 335.223 364.434 336.283 364.434 337.537V350H361.164V337.502C361.164 336.506 361.018 335.709 360.725 335.111C360.432 334.502 360.004 334.062 359.441 333.793C358.879 333.512 358.188 333.371 357.367 333.371C356.559 333.371 355.82 333.541 355.152 333.881C354.496 334.221 353.928 334.689 353.447 335.287C352.979 335.885 352.609 336.57 352.34 337.344C352.082 338.105 351.953 338.914 351.953 339.77Z" fill="#058105"/>
<path d="M135.344 269.219V251.812C135.344 250.479 135.073 249.323 134.531 248.344C134.01 247.344 133.219 246.573 132.156 246.031C131.094 245.49 129.781 245.219 128.219 245.219C126.76 245.219 125.479 245.469 124.375 245.969C123.292 246.469 122.438 247.125 121.812 247.938C121.208 248.75 120.906 249.625 120.906 250.562H115.125C115.125 249.354 115.438 248.156 116.062 246.969C116.688 245.781 117.583 244.708 118.75 243.75C119.938 242.771 121.354 242 123 241.438C124.667 240.854 126.521 240.562 128.562 240.562C131.021 240.562 133.188 240.979 135.062 241.812C136.958 242.646 138.438 243.906 139.5 245.594C140.583 247.26 141.125 249.354 141.125 251.875V267.625C141.125 268.75 141.219 269.948 141.406 271.219C141.615 272.49 141.917 273.583 142.312 274.5V275H136.281C135.99 274.333 135.76 273.448 135.594 272.344C135.427 271.219 135.344 270.177 135.344 269.219ZM136.344 254.5L136.406 258.562H130.562C128.917 258.562 127.448 258.698 126.156 258.969C124.865 259.219 123.781 259.604 122.906 260.125C122.031 260.646 121.365 261.302 120.906 262.094C120.448 262.865 120.219 263.771 120.219 264.812C120.219 265.875 120.458 266.844 120.938 267.719C121.417 268.594 122.135 269.292 123.094 269.812C124.073 270.312 125.271 270.562 126.688 270.562C128.458 270.562 130.021 270.188 131.375 269.438C132.729 268.688 133.802 267.771 134.594 266.688C135.406 265.604 135.844 264.552 135.906 263.531L138.375 266.312C138.229 267.188 137.833 268.156 137.188 269.219C136.542 270.281 135.677 271.302 134.594 272.281C133.531 273.24 132.26 274.042 130.781 274.688C129.323 275.312 127.677 275.625 125.844 275.625C123.552 275.625 121.542 275.177 119.812 274.281C118.104 273.385 116.771 272.188 115.812 270.688C114.875 269.167 114.406 267.469 114.406 265.594C114.406 263.781 114.76 262.188 115.469 260.812C116.177 259.417 117.198 258.26 118.531 257.344C119.865 256.406 121.469 255.698 123.344 255.219C125.219 254.74 127.312 254.5 129.625 254.5H136.344ZM158.781 269L167.469 241.188H171.281L170.531 246.719L161.688 275H157.969L158.781 269ZM152.938 241.188L160.344 269.312L160.875 275H156.969L147.156 241.188H152.938ZM179.594 269.094L186.656 241.188H192.406L182.594 275H178.719L179.594 269.094ZM172.125 241.188L180.625 268.531L181.594 275H177.906L168.812 246.656L168.062 241.188H172.125ZM212.375 275.625C210.021 275.625 207.885 275.229 205.969 274.438C204.073 273.625 202.438 272.49 201.062 271.031C199.708 269.573 198.667 267.844 197.938 265.844C197.208 263.844 196.844 261.656 196.844 259.281V257.969C196.844 255.219 197.25 252.771 198.062 250.625C198.875 248.458 199.979 246.625 201.375 245.125C202.771 243.625 204.354 242.49 206.125 241.719C207.896 240.948 209.729 240.562 211.625 240.562C214.042 240.562 216.125 240.979 217.875 241.812C219.646 242.646 221.094 243.812 222.219 245.312C223.344 246.792 224.177 248.542 224.719 250.562C225.26 252.562 225.531 254.75 225.531 257.125V259.719H200.281V255H219.75V254.562C219.667 253.062 219.354 251.604 218.812 250.188C218.292 248.771 217.458 247.604 216.312 246.688C215.167 245.771 213.604 245.312 211.625 245.312C210.312 245.312 209.104 245.594 208 246.156C206.896 246.698 205.948 247.51 205.156 248.594C204.365 249.677 203.75 251 203.312 252.562C202.875 254.125 202.656 255.927 202.656 257.969V259.281C202.656 260.885 202.875 262.396 203.312 263.812C203.771 265.208 204.427 266.438 205.281 267.5C206.156 268.562 207.208 269.396 208.438 270C209.688 270.604 211.104 270.906 212.688 270.906C214.729 270.906 216.458 270.49 217.875 269.656C219.292 268.823 220.531 267.708 221.594 266.312L225.094 269.094C224.365 270.198 223.438 271.25 222.312 272.25C221.188 273.25 219.802 274.062 218.156 274.688C216.531 275.312 214.604 275.625 212.375 275.625ZM251.969 266.031C251.969 265.198 251.781 264.427 251.406 263.719C251.052 262.99 250.312 262.333 249.188 261.75C248.083 261.146 246.417 260.625 244.188 260.188C242.312 259.792 240.615 259.323 239.094 258.781C237.594 258.24 236.312 257.583 235.25 256.812C234.208 256.042 233.406 255.135 232.844 254.094C232.281 253.052 232 251.833 232 250.438C232 249.104 232.292 247.844 232.875 246.656C233.479 245.469 234.323 244.417 235.406 243.5C236.51 242.583 237.833 241.865 239.375 241.344C240.917 240.823 242.635 240.562 244.531 240.562C247.24 240.562 249.552 241.042 251.469 242C253.385 242.958 254.854 244.24 255.875 245.844C256.896 247.427 257.406 249.188 257.406 251.125H251.625C251.625 250.188 251.344 249.281 250.781 248.406C250.24 247.51 249.438 246.771 248.375 246.188C247.333 245.604 246.052 245.312 244.531 245.312C242.927 245.312 241.625 245.562 240.625 246.062C239.646 246.542 238.927 247.156 238.469 247.906C238.031 248.656 237.812 249.448 237.812 250.281C237.812 250.906 237.917 251.469 238.125 251.969C238.354 252.448 238.75 252.896 239.312 253.312C239.875 253.708 240.667 254.083 241.688 254.438C242.708 254.792 244.01 255.146 245.594 255.5C248.365 256.125 250.646 256.875 252.438 257.75C254.229 258.625 255.562 259.698 256.438 260.969C257.312 262.24 257.75 263.781 257.75 265.594C257.75 267.073 257.438 268.427 256.812 269.656C256.208 270.885 255.323 271.948 254.156 272.844C253.01 273.719 251.635 274.406 250.031 274.906C248.448 275.385 246.667 275.625 244.688 275.625C241.708 275.625 239.188 275.094 237.125 274.031C235.062 272.969 233.5 271.594 232.438 269.906C231.375 268.219 230.844 266.438 230.844 264.562H236.656C236.74 266.146 237.198 267.406 238.031 268.344C238.865 269.26 239.885 269.917 241.094 270.312C242.302 270.688 243.5 270.875 244.688 270.875C246.271 270.875 247.594 270.667 248.656 270.25C249.74 269.833 250.562 269.26 251.125 268.531C251.688 267.802 251.969 266.969 251.969 266.031ZM263.812 258.469V257.75C263.812 255.312 264.167 253.052 264.875 250.969C265.583 248.865 266.604 247.042 267.938 245.5C269.271 243.938 270.885 242.729 272.781 241.875C274.677 241 276.802 240.562 279.156 240.562C281.531 240.562 283.667 241 285.562 241.875C287.479 242.729 289.104 243.938 290.438 245.5C291.792 247.042 292.823 248.865 293.531 250.969C294.24 253.052 294.594 255.312 294.594 257.75V258.469C294.594 260.906 294.24 263.167 293.531 265.25C292.823 267.333 291.792 269.156 290.438 270.719C289.104 272.26 287.49 273.469 285.594 274.344C283.719 275.198 281.594 275.625 279.219 275.625C276.844 275.625 274.708 275.198 272.812 274.344C270.917 273.469 269.292 272.26 267.938 270.719C266.604 269.156 265.583 267.333 264.875 265.25C264.167 263.167 263.812 260.906 263.812 258.469ZM269.594 257.75V258.469C269.594 260.156 269.792 261.75 270.188 263.25C270.583 264.729 271.177 266.042 271.969 267.188C272.781 268.333 273.792 269.24 275 269.906C276.208 270.552 277.615 270.875 279.219 270.875C280.802 270.875 282.188 270.552 283.375 269.906C284.583 269.24 285.583 268.333 286.375 267.188C287.167 266.042 287.76 264.729 288.156 263.25C288.573 261.75 288.781 260.156 288.781 258.469V257.75C288.781 256.083 288.573 254.51 288.156 253.031C287.76 251.531 287.156 250.208 286.344 249.062C285.552 247.896 284.552 246.979 283.344 246.312C282.156 245.646 280.76 245.312 279.156 245.312C277.573 245.312 276.177 245.646 274.969 246.312C273.781 246.979 272.781 247.896 271.969 249.062C271.177 250.208 270.583 251.531 270.188 253.031C269.792 254.51 269.594 256.083 269.594 257.75ZM307.594 247.906V275H301.781V241.188H307.281L307.594 247.906ZM306.406 256.812L303.719 256.719C303.74 254.406 304.042 252.271 304.625 250.312C305.208 248.333 306.073 246.615 307.219 245.156C308.365 243.698 309.792 242.573 311.5 241.781C313.208 240.969 315.188 240.562 317.438 240.562C319.021 240.562 320.479 240.792 321.812 241.25C323.146 241.688 324.302 242.385 325.281 243.344C326.26 244.302 327.021 245.531 327.562 247.031C328.104 248.531 328.375 250.344 328.375 252.469V275H322.594V252.75C322.594 250.979 322.292 249.562 321.688 248.5C321.104 247.438 320.271 246.667 319.188 246.188C318.104 245.688 316.833 245.438 315.375 245.438C313.667 245.438 312.24 245.74 311.094 246.344C309.948 246.948 309.031 247.781 308.344 248.844C307.656 249.906 307.156 251.125 306.844 252.5C306.552 253.854 306.406 255.292 306.406 256.812ZM328.312 253.625L324.438 254.812C324.458 252.958 324.76 251.177 325.344 249.469C325.948 247.76 326.812 246.24 327.938 244.906C329.083 243.573 330.49 242.521 332.156 241.75C333.823 240.958 335.729 240.562 337.875 240.562C339.688 240.562 341.292 240.802 342.688 241.281C344.104 241.76 345.292 242.5 346.25 243.5C347.229 244.479 347.969 245.74 348.469 247.281C348.969 248.823 349.219 250.656 349.219 252.781V275H343.406V252.719C343.406 250.823 343.104 249.354 342.5 248.312C341.917 247.25 341.083 246.51 340 246.094C338.938 245.656 337.667 245.438 336.188 245.438C334.917 245.438 333.792 245.656 332.812 246.094C331.833 246.531 331.01 247.135 330.344 247.906C329.677 248.656 329.167 249.521 328.812 250.5C328.479 251.479 328.312 252.521 328.312 253.625ZM372 275.625C369.646 275.625 367.51 275.229 365.594 274.438C363.698 273.625 362.062 272.49 360.688 271.031C359.333 269.573 358.292 267.844 357.562 265.844C356.833 263.844 356.469 261.656 356.469 259.281V257.969C356.469 255.219 356.875 252.771 357.688 250.625C358.5 248.458 359.604 246.625 361 245.125C362.396 243.625 363.979 242.49 365.75 241.719C367.521 240.948 369.354 240.562 371.25 240.562C373.667 240.562 375.75 240.979 377.5 241.812C379.271 242.646 380.719 243.812 381.844 245.312C382.969 246.792 383.802 248.542 384.344 250.562C384.885 252.562 385.156 254.75 385.156 257.125V259.719H359.906V255H379.375V254.562C379.292 253.062 378.979 251.604 378.438 250.188C377.917 248.771 377.083 247.604 375.938 246.688C374.792 245.771 373.229 245.312 371.25 245.312C369.938 245.312 368.729 245.594 367.625 246.156C366.521 246.698 365.573 247.51 364.781 248.594C363.99 249.677 363.375 251 362.938 252.562C362.5 254.125 362.281 255.927 362.281 257.969V259.281C362.281 260.885 362.5 262.396 362.938 263.812C363.396 265.208 364.052 266.438 364.906 267.5C365.781 268.562 366.833 269.396 368.062 270C369.312 270.604 370.729 270.906 372.312 270.906C374.354 270.906 376.083 270.49 377.5 269.656C378.917 268.823 380.156 267.708 381.219 266.312L384.719 269.094C383.99 270.198 383.062 271.25 381.938 272.25C380.812 273.25 379.427 274.062 377.781 274.688C376.156 275.312 374.229 275.625 372 275.625Z" fill="white" fill-opacity="0.5"/>
<path d="M237.75 185.531H243.75C243.438 188.406 242.615 190.979 241.281 193.25C239.948 195.521 238.062 197.323 235.625 198.656C233.188 199.969 230.146 200.625 226.5 200.625C223.833 200.625 221.406 200.125 219.219 199.125C217.052 198.125 215.188 196.708 213.625 194.875C212.062 193.021 210.854 190.802 210 188.219C209.167 185.615 208.75 182.719 208.75 179.531V175C208.75 171.812 209.167 168.927 210 166.344C210.854 163.74 212.073 161.51 213.656 159.656C215.26 157.802 217.188 156.375 219.438 155.375C221.688 154.375 224.219 153.875 227.031 153.875C230.469 153.875 233.375 154.521 235.75 155.812C238.125 157.104 239.969 158.896 241.281 161.188C242.615 163.458 243.438 166.094 243.75 169.094H237.75C237.458 166.969 236.917 165.146 236.125 163.625C235.333 162.083 234.208 160.896 232.75 160.062C231.292 159.229 229.385 158.812 227.031 158.812C225.01 158.812 223.229 159.198 221.688 159.969C220.167 160.74 218.885 161.833 217.844 163.25C216.823 164.667 216.052 166.365 215.531 168.344C215.01 170.323 214.75 172.521 214.75 174.938V179.531C214.75 181.76 214.979 183.854 215.438 185.812C215.917 187.771 216.635 189.49 217.594 190.969C218.552 192.448 219.771 193.615 221.25 194.469C222.729 195.302 224.479 195.719 226.5 195.719C229.062 195.719 231.104 195.312 232.625 194.5C234.146 193.688 235.292 192.521 236.062 191C236.854 189.479 237.417 187.656 237.75 185.531ZM276.219 188.5C276.219 187.438 276.052 186.5 275.719 185.688C275.406 184.854 274.844 184.104 274.031 183.438C273.24 182.771 272.135 182.135 270.719 181.531C269.323 180.927 267.552 180.312 265.406 179.688C263.156 179.021 261.125 178.281 259.312 177.469C257.5 176.635 255.948 175.688 254.656 174.625C253.365 173.562 252.375 172.344 251.688 170.969C251 169.594 250.656 168.021 250.656 166.25C250.656 164.479 251.021 162.844 251.75 161.344C252.479 159.844 253.521 158.542 254.875 157.438C256.25 156.312 257.885 155.438 259.781 154.812C261.677 154.188 263.792 153.875 266.125 153.875C269.542 153.875 272.438 154.531 274.812 155.844C277.208 157.135 279.031 158.833 280.281 160.938C281.531 163.021 282.156 165.25 282.156 167.625H276.156C276.156 165.917 275.792 164.406 275.062 163.094C274.333 161.76 273.229 160.719 271.75 159.969C270.271 159.198 268.396 158.812 266.125 158.812C263.979 158.812 262.208 159.135 260.812 159.781C259.417 160.427 258.375 161.302 257.688 162.406C257.021 163.51 256.688 164.771 256.688 166.188C256.688 167.146 256.885 168.021 257.281 168.812C257.698 169.583 258.333 170.302 259.188 170.969C260.062 171.635 261.167 172.25 262.5 172.812C263.854 173.375 265.469 173.917 267.344 174.438C269.927 175.167 272.156 175.979 274.031 176.875C275.906 177.771 277.448 178.781 278.656 179.906C279.885 181.01 280.792 182.271 281.375 183.688C281.979 185.083 282.281 186.667 282.281 188.438C282.281 190.292 281.906 191.969 281.156 193.469C280.406 194.969 279.333 196.25 277.938 197.312C276.542 198.375 274.865 199.198 272.906 199.781C270.969 200.344 268.802 200.625 266.406 200.625C264.302 200.625 262.229 200.333 260.188 199.75C258.167 199.167 256.323 198.292 254.656 197.125C253.01 195.958 251.688 194.521 250.688 192.812C249.708 191.083 249.219 189.083 249.219 186.812H255.219C255.219 188.375 255.521 189.719 256.125 190.844C256.729 191.948 257.552 192.865 258.594 193.594C259.656 194.323 260.854 194.865 262.188 195.219C263.542 195.552 264.948 195.719 266.406 195.719C268.51 195.719 270.292 195.427 271.75 194.844C273.208 194.26 274.312 193.427 275.062 192.344C275.833 191.26 276.219 189.979 276.219 188.5ZM314.219 188.5C314.219 187.438 314.052 186.5 313.719 185.688C313.406 184.854 312.844 184.104 312.031 183.438C311.24 182.771 310.135 182.135 308.719 181.531C307.323 180.927 305.552 180.312 303.406 179.688C301.156 179.021 299.125 178.281 297.312 177.469C295.5 176.635 293.948 175.688 292.656 174.625C291.365 173.562 290.375 172.344 289.688 170.969C289 169.594 288.656 168.021 288.656 166.25C288.656 164.479 289.021 162.844 289.75 161.344C290.479 159.844 291.521 158.542 292.875 157.438C294.25 156.312 295.885 155.438 297.781 154.812C299.677 154.188 301.792 153.875 304.125 153.875C307.542 153.875 310.438 154.531 312.812 155.844C315.208 157.135 317.031 158.833 318.281 160.938C319.531 163.021 320.156 165.25 320.156 167.625H314.156C314.156 165.917 313.792 164.406 313.062 163.094C312.333 161.76 311.229 160.719 309.75 159.969C308.271 159.198 306.396 158.812 304.125 158.812C301.979 158.812 300.208 159.135 298.812 159.781C297.417 160.427 296.375 161.302 295.688 162.406C295.021 163.51 294.688 164.771 294.688 166.188C294.688 167.146 294.885 168.021 295.281 168.812C295.698 169.583 296.333 170.302 297.188 170.969C298.062 171.635 299.167 172.25 300.5 172.812C301.854 173.375 303.469 173.917 305.344 174.438C307.927 175.167 310.156 175.979 312.031 176.875C313.906 177.771 315.448 178.781 316.656 179.906C317.885 181.01 318.792 182.271 319.375 183.688C319.979 185.083 320.281 186.667 320.281 188.438C320.281 190.292 319.906 191.969 319.156 193.469C318.406 194.969 317.333 196.25 315.938 197.312C314.542 198.375 312.865 199.198 310.906 199.781C308.969 200.344 306.802 200.625 304.406 200.625C302.302 200.625 300.229 200.333 298.188 199.75C296.167 199.167 294.323 198.292 292.656 197.125C291.01 195.958 289.688 194.521 288.688 192.812C287.708 191.083 287.219 189.083 287.219 186.812H293.219C293.219 188.375 293.521 189.719 294.125 190.844C294.729 191.948 295.552 192.865 296.594 193.594C297.656 194.323 298.854 194.865 300.188 195.219C301.542 195.552 302.948 195.719 304.406 195.719C306.51 195.719 308.292 195.427 309.75 194.844C311.208 194.26 312.312 193.427 313.062 192.344C313.833 191.26 314.219 189.979 314.219 188.5ZM349.25 166.188V200H343.438V166.188H349.25ZM343 157.219C343 156.281 343.281 155.49 343.844 154.844C344.427 154.198 345.281 153.875 346.406 153.875C347.51 153.875 348.354 154.198 348.938 154.844C349.542 155.49 349.844 156.281 349.844 157.219C349.844 158.115 349.542 158.885 348.938 159.531C348.354 160.156 347.51 160.469 346.406 160.469C345.281 160.469 344.427 160.156 343.844 159.531C343.281 158.885 343 158.115 343 157.219ZM378.219 191.031C378.219 190.198 378.031 189.427 377.656 188.719C377.302 187.99 376.562 187.333 375.438 186.75C374.333 186.146 372.667 185.625 370.438 185.188C368.562 184.792 366.865 184.323 365.344 183.781C363.844 183.24 362.562 182.583 361.5 181.812C360.458 181.042 359.656 180.135 359.094 179.094C358.531 178.052 358.25 176.833 358.25 175.438C358.25 174.104 358.542 172.844 359.125 171.656C359.729 170.469 360.573 169.417 361.656 168.5C362.76 167.583 364.083 166.865 365.625 166.344C367.167 165.823 368.885 165.562 370.781 165.562C373.49 165.562 375.802 166.042 377.719 167C379.635 167.958 381.104 169.24 382.125 170.844C383.146 172.427 383.656 174.188 383.656 176.125H377.875C377.875 175.188 377.594 174.281 377.031 173.406C376.49 172.51 375.688 171.771 374.625 171.188C373.583 170.604 372.302 170.312 370.781 170.312C369.177 170.312 367.875 170.562 366.875 171.062C365.896 171.542 365.177 172.156 364.719 172.906C364.281 173.656 364.062 174.448 364.062 175.281C364.062 175.906 364.167 176.469 364.375 176.969C364.604 177.448 365 177.896 365.562 178.312C366.125 178.708 366.917 179.083 367.938 179.438C368.958 179.792 370.26 180.146 371.844 180.5C374.615 181.125 376.896 181.875 378.688 182.75C380.479 183.625 381.812 184.698 382.688 185.969C383.562 187.24 384 188.781 384 190.594C384 192.073 383.688 193.427 383.062 194.656C382.458 195.885 381.573 196.948 380.406 197.844C379.26 198.719 377.885 199.406 376.281 199.906C374.698 200.385 372.917 200.625 370.938 200.625C367.958 200.625 365.438 200.094 363.375 199.031C361.312 197.969 359.75 196.594 358.688 194.906C357.625 193.219 357.094 191.438 357.094 189.562H362.906C362.99 191.146 363.448 192.406 364.281 193.344C365.115 194.26 366.135 194.917 367.344 195.312C368.552 195.688 369.75 195.875 370.938 195.875C372.521 195.875 373.844 195.667 374.906 195.25C375.99 194.833 376.812 194.26 377.375 193.531C377.938 192.802 378.219 191.969 378.219 191.031Z" fill="white" fill-opacity="0.5"/>
</svg>
