<svg width="500" height="500" viewBox="0 0 500 500" fill="none" xmlns="http://www.w3.org/2000/svg">
<path d="M79.0195 108.012H60V104.742H79.0195V108.012ZM84.0645 104.496C84.5918 104.496 85.0371 104.654 85.4004 104.971C85.7637 105.299 85.9453 105.779 85.9453 106.412C85.9453 107.033 85.7637 107.508 85.4004 107.836C85.0371 108.176 84.5918 108.346 84.0645 108.346C83.5605 108.346 83.127 108.176 82.7637 107.836C82.4121 107.508 82.2363 107.033 82.2363 106.412C82.2363 105.779 82.4121 105.299 82.7637 104.971C83.127 104.654 83.5605 104.496 84.0645 104.496ZM74.959 116.484H60V113.232H79.0195V116.309L74.959 116.484ZM70.2305 115.711L70.2832 114.357C71.584 114.369 72.7852 114.562 73.8867 114.938C75 115.312 75.9668 115.84 76.7871 116.52C77.6074 117.199 78.2402 118.008 78.6855 118.945C79.1426 119.895 79.3711 120.943 79.3711 122.092C79.3711 123.029 79.2422 123.873 78.9844 124.623C78.7383 125.373 78.3398 126.012 77.7891 126.539C77.2383 127.078 76.5234 127.488 75.6445 127.77C74.7773 128.051 73.7168 128.191 72.4629 128.191H60V124.922H72.498C73.4941 124.922 74.291 124.775 74.8887 124.482C75.498 124.189 75.9375 123.762 76.207 123.199C76.4883 122.637 76.6289 121.945 76.6289 121.125C76.6289 120.316 76.459 119.578 76.1191 118.91C75.7793 118.254 75.3105 117.686 74.7129 117.205C74.1152 116.736 73.4297 116.367 72.6562 116.098C71.8945 115.84 71.0859 115.711 70.2305 115.711ZM87 136.664H60V133.395H87V136.664ZM79.0195 145.418H60V142.148H79.0195V145.418ZM84.0645 141.902C84.5918 141.902 85.0371 142.061 85.4004 142.377C85.7637 142.705 85.9453 143.186 85.9453 143.818C85.9453 144.439 85.7637 144.914 85.4004 145.242C85.0371 145.582 84.5918 145.752 84.0645 145.752C83.5605 145.752 83.127 145.582 82.7637 145.242C82.4121 144.914 82.2363 144.439 82.2363 143.818C82.2363 143.186 82.4121 142.705 82.7637 142.377C83.127 142.061 83.5605 141.902 84.0645 141.902ZM74.959 153.891H60V150.639H79.0195V153.715L74.959 153.891ZM70.2305 153.117L70.2832 151.764C71.584 151.775 72.7852 151.969 73.8867 152.344C75 152.719 75.9668 153.246 76.7871 153.926C77.6074 154.605 78.2402 155.414 78.6855 156.352C79.1426 157.301 79.3711 158.35 79.3711 159.498C79.3711 160.436 79.2422 161.279 78.9844 162.029C78.7383 162.779 78.3398 163.418 77.7891 163.945C77.2383 164.484 76.5234 164.895 75.6445 165.176C74.7773 165.457 73.7168 165.598 72.4629 165.598H60V162.328H72.498C73.4941 162.328 74.291 162.182 74.8887 161.889C75.498 161.596 75.9375 161.168 76.207 160.605C76.4883 160.043 76.6289 159.352 76.6289 158.531C76.6289 157.723 76.459 156.984 76.1191 156.316C75.7793 155.66 75.3105 155.092 74.7129 154.611C74.1152 154.143 73.4297 153.773 72.6562 153.504C71.8945 153.246 71.0859 153.117 70.2305 153.117ZM59.6484 178.43C59.6484 177.105 59.8711 175.904 60.3164 174.826C60.7734 173.76 61.4121 172.84 62.2324 172.066C63.0527 171.305 64.0254 170.719 65.1504 170.309C66.2754 169.898 67.5059 169.693 68.8418 169.693H69.5801C71.127 169.693 72.5039 169.922 73.7109 170.379C74.9297 170.836 75.9609 171.457 76.8047 172.242C77.6484 173.027 78.2871 173.918 78.7207 174.914C79.1543 175.91 79.3711 176.941 79.3711 178.008C79.3711 179.367 79.1367 180.539 78.668 181.523C78.1992 182.52 77.543 183.334 76.6992 183.967C75.8672 184.6 74.8828 185.068 73.7461 185.373C72.6211 185.678 71.3906 185.83 70.0547 185.83H68.5957V171.627H71.25V182.578H71.4961C72.3398 182.531 73.1602 182.355 73.957 182.051C74.7539 181.758 75.4102 181.289 75.9258 180.645C76.4414 180 76.6992 179.121 76.6992 178.008C76.6992 177.27 76.541 176.59 76.2246 175.969C75.9199 175.348 75.4629 174.814 74.8535 174.369C74.2441 173.924 73.5 173.578 72.6211 173.332C71.7422 173.086 70.7285 172.963 69.5801 172.963H68.8418C67.9395 172.963 67.0898 173.086 66.293 173.332C65.5078 173.59 64.8164 173.959 64.2188 174.439C63.6211 174.932 63.1523 175.523 62.8125 176.215C62.4727 176.918 62.3027 177.715 62.3027 178.605C62.3027 179.754 62.5371 180.727 63.0059 181.523C63.4746 182.32 64.1016 183.018 64.8867 183.615L63.3223 185.584C62.7012 185.174 62.1094 184.652 61.5469 184.02C60.9844 183.387 60.5273 182.607 60.1758 181.682C59.8242 180.768 59.6484 179.684 59.6484 178.43ZM63.6914 219.475H87V222.744H60V219.756L63.6914 219.475ZM69.2988 206.678H69.668C71.1211 206.678 72.4395 206.854 73.623 207.205C74.8184 207.568 75.8438 208.078 76.6992 208.734C77.5547 209.402 78.2109 210.193 78.668 211.107C79.1367 212.033 79.3711 213.064 79.3711 214.201C79.3711 215.396 79.1602 216.439 78.7383 217.33C78.3281 218.232 77.7246 218.994 76.9277 219.615C76.1426 220.248 75.1934 220.746 74.0801 221.109C72.9668 221.473 71.707 221.725 70.3008 221.865H68.6836C67.2891 221.736 66.0352 221.484 64.9219 221.109C63.8086 220.746 62.8594 220.248 62.0742 219.615C61.2891 218.994 60.6855 218.232 60.2637 217.33C59.8535 216.428 59.6484 215.373 59.6484 214.166C59.6484 213.053 59.8887 212.033 60.3691 211.107C60.8496 210.193 61.5234 209.402 62.3906 208.734C63.2578 208.078 64.2773 207.568 65.4492 207.205C66.6328 206.854 67.916 206.678 69.2988 206.678ZM69.668 209.947H69.2988C68.3496 209.947 67.459 210.041 66.627 210.229C65.7949 210.428 65.0625 210.732 64.4297 211.143C63.7969 211.553 63.2988 212.074 62.9355 212.707C62.584 213.34 62.4082 214.096 62.4082 214.975C62.4082 216.053 62.6367 216.938 63.0938 217.629C63.5508 218.332 64.1543 218.895 64.9043 219.316C65.6543 219.738 66.4688 220.066 67.3477 220.301H71.584C72.2285 220.16 72.8496 219.955 73.4473 219.686C74.0566 219.428 74.5957 219.088 75.0645 218.666C75.5449 218.256 75.9258 217.746 76.207 217.137C76.4883 216.539 76.6289 215.83 76.6289 215.01C76.6289 214.119 76.4414 213.352 76.0664 212.707C75.7031 212.074 75.1992 211.553 74.5547 211.143C73.9219 210.732 73.1836 210.428 72.3398 210.229C71.5078 210.041 70.6172 209.947 69.668 209.947ZM79.0195 231.34H60V228.07H79.0195V231.34ZM84.0645 227.824C84.5918 227.824 85.0371 227.982 85.4004 228.299C85.7637 228.627 85.9453 229.107 85.9453 229.74C85.9453 230.361 85.7637 230.836 85.4004 231.164C85.0371 231.504 84.5918 231.674 84.0645 231.674C83.5605 231.674 83.127 231.504 82.7637 231.164C82.4121 230.836 82.2363 230.361 82.2363 229.74C82.2363 229.107 82.4121 228.627 82.7637 228.299C83.127 227.982 83.5605 227.824 84.0645 227.824ZM76.0312 239.812H60V236.561H79.0195V239.725L76.0312 239.812ZM79.125 245.754L76.1016 245.736C76.1602 245.467 76.1953 245.209 76.207 244.963C76.2305 244.729 76.2422 244.459 76.2422 244.154C76.2422 243.404 76.125 242.742 75.8906 242.168C75.6562 241.594 75.3281 241.107 74.9062 240.709C74.4844 240.311 73.9805 239.994 73.3945 239.76C72.8203 239.537 72.1875 239.391 71.4961 239.32L70.9688 238.406C72.1172 238.406 73.1953 238.518 74.2031 238.74C75.2109 238.975 76.1016 239.332 76.875 239.812C77.6602 240.293 78.2695 240.902 78.7031 241.641C79.1484 242.391 79.3711 243.281 79.3711 244.312C79.3711 244.547 79.3418 244.816 79.2832 245.121C79.2363 245.426 79.1836 245.637 79.125 245.754ZM59.6484 256.301C59.6484 254.977 59.8711 253.775 60.3164 252.697C60.7734 251.631 61.4121 250.711 62.2324 249.938C63.0527 249.176 64.0254 248.59 65.1504 248.18C66.2754 247.77 67.5059 247.564 68.8418 247.564H69.5801C71.127 247.564 72.5039 247.793 73.7109 248.25C74.9297 248.707 75.9609 249.328 76.8047 250.113C77.6484 250.898 78.2871 251.789 78.7207 252.785C79.1543 253.781 79.3711 254.812 79.3711 255.879C79.3711 257.238 79.1367 258.41 78.668 259.395C78.1992 260.391 77.543 261.205 76.6992 261.838C75.8672 262.471 74.8828 262.939 73.7461 263.244C72.6211 263.549 71.3906 263.701 70.0547 263.701H68.5957V249.498H71.25V260.449H71.4961C72.3398 260.402 73.1602 260.227 73.957 259.922C74.7539 259.629 75.4102 259.16 75.9258 258.516C76.4414 257.871 76.6992 256.992 76.6992 255.879C76.6992 255.141 76.541 254.461 76.2246 253.84C75.9199 253.219 75.4629 252.686 74.8535 252.24C74.2441 251.795 73.5 251.449 72.6211 251.203C71.7422 250.957 70.7285 250.834 69.5801 250.834H68.8418C67.9395 250.834 67.0898 250.957 66.293 251.203C65.5078 251.461 64.8164 251.83 64.2188 252.311C63.6211 252.803 63.1523 253.395 62.8125 254.086C62.4727 254.789 62.3027 255.586 62.3027 256.477C62.3027 257.625 62.5371 258.598 63.0059 259.395C63.4746 260.191 64.1016 260.889 64.8867 261.486L63.3223 263.455C62.7012 263.045 62.1094 262.523 61.5469 261.891C60.9844 261.258 60.5273 260.479 60.1758 259.553C59.8242 258.639 59.6484 257.555 59.6484 256.301ZM62.3203 275.109C62.3203 275.883 62.4785 276.598 62.7949 277.254C63.1113 277.91 63.5449 278.449 64.0957 278.871C64.6582 279.293 65.2969 279.533 66.0117 279.592V282.686C64.8867 282.627 63.8379 282.246 62.8652 281.543C61.9043 280.852 61.125 279.943 60.5273 278.818C59.9414 277.693 59.6484 276.457 59.6484 275.109C59.6484 273.68 59.9004 272.432 60.4043 271.365C60.9082 270.311 61.5996 269.432 62.4785 268.729C63.3574 268.037 64.3652 267.516 65.502 267.164C66.6504 266.824 67.8633 266.654 69.1406 266.654H69.8789C71.1563 266.654 72.3633 266.824 73.5 267.164C74.6484 267.516 75.6621 268.037 76.541 268.729C77.4199 269.432 78.1113 270.311 78.6152 271.365C79.1191 272.432 79.3711 273.68 79.3711 275.109C79.3711 276.598 79.0664 277.898 78.457 279.012C77.8594 280.125 77.0391 280.998 75.9961 281.631C74.9648 282.275 73.793 282.627 72.4805 282.686V279.592C73.2656 279.533 73.9746 279.311 74.6074 278.924C75.2402 278.549 75.7441 278.033 76.1191 277.377C76.5059 276.732 76.6992 275.977 76.6992 275.109C76.6992 274.113 76.5 273.275 76.1016 272.596C75.7148 271.928 75.1875 271.395 74.5195 270.996C73.8633 270.609 73.1309 270.328 72.3223 270.152C71.5254 269.988 70.7109 269.906 69.8789 269.906H69.1406C68.3086 269.906 67.4883 269.988 66.6797 270.152C65.8711 270.316 65.1387 270.592 64.4824 270.979C63.8262 271.377 63.2988 271.91 62.9004 272.578C62.5137 273.258 62.3203 274.102 62.3203 275.109ZM79.0195 294.305H76.5234V284.021H79.0195V294.305ZM83.6426 287.502V290.754H64.7109C64.0664 290.754 63.5801 290.854 63.252 291.053C62.9238 291.252 62.707 291.51 62.6016 291.826C62.4961 292.143 62.4434 292.482 62.4434 292.846C62.4434 293.115 62.4668 293.396 62.5137 293.689C62.5723 293.994 62.6191 294.223 62.6543 294.375L60 294.393C59.918 294.135 59.8418 293.795 59.7715 293.373C59.6895 292.963 59.6484 292.465 59.6484 291.879C59.6484 291.082 59.8066 290.35 60.123 289.682C60.4395 289.014 60.9668 288.48 61.7051 288.082C62.4551 287.695 63.4629 287.502 64.7285 287.502H83.6426ZM79.0195 301.652H60V298.383H79.0195V301.652ZM84.0645 298.137C84.5918 298.137 85.0371 298.295 85.4004 298.611C85.7637 298.939 85.9453 299.42 85.9453 300.053C85.9453 300.674 85.7637 301.148 85.4004 301.477C85.0371 301.816 84.5918 301.986 84.0645 301.986C83.5605 301.986 83.127 301.816 82.7637 301.477C82.4121 301.148 82.2363 300.674 82.2363 300.053C82.2363 299.42 82.4121 298.939 82.7637 298.611C83.127 298.295 83.5605 298.137 84.0645 298.137ZM69.2988 306.012H69.7031C71.0742 306.012 72.3457 306.211 73.5176 306.609C74.7012 307.008 75.7266 307.582 76.5938 308.332C77.4727 309.082 78.1523 309.99 78.6328 311.057C79.125 312.123 79.3711 313.318 79.3711 314.643C79.3711 315.979 79.125 317.18 78.6328 318.246C78.1523 319.324 77.4727 320.238 76.5938 320.988C75.7266 321.75 74.7012 322.33 73.5176 322.729C72.3457 323.127 71.0742 323.326 69.7031 323.326H69.2988C67.9277 323.326 66.6563 323.127 65.4844 322.729C64.3125 322.33 63.2871 321.75 62.4082 320.988C61.541 320.238 60.8613 319.33 60.3691 318.264C59.8887 317.209 59.6484 316.014 59.6484 314.678C59.6484 313.342 59.8887 312.141 60.3691 311.074C60.8613 310.008 61.541 309.094 62.4082 308.332C63.2871 307.582 64.3125 307.008 65.4844 306.609C66.6563 306.211 67.9277 306.012 69.2988 306.012ZM69.7031 309.264H69.2988C68.3496 309.264 67.4531 309.375 66.6094 309.598C65.7773 309.82 65.0391 310.154 64.3945 310.6C63.75 311.057 63.2402 311.625 62.8652 312.305C62.502 312.984 62.3203 313.775 62.3203 314.678C62.3203 315.568 62.502 316.348 62.8652 317.016C63.2402 317.695 63.75 318.258 64.3945 318.703C65.0391 319.148 65.7773 319.482 66.6094 319.705C67.4531 319.939 68.3496 320.057 69.2988 320.057H69.7031C70.6406 320.057 71.5254 319.939 72.3574 319.705C73.2012 319.482 73.9453 319.143 74.5898 318.686C75.2461 318.24 75.7617 317.678 76.1367 316.998C76.5117 316.33 76.6992 315.545 76.6992 314.643C76.6992 313.752 76.5117 312.967 76.1367 312.287C75.7617 311.619 75.2461 311.057 74.5898 310.6C73.9453 310.154 73.2012 309.82 72.3574 309.598C71.5254 309.375 70.6406 309.264 69.7031 309.264ZM74.959 330.656H60V327.404H79.0195V330.48L74.959 330.656ZM70.2305 329.883L70.2832 328.529C71.584 328.541 72.7852 328.734 73.8867 329.109C75 329.484 75.9668 330.012 76.7871 330.691C77.6074 331.371 78.2402 332.18 78.6855 333.117C79.1426 334.066 79.3711 335.115 79.3711 336.264C79.3711 337.201 79.2422 338.045 78.9844 338.795C78.7383 339.545 78.3398 340.184 77.7891 340.711C77.2383 341.25 76.5234 341.66 75.6445 341.941C74.7773 342.223 73.7168 342.363 72.4629 342.363H60V339.094H72.498C73.4941 339.094 74.291 338.947 74.8887 338.654C75.498 338.361 75.9375 337.934 76.207 337.371C76.4883 336.809 76.6289 336.117 76.6289 335.297C76.6289 334.488 76.459 333.75 76.1191 333.082C75.7793 332.426 75.3105 331.857 74.7129 331.377C74.1152 330.908 73.4297 330.539 72.6563 330.27C71.8945 330.012 71.0859 329.883 70.2305 329.883Z" fill="#6C41E7"/>
<path d="M51.0607 48.9393C50.4749 48.3536 49.5251 48.3536 48.9393 48.9393L39.3934 58.4853C38.8076 59.0711 38.8076 60.0208 39.3934 60.6066C39.9792 61.1924 40.9289 61.1924 41.5147 60.6066L50 52.1213L58.4853 60.6066C59.0711 61.1924 60.0208 61.1924 60.6066 60.6066C61.1924 60.0208 61.1924 59.0711 60.6066 58.4853L51.0607 48.9393ZM51.5 450L51.5 50L48.5 50L48.5 450L51.5 450Z" fill="#6C41E7"/>
<path d="M451.061 451.061C451.646 450.475 451.646 449.525 451.061 448.939L441.515 439.393C440.929 438.808 439.979 438.808 439.393 439.393C438.808 439.979 438.808 440.929 439.393 441.515L447.879 450L439.393 458.485C438.808 459.071 438.808 460.021 439.393 460.607C439.979 461.192 440.929 461.192 441.515 460.607L451.061 451.061ZM50 451.5H450V448.5H50V451.5Z" fill="#058105"/>
<path d="M134.461 456H137.73V479.309L137.449 483H134.461V456ZM150.58 473.332V473.701C150.58 475.084 150.416 476.367 150.088 477.551C149.76 478.723 149.279 479.742 148.646 480.609C148.014 481.477 147.24 482.15 146.326 482.631C145.412 483.111 144.363 483.352 143.18 483.352C141.973 483.352 140.912 483.146 139.998 482.736C139.096 482.314 138.334 481.711 137.713 480.926C137.092 480.141 136.594 479.191 136.219 478.078C135.855 476.965 135.604 475.711 135.463 474.316V472.699C135.604 471.293 135.855 470.033 136.219 468.92C136.594 467.807 137.092 466.857 137.713 466.072C138.334 465.275 139.096 464.672 139.998 464.262C140.9 463.84 141.949 463.629 143.145 463.629C144.34 463.629 145.4 463.863 146.326 464.332C147.252 464.789 148.025 465.445 148.646 466.301C149.279 467.156 149.76 468.182 150.088 469.377C150.416 470.561 150.58 471.879 150.58 473.332ZM147.311 473.701V473.332C147.311 472.383 147.223 471.492 147.047 470.66C146.871 469.816 146.59 469.078 146.203 468.445C145.816 467.801 145.307 467.297 144.674 466.934C144.041 466.559 143.262 466.371 142.336 466.371C141.516 466.371 140.801 466.512 140.191 466.793C139.594 467.074 139.084 467.455 138.662 467.936C138.24 468.404 137.895 468.943 137.625 469.553C137.367 470.15 137.174 470.771 137.045 471.416V475.652C137.232 476.473 137.537 477.264 137.959 478.025C138.393 478.775 138.967 479.391 139.682 479.871C140.408 480.352 141.305 480.592 142.371 480.592C143.25 480.592 144 480.416 144.621 480.064C145.254 479.701 145.764 479.203 146.15 478.57C146.549 477.938 146.842 477.205 147.029 476.373C147.217 475.541 147.311 474.65 147.311 473.701ZM158.227 456V483H154.957V456H158.227ZM162.586 473.701V473.297C162.586 471.926 162.785 470.654 163.184 469.482C163.582 468.299 164.156 467.273 164.906 466.406C165.656 465.527 166.564 464.848 167.631 464.367C168.697 463.875 169.893 463.629 171.217 463.629C172.553 463.629 173.754 463.875 174.82 464.367C175.898 464.848 176.812 465.527 177.562 466.406C178.324 467.273 178.904 468.299 179.303 469.482C179.701 470.654 179.9 471.926 179.9 473.297V473.701C179.9 475.072 179.701 476.344 179.303 477.516C178.904 478.688 178.324 479.713 177.562 480.592C176.812 481.459 175.904 482.139 174.838 482.631C173.783 483.111 172.588 483.352 171.252 483.352C169.916 483.352 168.715 483.111 167.648 482.631C166.582 482.139 165.668 481.459 164.906 480.592C164.156 479.713 163.582 478.688 163.184 477.516C162.785 476.344 162.586 475.072 162.586 473.701ZM165.838 473.297V473.701C165.838 474.65 165.949 475.547 166.172 476.391C166.395 477.223 166.729 477.961 167.174 478.605C167.631 479.25 168.199 479.76 168.879 480.135C169.559 480.498 170.35 480.68 171.252 480.68C172.143 480.68 172.922 480.498 173.59 480.135C174.27 479.76 174.832 479.25 175.277 478.605C175.723 477.961 176.057 477.223 176.279 476.391C176.514 475.547 176.631 474.65 176.631 473.701V473.297C176.631 472.359 176.514 471.475 176.279 470.643C176.057 469.799 175.717 469.055 175.26 468.41C174.814 467.754 174.252 467.238 173.572 466.863C172.904 466.488 172.119 466.301 171.217 466.301C170.326 466.301 169.541 466.488 168.861 466.863C168.193 467.238 167.631 467.754 167.174 468.41C166.729 469.055 166.395 469.799 166.172 470.643C165.949 471.475 165.838 472.359 165.838 473.297ZM191.59 480.68C192.363 480.68 193.078 480.521 193.734 480.205C194.391 479.889 194.93 479.455 195.352 478.904C195.773 478.342 196.014 477.703 196.072 476.988H199.166C199.107 478.113 198.727 479.162 198.023 480.135C197.332 481.096 196.424 481.875 195.299 482.473C194.174 483.059 192.938 483.352 191.59 483.352C190.16 483.352 188.912 483.1 187.846 482.596C186.791 482.092 185.912 481.4 185.209 480.521C184.518 479.643 183.996 478.635 183.645 477.498C183.305 476.35 183.135 475.137 183.135 473.859V473.121C183.135 471.844 183.305 470.637 183.645 469.5C183.996 468.352 184.518 467.338 185.209 466.459C185.912 465.58 186.791 464.889 187.846 464.385C188.912 463.881 190.16 463.629 191.59 463.629C193.078 463.629 194.379 463.934 195.492 464.543C196.605 465.141 197.479 465.961 198.111 467.004C198.756 468.035 199.107 469.207 199.166 470.52H196.072C196.014 469.734 195.791 469.025 195.404 468.393C195.029 467.76 194.514 467.256 193.857 466.881C193.213 466.494 192.457 466.301 191.59 466.301C190.594 466.301 189.756 466.5 189.076 466.898C188.408 467.285 187.875 467.812 187.477 468.48C187.09 469.137 186.809 469.869 186.633 470.678C186.469 471.475 186.387 472.289 186.387 473.121V473.859C186.387 474.691 186.469 475.512 186.633 476.32C186.797 477.129 187.072 477.861 187.459 478.518C187.857 479.174 188.391 479.701 189.059 480.1C189.738 480.486 190.582 480.68 191.59 480.68ZM206.092 456V483H202.822V456H206.092ZM217.711 463.98L209.414 472.857L204.773 477.674L204.51 474.211L207.832 470.238L213.738 463.98H217.711ZM214.74 483L207.955 473.93L209.643 471.029L218.572 483H214.74ZM241.986 479.309V456H245.256V483H242.268L241.986 479.309ZM229.189 473.701V473.332C229.189 471.879 229.365 470.561 229.717 469.377C230.08 468.182 230.59 467.156 231.246 466.301C231.914 465.445 232.705 464.789 233.619 464.332C234.545 463.863 235.576 463.629 236.713 463.629C237.908 463.629 238.951 463.84 239.842 464.262C240.744 464.672 241.506 465.275 242.127 466.072C242.76 466.857 243.258 467.807 243.621 468.92C243.984 470.033 244.236 471.293 244.377 472.699V474.316C244.248 475.711 243.996 476.965 243.621 478.078C243.258 479.191 242.76 480.141 242.127 480.926C241.506 481.711 240.744 482.314 239.842 482.736C238.939 483.146 237.885 483.352 236.678 483.352C235.564 483.352 234.545 483.111 233.619 482.631C232.705 482.15 231.914 481.477 231.246 480.609C230.59 479.742 230.08 478.723 229.717 477.551C229.365 476.367 229.189 475.084 229.189 473.701ZM232.459 473.332V473.701C232.459 474.65 232.553 475.541 232.74 476.373C232.939 477.205 233.244 477.938 233.654 478.57C234.064 479.203 234.586 479.701 235.219 480.064C235.852 480.416 236.607 480.592 237.486 480.592C238.564 480.592 239.449 480.363 240.141 479.906C240.844 479.449 241.406 478.846 241.828 478.096C242.25 477.346 242.578 476.531 242.812 475.652V471.416C242.672 470.771 242.467 470.15 242.197 469.553C241.939 468.943 241.6 468.404 241.178 467.936C240.768 467.455 240.258 467.074 239.648 466.793C239.051 466.512 238.342 466.371 237.521 466.371C236.631 466.371 235.863 466.559 235.219 466.934C234.586 467.297 234.064 467.801 233.654 468.445C233.244 469.078 232.939 469.816 232.74 470.66C232.553 471.492 232.459 472.383 232.459 473.332ZM253.852 463.98V483H250.582V463.98H253.852ZM250.336 458.936C250.336 458.408 250.494 457.963 250.811 457.6C251.139 457.236 251.619 457.055 252.252 457.055C252.873 457.055 253.348 457.236 253.676 457.6C254.016 457.963 254.186 458.408 254.186 458.936C254.186 459.439 254.016 459.873 253.676 460.236C253.348 460.588 252.873 460.764 252.252 460.764C251.619 460.764 251.139 460.588 250.811 460.236C250.494 459.873 250.336 459.439 250.336 458.936ZM262.324 466.969V483H259.072V463.98H262.236L262.324 466.969ZM268.266 463.875L268.248 466.898C267.979 466.84 267.721 466.805 267.475 466.793C267.24 466.77 266.971 466.758 266.666 466.758C265.916 466.758 265.254 466.875 264.68 467.109C264.105 467.344 263.619 467.672 263.221 468.094C262.822 468.516 262.506 469.02 262.271 469.605C262.049 470.18 261.902 470.812 261.832 471.504L260.918 472.031C260.918 470.883 261.029 469.805 261.252 468.797C261.486 467.789 261.844 466.898 262.324 466.125C262.805 465.34 263.414 464.73 264.152 464.297C264.902 463.852 265.793 463.629 266.824 463.629C267.059 463.629 267.328 463.658 267.633 463.717C267.938 463.764 268.148 463.816 268.266 463.875ZM278.812 483.352C277.488 483.352 276.287 483.129 275.209 482.684C274.143 482.227 273.223 481.588 272.449 480.768C271.688 479.947 271.102 478.975 270.691 477.85C270.281 476.725 270.076 475.494 270.076 474.158V473.42C270.076 471.873 270.305 470.496 270.762 469.289C271.219 468.07 271.84 467.039 272.625 466.195C273.41 465.352 274.301 464.713 275.297 464.279C276.293 463.846 277.324 463.629 278.391 463.629C279.75 463.629 280.922 463.863 281.906 464.332C282.902 464.801 283.717 465.457 284.35 466.301C284.982 467.133 285.451 468.117 285.756 469.254C286.061 470.379 286.213 471.609 286.213 472.945V474.404H272.01V471.75H282.961V471.504C282.914 470.66 282.738 469.84 282.434 469.043C282.141 468.246 281.672 467.59 281.027 467.074C280.383 466.559 279.504 466.301 278.391 466.301C277.652 466.301 276.973 466.459 276.352 466.775C275.73 467.08 275.197 467.537 274.752 468.146C274.307 468.756 273.961 469.5 273.715 470.379C273.469 471.258 273.346 472.271 273.346 473.42V474.158C273.346 475.061 273.469 475.91 273.715 476.707C273.973 477.492 274.342 478.184 274.822 478.781C275.314 479.379 275.906 479.848 276.598 480.188C277.301 480.527 278.098 480.697 278.988 480.697C280.137 480.697 281.109 480.463 281.906 479.994C282.703 479.525 283.4 478.898 283.998 478.113L285.967 479.678C285.557 480.299 285.035 480.891 284.402 481.453C283.77 482.016 282.99 482.473 282.064 482.824C281.15 483.176 280.066 483.352 278.812 483.352ZM297.621 480.68C298.395 480.68 299.109 480.521 299.766 480.205C300.422 479.889 300.961 479.455 301.383 478.904C301.805 478.342 302.045 477.703 302.104 476.988H305.197C305.139 478.113 304.758 479.162 304.055 480.135C303.363 481.096 302.455 481.875 301.33 482.473C300.205 483.059 298.969 483.352 297.621 483.352C296.191 483.352 294.943 483.1 293.877 482.596C292.822 482.092 291.943 481.4 291.24 480.521C290.549 479.643 290.027 478.635 289.676 477.498C289.336 476.35 289.166 475.137 289.166 473.859V473.121C289.166 471.844 289.336 470.637 289.676 469.5C290.027 468.352 290.549 467.338 291.24 466.459C291.943 465.58 292.822 464.889 293.877 464.385C294.943 463.881 296.191 463.629 297.621 463.629C299.109 463.629 300.41 463.934 301.523 464.543C302.637 465.141 303.51 465.961 304.143 467.004C304.787 468.035 305.139 469.207 305.197 470.52H302.104C302.045 469.734 301.822 469.025 301.436 468.393C301.061 467.76 300.545 467.256 299.889 466.881C299.244 466.494 298.488 466.301 297.621 466.301C296.625 466.301 295.787 466.5 295.107 466.898C294.439 467.285 293.906 467.812 293.508 468.48C293.121 469.137 292.84 469.869 292.664 470.678C292.5 471.475 292.418 472.289 292.418 473.121V473.859C292.418 474.691 292.5 475.512 292.664 476.32C292.828 477.129 293.104 477.861 293.49 478.518C293.889 479.174 294.422 479.701 295.09 480.1C295.77 480.486 296.613 480.68 297.621 480.68ZM316.816 463.98V466.477H306.533V463.98H316.816ZM310.014 459.357H313.266V478.289C313.266 478.934 313.365 479.42 313.564 479.748C313.764 480.076 314.021 480.293 314.338 480.398C314.654 480.504 314.994 480.557 315.357 480.557C315.627 480.557 315.908 480.533 316.201 480.486C316.506 480.428 316.734 480.381 316.887 480.346L316.904 483C316.646 483.082 316.307 483.158 315.885 483.229C315.475 483.311 314.977 483.352 314.391 483.352C313.594 483.352 312.861 483.193 312.193 482.877C311.525 482.561 310.992 482.033 310.594 481.295C310.207 480.545 310.014 479.537 310.014 478.271V459.357ZM324.164 463.98V483H320.895V463.98H324.164ZM320.648 458.936C320.648 458.408 320.807 457.963 321.123 457.6C321.451 457.236 321.932 457.055 322.564 457.055C323.186 457.055 323.66 457.236 323.988 457.6C324.328 457.963 324.498 458.408 324.498 458.936C324.498 459.439 324.328 459.873 323.988 460.236C323.66 460.588 323.186 460.764 322.564 460.764C321.932 460.764 321.451 460.588 321.123 460.236C320.807 459.873 320.648 459.439 320.648 458.936ZM328.523 473.701V473.297C328.523 471.926 328.723 470.654 329.121 469.482C329.52 468.299 330.094 467.273 330.844 466.406C331.594 465.527 332.502 464.848 333.568 464.367C334.635 463.875 335.83 463.629 337.154 463.629C338.49 463.629 339.691 463.875 340.758 464.367C341.836 464.848 342.75 465.527 343.5 466.406C344.262 467.273 344.842 468.299 345.24 469.482C345.639 470.654 345.838 471.926 345.838 473.297V473.701C345.838 475.072 345.639 476.344 345.24 477.516C344.842 478.688 344.262 479.713 343.5 480.592C342.75 481.459 341.842 482.139 340.775 482.631C339.721 483.111 338.525 483.352 337.189 483.352C335.854 483.352 334.652 483.111 333.586 482.631C332.52 482.139 331.605 481.459 330.844 480.592C330.094 479.713 329.52 478.688 329.121 477.516C328.723 476.344 328.523 475.072 328.523 473.701ZM331.775 473.297V473.701C331.775 474.65 331.887 475.547 332.109 476.391C332.332 477.223 332.666 477.961 333.111 478.605C333.568 479.25 334.137 479.76 334.816 480.135C335.496 480.498 336.287 480.68 337.189 480.68C338.08 480.68 338.859 480.498 339.527 480.135C340.207 479.76 340.77 479.25 341.215 478.605C341.66 477.961 341.994 477.223 342.217 476.391C342.451 475.547 342.568 474.65 342.568 473.701V473.297C342.568 472.359 342.451 471.475 342.217 470.643C341.994 469.799 341.654 469.055 341.197 468.41C340.752 467.754 340.189 467.238 339.51 466.863C338.842 466.488 338.057 466.301 337.154 466.301C336.264 466.301 335.479 466.488 334.799 466.863C334.131 467.238 333.568 467.754 333.111 468.41C332.666 469.055 332.332 469.799 332.109 470.643C331.887 471.475 331.775 472.359 331.775 473.297ZM353.168 468.041V483H349.916V463.98H352.992L353.168 468.041ZM352.395 472.77L351.041 472.717C351.053 471.416 351.246 470.215 351.621 469.113C351.996 468 352.523 467.033 353.203 466.213C353.883 465.393 354.691 464.76 355.629 464.314C356.578 463.857 357.627 463.629 358.775 463.629C359.713 463.629 360.557 463.758 361.307 464.016C362.057 464.262 362.695 464.66 363.223 465.211C363.762 465.762 364.172 466.477 364.453 467.355C364.734 468.223 364.875 469.283 364.875 470.537V483H361.605V470.502C361.605 469.506 361.459 468.709 361.166 468.111C360.873 467.502 360.445 467.062 359.883 466.793C359.32 466.512 358.629 466.371 357.809 466.371C357 466.371 356.262 466.541 355.594 466.881C354.938 467.221 354.369 467.689 353.889 468.287C353.42 468.885 353.051 469.57 352.781 470.344C352.523 471.105 352.395 471.914 352.395 472.77Z" fill="#058105"/>
<path d="M219.031 355.75V349.75C221.906 350.062 224.479 350.885 226.75 352.219C229.021 353.552 230.823 355.438 232.156 357.875C233.469 360.312 234.125 363.354 234.125 367C234.125 369.667 233.625 372.094 232.625 374.281C231.625 376.448 230.208 378.312 228.375 379.875C226.521 381.438 224.302 382.646 221.719 383.5C219.115 384.333 216.219 384.75 213.031 384.75H208.5C205.312 384.75 202.427 384.333 199.844 383.5C197.24 382.646 195.01 381.427 193.156 379.844C191.302 378.24 189.875 376.312 188.875 374.062C187.875 371.812 187.375 369.281 187.375 366.469C187.375 363.031 188.021 360.125 189.312 357.75C190.604 355.375 192.396 353.531 194.688 352.219C196.958 350.885 199.594 350.062 202.594 349.75V355.75C200.469 356.042 198.646 356.583 197.125 357.375C195.583 358.167 194.396 359.292 193.562 360.75C192.729 362.208 192.312 364.115 192.312 366.469C192.312 368.49 192.698 370.271 193.469 371.812C194.24 373.333 195.333 374.615 196.75 375.656C198.167 376.677 199.865 377.448 201.844 377.969C203.823 378.49 206.021 378.75 208.438 378.75H213.031C215.26 378.75 217.354 378.521 219.312 378.062C221.271 377.583 222.99 376.865 224.469 375.906C225.948 374.948 227.115 373.729 227.969 372.25C228.802 370.771 229.219 369.021 229.219 367C229.219 364.438 228.812 362.396 228 360.875C227.188 359.354 226.021 358.208 224.5 357.438C222.979 356.646 221.156 356.083 219.031 355.75ZM222 317.281C220.938 317.281 220 317.448 219.188 317.781C218.354 318.094 217.604 318.656 216.938 319.469C216.271 320.26 215.635 321.365 215.031 322.781C214.427 324.177 213.812 325.948 213.188 328.094C212.521 330.344 211.781 332.375 210.969 334.188C210.135 336 209.188 337.552 208.125 338.844C207.062 340.135 205.844 341.125 204.469 341.812C203.094 342.5 201.521 342.844 199.75 342.844C197.979 342.844 196.344 342.479 194.844 341.75C193.344 341.021 192.042 339.979 190.938 338.625C189.812 337.25 188.938 335.615 188.312 333.719C187.688 331.823 187.375 329.708 187.375 327.375C187.375 323.958 188.031 321.062 189.344 318.688C190.635 316.292 192.333 314.469 194.438 313.219C196.521 311.969 198.75 311.344 201.125 311.344V317.344C199.417 317.344 197.906 317.708 196.594 318.438C195.26 319.167 194.219 320.271 193.469 321.75C192.698 323.229 192.312 325.104 192.312 327.375C192.312 329.521 192.635 331.292 193.281 332.688C193.927 334.083 194.802 335.125 195.906 335.812C197.01 336.479 198.271 336.812 199.688 336.812C200.646 336.812 201.521 336.615 202.312 336.219C203.083 335.802 203.802 335.167 204.469 334.312C205.135 333.438 205.75 332.333 206.312 331C206.875 329.646 207.417 328.031 207.938 326.156C208.667 323.573 209.479 321.344 210.375 319.469C211.271 317.594 212.281 316.052 213.406 314.844C214.51 313.615 215.771 312.708 217.188 312.125C218.583 311.521 220.167 311.219 221.938 311.219C223.792 311.219 225.469 311.594 226.969 312.344C228.469 313.094 229.75 314.167 230.812 315.562C231.875 316.958 232.698 318.635 233.281 320.594C233.844 322.531 234.125 324.698 234.125 327.094C234.125 329.198 233.833 331.271 233.25 333.312C232.667 335.333 231.792 337.177 230.625 338.844C229.458 340.49 228.021 341.812 226.312 342.812C224.583 343.792 222.583 344.281 220.312 344.281V338.281C221.875 338.281 223.219 337.979 224.344 337.375C225.448 336.771 226.365 335.948 227.094 334.906C227.823 333.844 228.365 332.646 228.719 331.312C229.052 329.958 229.219 328.552 229.219 327.094C229.219 324.99 228.927 323.208 228.344 321.75C227.76 320.292 226.927 319.188 225.844 318.438C224.76 317.667 223.479 317.281 222 317.281ZM222 279.281C220.938 279.281 220 279.448 219.188 279.781C218.354 280.094 217.604 280.656 216.938 281.469C216.271 282.26 215.635 283.365 215.031 284.781C214.427 286.177 213.812 287.948 213.188 290.094C212.521 292.344 211.781 294.375 210.969 296.188C210.135 298 209.188 299.552 208.125 300.844C207.062 302.135 205.844 303.125 204.469 303.812C203.094 304.5 201.521 304.844 199.75 304.844C197.979 304.844 196.344 304.479 194.844 303.75C193.344 303.021 192.042 301.979 190.938 300.625C189.812 299.25 188.938 297.615 188.312 295.719C187.688 293.823 187.375 291.708 187.375 289.375C187.375 285.958 188.031 283.062 189.344 280.688C190.635 278.292 192.333 276.469 194.438 275.219C196.521 273.969 198.75 273.344 201.125 273.344V279.344C199.417 279.344 197.906 279.708 196.594 280.438C195.26 281.167 194.219 282.271 193.469 283.75C192.698 285.229 192.312 287.104 192.312 289.375C192.312 291.521 192.635 293.292 193.281 294.688C193.927 296.083 194.802 297.125 195.906 297.812C197.01 298.479 198.271 298.812 199.688 298.812C200.646 298.812 201.521 298.615 202.312 298.219C203.083 297.802 203.802 297.167 204.469 296.312C205.135 295.438 205.75 294.333 206.312 293C206.875 291.646 207.417 290.031 207.938 288.156C208.667 285.573 209.479 283.344 210.375 281.469C211.271 279.594 212.281 278.052 213.406 276.844C214.51 275.615 215.771 274.708 217.188 274.125C218.583 273.521 220.167 273.219 221.938 273.219C223.792 273.219 225.469 273.594 226.969 274.344C228.469 275.094 229.75 276.167 230.812 277.562C231.875 278.958 232.698 280.635 233.281 282.594C233.844 284.531 234.125 286.698 234.125 289.094C234.125 291.198 233.833 293.271 233.25 295.312C232.667 297.333 231.792 299.177 230.625 300.844C229.458 302.49 228.021 303.812 226.312 304.812C224.583 305.792 222.583 306.281 220.312 306.281V300.281C221.875 300.281 223.219 299.979 224.344 299.375C225.448 298.771 226.365 297.948 227.094 296.906C227.823 295.844 228.365 294.646 228.719 293.312C229.052 291.958 229.219 290.552 229.219 289.094C229.219 286.99 228.927 285.208 228.344 283.75C227.76 282.292 226.927 281.188 225.844 280.438C224.76 279.667 223.479 279.281 222 279.281ZM199.688 244.25H233.5V250.062H199.688V244.25ZM190.719 250.5C189.781 250.5 188.99 250.219 188.344 249.656C187.698 249.073 187.375 248.219 187.375 247.094C187.375 245.99 187.698 245.146 188.344 244.562C188.99 243.958 189.781 243.656 190.719 243.656C191.615 243.656 192.385 243.958 193.031 244.562C193.656 245.146 193.969 245.99 193.969 247.094C193.969 248.219 193.656 249.073 193.031 249.656C192.385 250.219 191.615 250.5 190.719 250.5ZM224.531 215.281C223.698 215.281 222.927 215.469 222.219 215.844C221.49 216.198 220.833 216.938 220.25 218.062C219.646 219.167 219.125 220.833 218.688 223.062C218.292 224.938 217.823 226.635 217.281 228.156C216.74 229.656 216.083 230.938 215.312 232C214.542 233.042 213.635 233.844 212.594 234.406C211.552 234.969 210.333 235.25 208.938 235.25C207.604 235.25 206.344 234.958 205.156 234.375C203.969 233.771 202.917 232.927 202 231.844C201.083 230.74 200.365 229.417 199.844 227.875C199.323 226.333 199.062 224.615 199.062 222.719C199.062 220.01 199.542 217.698 200.5 215.781C201.458 213.865 202.74 212.396 204.344 211.375C205.927 210.354 207.688 209.844 209.625 209.844V215.625C208.688 215.625 207.781 215.906 206.906 216.469C206.01 217.01 205.271 217.812 204.688 218.875C204.104 219.917 203.812 221.198 203.812 222.719C203.812 224.323 204.062 225.625 204.562 226.625C205.042 227.604 205.656 228.323 206.406 228.781C207.156 229.219 207.948 229.438 208.781 229.438C209.406 229.438 209.969 229.333 210.469 229.125C210.948 228.896 211.396 228.5 211.812 227.938C212.208 227.375 212.583 226.583 212.938 225.562C213.292 224.542 213.646 223.24 214 221.656C214.625 218.885 215.375 216.604 216.25 214.812C217.125 213.021 218.198 211.688 219.469 210.812C220.74 209.938 222.281 209.5 224.094 209.5C225.573 209.5 226.927 209.812 228.156 210.438C229.385 211.042 230.448 211.927 231.344 213.094C232.219 214.24 232.906 215.615 233.406 217.219C233.885 218.802 234.125 220.583 234.125 222.562C234.125 225.542 233.594 228.062 232.531 230.125C231.469 232.188 230.094 233.75 228.406 234.812C226.719 235.875 224.938 236.406 223.062 236.406V230.594C224.646 230.51 225.906 230.052 226.844 229.219C227.76 228.385 228.417 227.365 228.812 226.156C229.188 224.948 229.375 223.75 229.375 222.562C229.375 220.979 229.167 219.656 228.75 218.594C228.333 217.51 227.76 216.688 227.031 216.125C226.302 215.562 225.469 215.281 224.531 215.281ZM302.719 364.156H285.312C283.979 364.156 282.823 364.427 281.844 364.969C280.844 365.49 280.073 366.281 279.531 367.344C278.99 368.406 278.719 369.719 278.719 371.281C278.719 372.74 278.969 374.021 279.469 375.125C279.969 376.208 280.625 377.062 281.438 377.688C282.25 378.292 283.125 378.594 284.062 378.594V384.375C282.854 384.375 281.656 384.062 280.469 383.438C279.281 382.812 278.208 381.917 277.25 380.75C276.271 379.562 275.5 378.146 274.938 376.5C274.354 374.833 274.062 372.979 274.062 370.938C274.062 368.479 274.479 366.312 275.312 364.438C276.146 362.542 277.406 361.062 279.094 360C280.76 358.917 282.854 358.375 285.375 358.375H301.125C302.25 358.375 303.448 358.281 304.719 358.094C305.99 357.885 307.083 357.583 308 357.188H308.5V363.219C307.833 363.51 306.948 363.74 305.844 363.906C304.719 364.073 303.677 364.156 302.719 364.156ZM288 363.156L292.062 363.094V368.938C292.062 370.583 292.198 372.052 292.469 373.344C292.719 374.635 293.104 375.719 293.625 376.594C294.146 377.469 294.802 378.135 295.594 378.594C296.365 379.052 297.271 379.281 298.312 379.281C299.375 379.281 300.344 379.042 301.219 378.562C302.094 378.083 302.792 377.365 303.312 376.406C303.812 375.427 304.062 374.229 304.062 372.812C304.062 371.042 303.688 369.479 302.938 368.125C302.188 366.771 301.271 365.698 300.188 364.906C299.104 364.094 298.052 363.656 297.031 363.594L299.812 361.125C300.688 361.271 301.656 361.667 302.719 362.312C303.781 362.958 304.802 363.823 305.781 364.906C306.74 365.969 307.542 367.24 308.188 368.719C308.812 370.177 309.125 371.823 309.125 373.656C309.125 375.948 308.677 377.958 307.781 379.688C306.885 381.396 305.688 382.729 304.188 383.688C302.667 384.625 300.969 385.094 299.094 385.094C297.281 385.094 295.688 384.74 294.312 384.031C292.917 383.323 291.76 382.302 290.844 380.969C289.906 379.635 289.198 378.031 288.719 376.156C288.24 374.281 288 372.188 288 369.875V363.156ZM302.5 340.719L274.688 332.031V328.219L280.219 328.969L308.5 337.812V341.531L302.5 340.719ZM274.688 346.562L302.812 339.156L308.5 338.625V342.531L274.688 352.344V346.562ZM302.594 319.906L274.688 312.844V307.094L308.5 316.906V320.781L302.594 319.906ZM274.688 327.375L302.031 318.875L308.5 317.906V321.594L280.156 330.688L274.688 331.438V327.375ZM309.125 287.125C309.125 289.479 308.729 291.615 307.938 293.531C307.125 295.427 305.99 297.062 304.531 298.438C303.073 299.792 301.344 300.833 299.344 301.562C297.344 302.292 295.156 302.656 292.781 302.656H291.469C288.719 302.656 286.271 302.25 284.125 301.438C281.958 300.625 280.125 299.521 278.625 298.125C277.125 296.729 275.99 295.146 275.219 293.375C274.448 291.604 274.062 289.771 274.062 287.875C274.062 285.458 274.479 283.375 275.312 281.625C276.146 279.854 277.312 278.406 278.812 277.281C280.292 276.156 282.042 275.323 284.062 274.781C286.062 274.24 288.25 273.969 290.625 273.969H293.219V299.219H288.5V279.75H288.062C286.562 279.833 285.104 280.146 283.688 280.688C282.271 281.208 281.104 282.042 280.188 283.188C279.271 284.333 278.812 285.896 278.812 287.875C278.812 289.188 279.094 290.396 279.656 291.5C280.198 292.604 281.01 293.552 282.094 294.344C283.177 295.135 284.5 295.75 286.062 296.188C287.625 296.625 289.427 296.844 291.469 296.844H292.781C294.385 296.844 295.896 296.625 297.312 296.188C298.708 295.729 299.938 295.073 301 294.219C302.062 293.344 302.896 292.292 303.5 291.062C304.104 289.812 304.406 288.396 304.406 286.812C304.406 284.771 303.99 283.042 303.156 281.625C302.323 280.208 301.208 278.969 299.812 277.906L302.594 274.406C303.698 275.135 304.75 276.062 305.75 277.188C306.75 278.312 307.562 279.698 308.188 281.344C308.812 282.969 309.125 284.896 309.125 287.125ZM299.531 247.531C298.698 247.531 297.927 247.719 297.219 248.094C296.49 248.448 295.833 249.188 295.25 250.312C294.646 251.417 294.125 253.083 293.688 255.312C293.292 257.188 292.823 258.885 292.281 260.406C291.74 261.906 291.083 263.188 290.312 264.25C289.542 265.292 288.635 266.094 287.594 266.656C286.552 267.219 285.333 267.5 283.938 267.5C282.604 267.5 281.344 267.208 280.156 266.625C278.969 266.021 277.917 265.177 277 264.094C276.083 262.99 275.365 261.667 274.844 260.125C274.323 258.583 274.062 256.865 274.062 254.969C274.062 252.26 274.542 249.948 275.5 248.031C276.458 246.115 277.74 244.646 279.344 243.625C280.927 242.604 282.688 242.094 284.625 242.094V247.875C283.688 247.875 282.781 248.156 281.906 248.719C281.01 249.26 280.271 250.062 279.688 251.125C279.104 252.167 278.812 253.448 278.812 254.969C278.812 256.573 279.062 257.875 279.562 258.875C280.042 259.854 280.656 260.573 281.406 261.031C282.156 261.469 282.948 261.688 283.781 261.688C284.406 261.688 284.969 261.583 285.469 261.375C285.948 261.146 286.396 260.75 286.812 260.188C287.208 259.625 287.583 258.833 287.938 257.812C288.292 256.792 288.646 255.49 289 253.906C289.625 251.135 290.375 248.854 291.25 247.062C292.125 245.271 293.198 243.938 294.469 243.062C295.74 242.188 297.281 241.75 299.094 241.75C300.573 241.75 301.927 242.062 303.156 242.688C304.385 243.292 305.448 244.177 306.344 245.344C307.219 246.49 307.906 247.865 308.406 249.469C308.885 251.052 309.125 252.833 309.125 254.812C309.125 257.792 308.594 260.312 307.531 262.375C306.469 264.438 305.094 266 303.406 267.062C301.719 268.125 299.938 268.656 298.062 268.656V262.844C299.646 262.76 300.906 262.302 301.844 261.469C302.76 260.635 303.417 259.615 303.812 258.406C304.188 257.198 304.375 256 304.375 254.812C304.375 253.229 304.167 251.906 303.75 250.844C303.333 249.76 302.76 248.938 302.031 248.375C301.302 247.812 300.469 247.531 299.531 247.531ZM291.969 235.688H291.25C288.812 235.688 286.552 235.333 284.469 234.625C282.365 233.917 280.542 232.896 279 231.562C277.438 230.229 276.229 228.615 275.375 226.719C274.5 224.823 274.062 222.698 274.062 220.344C274.062 217.969 274.5 215.833 275.375 213.938C276.229 212.021 277.438 210.396 279 209.062C280.542 207.708 282.365 206.677 284.469 205.969C286.552 205.26 288.812 204.906 291.25 204.906H291.969C294.406 204.906 296.667 205.26 298.75 205.969C300.833 206.677 302.656 207.708 304.219 209.062C305.76 210.396 306.969 212.01 307.844 213.906C308.698 215.781 309.125 217.906 309.125 220.281C309.125 222.656 308.698 224.792 307.844 226.688C306.969 228.583 305.76 230.208 304.219 231.562C302.656 232.896 300.833 233.917 298.75 234.625C296.667 235.333 294.406 235.688 291.969 235.688ZM291.25 229.906H291.969C293.656 229.906 295.25 229.708 296.75 229.312C298.229 228.917 299.542 228.323 300.688 227.531C301.833 226.719 302.74 225.708 303.406 224.5C304.052 223.292 304.375 221.885 304.375 220.281C304.375 218.698 304.052 217.312 303.406 216.125C302.74 214.917 301.833 213.917 300.688 213.125C299.542 212.333 298.229 211.74 296.75 211.344C295.25 210.927 293.656 210.719 291.969 210.719H291.25C289.583 210.719 288.01 210.927 286.531 211.344C285.031 211.74 283.708 212.344 282.562 213.156C281.396 213.948 280.479 214.948 279.812 216.156C279.146 217.344 278.812 218.74 278.812 220.344C278.812 221.927 279.146 223.323 279.812 224.531C280.479 225.719 281.396 226.719 282.562 227.531C283.708 228.323 285.031 228.917 286.531 229.312C288.01 229.708 289.583 229.906 291.25 229.906ZM281.406 191.906H308.5V197.719H274.688V192.219L281.406 191.906ZM290.312 193.094L290.219 195.781C287.906 195.76 285.771 195.458 283.812 194.875C281.833 194.292 280.115 193.427 278.656 192.281C277.198 191.135 276.073 189.708 275.281 188C274.469 186.292 274.062 184.312 274.062 182.062C274.062 180.479 274.292 179.021 274.75 177.688C275.188 176.354 275.885 175.198 276.844 174.219C277.802 173.24 279.031 172.479 280.531 171.938C282.031 171.396 283.844 171.125 285.969 171.125H308.5V176.906H286.25C284.479 176.906 283.062 177.208 282 177.812C280.938 178.396 280.167 179.229 279.688 180.312C279.188 181.396 278.938 182.667 278.938 184.125C278.938 185.833 279.24 187.26 279.844 188.406C280.448 189.552 281.281 190.469 282.344 191.156C283.406 191.844 284.625 192.344 286 192.656C287.354 192.948 288.792 193.094 290.312 193.094ZM287.125 171.188L288.312 175.062C286.458 175.042 284.677 174.74 282.969 174.156C281.26 173.552 279.74 172.688 278.406 171.562C277.073 170.417 276.021 169.01 275.25 167.344C274.458 165.677 274.062 163.771 274.062 161.625C274.062 159.812 274.302 158.208 274.781 156.812C275.26 155.396 276 154.208 277 153.25C277.979 152.271 279.24 151.531 280.781 151.031C282.323 150.531 284.156 150.281 286.281 150.281H308.5V156.094H286.219C284.323 156.094 282.854 156.396 281.812 157C280.75 157.583 280.01 158.417 279.594 159.5C279.156 160.562 278.938 161.833 278.938 163.312C278.938 164.583 279.156 165.708 279.594 166.688C280.031 167.667 280.635 168.49 281.406 169.156C282.156 169.823 283.021 170.333 284 170.688C284.979 171.021 286.021 171.188 287.125 171.188ZM309.125 127.5C309.125 129.854 308.729 131.99 307.938 133.906C307.125 135.802 305.99 137.438 304.531 138.812C303.073 140.167 301.344 141.208 299.344 141.938C297.344 142.667 295.156 143.031 292.781 143.031H291.469C288.719 143.031 286.271 142.625 284.125 141.812C281.958 141 280.125 139.896 278.625 138.5C277.125 137.104 275.99 135.521 275.219 133.75C274.448 131.979 274.062 130.146 274.062 128.25C274.062 125.833 274.479 123.75 275.312 122C276.146 120.229 277.312 118.781 278.812 117.656C280.292 116.531 282.042 115.698 284.062 115.156C286.062 114.615 288.25 114.344 290.625 114.344H293.219V139.594H288.5V120.125H288.062C286.562 120.208 285.104 120.521 283.688 121.062C282.271 121.583 281.104 122.417 280.188 123.562C279.271 124.708 278.812 126.271 278.812 128.25C278.812 129.562 279.094 130.771 279.656 131.875C280.198 132.979 281.01 133.927 282.094 134.719C283.177 135.51 284.5 136.125 286.062 136.562C287.625 137 289.427 137.219 291.469 137.219H292.781C294.385 137.219 295.896 137 297.312 136.562C298.708 136.104 299.938 135.448 301 134.594C302.062 133.719 302.896 132.667 303.5 131.438C304.104 130.188 304.406 128.771 304.406 127.188C304.406 125.146 303.99 123.417 303.156 122C302.323 120.583 301.208 119.344 299.812 118.281L302.594 114.781C303.698 115.51 304.75 116.438 305.75 117.562C306.75 118.688 307.562 120.073 308.188 121.719C308.812 123.344 309.125 125.271 309.125 127.5Z" fill="white" fill-opacity="0.5"/>
<path d="M166.939 83.9393C166.354 84.5251 166.354 85.4749 166.939 86.0607L176.485 95.6066C177.071 96.1924 178.021 96.1924 178.607 95.6066C179.192 95.0208 179.192 94.0711 178.607 93.4853L170.121 85L178.607 76.5147C179.192 75.9289 179.192 74.9792 178.607 74.3934C178.021 73.8076 177.071 73.8076 176.485 74.3934L166.939 83.9393ZM368 83.5L168 83.5V86.5L368 86.5V83.5Z" fill="#FC8C25"/>
<path d="M198.34 63V78H196.523V63H198.34ZM203.203 67.4336V78H201.387V67.4336H203.203ZM201.25 64.6309C201.25 64.3379 201.338 64.0905 201.514 63.8887C201.696 63.6868 201.963 63.5859 202.314 63.5859C202.66 63.5859 202.923 63.6868 203.105 63.8887C203.294 64.0905 203.389 64.3379 203.389 64.6309C203.389 64.9108 203.294 65.1517 203.105 65.3535C202.923 65.5488 202.66 65.6465 202.314 65.6465C201.963 65.6465 201.696 65.5488 201.514 65.3535C201.338 65.1517 201.25 64.9108 201.25 64.6309ZM207.91 69.6895V78H206.104V67.4336H207.812L207.91 69.6895ZM207.48 72.3164L206.729 72.2871C206.735 71.5645 206.842 70.8971 207.051 70.2852C207.259 69.6667 207.552 69.1296 207.93 68.6738C208.307 68.2181 208.757 67.8665 209.277 67.6191C209.805 67.3652 210.387 67.2383 211.025 67.2383C211.546 67.2383 212.015 67.3099 212.432 67.4531C212.848 67.5898 213.203 67.8112 213.496 68.1172C213.796 68.4232 214.023 68.8203 214.18 69.3086C214.336 69.7904 214.414 70.3796 214.414 71.0762V78H212.598V71.0566C212.598 70.5033 212.516 70.0605 212.354 69.7285C212.191 69.39 211.953 69.1458 211.641 68.9961C211.328 68.8398 210.944 68.7617 210.488 68.7617C210.039 68.7617 209.629 68.8561 209.258 69.0449C208.893 69.2337 208.577 69.4941 208.311 69.8262C208.05 70.1582 207.845 70.5391 207.695 70.9688C207.552 71.3919 207.48 71.8411 207.48 72.3164ZM221.543 78.1953C220.807 78.1953 220.14 78.0716 219.541 77.8242C218.949 77.5703 218.438 77.2155 218.008 76.7598C217.585 76.304 217.259 75.7637 217.031 75.1387C216.803 74.5137 216.689 73.8301 216.689 73.0879V72.6777C216.689 71.8184 216.816 71.0534 217.07 70.3828C217.324 69.7057 217.669 69.1328 218.105 68.6641C218.542 68.1953 219.036 67.8405 219.59 67.5996C220.143 67.3587 220.716 67.2383 221.309 67.2383C222.064 67.2383 222.715 67.3685 223.262 67.6289C223.815 67.8893 224.268 68.2539 224.619 68.7227C224.971 69.1849 225.231 69.7318 225.4 70.3633C225.57 70.9883 225.654 71.6719 225.654 72.4141V73.2246H217.764V71.75H223.848V71.6133C223.822 71.1445 223.724 70.6888 223.555 70.2461C223.392 69.8034 223.132 69.4388 222.773 69.1523C222.415 68.8659 221.927 68.7227 221.309 68.7227C220.898 68.7227 220.521 68.8105 220.176 68.9863C219.831 69.1556 219.535 69.4095 219.287 69.748C219.04 70.0866 218.848 70.5 218.711 70.9883C218.574 71.4766 218.506 72.0397 218.506 72.6777V73.0879C218.506 73.5892 218.574 74.0612 218.711 74.5039C218.854 74.9401 219.059 75.3242 219.326 75.6562C219.6 75.9883 219.928 76.2487 220.312 76.4375C220.703 76.6263 221.146 76.7207 221.641 76.7207C222.279 76.7207 222.819 76.5905 223.262 76.3301C223.704 76.0697 224.092 75.7214 224.424 75.2852L225.518 76.1543C225.29 76.4993 225 76.8281 224.648 77.1406C224.297 77.4531 223.864 77.707 223.35 77.9023C222.842 78.0977 222.24 78.1953 221.543 78.1953ZM232.246 72.834V72.6094C232.246 71.8477 232.357 71.1413 232.578 70.4902C232.799 69.8327 233.118 69.263 233.535 68.7812C233.952 68.293 234.456 67.9154 235.049 67.6484C235.641 67.375 236.305 67.2383 237.041 67.2383C237.783 67.2383 238.451 67.375 239.043 67.6484C239.642 67.9154 240.15 68.293 240.566 68.7812C240.99 69.263 241.312 69.8327 241.533 70.4902C241.755 71.1413 241.865 71.8477 241.865 72.6094V72.834C241.865 73.5957 241.755 74.3021 241.533 74.9531C241.312 75.6042 240.99 76.1738 240.566 76.6621C240.15 77.1439 239.645 77.5215 239.053 77.7949C238.467 78.0618 237.803 78.1953 237.061 78.1953C236.318 78.1953 235.651 78.0618 235.059 77.7949C234.466 77.5215 233.958 77.1439 233.535 76.6621C233.118 76.1738 232.799 75.6042 232.578 74.9531C232.357 74.3021 232.246 73.5957 232.246 72.834ZM234.053 72.6094V72.834C234.053 73.3613 234.115 73.8594 234.238 74.3281C234.362 74.7904 234.548 75.2005 234.795 75.5586C235.049 75.9167 235.365 76.1999 235.742 76.4082C236.12 76.61 236.559 76.7109 237.061 76.7109C237.555 76.7109 237.988 76.61 238.359 76.4082C238.737 76.1999 239.049 75.9167 239.297 75.5586C239.544 75.2005 239.73 74.7904 239.854 74.3281C239.984 73.8594 240.049 73.3613 240.049 72.834V72.6094C240.049 72.0885 239.984 71.597 239.854 71.1348C239.73 70.666 239.541 70.2526 239.287 69.8945C239.04 69.5299 238.727 69.2435 238.35 69.0352C237.979 68.8268 237.542 68.7227 237.041 68.7227C236.546 68.7227 236.11 68.8268 235.732 69.0352C235.361 69.2435 235.049 69.5299 234.795 69.8945C234.548 70.2526 234.362 70.666 234.238 71.1348C234.115 71.597 234.053 72.0885 234.053 72.6094ZM245.938 69.0938V78H244.131V67.4336H245.889L245.938 69.0938ZM249.238 67.375L249.229 69.0547C249.079 69.0221 248.936 69.0026 248.799 68.9961C248.669 68.9831 248.519 68.9766 248.35 68.9766C247.933 68.9766 247.565 69.0417 247.246 69.1719C246.927 69.3021 246.657 69.4844 246.436 69.7188C246.214 69.9531 246.038 70.2331 245.908 70.5586C245.785 70.8776 245.703 71.2292 245.664 71.6133L245.156 71.9062C245.156 71.2682 245.218 70.6693 245.342 70.1094C245.472 69.5495 245.671 69.0547 245.938 68.625C246.204 68.1888 246.543 67.8503 246.953 67.6094C247.37 67.362 247.865 67.2383 248.438 67.2383C248.568 67.2383 248.717 67.2546 248.887 67.2871C249.056 67.3132 249.173 67.3424 249.238 67.375ZM252.871 67.4336V78H251.055V67.4336H252.871ZM250.918 64.6309C250.918 64.3379 251.006 64.0905 251.182 63.8887C251.364 63.6868 251.631 63.5859 251.982 63.5859C252.327 63.5859 252.591 63.6868 252.773 63.8887C252.962 64.0905 253.057 64.3379 253.057 64.6309C253.057 64.9108 252.962 65.1517 252.773 65.3535C252.591 65.5488 252.327 65.6465 251.982 65.6465C251.631 65.6465 251.364 65.5488 251.182 65.3535C251.006 65.1517 250.918 64.9108 250.918 64.6309ZM260.156 78.1953C259.421 78.1953 258.753 78.0716 258.154 77.8242C257.562 77.5703 257.051 77.2155 256.621 76.7598C256.198 76.304 255.872 75.7637 255.645 75.1387C255.417 74.5137 255.303 73.8301 255.303 73.0879V72.6777C255.303 71.8184 255.43 71.0534 255.684 70.3828C255.938 69.7057 256.283 69.1328 256.719 68.6641C257.155 68.1953 257.65 67.8405 258.203 67.5996C258.757 67.3587 259.329 67.2383 259.922 67.2383C260.677 67.2383 261.328 67.3685 261.875 67.6289C262.428 67.8893 262.881 68.2539 263.232 68.7227C263.584 69.1849 263.844 69.7318 264.014 70.3633C264.183 70.9883 264.268 71.6719 264.268 72.4141V73.2246H256.377V71.75H262.461V71.6133C262.435 71.1445 262.337 70.6888 262.168 70.2461C262.005 69.8034 261.745 69.4388 261.387 69.1523C261.029 68.8659 260.54 68.7227 259.922 68.7227C259.512 68.7227 259.134 68.8105 258.789 68.9863C258.444 69.1556 258.148 69.4095 257.9 69.748C257.653 70.0866 257.461 70.5 257.324 70.9883C257.188 71.4766 257.119 72.0397 257.119 72.6777V73.0879C257.119 73.5892 257.188 74.0612 257.324 74.5039C257.467 74.9401 257.673 75.3242 257.939 75.6562C258.213 75.9883 258.542 76.2487 258.926 76.4375C259.316 76.6263 259.759 76.7207 260.254 76.7207C260.892 76.7207 261.432 76.5905 261.875 76.3301C262.318 76.0697 262.705 75.7214 263.037 75.2852L264.131 76.1543C263.903 76.4993 263.613 76.8281 263.262 77.1406C262.91 77.4531 262.477 77.707 261.963 77.9023C261.455 78.0977 260.853 78.1953 260.156 78.1953ZM268.184 69.6895V78H266.377V67.4336H268.086L268.184 69.6895ZM267.754 72.3164L267.002 72.2871C267.008 71.5645 267.116 70.8971 267.324 70.2852C267.533 69.6667 267.826 69.1296 268.203 68.6738C268.581 68.2181 269.03 67.8665 269.551 67.6191C270.078 67.3652 270.661 67.2383 271.299 67.2383C271.82 67.2383 272.288 67.3099 272.705 67.4531C273.122 67.5898 273.477 67.8112 273.77 68.1172C274.069 68.4232 274.297 68.8203 274.453 69.3086C274.609 69.7904 274.688 70.3796 274.688 71.0762V78H272.871V71.0566C272.871 70.5033 272.79 70.0605 272.627 69.7285C272.464 69.39 272.227 69.1458 271.914 68.9961C271.602 68.8398 271.217 68.7617 270.762 68.7617C270.312 68.7617 269.902 68.8561 269.531 69.0449C269.167 69.2337 268.851 69.4941 268.584 69.8262C268.324 70.1582 268.118 70.5391 267.969 70.9688C267.826 71.3919 267.754 71.8411 267.754 72.3164ZM281.855 67.4336V68.8203H276.143V67.4336H281.855ZM278.076 64.8652H279.883V75.3828C279.883 75.7409 279.938 76.0111 280.049 76.1934C280.16 76.3757 280.303 76.4961 280.479 76.5547C280.654 76.6133 280.843 76.6426 281.045 76.6426C281.195 76.6426 281.351 76.6296 281.514 76.6035C281.683 76.571 281.81 76.5449 281.895 76.5254L281.904 78C281.761 78.0456 281.572 78.0879 281.338 78.127C281.11 78.1725 280.833 78.1953 280.508 78.1953C280.065 78.1953 279.658 78.1074 279.287 77.9316C278.916 77.7559 278.62 77.4629 278.398 77.0527C278.184 76.6361 278.076 76.0762 278.076 75.373V64.8652ZM290.205 76.1934V70.7539C290.205 70.3372 290.12 69.9759 289.951 69.6699C289.788 69.3574 289.541 69.1165 289.209 68.9473C288.877 68.778 288.467 68.6934 287.979 68.6934C287.523 68.6934 287.122 68.7715 286.777 68.9277C286.439 69.084 286.172 69.2891 285.977 69.543C285.788 69.7969 285.693 70.0703 285.693 70.3633H283.887C283.887 69.9857 283.984 69.6113 284.18 69.2402C284.375 68.8691 284.655 68.5339 285.02 68.2344C285.391 67.9284 285.833 67.6875 286.348 67.5117C286.868 67.3294 287.448 67.2383 288.086 67.2383C288.854 67.2383 289.531 67.3685 290.117 67.6289C290.71 67.8893 291.172 68.2832 291.504 68.8105C291.842 69.3314 292.012 69.9857 292.012 70.7734V75.6953C292.012 76.0469 292.041 76.4212 292.1 76.8184C292.165 77.2155 292.259 77.5573 292.383 77.8438V78H290.498C290.407 77.7917 290.335 77.515 290.283 77.1699C290.231 76.8184 290.205 76.4928 290.205 76.1934ZM290.518 71.5938L290.537 72.8633H288.711C288.197 72.8633 287.738 72.9056 287.334 72.9902C286.93 73.0684 286.592 73.1888 286.318 73.3516C286.045 73.5143 285.837 73.7194 285.693 73.9668C285.55 74.2077 285.479 74.4909 285.479 74.8164C285.479 75.1484 285.553 75.4512 285.703 75.7246C285.853 75.998 286.077 76.2161 286.377 76.3789C286.683 76.5352 287.057 76.6133 287.5 76.6133C288.053 76.6133 288.542 76.4961 288.965 76.2617C289.388 76.0273 289.723 75.7409 289.971 75.4023C290.225 75.0638 290.361 74.735 290.381 74.416L291.152 75.2852C291.107 75.5586 290.983 75.8613 290.781 76.1934C290.579 76.5254 290.309 76.8444 289.971 77.1504C289.639 77.4499 289.242 77.7005 288.779 77.9023C288.324 78.0977 287.809 78.1953 287.236 78.1953C286.52 78.1953 285.892 78.0553 285.352 77.7754C284.818 77.4954 284.401 77.1211 284.102 76.6523C283.809 76.1771 283.662 75.6465 283.662 75.0605C283.662 74.4941 283.773 73.9961 283.994 73.5664C284.215 73.1302 284.535 72.7689 284.951 72.4824C285.368 72.1895 285.869 71.9681 286.455 71.8184C287.041 71.6686 287.695 71.5938 288.418 71.5938H290.518ZM299.277 67.4336V68.8203H293.564V67.4336H299.277ZM295.498 64.8652H297.305V75.3828C297.305 75.7409 297.36 76.0111 297.471 76.1934C297.581 76.3757 297.725 76.4961 297.9 76.5547C298.076 76.6133 298.265 76.6426 298.467 76.6426C298.617 76.6426 298.773 76.6296 298.936 76.6035C299.105 76.571 299.232 76.5449 299.316 76.5254L299.326 78C299.183 78.0456 298.994 78.0879 298.76 78.127C298.532 78.1725 298.255 78.1953 297.93 78.1953C297.487 78.1953 297.08 78.1074 296.709 77.9316C296.338 77.7559 296.042 77.4629 295.82 77.0527C295.605 76.6361 295.498 76.0762 295.498 75.373V64.8652ZM303.359 67.4336V78H301.543V67.4336H303.359ZM301.406 64.6309C301.406 64.3379 301.494 64.0905 301.67 63.8887C301.852 63.6868 302.119 63.5859 302.471 63.5859C302.816 63.5859 303.079 63.6868 303.262 63.8887C303.451 64.0905 303.545 64.3379 303.545 64.6309C303.545 64.9108 303.451 65.1517 303.262 65.3535C303.079 65.5488 302.816 65.6465 302.471 65.6465C302.119 65.6465 301.852 65.5488 301.67 65.3535C301.494 65.1517 301.406 64.9108 301.406 64.6309ZM305.781 72.834V72.6094C305.781 71.8477 305.892 71.1413 306.113 70.4902C306.335 69.8327 306.654 69.263 307.07 68.7812C307.487 68.293 307.992 67.9154 308.584 67.6484C309.176 67.375 309.84 67.2383 310.576 67.2383C311.318 67.2383 311.986 67.375 312.578 67.6484C313.177 67.9154 313.685 68.293 314.102 68.7812C314.525 69.263 314.847 69.8327 315.068 70.4902C315.29 71.1413 315.4 71.8477 315.4 72.6094V72.834C315.4 73.5957 315.29 74.3021 315.068 74.9531C314.847 75.6042 314.525 76.1738 314.102 76.6621C313.685 77.1439 313.18 77.5215 312.588 77.7949C312.002 78.0618 311.338 78.1953 310.596 78.1953C309.854 78.1953 309.186 78.0618 308.594 77.7949C308.001 77.5215 307.493 77.1439 307.07 76.6621C306.654 76.1738 306.335 75.6042 306.113 74.9531C305.892 74.3021 305.781 73.5957 305.781 72.834ZM307.588 72.6094V72.834C307.588 73.3613 307.65 73.8594 307.773 74.3281C307.897 74.7904 308.083 75.2005 308.33 75.5586C308.584 75.9167 308.9 76.1999 309.277 76.4082C309.655 76.61 310.094 76.7109 310.596 76.7109C311.09 76.7109 311.523 76.61 311.895 76.4082C312.272 76.1999 312.585 75.9167 312.832 75.5586C313.079 75.2005 313.265 74.7904 313.389 74.3281C313.519 73.8594 313.584 73.3613 313.584 72.834V72.6094C313.584 72.0885 313.519 71.597 313.389 71.1348C313.265 70.666 313.076 70.2526 312.822 69.8945C312.575 69.5299 312.262 69.2435 311.885 69.0352C311.514 68.8268 311.077 68.7227 310.576 68.7227C310.081 68.7227 309.645 68.8268 309.268 69.0352C308.896 69.2435 308.584 69.5299 308.33 69.8945C308.083 70.2526 307.897 70.666 307.773 71.1348C307.65 71.597 307.588 72.0885 307.588 72.6094ZM319.473 69.6895V78H317.666V67.4336H319.375L319.473 69.6895ZM319.043 72.3164L318.291 72.2871C318.298 71.5645 318.405 70.8971 318.613 70.2852C318.822 69.6667 319.115 69.1296 319.492 68.6738C319.87 68.2181 320.319 67.8665 320.84 67.6191C321.367 67.3652 321.95 67.2383 322.588 67.2383C323.109 67.2383 323.577 67.3099 323.994 67.4531C324.411 67.5898 324.766 67.8112 325.059 68.1172C325.358 68.4232 325.586 68.8203 325.742 69.3086C325.898 69.7904 325.977 70.3796 325.977 71.0762V78H324.16V71.0566C324.16 70.5033 324.079 70.0605 323.916 69.7285C323.753 69.39 323.516 69.1458 323.203 68.9961C322.891 68.8398 322.507 68.7617 322.051 68.7617C321.602 68.7617 321.191 68.8561 320.82 69.0449C320.456 69.2337 320.14 69.4941 319.873 69.8262C319.613 70.1582 319.408 70.5391 319.258 70.9688C319.115 71.3919 319.043 71.8411 319.043 72.3164Z" fill="#FC8C25"/>
</svg>
