<svg width="500" height="500" viewBox="0 0 500 500" fill="none" xmlns="http://www.w3.org/2000/svg">
<path d="M479.02 108.012H460V104.742H479.02V108.012ZM484.064 104.496C484.592 104.496 485.037 104.654 485.4 104.971C485.764 105.299 485.945 105.779 485.945 106.412C485.945 107.033 485.764 107.508 485.4 107.836C485.037 108.176 484.592 108.346 484.064 108.346C483.561 108.346 483.127 108.176 482.764 107.836C482.412 107.508 482.236 107.033 482.236 106.412C482.236 105.779 482.412 105.299 482.764 104.971C483.127 104.654 483.561 104.496 484.064 104.496ZM474.959 116.484H460V113.232H479.02V116.309L474.959 116.484ZM470.23 115.711L470.283 114.357C471.584 114.369 472.785 114.562 473.887 114.938C475 115.312 475.967 115.84 476.787 116.52C477.607 117.199 478.24 118.008 478.686 118.945C479.143 119.895 479.371 120.943 479.371 122.092C479.371 123.029 479.242 123.873 478.984 124.623C478.738 125.373 478.34 126.012 477.789 126.539C477.238 127.078 476.523 127.488 475.645 127.77C474.777 128.051 473.717 128.191 472.463 128.191H460V124.922H472.498C473.494 124.922 474.291 124.775 474.889 124.482C475.498 124.189 475.938 123.762 476.207 123.199C476.488 122.637 476.629 121.945 476.629 121.125C476.629 120.316 476.459 119.578 476.119 118.91C475.779 118.254 475.311 117.686 474.713 117.205C474.115 116.736 473.43 116.367 472.656 116.098C471.895 115.84 471.086 115.711 470.23 115.711ZM487 136.664H460V133.395H487V136.664ZM479.02 145.418H460V142.148H479.02V145.418ZM484.064 141.902C484.592 141.902 485.037 142.061 485.4 142.377C485.764 142.705 485.945 143.186 485.945 143.818C485.945 144.439 485.764 144.914 485.4 145.242C485.037 145.582 484.592 145.752 484.064 145.752C483.561 145.752 483.127 145.582 482.764 145.242C482.412 144.914 482.236 144.439 482.236 143.818C482.236 143.186 482.412 142.705 482.764 142.377C483.127 142.061 483.561 141.902 484.064 141.902ZM474.959 153.891H460V150.639H479.02V153.715L474.959 153.891ZM470.23 153.117L470.283 151.764C471.584 151.775 472.785 151.969 473.887 152.344C475 152.719 475.967 153.246 476.787 153.926C477.607 154.605 478.24 155.414 478.686 156.352C479.143 157.301 479.371 158.35 479.371 159.498C479.371 160.436 479.242 161.279 478.984 162.029C478.738 162.779 478.34 163.418 477.789 163.945C477.238 164.484 476.523 164.895 475.645 165.176C474.777 165.457 473.717 165.598 472.463 165.598H460V162.328H472.498C473.494 162.328 474.291 162.182 474.889 161.889C475.498 161.596 475.938 161.168 476.207 160.605C476.488 160.043 476.629 159.352 476.629 158.531C476.629 157.723 476.459 156.984 476.119 156.316C475.779 155.66 475.311 155.092 474.713 154.611C474.115 154.143 473.43 153.773 472.656 153.504C471.895 153.246 471.086 153.117 470.23 153.117ZM459.648 178.43C459.648 177.105 459.871 175.904 460.316 174.826C460.773 173.76 461.412 172.84 462.232 172.066C463.053 171.305 464.025 170.719 465.15 170.309C466.275 169.898 467.506 169.693 468.842 169.693H469.58C471.127 169.693 472.504 169.922 473.711 170.379C474.93 170.836 475.961 171.457 476.805 172.242C477.648 173.027 478.287 173.918 478.721 174.914C479.154 175.91 479.371 176.941 479.371 178.008C479.371 179.367 479.137 180.539 478.668 181.523C478.199 182.52 477.543 183.334 476.699 183.967C475.867 184.6 474.883 185.068 473.746 185.373C472.621 185.678 471.391 185.83 470.055 185.83H468.596V171.627H471.25V182.578H471.496C472.34 182.531 473.16 182.355 473.957 182.051C474.754 181.758 475.41 181.289 475.926 180.645C476.441 180 476.699 179.121 476.699 178.008C476.699 177.27 476.541 176.59 476.225 175.969C475.92 175.348 475.463 174.814 474.854 174.369C474.244 173.924 473.5 173.578 472.621 173.332C471.742 173.086 470.729 172.963 469.58 172.963H468.842C467.939 172.963 467.09 173.086 466.293 173.332C465.508 173.59 464.816 173.959 464.219 174.439C463.621 174.932 463.152 175.523 462.812 176.215C462.473 176.918 462.303 177.715 462.303 178.605C462.303 179.754 462.537 180.727 463.006 181.523C463.475 182.32 464.102 183.018 464.887 183.615L463.322 185.584C462.701 185.174 462.109 184.652 461.547 184.02C460.984 183.387 460.527 182.607 460.176 181.682C459.824 180.768 459.648 179.684 459.648 178.43ZM463.691 219.475H487V222.744H460V219.756L463.691 219.475ZM469.299 206.678H469.668C471.121 206.678 472.439 206.854 473.623 207.205C474.818 207.568 475.844 208.078 476.699 208.734C477.555 209.402 478.211 210.193 478.668 211.107C479.137 212.033 479.371 213.064 479.371 214.201C479.371 215.396 479.16 216.439 478.738 217.33C478.328 218.232 477.725 218.994 476.928 219.615C476.143 220.248 475.193 220.746 474.08 221.109C472.967 221.473 471.707 221.725 470.301 221.865H468.684C467.289 221.736 466.035 221.484 464.922 221.109C463.809 220.746 462.859 220.248 462.074 219.615C461.289 218.994 460.686 218.232 460.264 217.33C459.854 216.428 459.648 215.373 459.648 214.166C459.648 213.053 459.889 212.033 460.369 211.107C460.85 210.193 461.523 209.402 462.391 208.734C463.258 208.078 464.277 207.568 465.449 207.205C466.633 206.854 467.916 206.678 469.299 206.678ZM469.668 209.947H469.299C468.35 209.947 467.459 210.041 466.627 210.229C465.795 210.428 465.062 210.732 464.43 211.143C463.797 211.553 463.299 212.074 462.936 212.707C462.584 213.34 462.408 214.096 462.408 214.975C462.408 216.053 462.637 216.938 463.094 217.629C463.551 218.332 464.154 218.895 464.904 219.316C465.654 219.738 466.469 220.066 467.348 220.301H471.584C472.229 220.16 472.85 219.955 473.447 219.686C474.057 219.428 474.596 219.088 475.064 218.666C475.545 218.256 475.926 217.746 476.207 217.137C476.488 216.539 476.629 215.83 476.629 215.01C476.629 214.119 476.441 213.352 476.066 212.707C475.703 212.074 475.199 211.553 474.555 211.143C473.922 210.732 473.184 210.428 472.34 210.229C471.508 210.041 470.617 209.947 469.668 209.947ZM479.02 231.34H460V228.07H479.02V231.34ZM484.064 227.824C484.592 227.824 485.037 227.982 485.4 228.299C485.764 228.627 485.945 229.107 485.945 229.74C485.945 230.361 485.764 230.836 485.4 231.164C485.037 231.504 484.592 231.674 484.064 231.674C483.561 231.674 483.127 231.504 482.764 231.164C482.412 230.836 482.236 230.361 482.236 229.74C482.236 229.107 482.412 228.627 482.764 228.299C483.127 227.982 483.561 227.824 484.064 227.824ZM476.031 239.812H460V236.561H479.02V239.725L476.031 239.812ZM479.125 245.754L476.102 245.736C476.16 245.467 476.195 245.209 476.207 244.963C476.23 244.729 476.242 244.459 476.242 244.154C476.242 243.404 476.125 242.742 475.891 242.168C475.656 241.594 475.328 241.107 474.906 240.709C474.484 240.311 473.98 239.994 473.395 239.76C472.82 239.537 472.188 239.391 471.496 239.32L470.969 238.406C472.117 238.406 473.195 238.518 474.203 238.74C475.211 238.975 476.102 239.332 476.875 239.812C477.66 240.293 478.27 240.902 478.703 241.641C479.148 242.391 479.371 243.281 479.371 244.312C479.371 244.547 479.342 244.816 479.283 245.121C479.236 245.426 479.184 245.637 479.125 245.754ZM459.648 256.301C459.648 254.977 459.871 253.775 460.316 252.697C460.773 251.631 461.412 250.711 462.232 249.938C463.053 249.176 464.025 248.59 465.15 248.18C466.275 247.77 467.506 247.564 468.842 247.564H469.58C471.127 247.564 472.504 247.793 473.711 248.25C474.93 248.707 475.961 249.328 476.805 250.113C477.648 250.898 478.287 251.789 478.721 252.785C479.154 253.781 479.371 254.812 479.371 255.879C479.371 257.238 479.137 258.41 478.668 259.395C478.199 260.391 477.543 261.205 476.699 261.838C475.867 262.471 474.883 262.939 473.746 263.244C472.621 263.549 471.391 263.701 470.055 263.701H468.596V249.498H471.25V260.449H471.496C472.34 260.402 473.16 260.227 473.957 259.922C474.754 259.629 475.41 259.16 475.926 258.516C476.441 257.871 476.699 256.992 476.699 255.879C476.699 255.141 476.541 254.461 476.225 253.84C475.92 253.219 475.463 252.686 474.854 252.24C474.244 251.795 473.5 251.449 472.621 251.203C471.742 250.957 470.729 250.834 469.58 250.834H468.842C467.939 250.834 467.09 250.957 466.293 251.203C465.508 251.461 464.816 251.83 464.219 252.311C463.621 252.803 463.152 253.395 462.812 254.086C462.473 254.789 462.303 255.586 462.303 256.477C462.303 257.625 462.537 258.598 463.006 259.395C463.475 260.191 464.102 260.889 464.887 261.486L463.322 263.455C462.701 263.045 462.109 262.523 461.547 261.891C460.984 261.258 460.527 260.479 460.176 259.553C459.824 258.639 459.648 257.555 459.648 256.301ZM462.32 275.109C462.32 275.883 462.479 276.598 462.795 277.254C463.111 277.91 463.545 278.449 464.096 278.871C464.658 279.293 465.297 279.533 466.012 279.592V282.686C464.887 282.627 463.838 282.246 462.865 281.543C461.904 280.852 461.125 279.943 460.527 278.818C459.941 277.693 459.648 276.457 459.648 275.109C459.648 273.68 459.9 272.432 460.404 271.365C460.908 270.311 461.6 269.432 462.479 268.729C463.357 268.037 464.365 267.516 465.502 267.164C466.65 266.824 467.863 266.654 469.141 266.654H469.879C471.156 266.654 472.363 266.824 473.5 267.164C474.648 267.516 475.662 268.037 476.541 268.729C477.42 269.432 478.111 270.311 478.615 271.365C479.119 272.432 479.371 273.68 479.371 275.109C479.371 276.598 479.066 277.898 478.457 279.012C477.859 280.125 477.039 280.998 475.996 281.631C474.965 282.275 473.793 282.627 472.48 282.686V279.592C473.266 279.533 473.975 279.311 474.607 278.924C475.24 278.549 475.744 278.033 476.119 277.377C476.506 276.732 476.699 275.977 476.699 275.109C476.699 274.113 476.5 273.275 476.102 272.596C475.715 271.928 475.188 271.395 474.52 270.996C473.863 270.609 473.131 270.328 472.322 270.152C471.525 269.988 470.711 269.906 469.879 269.906H469.141C468.309 269.906 467.488 269.988 466.68 270.152C465.871 270.316 465.139 270.592 464.482 270.979C463.826 271.377 463.299 271.91 462.9 272.578C462.514 273.258 462.32 274.102 462.32 275.109ZM479.02 294.305H476.523V284.021H479.02V294.305ZM483.643 287.502V290.754H464.711C464.066 290.754 463.58 290.854 463.252 291.053C462.924 291.252 462.707 291.51 462.602 291.826C462.496 292.143 462.443 292.482 462.443 292.846C462.443 293.115 462.467 293.396 462.514 293.689C462.572 293.994 462.619 294.223 462.654 294.375L460 294.393C459.918 294.135 459.842 293.795 459.771 293.373C459.689 292.963 459.648 292.465 459.648 291.879C459.648 291.082 459.807 290.35 460.123 289.682C460.439 289.014 460.967 288.48 461.705 288.082C462.455 287.695 463.463 287.502 464.729 287.502H483.643ZM479.02 301.652H460V298.383H479.02V301.652ZM484.064 298.137C484.592 298.137 485.037 298.295 485.4 298.611C485.764 298.939 485.945 299.42 485.945 300.053C485.945 300.674 485.764 301.148 485.4 301.477C485.037 301.816 484.592 301.986 484.064 301.986C483.561 301.986 483.127 301.816 482.764 301.477C482.412 301.148 482.236 300.674 482.236 300.053C482.236 299.42 482.412 298.939 482.764 298.611C483.127 298.295 483.561 298.137 484.064 298.137ZM469.299 306.012H469.703C471.074 306.012 472.346 306.211 473.518 306.609C474.701 307.008 475.727 307.582 476.594 308.332C477.473 309.082 478.152 309.99 478.633 311.057C479.125 312.123 479.371 313.318 479.371 314.643C479.371 315.979 479.125 317.18 478.633 318.246C478.152 319.324 477.473 320.238 476.594 320.988C475.727 321.75 474.701 322.33 473.518 322.729C472.346 323.127 471.074 323.326 469.703 323.326H469.299C467.928 323.326 466.656 323.127 465.484 322.729C464.312 322.33 463.287 321.75 462.408 320.988C461.541 320.238 460.861 319.33 460.369 318.264C459.889 317.209 459.648 316.014 459.648 314.678C459.648 313.342 459.889 312.141 460.369 311.074C460.861 310.008 461.541 309.094 462.408 308.332C463.287 307.582 464.312 307.008 465.484 306.609C466.656 306.211 467.928 306.012 469.299 306.012ZM469.703 309.264H469.299C468.35 309.264 467.453 309.375 466.609 309.598C465.777 309.82 465.039 310.154 464.395 310.6C463.75 311.057 463.24 311.625 462.865 312.305C462.502 312.984 462.32 313.775 462.32 314.678C462.32 315.568 462.502 316.348 462.865 317.016C463.24 317.695 463.75 318.258 464.395 318.703C465.039 319.148 465.777 319.482 466.609 319.705C467.453 319.939 468.35 320.057 469.299 320.057H469.703C470.641 320.057 471.525 319.939 472.357 319.705C473.201 319.482 473.945 319.143 474.59 318.686C475.246 318.24 475.762 317.678 476.137 316.998C476.512 316.33 476.699 315.545 476.699 314.643C476.699 313.752 476.512 312.967 476.137 312.287C475.762 311.619 475.246 311.057 474.59 310.6C473.945 310.154 473.201 309.82 472.357 309.598C471.525 309.375 470.641 309.264 469.703 309.264ZM474.959 330.656H460V327.404H479.02V330.48L474.959 330.656ZM470.23 329.883L470.283 328.529C471.584 328.541 472.785 328.734 473.887 329.109C475 329.484 475.967 330.012 476.787 330.691C477.607 331.371 478.24 332.18 478.686 333.117C479.143 334.066 479.371 335.115 479.371 336.264C479.371 337.201 479.242 338.045 478.984 338.795C478.738 339.545 478.34 340.184 477.789 340.711C477.238 341.25 476.523 341.66 475.645 341.941C474.777 342.223 473.717 342.363 472.463 342.363H460V339.094H472.498C473.494 339.094 474.291 338.947 474.889 338.654C475.498 338.361 475.938 337.934 476.207 337.371C476.488 336.809 476.629 336.117 476.629 335.297C476.629 334.488 476.459 333.75 476.119 333.082C475.779 332.426 475.311 331.857 474.713 331.377C474.115 330.908 473.43 330.539 472.656 330.27C471.895 330.012 471.086 329.883 470.23 329.883Z" fill="#6C41E7"/>
<path d="M448.939 451.061C449.525 451.646 450.475 451.646 451.061 451.061L460.607 441.515C461.192 440.929 461.192 439.979 460.607 439.393C460.021 438.808 459.071 438.808 458.485 439.393L450 447.879L441.515 439.393C440.929 438.808 439.979 438.808 439.393 439.393C438.808 439.979 438.808 440.929 439.393 441.515L448.939 451.061ZM448.5 50L448.5 450L451.5 450L451.5 50L448.5 50Z" fill="#6C41E7"/>
<path d="M48.9393 48.9393C48.3536 49.5251 48.3536 50.4749 48.9393 51.0607L58.4853 60.6066C59.0711 61.1924 60.0208 61.1924 60.6066 60.6066C61.1924 60.0208 61.1924 59.0711 60.6066 58.4853L52.1213 50L60.6066 41.5147C61.1924 40.9289 61.1924 39.9792 60.6066 39.3934C60.0208 38.8076 59.0711 38.8076 58.4853 39.3934L48.9393 48.9393ZM450 48.5L50 48.5V51.5L450 51.5V48.5Z" fill="#058105"/>
<path d="M109.461 18H112.73V41.3086L112.449 45H109.461V18ZM125.58 35.332V35.7012C125.58 37.084 125.416 38.3672 125.088 39.5508C124.76 40.7227 124.279 41.7422 123.646 42.6094C123.014 43.4766 122.24 44.1504 121.326 44.6309C120.412 45.1113 119.363 45.3516 118.18 45.3516C116.973 45.3516 115.912 45.1465 114.998 44.7363C114.096 44.3145 113.334 43.7109 112.713 42.9258C112.092 42.1406 111.594 41.1914 111.219 40.0781C110.855 38.9648 110.604 37.7109 110.463 36.3164V34.6992C110.604 33.293 110.855 32.0332 111.219 30.9199C111.594 29.8066 112.092 28.8574 112.713 28.0723C113.334 27.2754 114.096 26.6719 114.998 26.2617C115.9 25.8398 116.949 25.6289 118.145 25.6289C119.34 25.6289 120.4 25.8633 121.326 26.332C122.252 26.7891 123.025 27.4453 123.646 28.3008C124.279 29.1562 124.76 30.1816 125.088 31.377C125.416 32.5605 125.58 33.8789 125.58 35.332ZM122.311 35.7012V35.332C122.311 34.3828 122.223 33.4922 122.047 32.6602C121.871 31.8164 121.59 31.0781 121.203 30.4453C120.816 29.8008 120.307 29.2969 119.674 28.9336C119.041 28.5586 118.262 28.3711 117.336 28.3711C116.516 28.3711 115.801 28.5117 115.191 28.793C114.594 29.0742 114.084 29.4551 113.662 29.9355C113.24 30.4043 112.895 30.9434 112.625 31.5527C112.367 32.1504 112.174 32.7715 112.045 33.416V37.6523C112.232 38.4727 112.537 39.2637 112.959 40.0254C113.393 40.7754 113.967 41.3906 114.682 41.8711C115.408 42.3516 116.305 42.5918 117.371 42.5918C118.25 42.5918 119 42.416 119.621 42.0645C120.254 41.7012 120.764 41.2031 121.15 40.5703C121.549 39.9375 121.842 39.2051 122.029 38.373C122.217 37.541 122.311 36.6504 122.311 35.7012ZM133.227 18V45H129.957V18H133.227ZM137.586 35.7012V35.2969C137.586 33.9258 137.785 32.6543 138.184 31.4824C138.582 30.2988 139.156 29.2734 139.906 28.4062C140.656 27.5273 141.564 26.8477 142.631 26.3672C143.697 25.875 144.893 25.6289 146.217 25.6289C147.553 25.6289 148.754 25.875 149.82 26.3672C150.898 26.8477 151.812 27.5273 152.562 28.4062C153.324 29.2734 153.904 30.2988 154.303 31.4824C154.701 32.6543 154.9 33.9258 154.9 35.2969V35.7012C154.9 37.0723 154.701 38.3438 154.303 39.5156C153.904 40.6875 153.324 41.7129 152.562 42.5918C151.812 43.459 150.904 44.1387 149.838 44.6309C148.783 45.1113 147.588 45.3516 146.252 45.3516C144.916 45.3516 143.715 45.1113 142.648 44.6309C141.582 44.1387 140.668 43.459 139.906 42.5918C139.156 41.7129 138.582 40.6875 138.184 39.5156C137.785 38.3438 137.586 37.0723 137.586 35.7012ZM140.838 35.2969V35.7012C140.838 36.6504 140.949 37.5469 141.172 38.3906C141.395 39.2227 141.729 39.9609 142.174 40.6055C142.631 41.25 143.199 41.7598 143.879 42.1348C144.559 42.498 145.35 42.6797 146.252 42.6797C147.143 42.6797 147.922 42.498 148.59 42.1348C149.27 41.7598 149.832 41.25 150.277 40.6055C150.723 39.9609 151.057 39.2227 151.279 38.3906C151.514 37.5469 151.631 36.6504 151.631 35.7012V35.2969C151.631 34.3594 151.514 33.4746 151.279 32.6426C151.057 31.7988 150.717 31.0547 150.26 30.4102C149.814 29.7539 149.252 29.2383 148.572 28.8633C147.904 28.4883 147.119 28.3008 146.217 28.3008C145.326 28.3008 144.541 28.4883 143.861 28.8633C143.193 29.2383 142.631 29.7539 142.174 30.4102C141.729 31.0547 141.395 31.7988 141.172 32.6426C140.949 33.4746 140.838 34.3594 140.838 35.2969ZM166.59 42.6797C167.363 42.6797 168.078 42.5215 168.734 42.2051C169.391 41.8887 169.93 41.4551 170.352 40.9043C170.773 40.3418 171.014 39.7031 171.072 38.9883H174.166C174.107 40.1133 173.727 41.1621 173.023 42.1348C172.332 43.0957 171.424 43.875 170.299 44.4727C169.174 45.0586 167.938 45.3516 166.59 45.3516C165.16 45.3516 163.912 45.0996 162.846 44.5957C161.791 44.0918 160.912 43.4004 160.209 42.5215C159.518 41.6426 158.996 40.6348 158.645 39.498C158.305 38.3496 158.135 37.1367 158.135 35.8594V35.1211C158.135 33.8438 158.305 32.6367 158.645 31.5C158.996 30.3516 159.518 29.3379 160.209 28.459C160.912 27.5801 161.791 26.8887 162.846 26.3848C163.912 25.8809 165.16 25.6289 166.59 25.6289C168.078 25.6289 169.379 25.9336 170.492 26.543C171.605 27.1406 172.479 27.9609 173.111 29.0039C173.756 30.0352 174.107 31.207 174.166 32.5195H171.072C171.014 31.7344 170.791 31.0254 170.404 30.3926C170.029 29.7598 169.514 29.2559 168.857 28.8809C168.213 28.4941 167.457 28.3008 166.59 28.3008C165.594 28.3008 164.756 28.5 164.076 28.8984C163.408 29.2852 162.875 29.8125 162.477 30.4805C162.09 31.1367 161.809 31.8691 161.633 32.6777C161.469 33.4746 161.387 34.2891 161.387 35.1211V35.8594C161.387 36.6914 161.469 37.5117 161.633 38.3203C161.797 39.1289 162.072 39.8613 162.459 40.5176C162.857 41.1738 163.391 41.7012 164.059 42.0996C164.738 42.4863 165.582 42.6797 166.59 42.6797ZM181.092 18V45H177.822V18H181.092ZM192.711 25.9805L184.414 34.8574L179.773 39.6738L179.51 36.2109L182.832 32.2383L188.738 25.9805H192.711ZM189.74 45L182.955 35.9297L184.643 33.0293L193.572 45H189.74ZM216.986 41.3086V18H220.256V45H217.268L216.986 41.3086ZM204.189 35.7012V35.332C204.189 33.8789 204.365 32.5605 204.717 31.377C205.08 30.1816 205.59 29.1562 206.246 28.3008C206.914 27.4453 207.705 26.7891 208.619 26.332C209.545 25.8633 210.576 25.6289 211.713 25.6289C212.908 25.6289 213.951 25.8398 214.842 26.2617C215.744 26.6719 216.506 27.2754 217.127 28.0723C217.76 28.8574 218.258 29.8066 218.621 30.9199C218.984 32.0332 219.236 33.293 219.377 34.6992V36.3164C219.248 37.7109 218.996 38.9648 218.621 40.0781C218.258 41.1914 217.76 42.1406 217.127 42.9258C216.506 43.7109 215.744 44.3145 214.842 44.7363C213.939 45.1465 212.885 45.3516 211.678 45.3516C210.564 45.3516 209.545 45.1113 208.619 44.6309C207.705 44.1504 206.914 43.4766 206.246 42.6094C205.59 41.7422 205.08 40.7227 204.717 39.5508C204.365 38.3672 204.189 37.084 204.189 35.7012ZM207.459 35.332V35.7012C207.459 36.6504 207.553 37.541 207.74 38.373C207.939 39.2051 208.244 39.9375 208.654 40.5703C209.064 41.2031 209.586 41.7012 210.219 42.0645C210.852 42.416 211.607 42.5918 212.486 42.5918C213.564 42.5918 214.449 42.3633 215.141 41.9062C215.844 41.4492 216.406 40.8457 216.828 40.0957C217.25 39.3457 217.578 38.5312 217.812 37.6523V33.416C217.672 32.7715 217.467 32.1504 217.197 31.5527C216.939 30.9434 216.6 30.4043 216.178 29.9355C215.768 29.4551 215.258 29.0742 214.648 28.793C214.051 28.5117 213.342 28.3711 212.521 28.3711C211.631 28.3711 210.863 28.5586 210.219 28.9336C209.586 29.2969 209.064 29.8008 208.654 30.4453C208.244 31.0781 207.939 31.8164 207.74 32.6602C207.553 33.4922 207.459 34.3828 207.459 35.332ZM228.852 25.9805V45H225.582V25.9805H228.852ZM225.336 20.9355C225.336 20.4082 225.494 19.9629 225.811 19.5996C226.139 19.2363 226.619 19.0547 227.252 19.0547C227.873 19.0547 228.348 19.2363 228.676 19.5996C229.016 19.9629 229.186 20.4082 229.186 20.9355C229.186 21.4395 229.016 21.873 228.676 22.2363C228.348 22.5879 227.873 22.7637 227.252 22.7637C226.619 22.7637 226.139 22.5879 225.811 22.2363C225.494 21.873 225.336 21.4395 225.336 20.9355ZM237.324 28.9688V45H234.072V25.9805H237.236L237.324 28.9688ZM243.266 25.875L243.248 28.8984C242.979 28.8398 242.721 28.8047 242.475 28.793C242.24 28.7695 241.971 28.7578 241.666 28.7578C240.916 28.7578 240.254 28.875 239.68 29.1094C239.105 29.3438 238.619 29.6719 238.221 30.0938C237.822 30.5156 237.506 31.0195 237.271 31.6055C237.049 32.1797 236.902 32.8125 236.832 33.5039L235.918 34.0312C235.918 32.8828 236.029 31.8047 236.252 30.7969C236.486 29.7891 236.844 28.8984 237.324 28.125C237.805 27.3398 238.414 26.7305 239.152 26.2969C239.902 25.8516 240.793 25.6289 241.824 25.6289C242.059 25.6289 242.328 25.6582 242.633 25.7168C242.938 25.7637 243.148 25.8164 243.266 25.875ZM253.812 45.3516C252.488 45.3516 251.287 45.1289 250.209 44.6836C249.143 44.2266 248.223 43.5879 247.449 42.7676C246.688 41.9473 246.102 40.9746 245.691 39.8496C245.281 38.7246 245.076 37.4941 245.076 36.1582V35.4199C245.076 33.873 245.305 32.4961 245.762 31.2891C246.219 30.0703 246.84 29.0391 247.625 28.1953C248.41 27.3516 249.301 26.7129 250.297 26.2793C251.293 25.8457 252.324 25.6289 253.391 25.6289C254.75 25.6289 255.922 25.8633 256.906 26.332C257.902 26.8008 258.717 27.457 259.35 28.3008C259.982 29.1328 260.451 30.1172 260.756 31.2539C261.061 32.3789 261.213 33.6094 261.213 34.9453V36.4043H247.01V33.75H257.961V33.5039C257.914 32.6602 257.738 31.8398 257.434 31.043C257.141 30.2461 256.672 29.5898 256.027 29.0742C255.383 28.5586 254.504 28.3008 253.391 28.3008C252.652 28.3008 251.973 28.459 251.352 28.7754C250.73 29.0801 250.197 29.5371 249.752 30.1465C249.307 30.7559 248.961 31.5 248.715 32.3789C248.469 33.2578 248.346 34.2715 248.346 35.4199V36.1582C248.346 37.0605 248.469 37.9102 248.715 38.707C248.973 39.4922 249.342 40.1836 249.822 40.7812C250.314 41.3789 250.906 41.8477 251.598 42.1875C252.301 42.5273 253.098 42.6973 253.988 42.6973C255.137 42.6973 256.109 42.4629 256.906 41.9941C257.703 41.5254 258.4 40.8984 258.998 40.1133L260.967 41.6777C260.557 42.2988 260.035 42.8906 259.402 43.4531C258.77 44.0156 257.99 44.4727 257.064 44.8242C256.15 45.1758 255.066 45.3516 253.812 45.3516ZM272.621 42.6797C273.395 42.6797 274.109 42.5215 274.766 42.2051C275.422 41.8887 275.961 41.4551 276.383 40.9043C276.805 40.3418 277.045 39.7031 277.104 38.9883H280.197C280.139 40.1133 279.758 41.1621 279.055 42.1348C278.363 43.0957 277.455 43.875 276.33 44.4727C275.205 45.0586 273.969 45.3516 272.621 45.3516C271.191 45.3516 269.943 45.0996 268.877 44.5957C267.822 44.0918 266.943 43.4004 266.24 42.5215C265.549 41.6426 265.027 40.6348 264.676 39.498C264.336 38.3496 264.166 37.1367 264.166 35.8594V35.1211C264.166 33.8438 264.336 32.6367 264.676 31.5C265.027 30.3516 265.549 29.3379 266.24 28.459C266.943 27.5801 267.822 26.8887 268.877 26.3848C269.943 25.8809 271.191 25.6289 272.621 25.6289C274.109 25.6289 275.41 25.9336 276.523 26.543C277.637 27.1406 278.51 27.9609 279.143 29.0039C279.787 30.0352 280.139 31.207 280.197 32.5195H277.104C277.045 31.7344 276.822 31.0254 276.436 30.3926C276.061 29.7598 275.545 29.2559 274.889 28.8809C274.244 28.4941 273.488 28.3008 272.621 28.3008C271.625 28.3008 270.787 28.5 270.107 28.8984C269.439 29.2852 268.906 29.8125 268.508 30.4805C268.121 31.1367 267.84 31.8691 267.664 32.6777C267.5 33.4746 267.418 34.2891 267.418 35.1211V35.8594C267.418 36.6914 267.5 37.5117 267.664 38.3203C267.828 39.1289 268.104 39.8613 268.49 40.5176C268.889 41.1738 269.422 41.7012 270.09 42.0996C270.77 42.4863 271.613 42.6797 272.621 42.6797ZM291.816 25.9805V28.4766H281.533V25.9805H291.816ZM285.014 21.3574H288.266V40.2891C288.266 40.9336 288.365 41.4199 288.564 41.748C288.764 42.0762 289.021 42.293 289.338 42.3984C289.654 42.5039 289.994 42.5566 290.357 42.5566C290.627 42.5566 290.908 42.5332 291.201 42.4863C291.506 42.4277 291.734 42.3809 291.887 42.3457L291.904 45C291.646 45.082 291.307 45.1582 290.885 45.2285C290.475 45.3105 289.977 45.3516 289.391 45.3516C288.594 45.3516 287.861 45.1934 287.193 44.877C286.525 44.5605 285.992 44.0332 285.594 43.2949C285.207 42.5449 285.014 41.5371 285.014 40.2715V21.3574ZM299.164 25.9805V45H295.895V25.9805H299.164ZM295.648 20.9355C295.648 20.4082 295.807 19.9629 296.123 19.5996C296.451 19.2363 296.932 19.0547 297.564 19.0547C298.186 19.0547 298.66 19.2363 298.988 19.5996C299.328 19.9629 299.498 20.4082 299.498 20.9355C299.498 21.4395 299.328 21.873 298.988 22.2363C298.66 22.5879 298.186 22.7637 297.564 22.7637C296.932 22.7637 296.451 22.5879 296.123 22.2363C295.807 21.873 295.648 21.4395 295.648 20.9355ZM303.523 35.7012V35.2969C303.523 33.9258 303.723 32.6543 304.121 31.4824C304.52 30.2988 305.094 29.2734 305.844 28.4062C306.594 27.5273 307.502 26.8477 308.568 26.3672C309.635 25.875 310.83 25.6289 312.154 25.6289C313.49 25.6289 314.691 25.875 315.758 26.3672C316.836 26.8477 317.75 27.5273 318.5 28.4062C319.262 29.2734 319.842 30.2988 320.24 31.4824C320.639 32.6543 320.838 33.9258 320.838 35.2969V35.7012C320.838 37.0723 320.639 38.3438 320.24 39.5156C319.842 40.6875 319.262 41.7129 318.5 42.5918C317.75 43.459 316.842 44.1387 315.775 44.6309C314.721 45.1113 313.525 45.3516 312.189 45.3516C310.854 45.3516 309.652 45.1113 308.586 44.6309C307.52 44.1387 306.605 43.459 305.844 42.5918C305.094 41.7129 304.52 40.6875 304.121 39.5156C303.723 38.3438 303.523 37.0723 303.523 35.7012ZM306.775 35.2969V35.7012C306.775 36.6504 306.887 37.5469 307.109 38.3906C307.332 39.2227 307.666 39.9609 308.111 40.6055C308.568 41.25 309.137 41.7598 309.816 42.1348C310.496 42.498 311.287 42.6797 312.189 42.6797C313.08 42.6797 313.859 42.498 314.527 42.1348C315.207 41.7598 315.77 41.25 316.215 40.6055C316.66 39.9609 316.994 39.2227 317.217 38.3906C317.451 37.5469 317.568 36.6504 317.568 35.7012V35.2969C317.568 34.3594 317.451 33.4746 317.217 32.6426C316.994 31.7988 316.654 31.0547 316.197 30.4102C315.752 29.7539 315.189 29.2383 314.51 28.8633C313.842 28.4883 313.057 28.3008 312.154 28.3008C311.264 28.3008 310.479 28.4883 309.799 28.8633C309.131 29.2383 308.568 29.7539 308.111 30.4102C307.666 31.0547 307.332 31.7988 307.109 32.6426C306.887 33.4746 306.775 34.3594 306.775 35.2969ZM328.168 30.041V45H324.916V25.9805H327.992L328.168 30.041ZM327.395 34.7695L326.041 34.7168C326.053 33.416 326.246 32.2148 326.621 31.1133C326.996 30 327.523 29.0332 328.203 28.2129C328.883 27.3926 329.691 26.7598 330.629 26.3145C331.578 25.8574 332.627 25.6289 333.775 25.6289C334.713 25.6289 335.557 25.7578 336.307 26.0156C337.057 26.2617 337.695 26.6602 338.223 27.2109C338.762 27.7617 339.172 28.4766 339.453 29.3555C339.734 30.2227 339.875 31.2832 339.875 32.5371V45H336.605V32.502C336.605 31.5059 336.459 30.709 336.166 30.1113C335.873 29.502 335.445 29.0625 334.883 28.793C334.32 28.5117 333.629 28.3711 332.809 28.3711C332 28.3711 331.262 28.541 330.594 28.8809C329.938 29.2207 329.369 29.6895 328.889 30.2871C328.42 30.8848 328.051 31.5703 327.781 32.3438C327.523 33.1055 327.395 33.9141 327.395 34.7695Z" fill="#058105"/>
<path d="M255.969 144.25V150.25C253.094 149.938 250.521 149.115 248.25 147.781C245.979 146.448 244.177 144.562 242.844 142.125C241.531 139.688 240.875 136.646 240.875 133C240.875 130.333 241.375 127.906 242.375 125.719C243.375 123.552 244.792 121.688 246.625 120.125C248.479 118.562 250.698 117.354 253.281 116.5C255.885 115.667 258.781 115.25 261.969 115.25H266.5C269.688 115.25 272.573 115.667 275.156 116.5C277.76 117.354 279.99 118.573 281.844 120.156C283.698 121.76 285.125 123.688 286.125 125.938C287.125 128.188 287.625 130.719 287.625 133.531C287.625 136.969 286.979 139.875 285.688 142.25C284.396 144.625 282.604 146.469 280.312 147.781C278.042 149.115 275.406 149.938 272.406 150.25V144.25C274.531 143.958 276.354 143.417 277.875 142.625C279.417 141.833 280.604 140.708 281.438 139.25C282.271 137.792 282.688 135.885 282.688 133.531C282.688 131.51 282.302 129.729 281.531 128.188C280.76 126.667 279.667 125.385 278.25 124.344C276.833 123.323 275.135 122.552 273.156 122.031C271.177 121.51 268.979 121.25 266.562 121.25H261.969C259.74 121.25 257.646 121.479 255.688 121.938C253.729 122.417 252.01 123.135 250.531 124.094C249.052 125.052 247.885 126.271 247.031 127.75C246.198 129.229 245.781 130.979 245.781 133C245.781 135.562 246.188 137.604 247 139.125C247.812 140.646 248.979 141.792 250.5 142.562C252.021 143.354 253.844 143.917 255.969 144.25ZM253 182.719C254.062 182.719 255 182.552 255.812 182.219C256.646 181.906 257.396 181.344 258.062 180.531C258.729 179.74 259.365 178.635 259.969 177.219C260.573 175.823 261.188 174.052 261.812 171.906C262.479 169.656 263.219 167.625 264.031 165.812C264.865 164 265.812 162.448 266.875 161.156C267.938 159.865 269.156 158.875 270.531 158.188C271.906 157.5 273.479 157.156 275.25 157.156C277.021 157.156 278.656 157.521 280.156 158.25C281.656 158.979 282.958 160.021 284.062 161.375C285.188 162.75 286.062 164.385 286.688 166.281C287.312 168.177 287.625 170.292 287.625 172.625C287.625 176.042 286.969 178.938 285.656 181.312C284.365 183.708 282.667 185.531 280.562 186.781C278.479 188.031 276.25 188.656 273.875 188.656V182.656C275.583 182.656 277.094 182.292 278.406 181.562C279.74 180.833 280.781 179.729 281.531 178.25C282.302 176.771 282.688 174.896 282.688 172.625C282.688 170.479 282.365 168.708 281.719 167.312C281.073 165.917 280.198 164.875 279.094 164.188C277.99 163.521 276.729 163.188 275.312 163.188C274.354 163.188 273.479 163.385 272.688 163.781C271.917 164.198 271.198 164.833 270.531 165.688C269.865 166.562 269.25 167.667 268.688 169C268.125 170.354 267.583 171.969 267.062 173.844C266.333 176.427 265.521 178.656 264.625 180.531C263.729 182.406 262.719 183.948 261.594 185.156C260.49 186.385 259.229 187.292 257.812 187.875C256.417 188.479 254.833 188.781 253.062 188.781C251.208 188.781 249.531 188.406 248.031 187.656C246.531 186.906 245.25 185.833 244.188 184.438C243.125 183.042 242.302 181.365 241.719 179.406C241.156 177.469 240.875 175.302 240.875 172.906C240.875 170.802 241.167 168.729 241.75 166.688C242.333 164.667 243.208 162.823 244.375 161.156C245.542 159.51 246.979 158.188 248.688 157.188C250.417 156.208 252.417 155.719 254.688 155.719V161.719C253.125 161.719 251.781 162.021 250.656 162.625C249.552 163.229 248.635 164.052 247.906 165.094C247.177 166.156 246.635 167.354 246.281 168.688C245.948 170.042 245.781 171.448 245.781 172.906C245.781 175.01 246.073 176.792 246.656 178.25C247.24 179.708 248.073 180.812 249.156 181.562C250.24 182.333 251.521 182.719 253 182.719ZM253 220.719C254.062 220.719 255 220.552 255.812 220.219C256.646 219.906 257.396 219.344 258.062 218.531C258.729 217.74 259.365 216.635 259.969 215.219C260.573 213.823 261.188 212.052 261.812 209.906C262.479 207.656 263.219 205.625 264.031 203.812C264.865 202 265.812 200.448 266.875 199.156C267.938 197.865 269.156 196.875 270.531 196.188C271.906 195.5 273.479 195.156 275.25 195.156C277.021 195.156 278.656 195.521 280.156 196.25C281.656 196.979 282.958 198.021 284.062 199.375C285.188 200.75 286.062 202.385 286.688 204.281C287.312 206.177 287.625 208.292 287.625 210.625C287.625 214.042 286.969 216.938 285.656 219.312C284.365 221.708 282.667 223.531 280.562 224.781C278.479 226.031 276.25 226.656 273.875 226.656V220.656C275.583 220.656 277.094 220.292 278.406 219.562C279.74 218.833 280.781 217.729 281.531 216.25C282.302 214.771 282.688 212.896 282.688 210.625C282.688 208.479 282.365 206.708 281.719 205.312C281.073 203.917 280.198 202.875 279.094 202.188C277.99 201.521 276.729 201.188 275.312 201.188C274.354 201.188 273.479 201.385 272.688 201.781C271.917 202.198 271.198 202.833 270.531 203.688C269.865 204.562 269.25 205.667 268.688 207C268.125 208.354 267.583 209.969 267.062 211.844C266.333 214.427 265.521 216.656 264.625 218.531C263.729 220.406 262.719 221.948 261.594 223.156C260.49 224.385 259.229 225.292 257.812 225.875C256.417 226.479 254.833 226.781 253.062 226.781C251.208 226.781 249.531 226.406 248.031 225.656C246.531 224.906 245.25 223.833 244.188 222.438C243.125 221.042 242.302 219.365 241.719 217.406C241.156 215.469 240.875 213.302 240.875 210.906C240.875 208.802 241.167 206.729 241.75 204.688C242.333 202.667 243.208 200.823 244.375 199.156C245.542 197.51 246.979 196.188 248.688 195.188C250.417 194.208 252.417 193.719 254.688 193.719V199.719C253.125 199.719 251.781 200.021 250.656 200.625C249.552 201.229 248.635 202.052 247.906 203.094C247.177 204.156 246.635 205.354 246.281 206.688C245.948 208.042 245.781 209.448 245.781 210.906C245.781 213.01 246.073 214.792 246.656 216.25C247.24 217.708 248.073 218.812 249.156 219.562C250.24 220.333 251.521 220.719 253 220.719ZM275.312 255.75H241.5V249.938H275.312V255.75ZM284.281 249.5C285.219 249.5 286.01 249.781 286.656 250.344C287.302 250.927 287.625 251.781 287.625 252.906C287.625 254.01 287.302 254.854 286.656 255.438C286.01 256.042 285.219 256.344 284.281 256.344C283.385 256.344 282.615 256.042 281.969 255.438C281.344 254.854 281.031 254.01 281.031 252.906C281.031 251.781 281.344 250.927 281.969 250.344C282.615 249.781 283.385 249.5 284.281 249.5ZM250.469 284.719C251.302 284.719 252.073 284.531 252.781 284.156C253.51 283.802 254.167 283.062 254.75 281.938C255.354 280.833 255.875 279.167 256.312 276.938C256.708 275.062 257.177 273.365 257.719 271.844C258.26 270.344 258.917 269.062 259.688 268C260.458 266.958 261.365 266.156 262.406 265.594C263.448 265.031 264.667 264.75 266.062 264.75C267.396 264.75 268.656 265.042 269.844 265.625C271.031 266.229 272.083 267.073 273 268.156C273.917 269.26 274.635 270.583 275.156 272.125C275.677 273.667 275.938 275.385 275.938 277.281C275.938 279.99 275.458 282.302 274.5 284.219C273.542 286.135 272.26 287.604 270.656 288.625C269.073 289.646 267.312 290.156 265.375 290.156V284.375C266.312 284.375 267.219 284.094 268.094 283.531C268.99 282.99 269.729 282.188 270.312 281.125C270.896 280.083 271.188 278.802 271.188 277.281C271.188 275.677 270.938 274.375 270.438 273.375C269.958 272.396 269.344 271.677 268.594 271.219C267.844 270.781 267.052 270.562 266.219 270.562C265.594 270.562 265.031 270.667 264.531 270.875C264.052 271.104 263.604 271.5 263.188 272.062C262.792 272.625 262.417 273.417 262.062 274.438C261.708 275.458 261.354 276.76 261 278.344C260.375 281.115 259.625 283.396 258.75 285.188C257.875 286.979 256.802 288.312 255.531 289.188C254.26 290.062 252.719 290.5 250.906 290.5C249.427 290.5 248.073 290.188 246.844 289.562C245.615 288.958 244.552 288.073 243.656 286.906C242.781 285.76 242.094 284.385 241.594 282.781C241.115 281.198 240.875 279.417 240.875 277.438C240.875 274.458 241.406 271.938 242.469 269.875C243.531 267.812 244.906 266.25 246.594 265.188C248.281 264.125 250.062 263.594 251.938 263.594V269.406C250.354 269.49 249.094 269.948 248.156 270.781C247.24 271.615 246.583 272.635 246.188 273.844C245.812 275.052 245.625 276.25 245.625 277.438C245.625 279.021 245.833 280.344 246.25 281.406C246.667 282.49 247.24 283.312 247.969 283.875C248.698 284.438 249.531 284.719 250.469 284.719ZM172.281 135.844H189.688C191.021 135.844 192.177 135.573 193.156 135.031C194.156 134.51 194.927 133.719 195.469 132.656C196.01 131.594 196.281 130.281 196.281 128.719C196.281 127.26 196.031 125.979 195.531 124.875C195.031 123.792 194.375 122.938 193.562 122.312C192.75 121.708 191.875 121.406 190.938 121.406V115.625C192.146 115.625 193.344 115.938 194.531 116.562C195.719 117.188 196.792 118.083 197.75 119.25C198.729 120.438 199.5 121.854 200.062 123.5C200.646 125.167 200.938 127.021 200.938 129.062C200.938 131.521 200.521 133.688 199.688 135.562C198.854 137.458 197.594 138.938 195.906 140C194.24 141.083 192.146 141.625 189.625 141.625H173.875C172.75 141.625 171.552 141.719 170.281 141.906C169.01 142.115 167.917 142.417 167 142.812H166.5V136.781C167.167 136.49 168.052 136.26 169.156 136.094C170.281 135.927 171.323 135.844 172.281 135.844ZM187 136.844L182.938 136.906V131.062C182.938 129.417 182.802 127.948 182.531 126.656C182.281 125.365 181.896 124.281 181.375 123.406C180.854 122.531 180.198 121.865 179.406 121.406C178.635 120.948 177.729 120.719 176.688 120.719C175.625 120.719 174.656 120.958 173.781 121.438C172.906 121.917 172.208 122.635 171.688 123.594C171.188 124.573 170.938 125.771 170.938 127.188C170.938 128.958 171.312 130.521 172.062 131.875C172.812 133.229 173.729 134.302 174.812 135.094C175.896 135.906 176.948 136.344 177.969 136.406L175.188 138.875C174.312 138.729 173.344 138.333 172.281 137.688C171.219 137.042 170.198 136.177 169.219 135.094C168.26 134.031 167.458 132.76 166.812 131.281C166.188 129.823 165.875 128.177 165.875 126.344C165.875 124.052 166.323 122.042 167.219 120.313C168.115 118.604 169.312 117.271 170.812 116.313C172.333 115.375 174.031 114.906 175.906 114.906C177.719 114.906 179.312 115.26 180.688 115.969C182.083 116.677 183.24 117.698 184.156 119.031C185.094 120.365 185.802 121.969 186.281 123.844C186.76 125.719 187 127.812 187 130.125V136.844ZM172.5 159.281L200.312 167.969V171.781L194.781 171.031L166.5 162.188V158.469L172.5 159.281ZM200.312 153.438L172.188 160.844L166.5 161.375V157.469L200.312 147.656V153.438ZM172.406 180.094L200.312 187.156V192.906L166.5 183.094V179.219L172.406 180.094ZM200.312 172.625L172.969 181.125L166.5 182.094V178.406L194.844 169.312L200.312 168.562V172.625ZM165.875 212.875C165.875 210.521 166.271 208.385 167.062 206.469C167.875 204.573 169.01 202.938 170.469 201.562C171.927 200.208 173.656 199.167 175.656 198.438C177.656 197.708 179.844 197.344 182.219 197.344H183.531C186.281 197.344 188.729 197.75 190.875 198.562C193.042 199.375 194.875 200.479 196.375 201.875C197.875 203.271 199.01 204.854 199.781 206.625C200.552 208.396 200.938 210.229 200.938 212.125C200.938 214.542 200.521 216.625 199.688 218.375C198.854 220.146 197.688 221.594 196.188 222.719C194.708 223.844 192.958 224.677 190.938 225.219C188.938 225.76 186.75 226.031 184.375 226.031H181.781V200.781H186.5V220.25H186.938C188.438 220.167 189.896 219.854 191.312 219.312C192.729 218.792 193.896 217.958 194.812 216.812C195.729 215.667 196.188 214.104 196.188 212.125C196.188 210.812 195.906 209.604 195.344 208.5C194.802 207.396 193.99 206.448 192.906 205.656C191.823 204.865 190.5 204.25 188.938 203.812C187.375 203.375 185.573 203.156 183.531 203.156H182.219C180.615 203.156 179.104 203.375 177.688 203.812C176.292 204.271 175.062 204.927 174 205.781C172.938 206.656 172.104 207.708 171.5 208.938C170.896 210.188 170.594 211.604 170.594 213.188C170.594 215.229 171.01 216.958 171.844 218.375C172.677 219.792 173.792 221.031 175.188 222.094L172.406 225.594C171.302 224.865 170.25 223.938 169.25 222.812C168.25 221.688 167.438 220.302 166.812 218.656C166.188 217.031 165.875 215.104 165.875 212.875ZM175.469 252.469C176.302 252.469 177.073 252.281 177.781 251.906C178.51 251.552 179.167 250.812 179.75 249.688C180.354 248.583 180.875 246.917 181.312 244.688C181.708 242.812 182.177 241.115 182.719 239.594C183.26 238.094 183.917 236.812 184.688 235.75C185.458 234.708 186.365 233.906 187.406 233.344C188.448 232.781 189.667 232.5 191.062 232.5C192.396 232.5 193.656 232.792 194.844 233.375C196.031 233.979 197.083 234.823 198 235.906C198.917 237.01 199.635 238.333 200.156 239.875C200.677 241.417 200.938 243.135 200.938 245.031C200.938 247.74 200.458 250.052 199.5 251.969C198.542 253.885 197.26 255.354 195.656 256.375C194.073 257.396 192.312 257.906 190.375 257.906V252.125C191.312 252.125 192.219 251.844 193.094 251.281C193.99 250.74 194.729 249.938 195.312 248.875C195.896 247.833 196.188 246.552 196.188 245.031C196.188 243.427 195.938 242.125 195.438 241.125C194.958 240.146 194.344 239.427 193.594 238.969C192.844 238.531 192.052 238.312 191.219 238.312C190.594 238.312 190.031 238.417 189.531 238.625C189.052 238.854 188.604 239.25 188.188 239.812C187.792 240.375 187.417 241.167 187.062 242.188C186.708 243.208 186.354 244.51 186 246.094C185.375 248.865 184.625 251.146 183.75 252.938C182.875 254.729 181.802 256.062 180.531 256.938C179.26 257.812 177.719 258.25 175.906 258.25C174.427 258.25 173.073 257.938 171.844 257.312C170.615 256.708 169.552 255.823 168.656 254.656C167.781 253.51 167.094 252.135 166.594 250.531C166.115 248.948 165.875 247.167 165.875 245.188C165.875 242.208 166.406 239.688 167.469 237.625C168.531 235.562 169.906 234 171.594 232.938C173.281 231.875 175.062 231.344 176.938 231.344V237.156C175.354 237.24 174.094 237.698 173.156 238.531C172.24 239.365 171.583 240.385 171.188 241.594C170.812 242.802 170.625 244 170.625 245.188C170.625 246.771 170.833 248.094 171.25 249.156C171.667 250.24 172.24 251.062 172.969 251.625C173.698 252.188 174.531 252.469 175.469 252.469ZM183.031 264.312H183.75C186.188 264.312 188.448 264.667 190.531 265.375C192.635 266.083 194.458 267.104 196 268.438C197.562 269.771 198.771 271.385 199.625 273.281C200.5 275.177 200.938 277.302 200.938 279.656C200.938 282.031 200.5 284.167 199.625 286.062C198.771 287.979 197.562 289.604 196 290.938C194.458 292.292 192.635 293.323 190.531 294.031C188.448 294.74 186.188 295.094 183.75 295.094H183.031C180.594 295.094 178.333 294.74 176.25 294.031C174.167 293.323 172.344 292.292 170.781 290.938C169.24 289.604 168.031 287.99 167.156 286.094C166.302 284.219 165.875 282.094 165.875 279.719C165.875 277.344 166.302 275.208 167.156 273.312C168.031 271.417 169.24 269.792 170.781 268.438C172.344 267.104 174.167 266.083 176.25 265.375C178.333 264.667 180.594 264.312 183.031 264.312ZM183.75 270.094H183.031C181.344 270.094 179.75 270.292 178.25 270.688C176.771 271.083 175.458 271.677 174.312 272.469C173.167 273.281 172.26 274.292 171.594 275.5C170.948 276.708 170.625 278.115 170.625 279.719C170.625 281.302 170.948 282.688 171.594 283.875C172.26 285.083 173.167 286.083 174.312 286.875C175.458 287.667 176.771 288.26 178.25 288.656C179.75 289.073 181.344 289.281 183.031 289.281H183.75C185.417 289.281 186.99 289.073 188.469 288.656C189.969 288.26 191.292 287.656 192.438 286.844C193.604 286.052 194.521 285.052 195.188 283.844C195.854 282.656 196.188 281.26 196.188 279.656C196.188 278.073 195.854 276.677 195.188 275.469C194.521 274.281 193.604 273.281 192.438 272.469C191.292 271.677 189.969 271.083 188.469 270.688C186.99 270.292 185.417 270.094 183.75 270.094ZM193.594 308.094H166.5V302.281H200.312V307.781L193.594 308.094ZM184.688 306.906L184.781 304.219C187.094 304.24 189.229 304.542 191.188 305.125C193.167 305.708 194.885 306.573 196.344 307.719C197.802 308.865 198.927 310.292 199.719 312C200.531 313.708 200.938 315.688 200.938 317.938C200.938 319.521 200.708 320.979 200.25 322.312C199.812 323.646 199.115 324.802 198.156 325.781C197.198 326.76 195.969 327.521 194.469 328.062C192.969 328.604 191.156 328.875 189.031 328.875H166.5V323.094H188.75C190.521 323.094 191.938 322.792 193 322.188C194.062 321.604 194.833 320.771 195.312 319.688C195.812 318.604 196.062 317.333 196.062 315.875C196.062 314.167 195.76 312.74 195.156 311.594C194.552 310.448 193.719 309.531 192.656 308.844C191.594 308.156 190.375 307.656 189 307.344C187.646 307.052 186.208 306.906 184.688 306.906ZM187.875 328.812L186.688 324.938C188.542 324.958 190.323 325.26 192.031 325.844C193.74 326.448 195.26 327.312 196.594 328.438C197.927 329.583 198.979 330.99 199.75 332.656C200.542 334.323 200.938 336.229 200.938 338.375C200.938 340.188 200.698 341.792 200.219 343.188C199.74 344.604 199 345.792 198 346.75C197.021 347.729 195.76 348.469 194.219 348.969C192.677 349.469 190.844 349.719 188.719 349.719H166.5V343.906H188.781C190.677 343.906 192.146 343.604 193.188 343C194.25 342.417 194.99 341.583 195.406 340.5C195.844 339.438 196.062 338.167 196.062 336.688C196.062 335.417 195.844 334.292 195.406 333.312C194.969 332.333 194.365 331.51 193.594 330.844C192.844 330.177 191.979 329.667 191 329.312C190.021 328.979 188.979 328.812 187.875 328.812ZM165.875 372.5C165.875 370.146 166.271 368.01 167.063 366.094C167.875 364.198 169.01 362.562 170.469 361.188C171.927 359.833 173.656 358.792 175.656 358.062C177.656 357.333 179.844 356.969 182.219 356.969H183.531C186.281 356.969 188.729 357.375 190.875 358.188C193.042 359 194.875 360.104 196.375 361.5C197.875 362.896 199.01 364.479 199.781 366.25C200.552 368.021 200.938 369.854 200.938 371.75C200.938 374.167 200.521 376.25 199.688 378C198.854 379.771 197.688 381.219 196.188 382.344C194.708 383.469 192.958 384.302 190.938 384.844C188.938 385.385 186.75 385.656 184.375 385.656H181.781V360.406H186.5V379.875H186.938C188.438 379.792 189.896 379.479 191.312 378.938C192.729 378.417 193.896 377.583 194.812 376.438C195.729 375.292 196.188 373.729 196.188 371.75C196.188 370.438 195.906 369.229 195.344 368.125C194.802 367.021 193.99 366.073 192.906 365.281C191.823 364.49 190.5 363.875 188.938 363.438C187.375 363 185.573 362.781 183.531 362.781H182.219C180.615 362.781 179.104 363 177.688 363.438C176.292 363.896 175.062 364.552 174 365.406C172.938 366.281 172.104 367.333 171.5 368.562C170.896 369.812 170.594 371.229 170.594 372.812C170.594 374.854 171.01 376.583 171.844 378C172.677 379.417 173.792 380.656 175.188 381.719L172.406 385.219C171.302 384.49 170.25 383.562 169.25 382.438C168.25 381.312 167.438 379.927 166.813 378.281C166.188 376.656 165.875 374.729 165.875 372.5Z" fill="white" fill-opacity="0.5"/>
<path d="M338.061 433.061C338.646 432.475 338.646 431.525 338.061 430.939L328.515 421.393C327.929 420.808 326.979 420.808 326.393 421.393C325.808 421.979 325.808 422.929 326.393 423.515L334.879 432L326.393 440.485C325.808 441.071 325.808 442.021 326.393 442.607C326.979 443.192 327.929 443.192 328.515 442.607L338.061 433.061ZM137 433.5H337V430.5H137V433.5Z" fill="#FC8C25"/>
<path d="M167.34 410V425H165.523V410H167.34ZM172.203 414.434V425H170.387V414.434H172.203ZM170.25 411.631C170.25 411.338 170.338 411.09 170.514 410.889C170.696 410.687 170.963 410.586 171.314 410.586C171.66 410.586 171.923 410.687 172.105 410.889C172.294 411.09 172.389 411.338 172.389 411.631C172.389 411.911 172.294 412.152 172.105 412.354C171.923 412.549 171.66 412.646 171.314 412.646C170.963 412.646 170.696 412.549 170.514 412.354C170.338 412.152 170.25 411.911 170.25 411.631ZM176.91 416.689V425H175.104V414.434H176.812L176.91 416.689ZM176.48 419.316L175.729 419.287C175.735 418.564 175.842 417.897 176.051 417.285C176.259 416.667 176.552 416.13 176.93 415.674C177.307 415.218 177.757 414.867 178.277 414.619C178.805 414.365 179.387 414.238 180.025 414.238C180.546 414.238 181.015 414.31 181.432 414.453C181.848 414.59 182.203 414.811 182.496 415.117C182.796 415.423 183.023 415.82 183.18 416.309C183.336 416.79 183.414 417.38 183.414 418.076V425H181.598V418.057C181.598 417.503 181.516 417.061 181.354 416.729C181.191 416.39 180.953 416.146 180.641 415.996C180.328 415.84 179.944 415.762 179.488 415.762C179.039 415.762 178.629 415.856 178.258 416.045C177.893 416.234 177.577 416.494 177.311 416.826C177.05 417.158 176.845 417.539 176.695 417.969C176.552 418.392 176.48 418.841 176.48 419.316ZM190.543 425.195C189.807 425.195 189.14 425.072 188.541 424.824C187.949 424.57 187.438 424.215 187.008 423.76C186.585 423.304 186.259 422.764 186.031 422.139C185.803 421.514 185.689 420.83 185.689 420.088V419.678C185.689 418.818 185.816 418.053 186.07 417.383C186.324 416.706 186.669 416.133 187.105 415.664C187.542 415.195 188.036 414.84 188.59 414.6C189.143 414.359 189.716 414.238 190.309 414.238C191.064 414.238 191.715 414.368 192.262 414.629C192.815 414.889 193.268 415.254 193.619 415.723C193.971 416.185 194.231 416.732 194.4 417.363C194.57 417.988 194.654 418.672 194.654 419.414V420.225H186.764V418.75H192.848V418.613C192.822 418.145 192.724 417.689 192.555 417.246C192.392 416.803 192.132 416.439 191.773 416.152C191.415 415.866 190.927 415.723 190.309 415.723C189.898 415.723 189.521 415.811 189.176 415.986C188.831 416.156 188.535 416.41 188.287 416.748C188.04 417.087 187.848 417.5 187.711 417.988C187.574 418.477 187.506 419.04 187.506 419.678V420.088C187.506 420.589 187.574 421.061 187.711 421.504C187.854 421.94 188.059 422.324 188.326 422.656C188.6 422.988 188.928 423.249 189.312 423.438C189.703 423.626 190.146 423.721 190.641 423.721C191.279 423.721 191.819 423.59 192.262 423.33C192.704 423.07 193.092 422.721 193.424 422.285L194.518 423.154C194.29 423.499 194 423.828 193.648 424.141C193.297 424.453 192.864 424.707 192.35 424.902C191.842 425.098 191.24 425.195 190.543 425.195ZM201.246 419.834V419.609C201.246 418.848 201.357 418.141 201.578 417.49C201.799 416.833 202.118 416.263 202.535 415.781C202.952 415.293 203.456 414.915 204.049 414.648C204.641 414.375 205.305 414.238 206.041 414.238C206.783 414.238 207.451 414.375 208.043 414.648C208.642 414.915 209.15 415.293 209.566 415.781C209.99 416.263 210.312 416.833 210.533 417.49C210.755 418.141 210.865 418.848 210.865 419.609V419.834C210.865 420.596 210.755 421.302 210.533 421.953C210.312 422.604 209.99 423.174 209.566 423.662C209.15 424.144 208.645 424.521 208.053 424.795C207.467 425.062 206.803 425.195 206.061 425.195C205.318 425.195 204.651 425.062 204.059 424.795C203.466 424.521 202.958 424.144 202.535 423.662C202.118 423.174 201.799 422.604 201.578 421.953C201.357 421.302 201.246 420.596 201.246 419.834ZM203.053 419.609V419.834C203.053 420.361 203.115 420.859 203.238 421.328C203.362 421.79 203.548 422.201 203.795 422.559C204.049 422.917 204.365 423.2 204.742 423.408C205.12 423.61 205.559 423.711 206.061 423.711C206.555 423.711 206.988 423.61 207.359 423.408C207.737 423.2 208.049 422.917 208.297 422.559C208.544 422.201 208.73 421.79 208.854 421.328C208.984 420.859 209.049 420.361 209.049 419.834V419.609C209.049 419.089 208.984 418.597 208.854 418.135C208.73 417.666 208.541 417.253 208.287 416.895C208.04 416.53 207.727 416.243 207.35 416.035C206.979 415.827 206.542 415.723 206.041 415.723C205.546 415.723 205.11 415.827 204.732 416.035C204.361 416.243 204.049 416.53 203.795 416.895C203.548 417.253 203.362 417.666 203.238 418.135C203.115 418.597 203.053 419.089 203.053 419.609ZM214.938 416.094V425H213.131V414.434H214.889L214.938 416.094ZM218.238 414.375L218.229 416.055C218.079 416.022 217.936 416.003 217.799 415.996C217.669 415.983 217.519 415.977 217.35 415.977C216.933 415.977 216.565 416.042 216.246 416.172C215.927 416.302 215.657 416.484 215.436 416.719C215.214 416.953 215.038 417.233 214.908 417.559C214.785 417.878 214.703 418.229 214.664 418.613L214.156 418.906C214.156 418.268 214.218 417.669 214.342 417.109C214.472 416.549 214.671 416.055 214.938 415.625C215.204 415.189 215.543 414.85 215.953 414.609C216.37 414.362 216.865 414.238 217.438 414.238C217.568 414.238 217.717 414.255 217.887 414.287C218.056 414.313 218.173 414.342 218.238 414.375ZM221.871 414.434V425H220.055V414.434H221.871ZM219.918 411.631C219.918 411.338 220.006 411.09 220.182 410.889C220.364 410.687 220.631 410.586 220.982 410.586C221.327 410.586 221.591 410.687 221.773 410.889C221.962 411.09 222.057 411.338 222.057 411.631C222.057 411.911 221.962 412.152 221.773 412.354C221.591 412.549 221.327 412.646 220.982 412.646C220.631 412.646 220.364 412.549 220.182 412.354C220.006 412.152 219.918 411.911 219.918 411.631ZM229.156 425.195C228.421 425.195 227.753 425.072 227.154 424.824C226.562 424.57 226.051 424.215 225.621 423.76C225.198 423.304 224.872 422.764 224.645 422.139C224.417 421.514 224.303 420.83 224.303 420.088V419.678C224.303 418.818 224.43 418.053 224.684 417.383C224.938 416.706 225.283 416.133 225.719 415.664C226.155 415.195 226.65 414.84 227.203 414.6C227.757 414.359 228.329 414.238 228.922 414.238C229.677 414.238 230.328 414.368 230.875 414.629C231.428 414.889 231.881 415.254 232.232 415.723C232.584 416.185 232.844 416.732 233.014 417.363C233.183 417.988 233.268 418.672 233.268 419.414V420.225H225.377V418.75H231.461V418.613C231.435 418.145 231.337 417.689 231.168 417.246C231.005 416.803 230.745 416.439 230.387 416.152C230.029 415.866 229.54 415.723 228.922 415.723C228.512 415.723 228.134 415.811 227.789 415.986C227.444 416.156 227.148 416.41 226.9 416.748C226.653 417.087 226.461 417.5 226.324 417.988C226.188 418.477 226.119 419.04 226.119 419.678V420.088C226.119 420.589 226.188 421.061 226.324 421.504C226.467 421.94 226.673 422.324 226.939 422.656C227.213 422.988 227.542 423.249 227.926 423.438C228.316 423.626 228.759 423.721 229.254 423.721C229.892 423.721 230.432 423.59 230.875 423.33C231.318 423.07 231.705 422.721 232.037 422.285L233.131 423.154C232.903 423.499 232.613 423.828 232.262 424.141C231.91 424.453 231.477 424.707 230.963 424.902C230.455 425.098 229.853 425.195 229.156 425.195ZM237.184 416.689V425H235.377V414.434H237.086L237.184 416.689ZM236.754 419.316L236.002 419.287C236.008 418.564 236.116 417.897 236.324 417.285C236.533 416.667 236.826 416.13 237.203 415.674C237.581 415.218 238.03 414.867 238.551 414.619C239.078 414.365 239.661 414.238 240.299 414.238C240.82 414.238 241.288 414.31 241.705 414.453C242.122 414.59 242.477 414.811 242.77 415.117C243.069 415.423 243.297 415.82 243.453 416.309C243.609 416.79 243.688 417.38 243.688 418.076V425H241.871V418.057C241.871 417.503 241.79 417.061 241.627 416.729C241.464 416.39 241.227 416.146 240.914 415.996C240.602 415.84 240.217 415.762 239.762 415.762C239.312 415.762 238.902 415.856 238.531 416.045C238.167 416.234 237.851 416.494 237.584 416.826C237.324 417.158 237.118 417.539 236.969 417.969C236.826 418.392 236.754 418.841 236.754 419.316ZM250.855 414.434V415.82H245.143V414.434H250.855ZM247.076 411.865H248.883V422.383C248.883 422.741 248.938 423.011 249.049 423.193C249.16 423.376 249.303 423.496 249.479 423.555C249.654 423.613 249.843 423.643 250.045 423.643C250.195 423.643 250.351 423.63 250.514 423.604C250.683 423.571 250.81 423.545 250.895 423.525L250.904 425C250.761 425.046 250.572 425.088 250.338 425.127C250.11 425.173 249.833 425.195 249.508 425.195C249.065 425.195 248.658 425.107 248.287 424.932C247.916 424.756 247.62 424.463 247.398 424.053C247.184 423.636 247.076 423.076 247.076 422.373V411.865ZM259.205 423.193V417.754C259.205 417.337 259.12 416.976 258.951 416.67C258.788 416.357 258.541 416.117 258.209 415.947C257.877 415.778 257.467 415.693 256.979 415.693C256.523 415.693 256.122 415.771 255.777 415.928C255.439 416.084 255.172 416.289 254.977 416.543C254.788 416.797 254.693 417.07 254.693 417.363H252.887C252.887 416.986 252.984 416.611 253.18 416.24C253.375 415.869 253.655 415.534 254.02 415.234C254.391 414.928 254.833 414.688 255.348 414.512C255.868 414.329 256.448 414.238 257.086 414.238C257.854 414.238 258.531 414.368 259.117 414.629C259.71 414.889 260.172 415.283 260.504 415.811C260.842 416.331 261.012 416.986 261.012 417.773V422.695C261.012 423.047 261.041 423.421 261.1 423.818C261.165 424.215 261.259 424.557 261.383 424.844V425H259.498C259.407 424.792 259.335 424.515 259.283 424.17C259.231 423.818 259.205 423.493 259.205 423.193ZM259.518 418.594L259.537 419.863H257.711C257.197 419.863 256.738 419.906 256.334 419.99C255.93 420.068 255.592 420.189 255.318 420.352C255.045 420.514 254.837 420.719 254.693 420.967C254.55 421.208 254.479 421.491 254.479 421.816C254.479 422.148 254.553 422.451 254.703 422.725C254.853 422.998 255.077 423.216 255.377 423.379C255.683 423.535 256.057 423.613 256.5 423.613C257.053 423.613 257.542 423.496 257.965 423.262C258.388 423.027 258.723 422.741 258.971 422.402C259.225 422.064 259.361 421.735 259.381 421.416L260.152 422.285C260.107 422.559 259.983 422.861 259.781 423.193C259.579 423.525 259.309 423.844 258.971 424.15C258.639 424.45 258.242 424.701 257.779 424.902C257.324 425.098 256.809 425.195 256.236 425.195C255.52 425.195 254.892 425.055 254.352 424.775C253.818 424.495 253.401 424.121 253.102 423.652C252.809 423.177 252.662 422.646 252.662 422.061C252.662 421.494 252.773 420.996 252.994 420.566C253.215 420.13 253.535 419.769 253.951 419.482C254.368 419.189 254.869 418.968 255.455 418.818C256.041 418.669 256.695 418.594 257.418 418.594H259.518ZM268.277 414.434V415.82H262.564V414.434H268.277ZM264.498 411.865H266.305V422.383C266.305 422.741 266.36 423.011 266.471 423.193C266.581 423.376 266.725 423.496 266.9 423.555C267.076 423.613 267.265 423.643 267.467 423.643C267.617 423.643 267.773 423.63 267.936 423.604C268.105 423.571 268.232 423.545 268.316 423.525L268.326 425C268.183 425.046 267.994 425.088 267.76 425.127C267.532 425.173 267.255 425.195 266.93 425.195C266.487 425.195 266.08 425.107 265.709 424.932C265.338 424.756 265.042 424.463 264.82 424.053C264.605 423.636 264.498 423.076 264.498 422.373V411.865ZM272.359 414.434V425H270.543V414.434H272.359ZM270.406 411.631C270.406 411.338 270.494 411.09 270.67 410.889C270.852 410.687 271.119 410.586 271.471 410.586C271.816 410.586 272.079 410.687 272.262 410.889C272.451 411.09 272.545 411.338 272.545 411.631C272.545 411.911 272.451 412.152 272.262 412.354C272.079 412.549 271.816 412.646 271.471 412.646C271.119 412.646 270.852 412.549 270.67 412.354C270.494 412.152 270.406 411.911 270.406 411.631ZM274.781 419.834V419.609C274.781 418.848 274.892 418.141 275.113 417.49C275.335 416.833 275.654 416.263 276.07 415.781C276.487 415.293 276.992 414.915 277.584 414.648C278.176 414.375 278.84 414.238 279.576 414.238C280.318 414.238 280.986 414.375 281.578 414.648C282.177 414.915 282.685 415.293 283.102 415.781C283.525 416.263 283.847 416.833 284.068 417.49C284.29 418.141 284.4 418.848 284.4 419.609V419.834C284.4 420.596 284.29 421.302 284.068 421.953C283.847 422.604 283.525 423.174 283.102 423.662C282.685 424.144 282.18 424.521 281.588 424.795C281.002 425.062 280.338 425.195 279.596 425.195C278.854 425.195 278.186 425.062 277.594 424.795C277.001 424.521 276.493 424.144 276.07 423.662C275.654 423.174 275.335 422.604 275.113 421.953C274.892 421.302 274.781 420.596 274.781 419.834ZM276.588 419.609V419.834C276.588 420.361 276.65 420.859 276.773 421.328C276.897 421.79 277.083 422.201 277.33 422.559C277.584 422.917 277.9 423.2 278.277 423.408C278.655 423.61 279.094 423.711 279.596 423.711C280.09 423.711 280.523 423.61 280.895 423.408C281.272 423.2 281.585 422.917 281.832 422.559C282.079 422.201 282.265 421.79 282.389 421.328C282.519 420.859 282.584 420.361 282.584 419.834V419.609C282.584 419.089 282.519 418.597 282.389 418.135C282.265 417.666 282.076 417.253 281.822 416.895C281.575 416.53 281.262 416.243 280.885 416.035C280.514 415.827 280.077 415.723 279.576 415.723C279.081 415.723 278.645 415.827 278.268 416.035C277.896 416.243 277.584 416.53 277.33 416.895C277.083 417.253 276.897 417.666 276.773 418.135C276.65 418.597 276.588 419.089 276.588 419.609ZM288.473 416.689V425H286.666V414.434H288.375L288.473 416.689ZM288.043 419.316L287.291 419.287C287.298 418.564 287.405 417.897 287.613 417.285C287.822 416.667 288.115 416.13 288.492 415.674C288.87 415.218 289.319 414.867 289.84 414.619C290.367 414.365 290.95 414.238 291.588 414.238C292.109 414.238 292.577 414.31 292.994 414.453C293.411 414.59 293.766 414.811 294.059 415.117C294.358 415.423 294.586 415.82 294.742 416.309C294.898 416.79 294.977 417.38 294.977 418.076V425H293.16V418.057C293.16 417.503 293.079 417.061 292.916 416.729C292.753 416.39 292.516 416.146 292.203 415.996C291.891 415.84 291.507 415.762 291.051 415.762C290.602 415.762 290.191 415.856 289.82 416.045C289.456 416.234 289.14 416.494 288.873 416.826C288.613 417.158 288.408 417.539 288.258 417.969C288.115 418.392 288.043 418.841 288.043 419.316Z" fill="#FC8C25"/>
</svg>
