<svg width="500" height="500" viewBox="0 0 500 500" fill="none" xmlns="http://www.w3.org/2000/svg">
<path d="M34.0195 112.012H15V108.742H34.0195V112.012ZM39.0645 108.496C39.5918 108.496 40.0371 108.654 40.4004 108.971C40.7637 109.299 40.9453 109.779 40.9453 110.412C40.9453 111.033 40.7637 111.508 40.4004 111.836C40.0371 112.176 39.5918 112.346 39.0645 112.346C38.5605 112.346 38.127 112.176 37.7637 111.836C37.4121 111.508 37.2363 111.033 37.2363 110.412C37.2363 109.779 37.4121 109.299 37.7637 108.971C38.127 108.654 38.5605 108.496 39.0645 108.496ZM29.959 120.484H15V117.232H34.0195V120.309L29.959 120.484ZM25.2305 119.711L25.2832 118.357C26.584 118.369 27.7852 118.562 28.8867 118.938C30 119.312 30.9668 119.84 31.7871 120.52C32.6074 121.199 33.2402 122.008 33.6855 122.945C34.1426 123.895 34.3711 124.943 34.3711 126.092C34.3711 127.029 34.2422 127.873 33.9844 128.623C33.7383 129.373 33.3398 130.012 32.7891 130.539C32.2383 131.078 31.5234 131.488 30.6445 131.77C29.7773 132.051 28.7168 132.191 27.4629 132.191H15V128.922H27.498C28.4941 128.922 29.291 128.775 29.8887 128.482C30.498 128.189 30.9375 127.762 31.207 127.199C31.4883 126.637 31.6289 125.945 31.6289 125.125C31.6289 124.316 31.459 123.578 31.1191 122.91C30.7793 122.254 30.3105 121.686 29.7129 121.205C29.1152 120.736 28.4297 120.367 27.6562 120.098C26.8945 119.84 26.0859 119.711 25.2305 119.711ZM42 140.664H15V137.395H42V140.664ZM34.0195 149.418H15V146.148H34.0195V149.418ZM39.0645 145.902C39.5918 145.902 40.0371 146.061 40.4004 146.377C40.7637 146.705 40.9453 147.186 40.9453 147.818C40.9453 148.439 40.7637 148.914 40.4004 149.242C40.0371 149.582 39.5918 149.752 39.0645 149.752C38.5605 149.752 38.127 149.582 37.7637 149.242C37.4121 148.914 37.2363 148.439 37.2363 147.818C37.2363 147.186 37.4121 146.705 37.7637 146.377C38.127 146.061 38.5605 145.902 39.0645 145.902ZM29.959 157.891H15V154.639H34.0195V157.715L29.959 157.891ZM25.2305 157.117L25.2832 155.764C26.584 155.775 27.7852 155.969 28.8867 156.344C30 156.719 30.9668 157.246 31.7871 157.926C32.6074 158.605 33.2402 159.414 33.6855 160.352C34.1426 161.301 34.3711 162.35 34.3711 163.498C34.3711 164.436 34.2422 165.279 33.9844 166.029C33.7383 166.779 33.3398 167.418 32.7891 167.945C32.2383 168.484 31.5234 168.895 30.6445 169.176C29.7773 169.457 28.7168 169.598 27.4629 169.598H15V166.328H27.498C28.4941 166.328 29.291 166.182 29.8887 165.889C30.498 165.596 30.9375 165.168 31.207 164.605C31.4883 164.043 31.6289 163.352 31.6289 162.531C31.6289 161.723 31.459 160.984 31.1191 160.316C30.7793 159.66 30.3105 159.092 29.7129 158.611C29.1152 158.143 28.4297 157.773 27.6563 157.504C26.8945 157.246 26.0859 157.117 25.2305 157.117ZM14.6484 182.43C14.6484 181.105 14.8711 179.904 15.3164 178.826C15.7734 177.76 16.4121 176.84 17.2324 176.066C18.0527 175.305 19.0254 174.719 20.1504 174.309C21.2754 173.898 22.5059 173.693 23.8418 173.693H24.5801C26.127 173.693 27.5039 173.922 28.7109 174.379C29.9297 174.836 30.9609 175.457 31.8047 176.242C32.6484 177.027 33.2871 177.918 33.7207 178.914C34.1543 179.91 34.3711 180.941 34.3711 182.008C34.3711 183.367 34.1367 184.539 33.668 185.523C33.1992 186.52 32.543 187.334 31.6992 187.967C30.8672 188.6 29.8828 189.068 28.7461 189.373C27.6211 189.678 26.3906 189.83 25.0547 189.83H23.5957V175.627H26.25V186.578H26.4961C27.3398 186.531 28.1602 186.355 28.957 186.051C29.7539 185.758 30.4102 185.289 30.9258 184.645C31.4414 184 31.6992 183.121 31.6992 182.008C31.6992 181.27 31.541 180.59 31.2246 179.969C30.9199 179.348 30.4629 178.814 29.8535 178.369C29.2441 177.924 28.5 177.578 27.6211 177.332C26.7422 177.086 25.7285 176.963 24.5801 176.963H23.8418C22.9395 176.963 22.0898 177.086 21.293 177.332C20.5078 177.59 19.8164 177.959 19.2188 178.439C18.6211 178.932 18.1523 179.523 17.8125 180.215C17.4727 180.918 17.3027 181.715 17.3027 182.605C17.3027 183.754 17.5371 184.727 18.0059 185.523C18.4746 186.32 19.1016 187.018 19.8867 187.615L18.3223 189.584C17.7012 189.174 17.1094 188.652 16.5469 188.02C15.9844 187.387 15.5273 186.607 15.1758 185.682C14.8242 184.768 14.6484 183.684 14.6484 182.43ZM18.6914 214.545H42V217.814H15V214.826L18.6914 214.545ZM24.2988 201.748H24.668C26.1211 201.748 27.4395 201.924 28.623 202.275C29.8184 202.639 30.8438 203.148 31.6992 203.805C32.5547 204.473 33.2109 205.264 33.668 206.178C34.1367 207.104 34.3711 208.135 34.3711 209.271C34.3711 210.467 34.1602 211.51 33.7383 212.4C33.3281 213.303 32.7246 214.064 31.9277 214.686C31.1426 215.318 30.1934 215.816 29.0801 216.18C27.9668 216.543 26.707 216.795 25.3008 216.936H23.6836C22.2891 216.807 21.0352 216.555 19.9219 216.18C18.8086 215.816 17.8594 215.318 17.0742 214.686C16.2891 214.064 15.6855 213.303 15.2637 212.4C14.8535 211.498 14.6484 210.443 14.6484 209.236C14.6484 208.123 14.8887 207.104 15.3691 206.178C15.8496 205.264 16.5234 204.473 17.3906 203.805C18.2578 203.148 19.2773 202.639 20.4492 202.275C21.6328 201.924 22.916 201.748 24.2988 201.748ZM24.668 205.018H24.2988C23.3496 205.018 22.459 205.111 21.627 205.299C20.7949 205.498 20.0625 205.803 19.4297 206.213C18.7969 206.623 18.2988 207.145 17.9355 207.777C17.584 208.41 17.4082 209.166 17.4082 210.045C17.4082 211.123 17.6367 212.008 18.0938 212.699C18.5508 213.402 19.1543 213.965 19.9043 214.387C20.6543 214.809 21.4688 215.137 22.3477 215.371H26.584C27.2285 215.23 27.8496 215.025 28.4473 214.756C29.0566 214.498 29.5957 214.158 30.0645 213.736C30.5449 213.326 30.9258 212.816 31.207 212.207C31.4883 211.609 31.6289 210.9 31.6289 210.08C31.6289 209.189 31.4414 208.422 31.0664 207.777C30.7031 207.145 30.1992 206.623 29.5547 206.213C28.9219 205.803 28.1836 205.498 27.3398 205.299C26.5078 205.111 25.6172 205.018 24.668 205.018ZM34.0195 226.41H15V223.141H34.0195V226.41ZM39.0645 222.895C39.5918 222.895 40.0371 223.053 40.4004 223.369C40.7637 223.697 40.9453 224.178 40.9453 224.811C40.9453 225.432 40.7637 225.906 40.4004 226.234C40.0371 226.574 39.5918 226.744 39.0645 226.744C38.5605 226.744 38.127 226.574 37.7637 226.234C37.4121 225.906 37.2363 225.432 37.2363 224.811C37.2363 224.178 37.4121 223.697 37.7637 223.369C38.127 223.053 38.5605 222.895 39.0645 222.895ZM31.0313 234.883H15V231.631H34.0195V234.795L31.0313 234.883ZM34.125 240.824L31.1016 240.807C31.1602 240.537 31.1953 240.279 31.207 240.033C31.2305 239.799 31.2422 239.529 31.2422 239.225C31.2422 238.475 31.125 237.812 30.8906 237.238C30.6563 236.664 30.3281 236.178 29.9063 235.779C29.4844 235.381 28.9805 235.064 28.3945 234.83C27.8203 234.607 27.1875 234.461 26.4961 234.391L25.9688 233.477C27.1172 233.477 28.1953 233.588 29.2031 233.811C30.2109 234.045 31.1016 234.402 31.875 234.883C32.6602 235.363 33.2695 235.973 33.7031 236.711C34.1484 237.461 34.3711 238.352 34.3711 239.383C34.3711 239.617 34.3418 239.887 34.2832 240.191C34.2363 240.496 34.1836 240.707 34.125 240.824ZM14.6484 251.371C14.6484 250.047 14.8711 248.846 15.3164 247.768C15.7734 246.701 16.4121 245.781 17.2324 245.008C18.0527 244.246 19.0254 243.66 20.1504 243.25C21.2754 242.84 22.5059 242.635 23.8418 242.635H24.5801C26.127 242.635 27.5039 242.863 28.7109 243.32C29.9297 243.777 30.9609 244.398 31.8047 245.184C32.6484 245.969 33.2871 246.859 33.7207 247.855C34.1543 248.852 34.3711 249.883 34.3711 250.949C34.3711 252.309 34.1367 253.48 33.668 254.465C33.1992 255.461 32.543 256.275 31.6992 256.908C30.8672 257.541 29.8828 258.01 28.7461 258.314C27.6211 258.619 26.3906 258.771 25.0547 258.771H23.5957L23.5957 244.568H26.25L26.25 255.52H26.4961C27.3398 255.473 28.1602 255.297 28.957 254.992C29.7539 254.699 30.4102 254.23 30.9258 253.586C31.4414 252.941 31.6992 252.062 31.6992 250.949C31.6992 250.211 31.541 249.531 31.2246 248.91C30.9199 248.289 30.4629 247.756 29.8535 247.311C29.2441 246.865 28.5 246.52 27.6211 246.273C26.7422 246.027 25.7285 245.904 24.5801 245.904H23.8418C22.9395 245.904 22.0898 246.027 21.293 246.273C20.5078 246.531 19.8164 246.9 19.2188 247.381C18.6211 247.873 18.1523 248.465 17.8125 249.156C17.4727 249.859 17.3027 250.656 17.3027 251.547C17.3027 252.695 17.5371 253.668 18.0059 254.465C18.4746 255.262 19.1016 255.959 19.8867 256.557L18.3223 258.525C17.7012 258.115 17.1094 257.594 16.5469 256.961C15.9844 256.328 15.5273 255.549 15.1758 254.623C14.8242 253.709 14.6484 252.625 14.6484 251.371ZM17.3203 270.18C17.3203 270.953 17.4785 271.668 17.7949 272.324C18.1113 272.98 18.5449 273.52 19.0957 273.941C19.6582 274.363 20.2969 274.604 21.0117 274.662V277.756C19.8867 277.697 18.8379 277.316 17.8652 276.613C16.9043 275.922 16.125 275.014 15.5273 273.889C14.9414 272.764 14.6484 271.527 14.6484 270.18C14.6484 268.75 14.9004 267.502 15.4043 266.436C15.9082 265.381 16.5996 264.502 17.4785 263.799C18.3574 263.107 19.3652 262.586 20.502 262.234C21.6504 261.895 22.8633 261.725 24.1406 261.725H24.8789C26.1563 261.725 27.3633 261.895 28.5 262.234C29.6484 262.586 30.6621 263.107 31.541 263.799C32.4199 264.502 33.1113 265.381 33.6152 266.436C34.1191 267.502 34.3711 268.75 34.3711 270.18C34.3711 271.668 34.0664 272.969 33.457 274.082C32.8594 275.195 32.0391 276.068 30.9961 276.701C29.9648 277.346 28.793 277.697 27.4805 277.756V274.662C28.2656 274.604 28.9746 274.381 29.6074 273.994C30.2402 273.619 30.7441 273.104 31.1191 272.447C31.5059 271.803 31.6992 271.047 31.6992 270.18C31.6992 269.184 31.5 268.346 31.1016 267.666C30.7148 266.998 30.1875 266.465 29.5195 266.066C28.8633 265.68 28.1309 265.398 27.3223 265.223C26.5254 265.059 25.7109 264.977 24.8789 264.977H24.1406C23.3086 264.977 22.4883 265.059 21.6797 265.223C20.8711 265.387 20.1387 265.662 19.4824 266.049C18.8262 266.447 18.2988 266.98 17.9004 267.648C17.5137 268.328 17.3203 269.172 17.3203 270.18ZM34.0195 289.375H31.5234V279.092H34.0195V289.375ZM38.6426 282.572V285.824H19.7109C19.0664 285.824 18.5801 285.924 18.252 286.123C17.9238 286.322 17.707 286.58 17.6016 286.896C17.4961 287.213 17.4434 287.553 17.4434 287.916C17.4434 288.186 17.4668 288.467 17.5137 288.76C17.5723 289.064 17.6191 289.293 17.6543 289.445L15 289.463C14.918 289.205 14.8418 288.865 14.7715 288.443C14.6895 288.033 14.6484 287.535 14.6484 286.949C14.6484 286.152 14.8066 285.42 15.123 284.752C15.4395 284.084 15.9668 283.551 16.7051 283.152C17.4551 282.766 18.4629 282.572 19.7285 282.572H38.6426ZM34.0195 296.723H15V293.453H34.0195V296.723ZM39.0645 293.207C39.5918 293.207 40.0371 293.365 40.4004 293.682C40.7637 294.01 40.9453 294.49 40.9453 295.123C40.9453 295.744 40.7637 296.219 40.4004 296.547C40.0371 296.887 39.5918 297.057 39.0645 297.057C38.5605 297.057 38.127 296.887 37.7637 296.547C37.4121 296.219 37.2363 295.744 37.2363 295.123C37.2363 294.49 37.4121 294.01 37.7637 293.682C38.127 293.365 38.5605 293.207 39.0645 293.207ZM24.2988 301.082H24.7031C26.0742 301.082 27.3457 301.281 28.5176 301.68C29.7012 302.078 30.7266 302.652 31.5938 303.402C32.4727 304.152 33.1523 305.061 33.6328 306.127C34.125 307.193 34.3711 308.389 34.3711 309.713C34.3711 311.049 34.125 312.25 33.6328 313.316C33.1523 314.395 32.4727 315.309 31.5938 316.059C30.7266 316.82 29.7012 317.4 28.5176 317.799C27.3457 318.197 26.0742 318.396 24.7031 318.396H24.2988C22.9277 318.396 21.6563 318.197 20.4844 317.799C19.3125 317.4 18.2871 316.82 17.4082 316.059C16.541 315.309 15.8613 314.4 15.3691 313.334C14.8887 312.279 14.6484 311.084 14.6484 309.748C14.6484 308.412 14.8887 307.211 15.3691 306.145C15.8613 305.078 16.541 304.164 17.4082 303.402C18.2871 302.652 19.3125 302.078 20.4844 301.68C21.6563 301.281 22.9277 301.082 24.2988 301.082ZM24.7031 304.334H24.2988C23.3496 304.334 22.4531 304.445 21.6094 304.668C20.7773 304.891 20.0391 305.225 19.3945 305.67C18.75 306.127 18.2402 306.695 17.8652 307.375C17.502 308.055 17.3203 308.846 17.3203 309.748C17.3203 310.639 17.502 311.418 17.8652 312.086C18.2402 312.766 18.75 313.328 19.3945 313.773C20.0391 314.219 20.7773 314.553 21.6094 314.775C22.4531 315.01 23.3496 315.127 24.2988 315.127H24.7031C25.6406 315.127 26.5254 315.01 27.3574 314.775C28.2012 314.553 28.9453 314.213 29.5898 313.756C30.2461 313.311 30.7617 312.748 31.1367 312.068C31.5117 311.4 31.6992 310.615 31.6992 309.713C31.6992 308.822 31.5117 308.037 31.1367 307.357C30.7617 306.689 30.2461 306.127 29.5898 305.67C28.9453 305.225 28.2012 304.891 27.3574 304.668C26.5254 304.445 25.6406 304.334 24.7031 304.334ZM29.959 325.727H15V322.475H34.0195V325.551L29.959 325.727ZM25.2305 324.953L25.2832 323.6C26.584 323.611 27.7852 323.805 28.8867 324.18C30 324.555 30.9668 325.082 31.7871 325.762C32.6074 326.441 33.2402 327.25 33.6855 328.188C34.1426 329.137 34.3711 330.186 34.3711 331.334C34.3711 332.271 34.2422 333.115 33.9844 333.865C33.7383 334.615 33.3398 335.254 32.7891 335.781C32.2383 336.32 31.5234 336.73 30.6445 337.012C29.7773 337.293 28.7168 337.434 27.4629 337.434H15V334.164H27.498C28.4941 334.164 29.291 334.018 29.8887 333.725C30.498 333.432 30.9375 333.004 31.207 332.441C31.4883 331.879 31.6289 331.188 31.6289 330.367C31.6289 329.559 31.459 328.82 31.1191 328.152C30.7793 327.496 30.3105 326.928 29.7129 326.447C29.1152 325.979 28.4297 325.609 27.6563 325.34C26.8945 325.082 26.0859 324.953 25.2305 324.953Z" fill="#6C41E7"/>
<path d="M48.9393 451.061C49.5251 451.646 50.4749 451.646 51.0606 451.061L60.6066 441.515C61.1924 440.929 61.1924 439.979 60.6066 439.393C60.0208 438.808 59.0711 438.808 58.4853 439.393L50 447.879L41.5147 439.393C40.9289 438.808 39.9792 438.808 39.3934 439.393C38.8076 439.979 38.8076 440.929 39.3934 441.515L48.9393 451.061ZM48.5 50L48.5 450L51.5 450L51.5 50L48.5 50Z" fill="#6C41E7"/>
<path d="M451.061 51.0607C451.646 50.4749 451.646 49.5251 451.061 48.9393L441.515 39.3934C440.929 38.8076 439.979 38.8076 439.393 39.3934C438.808 39.9792 438.808 40.9289 439.393 41.5147L447.879 50L439.393 58.4853C438.808 59.0711 438.808 60.0208 439.393 60.6066C439.979 61.1924 440.929 61.1924 441.515 60.6066L451.061 51.0607ZM50 51.5H450V48.5H50V51.5Z" fill="#058105"/>
<path d="M127.461 15H130.73V38.3086L130.449 42H127.461V15ZM143.58 32.332V32.7012C143.58 34.084 143.416 35.3672 143.088 36.5508C142.76 37.7227 142.279 38.7422 141.646 39.6094C141.014 40.4766 140.24 41.1504 139.326 41.6309C138.412 42.1113 137.363 42.3516 136.18 42.3516C134.973 42.3516 133.912 42.1465 132.998 41.7363C132.096 41.3145 131.334 40.7109 130.713 39.9258C130.092 39.1406 129.594 38.1914 129.219 37.0781C128.855 35.9648 128.604 34.7109 128.463 33.3164V31.6992C128.604 30.293 128.855 29.0332 129.219 27.9199C129.594 26.8066 130.092 25.8574 130.713 25.0723C131.334 24.2754 132.096 23.6719 132.998 23.2617C133.9 22.8398 134.949 22.6289 136.145 22.6289C137.34 22.6289 138.4 22.8633 139.326 23.332C140.252 23.7891 141.025 24.4453 141.646 25.3008C142.279 26.1562 142.76 27.1816 143.088 28.377C143.416 29.5605 143.58 30.8789 143.58 32.332ZM140.311 32.7012V32.332C140.311 31.3828 140.223 30.4922 140.047 29.6602C139.871 28.8164 139.59 28.0781 139.203 27.4453C138.816 26.8008 138.307 26.2969 137.674 25.9336C137.041 25.5586 136.262 25.3711 135.336 25.3711C134.516 25.3711 133.801 25.5117 133.191 25.793C132.594 26.0742 132.084 26.4551 131.662 26.9355C131.24 27.4043 130.895 27.9434 130.625 28.5527C130.367 29.1504 130.174 29.7715 130.045 30.416V34.6523C130.232 35.4727 130.537 36.2637 130.959 37.0254C131.393 37.7754 131.967 38.3906 132.682 38.8711C133.408 39.3516 134.305 39.5918 135.371 39.5918C136.25 39.5918 137 39.416 137.621 39.0645C138.254 38.7012 138.764 38.2031 139.15 37.5703C139.549 36.9375 139.842 36.2051 140.029 35.373C140.217 34.541 140.311 33.6504 140.311 32.7012ZM151.227 15V42H147.957V15H151.227ZM155.586 32.7012V32.2969C155.586 30.9258 155.785 29.6543 156.184 28.4824C156.582 27.2988 157.156 26.2734 157.906 25.4062C158.656 24.5273 159.564 23.8477 160.631 23.3672C161.697 22.875 162.893 22.6289 164.217 22.6289C165.553 22.6289 166.754 22.875 167.82 23.3672C168.898 23.8477 169.812 24.5273 170.562 25.4062C171.324 26.2734 171.904 27.2988 172.303 28.4824C172.701 29.6543 172.9 30.9258 172.9 32.2969V32.7012C172.9 34.0723 172.701 35.3438 172.303 36.5156C171.904 37.6875 171.324 38.7129 170.562 39.5918C169.812 40.459 168.904 41.1387 167.838 41.6309C166.783 42.1113 165.588 42.3516 164.252 42.3516C162.916 42.3516 161.715 42.1113 160.648 41.6309C159.582 41.1387 158.668 40.459 157.906 39.5918C157.156 38.7129 156.582 37.6875 156.184 36.5156C155.785 35.3438 155.586 34.0723 155.586 32.7012ZM158.838 32.2969V32.7012C158.838 33.6504 158.949 34.5469 159.172 35.3906C159.395 36.2227 159.729 36.9609 160.174 37.6055C160.631 38.25 161.199 38.7598 161.879 39.1348C162.559 39.498 163.35 39.6797 164.252 39.6797C165.143 39.6797 165.922 39.498 166.59 39.1348C167.27 38.7598 167.832 38.25 168.277 37.6055C168.723 36.9609 169.057 36.2227 169.279 35.3906C169.514 34.5469 169.631 33.6504 169.631 32.7012V32.2969C169.631 31.3594 169.514 30.4746 169.279 29.6426C169.057 28.7988 168.717 28.0547 168.26 27.4102C167.814 26.7539 167.252 26.2383 166.572 25.8633C165.904 25.4883 165.119 25.3008 164.217 25.3008C163.326 25.3008 162.541 25.4883 161.861 25.8633C161.193 26.2383 160.631 26.7539 160.174 27.4102C159.729 28.0547 159.395 28.7988 159.172 29.6426C158.949 30.4746 158.838 31.3594 158.838 32.2969ZM184.59 39.6797C185.363 39.6797 186.078 39.5215 186.734 39.2051C187.391 38.8887 187.93 38.4551 188.352 37.9043C188.773 37.3418 189.014 36.7031 189.072 35.9883H192.166C192.107 37.1133 191.727 38.1621 191.023 39.1348C190.332 40.0957 189.424 40.875 188.299 41.4727C187.174 42.0586 185.938 42.3516 184.59 42.3516C183.16 42.3516 181.912 42.0996 180.846 41.5957C179.791 41.0918 178.912 40.4004 178.209 39.5215C177.518 38.6426 176.996 37.6348 176.645 36.498C176.305 35.3496 176.135 34.1367 176.135 32.8594V32.1211C176.135 30.8438 176.305 29.6367 176.645 28.5C176.996 27.3516 177.518 26.3379 178.209 25.459C178.912 24.5801 179.791 23.8887 180.846 23.3848C181.912 22.8809 183.16 22.6289 184.59 22.6289C186.078 22.6289 187.379 22.9336 188.492 23.543C189.605 24.1406 190.479 24.9609 191.111 26.0039C191.756 27.0352 192.107 28.207 192.166 29.5195H189.072C189.014 28.7344 188.791 28.0254 188.404 27.3926C188.029 26.7598 187.514 26.2559 186.857 25.8809C186.213 25.4941 185.457 25.3008 184.59 25.3008C183.594 25.3008 182.756 25.5 182.076 25.8984C181.408 26.2852 180.875 26.8125 180.477 27.4805C180.09 28.1367 179.809 28.8691 179.633 29.6777C179.469 30.4746 179.387 31.2891 179.387 32.1211V32.8594C179.387 33.6914 179.469 34.5117 179.633 35.3203C179.797 36.1289 180.072 36.8613 180.459 37.5176C180.857 38.1738 181.391 38.7012 182.059 39.0996C182.738 39.4863 183.582 39.6797 184.59 39.6797ZM199.092 15V42H195.822V15H199.092ZM210.711 22.9805L202.414 31.8574L197.773 36.6738L197.51 33.2109L200.832 29.2383L206.738 22.9805H210.711ZM207.74 42L200.955 32.9297L202.643 30.0293L211.572 42H207.74ZM234.986 38.3086V15H238.256V42H235.268L234.986 38.3086ZM222.189 32.7012V32.332C222.189 30.8789 222.365 29.5605 222.717 28.377C223.08 27.1816 223.59 26.1562 224.246 25.3008C224.914 24.4453 225.705 23.7891 226.619 23.332C227.545 22.8633 228.576 22.6289 229.713 22.6289C230.908 22.6289 231.951 22.8398 232.842 23.2617C233.744 23.6719 234.506 24.2754 235.127 25.0723C235.76 25.8574 236.258 26.8066 236.621 27.9199C236.984 29.0332 237.236 30.293 237.377 31.6992V33.3164C237.248 34.7109 236.996 35.9648 236.621 37.0781C236.258 38.1914 235.76 39.1406 235.127 39.9258C234.506 40.7109 233.744 41.3145 232.842 41.7363C231.939 42.1465 230.885 42.3516 229.678 42.3516C228.564 42.3516 227.545 42.1113 226.619 41.6309C225.705 41.1504 224.914 40.4766 224.246 39.6094C223.59 38.7422 223.08 37.7227 222.717 36.5508C222.365 35.3672 222.189 34.084 222.189 32.7012ZM225.459 32.332V32.7012C225.459 33.6504 225.553 34.541 225.74 35.373C225.939 36.2051 226.244 36.9375 226.654 37.5703C227.064 38.2031 227.586 38.7012 228.219 39.0645C228.852 39.416 229.607 39.5918 230.486 39.5918C231.564 39.5918 232.449 39.3633 233.141 38.9062C233.844 38.4492 234.406 37.8457 234.828 37.0957C235.25 36.3457 235.578 35.5312 235.812 34.6523V30.416C235.672 29.7715 235.467 29.1504 235.197 28.5527C234.939 27.9434 234.6 27.4043 234.178 26.9355C233.768 26.4551 233.258 26.0742 232.648 25.793C232.051 25.5117 231.342 25.3711 230.521 25.3711C229.631 25.3711 228.863 25.5586 228.219 25.9336C227.586 26.2969 227.064 26.8008 226.654 27.4453C226.244 28.0781 225.939 28.8164 225.74 29.6602C225.553 30.4922 225.459 31.3828 225.459 32.332ZM246.852 22.9805V42H243.582V22.9805H246.852ZM243.336 17.9355C243.336 17.4082 243.494 16.9629 243.811 16.5996C244.139 16.2363 244.619 16.0547 245.252 16.0547C245.873 16.0547 246.348 16.2363 246.676 16.5996C247.016 16.9629 247.186 17.4082 247.186 17.9355C247.186 18.4395 247.016 18.873 246.676 19.2363C246.348 19.5879 245.873 19.7637 245.252 19.7637C244.619 19.7637 244.139 19.5879 243.811 19.2363C243.494 18.873 243.336 18.4395 243.336 17.9355ZM255.324 25.9688V42H252.072V22.9805H255.236L255.324 25.9688ZM261.266 22.875L261.248 25.8984C260.979 25.8398 260.721 25.8047 260.475 25.793C260.24 25.7695 259.971 25.7578 259.666 25.7578C258.916 25.7578 258.254 25.875 257.68 26.1094C257.105 26.3438 256.619 26.6719 256.221 27.0938C255.822 27.5156 255.506 28.0195 255.271 28.6055C255.049 29.1797 254.902 29.8125 254.832 30.5039L253.918 31.0312C253.918 29.8828 254.029 28.8047 254.252 27.7969C254.486 26.7891 254.844 25.8984 255.324 25.125C255.805 24.3398 256.414 23.7305 257.152 23.2969C257.902 22.8516 258.793 22.6289 259.824 22.6289C260.059 22.6289 260.328 22.6582 260.633 22.7168C260.938 22.7637 261.148 22.8164 261.266 22.875ZM271.812 42.3516C270.488 42.3516 269.287 42.1289 268.209 41.6836C267.143 41.2266 266.223 40.5879 265.449 39.7676C264.688 38.9473 264.102 37.9746 263.691 36.8496C263.281 35.7246 263.076 34.4941 263.076 33.1582V32.4199C263.076 30.873 263.305 29.4961 263.762 28.2891C264.219 27.0703 264.84 26.0391 265.625 25.1953C266.41 24.3516 267.301 23.7129 268.297 23.2793C269.293 22.8457 270.324 22.6289 271.391 22.6289C272.75 22.6289 273.922 22.8633 274.906 23.332C275.902 23.8008 276.717 24.457 277.35 25.3008C277.982 26.1328 278.451 27.1172 278.756 28.2539C279.061 29.3789 279.213 30.6094 279.213 31.9453V33.4043H265.01V30.75H275.961V30.5039C275.914 29.6602 275.738 28.8398 275.434 28.043C275.141 27.2461 274.672 26.5898 274.027 26.0742C273.383 25.5586 272.504 25.3008 271.391 25.3008C270.652 25.3008 269.973 25.459 269.352 25.7754C268.73 26.0801 268.197 26.5371 267.752 27.1465C267.307 27.7559 266.961 28.5 266.715 29.3789C266.469 30.2578 266.346 31.2715 266.346 32.4199V33.1582C266.346 34.0605 266.469 34.9102 266.715 35.707C266.973 36.4922 267.342 37.1836 267.822 37.7812C268.314 38.3789 268.906 38.8477 269.598 39.1875C270.301 39.5273 271.098 39.6973 271.988 39.6973C273.137 39.6973 274.109 39.4629 274.906 38.9941C275.703 38.5254 276.4 37.8984 276.998 37.1133L278.967 38.6777C278.557 39.2988 278.035 39.8906 277.402 40.4531C276.77 41.0156 275.99 41.4727 275.064 41.8242C274.15 42.1758 273.066 42.3516 271.812 42.3516ZM290.621 39.6797C291.395 39.6797 292.109 39.5215 292.766 39.2051C293.422 38.8887 293.961 38.4551 294.383 37.9043C294.805 37.3418 295.045 36.7031 295.104 35.9883H298.197C298.139 37.1133 297.758 38.1621 297.055 39.1348C296.363 40.0957 295.455 40.875 294.33 41.4727C293.205 42.0586 291.969 42.3516 290.621 42.3516C289.191 42.3516 287.943 42.0996 286.877 41.5957C285.822 41.0918 284.943 40.4004 284.24 39.5215C283.549 38.6426 283.027 37.6348 282.676 36.498C282.336 35.3496 282.166 34.1367 282.166 32.8594V32.1211C282.166 30.8438 282.336 29.6367 282.676 28.5C283.027 27.3516 283.549 26.3379 284.24 25.459C284.943 24.5801 285.822 23.8887 286.877 23.3848C287.943 22.8809 289.191 22.6289 290.621 22.6289C292.109 22.6289 293.41 22.9336 294.523 23.543C295.637 24.1406 296.51 24.9609 297.143 26.0039C297.787 27.0352 298.139 28.207 298.197 29.5195H295.104C295.045 28.7344 294.822 28.0254 294.436 27.3926C294.061 26.7598 293.545 26.2559 292.889 25.8809C292.244 25.4941 291.488 25.3008 290.621 25.3008C289.625 25.3008 288.787 25.5 288.107 25.8984C287.439 26.2852 286.906 26.8125 286.508 27.4805C286.121 28.1367 285.84 28.8691 285.664 29.6777C285.5 30.4746 285.418 31.2891 285.418 32.1211V32.8594C285.418 33.6914 285.5 34.5117 285.664 35.3203C285.828 36.1289 286.104 36.8613 286.49 37.5176C286.889 38.1738 287.422 38.7012 288.09 39.0996C288.77 39.4863 289.613 39.6797 290.621 39.6797ZM309.816 22.9805V25.4766H299.533V22.9805H309.816ZM303.014 18.3574H306.266V37.2891C306.266 37.9336 306.365 38.4199 306.564 38.748C306.764 39.0762 307.021 39.293 307.338 39.3984C307.654 39.5039 307.994 39.5566 308.357 39.5566C308.627 39.5566 308.908 39.5332 309.201 39.4863C309.506 39.4277 309.734 39.3809 309.887 39.3457L309.904 42C309.646 42.082 309.307 42.1582 308.885 42.2285C308.475 42.3105 307.977 42.3516 307.391 42.3516C306.594 42.3516 305.861 42.1934 305.193 41.877C304.525 41.5605 303.992 41.0332 303.594 40.2949C303.207 39.5449 303.014 38.5371 303.014 37.2715V18.3574ZM317.164 22.9805V42H313.895V22.9805H317.164ZM313.648 17.9355C313.648 17.4082 313.807 16.9629 314.123 16.5996C314.451 16.2363 314.932 16.0547 315.564 16.0547C316.186 16.0547 316.66 16.2363 316.988 16.5996C317.328 16.9629 317.498 17.4082 317.498 17.9355C317.498 18.4395 317.328 18.873 316.988 19.2363C316.66 19.5879 316.186 19.7637 315.564 19.7637C314.932 19.7637 314.451 19.5879 314.123 19.2363C313.807 18.873 313.648 18.4395 313.648 17.9355ZM321.523 32.7012V32.2969C321.523 30.9258 321.723 29.6543 322.121 28.4824C322.52 27.2988 323.094 26.2734 323.844 25.4062C324.594 24.5273 325.502 23.8477 326.568 23.3672C327.635 22.875 328.83 22.6289 330.154 22.6289C331.49 22.6289 332.691 22.875 333.758 23.3672C334.836 23.8477 335.75 24.5273 336.5 25.4062C337.262 26.2734 337.842 27.2988 338.24 28.4824C338.639 29.6543 338.838 30.9258 338.838 32.2969V32.7012C338.838 34.0723 338.639 35.3438 338.24 36.5156C337.842 37.6875 337.262 38.7129 336.5 39.5918C335.75 40.459 334.842 41.1387 333.775 41.6309C332.721 42.1113 331.525 42.3516 330.189 42.3516C328.854 42.3516 327.652 42.1113 326.586 41.6309C325.52 41.1387 324.605 40.459 323.844 39.5918C323.094 38.7129 322.52 37.6875 322.121 36.5156C321.723 35.3438 321.523 34.0723 321.523 32.7012ZM324.775 32.2969V32.7012C324.775 33.6504 324.887 34.5469 325.109 35.3906C325.332 36.2227 325.666 36.9609 326.111 37.6055C326.568 38.25 327.137 38.7598 327.816 39.1348C328.496 39.498 329.287 39.6797 330.189 39.6797C331.08 39.6797 331.859 39.498 332.527 39.1348C333.207 38.7598 333.77 38.25 334.215 37.6055C334.66 36.9609 334.994 36.2227 335.217 35.3906C335.451 34.5469 335.568 33.6504 335.568 32.7012V32.2969C335.568 31.3594 335.451 30.4746 335.217 29.6426C334.994 28.7988 334.654 28.0547 334.197 27.4102C333.752 26.7539 333.189 26.2383 332.51 25.8633C331.842 25.4883 331.057 25.3008 330.154 25.3008C329.264 25.3008 328.479 25.4883 327.799 25.8633C327.131 26.2383 326.568 26.7539 326.111 27.4102C325.666 28.0547 325.332 28.7988 325.109 29.6426C324.887 30.4746 324.775 31.3594 324.775 32.2969ZM346.168 27.041V42H342.916V22.9805H345.992L346.168 27.041ZM345.395 31.7695L344.041 31.7168C344.053 30.416 344.246 29.2148 344.621 28.1133C344.996 27 345.523 26.0332 346.203 25.2129C346.883 24.3926 347.691 23.7598 348.629 23.3145C349.578 22.8574 350.627 22.6289 351.775 22.6289C352.713 22.6289 353.557 22.7578 354.307 23.0156C355.057 23.2617 355.695 23.6602 356.223 24.2109C356.762 24.7617 357.172 25.4766 357.453 26.3555C357.734 27.2227 357.875 28.2832 357.875 29.5371V42H354.605V29.502C354.605 28.5059 354.459 27.709 354.166 27.1113C353.873 26.502 353.445 26.0625 352.883 25.793C352.32 25.5117 351.629 25.3711 350.809 25.3711C350 25.3711 349.262 25.541 348.594 25.8809C347.938 26.2207 347.369 26.6895 346.889 27.2871C346.42 27.8848 346.051 28.5703 345.781 29.3438C345.523 30.1055 345.395 30.9141 345.395 31.7695Z" fill="#058105"/>
<path d="M271.781 135.344H289.188C290.521 135.344 291.677 135.073 292.656 134.531C293.656 134.01 294.427 133.219 294.969 132.156C295.51 131.094 295.781 129.781 295.781 128.219C295.781 126.76 295.531 125.479 295.031 124.375C294.531 123.292 293.875 122.438 293.062 121.812C292.25 121.208 291.375 120.906 290.438 120.906V115.125C291.646 115.125 292.844 115.438 294.031 116.062C295.219 116.688 296.292 117.583 297.25 118.75C298.229 119.938 299 121.354 299.562 123C300.146 124.667 300.438 126.521 300.438 128.562C300.438 131.021 300.021 133.188 299.188 135.062C298.354 136.958 297.094 138.438 295.406 139.5C293.74 140.583 291.646 141.125 289.125 141.125H273.375C272.25 141.125 271.052 141.219 269.781 141.406C268.51 141.615 267.417 141.917 266.5 142.312H266V136.281C266.667 135.99 267.552 135.76 268.656 135.594C269.781 135.427 270.823 135.344 271.781 135.344ZM286.5 136.344L282.438 136.406V130.562C282.438 128.917 282.302 127.448 282.031 126.156C281.781 124.865 281.396 123.781 280.875 122.906C280.354 122.031 279.698 121.365 278.906 120.906C278.135 120.448 277.229 120.219 276.188 120.219C275.125 120.219 274.156 120.458 273.281 120.938C272.406 121.417 271.708 122.135 271.188 123.094C270.688 124.073 270.438 125.271 270.438 126.688C270.438 128.458 270.812 130.021 271.562 131.375C272.312 132.729 273.229 133.802 274.312 134.594C275.396 135.406 276.448 135.844 277.469 135.906L274.688 138.375C273.812 138.229 272.844 137.833 271.781 137.188C270.719 136.542 269.698 135.677 268.719 134.594C267.76 133.531 266.958 132.26 266.312 130.781C265.688 129.323 265.375 127.677 265.375 125.844C265.375 123.552 265.823 121.542 266.719 119.812C267.615 118.104 268.812 116.771 270.312 115.812C271.833 114.875 273.531 114.406 275.406 114.406C277.219 114.406 278.812 114.76 280.188 115.469C281.583 116.177 282.74 117.198 283.656 118.531C284.594 119.865 285.302 121.469 285.781 123.344C286.26 125.219 286.5 127.312 286.5 129.625V136.344ZM272 158.781L299.812 167.469V171.281L294.281 170.531L266 161.688V157.969L272 158.781ZM299.812 152.938L271.688 160.344L266 160.875V156.969L299.812 147.156V152.938ZM271.906 179.594L299.812 186.656V192.406L266 182.594V178.719L271.906 179.594ZM299.812 172.125L272.469 180.625L266 181.594V177.906L294.344 168.812L299.812 168.062V172.125ZM265.375 212.375C265.375 210.021 265.771 207.885 266.562 205.969C267.375 204.073 268.51 202.438 269.969 201.062C271.427 199.708 273.156 198.667 275.156 197.938C277.156 197.208 279.344 196.844 281.719 196.844H283.031C285.781 196.844 288.229 197.25 290.375 198.062C292.542 198.875 294.375 199.979 295.875 201.375C297.375 202.771 298.51 204.354 299.281 206.125C300.052 207.896 300.438 209.729 300.438 211.625C300.438 214.042 300.021 216.125 299.188 217.875C298.354 219.646 297.188 221.094 295.688 222.219C294.208 223.344 292.458 224.177 290.438 224.719C288.438 225.26 286.25 225.531 283.875 225.531H281.281V200.281H286V219.75H286.438C287.938 219.667 289.396 219.354 290.812 218.812C292.229 218.292 293.396 217.458 294.312 216.312C295.229 215.167 295.688 213.604 295.688 211.625C295.688 210.312 295.406 209.104 294.844 208C294.302 206.896 293.49 205.948 292.406 205.156C291.323 204.365 290 203.75 288.438 203.312C286.875 202.875 285.073 202.656 283.031 202.656H281.719C280.115 202.656 278.604 202.875 277.188 203.312C275.792 203.771 274.562 204.427 273.5 205.281C272.438 206.156 271.604 207.208 271 208.438C270.396 209.688 270.094 211.104 270.094 212.688C270.094 214.729 270.51 216.458 271.344 217.875C272.177 219.292 273.292 220.531 274.688 221.594L271.906 225.094C270.802 224.365 269.75 223.438 268.75 222.312C267.75 221.188 266.938 219.802 266.312 218.156C265.688 216.531 265.375 214.604 265.375 212.375ZM274.969 251.969C275.802 251.969 276.573 251.781 277.281 251.406C278.01 251.052 278.667 250.312 279.25 249.188C279.854 248.083 280.375 246.417 280.812 244.188C281.208 242.312 281.677 240.615 282.219 239.094C282.76 237.594 283.417 236.312 284.188 235.25C284.958 234.208 285.865 233.406 286.906 232.844C287.948 232.281 289.167 232 290.562 232C291.896 232 293.156 232.292 294.344 232.875C295.531 233.479 296.583 234.323 297.5 235.406C298.417 236.51 299.135 237.833 299.656 239.375C300.177 240.917 300.438 242.635 300.438 244.531C300.438 247.24 299.958 249.552 299 251.469C298.042 253.385 296.76 254.854 295.156 255.875C293.573 256.896 291.812 257.406 289.875 257.406V251.625C290.812 251.625 291.719 251.344 292.594 250.781C293.49 250.24 294.229 249.438 294.812 248.375C295.396 247.333 295.688 246.052 295.688 244.531C295.688 242.927 295.438 241.625 294.938 240.625C294.458 239.646 293.844 238.927 293.094 238.469C292.344 238.031 291.552 237.812 290.719 237.812C290.094 237.812 289.531 237.917 289.031 238.125C288.552 238.354 288.104 238.75 287.688 239.312C287.292 239.875 286.917 240.667 286.562 241.688C286.208 242.708 285.854 244.01 285.5 245.594C284.875 248.365 284.125 250.646 283.25 252.438C282.375 254.229 281.302 255.562 280.031 256.438C278.76 257.312 277.219 257.75 275.406 257.75C273.927 257.75 272.573 257.438 271.344 256.812C270.115 256.208 269.052 255.323 268.156 254.156C267.281 253.01 266.594 251.635 266.094 250.031C265.615 248.448 265.375 246.667 265.375 244.688C265.375 241.708 265.906 239.188 266.969 237.125C268.031 235.062 269.406 233.5 271.094 232.438C272.781 231.375 274.562 230.844 276.438 230.844V236.656C274.854 236.74 273.594 237.198 272.656 238.031C271.74 238.865 271.083 239.885 270.688 241.094C270.312 242.302 270.125 243.5 270.125 244.688C270.125 246.271 270.333 247.594 270.75 248.656C271.167 249.74 271.74 250.562 272.469 251.125C273.198 251.688 274.031 251.969 274.969 251.969ZM282.531 263.812H283.25C285.688 263.812 287.948 264.167 290.031 264.875C292.135 265.583 293.958 266.604 295.5 267.938C297.062 269.271 298.271 270.885 299.125 272.781C300 274.677 300.438 276.802 300.438 279.156C300.438 281.531 300 283.667 299.125 285.562C298.271 287.479 297.062 289.104 295.5 290.438C293.958 291.792 292.135 292.823 290.031 293.531C287.948 294.24 285.688 294.594 283.25 294.594H282.531C280.094 294.594 277.833 294.24 275.75 293.531C273.667 292.823 271.844 291.792 270.281 290.438C268.74 289.104 267.531 287.49 266.656 285.594C265.802 283.719 265.375 281.594 265.375 279.219C265.375 276.844 265.802 274.708 266.656 272.812C267.531 270.917 268.74 269.292 270.281 267.938C271.844 266.604 273.667 265.583 275.75 264.875C277.833 264.167 280.094 263.812 282.531 263.812ZM283.25 269.594H282.531C280.844 269.594 279.25 269.792 277.75 270.188C276.271 270.583 274.958 271.177 273.812 271.969C272.667 272.781 271.76 273.792 271.094 275C270.448 276.208 270.125 277.615 270.125 279.219C270.125 280.802 270.448 282.188 271.094 283.375C271.76 284.583 272.667 285.583 273.812 286.375C274.958 287.167 276.271 287.76 277.75 288.156C279.25 288.573 280.844 288.781 282.531 288.781H283.25C284.917 288.781 286.49 288.573 287.969 288.156C289.469 287.76 290.792 287.156 291.938 286.344C293.104 285.552 294.021 284.552 294.688 283.344C295.354 282.156 295.688 280.76 295.688 279.156C295.688 277.573 295.354 276.177 294.688 274.969C294.021 273.781 293.104 272.781 291.938 271.969C290.792 271.177 289.469 270.583 287.969 270.188C286.49 269.792 284.917 269.594 283.25 269.594ZM293.094 307.594H266V301.781H299.812V307.281L293.094 307.594ZM284.188 306.406L284.281 303.719C286.594 303.74 288.729 304.042 290.688 304.625C292.667 305.208 294.385 306.073 295.844 307.219C297.302 308.365 298.427 309.792 299.219 311.5C300.031 313.208 300.438 315.188 300.438 317.438C300.438 319.021 300.208 320.479 299.75 321.812C299.312 323.146 298.615 324.302 297.656 325.281C296.698 326.26 295.469 327.021 293.969 327.562C292.469 328.104 290.656 328.375 288.531 328.375H266V322.594H288.25C290.021 322.594 291.438 322.292 292.5 321.688C293.562 321.104 294.333 320.271 294.812 319.188C295.312 318.104 295.562 316.833 295.562 315.375C295.562 313.667 295.26 312.24 294.656 311.094C294.052 309.948 293.219 309.031 292.156 308.344C291.094 307.656 289.875 307.156 288.5 306.844C287.146 306.552 285.708 306.406 284.188 306.406ZM287.375 328.312L286.188 324.438C288.042 324.458 289.823 324.76 291.531 325.344C293.24 325.948 294.76 326.812 296.094 327.938C297.427 329.083 298.479 330.49 299.25 332.156C300.042 333.823 300.438 335.729 300.438 337.875C300.438 339.688 300.198 341.292 299.719 342.688C299.24 344.104 298.5 345.292 297.5 346.25C296.521 347.229 295.26 347.969 293.719 348.469C292.177 348.969 290.344 349.219 288.219 349.219H266V343.406H288.281C290.177 343.406 291.646 343.104 292.688 342.5C293.75 341.917 294.49 341.083 294.906 340C295.344 338.938 295.562 337.667 295.562 336.188C295.562 334.917 295.344 333.792 294.906 332.812C294.469 331.833 293.865 331.01 293.094 330.344C292.344 329.677 291.479 329.167 290.5 328.812C289.521 328.479 288.479 328.312 287.375 328.312ZM265.375 372C265.375 369.646 265.771 367.51 266.562 365.594C267.375 363.698 268.51 362.062 269.969 360.688C271.427 359.333 273.156 358.292 275.156 357.562C277.156 356.833 279.344 356.469 281.719 356.469H283.031C285.781 356.469 288.229 356.875 290.375 357.688C292.542 358.5 294.375 359.604 295.875 361C297.375 362.396 298.51 363.979 299.281 365.75C300.052 367.521 300.438 369.354 300.438 371.25C300.438 373.667 300.021 375.75 299.188 377.5C298.354 379.271 297.188 380.719 295.688 381.844C294.208 382.969 292.458 383.802 290.438 384.344C288.438 384.885 286.25 385.156 283.875 385.156H281.281V359.906H286V379.375H286.438C287.938 379.292 289.396 378.979 290.812 378.438C292.229 377.917 293.396 377.083 294.312 375.938C295.229 374.792 295.688 373.229 295.688 371.25C295.688 369.938 295.406 368.729 294.844 367.625C294.302 366.521 293.49 365.573 292.406 364.781C291.323 363.99 290 363.375 288.438 362.938C286.875 362.5 285.073 362.281 283.031 362.281H281.719C280.115 362.281 278.604 362.5 277.188 362.938C275.792 363.396 274.562 364.052 273.5 364.906C272.438 365.781 271.604 366.833 271 368.062C270.396 369.312 270.094 370.729 270.094 372.312C270.094 374.354 270.51 376.083 271.344 377.5C272.177 378.917 273.292 380.156 274.688 381.219L271.906 384.719C270.802 383.99 269.75 383.062 268.75 381.938C267.75 380.812 266.938 379.427 266.312 377.781C265.688 376.156 265.375 374.229 265.375 372Z" fill="white" fill-opacity="0.5"/>
<path d="M205.469 143.75V149.75C202.594 149.438 200.021 148.615 197.75 147.281C195.479 145.948 193.677 144.062 192.344 141.625C191.031 139.188 190.375 136.146 190.375 132.5C190.375 129.833 190.875 127.406 191.875 125.219C192.875 123.052 194.292 121.188 196.125 119.625C197.979 118.062 200.198 116.854 202.781 116C205.385 115.167 208.281 114.75 211.469 114.75H216C219.188 114.75 222.073 115.167 224.656 116C227.26 116.854 229.49 118.073 231.344 119.656C233.198 121.26 234.625 123.188 235.625 125.438C236.625 127.688 237.125 130.219 237.125 133.031C237.125 136.469 236.479 139.375 235.188 141.75C233.896 144.125 232.104 145.969 229.812 147.281C227.542 148.615 224.906 149.438 221.906 149.75V143.75C224.031 143.458 225.854 142.917 227.375 142.125C228.917 141.333 230.104 140.208 230.938 138.75C231.771 137.292 232.188 135.385 232.188 133.031C232.188 131.01 231.802 129.229 231.031 127.688C230.26 126.167 229.167 124.885 227.75 123.844C226.333 122.823 224.635 122.052 222.656 121.531C220.677 121.01 218.479 120.75 216.062 120.75H211.469C209.24 120.75 207.146 120.979 205.188 121.438C203.229 121.917 201.51 122.635 200.031 123.594C198.552 124.552 197.385 125.771 196.531 127.25C195.698 128.729 195.281 130.479 195.281 132.5C195.281 135.062 195.688 137.104 196.5 138.625C197.312 140.146 198.479 141.292 200 142.062C201.521 142.854 203.344 143.417 205.469 143.75ZM202.5 182.219C203.562 182.219 204.5 182.052 205.312 181.719C206.146 181.406 206.896 180.844 207.562 180.031C208.229 179.24 208.865 178.135 209.469 176.719C210.073 175.323 210.688 173.552 211.312 171.406C211.979 169.156 212.719 167.125 213.531 165.312C214.365 163.5 215.312 161.948 216.375 160.656C217.438 159.365 218.656 158.375 220.031 157.688C221.406 157 222.979 156.656 224.75 156.656C226.521 156.656 228.156 157.021 229.656 157.75C231.156 158.479 232.458 159.521 233.562 160.875C234.688 162.25 235.562 163.885 236.188 165.781C236.812 167.677 237.125 169.792 237.125 172.125C237.125 175.542 236.469 178.438 235.156 180.812C233.865 183.208 232.167 185.031 230.062 186.281C227.979 187.531 225.75 188.156 223.375 188.156V182.156C225.083 182.156 226.594 181.792 227.906 181.062C229.24 180.333 230.281 179.229 231.031 177.75C231.802 176.271 232.188 174.396 232.188 172.125C232.188 169.979 231.865 168.208 231.219 166.812C230.573 165.417 229.698 164.375 228.594 163.688C227.49 163.021 226.229 162.688 224.812 162.688C223.854 162.688 222.979 162.885 222.188 163.281C221.417 163.698 220.698 164.333 220.031 165.188C219.365 166.062 218.75 167.167 218.188 168.5C217.625 169.854 217.083 171.469 216.562 173.344C215.833 175.927 215.021 178.156 214.125 180.031C213.229 181.906 212.219 183.448 211.094 184.656C209.99 185.885 208.729 186.792 207.312 187.375C205.917 187.979 204.333 188.281 202.562 188.281C200.708 188.281 199.031 187.906 197.531 187.156C196.031 186.406 194.75 185.333 193.688 183.938C192.625 182.542 191.802 180.865 191.219 178.906C190.656 176.969 190.375 174.802 190.375 172.406C190.375 170.302 190.667 168.229 191.25 166.188C191.833 164.167 192.708 162.323 193.875 160.656C195.042 159.01 196.479 157.688 198.188 156.688C199.917 155.708 201.917 155.219 204.188 155.219V161.219C202.625 161.219 201.281 161.521 200.156 162.125C199.052 162.729 198.135 163.552 197.406 164.594C196.677 165.656 196.135 166.854 195.781 168.188C195.448 169.542 195.281 170.948 195.281 172.406C195.281 174.51 195.573 176.292 196.156 177.75C196.74 179.208 197.573 180.312 198.656 181.062C199.74 181.833 201.021 182.219 202.5 182.219ZM202.5 220.219C203.562 220.219 204.5 220.052 205.312 219.719C206.146 219.406 206.896 218.844 207.562 218.031C208.229 217.24 208.865 216.135 209.469 214.719C210.073 213.323 210.688 211.552 211.312 209.406C211.979 207.156 212.719 205.125 213.531 203.312C214.365 201.5 215.312 199.948 216.375 198.656C217.438 197.365 218.656 196.375 220.031 195.688C221.406 195 222.979 194.656 224.75 194.656C226.521 194.656 228.156 195.021 229.656 195.75C231.156 196.479 232.458 197.521 233.562 198.875C234.688 200.25 235.562 201.885 236.188 203.781C236.812 205.677 237.125 207.792 237.125 210.125C237.125 213.542 236.469 216.438 235.156 218.812C233.865 221.208 232.167 223.031 230.062 224.281C227.979 225.531 225.75 226.156 223.375 226.156V220.156C225.083 220.156 226.594 219.792 227.906 219.062C229.24 218.333 230.281 217.229 231.031 215.75C231.802 214.271 232.188 212.396 232.188 210.125C232.188 207.979 231.865 206.208 231.219 204.812C230.573 203.417 229.698 202.375 228.594 201.688C227.49 201.021 226.229 200.688 224.812 200.688C223.854 200.688 222.979 200.885 222.188 201.281C221.417 201.698 220.698 202.333 220.031 203.188C219.365 204.062 218.75 205.167 218.188 206.5C217.625 207.854 217.083 209.469 216.562 211.344C215.833 213.927 215.021 216.156 214.125 218.031C213.229 219.906 212.219 221.448 211.094 222.656C209.99 223.885 208.729 224.792 207.312 225.375C205.917 225.979 204.333 226.281 202.562 226.281C200.708 226.281 199.031 225.906 197.531 225.156C196.031 224.406 194.75 223.333 193.688 221.938C192.625 220.542 191.802 218.865 191.219 216.906C190.656 214.969 190.375 212.802 190.375 210.406C190.375 208.302 190.667 206.229 191.25 204.188C191.833 202.167 192.708 200.323 193.875 198.656C195.042 197.01 196.479 195.688 198.188 194.688C199.917 193.708 201.917 193.219 204.188 193.219V199.219C202.625 199.219 201.281 199.521 200.156 200.125C199.052 200.729 198.135 201.552 197.406 202.594C196.677 203.656 196.135 204.854 195.781 206.188C195.448 207.542 195.281 208.948 195.281 210.406C195.281 212.51 195.573 214.292 196.156 215.75C196.74 217.208 197.573 218.312 198.656 219.062C199.74 219.833 201.021 220.219 202.5 220.219ZM224.812 255.25H191V249.438H224.812V255.25ZM233.781 249C234.719 249 235.51 249.281 236.156 249.844C236.802 250.427 237.125 251.281 237.125 252.406C237.125 253.51 236.802 254.354 236.156 254.938C235.51 255.542 234.719 255.844 233.781 255.844C232.885 255.844 232.115 255.542 231.469 254.938C230.844 254.354 230.531 253.51 230.531 252.406C230.531 251.281 230.844 250.427 231.469 249.844C232.115 249.281 232.885 249 233.781 249ZM199.969 284.219C200.802 284.219 201.573 284.031 202.281 283.656C203.01 283.302 203.667 282.562 204.25 281.438C204.854 280.333 205.375 278.667 205.812 276.438C206.208 274.562 206.677 272.865 207.219 271.344C207.76 269.844 208.417 268.562 209.188 267.5C209.958 266.458 210.865 265.656 211.906 265.094C212.948 264.531 214.167 264.25 215.562 264.25C216.896 264.25 218.156 264.542 219.344 265.125C220.531 265.729 221.583 266.573 222.5 267.656C223.417 268.76 224.135 270.083 224.656 271.625C225.177 273.167 225.438 274.885 225.438 276.781C225.438 279.49 224.958 281.802 224 283.719C223.042 285.635 221.76 287.104 220.156 288.125C218.573 289.146 216.812 289.656 214.875 289.656V283.875C215.812 283.875 216.719 283.594 217.594 283.031C218.49 282.49 219.229 281.688 219.812 280.625C220.396 279.583 220.688 278.302 220.688 276.781C220.688 275.177 220.438 273.875 219.938 272.875C219.458 271.896 218.844 271.177 218.094 270.719C217.344 270.281 216.552 270.062 215.719 270.062C215.094 270.062 214.531 270.167 214.031 270.375C213.552 270.604 213.104 271 212.688 271.562C212.292 272.125 211.917 272.917 211.562 273.938C211.208 274.958 210.854 276.26 210.5 277.844C209.875 280.615 209.125 282.896 208.25 284.688C207.375 286.479 206.302 287.812 205.031 288.688C203.76 289.562 202.219 290 200.406 290C198.927 290 197.573 289.688 196.344 289.062C195.115 288.458 194.052 287.573 193.156 286.406C192.281 285.26 191.594 283.885 191.094 282.281C190.615 280.698 190.375 278.917 190.375 276.938C190.375 273.958 190.906 271.438 191.969 269.375C193.031 267.312 194.406 265.75 196.094 264.688C197.781 263.625 199.562 263.094 201.438 263.094V268.906C199.854 268.99 198.594 269.448 197.656 270.281C196.74 271.115 196.083 272.135 195.688 273.344C195.312 274.552 195.125 275.75 195.125 276.938C195.125 278.521 195.333 279.844 195.75 280.906C196.167 281.99 196.74 282.812 197.469 283.375C198.198 283.938 199.031 284.219 199.969 284.219Z" fill="white" fill-opacity="0.5"/>
<path d="M348.061 425.061C348.646 424.475 348.646 423.525 348.061 422.939L338.515 413.393C337.929 412.808 336.979 412.808 336.393 413.393C335.808 413.979 335.808 414.929 336.393 415.515L344.879 424L336.393 432.485C335.808 433.071 335.808 434.021 336.393 434.607C336.979 435.192 337.929 435.192 338.515 434.607L348.061 425.061ZM147 425.5H347V422.5H147V425.5Z" fill="#FC8C25"/>
<path d="M177.34 402V417H175.523V402H177.34ZM182.203 406.434V417H180.387V406.434H182.203ZM180.25 403.631C180.25 403.338 180.338 403.09 180.514 402.889C180.696 402.687 180.963 402.586 181.314 402.586C181.66 402.586 181.923 402.687 182.105 402.889C182.294 403.09 182.389 403.338 182.389 403.631C182.389 403.911 182.294 404.152 182.105 404.354C181.923 404.549 181.66 404.646 181.314 404.646C180.963 404.646 180.696 404.549 180.514 404.354C180.338 404.152 180.25 403.911 180.25 403.631ZM186.91 408.689V417H185.104V406.434H186.812L186.91 408.689ZM186.48 411.316L185.729 411.287C185.735 410.564 185.842 409.897 186.051 409.285C186.259 408.667 186.552 408.13 186.93 407.674C187.307 407.218 187.757 406.867 188.277 406.619C188.805 406.365 189.387 406.238 190.025 406.238C190.546 406.238 191.015 406.31 191.432 406.453C191.848 406.59 192.203 406.811 192.496 407.117C192.796 407.423 193.023 407.82 193.18 408.309C193.336 408.79 193.414 409.38 193.414 410.076V417H191.598V410.057C191.598 409.503 191.516 409.061 191.354 408.729C191.191 408.39 190.953 408.146 190.641 407.996C190.328 407.84 189.944 407.762 189.488 407.762C189.039 407.762 188.629 407.856 188.258 408.045C187.893 408.234 187.577 408.494 187.311 408.826C187.05 409.158 186.845 409.539 186.695 409.969C186.552 410.392 186.48 410.841 186.48 411.316ZM200.543 417.195C199.807 417.195 199.14 417.072 198.541 416.824C197.949 416.57 197.438 416.215 197.008 415.76C196.585 415.304 196.259 414.764 196.031 414.139C195.803 413.514 195.689 412.83 195.689 412.088V411.678C195.689 410.818 195.816 410.053 196.07 409.383C196.324 408.706 196.669 408.133 197.105 407.664C197.542 407.195 198.036 406.84 198.59 406.6C199.143 406.359 199.716 406.238 200.309 406.238C201.064 406.238 201.715 406.368 202.262 406.629C202.815 406.889 203.268 407.254 203.619 407.723C203.971 408.185 204.231 408.732 204.4 409.363C204.57 409.988 204.654 410.672 204.654 411.414V412.225H196.764V410.75H202.848V410.613C202.822 410.145 202.724 409.689 202.555 409.246C202.392 408.803 202.132 408.439 201.773 408.152C201.415 407.866 200.927 407.723 200.309 407.723C199.898 407.723 199.521 407.811 199.176 407.986C198.831 408.156 198.535 408.41 198.287 408.748C198.04 409.087 197.848 409.5 197.711 409.988C197.574 410.477 197.506 411.04 197.506 411.678V412.088C197.506 412.589 197.574 413.061 197.711 413.504C197.854 413.94 198.059 414.324 198.326 414.656C198.6 414.988 198.928 415.249 199.312 415.438C199.703 415.626 200.146 415.721 200.641 415.721C201.279 415.721 201.819 415.59 202.262 415.33C202.704 415.07 203.092 414.721 203.424 414.285L204.518 415.154C204.29 415.499 204 415.828 203.648 416.141C203.297 416.453 202.864 416.707 202.35 416.902C201.842 417.098 201.24 417.195 200.543 417.195ZM211.246 411.834V411.609C211.246 410.848 211.357 410.141 211.578 409.49C211.799 408.833 212.118 408.263 212.535 407.781C212.952 407.293 213.456 406.915 214.049 406.648C214.641 406.375 215.305 406.238 216.041 406.238C216.783 406.238 217.451 406.375 218.043 406.648C218.642 406.915 219.15 407.293 219.566 407.781C219.99 408.263 220.312 408.833 220.533 409.49C220.755 410.141 220.865 410.848 220.865 411.609V411.834C220.865 412.596 220.755 413.302 220.533 413.953C220.312 414.604 219.99 415.174 219.566 415.662C219.15 416.144 218.645 416.521 218.053 416.795C217.467 417.062 216.803 417.195 216.061 417.195C215.318 417.195 214.651 417.062 214.059 416.795C213.466 416.521 212.958 416.144 212.535 415.662C212.118 415.174 211.799 414.604 211.578 413.953C211.357 413.302 211.246 412.596 211.246 411.834ZM213.053 411.609V411.834C213.053 412.361 213.115 412.859 213.238 413.328C213.362 413.79 213.548 414.201 213.795 414.559C214.049 414.917 214.365 415.2 214.742 415.408C215.12 415.61 215.559 415.711 216.061 415.711C216.555 415.711 216.988 415.61 217.359 415.408C217.737 415.2 218.049 414.917 218.297 414.559C218.544 414.201 218.73 413.79 218.854 413.328C218.984 412.859 219.049 412.361 219.049 411.834V411.609C219.049 411.089 218.984 410.597 218.854 410.135C218.73 409.666 218.541 409.253 218.287 408.895C218.04 408.53 217.727 408.243 217.35 408.035C216.979 407.827 216.542 407.723 216.041 407.723C215.546 407.723 215.11 407.827 214.732 408.035C214.361 408.243 214.049 408.53 213.795 408.895C213.548 409.253 213.362 409.666 213.238 410.135C213.115 410.597 213.053 411.089 213.053 411.609ZM224.938 408.094V417H223.131V406.434H224.889L224.938 408.094ZM228.238 406.375L228.229 408.055C228.079 408.022 227.936 408.003 227.799 407.996C227.669 407.983 227.519 407.977 227.35 407.977C226.933 407.977 226.565 408.042 226.246 408.172C225.927 408.302 225.657 408.484 225.436 408.719C225.214 408.953 225.038 409.233 224.908 409.559C224.785 409.878 224.703 410.229 224.664 410.613L224.156 410.906C224.156 410.268 224.218 409.669 224.342 409.109C224.472 408.549 224.671 408.055 224.938 407.625C225.204 407.189 225.543 406.85 225.953 406.609C226.37 406.362 226.865 406.238 227.438 406.238C227.568 406.238 227.717 406.255 227.887 406.287C228.056 406.313 228.173 406.342 228.238 406.375ZM231.871 406.434V417H230.055V406.434H231.871ZM229.918 403.631C229.918 403.338 230.006 403.09 230.182 402.889C230.364 402.687 230.631 402.586 230.982 402.586C231.327 402.586 231.591 402.687 231.773 402.889C231.962 403.09 232.057 403.338 232.057 403.631C232.057 403.911 231.962 404.152 231.773 404.354C231.591 404.549 231.327 404.646 230.982 404.646C230.631 404.646 230.364 404.549 230.182 404.354C230.006 404.152 229.918 403.911 229.918 403.631ZM239.156 417.195C238.421 417.195 237.753 417.072 237.154 416.824C236.562 416.57 236.051 416.215 235.621 415.76C235.198 415.304 234.872 414.764 234.645 414.139C234.417 413.514 234.303 412.83 234.303 412.088V411.678C234.303 410.818 234.43 410.053 234.684 409.383C234.938 408.706 235.283 408.133 235.719 407.664C236.155 407.195 236.65 406.84 237.203 406.6C237.757 406.359 238.329 406.238 238.922 406.238C239.677 406.238 240.328 406.368 240.875 406.629C241.428 406.889 241.881 407.254 242.232 407.723C242.584 408.185 242.844 408.732 243.014 409.363C243.183 409.988 243.268 410.672 243.268 411.414V412.225H235.377V410.75H241.461V410.613C241.435 410.145 241.337 409.689 241.168 409.246C241.005 408.803 240.745 408.439 240.387 408.152C240.029 407.866 239.54 407.723 238.922 407.723C238.512 407.723 238.134 407.811 237.789 407.986C237.444 408.156 237.148 408.41 236.9 408.748C236.653 409.087 236.461 409.5 236.324 409.988C236.188 410.477 236.119 411.04 236.119 411.678V412.088C236.119 412.589 236.188 413.061 236.324 413.504C236.467 413.94 236.673 414.324 236.939 414.656C237.213 414.988 237.542 415.249 237.926 415.438C238.316 415.626 238.759 415.721 239.254 415.721C239.892 415.721 240.432 415.59 240.875 415.33C241.318 415.07 241.705 414.721 242.037 414.285L243.131 415.154C242.903 415.499 242.613 415.828 242.262 416.141C241.91 416.453 241.477 416.707 240.963 416.902C240.455 417.098 239.853 417.195 239.156 417.195ZM247.184 408.689V417H245.377V406.434H247.086L247.184 408.689ZM246.754 411.316L246.002 411.287C246.008 410.564 246.116 409.897 246.324 409.285C246.533 408.667 246.826 408.13 247.203 407.674C247.581 407.218 248.03 406.867 248.551 406.619C249.078 406.365 249.661 406.238 250.299 406.238C250.82 406.238 251.288 406.31 251.705 406.453C252.122 406.59 252.477 406.811 252.77 407.117C253.069 407.423 253.297 407.82 253.453 408.309C253.609 408.79 253.688 409.38 253.688 410.076V417H251.871V410.057C251.871 409.503 251.79 409.061 251.627 408.729C251.464 408.39 251.227 408.146 250.914 407.996C250.602 407.84 250.217 407.762 249.762 407.762C249.312 407.762 248.902 407.856 248.531 408.045C248.167 408.234 247.851 408.494 247.584 408.826C247.324 409.158 247.118 409.539 246.969 409.969C246.826 410.392 246.754 410.841 246.754 411.316ZM260.855 406.434V407.82H255.143V406.434H260.855ZM257.076 403.865H258.883V414.383C258.883 414.741 258.938 415.011 259.049 415.193C259.16 415.376 259.303 415.496 259.479 415.555C259.654 415.613 259.843 415.643 260.045 415.643C260.195 415.643 260.351 415.63 260.514 415.604C260.683 415.571 260.81 415.545 260.895 415.525L260.904 417C260.761 417.046 260.572 417.088 260.338 417.127C260.11 417.173 259.833 417.195 259.508 417.195C259.065 417.195 258.658 417.107 258.287 416.932C257.916 416.756 257.62 416.463 257.398 416.053C257.184 415.636 257.076 415.076 257.076 414.373V403.865ZM269.205 415.193V409.754C269.205 409.337 269.12 408.976 268.951 408.67C268.788 408.357 268.541 408.117 268.209 407.947C267.877 407.778 267.467 407.693 266.979 407.693C266.523 407.693 266.122 407.771 265.777 407.928C265.439 408.084 265.172 408.289 264.977 408.543C264.788 408.797 264.693 409.07 264.693 409.363H262.887C262.887 408.986 262.984 408.611 263.18 408.24C263.375 407.869 263.655 407.534 264.02 407.234C264.391 406.928 264.833 406.688 265.348 406.512C265.868 406.329 266.448 406.238 267.086 406.238C267.854 406.238 268.531 406.368 269.117 406.629C269.71 406.889 270.172 407.283 270.504 407.811C270.842 408.331 271.012 408.986 271.012 409.773V414.695C271.012 415.047 271.041 415.421 271.1 415.818C271.165 416.215 271.259 416.557 271.383 416.844V417H269.498C269.407 416.792 269.335 416.515 269.283 416.17C269.231 415.818 269.205 415.493 269.205 415.193ZM269.518 410.594L269.537 411.863H267.711C267.197 411.863 266.738 411.906 266.334 411.99C265.93 412.068 265.592 412.189 265.318 412.352C265.045 412.514 264.837 412.719 264.693 412.967C264.55 413.208 264.479 413.491 264.479 413.816C264.479 414.148 264.553 414.451 264.703 414.725C264.853 414.998 265.077 415.216 265.377 415.379C265.683 415.535 266.057 415.613 266.5 415.613C267.053 415.613 267.542 415.496 267.965 415.262C268.388 415.027 268.723 414.741 268.971 414.402C269.225 414.064 269.361 413.735 269.381 413.416L270.152 414.285C270.107 414.559 269.983 414.861 269.781 415.193C269.579 415.525 269.309 415.844 268.971 416.15C268.639 416.45 268.242 416.701 267.779 416.902C267.324 417.098 266.809 417.195 266.236 417.195C265.52 417.195 264.892 417.055 264.352 416.775C263.818 416.495 263.401 416.121 263.102 415.652C262.809 415.177 262.662 414.646 262.662 414.061C262.662 413.494 262.773 412.996 262.994 412.566C263.215 412.13 263.535 411.769 263.951 411.482C264.368 411.189 264.869 410.968 265.455 410.818C266.041 410.669 266.695 410.594 267.418 410.594H269.518ZM278.277 406.434V407.82H272.564V406.434H278.277ZM274.498 403.865H276.305V414.383C276.305 414.741 276.36 415.011 276.471 415.193C276.581 415.376 276.725 415.496 276.9 415.555C277.076 415.613 277.265 415.643 277.467 415.643C277.617 415.643 277.773 415.63 277.936 415.604C278.105 415.571 278.232 415.545 278.316 415.525L278.326 417C278.183 417.046 277.994 417.088 277.76 417.127C277.532 417.173 277.255 417.195 276.93 417.195C276.487 417.195 276.08 417.107 275.709 416.932C275.338 416.756 275.042 416.463 274.82 416.053C274.605 415.636 274.498 415.076 274.498 414.373V403.865ZM282.359 406.434V417H280.543V406.434H282.359ZM280.406 403.631C280.406 403.338 280.494 403.09 280.67 402.889C280.852 402.687 281.119 402.586 281.471 402.586C281.816 402.586 282.079 402.687 282.262 402.889C282.451 403.09 282.545 403.338 282.545 403.631C282.545 403.911 282.451 404.152 282.262 404.354C282.079 404.549 281.816 404.646 281.471 404.646C281.119 404.646 280.852 404.549 280.67 404.354C280.494 404.152 280.406 403.911 280.406 403.631ZM284.781 411.834V411.609C284.781 410.848 284.892 410.141 285.113 409.49C285.335 408.833 285.654 408.263 286.07 407.781C286.487 407.293 286.992 406.915 287.584 406.648C288.176 406.375 288.84 406.238 289.576 406.238C290.318 406.238 290.986 406.375 291.578 406.648C292.177 406.915 292.685 407.293 293.102 407.781C293.525 408.263 293.847 408.833 294.068 409.49C294.29 410.141 294.4 410.848 294.4 411.609V411.834C294.4 412.596 294.29 413.302 294.068 413.953C293.847 414.604 293.525 415.174 293.102 415.662C292.685 416.144 292.18 416.521 291.588 416.795C291.002 417.062 290.338 417.195 289.596 417.195C288.854 417.195 288.186 417.062 287.594 416.795C287.001 416.521 286.493 416.144 286.07 415.662C285.654 415.174 285.335 414.604 285.113 413.953C284.892 413.302 284.781 412.596 284.781 411.834ZM286.588 411.609V411.834C286.588 412.361 286.65 412.859 286.773 413.328C286.897 413.79 287.083 414.201 287.33 414.559C287.584 414.917 287.9 415.2 288.277 415.408C288.655 415.61 289.094 415.711 289.596 415.711C290.09 415.711 290.523 415.61 290.895 415.408C291.272 415.2 291.585 414.917 291.832 414.559C292.079 414.201 292.265 413.79 292.389 413.328C292.519 412.859 292.584 412.361 292.584 411.834V411.609C292.584 411.089 292.519 410.597 292.389 410.135C292.265 409.666 292.076 409.253 291.822 408.895C291.575 408.53 291.262 408.243 290.885 408.035C290.514 407.827 290.077 407.723 289.576 407.723C289.081 407.723 288.645 407.827 288.268 408.035C287.896 408.243 287.584 408.53 287.33 408.895C287.083 409.253 286.897 409.666 286.773 410.135C286.65 410.597 286.588 411.089 286.588 411.609ZM298.473 408.689V417H296.666V406.434H298.375L298.473 408.689ZM298.043 411.316L297.291 411.287C297.298 410.564 297.405 409.897 297.613 409.285C297.822 408.667 298.115 408.13 298.492 407.674C298.87 407.218 299.319 406.867 299.84 406.619C300.367 406.365 300.95 406.238 301.588 406.238C302.109 406.238 302.577 406.31 302.994 406.453C303.411 406.59 303.766 406.811 304.059 407.117C304.358 407.423 304.586 407.82 304.742 408.309C304.898 408.79 304.977 409.38 304.977 410.076V417H303.16V410.057C303.16 409.503 303.079 409.061 302.916 408.729C302.753 408.39 302.516 408.146 302.203 407.996C301.891 407.84 301.507 407.762 301.051 407.762C300.602 407.762 300.191 407.856 299.82 408.045C299.456 408.234 299.14 408.494 298.873 408.826C298.613 409.158 298.408 409.539 298.258 409.969C298.115 410.392 298.043 410.841 298.043 411.316Z" fill="#FC8C25"/>
</svg>
