<svg width="500" height="500" viewBox="0 0 500 500" fill="none" xmlns="http://www.w3.org/2000/svg">
<path d="M479.02 108.012H460V104.742H479.02V108.012ZM484.064 104.496C484.592 104.496 485.037 104.654 485.4 104.971C485.764 105.299 485.945 105.779 485.945 106.412C485.945 107.033 485.764 107.508 485.4 107.836C485.037 108.176 484.592 108.346 484.064 108.346C483.561 108.346 483.127 108.176 482.764 107.836C482.412 107.508 482.236 107.033 482.236 106.412C482.236 105.779 482.412 105.299 482.764 104.971C483.127 104.654 483.561 104.496 484.064 104.496ZM474.959 116.484H460V113.232H479.02V116.309L474.959 116.484ZM470.23 115.711L470.283 114.357C471.584 114.369 472.785 114.562 473.887 114.938C475 115.312 475.967 115.84 476.787 116.52C477.607 117.199 478.24 118.008 478.686 118.945C479.143 119.895 479.371 120.943 479.371 122.092C479.371 123.029 479.242 123.873 478.984 124.623C478.738 125.373 478.34 126.012 477.789 126.539C477.238 127.078 476.523 127.488 475.645 127.77C474.777 128.051 473.717 128.191 472.463 128.191H460V124.922H472.498C473.494 124.922 474.291 124.775 474.889 124.482C475.498 124.189 475.938 123.762 476.207 123.199C476.488 122.637 476.629 121.945 476.629 121.125C476.629 120.316 476.459 119.578 476.119 118.91C475.779 118.254 475.311 117.686 474.713 117.205C474.115 116.736 473.43 116.367 472.656 116.098C471.895 115.84 471.086 115.711 470.23 115.711ZM487 136.664H460V133.395H487V136.664ZM479.02 145.418H460V142.148H479.02V145.418ZM484.064 141.902C484.592 141.902 485.037 142.061 485.4 142.377C485.764 142.705 485.945 143.186 485.945 143.818C485.945 144.439 485.764 144.914 485.4 145.242C485.037 145.582 484.592 145.752 484.064 145.752C483.561 145.752 483.127 145.582 482.764 145.242C482.412 144.914 482.236 144.439 482.236 143.818C482.236 143.186 482.412 142.705 482.764 142.377C483.127 142.061 483.561 141.902 484.064 141.902ZM474.959 153.891H460V150.639H479.02V153.715L474.959 153.891ZM470.23 153.117L470.283 151.764C471.584 151.775 472.785 151.969 473.887 152.344C475 152.719 475.967 153.246 476.787 153.926C477.607 154.605 478.24 155.414 478.686 156.352C479.143 157.301 479.371 158.35 479.371 159.498C479.371 160.436 479.242 161.279 478.984 162.029C478.738 162.779 478.34 163.418 477.789 163.945C477.238 164.484 476.523 164.895 475.645 165.176C474.777 165.457 473.717 165.598 472.463 165.598H460V162.328H472.498C473.494 162.328 474.291 162.182 474.889 161.889C475.498 161.596 475.938 161.168 476.207 160.605C476.488 160.043 476.629 159.352 476.629 158.531C476.629 157.723 476.459 156.984 476.119 156.316C475.779 155.66 475.311 155.092 474.713 154.611C474.115 154.143 473.43 153.773 472.656 153.504C471.895 153.246 471.086 153.117 470.23 153.117ZM459.648 178.43C459.648 177.105 459.871 175.904 460.316 174.826C460.773 173.76 461.412 172.84 462.232 172.066C463.053 171.305 464.025 170.719 465.15 170.309C466.275 169.898 467.506 169.693 468.842 169.693H469.58C471.127 169.693 472.504 169.922 473.711 170.379C474.93 170.836 475.961 171.457 476.805 172.242C477.648 173.027 478.287 173.918 478.721 174.914C479.154 175.91 479.371 176.941 479.371 178.008C479.371 179.367 479.137 180.539 478.668 181.523C478.199 182.52 477.543 183.334 476.699 183.967C475.867 184.6 474.883 185.068 473.746 185.373C472.621 185.678 471.391 185.83 470.055 185.83H468.596V171.627H471.25V182.578H471.496C472.34 182.531 473.16 182.355 473.957 182.051C474.754 181.758 475.41 181.289 475.926 180.645C476.441 180 476.699 179.121 476.699 178.008C476.699 177.27 476.541 176.59 476.225 175.969C475.92 175.348 475.463 174.814 474.854 174.369C474.244 173.924 473.5 173.578 472.621 173.332C471.742 173.086 470.729 172.963 469.58 172.963H468.842C467.939 172.963 467.09 173.086 466.293 173.332C465.508 173.59 464.816 173.959 464.219 174.439C463.621 174.932 463.152 175.523 462.812 176.215C462.473 176.918 462.303 177.715 462.303 178.605C462.303 179.754 462.537 180.727 463.006 181.523C463.475 182.32 464.102 183.018 464.887 183.615L463.322 185.584C462.701 185.174 462.109 184.652 461.547 184.02C460.984 183.387 460.527 182.607 460.176 181.682C459.824 180.768 459.648 179.684 459.648 178.43ZM463.691 219.475H487V222.744H460V219.756L463.691 219.475ZM469.299 206.678H469.668C471.121 206.678 472.439 206.854 473.623 207.205C474.818 207.568 475.844 208.078 476.699 208.734C477.555 209.402 478.211 210.193 478.668 211.107C479.137 212.033 479.371 213.064 479.371 214.201C479.371 215.396 479.16 216.439 478.738 217.33C478.328 218.232 477.725 218.994 476.928 219.615C476.143 220.248 475.193 220.746 474.08 221.109C472.967 221.473 471.707 221.725 470.301 221.865H468.684C467.289 221.736 466.035 221.484 464.922 221.109C463.809 220.746 462.859 220.248 462.074 219.615C461.289 218.994 460.686 218.232 460.264 217.33C459.854 216.428 459.648 215.373 459.648 214.166C459.648 213.053 459.889 212.033 460.369 211.107C460.85 210.193 461.523 209.402 462.391 208.734C463.258 208.078 464.277 207.568 465.449 207.205C466.633 206.854 467.916 206.678 469.299 206.678ZM469.668 209.947H469.299C468.35 209.947 467.459 210.041 466.627 210.229C465.795 210.428 465.062 210.732 464.43 211.143C463.797 211.553 463.299 212.074 462.936 212.707C462.584 213.34 462.408 214.096 462.408 214.975C462.408 216.053 462.637 216.938 463.094 217.629C463.551 218.332 464.154 218.895 464.904 219.316C465.654 219.738 466.469 220.066 467.348 220.301H471.584C472.229 220.16 472.85 219.955 473.447 219.686C474.057 219.428 474.596 219.088 475.064 218.666C475.545 218.256 475.926 217.746 476.207 217.137C476.488 216.539 476.629 215.83 476.629 215.01C476.629 214.119 476.441 213.352 476.066 212.707C475.703 212.074 475.199 211.553 474.555 211.143C473.922 210.732 473.184 210.428 472.34 210.229C471.508 210.041 470.617 209.947 469.668 209.947ZM479.02 231.34H460V228.07H479.02V231.34ZM484.064 227.824C484.592 227.824 485.037 227.982 485.4 228.299C485.764 228.627 485.945 229.107 485.945 229.74C485.945 230.361 485.764 230.836 485.4 231.164C485.037 231.504 484.592 231.674 484.064 231.674C483.561 231.674 483.127 231.504 482.764 231.164C482.412 230.836 482.236 230.361 482.236 229.74C482.236 229.107 482.412 228.627 482.764 228.299C483.127 227.982 483.561 227.824 484.064 227.824ZM476.031 239.812H460V236.561H479.02V239.725L476.031 239.812ZM479.125 245.754L476.102 245.736C476.16 245.467 476.195 245.209 476.207 244.963C476.23 244.729 476.242 244.459 476.242 244.154C476.242 243.404 476.125 242.742 475.891 242.168C475.656 241.594 475.328 241.107 474.906 240.709C474.484 240.311 473.98 239.994 473.395 239.76C472.82 239.537 472.188 239.391 471.496 239.32L470.969 238.406C472.117 238.406 473.195 238.518 474.203 238.74C475.211 238.975 476.102 239.332 476.875 239.812C477.66 240.293 478.27 240.902 478.703 241.641C479.148 242.391 479.371 243.281 479.371 244.312C479.371 244.547 479.342 244.816 479.283 245.121C479.236 245.426 479.184 245.637 479.125 245.754ZM459.648 256.301C459.648 254.977 459.871 253.775 460.316 252.697C460.773 251.631 461.412 250.711 462.232 249.938C463.053 249.176 464.025 248.59 465.15 248.18C466.275 247.77 467.506 247.564 468.842 247.564H469.58C471.127 247.564 472.504 247.793 473.711 248.25C474.93 248.707 475.961 249.328 476.805 250.113C477.648 250.898 478.287 251.789 478.721 252.785C479.154 253.781 479.371 254.812 479.371 255.879C479.371 257.238 479.137 258.41 478.668 259.395C478.199 260.391 477.543 261.205 476.699 261.838C475.867 262.471 474.883 262.939 473.746 263.244C472.621 263.549 471.391 263.701 470.055 263.701H468.596V249.498H471.25V260.449H471.496C472.34 260.402 473.16 260.227 473.957 259.922C474.754 259.629 475.41 259.16 475.926 258.516C476.441 257.871 476.699 256.992 476.699 255.879C476.699 255.141 476.541 254.461 476.225 253.84C475.92 253.219 475.463 252.686 474.854 252.24C474.244 251.795 473.5 251.449 472.621 251.203C471.742 250.957 470.729 250.834 469.58 250.834H468.842C467.939 250.834 467.09 250.957 466.293 251.203C465.508 251.461 464.816 251.83 464.219 252.311C463.621 252.803 463.152 253.395 462.812 254.086C462.473 254.789 462.303 255.586 462.303 256.477C462.303 257.625 462.537 258.598 463.006 259.395C463.475 260.191 464.102 260.889 464.887 261.486L463.322 263.455C462.701 263.045 462.109 262.523 461.547 261.891C460.984 261.258 460.527 260.479 460.176 259.553C459.824 258.639 459.648 257.555 459.648 256.301ZM462.32 275.109C462.32 275.883 462.479 276.598 462.795 277.254C463.111 277.91 463.545 278.449 464.096 278.871C464.658 279.293 465.297 279.533 466.012 279.592V282.686C464.887 282.627 463.838 282.246 462.865 281.543C461.904 280.852 461.125 279.943 460.527 278.818C459.941 277.693 459.648 276.457 459.648 275.109C459.648 273.68 459.9 272.432 460.404 271.365C460.908 270.311 461.6 269.432 462.479 268.729C463.357 268.037 464.365 267.516 465.502 267.164C466.65 266.824 467.863 266.654 469.141 266.654H469.879C471.156 266.654 472.363 266.824 473.5 267.164C474.648 267.516 475.662 268.037 476.541 268.729C477.42 269.432 478.111 270.311 478.615 271.365C479.119 272.432 479.371 273.68 479.371 275.109C479.371 276.598 479.066 277.898 478.457 279.012C477.859 280.125 477.039 280.998 475.996 281.631C474.965 282.275 473.793 282.627 472.48 282.686V279.592C473.266 279.533 473.975 279.311 474.607 278.924C475.24 278.549 475.744 278.033 476.119 277.377C476.506 276.732 476.699 275.977 476.699 275.109C476.699 274.113 476.5 273.275 476.102 272.596C475.715 271.928 475.188 271.395 474.52 270.996C473.863 270.609 473.131 270.328 472.322 270.152C471.525 269.988 470.711 269.906 469.879 269.906H469.141C468.309 269.906 467.488 269.988 466.68 270.152C465.871 270.316 465.139 270.592 464.482 270.979C463.826 271.377 463.299 271.91 462.9 272.578C462.514 273.258 462.32 274.102 462.32 275.109ZM479.02 294.305H476.523V284.021H479.02V294.305ZM483.643 287.502V290.754H464.711C464.066 290.754 463.58 290.854 463.252 291.053C462.924 291.252 462.707 291.51 462.602 291.826C462.496 292.143 462.443 292.482 462.443 292.846C462.443 293.115 462.467 293.396 462.514 293.689C462.572 293.994 462.619 294.223 462.654 294.375L460 294.393C459.918 294.135 459.842 293.795 459.771 293.373C459.689 292.963 459.648 292.465 459.648 291.879C459.648 291.082 459.807 290.35 460.123 289.682C460.439 289.014 460.967 288.48 461.705 288.082C462.455 287.695 463.463 287.502 464.729 287.502H483.643ZM479.02 301.652H460V298.383H479.02V301.652ZM484.064 298.137C484.592 298.137 485.037 298.295 485.4 298.611C485.764 298.939 485.945 299.42 485.945 300.053C485.945 300.674 485.764 301.148 485.4 301.477C485.037 301.816 484.592 301.986 484.064 301.986C483.561 301.986 483.127 301.816 482.764 301.477C482.412 301.148 482.236 300.674 482.236 300.053C482.236 299.42 482.412 298.939 482.764 298.611C483.127 298.295 483.561 298.137 484.064 298.137ZM469.299 306.012H469.703C471.074 306.012 472.346 306.211 473.518 306.609C474.701 307.008 475.727 307.582 476.594 308.332C477.473 309.082 478.152 309.99 478.633 311.057C479.125 312.123 479.371 313.318 479.371 314.643C479.371 315.979 479.125 317.18 478.633 318.246C478.152 319.324 477.473 320.238 476.594 320.988C475.727 321.75 474.701 322.33 473.518 322.729C472.346 323.127 471.074 323.326 469.703 323.326H469.299C467.928 323.326 466.656 323.127 465.484 322.729C464.312 322.33 463.287 321.75 462.408 320.988C461.541 320.238 460.861 319.33 460.369 318.264C459.889 317.209 459.648 316.014 459.648 314.678C459.648 313.342 459.889 312.141 460.369 311.074C460.861 310.008 461.541 309.094 462.408 308.332C463.287 307.582 464.312 307.008 465.484 306.609C466.656 306.211 467.928 306.012 469.299 306.012ZM469.703 309.264H469.299C468.35 309.264 467.453 309.375 466.609 309.598C465.777 309.82 465.039 310.154 464.395 310.6C463.75 311.057 463.24 311.625 462.865 312.305C462.502 312.984 462.32 313.775 462.32 314.678C462.32 315.568 462.502 316.348 462.865 317.016C463.24 317.695 463.75 318.258 464.395 318.703C465.039 319.148 465.777 319.482 466.609 319.705C467.453 319.939 468.35 320.057 469.299 320.057H469.703C470.641 320.057 471.525 319.939 472.357 319.705C473.201 319.482 473.945 319.143 474.59 318.686C475.246 318.24 475.762 317.678 476.137 316.998C476.512 316.33 476.699 315.545 476.699 314.643C476.699 313.752 476.512 312.967 476.137 312.287C475.762 311.619 475.246 311.057 474.59 310.6C473.945 310.154 473.201 309.82 472.357 309.598C471.525 309.375 470.641 309.264 469.703 309.264ZM474.959 330.656H460V327.404H479.02V330.48L474.959 330.656ZM470.23 329.883L470.283 328.529C471.584 328.541 472.785 328.734 473.887 329.109C475 329.484 475.967 330.012 476.787 330.691C477.607 331.371 478.24 332.18 478.686 333.117C479.143 334.066 479.371 335.115 479.371 336.264C479.371 337.201 479.242 338.045 478.984 338.795C478.738 339.545 478.34 340.184 477.789 340.711C477.238 341.25 476.523 341.66 475.645 341.941C474.777 342.223 473.717 342.363 472.463 342.363H460V339.094H472.498C473.494 339.094 474.291 338.947 474.889 338.654C475.498 338.361 475.938 337.934 476.207 337.371C476.488 336.809 476.629 336.117 476.629 335.297C476.629 334.488 476.459 333.75 476.119 333.082C475.779 332.426 475.311 331.857 474.713 331.377C474.115 330.908 473.43 330.539 472.656 330.27C471.895 330.012 471.086 329.883 470.23 329.883Z" fill="#6C41E7"/>
<path d="M448.939 451.061C449.525 451.646 450.475 451.646 451.061 451.061L460.607 441.515C461.192 440.929 461.192 439.979 460.607 439.393C460.021 438.808 459.071 438.808 458.485 439.393L450 447.879L441.515 439.393C440.929 438.808 439.979 438.808 439.393 439.393C438.808 439.979 438.808 440.929 439.393 441.515L448.939 451.061ZM448.5 50L448.5 450L451.5 450L451.5 50L448.5 50Z" fill="#6C41E7"/>
<path d="M48.9393 48.9393C48.3536 49.5251 48.3536 50.4749 48.9393 51.0607L58.4853 60.6066C59.0711 61.1924 60.0208 61.1924 60.6066 60.6066C61.1924 60.0208 61.1924 59.0711 60.6066 58.4853L52.1213 50L60.6066 41.5147C61.1924 40.9289 61.1924 39.9792 60.6066 39.3934C60.0208 38.8076 59.0711 38.8076 58.4853 39.3934L48.9393 48.9393ZM450 48.5L50 48.5V51.5L450 51.5V48.5Z" fill="#058105"/>
<path d="M109.461 18H112.73V41.3086L112.449 45H109.461V18ZM125.58 35.332V35.7012C125.58 37.084 125.416 38.3672 125.088 39.5508C124.76 40.7227 124.279 41.7422 123.646 42.6094C123.014 43.4766 122.24 44.1504 121.326 44.6309C120.412 45.1113 119.363 45.3516 118.18 45.3516C116.973 45.3516 115.912 45.1465 114.998 44.7363C114.096 44.3145 113.334 43.7109 112.713 42.9258C112.092 42.1406 111.594 41.1914 111.219 40.0781C110.855 38.9648 110.604 37.7109 110.463 36.3164V34.6992C110.604 33.293 110.855 32.0332 111.219 30.9199C111.594 29.8066 112.092 28.8574 112.713 28.0723C113.334 27.2754 114.096 26.6719 114.998 26.2617C115.9 25.8398 116.949 25.6289 118.145 25.6289C119.34 25.6289 120.4 25.8633 121.326 26.332C122.252 26.7891 123.025 27.4453 123.646 28.3008C124.279 29.1562 124.76 30.1816 125.088 31.377C125.416 32.5605 125.58 33.8789 125.58 35.332ZM122.311 35.7012V35.332C122.311 34.3828 122.223 33.4922 122.047 32.6602C121.871 31.8164 121.59 31.0781 121.203 30.4453C120.816 29.8008 120.307 29.2969 119.674 28.9336C119.041 28.5586 118.262 28.3711 117.336 28.3711C116.516 28.3711 115.801 28.5117 115.191 28.793C114.594 29.0742 114.084 29.4551 113.662 29.9355C113.24 30.4043 112.895 30.9434 112.625 31.5527C112.367 32.1504 112.174 32.7715 112.045 33.416V37.6523C112.232 38.4727 112.537 39.2637 112.959 40.0254C113.393 40.7754 113.967 41.3906 114.682 41.8711C115.408 42.3516 116.305 42.5918 117.371 42.5918C118.25 42.5918 119 42.416 119.621 42.0645C120.254 41.7012 120.764 41.2031 121.15 40.5703C121.549 39.9375 121.842 39.2051 122.029 38.373C122.217 37.541 122.311 36.6504 122.311 35.7012ZM133.227 18V45H129.957V18H133.227ZM137.586 35.7012V35.2969C137.586 33.9258 137.785 32.6543 138.184 31.4824C138.582 30.2988 139.156 29.2734 139.906 28.4062C140.656 27.5273 141.564 26.8477 142.631 26.3672C143.697 25.875 144.893 25.6289 146.217 25.6289C147.553 25.6289 148.754 25.875 149.82 26.3672C150.898 26.8477 151.812 27.5273 152.562 28.4062C153.324 29.2734 153.904 30.2988 154.303 31.4824C154.701 32.6543 154.9 33.9258 154.9 35.2969V35.7012C154.9 37.0723 154.701 38.3438 154.303 39.5156C153.904 40.6875 153.324 41.7129 152.562 42.5918C151.812 43.459 150.904 44.1387 149.838 44.6309C148.783 45.1113 147.588 45.3516 146.252 45.3516C144.916 45.3516 143.715 45.1113 142.648 44.6309C141.582 44.1387 140.668 43.459 139.906 42.5918C139.156 41.7129 138.582 40.6875 138.184 39.5156C137.785 38.3438 137.586 37.0723 137.586 35.7012ZM140.838 35.2969V35.7012C140.838 36.6504 140.949 37.5469 141.172 38.3906C141.395 39.2227 141.729 39.9609 142.174 40.6055C142.631 41.25 143.199 41.7598 143.879 42.1348C144.559 42.498 145.35 42.6797 146.252 42.6797C147.143 42.6797 147.922 42.498 148.59 42.1348C149.27 41.7598 149.832 41.25 150.277 40.6055C150.723 39.9609 151.057 39.2227 151.279 38.3906C151.514 37.5469 151.631 36.6504 151.631 35.7012V35.2969C151.631 34.3594 151.514 33.4746 151.279 32.6426C151.057 31.7988 150.717 31.0547 150.26 30.4102C149.814 29.7539 149.252 29.2383 148.572 28.8633C147.904 28.4883 147.119 28.3008 146.217 28.3008C145.326 28.3008 144.541 28.4883 143.861 28.8633C143.193 29.2383 142.631 29.7539 142.174 30.4102C141.729 31.0547 141.395 31.7988 141.172 32.6426C140.949 33.4746 140.838 34.3594 140.838 35.2969ZM166.59 42.6797C167.363 42.6797 168.078 42.5215 168.734 42.2051C169.391 41.8887 169.93 41.4551 170.352 40.9043C170.773 40.3418 171.014 39.7031 171.072 38.9883H174.166C174.107 40.1133 173.727 41.1621 173.023 42.1348C172.332 43.0957 171.424 43.875 170.299 44.4727C169.174 45.0586 167.938 45.3516 166.59 45.3516C165.16 45.3516 163.912 45.0996 162.846 44.5957C161.791 44.0918 160.912 43.4004 160.209 42.5215C159.518 41.6426 158.996 40.6348 158.645 39.498C158.305 38.3496 158.135 37.1367 158.135 35.8594V35.1211C158.135 33.8438 158.305 32.6367 158.645 31.5C158.996 30.3516 159.518 29.3379 160.209 28.459C160.912 27.5801 161.791 26.8887 162.846 26.3848C163.912 25.8809 165.16 25.6289 166.59 25.6289C168.078 25.6289 169.379 25.9336 170.492 26.543C171.605 27.1406 172.479 27.9609 173.111 29.0039C173.756 30.0352 174.107 31.207 174.166 32.5195H171.072C171.014 31.7344 170.791 31.0254 170.404 30.3926C170.029 29.7598 169.514 29.2559 168.857 28.8809C168.213 28.4941 167.457 28.3008 166.59 28.3008C165.594 28.3008 164.756 28.5 164.076 28.8984C163.408 29.2852 162.875 29.8125 162.477 30.4805C162.09 31.1367 161.809 31.8691 161.633 32.6777C161.469 33.4746 161.387 34.2891 161.387 35.1211V35.8594C161.387 36.6914 161.469 37.5117 161.633 38.3203C161.797 39.1289 162.072 39.8613 162.459 40.5176C162.857 41.1738 163.391 41.7012 164.059 42.0996C164.738 42.4863 165.582 42.6797 166.59 42.6797ZM181.092 18V45H177.822V18H181.092ZM192.711 25.9805L184.414 34.8574L179.773 39.6738L179.51 36.2109L182.832 32.2383L188.738 25.9805H192.711ZM189.74 45L182.955 35.9297L184.643 33.0293L193.572 45H189.74ZM216.986 41.3086V18H220.256V45H217.268L216.986 41.3086ZM204.189 35.7012V35.332C204.189 33.8789 204.365 32.5605 204.717 31.377C205.08 30.1816 205.59 29.1562 206.246 28.3008C206.914 27.4453 207.705 26.7891 208.619 26.332C209.545 25.8633 210.576 25.6289 211.713 25.6289C212.908 25.6289 213.951 25.8398 214.842 26.2617C215.744 26.6719 216.506 27.2754 217.127 28.0723C217.76 28.8574 218.258 29.8066 218.621 30.9199C218.984 32.0332 219.236 33.293 219.377 34.6992V36.3164C219.248 37.7109 218.996 38.9648 218.621 40.0781C218.258 41.1914 217.76 42.1406 217.127 42.9258C216.506 43.7109 215.744 44.3145 214.842 44.7363C213.939 45.1465 212.885 45.3516 211.678 45.3516C210.564 45.3516 209.545 45.1113 208.619 44.6309C207.705 44.1504 206.914 43.4766 206.246 42.6094C205.59 41.7422 205.08 40.7227 204.717 39.5508C204.365 38.3672 204.189 37.084 204.189 35.7012ZM207.459 35.332V35.7012C207.459 36.6504 207.553 37.541 207.74 38.373C207.939 39.2051 208.244 39.9375 208.654 40.5703C209.064 41.2031 209.586 41.7012 210.219 42.0645C210.852 42.416 211.607 42.5918 212.486 42.5918C213.564 42.5918 214.449 42.3633 215.141 41.9062C215.844 41.4492 216.406 40.8457 216.828 40.0957C217.25 39.3457 217.578 38.5312 217.812 37.6523V33.416C217.672 32.7715 217.467 32.1504 217.197 31.5527C216.939 30.9434 216.6 30.4043 216.178 29.9355C215.768 29.4551 215.258 29.0742 214.648 28.793C214.051 28.5117 213.342 28.3711 212.521 28.3711C211.631 28.3711 210.863 28.5586 210.219 28.9336C209.586 29.2969 209.064 29.8008 208.654 30.4453C208.244 31.0781 207.939 31.8164 207.74 32.6602C207.553 33.4922 207.459 34.3828 207.459 35.332ZM228.852 25.9805V45H225.582V25.9805H228.852ZM225.336 20.9355C225.336 20.4082 225.494 19.9629 225.811 19.5996C226.139 19.2363 226.619 19.0547 227.252 19.0547C227.873 19.0547 228.348 19.2363 228.676 19.5996C229.016 19.9629 229.186 20.4082 229.186 20.9355C229.186 21.4395 229.016 21.873 228.676 22.2363C228.348 22.5879 227.873 22.7637 227.252 22.7637C226.619 22.7637 226.139 22.5879 225.811 22.2363C225.494 21.873 225.336 21.4395 225.336 20.9355ZM237.324 28.9688V45H234.072V25.9805H237.236L237.324 28.9688ZM243.266 25.875L243.248 28.8984C242.979 28.8398 242.721 28.8047 242.475 28.793C242.24 28.7695 241.971 28.7578 241.666 28.7578C240.916 28.7578 240.254 28.875 239.68 29.1094C239.105 29.3438 238.619 29.6719 238.221 30.0938C237.822 30.5156 237.506 31.0195 237.271 31.6055C237.049 32.1797 236.902 32.8125 236.832 33.5039L235.918 34.0312C235.918 32.8828 236.029 31.8047 236.252 30.7969C236.486 29.7891 236.844 28.8984 237.324 28.125C237.805 27.3398 238.414 26.7305 239.152 26.2969C239.902 25.8516 240.793 25.6289 241.824 25.6289C242.059 25.6289 242.328 25.6582 242.633 25.7168C242.938 25.7637 243.148 25.8164 243.266 25.875ZM253.812 45.3516C252.488 45.3516 251.287 45.1289 250.209 44.6836C249.143 44.2266 248.223 43.5879 247.449 42.7676C246.688 41.9473 246.102 40.9746 245.691 39.8496C245.281 38.7246 245.076 37.4941 245.076 36.1582V35.4199C245.076 33.873 245.305 32.4961 245.762 31.2891C246.219 30.0703 246.84 29.0391 247.625 28.1953C248.41 27.3516 249.301 26.7129 250.297 26.2793C251.293 25.8457 252.324 25.6289 253.391 25.6289C254.75 25.6289 255.922 25.8633 256.906 26.332C257.902 26.8008 258.717 27.457 259.35 28.3008C259.982 29.1328 260.451 30.1172 260.756 31.2539C261.061 32.3789 261.213 33.6094 261.213 34.9453V36.4043H247.01V33.75H257.961V33.5039C257.914 32.6602 257.738 31.8398 257.434 31.043C257.141 30.2461 256.672 29.5898 256.027 29.0742C255.383 28.5586 254.504 28.3008 253.391 28.3008C252.652 28.3008 251.973 28.459 251.352 28.7754C250.73 29.0801 250.197 29.5371 249.752 30.1465C249.307 30.7559 248.961 31.5 248.715 32.3789C248.469 33.2578 248.346 34.2715 248.346 35.4199V36.1582C248.346 37.0605 248.469 37.9102 248.715 38.707C248.973 39.4922 249.342 40.1836 249.822 40.7812C250.314 41.3789 250.906 41.8477 251.598 42.1875C252.301 42.5273 253.098 42.6973 253.988 42.6973C255.137 42.6973 256.109 42.4629 256.906 41.9941C257.703 41.5254 258.4 40.8984 258.998 40.1133L260.967 41.6777C260.557 42.2988 260.035 42.8906 259.402 43.4531C258.77 44.0156 257.99 44.4727 257.064 44.8242C256.15 45.1758 255.066 45.3516 253.812 45.3516ZM272.621 42.6797C273.395 42.6797 274.109 42.5215 274.766 42.2051C275.422 41.8887 275.961 41.4551 276.383 40.9043C276.805 40.3418 277.045 39.7031 277.104 38.9883H280.197C280.139 40.1133 279.758 41.1621 279.055 42.1348C278.363 43.0957 277.455 43.875 276.33 44.4727C275.205 45.0586 273.969 45.3516 272.621 45.3516C271.191 45.3516 269.943 45.0996 268.877 44.5957C267.822 44.0918 266.943 43.4004 266.24 42.5215C265.549 41.6426 265.027 40.6348 264.676 39.498C264.336 38.3496 264.166 37.1367 264.166 35.8594V35.1211C264.166 33.8438 264.336 32.6367 264.676 31.5C265.027 30.3516 265.549 29.3379 266.24 28.459C266.943 27.5801 267.822 26.8887 268.877 26.3848C269.943 25.8809 271.191 25.6289 272.621 25.6289C274.109 25.6289 275.41 25.9336 276.523 26.543C277.637 27.1406 278.51 27.9609 279.143 29.0039C279.787 30.0352 280.139 31.207 280.197 32.5195H277.104C277.045 31.7344 276.822 31.0254 276.436 30.3926C276.061 29.7598 275.545 29.2559 274.889 28.8809C274.244 28.4941 273.488 28.3008 272.621 28.3008C271.625 28.3008 270.787 28.5 270.107 28.8984C269.439 29.2852 268.906 29.8125 268.508 30.4805C268.121 31.1367 267.84 31.8691 267.664 32.6777C267.5 33.4746 267.418 34.2891 267.418 35.1211V35.8594C267.418 36.6914 267.5 37.5117 267.664 38.3203C267.828 39.1289 268.104 39.8613 268.49 40.5176C268.889 41.1738 269.422 41.7012 270.09 42.0996C270.77 42.4863 271.613 42.6797 272.621 42.6797ZM291.816 25.9805V28.4766H281.533V25.9805H291.816ZM285.014 21.3574H288.266V40.2891C288.266 40.9336 288.365 41.4199 288.564 41.748C288.764 42.0762 289.021 42.293 289.338 42.3984C289.654 42.5039 289.994 42.5566 290.357 42.5566C290.627 42.5566 290.908 42.5332 291.201 42.4863C291.506 42.4277 291.734 42.3809 291.887 42.3457L291.904 45C291.646 45.082 291.307 45.1582 290.885 45.2285C290.475 45.3105 289.977 45.3516 289.391 45.3516C288.594 45.3516 287.861 45.1934 287.193 44.877C286.525 44.5605 285.992 44.0332 285.594 43.2949C285.207 42.5449 285.014 41.5371 285.014 40.2715V21.3574ZM299.164 25.9805V45H295.895V25.9805H299.164ZM295.648 20.9355C295.648 20.4082 295.807 19.9629 296.123 19.5996C296.451 19.2363 296.932 19.0547 297.564 19.0547C298.186 19.0547 298.66 19.2363 298.988 19.5996C299.328 19.9629 299.498 20.4082 299.498 20.9355C299.498 21.4395 299.328 21.873 298.988 22.2363C298.66 22.5879 298.186 22.7637 297.564 22.7637C296.932 22.7637 296.451 22.5879 296.123 22.2363C295.807 21.873 295.648 21.4395 295.648 20.9355ZM303.523 35.7012V35.2969C303.523 33.9258 303.723 32.6543 304.121 31.4824C304.52 30.2988 305.094 29.2734 305.844 28.4062C306.594 27.5273 307.502 26.8477 308.568 26.3672C309.635 25.875 310.83 25.6289 312.154 25.6289C313.49 25.6289 314.691 25.875 315.758 26.3672C316.836 26.8477 317.75 27.5273 318.5 28.4062C319.262 29.2734 319.842 30.2988 320.24 31.4824C320.639 32.6543 320.838 33.9258 320.838 35.2969V35.7012C320.838 37.0723 320.639 38.3438 320.24 39.5156C319.842 40.6875 319.262 41.7129 318.5 42.5918C317.75 43.459 316.842 44.1387 315.775 44.6309C314.721 45.1113 313.525 45.3516 312.189 45.3516C310.854 45.3516 309.652 45.1113 308.586 44.6309C307.52 44.1387 306.605 43.459 305.844 42.5918C305.094 41.7129 304.52 40.6875 304.121 39.5156C303.723 38.3438 303.523 37.0723 303.523 35.7012ZM306.775 35.2969V35.7012C306.775 36.6504 306.887 37.5469 307.109 38.3906C307.332 39.2227 307.666 39.9609 308.111 40.6055C308.568 41.25 309.137 41.7598 309.816 42.1348C310.496 42.498 311.287 42.6797 312.189 42.6797C313.08 42.6797 313.859 42.498 314.527 42.1348C315.207 41.7598 315.77 41.25 316.215 40.6055C316.66 39.9609 316.994 39.2227 317.217 38.3906C317.451 37.5469 317.568 36.6504 317.568 35.7012V35.2969C317.568 34.3594 317.451 33.4746 317.217 32.6426C316.994 31.7988 316.654 31.0547 316.197 30.4102C315.752 29.7539 315.189 29.2383 314.51 28.8633C313.842 28.4883 313.057 28.3008 312.154 28.3008C311.264 28.3008 310.479 28.4883 309.799 28.8633C309.131 29.2383 308.568 29.7539 308.111 30.4102C307.666 31.0547 307.332 31.7988 307.109 32.6426C306.887 33.4746 306.775 34.3594 306.775 35.2969ZM328.168 30.041V45H324.916V25.9805H327.992L328.168 30.041ZM327.395 34.7695L326.041 34.7168C326.053 33.416 326.246 32.2148 326.621 31.1133C326.996 30 327.523 29.0332 328.203 28.2129C328.883 27.3926 329.691 26.7598 330.629 26.3145C331.578 25.8574 332.627 25.6289 333.775 25.6289C334.713 25.6289 335.557 25.7578 336.307 26.0156C337.057 26.2617 337.695 26.6602 338.223 27.2109C338.762 27.7617 339.172 28.4766 339.453 29.3555C339.734 30.2227 339.875 31.2832 339.875 32.5371V45H336.605V32.502C336.605 31.5059 336.459 30.709 336.166 30.1113C335.873 29.502 335.445 29.0625 334.883 28.793C334.32 28.5117 333.629 28.3711 332.809 28.3711C332 28.3711 331.262 28.541 330.594 28.8809C329.938 29.2207 329.369 29.6895 328.889 30.2871C328.42 30.8848 328.051 31.5703 327.781 32.3438C327.523 33.1055 327.395 33.9141 327.395 34.7695Z" fill="#058105"/>
<path d="M275.969 144.25V150.25C273.094 149.938 270.521 149.115 268.25 147.781C265.979 146.448 264.177 144.562 262.844 142.125C261.531 139.688 260.875 136.646 260.875 133C260.875 130.333 261.375 127.906 262.375 125.719C263.375 123.552 264.792 121.688 266.625 120.125C268.479 118.562 270.698 117.354 273.281 116.5C275.885 115.667 278.781 115.25 281.969 115.25H286.5C289.688 115.25 292.573 115.667 295.156 116.5C297.76 117.354 299.99 118.573 301.844 120.156C303.698 121.76 305.125 123.688 306.125 125.938C307.125 128.188 307.625 130.719 307.625 133.531C307.625 136.969 306.979 139.875 305.688 142.25C304.396 144.625 302.604 146.469 300.312 147.781C298.042 149.115 295.406 149.938 292.406 150.25V144.25C294.531 143.958 296.354 143.417 297.875 142.625C299.417 141.833 300.604 140.708 301.438 139.25C302.271 137.792 302.688 135.885 302.688 133.531C302.688 131.51 302.302 129.729 301.531 128.188C300.76 126.667 299.667 125.385 298.25 124.344C296.833 123.323 295.135 122.552 293.156 122.031C291.177 121.51 288.979 121.25 286.562 121.25H281.969C279.74 121.25 277.646 121.479 275.688 121.938C273.729 122.417 272.01 123.135 270.531 124.094C269.052 125.052 267.885 126.271 267.031 127.75C266.198 129.229 265.781 130.979 265.781 133C265.781 135.562 266.188 137.604 267 139.125C267.812 140.646 268.979 141.792 270.5 142.562C272.021 143.354 273.844 143.917 275.969 144.25ZM273 182.719C274.062 182.719 275 182.552 275.812 182.219C276.646 181.906 277.396 181.344 278.062 180.531C278.729 179.74 279.365 178.635 279.969 177.219C280.573 175.823 281.188 174.052 281.812 171.906C282.479 169.656 283.219 167.625 284.031 165.812C284.865 164 285.812 162.448 286.875 161.156C287.938 159.865 289.156 158.875 290.531 158.188C291.906 157.5 293.479 157.156 295.25 157.156C297.021 157.156 298.656 157.521 300.156 158.25C301.656 158.979 302.958 160.021 304.062 161.375C305.188 162.75 306.062 164.385 306.688 166.281C307.312 168.177 307.625 170.292 307.625 172.625C307.625 176.042 306.969 178.938 305.656 181.312C304.365 183.708 302.667 185.531 300.562 186.781C298.479 188.031 296.25 188.656 293.875 188.656V182.656C295.583 182.656 297.094 182.292 298.406 181.562C299.74 180.833 300.781 179.729 301.531 178.25C302.302 176.771 302.688 174.896 302.688 172.625C302.688 170.479 302.365 168.708 301.719 167.312C301.073 165.917 300.198 164.875 299.094 164.188C297.99 163.521 296.729 163.188 295.312 163.188C294.354 163.188 293.479 163.385 292.688 163.781C291.917 164.198 291.198 164.833 290.531 165.688C289.865 166.562 289.25 167.667 288.688 169C288.125 170.354 287.583 171.969 287.062 173.844C286.333 176.427 285.521 178.656 284.625 180.531C283.729 182.406 282.719 183.948 281.594 185.156C280.49 186.385 279.229 187.292 277.812 187.875C276.417 188.479 274.833 188.781 273.062 188.781C271.208 188.781 269.531 188.406 268.031 187.656C266.531 186.906 265.25 185.833 264.188 184.438C263.125 183.042 262.302 181.365 261.719 179.406C261.156 177.469 260.875 175.302 260.875 172.906C260.875 170.802 261.167 168.729 261.75 166.688C262.333 164.667 263.208 162.823 264.375 161.156C265.542 159.51 266.979 158.188 268.688 157.188C270.417 156.208 272.417 155.719 274.688 155.719V161.719C273.125 161.719 271.781 162.021 270.656 162.625C269.552 163.229 268.635 164.052 267.906 165.094C267.177 166.156 266.635 167.354 266.281 168.688C265.948 170.042 265.781 171.448 265.781 172.906C265.781 175.01 266.073 176.792 266.656 178.25C267.24 179.708 268.073 180.812 269.156 181.562C270.24 182.333 271.521 182.719 273 182.719ZM273 220.719C274.062 220.719 275 220.552 275.812 220.219C276.646 219.906 277.396 219.344 278.062 218.531C278.729 217.74 279.365 216.635 279.969 215.219C280.573 213.823 281.188 212.052 281.812 209.906C282.479 207.656 283.219 205.625 284.031 203.812C284.865 202 285.812 200.448 286.875 199.156C287.938 197.865 289.156 196.875 290.531 196.188C291.906 195.5 293.479 195.156 295.25 195.156C297.021 195.156 298.656 195.521 300.156 196.25C301.656 196.979 302.958 198.021 304.062 199.375C305.188 200.75 306.062 202.385 306.688 204.281C307.312 206.177 307.625 208.292 307.625 210.625C307.625 214.042 306.969 216.938 305.656 219.312C304.365 221.708 302.667 223.531 300.562 224.781C298.479 226.031 296.25 226.656 293.875 226.656V220.656C295.583 220.656 297.094 220.292 298.406 219.562C299.74 218.833 300.781 217.729 301.531 216.25C302.302 214.771 302.688 212.896 302.688 210.625C302.688 208.479 302.365 206.708 301.719 205.312C301.073 203.917 300.198 202.875 299.094 202.188C297.99 201.521 296.729 201.188 295.312 201.188C294.354 201.188 293.479 201.385 292.688 201.781C291.917 202.198 291.198 202.833 290.531 203.688C289.865 204.562 289.25 205.667 288.688 207C288.125 208.354 287.583 209.969 287.062 211.844C286.333 214.427 285.521 216.656 284.625 218.531C283.729 220.406 282.719 221.948 281.594 223.156C280.49 224.385 279.229 225.292 277.812 225.875C276.417 226.479 274.833 226.781 273.062 226.781C271.208 226.781 269.531 226.406 268.031 225.656C266.531 224.906 265.25 223.833 264.188 222.438C263.125 221.042 262.302 219.365 261.719 217.406C261.156 215.469 260.875 213.302 260.875 210.906C260.875 208.802 261.167 206.729 261.75 204.688C262.333 202.667 263.208 200.823 264.375 199.156C265.542 197.51 266.979 196.188 268.688 195.188C270.417 194.208 272.417 193.719 274.688 193.719V199.719C273.125 199.719 271.781 200.021 270.656 200.625C269.552 201.229 268.635 202.052 267.906 203.094C267.177 204.156 266.635 205.354 266.281 206.688C265.948 208.042 265.781 209.448 265.781 210.906C265.781 213.01 266.073 214.792 266.656 216.25C267.24 217.708 268.073 218.812 269.156 219.562C270.24 220.333 271.521 220.719 273 220.719ZM295.312 255.75H261.5V249.938H295.312V255.75ZM304.281 249.5C305.219 249.5 306.01 249.781 306.656 250.344C307.302 250.927 307.625 251.781 307.625 252.906C307.625 254.01 307.302 254.854 306.656 255.438C306.01 256.042 305.219 256.344 304.281 256.344C303.385 256.344 302.615 256.042 301.969 255.438C301.344 254.854 301.031 254.01 301.031 252.906C301.031 251.781 301.344 250.927 301.969 250.344C302.615 249.781 303.385 249.5 304.281 249.5ZM270.469 284.719C271.302 284.719 272.073 284.531 272.781 284.156C273.51 283.802 274.167 283.062 274.75 281.938C275.354 280.833 275.875 279.167 276.312 276.938C276.708 275.062 277.177 273.365 277.719 271.844C278.26 270.344 278.917 269.062 279.688 268C280.458 266.958 281.365 266.156 282.406 265.594C283.448 265.031 284.667 264.75 286.062 264.75C287.396 264.75 288.656 265.042 289.844 265.625C291.031 266.229 292.083 267.073 293 268.156C293.917 269.26 294.635 270.583 295.156 272.125C295.677 273.667 295.938 275.385 295.938 277.281C295.938 279.99 295.458 282.302 294.5 284.219C293.542 286.135 292.26 287.604 290.656 288.625C289.073 289.646 287.312 290.156 285.375 290.156V284.375C286.312 284.375 287.219 284.094 288.094 283.531C288.99 282.99 289.729 282.188 290.312 281.125C290.896 280.083 291.188 278.802 291.188 277.281C291.188 275.677 290.938 274.375 290.438 273.375C289.958 272.396 289.344 271.677 288.594 271.219C287.844 270.781 287.052 270.562 286.219 270.562C285.594 270.562 285.031 270.667 284.531 270.875C284.052 271.104 283.604 271.5 283.188 272.062C282.792 272.625 282.417 273.417 282.062 274.438C281.708 275.458 281.354 276.76 281 278.344C280.375 281.115 279.625 283.396 278.75 285.188C277.875 286.979 276.802 288.312 275.531 289.188C274.26 290.062 272.719 290.5 270.906 290.5C269.427 290.5 268.073 290.188 266.844 289.562C265.615 288.958 264.552 288.073 263.656 286.906C262.781 285.76 262.094 284.385 261.594 282.781C261.115 281.198 260.875 279.417 260.875 277.438C260.875 274.458 261.406 271.938 262.469 269.875C263.531 267.812 264.906 266.25 266.594 265.188C268.281 264.125 270.062 263.594 271.938 263.594V269.406C270.354 269.49 269.094 269.948 268.156 270.781C267.24 271.615 266.583 272.635 266.188 273.844C265.812 275.052 265.625 276.25 265.625 277.438C265.625 279.021 265.833 280.344 266.25 281.406C266.667 282.49 267.24 283.312 267.969 283.875C268.698 284.438 269.531 284.719 270.469 284.719ZM192.281 135.844H209.688C211.021 135.844 212.177 135.573 213.156 135.031C214.156 134.51 214.927 133.719 215.469 132.656C216.01 131.594 216.281 130.281 216.281 128.719C216.281 127.26 216.031 125.979 215.531 124.875C215.031 123.792 214.375 122.938 213.562 122.312C212.75 121.708 211.875 121.406 210.938 121.406V115.625C212.146 115.625 213.344 115.938 214.531 116.562C215.719 117.188 216.792 118.083 217.75 119.25C218.729 120.438 219.5 121.854 220.062 123.5C220.646 125.167 220.938 127.021 220.938 129.062C220.938 131.521 220.521 133.688 219.688 135.562C218.854 137.458 217.594 138.938 215.906 140C214.24 141.083 212.146 141.625 209.625 141.625H193.875C192.75 141.625 191.552 141.719 190.281 141.906C189.01 142.115 187.917 142.417 187 142.812H186.5V136.781C187.167 136.49 188.052 136.26 189.156 136.094C190.281 135.927 191.323 135.844 192.281 135.844ZM207 136.844L202.938 136.906V131.062C202.938 129.417 202.802 127.948 202.531 126.656C202.281 125.365 201.896 124.281 201.375 123.406C200.854 122.531 200.198 121.865 199.406 121.406C198.635 120.948 197.729 120.719 196.688 120.719C195.625 120.719 194.656 120.958 193.781 121.438C192.906 121.917 192.208 122.635 191.688 123.594C191.188 124.573 190.938 125.771 190.938 127.188C190.938 128.958 191.312 130.521 192.062 131.875C192.812 133.229 193.729 134.302 194.812 135.094C195.896 135.906 196.948 136.344 197.969 136.406L195.188 138.875C194.312 138.729 193.344 138.333 192.281 137.688C191.219 137.042 190.198 136.177 189.219 135.094C188.26 134.031 187.458 132.76 186.812 131.281C186.188 129.823 185.875 128.177 185.875 126.344C185.875 124.052 186.323 122.042 187.219 120.313C188.115 118.604 189.312 117.271 190.812 116.313C192.333 115.375 194.031 114.906 195.906 114.906C197.719 114.906 199.312 115.26 200.688 115.969C202.083 116.677 203.24 117.698 204.156 119.031C205.094 120.365 205.802 121.969 206.281 123.844C206.76 125.719 207 127.812 207 130.125V136.844ZM192.5 159.281L220.312 167.969V171.781L214.781 171.031L186.5 162.188V158.469L192.5 159.281ZM220.312 153.438L192.188 160.844L186.5 161.375V157.469L220.312 147.656V153.438ZM192.406 180.094L220.312 187.156V192.906L186.5 183.094V179.219L192.406 180.094ZM220.312 172.625L192.969 181.125L186.5 182.094V178.406L214.844 169.312L220.312 168.562V172.625ZM185.875 212.875C185.875 210.521 186.271 208.385 187.062 206.469C187.875 204.573 189.01 202.938 190.469 201.562C191.927 200.208 193.656 199.167 195.656 198.438C197.656 197.708 199.844 197.344 202.219 197.344H203.531C206.281 197.344 208.729 197.75 210.875 198.562C213.042 199.375 214.875 200.479 216.375 201.875C217.875 203.271 219.01 204.854 219.781 206.625C220.552 208.396 220.938 210.229 220.938 212.125C220.938 214.542 220.521 216.625 219.688 218.375C218.854 220.146 217.688 221.594 216.188 222.719C214.708 223.844 212.958 224.677 210.938 225.219C208.938 225.76 206.75 226.031 204.375 226.031H201.781V200.781H206.5V220.25H206.938C208.438 220.167 209.896 219.854 211.312 219.312C212.729 218.792 213.896 217.958 214.812 216.812C215.729 215.667 216.188 214.104 216.188 212.125C216.188 210.812 215.906 209.604 215.344 208.5C214.802 207.396 213.99 206.448 212.906 205.656C211.823 204.865 210.5 204.25 208.938 203.812C207.375 203.375 205.573 203.156 203.531 203.156H202.219C200.615 203.156 199.104 203.375 197.688 203.812C196.292 204.271 195.062 204.927 194 205.781C192.938 206.656 192.104 207.708 191.5 208.938C190.896 210.188 190.594 211.604 190.594 213.188C190.594 215.229 191.01 216.958 191.844 218.375C192.677 219.792 193.792 221.031 195.188 222.094L192.406 225.594C191.302 224.865 190.25 223.938 189.25 222.812C188.25 221.688 187.438 220.302 186.812 218.656C186.188 217.031 185.875 215.104 185.875 212.875ZM195.469 252.469C196.302 252.469 197.073 252.281 197.781 251.906C198.51 251.552 199.167 250.812 199.75 249.688C200.354 248.583 200.875 246.917 201.312 244.688C201.708 242.812 202.177 241.115 202.719 239.594C203.26 238.094 203.917 236.812 204.688 235.75C205.458 234.708 206.365 233.906 207.406 233.344C208.448 232.781 209.667 232.5 211.062 232.5C212.396 232.5 213.656 232.792 214.844 233.375C216.031 233.979 217.083 234.823 218 235.906C218.917 237.01 219.635 238.333 220.156 239.875C220.677 241.417 220.938 243.135 220.938 245.031C220.938 247.74 220.458 250.052 219.5 251.969C218.542 253.885 217.26 255.354 215.656 256.375C214.073 257.396 212.312 257.906 210.375 257.906V252.125C211.312 252.125 212.219 251.844 213.094 251.281C213.99 250.74 214.729 249.938 215.312 248.875C215.896 247.833 216.188 246.552 216.188 245.031C216.188 243.427 215.938 242.125 215.438 241.125C214.958 240.146 214.344 239.427 213.594 238.969C212.844 238.531 212.052 238.312 211.219 238.312C210.594 238.312 210.031 238.417 209.531 238.625C209.052 238.854 208.604 239.25 208.188 239.812C207.792 240.375 207.417 241.167 207.062 242.188C206.708 243.208 206.354 244.51 206 246.094C205.375 248.865 204.625 251.146 203.75 252.938C202.875 254.729 201.802 256.062 200.531 256.938C199.26 257.812 197.719 258.25 195.906 258.25C194.427 258.25 193.073 257.938 191.844 257.312C190.615 256.708 189.552 255.823 188.656 254.656C187.781 253.51 187.094 252.135 186.594 250.531C186.115 248.948 185.875 247.167 185.875 245.188C185.875 242.208 186.406 239.688 187.469 237.625C188.531 235.562 189.906 234 191.594 232.938C193.281 231.875 195.062 231.344 196.938 231.344V237.156C195.354 237.24 194.094 237.698 193.156 238.531C192.24 239.365 191.583 240.385 191.188 241.594C190.812 242.802 190.625 244 190.625 245.188C190.625 246.771 190.833 248.094 191.25 249.156C191.667 250.24 192.24 251.062 192.969 251.625C193.698 252.188 194.531 252.469 195.469 252.469ZM203.031 264.312H203.75C206.188 264.312 208.448 264.667 210.531 265.375C212.635 266.083 214.458 267.104 216 268.438C217.562 269.771 218.771 271.385 219.625 273.281C220.5 275.177 220.938 277.302 220.938 279.656C220.938 282.031 220.5 284.167 219.625 286.062C218.771 287.979 217.562 289.604 216 290.938C214.458 292.292 212.635 293.323 210.531 294.031C208.448 294.74 206.188 295.094 203.75 295.094H203.031C200.594 295.094 198.333 294.74 196.25 294.031C194.167 293.323 192.344 292.292 190.781 290.938C189.24 289.604 188.031 287.99 187.156 286.094C186.302 284.219 185.875 282.094 185.875 279.719C185.875 277.344 186.302 275.208 187.156 273.312C188.031 271.417 189.24 269.792 190.781 268.438C192.344 267.104 194.167 266.083 196.25 265.375C198.333 264.667 200.594 264.312 203.031 264.312ZM203.75 270.094H203.031C201.344 270.094 199.75 270.292 198.25 270.688C196.771 271.083 195.458 271.677 194.312 272.469C193.167 273.281 192.26 274.292 191.594 275.5C190.948 276.708 190.625 278.115 190.625 279.719C190.625 281.302 190.948 282.688 191.594 283.875C192.26 285.083 193.167 286.083 194.312 286.875C195.458 287.667 196.771 288.26 198.25 288.656C199.75 289.073 201.344 289.281 203.031 289.281H203.75C205.417 289.281 206.99 289.073 208.469 288.656C209.969 288.26 211.292 287.656 212.438 286.844C213.604 286.052 214.521 285.052 215.188 283.844C215.854 282.656 216.188 281.26 216.188 279.656C216.188 278.073 215.854 276.677 215.188 275.469C214.521 274.281 213.604 273.281 212.438 272.469C211.292 271.677 209.969 271.083 208.469 270.688C206.99 270.292 205.417 270.094 203.75 270.094ZM213.594 308.094H186.5V302.281H220.312V307.781L213.594 308.094ZM204.688 306.906L204.781 304.219C207.094 304.24 209.229 304.542 211.188 305.125C213.167 305.708 214.885 306.573 216.344 307.719C217.802 308.865 218.927 310.292 219.719 312C220.531 313.708 220.938 315.688 220.938 317.938C220.938 319.521 220.708 320.979 220.25 322.312C219.812 323.646 219.115 324.802 218.156 325.781C217.198 326.76 215.969 327.521 214.469 328.062C212.969 328.604 211.156 328.875 209.031 328.875H186.5V323.094H208.75C210.521 323.094 211.938 322.792 213 322.188C214.062 321.604 214.833 320.771 215.312 319.688C215.812 318.604 216.062 317.333 216.062 315.875C216.062 314.167 215.76 312.74 215.156 311.594C214.552 310.448 213.719 309.531 212.656 308.844C211.594 308.156 210.375 307.656 209 307.344C207.646 307.052 206.208 306.906 204.688 306.906ZM207.875 328.812L206.688 324.938C208.542 324.958 210.323 325.26 212.031 325.844C213.74 326.448 215.26 327.312 216.594 328.438C217.927 329.583 218.979 330.99 219.75 332.656C220.542 334.323 220.938 336.229 220.938 338.375C220.938 340.188 220.698 341.792 220.219 343.188C219.74 344.604 219 345.792 218 346.75C217.021 347.729 215.76 348.469 214.219 348.969C212.677 349.469 210.844 349.719 208.719 349.719H186.5V343.906H208.781C210.677 343.906 212.146 343.604 213.188 343C214.25 342.417 214.99 341.583 215.406 340.5C215.844 339.438 216.062 338.167 216.062 336.688C216.062 335.417 215.844 334.292 215.406 333.312C214.969 332.333 214.365 331.51 213.594 330.844C212.844 330.177 211.979 329.667 211 329.312C210.021 328.979 208.979 328.812 207.875 328.812ZM185.875 372.5C185.875 370.146 186.271 368.01 187.063 366.094C187.875 364.198 189.01 362.562 190.469 361.188C191.927 359.833 193.656 358.792 195.656 358.062C197.656 357.333 199.844 356.969 202.219 356.969H203.531C206.281 356.969 208.729 357.375 210.875 358.188C213.042 359 214.875 360.104 216.375 361.5C217.875 362.896 219.01 364.479 219.781 366.25C220.552 368.021 220.938 369.854 220.938 371.75C220.938 374.167 220.521 376.25 219.688 378C218.854 379.771 217.688 381.219 216.188 382.344C214.708 383.469 212.958 384.302 210.938 384.844C208.938 385.385 206.75 385.656 204.375 385.656H201.781V360.406H206.5V379.875H206.938C208.438 379.792 209.896 379.479 211.312 378.938C212.729 378.417 213.896 377.583 214.812 376.438C215.729 375.292 216.188 373.729 216.188 371.75C216.188 370.438 215.906 369.229 215.344 368.125C214.802 367.021 213.99 366.073 212.906 365.281C211.823 364.49 210.5 363.875 208.938 363.438C207.375 363 205.573 362.781 203.531 362.781H202.219C200.615 362.781 199.104 363 197.688 363.438C196.292 363.896 195.062 364.552 194 365.406C192.938 366.281 192.104 367.333 191.5 368.562C190.896 369.812 190.594 371.229 190.594 372.812C190.594 374.854 191.01 376.583 191.844 378C192.677 379.417 193.792 380.656 195.188 381.719L192.406 385.219C191.302 384.49 190.25 383.562 189.25 382.438C188.25 381.312 187.438 379.927 186.813 378.281C186.188 376.656 185.875 374.729 185.875 372.5Z" fill="white" fill-opacity="0.5"/>
<path d="M326.061 435.061C326.646 434.475 326.646 433.525 326.061 432.939L316.515 423.393C315.929 422.808 314.979 422.808 314.393 423.393C313.808 423.979 313.808 424.929 314.393 425.515L322.879 434L314.393 442.485C313.808 443.071 313.808 444.021 314.393 444.607C314.979 445.192 315.929 445.192 316.515 444.607L326.061 435.061ZM125 435.5H325V432.5H125V435.5Z" fill="#FC8C25"/>
<path d="M155.34 412V427H153.523V412H155.34ZM160.203 416.434V427H158.387V416.434H160.203ZM158.25 413.631C158.25 413.338 158.338 413.09 158.514 412.889C158.696 412.687 158.963 412.586 159.314 412.586C159.66 412.586 159.923 412.687 160.105 412.889C160.294 413.09 160.389 413.338 160.389 413.631C160.389 413.911 160.294 414.152 160.105 414.354C159.923 414.549 159.66 414.646 159.314 414.646C158.963 414.646 158.696 414.549 158.514 414.354C158.338 414.152 158.25 413.911 158.25 413.631ZM164.91 418.689V427H163.104V416.434H164.812L164.91 418.689ZM164.48 421.316L163.729 421.287C163.735 420.564 163.842 419.897 164.051 419.285C164.259 418.667 164.552 418.13 164.93 417.674C165.307 417.218 165.757 416.867 166.277 416.619C166.805 416.365 167.387 416.238 168.025 416.238C168.546 416.238 169.015 416.31 169.432 416.453C169.848 416.59 170.203 416.811 170.496 417.117C170.796 417.423 171.023 417.82 171.18 418.309C171.336 418.79 171.414 419.38 171.414 420.076V427H169.598V420.057C169.598 419.503 169.516 419.061 169.354 418.729C169.191 418.39 168.953 418.146 168.641 417.996C168.328 417.84 167.944 417.762 167.488 417.762C167.039 417.762 166.629 417.856 166.258 418.045C165.893 418.234 165.577 418.494 165.311 418.826C165.05 419.158 164.845 419.539 164.695 419.969C164.552 420.392 164.48 420.841 164.48 421.316ZM178.543 427.195C177.807 427.195 177.14 427.072 176.541 426.824C175.949 426.57 175.438 426.215 175.008 425.76C174.585 425.304 174.259 424.764 174.031 424.139C173.803 423.514 173.689 422.83 173.689 422.088V421.678C173.689 420.818 173.816 420.053 174.07 419.383C174.324 418.706 174.669 418.133 175.105 417.664C175.542 417.195 176.036 416.84 176.59 416.6C177.143 416.359 177.716 416.238 178.309 416.238C179.064 416.238 179.715 416.368 180.262 416.629C180.815 416.889 181.268 417.254 181.619 417.723C181.971 418.185 182.231 418.732 182.4 419.363C182.57 419.988 182.654 420.672 182.654 421.414V422.225H174.764V420.75H180.848V420.613C180.822 420.145 180.724 419.689 180.555 419.246C180.392 418.803 180.132 418.439 179.773 418.152C179.415 417.866 178.927 417.723 178.309 417.723C177.898 417.723 177.521 417.811 177.176 417.986C176.831 418.156 176.535 418.41 176.287 418.748C176.04 419.087 175.848 419.5 175.711 419.988C175.574 420.477 175.506 421.04 175.506 421.678V422.088C175.506 422.589 175.574 423.061 175.711 423.504C175.854 423.94 176.059 424.324 176.326 424.656C176.6 424.988 176.928 425.249 177.312 425.438C177.703 425.626 178.146 425.721 178.641 425.721C179.279 425.721 179.819 425.59 180.262 425.33C180.704 425.07 181.092 424.721 181.424 424.285L182.518 425.154C182.29 425.499 182 425.828 181.648 426.141C181.297 426.453 180.864 426.707 180.35 426.902C179.842 427.098 179.24 427.195 178.543 427.195ZM189.246 421.834V421.609C189.246 420.848 189.357 420.141 189.578 419.49C189.799 418.833 190.118 418.263 190.535 417.781C190.952 417.293 191.456 416.915 192.049 416.648C192.641 416.375 193.305 416.238 194.041 416.238C194.783 416.238 195.451 416.375 196.043 416.648C196.642 416.915 197.15 417.293 197.566 417.781C197.99 418.263 198.312 418.833 198.533 419.49C198.755 420.141 198.865 420.848 198.865 421.609V421.834C198.865 422.596 198.755 423.302 198.533 423.953C198.312 424.604 197.99 425.174 197.566 425.662C197.15 426.144 196.645 426.521 196.053 426.795C195.467 427.062 194.803 427.195 194.061 427.195C193.318 427.195 192.651 427.062 192.059 426.795C191.466 426.521 190.958 426.144 190.535 425.662C190.118 425.174 189.799 424.604 189.578 423.953C189.357 423.302 189.246 422.596 189.246 421.834ZM191.053 421.609V421.834C191.053 422.361 191.115 422.859 191.238 423.328C191.362 423.79 191.548 424.201 191.795 424.559C192.049 424.917 192.365 425.2 192.742 425.408C193.12 425.61 193.559 425.711 194.061 425.711C194.555 425.711 194.988 425.61 195.359 425.408C195.737 425.2 196.049 424.917 196.297 424.559C196.544 424.201 196.73 423.79 196.854 423.328C196.984 422.859 197.049 422.361 197.049 421.834V421.609C197.049 421.089 196.984 420.597 196.854 420.135C196.73 419.666 196.541 419.253 196.287 418.895C196.04 418.53 195.727 418.243 195.35 418.035C194.979 417.827 194.542 417.723 194.041 417.723C193.546 417.723 193.11 417.827 192.732 418.035C192.361 418.243 192.049 418.53 191.795 418.895C191.548 419.253 191.362 419.666 191.238 420.135C191.115 420.597 191.053 421.089 191.053 421.609ZM202.938 418.094V427H201.131V416.434H202.889L202.938 418.094ZM206.238 416.375L206.229 418.055C206.079 418.022 205.936 418.003 205.799 417.996C205.669 417.983 205.519 417.977 205.35 417.977C204.933 417.977 204.565 418.042 204.246 418.172C203.927 418.302 203.657 418.484 203.436 418.719C203.214 418.953 203.038 419.233 202.908 419.559C202.785 419.878 202.703 420.229 202.664 420.613L202.156 420.906C202.156 420.268 202.218 419.669 202.342 419.109C202.472 418.549 202.671 418.055 202.938 417.625C203.204 417.189 203.543 416.85 203.953 416.609C204.37 416.362 204.865 416.238 205.438 416.238C205.568 416.238 205.717 416.255 205.887 416.287C206.056 416.313 206.173 416.342 206.238 416.375ZM209.871 416.434V427H208.055V416.434H209.871ZM207.918 413.631C207.918 413.338 208.006 413.09 208.182 412.889C208.364 412.687 208.631 412.586 208.982 412.586C209.327 412.586 209.591 412.687 209.773 412.889C209.962 413.09 210.057 413.338 210.057 413.631C210.057 413.911 209.962 414.152 209.773 414.354C209.591 414.549 209.327 414.646 208.982 414.646C208.631 414.646 208.364 414.549 208.182 414.354C208.006 414.152 207.918 413.911 207.918 413.631ZM217.156 427.195C216.421 427.195 215.753 427.072 215.154 426.824C214.562 426.57 214.051 426.215 213.621 425.76C213.198 425.304 212.872 424.764 212.645 424.139C212.417 423.514 212.303 422.83 212.303 422.088V421.678C212.303 420.818 212.43 420.053 212.684 419.383C212.938 418.706 213.283 418.133 213.719 417.664C214.155 417.195 214.65 416.84 215.203 416.6C215.757 416.359 216.329 416.238 216.922 416.238C217.677 416.238 218.328 416.368 218.875 416.629C219.428 416.889 219.881 417.254 220.232 417.723C220.584 418.185 220.844 418.732 221.014 419.363C221.183 419.988 221.268 420.672 221.268 421.414V422.225H213.377V420.75H219.461V420.613C219.435 420.145 219.337 419.689 219.168 419.246C219.005 418.803 218.745 418.439 218.387 418.152C218.029 417.866 217.54 417.723 216.922 417.723C216.512 417.723 216.134 417.811 215.789 417.986C215.444 418.156 215.148 418.41 214.9 418.748C214.653 419.087 214.461 419.5 214.324 419.988C214.188 420.477 214.119 421.04 214.119 421.678V422.088C214.119 422.589 214.188 423.061 214.324 423.504C214.467 423.94 214.673 424.324 214.939 424.656C215.213 424.988 215.542 425.249 215.926 425.438C216.316 425.626 216.759 425.721 217.254 425.721C217.892 425.721 218.432 425.59 218.875 425.33C219.318 425.07 219.705 424.721 220.037 424.285L221.131 425.154C220.903 425.499 220.613 425.828 220.262 426.141C219.91 426.453 219.477 426.707 218.963 426.902C218.455 427.098 217.853 427.195 217.156 427.195ZM225.184 418.689V427H223.377V416.434H225.086L225.184 418.689ZM224.754 421.316L224.002 421.287C224.008 420.564 224.116 419.897 224.324 419.285C224.533 418.667 224.826 418.13 225.203 417.674C225.581 417.218 226.03 416.867 226.551 416.619C227.078 416.365 227.661 416.238 228.299 416.238C228.82 416.238 229.288 416.31 229.705 416.453C230.122 416.59 230.477 416.811 230.77 417.117C231.069 417.423 231.297 417.82 231.453 418.309C231.609 418.79 231.688 419.38 231.688 420.076V427H229.871V420.057C229.871 419.503 229.79 419.061 229.627 418.729C229.464 418.39 229.227 418.146 228.914 417.996C228.602 417.84 228.217 417.762 227.762 417.762C227.312 417.762 226.902 417.856 226.531 418.045C226.167 418.234 225.851 418.494 225.584 418.826C225.324 419.158 225.118 419.539 224.969 419.969C224.826 420.392 224.754 420.841 224.754 421.316ZM238.855 416.434V417.82H233.143V416.434H238.855ZM235.076 413.865H236.883V424.383C236.883 424.741 236.938 425.011 237.049 425.193C237.16 425.376 237.303 425.496 237.479 425.555C237.654 425.613 237.843 425.643 238.045 425.643C238.195 425.643 238.351 425.63 238.514 425.604C238.683 425.571 238.81 425.545 238.895 425.525L238.904 427C238.761 427.046 238.572 427.088 238.338 427.127C238.11 427.173 237.833 427.195 237.508 427.195C237.065 427.195 236.658 427.107 236.287 426.932C235.916 426.756 235.62 426.463 235.398 426.053C235.184 425.636 235.076 425.076 235.076 424.373V413.865ZM247.205 425.193V419.754C247.205 419.337 247.12 418.976 246.951 418.67C246.788 418.357 246.541 418.117 246.209 417.947C245.877 417.778 245.467 417.693 244.979 417.693C244.523 417.693 244.122 417.771 243.777 417.928C243.439 418.084 243.172 418.289 242.977 418.543C242.788 418.797 242.693 419.07 242.693 419.363H240.887C240.887 418.986 240.984 418.611 241.18 418.24C241.375 417.869 241.655 417.534 242.02 417.234C242.391 416.928 242.833 416.688 243.348 416.512C243.868 416.329 244.448 416.238 245.086 416.238C245.854 416.238 246.531 416.368 247.117 416.629C247.71 416.889 248.172 417.283 248.504 417.811C248.842 418.331 249.012 418.986 249.012 419.773V424.695C249.012 425.047 249.041 425.421 249.1 425.818C249.165 426.215 249.259 426.557 249.383 426.844V427H247.498C247.407 426.792 247.335 426.515 247.283 426.17C247.231 425.818 247.205 425.493 247.205 425.193ZM247.518 420.594L247.537 421.863H245.711C245.197 421.863 244.738 421.906 244.334 421.99C243.93 422.068 243.592 422.189 243.318 422.352C243.045 422.514 242.837 422.719 242.693 422.967C242.55 423.208 242.479 423.491 242.479 423.816C242.479 424.148 242.553 424.451 242.703 424.725C242.853 424.998 243.077 425.216 243.377 425.379C243.683 425.535 244.057 425.613 244.5 425.613C245.053 425.613 245.542 425.496 245.965 425.262C246.388 425.027 246.723 424.741 246.971 424.402C247.225 424.064 247.361 423.735 247.381 423.416L248.152 424.285C248.107 424.559 247.983 424.861 247.781 425.193C247.579 425.525 247.309 425.844 246.971 426.15C246.639 426.45 246.242 426.701 245.779 426.902C245.324 427.098 244.809 427.195 244.236 427.195C243.52 427.195 242.892 427.055 242.352 426.775C241.818 426.495 241.401 426.121 241.102 425.652C240.809 425.177 240.662 424.646 240.662 424.061C240.662 423.494 240.773 422.996 240.994 422.566C241.215 422.13 241.535 421.769 241.951 421.482C242.368 421.189 242.869 420.968 243.455 420.818C244.041 420.669 244.695 420.594 245.418 420.594H247.518ZM256.277 416.434V417.82H250.564V416.434H256.277ZM252.498 413.865H254.305V424.383C254.305 424.741 254.36 425.011 254.471 425.193C254.581 425.376 254.725 425.496 254.9 425.555C255.076 425.613 255.265 425.643 255.467 425.643C255.617 425.643 255.773 425.63 255.936 425.604C256.105 425.571 256.232 425.545 256.316 425.525L256.326 427C256.183 427.046 255.994 427.088 255.76 427.127C255.532 427.173 255.255 427.195 254.93 427.195C254.487 427.195 254.08 427.107 253.709 426.932C253.338 426.756 253.042 426.463 252.82 426.053C252.605 425.636 252.498 425.076 252.498 424.373V413.865ZM260.359 416.434V427H258.543V416.434H260.359ZM258.406 413.631C258.406 413.338 258.494 413.09 258.67 412.889C258.852 412.687 259.119 412.586 259.471 412.586C259.816 412.586 260.079 412.687 260.262 412.889C260.451 413.09 260.545 413.338 260.545 413.631C260.545 413.911 260.451 414.152 260.262 414.354C260.079 414.549 259.816 414.646 259.471 414.646C259.119 414.646 258.852 414.549 258.67 414.354C258.494 414.152 258.406 413.911 258.406 413.631ZM262.781 421.834V421.609C262.781 420.848 262.892 420.141 263.113 419.49C263.335 418.833 263.654 418.263 264.07 417.781C264.487 417.293 264.992 416.915 265.584 416.648C266.176 416.375 266.84 416.238 267.576 416.238C268.318 416.238 268.986 416.375 269.578 416.648C270.177 416.915 270.685 417.293 271.102 417.781C271.525 418.263 271.847 418.833 272.068 419.49C272.29 420.141 272.4 420.848 272.4 421.609V421.834C272.4 422.596 272.29 423.302 272.068 423.953C271.847 424.604 271.525 425.174 271.102 425.662C270.685 426.144 270.18 426.521 269.588 426.795C269.002 427.062 268.338 427.195 267.596 427.195C266.854 427.195 266.186 427.062 265.594 426.795C265.001 426.521 264.493 426.144 264.07 425.662C263.654 425.174 263.335 424.604 263.113 423.953C262.892 423.302 262.781 422.596 262.781 421.834ZM264.588 421.609V421.834C264.588 422.361 264.65 422.859 264.773 423.328C264.897 423.79 265.083 424.201 265.33 424.559C265.584 424.917 265.9 425.2 266.277 425.408C266.655 425.61 267.094 425.711 267.596 425.711C268.09 425.711 268.523 425.61 268.895 425.408C269.272 425.2 269.585 424.917 269.832 424.559C270.079 424.201 270.265 423.79 270.389 423.328C270.519 422.859 270.584 422.361 270.584 421.834V421.609C270.584 421.089 270.519 420.597 270.389 420.135C270.265 419.666 270.076 419.253 269.822 418.895C269.575 418.53 269.262 418.243 268.885 418.035C268.514 417.827 268.077 417.723 267.576 417.723C267.081 417.723 266.645 417.827 266.268 418.035C265.896 418.243 265.584 418.53 265.33 418.895C265.083 419.253 264.897 419.666 264.773 420.135C264.65 420.597 264.588 421.089 264.588 421.609ZM276.473 418.689V427H274.666V416.434H276.375L276.473 418.689ZM276.043 421.316L275.291 421.287C275.298 420.564 275.405 419.897 275.613 419.285C275.822 418.667 276.115 418.13 276.492 417.674C276.87 417.218 277.319 416.867 277.84 416.619C278.367 416.365 278.95 416.238 279.588 416.238C280.109 416.238 280.577 416.31 280.994 416.453C281.411 416.59 281.766 416.811 282.059 417.117C282.358 417.423 282.586 417.82 282.742 418.309C282.898 418.79 282.977 419.38 282.977 420.076V427H281.16V420.057C281.16 419.503 281.079 419.061 280.916 418.729C280.753 418.39 280.516 418.146 280.203 417.996C279.891 417.84 279.507 417.762 279.051 417.762C278.602 417.762 278.191 417.856 277.82 418.045C277.456 418.234 277.14 418.494 276.873 418.826C276.613 419.158 276.408 419.539 276.258 419.969C276.115 420.392 276.043 420.841 276.043 421.316Z" fill="#FC8C25"/>
</svg>
